<svg xmlns="http://www.w3.org/2000/svg" viewBox="0 0 209.19 656.56"><defs><style>.cls-1{fill:#e6e6e6;}.cls-2{fill:#a0616a;}.cls-3{fill:#3f3d56;}.cls-4{fill:#6c63ff;}.cls-5{fill:#2f2e41;}.cls-6{fill:#d0cde1;}</style></defs><title>Asset 2</title><g id="Layer_2" data-name="Layer 2"><g id="a3021eee-13c5-481a-ad89-41ba2f75e20a"><path class="cls-1" d="M20,156.13l2-1.19c1.19,2,2.36,4,3.47,6l-2,1.12C22.36,160.09,21.2,158.09,20,156.13Z"/><path class="cls-2" d="M170.08,154.8s7.9,102.72-3.16,105.88-50.57,26.86-113.78,20.54c0,0-61.63,33.19-52.15,1.58s52.15-23.7,52.15-23.7,75.85-15.81,79-26.87-9.48-56.89-4.74-58.47S170.08,154.8,170.08,154.8Z"/><path class="cls-3" d="M10.09,257.24h0l21.22-4.91a4.63,4.63,0,0,1,5.21,2.5L58.26,299.9a3.76,3.76,0,0,1-1.75,5,3.92,3.92,0,0,1-.6.23l-21.57,6.12a4.94,4.94,0,0,1-5.89-2.8L14.58,276.24l-.42.23-2.64-6.1.44-.23-3.87-9a2.84,2.84,0,0,1,1.49-3.74A2.78,2.78,0,0,1,10.09,257.24Z"/><path class="cls-4" d="M28.75,254l2.48-.57a3.19,3.19,0,0,1,3.61,1.74L56.06,300a2,2,0,0,1-1,2.64l-.27.11-21.42,6.46a2.58,2.58,0,0,1-3.1-1.45L10.25,261a2.25,2.25,0,0,1,1.18-2.95,2.43,2.43,0,0,1,.38-.13l2.35-.54a1,1,0,0,1,1.17.53h0a.93.93,0,0,0,1,.47l11.16-2.58A1.6,1.6,0,0,0,28.75,254Z"/><path class="cls-5" d="M75.43,333.89s6.16,148.4,15.64,170.52c7.9,18.43,12.5,78.52,13.82,98.08.27,3.92.4,6.22.4,6.22s25.28,0,26.87-6.32,6.32-75.86,0-98,8.06-175.26,8.06-175.26Z"/><path class="cls-5" d="M111.61,600.81s-15.8,4.74-19,11.06-55.31,17.38-39.51,25.28,63.21-6.32,63.21-6.32,25.29-1.58,23.71-11.06-7.34-21.17-7.34-21.17Z"/><path class="cls-5" d="M155.86,617.82s-15.8,4.74-19,11.06-55.31,17.39-39.51,25.29,63.21-6.32,63.21-6.32,25.28-1.58,23.7-11.07S177,615.62,177,615.62Z"/><path class="cls-5" d="M89.49,330.21l22.12,37.93L148.53,500s-3.73,121,1,121,30,7.9,31.6,0c1.34-6.67,19-70.61,10.22-113.17a544.9,544.9,0,0,1-11.05-81.64l-3.91-73.84s15.81-28.44-1.58-33.18S89.49,330.21,89.49,330.21Z"/><circle class="cls-2" cx="110.03" cy="48.92" r="37.93"/><path class="cls-2" d="M105.29,74.2s6.32,50.57,4.74,53.73S148,93.17,148,93.17,133.74,71,136.9,60Z"/><path class="cls-6" d="M193.79,124.77S149.54,93.17,148,86.85l-33.19,28.44-5.64-6.71s-26,25.67-26,36.74-1.58,44.24,3.16,53.73S72.1,328.63,72.1,328.63s15.81,14.22,17.39,15.8S154.28,335,154.28,335s31.6-3.16,31.6-7.9-9.48-75.86-6.32-94.82S193.79,124.77,193.79,124.77Z"/><path class="cls-2" d="M203.27,169s7.9,102.72-3.16,105.88-50.57,26.86-113.78,20.54c0,0-61.63,33.19-52.15,1.58s52.15-23.7,52.15-23.7,75.85-15.8,79-26.87-9.48-56.89-4.74-58.47S203.27,169,203.27,169Z"/><path class="cls-5" d="M93.83,30c5.19-1.84,10.9-2.79,16.19-1.26,7.48,2.16,12.66,8.72,18.25,14.15s13.43,10.23,20.79,7.68a12.17,12.17,0,0,1,2.32-9c.82-1.08,1.86-2.1,2.07-3.44.31-2-1.39-3.79-1.91-5.78-.89-3.48,1.57-8.26-1.46-10.22-.8-.51-1.81-.63-2.59-1.17-3.06-2.14.34-7.46-1.68-10.59a6.47,6.47,0,0,0-2.3-1.92C128.85-.14,110.91-.16,93.94.05c-2.37,0-5.66,1.21-5,3.48-3.21-2.31-7.41.93-10,3.91l-5.3,6.11a47.38,47.38,0,0,0-6.47,8.75c-1.61,3.09-2,7.85,1.25,9.19-2.39-1-5.3,13.17,5.73,10.84C80.58,41,86.86,32.45,93.83,30Z"/><path class="cls-6" d="M168.5,127.93l25.29-3.16s25.28,49,11.06,56.89-50.57,14.23-50.57,11.06S168.5,127.93,168.5,127.93Z"/></g></g></svg>