<svg xmlns="http://www.w3.org/2000/svg" viewBox="0 0 188.47 676.41"><defs><style>.cls-1{fill:#2f2e41;}.cls-2{fill:#ffb8b8;}.cls-3{fill:#3f3d56;}</style></defs><title>Asset 4</title><g id="Layer_2" data-name="Layer 2"><g id="e07e5ae7-3299-40d2-9315-78b8b3e13d89"><path class="cls-1" d="M156,301.41s0,146-23,199l-53,119s-34-2-36-16l40-124,24-73,6-114Z"/><path class="cls-1" d="M123,305.41l-9,61,6,134,3,74s12,33,8,36l-8,6s-32-4-33-6-20-153-20-153-39-122-37-124,11-32,11-32Z"/><path class="cls-1" d="M130,606.41l4,23s11,47,0,47-31-13-32-21,2-44,2-44Z"/><path class="cls-1" d="M79,614.41s8,16,13,18,27.77,15.08,14.39,23.54-27.39.46-27.39.46l-46-25s6-25,15-27S79,614.41,79,614.41Z"/><circle class="cls-2" cx="69" cy="44.41" r="36"/><path class="cls-2" d="M99,47.41s7,46,14,52-15,27-25,26-21-23-21-23,3-29-2-37S99,47.41,99,47.41Z"/><path class="cls-3" d="M91,106.41l17-15.68a64.55,64.55,0,0,0,20,16.68c13,7-25,79-25,79l-61-76s19.4-12.9,25.7-18Z"/><path class="cls-3" d="M101,167.41s26.8-46.72,23.9-61.86c0,0,39.1,9.86,41.1,22.86s-19,60-19,60,17,119,7,120-110,2-112-3,2-20-4-25-13-2-10-10,16-18,12-24-5-4-4-8-2-57-2-57-21-58-16-62,31.23-13.86,31.23-13.86Z"/><path class="cls-2" d="M181,323.41s-3,40-20,38,3-45,3-45Z"/><path class="cls-2" d="M32,322.41s6,24,13,22v-28l-3-5Z"/><path class="cls-1" d="M98.36,49.58a6.24,6.24,0,0,0-1-2.89,4.76,4.76,0,0,0-2.19-1.39,9.83,9.83,0,0,0-11.72,5c-.92,2-1.37,4.61-3.39,5.51-2.36,1-5-1.18-5.89-3.58s-1-5.13-2.19-7.39c-1.46-2.68-4.41-4.26-7.4-4.89-2.47-.53-5.5-.8-6.62-3.07a6,6,0,0,1-.45-2.75,29,29,0,0,1,1.78-9.79c-9.79-1.95-18.51,7.61-28.5,7.76a7.5,7.5,0,0,1-3.67-.72c-2.22-1.18-3.18-3.81-3.85-6.23C22.54,22.6,22,20,21.5,17.36l3.2,1.47a12.64,12.64,0,0,1-1.43-5.52,13.18,13.18,0,0,1,4.92.42L28.42,8c2.48,3.13,7.41,2,11.12.58,7.18-2.8,14.32-5.83,21.85-7.45S77-.6,84.12,2.33c7.49,3.09,13.26,9.22,18.34,15.52,2.82,3.5,5.54,7.17,7.07,11.39a27.54,27.54,0,0,1-.07,17.6c-1.63,5.13-4.68,11.34-8.79,14.9C99.24,58.11,99,53.47,98.36,49.58Z"/><path class="cls-3" d="M30,116.41l-13,3s-15,16-16,31-1,90-1,90l19,62s-2,14,0,14,3-3,3,1-5,0,0,4l10,8,16.71-22.16S50,298.41,47,296.41s-3-3-2-6,3-4,2-6-4-5-4-7,0-4-1-5-8-25-8-25l4-78Z"/><path class="cls-3" d="M156,121.41l10,5s16,48,16,90,3,70,3,70,5,12,3,12-4,0-2,3,3,2,2,5-2-2-1,3,0,7-2,7-2,13-2,13l-24-9s4-5,3-7a10,10,0,0,1-1-4s5-1,0-3-3-2-2-8,4-5,1-6-21-94-21-94Z"/><circle class="cls-1" cx="90.98" cy="106.73" r="3"/><circle class="cls-1" cx="90.98" cy="116.73" r="3"/></g></g></svg>