<svg xmlns="http://www.w3.org/2000/svg" viewBox="0 0 162.67 538.38"><defs><style>.cls-1{fill:#ffb9b9;}.cls-2{fill:#d0cde1;}.cls-3{fill:#3f3d56;}.cls-4{opacity:0.1;isolation:isolate;}.cls-5{fill:#2f2e41;}</style></defs><title>Asset 1</title><g id="Layer_2" data-name="Layer 2"><g id="e1d6a9e2-5d0a-4358-9625-bb79dd06fec3"><path class="cls-1" d="M134.83,225.19l12.81,35.08s-13.36,40.08,0,41.19,15-38.41,15-38.41l-7.24-42.31Z"/><path class="cls-2" d="M141,110.51l9.46,9.46v45.1s5.57,8.35,4.46,10.57-2.23,2.23-1.12,3.9,2.23,2.79,1.12,3.9a4.16,4.16,0,0,0,0,5c1.11,1.11,3.34,2.78,1.67,4.45s-3.9.56-1.67,6.68,6.12,7.8,5,10-1.12,7.8-1.12,7.8l-23.94,3.34-5-62.91Z"/><polygon class="cls-3" points="159.89 216.84 132.05 217.96 133.16 229.65 157.66 225.19 159.89 216.84"/><polygon class="cls-1" points="83.34 52.33 80 85.73 113.96 90.75 116.46 71.54 118.97 52.33 83.34 52.33"/><polygon class="cls-4" points="83.34 52.33 80 85.73 113.96 90.75 116.46 71.54 118.97 52.33 83.34 52.33"/><path class="cls-1" d="M9.57,211.27,28.5,251.91s3.34,18.93,8.35,19.49,10-19.48,10-19.48l-6.68-10.58L32.4,211.27Z"/><path class="cls-5" d="M49.1,248,33.51,272.51s-15,233.27-12.8,231.6,9.46-2.23,12.24-6.68,20,0,20,0l10-10.58V478.5c0-1.67,20-129.16,20-129.16v32.29S76.94,500.21,87,499.1s30.62-7.8,30.62-7.8,29.5-221.57,20.59-229.92-12.8-27.28-12.8-27.28Z"/><circle class="cls-1" cx="101.99" cy="36.47" r="26.72"/><path class="cls-2" d="M42.42,91l-3.9-2.22S21.26,100.49,15.7,126.65,6.23,159.5,6.23,159.5s-5.57,1.11-1.67,5,3.9,3.34.56,5.57-5.57-2.23-3.34,2.22,5,3.34,2.78,6.13-6.12,2.78-3.9,5-2.22,7.24.56,9.46,3.9,2.79,3.9,6.68a19.68,19.68,0,0,0,1.11,6.68h29s-5.57-10.57-3.9-12.8,2.23-4.45,1.12-5.57-4.46,1.12-1.12-1.67,4.46-1.11,3.34-4.45-3.34-1.67-1.11-3.34,3.9-1.12,2.78-2.79S33,174,35.18,172.86s3.9,0,3.34-2.78-1.11-1.67,0-2.79,12.81-39,12.81-40.08S42.42,91,42.42,91Z"/><polygon class="cls-3" points="36.85 204.04 1.78 206.26 10.69 214.62 35.18 215.17 36.85 204.04"/><path class="cls-3" d="M46.87,245.79l-7.23,13.36s21.71,2.79,29.5,5.57S97,271.4,97,271.4l5-19.49Z"/><polygon class="cls-3" points="110.34 251.91 116.46 270.29 140.96 265.28 138.17 248.02 110.34 251.91"/><path class="cls-2" d="M120.36,72.09s-1.67-1.11-5.57,1.12S98.09,76.55,92,69.87,81.39,57.62,79.72,58.73s-2.78,13.92-2.78,13.92l-5.57,4.46L38.52,88.8,41.31,164l5,17.26s-3.9,13.36,1.11,21.16-2.78,10.57-2.78,10.57-1.67,2.23-.56,7.8S43,246.9,43,246.9s47.32,21.16,96.86,2.79l-5.56-21.16-2.79-47.32s2.79-7.79,2.23-11.13S150.42,120,150.42,120s-2.78-23.38-17.26-28.39-16.7-10-16.7-10S123.14,74.32,120.36,72.09Z"/><path class="cls-5" d="M75.08,39.89s-2.78-4.16-1.71-8.65a26.18,26.18,0,0,0,.75-7.79A76.89,76.89,0,0,1,78.6,12.14c2.24-4.06,1.18-5.77,8.22-7S91-5.37,109.55,4.56a5.47,5.47,0,0,0,5.66,2.14c3.84-.75,5.23,4.58,5.23,4.58s2.56-1.49,3.52.64,7.81-1.28,7.81,13.13S124,52.33,124,52.33s.57-24.24-12.13-26.69S85.49,16,82.18,25.21A70.27,70.27,0,0,1,75.08,39.89Z"/><ellipse class="cls-1" cx="124.26" cy="42.31" rx="2.51" ry="3.34"/><path class="cls-5" d="M110.06,489.33,114,501.08s0,11.74,3.91,17.62,7.83,18.59-7.83,19.57-22.51-4.89-22.51-4.89,2.93-7.83,0-10.77,0-8.81,0-8.81l2.93-23.49Z"/><path class="cls-5" d="M33.79,489.33l-3.92,11.75s0,11.74-3.91,17.62-7.83,18.59,7.83,19.57,22.51-4.89,22.51-4.89-2.93-7.83,0-10.77,0-8.81,0-8.81l-2.93-23.49Z"/></g></g></svg>