<?xml version="1.0" encoding="utf-8"?>
<!-- Generator: Adobe Illustrator 23.0.2, SVG Export Plug-In . SVG Version: 6.00 Build 0)  -->
<svg version="1.1" id="Layer_1" xmlns="http://www.w3.org/2000/svg" xmlns:xlink="http://www.w3.org/1999/xlink" x="0px" y="0px"
	 viewBox="0 0 244.2 624.7" style="enable-background:new 0 0 244.2 624.7;" xml:space="preserve">
<style type="text/css">
	.st0{fill:#2F2E41;}
	.st1{fill:#FFB9B9;}
	.st2{opacity:0.1;enable-background:new    ;}
	.st3{fill:#3F3D56;}
	.st4{fill:#D0CDE1;}
</style>
<title>Asset 3</title>
<g>
	<g id="e8fc31ac-0dc8-416f-9088-07cba22854d5">
		<path class="st0" d="M69.9,10.3c0,0-2.3-8.2-5.7-10.3v10.3c0,0-13.7-2-23.4,8.2l9.1,2c0,0-13.4,4.5-16.3,23.7l5.7-2.7l15.4,32.9
			l9.7-17.8l19.4,19.9l-4.6-11l7.4,3.4L81.6,60l22.8,10.3l-1.7-5.5l8.4,14c0,0,28.7-29.8-2.7-61.3C108.5,17.5,94.2,2.4,69.9,10.3z"
			/>
		<path class="st1" d="M67.3,83.5c0,0,8.5,32.4,6,36.6S98,147.4,98,147.4l26.4-5.1l1.7-36.6c0,0-23.9-20.4-18.8-35.8L67.3,83.5z"/>
		<path class="st2" d="M67.3,83.5c0,0,8.5,32.4,6,36.6S98,147.4,98,147.4l26.4-5.1l1.7-36.6c0,0-23.9-20.4-18.8-35.8L67.3,83.5z"/>
		<path class="st0" d="M45.1,287.9c0,0-6.8,42.6-1.7,77.5s7.7,60.5,5.1,65.6s-5.1,4.3-3.4,10.2s5.1,3.4,1.7,9.4s-2.6,16.2-2.6,18.7
			s-4.2,57.9,0,63.9s6,5.1,6,5.1l5.1,30.7l27.3-4.3l-4.3-28.1c0,0,10.2-5.1,6-8.5s-6.8-3.4-4.3-3.4s6.8-0.8,3.4-2.5
			s-0.8-47.7-0.8-47.7s6-84.3,29.8-81.8s42.5,51.9,42.5,51.9l6.8,22.1c0,0,2.6,41.7,4.2,45.1s0.9,4.3,0,6s-6.8-2.5-0.9,4.3
			s6,9.4,6,9.4l3.8,44.7l27.7-17.5v-26.4c0,0,5.1-8.5,3.4-15.3s-1.7-39.2,0-45.1s0.9-7.7-0.9-10.2s-6-0.9-2.6-6.8s6-21.3,0.9-32.4
			s-33.2-120.1-45.1-126S45.1,287.9,45.1,287.9z"/>
		<path class="st3" d="M82.6,550.2c0,0-19.6-3.4-20.4,1.7s0,12.8,0,12.8s-6.8,0.8-6,6.8s1.7,22.1,1.7,22.1s-10.6,25.1-4.7,31.1
			c0.1,0.1,11.8-0.4,18.5-0.4h24.6c0,0,3.4-11.9,0-13.6s-11.1-17-10.2-20.4s0-28.1,0-28.1l-3.8,0.2L82.6,550.2z"/>
		<path class="st3" d="M182.2,565.5l-10.2,7.7c0,0,4.2,14.5,1.7,17s-8.1,31.9-3,33.6s36.6-0.8,36.6-0.8s35.3,1.3,36.2-0.4
			s2.6-11.9-7.7-15.3s-16.2-2.5-19.6-12.8s-11.1-25.5-11.1-25.5l-1.7-18.7c0,0-10.2,1.7-11.9,1.7s-10.2,4.2-9.4,7.7
			C182.7,561.5,182.7,563.5,182.2,565.5z"/>
		<circle class="st1" cx="81.8" cy="58.8" r="35.3"/>
		<path class="st3" d="M104.8,119.3l12.8-22.3c0,0,29.8-1.5,31.5,1.9s16.2,172,16.2,172s6.8,9.4,2.6,15.3l-4.3,6v11.9
			c0,0-21.3,17-50.2,13.6S47.7,299,47.7,299l7.7-47.7l-0.8-140.6l17.2-8.4c0,0,19.5,13.5,22.9,17.7S104.8,119.3,104.8,119.3z"/>
		<path class="st4" d="M74.9,119.3l-3.8-22.6l-52.4,37.1l29,85.2c0,0-17.9,32.4-14.5,44.3s5.1,29.8,5.1,29.8s46,11.9,45.1,6
			s0-32.4,0-32.4s14.9-110.3,7.4-127.2S74.9,119.3,74.9,119.3z"/>
		<path class="st4" d="M121.8,108.2l-8.1-15.8c0-0.5,57.5,7.5,60,12.3l-6.8,131.1c0,0,0.9,18.7,5.1,23.8c4.3,5.1,3.4,13.6,1.7,14.5
			s-29.8,9.4-29.8,9.4s-27.2-46.8-24.7-103S121.8,108.2,121.8,108.2z"/>
		<path class="st4" d="M163.5,105.6l9-1.9c3.5,2,6.3,5.1,8,8.7c2.6,6,32.4,69.8,32.4,74.1s0.9,35.8-17.9,35.8s-33.2-80.1-33.2-80.1
			L163.5,105.6z"/>
		<polygon class="st1" points="35.8,326.2 51.1,349.2 59.6,320.2 53.7,311.7 		"/>
		<polygon class="st4" points="26.4,134.6 18.7,133.7 0,234.2 32.4,334.7 60.5,313.4 40.9,246.1 47.7,194.2 		"/>
		<path class="st0" d="M118.7,48.8C114,31.8,99.3,19.3,82,19.3c-12.5,0-23.6,6.5-30.6,16.5l8.7,16.8l8.7-14.4l17.4,16l-4.1-8.9
			l6.7,2.8l-4.6-7.2l20.5,8.3l-1.5-4.4l9.7,12.7C115.3,54.9,117.2,52,118.7,48.8z"/>
		<polygon class="st2" points="158,146.9 180.9,166.9 169,141 		"/>
		<path class="st1" d="M148.2,144c0,0-11.1-34.1-24.7-28.1s5.1,41.7,5.1,41.7l11.9,7.7L148.2,144z"/>
		<path class="st4" d="M206.9,187.4l-59.6-46.8L126,172.1c0,0,56.2,59.6,69,47.7S206.9,187.4,206.9,187.4z"/>
	</g>
</g>
</svg>
