<?xml version="1.0" encoding="utf-8"?>
<!-- Generator: Adobe Illustrator 23.0.2, SVG Export Plug-In . SVG Version: 6.00 Build 0)  -->
<svg version="1.1" id="a955b1b5-7189-4d9c-b072-7fc1ece21ff7"
	 xmlns="http://www.w3.org/2000/svg" xmlns:xlink="http://www.w3.org/1999/xlink" x="0px" y="0px" viewBox="0 0 384.5 668"
	 style="enable-background:new 0 0 384.5 668;" xml:space="preserve">
<style type="text/css">
	.st0{fill:#FFC1C7;}
	.st1{opacity:0.1;enable-background:new    ;}
	.st2{fill:#F2F2F2;}
	.st3{fill:#3F3D56;}
	.st4{fill:#E7685D;}
	.st5{fill:#2F2E41;}
	.st6{fill:#192534;}
</style>
<title>modern life</title>
<path class="st0" d="M170.2,246L153,236c0,0-41.6-5.7-35.9-25.8s34.5,0,34.5,0l18.6,12.8L170.2,246L170.2,246z"/>
<path class="st1" d="M170.2,246L153,236c0,0-41.6-5.7-35.9-25.8s34.5,0,34.5,0l18.6,12.8L170.2,246L170.2,246z"/>
<path class="st0" d="M233.3,144.1c0,0-41.6,30.1-41.6,20.1c0-6-7.3-24.5-13.1-38.3c-3.8-9.1-7-16.2-7-16.2l43-11.5
	c-1.3,7-1.2,14.1,0.5,21C217.7,129.6,224.2,138.5,233.3,144.1z"/>
<path class="st0" d="M147.2,399.9c0,0-33,73.2-21.5,100.5c0,0-35.9,109.1-47.3,113.4s28.7,11.5,28.7,11.5s47.3-63.1,50.2-113.4
	S211.8,410,211.8,410L147.2,399.9z"/>
<path class="st0" d="M223.2,429.7c0,0,18.7,60.3,43,77.5c0,0,50.2,83.2,43,109.1c0,0,28.7,4.3,30.1,0c0,0-12.9-90.4-44.5-126.3
	s-17.1-79-17.1-79L223.2,429.7z"/>
<path class="st2" d="M97,615.2c0,0-17.2-14.3-30.1-2.9s-35.9,8.6-53.1,2.9s-15.8,8.6,24.4,27.3s63.1,23,63.1,23s5.7-23,5.7-28.7
	s3.6-16.5,3.6-16.5L97,615.2z"/>
<path class="st2" d="M323.7,613.4c0,0-17.2-10-20.1,8.6s-44.5,30.1-44.5,30.1S239,670.8,300.7,665s57.4-17.2,57.4-17.2l-19.5-37.1
	L323.7,613.4z"/>
<path class="st3" d="M170.2,333.5c0,0-44.5,63.1-27.3,70.3s15.8-11.5,33,8.6s61.7,10,67.5,5.7s20.1-23,31.6-21.5
	s-18.7-73.2-18.7-73.2L170.2,333.5z"/>
<path class="st1" d="M211.2,113c-6.1,5.7-10.5,15.5-19.5,15.5c-4.5,0-8.9-0.9-13.1-2.6c-3.8-9.1-7-16.2-7-16.2l43-11.5
	C213.2,106.4,209.8,107.2,211.2,113z"/>
<circle class="st0" cx="191.7" cy="91" r="34.4"/>
<path class="st2" d="M211.8,139.8c0,0-14.9,15.1-21.8,16.2s-32.8,45.5-25.6,81.4s-8.6,110.5-1.4,114.8s122-15.8,122-15.8
	L211.8,139.8z"/>
<path class="st4" d="M226.2,132.6c0,0-25.8-8.6-34.4,37.3s-20.1,7.2-20.1,66s-4.3,80.4,2.9,130.6s12.9,50.2,4.3,67.4
	s91.8,12.9,116.2-20.1s-7.2-156.4-20.1-175.1s-12.9-76-23-90.4C245.9,139.9,236.5,134.2,226.2,132.6z"/>
<path class="st5" d="M225.4,413.5l-12.7-15.9L172.1,204l27.3-50.9c4.7-8.7,13.3-14.6,23.2-15.8c9.8-1.2,19.5,2.5,26,10
	c39.5,44.9,59.3,184.3,60.1,190.2l0.1,0.6l-4,10.4l-21,47.1L225.4,413.5z M216.7,395.7l10.2,12.8l53.6-16.5l20.2-45.2l3.6-9.3
	c-1.4-9.8-21.6-144.8-59-187.4c-9.5-10.7-25.8-11.7-36.5-2.2c-2.3,2-4.2,4.5-5.7,7.2l-26.5,49.5L216.7,395.7z"/>
<path class="st4" d="M138.6,220.2L138.6,220.2L101.3,187c-0.8-0.7-1-2-0.4-2.9l0.5-0.7l0,0c0.6-0.9,1.8-1.2,2.8-0.6
	c0.1,0.1,0.2,0.2,0.3,0.2l34,31.5c1.6,1.4,1.7,3.9,0.3,5.5C138.7,220.1,138.7,220.1,138.6,220.2z"/>
<path class="st6" d="M138.6,220.2L138.6,220.2L101.3,187c-0.8-0.7-1-2-0.4-2.9l0.5-0.7l37.1,33.3
	C139.5,217.6,139.6,219.1,138.6,220.2C138.7,220.1,138.6,220.1,138.6,220.2z"/>
<path class="st0" d="M249.1,227.3c0,0-53.1-4.3-63.1-23s-35.9-8.6-28.7,0s5.7,28.7,25.8,30.1s70.3,11.5,70.3,11.5L249.1,227.3z"/>
<path class="st5" d="M306.5,337.8c0,0-35.9,2.9-44.5,40.2s-47.3,18.7-47.3,18.7s-4.3,97.6,58.8,73.2s77.5-70.3,77.5-76.1
	S308,353.6,306.5,337.8z"/>
<path class="st1" d="M217.5,403.8c0,0,38.7,18.7,47.4-18.6c8.2-35.5,41.1-39.8,44.2-40.2c-1.3-2.2-2.2-4.6-2.6-7.2
	c0,0-35.9,2.9-44.5,40.2s-47.3,18.7-47.3,18.7s-1.4,31.8,9.2,54.6C216.4,429.6,217.5,403.8,217.5,403.8z"/>
<path class="st1" d="M350.7,396c0.2-0.7,0.3-1.4,0.3-2.2c0-4.9-31.5-30.8-41.5-48.1C311.6,359.1,340.9,384.5,350.7,396z"/>
<path class="st5" d="M147.2,66.9c-2,6.3,4.5,12.6,11,13.3s12.9-2.5,18.8-5.3s12.7-5.4,19-3.7c7,1.9,11.7,8.4,14.8,14.9
	c2.7,5.7,4.7,11.7,5.9,17.9c1.3,6.6,1.9,13.9,6.4,18.9s12.1,6.4,19,6.3s13.9-1,20.5,0.7c13.2,3.4,21.4,16.6,26.1,29.4
	s7.5,26.7,16.1,37.3c7.1,8.9,17.5,14.5,27.9,19.2c5.2,2.4,10.7,4.5,16.4,5.1s11.9-0.8,16-4.7c4.7-4.4,6.2-11.1,7.4-17.3
	c1.8-9.1,3.7-18.4,2.2-27.6c-2-12-9.7-22.5-11.5-34.6c-1.7-11.7,2.3-23.6,1.9-35.4c-0.7-19.8-15.3-38.4-34.4-43.8
	c-7-2-14.3-2.4-21.1-5c-8.8-3.5-15.5-10.5-22.7-16.6c-17-14.8-37.4-25-59.3-29.9c-14.7-3.3-32.2-3.3-42.6,7.6
	C180.8,18,178,24,172.6,27c-2.8,1.5-6,2.1-8.9,3.1c-14.7,5.1-23.2,23.4-17.5,37.8"/>
<path class="st1" d="M357.8,206.4c-5.7-0.5-11.2-2.7-16.4-5.1c-10.4-4.7-20.8-10.3-27.9-19.2c-8.5-10.6-11.4-24.5-16.1-37.3
	s-12.9-25.9-26.1-29.4c-6.7-1.7-13.7-0.7-20.5-0.7s-14.3-1.2-19-6.3s-5.1-12.3-6.4-18.9c-1.2-6.2-3.2-12.2-5.9-17.9
	c-3.1-6.5-7.8-13-14.8-14.9c-6.4-1.7-13.1,0.9-19,3.7s-12.3,5.9-18.8,5.3s-13-7-11-13.3l-1,1c-2.2-5.7-2.4-11.9-0.7-17.7
	c-8.5,7.9-12.3,21.1-7.9,32l1-1c-2,6.3,4.5,12.6,11,13.3s12.9-2.5,18.8-5.3s12.7-5.4,19-3.7c7,1.9,11.7,8.4,14.8,14.9
	c2.7,5.7,4.7,11.7,5.9,17.9c1.3,6.6,1.9,13.9,6.4,18.9s12.1,6.4,19,6.3s13.9-1,20.5,0.7c13.2,3.4,21.4,16.6,26.1,29.4
	s7.5,26.7,16.1,37.3c7.1,8.9,17.5,14.5,27.9,19.2c5.2,2.4,10.7,4.5,16.4,5.1s11.9-0.8,16-4.7c3.5-3.3,5.2-7.9,6.4-12.7
	C367.5,205.8,362.6,206.9,357.8,206.4z"/>
<path class="st4" d="M211.8,152.7c0,0-4.3,31.6,11.5,38.8s27.3,31.5,27.3,31.5l-12.9,2.9c0,0-4.3,20.1,7.2,25.8c11.5,5.7,43,0,43,0
	s14.4-7.2,2.9-30.1s-44.5-73.1-44.5-73.1S229,129.8,211.8,152.7z"/>
<ellipse class="st0" cx="216" cy="91.5" rx="6.9" ry="10.4"/>
<circle class="st2" cx="216" cy="92.6" r="3.5"/>
<ellipse transform="matrix(0.4493 -0.8934 0.8934 0.4493 29.9513 244.2376)" class="st2" cx="213.1" cy="97.8" rx="4" ry="1.7"/>
</svg>
