<?xml version="1.0" encoding="utf-8"?>
<!-- Generator: Adobe Illustrator 23.0.2, SVG Export Plug-In . SVG Version: 6.00 Build 0)  -->
<svg version="1.1" id="b7755403-659e-443e-9cc8-ceaced986de6"
	 xmlns="http://www.w3.org/2000/svg" xmlns:xlink="http://www.w3.org/1999/xlink" x="0px" y="0px" viewBox="0 0 619.7 503.7"
	 style="enable-background:new 0 0 619.7 503.7;" xml:space="preserve">
<style type="text/css">
	.st0{opacity:0.1;fill:#6C63FF;enable-background:new    ;}
	.st1{fill:#B77B7F;}
	.st2{opacity:0.1;enable-background:new    ;}
	.st3{fill:#DDA2A6;}
	.st4{opacity:0.1;}
	.st5{fill:#918C9E;}
	.st6{opacity:0.1;fill:#FFFFFF;enable-background:new    ;}
	.st7{fill:#EFB7B9;}
	.st8{fill:#67647E;}
	.st9{opacity:0.12;enable-background:new    ;}
	.st10{fill:#E3787D;}
	.st11{fill:#444053;}
	.st12{fill:#A36468;}
	.st13{opacity:5.000000e-02;enable-background:new    ;}
</style>
<title>thoughts</title>
<ellipse class="st0" cx="92.8" cy="390.1" rx="33.4" ry="11.6"/>
<ellipse class="st0" cx="511.9" cy="390.1" rx="33.4" ry="11.6"/>
<ellipse class="st0" cx="56.4" cy="448" rx="33.4" ry="11.6"/>
<ellipse class="st0" cx="548.1" cy="449.2" rx="33.4" ry="11.6"/>
<polygon class="st1" points="536.9,438.1 544.2,453.7 544.2,338.1 536.9,338.1 "/>
<polygon class="st1" points="66,438.1 58.7,453.7 58.7,338.1 66,338.1 "/>
<polygon class="st2" points="536.9,438.1 544.2,453.7 544.2,338.1 536.9,338.1 "/>
<polygon class="st2" points="66,438.1 58.7,453.7 58.7,338.1 66,338.1 "/>
<rect x="95.4" y="125.8" class="st1" width="20.2" height="142.1"/>
<rect x="501.8" y="125.8" class="st1" width="20.2" height="142.1"/>
<rect x="95.4" y="125.8" class="st2" width="20.2" height="16.6"/>
<rect x="501.8" y="125.8" class="st2" width="20.2" height="16.6"/>
<rect x="64.3" y="119.9" class="st3" width="486.5" height="21.2"/>
<rect x="95.4" y="150" class="st2" width="20.2" height="21.2"/>
<rect x="501.8" y="150" class="st2" width="20.2" height="21.2"/>
<rect x="64.3" y="148.7" class="st3" width="486.5" height="21.2"/>
<rect x="95.4" y="178.8" class="st2" width="20.2" height="21.2"/>
<rect x="501.8" y="178.8" class="st2" width="20.2" height="21.2"/>
<rect x="64.3" y="177.5" class="st3" width="486.5" height="21.2"/>
<rect x="95.4" y="207.6" class="st2" width="20.2" height="21.2"/>
<rect x="501.8" y="207.6" class="st2" width="20.2" height="21.2"/>
<rect x="64.3" y="206.3" class="st3" width="486.5" height="21.2"/>
<rect x="95.4" y="236.4" class="st2" width="20.2" height="21.2"/>
<rect x="501.8" y="236.4" class="st2" width="20.2" height="21.2"/>
<rect x="64.3" y="235.1" class="st3" width="486.5" height="21.2"/>
<g class="st4">
	<circle cx="105.5" cy="131.8" r="2.9"/>
	<circle cx="105.5" cy="160.6" r="2.9"/>
	<circle cx="105.5" cy="189.4" r="2.9"/>
	<circle cx="105.5" cy="218.2" r="2.9"/>
	<circle cx="105.5" cy="247" r="2.9"/>
	<circle cx="511.9" cy="131.8" r="2.9"/>
	<circle cx="511.9" cy="160.6" r="2.9"/>
	<circle cx="511.9" cy="189.4" r="2.9"/>
	<circle cx="511.9" cy="218.2" r="2.9"/>
	<circle cx="511.9" cy="247" r="2.9"/>
</g>
<circle class="st5" cx="105.5" cy="130.5" r="2.9"/>
<circle class="st5" cx="105.5" cy="159.3" r="2.9"/>
<circle class="st5" cx="105.5" cy="188.1" r="2.9"/>
<circle class="st5" cx="105.5" cy="216.9" r="2.9"/>
<circle class="st5" cx="105.5" cy="245.7" r="2.9"/>
<circle class="st5" cx="511.9" cy="130.5" r="2.9"/>
<circle class="st5" cx="511.9" cy="159.3" r="2.9"/>
<circle class="st5" cx="511.9" cy="188.1" r="2.9"/>
<circle class="st5" cx="511.9" cy="216.9" r="2.9"/>
<circle class="st5" cx="511.9" cy="245.7" r="2.9"/>
<polygon class="st3" points="562,276.9 52.7,276.9 64.3,262.6 550.8,262.6 "/>
<polygon class="st2" points="562,276.9 52.7,276.9 64.3,262.6 550.8,262.6 "/>
<polygon class="st3" points="562,276.2 52.7,276.2 64.3,261.9 550.8,261.9 "/>
<polygon class="st3" points="579.9,299 33.5,297.7 52.1,278.2 564,278.2 "/>
<polygon class="st2" points="579.9,299 33.5,297.7 52.1,278.2 564,278.2 "/>
<polygon class="st3" points="579.9,298.4 33.5,297.1 52.1,277.5 564,277.5 "/>
<polygon class="st3" points="597.1,319.2 14,319.2 31.9,299 581.2,299.7 "/>
<polygon class="st1" points="102.6,338.1 102.6,379.8 95.4,393.7 93.1,344.1 92.8,338.1 "/>
<polygon class="st1" points="511.7,338.1 511.4,344.1 509.1,393.7 501.9,379.8 501.9,338.1 "/>
<polygon class="st2" points="102.6,338.1 102.6,379.8 95.4,393.7 93.1,344.1 92.8,338.1 "/>
<polygon class="st2" points="511.7,338.1 511.4,344.1 509.1,393.7 501.9,379.8 501.9,338.1 "/>
<rect x="76.9" y="334.8" class="st1" width="18.5" height="59"/>
<rect x="509.1" y="334.8" class="st1" width="18.5" height="59"/>
<polygon class="st2" points="95.4,338.1 102.6,338.1 102.6,344.1 76.9,344.1 76.9,334.8 95.4,334.8 "/>
<polygon class="st2" points="527.6,334.8 527.6,344.1 501.9,344.1 501.9,338.1 509.1,338.1 509.1,334.8 "/>
<rect x="52.7" y="328.2" class="st1" width="498" height="14.6"/>
<rect x="37.5" y="325.5" class="st1" width="21.2" height="128.2"/>
<rect x="544.2" y="325.5" class="st1" width="21.2" height="128.2"/>
<rect x="52.7" y="328.2" class="st2" width="498" height="1.3"/>
<rect x="14" y="319.2" class="st3" width="583.2" height="8.9"/>
<rect x="14" y="319.2" class="st6" width="583.2" height="8.9"/>
<circle class="st2" cx="46.8" cy="336.1" r="2.9"/>
<circle class="st5" cx="46.8" cy="334.8" r="2.9"/>
<circle class="st2" cx="556.5" cy="335.7" r="2.9"/>
<circle class="st5" cx="556.5" cy="334.4" r="2.9"/>
<path class="st7" d="M212,277.8c0,0-43.7,1.5-42.3,7.2s39.8,7.5,44.3,7.5s10.9-8.2,10.9-8.2L212,277.8z"/>
<rect x="239.2" y="257.9" class="st8" width="25.2" height="23.2"/>
<rect x="239.2" y="257.9" class="st9" width="25.2" height="23.2"/>
<polygon class="st8" points="225.7,282 202.5,328.8 231.9,338.4 255.7,318 266.9,296.3 289.6,298.1 313.9,310.2 333.5,322.2 
	345.3,344.3 362.3,354 398.8,346.2 404.1,321.4 374.4,301.5 363.6,285.1 319.9,278.8 307.2,259.9 263.5,270.5 "/>
<polygon class="st9" points="225.7,282.4 202.1,333.5 231.9,338.8 255.7,318.5 266.9,296.7 289.6,298.6 313.9,310.6 333.5,322.6 
	345.3,344.8 362.3,354.4 398.8,346.6 404.1,321.8 374.4,301.9 363.6,285.6 319.9,279.2 307.2,260.4 263.5,270.9 "/>
<path class="st10" d="M286.6,36.2c-0.7,0.4-1.3,0.9-1.7,1.5c-0.5,1.1-0.7,2.3-0.7,3.4c-0.9,8.4-12.7,13-12.5,21.5
	c0.1,5,4.5,8.8,6.9,13.2c4,7.4,2.2,16.5,1.1,24.8c-0.8,6.3-0.8,13.8,4,17.9c2,1.7,4.6,2.6,6.4,4.5c3.7,3.9,2.9,10.2,5.3,15
	c0.2,0.5,0.6,1,1,1.4c0.4,0.3,0.9,0.6,1.4,0.7c4.7,1.5,10.1-0.6,13.3-4.5s4.4-8.9,4.6-13.8s-0.6-9.9-1.1-14.8
	c-0.9-9.5-0.6-19-1.4-28.5c-0.1-3-0.8-6-2-8.7c-0.7-1.4-1.7-2.7-2.4-4.1c-0.8-2-1.4-4.1-1.6-6.3l-2.6-16.7c-0.5-3.3-1-9.3-4.8-10.6
	C295.9,30.7,289.7,34.2,286.6,36.2z"/>
<path class="st10" d="M286.6,36.2c-0.7,0.4-1.3,0.9-1.7,1.5c-0.5,1.1-0.7,2.3-0.7,3.4c-0.9,8.4-12.7,13-12.5,21.5
	c0.1,5,4.5,8.8,6.9,13.2c4,7.4,2.2,16.5,1.1,24.8c-0.8,6.3-0.8,13.8,4,17.9c2,1.7,4.6,2.6,6.4,4.5c3.7,3.9,2.9,10.2,5.3,15
	c0.2,0.5,0.6,1,1,1.4c0.4,0.3,0.9,0.6,1.4,0.7c4.7,1.5,10.1-0.6,13.3-4.5s4.4-8.9,4.6-13.8s-0.6-9.9-1.1-14.8
	c-0.9-9.5-0.6-19-1.4-28.5c-0.1-3-0.8-6-2-8.7c-0.7-1.4-1.7-2.7-2.4-4.1c-0.8-2-1.4-4.1-1.6-6.3l-2.6-16.7c-0.5-3.3-1-9.3-4.8-10.6
	C295.9,30.7,289.7,34.2,286.6,36.2z"/>
<g class="st4">
	<path d="M285.1,38.5c0-0.2,0-0.5,0.1-0.7c-0.2,0.2-0.4,0.4-0.5,0.6c-0.5,1.1-0.7,2.2-0.7,3.4c0,0.1,0,0.3-0.1,0.4
		C284.5,41.1,284.9,39.8,285.1,38.5z"/>
	<path d="M311.9,133c-3.2,3.8-8.6,6-13.3,4.5c-1.1-0.3-2-1-2.4-2.1c-2.5-4.8-1.6-11.1-5.3-15c-1.8-1.9-4.4-2.8-6.4-4.5
		c-4.8-4.2-4.8-11.6-4-17.9c1.1-8.4,2.9-17.4-1.1-24.8c-2.4-4.5-6.8-8.2-6.9-13.2c0-0.5,0-0.9,0.1-1.4c-0.8,1.5-1.2,3.1-1.2,4.8
		c0.1,5,4.5,8.8,6.9,13.2c4,7.4,2.2,16.4,1.1,24.8c-0.8,6.3-0.8,13.8,4,17.9c2,1.7,4.6,2.6,6.4,4.5c3.7,3.9,2.9,10.2,5.3,14.9
		c0.2,0.5,0.6,1,1,1.4c0.4,0.3,0.9,0.6,1.4,0.7c4.7,1.5,10.1-0.6,13.3-4.5c1.8-2.3,3.1-4.9,3.8-7.8C313.9,130.2,313,131.6,311.9,133
		z"/>
</g>
<path class="st7" d="M410.6,303.4c0,0,43.7,1.5,42.3,7.2s-39.8,7.5-44.3,7.5s-10.9-8.2-10.9-8.2L410.6,303.4z"/>
<path class="st8" d="M293,104.1c0,0-21.4-1.3-30.2,8.1c-8.8,9.4-4.9,1.4-11.2,22.1l-6.3,20.7l-0.8,15c0,0-4.9,4.9-4.5,10.2
	c0.4,5.3-2.1,7.8-2.1,7.8s-0.6,11.1,0,13.7s-4.2,5.3-3.9,7.7c0.1,2.6,0.1,5.2,0,7.8c0,0.4-4.2,1.1-3.8,6c0.3,2.9,0.3,5.8,0.3,8.7
	c0,0-7,7.4-5.6,11.5s-1.3,10.9-1.3,10.9s-1.5,9-5.3,11.3s-6.6,12.9-6.6,12.9s3.5,9.1,3.5,9.5s-2.5,23.8-9.4,26.8
	s-19.3,15.7-18.8,21.3s-2.2,39.5-4.1,44.3s0.3,53.4,10.7,55.8s17.8-10.4,22.6-11.6s9.9-17.7,9.9-17.7s14.2-12,14.3-21.7
	s0.6-22,0.6-22s-16.5-28-19.9-30.1s-12.8-14-5.5-24.2s11.9-23.3,11.9-23.3l7.8-7l6.6-25.1l12-39.2l11.3-38.5l9.7-40.5l25.5-17.7
	C300.4,117.7,304.9,106.2,293,104.1z"/>
<path class="st7" d="M285,325.5c0,0-1.6,1.7-4,4.1c-6.4,6.5-18.5,18.7-20.5,19.8c-2.6,1.5-6.7,8.4-12,15.5s-12.3,22.4-12.3,22.4
	s-17.6,24.7-27.8,27.3c-7,1.8-16.5,10.9-21.9,16.6c-2.6,2.7-4.2,4.7-4.2,4.7l-20.2-7.8l2.6-6.9l0.5-0.9c1.9-3.8,9.9-19.3,20.5-37.4
	c12.2-20.9,30.7-40.2,30.7-40.2s16.1-14.8,16.6-21.5c0.2-3.7,0.1-7.5-0.2-11.2c-0.3-4.8-0.8-9-0.8-9l24.5-15.9l18.7,7.8L285,325.5z"
	/>
<path class="st7" d="M394.9,423.4l-19.9,9.8l-2.7-3.1c-6.7-7.9-24.3-28.1-31-32.2c-8.4-5.1-23-22.1-21.4-26.2s-16.4-29.6-16.4-29.6
	s-6.5-5.5-10-11.9c-1.7-3.1-2.7-6.5-1.9-9.6c2.4-9.4,10.2-30,10.2-30s3.8-6.3,4.1-6.7s14.1-5.2,14.1-5.2l13.6-1.4l17.1,14.6
	c0,0-0.6,3.5-1.6,8.3c-2.1,10.6-5.7,27.8-7.4,28.8c-2.5,1.5,11.7,13,11.7,13s9.4,8,21,35.2c8.8,20.6,16.1,36.5,19.1,42.9
	C394.3,422.3,394.9,423.4,394.9,423.4z"/>
<path class="st2" d="M275.1,292.9l9.9,32.5c0,0-1.6,1.7-4,4.1c-2.7-6.6-4.8-15.5-6.2-21.5c-2.6-10.7-29.5-7.8-34.2-7.8
	c-2.1,0-5,4.7-7.8,9.7c-0.3-4.8-0.8-9-0.8-9l24.5-15.9L275.1,292.9z"/>
<path class="st2" d="M350.6,292c0,0-0.6,3.5-1.6,8.3c-2-4.6-5-8.7-8.7-12.1c-13.1-11.6-30.4-1.7-30.4-1.7c-1.8,0.7-2.7,2.5-4.6,4.8
	c-5.6,6.7-8.9,15.1-9.4,23.9c-0.3,5.1-1.1,10.2-2.3,15.1c-1.7-3.1-2.7-6.5-1.9-9.6c2.4-9.4,10.2-30,10.2-30s3.8-6.3,4.1-6.7
	s14-5.2,14-5.2l13.6-1.4L350.6,292z"/>
<path class="st11" d="M370.9,305.1c-0.2,4.7-17.6,12-17.6,12s0-19.6-13.1-31.2s-30.4-1.7-30.4-1.7c-1.8,0.7-2.7,2.5-4.6,4.8
	c-5.6,6.7-8.9,15.1-9.4,23.9c-0.6,9.9-3.3,23.6-7.5,23.4c-6.5-0.2-11-19.8-13.6-30.4s-29.5-7.8-34.2-7.8s-13.6,24.3-17,21.3
	s3.7-26.4,3.7-26.4l22.6-27.2l4.8-5.8l99.2,5.4c0,0,2.5,3.8,4.9,7.6c2.3,3.6,4.5,7.2,4.6,7.4C363.7,280.8,371.1,300.5,370.9,305.1z"
	/>
<path class="st2" d="M270.6,275.4c0.1,0.2,18.2,19.8,19.1,22.8c0.7,3.3,1.3,6.6,1.7,10c0,0,0.4-6.9,1-8.9s-2.1-6.5-4.1-8
	s-5.6-4.3-6.1-5.5s-2.8-13.4-2.8-13.4l-7.6-1.7L270.6,275.4z"/>
<path class="st2" d="M304.8,273.4c0,0-11.6,13.3-11.3,15.3S304.8,273.4,304.8,273.4z"/>
<path class="st7" d="M364.2,116.2l-13.5,18.7l-36.9,7.5c0,0-37.4-9.3-12-19.1c2.4-0.8,4.5-2.3,6.2-4.2c4.5-5.4,2.8-13.5-0.9-21.4
	c-5.9-12.5-16.8-24.4-16.8-24.4s52.6-23.3,46.6,1c-1,4.2-0.9,8.6,0.3,12.8c3.1,11,13.1,19.7,20,24.6
	C359.4,113.4,361.8,114.9,364.2,116.2z"/>
<path class="st2" d="M364.2,116.2l-13.5,18.7l-36.9,7.5c0,0-37.4-9.3-12-19.1c2.4-0.8,4.5-2.3,6.2-4.2c6,2.7,12.3,4.8,15.5,3.8
	c0,0,20.8-6.1,33.7-11.2C359.4,113.4,361.8,114.9,364.2,116.2z"/>
<path class="st2" d="M359,273.9c-5.1-1.6-10.4-2.8-15.7-3.8c-5.2-0.9-10.2-1.3-12.4,0.1c-5.2,3.4-17.9,10.8-22.4,10.8
	c-2.6,0.1-4.9-1.4-6-3.7c0,0-13.8-1.5-22.8,0c-6,1-20.1-6.2-28.8-11l-1-0.6l4.8-5.8l99.2,5.4c0,0,2.5,3.8,4.9,7.6L359,273.9z"/>
<path class="st12" d="M355.3,246.7l3.7,25c-5.1-1.6-10.4-2.9-15.7-3.8c-5.2-0.9-10.2-1.3-12.4,0.1c-5.2,3.4-17.9,10.8-22.4,10.8
	c-2.6,0.1-4.9-1.4-6-3.7c0,0-13.8-1.5-22.8,0c-6,1-20.1-6.2-28.8-11c-4.4-2.4-7.4-4.3-7.4-4.3l5.6-19.8l17.2-18.3l2.6-26.5l4.1-30.6
	l6.4-18.7l11.5-27.3l2-4.8c0,0,2.2,1.3,5.5,3.1c1.5,0.8,3.3,1.7,5.2,2.6c7.1,3.5,15.9,7.1,19.8,5.9c0,0,18.5-5.4,31.4-10.3
	c6-2.3,10.8-4.4,12-5.9c0.2-0.2,0.3-0.4,0.3-0.6c0-0.4,0.1-0.1,0.2,0.7c0.8,8.2,3.6,71.4,3.6,71.4L355.3,246.7z"/>
<path class="st2" d="M370.9,180.5l-15.7,66.1l3.7,25c-5.1-1.6-10.4-2.9-15.7-3.8c-0.9-10.2-1.9-27.6,0.8-33.3c3.9-8.4,6.2-35,6.2-35
	l4.6-84.6l0.5-8.2c0.3-0.2,5.3,0.7,11.5,2.3l0.5,0.1C368.2,117.4,370.9,180.5,370.9,180.5z"/>
<path class="st2" d="M402.4,306.9c-9.8,2.9-23,6.2-24.3,2.7c-1-2.4-0.9-7.8-0.7-13.7c4.8,0.3,11.9,1.3,13,3.9
	S398.1,304.3,402.4,306.9z"/>
<path class="st8" d="M359.8,106.7c0.8-0.6,31.4,6.2,35.6,12.3s6.5,3.4,7,24.9s3.1,29.4,3.1,29.4v30.3c0,0-3.1,19.9,0,25.2
	s2.5,27.5,2.5,27.5s-4.2,21,2.5,27.8s7,19.3,7,19.3s-32.8,11.8-35,6.2s1.1-27.5-1.4-33.9s-7.6-24.4-7.6-24.4s-2.8-13.5,0-16
	s-3.9-20.7-3.9-20.7c-2,3.7-2.9,7.9-2.5,12c0.6,7,0,22.1,0,22.1s4.6,14.6,3.8,21.6s11,14.6,9.3,17.4s-2.8,8-2.8,8s15.7,0.2,17.4,4.1
	s14.6,5.8,15.7,11.3s12.9,7.2,9.8,16.4s-1.1,40.9-1.1,40.9s-56.6-7-50.4-32.8s35.3-14.3,35.3-14.3s-23.2-13.7-36.7-12
	s-18.8-33.6-18.8-33.6s-3.9-32.8,0-41.2s6.2-35,6.2-35L359.8,106.7z"/>
<path class="st2" d="M385.6,290c0,0,1.4-2.7,11.3-1s15-0.5,15-0.5S391.8,297.4,385.6,290z"/>
<path class="st2" d="M382.8,160.9c-0.1,0.4,7.3,11.4,1.7,20.2c-5.6,8.8-10.2,23-11.2,25.6s-2.3,6.7-2.3,6.7"/>
<path class="st13" d="M356.5,93.3c0,0,26.3,19.8,26.2,29c0,0-2.5,2.9-8,2.9s-15.3-2.7-16.4-8.8s-5.3,0-2.9,3.2s3.8,4.9,3.8,4.9
	s24.9,6.9,29.7,10.1s-2,7-2,7s-7,12.6-6.6,14.7S363,185.9,363,185.9s-5.9,29.7-5.6,35.3s0.7,17.5,0.7,17.5l-11.2,15.4
	c0,0-2.7-47.6-0.9-54.1s6.7-46.9,6.7-46.9s5.6-24.7,3.4-27.5c-2.2-2.8-3-11.5-3-11.5L356.5,93.3z"/>
<path class="st8" d="M354.2,92.1c0,0,26.3,19.8,26.2,29c0,0-2.5,2.9-8,2.9s-15.3-2.7-16.4-8.8s-5.3,0-3,3.2s3.8,4.9,3.8,4.9
	s24.9,6.9,29.7,10.1s-2,7-2,7s-7,12.6-6.6,14.7s-17.2,29.6-17.2,29.6s-5.9,29.7-5.6,35.3s0.7,17.5,0.7,17.5l-9,15.4
	c0,0-5-47.6-3.2-54.1s6.7-46.9,6.7-46.9s5.6-24.7,3.4-27.5s-3-11.5-3-11.5L354.2,92.1z"/>
<path class="st9" d="M354.2,92.1c0,0,26.3,19.8,26.2,29c0,0-2.5,2.9-8,2.9s-15.3-2.7-16.4-8.8s-5.3,0-3,3.2s3.8,4.9,3.8,4.9
	s24.9,6.9,29.7,10.1s-2,7-2,7s-7,12.6-6.6,14.7s-17.2,29.6-17.2,29.6s-5.9,29.7-5.6,35.3s0.7,17.5,0.7,17.5l-9,15.4
	c0,0-5-47.6-3.2-54.1s6.7-46.9,6.7-46.9s5.6-24.7,3.4-27.5s-3-11.5-3-11.5L354.2,92.1z"/>
<path class="st2" d="M304.6,115.4c-0.2,1.3-0.5,2.7-1,3.9c-1,3.1-2.6,7.3-4,11.6c-2,6.6-8.1,18.6-11.8,30s-9.1,35.6-9.1,35.6
	s1.1,22.3-6.3,27.9s-15.8,26.2-15.8,26.2s-2.7,6.9-5.8,13.4c-4.4-2.4-7.4-4.3-7.4-4.3l5.6-19.8l17.2-18.3l2.7-26.5l4.1-30.6
	l6.4-18.7l11.5-27.3c3.1-0.2,5.2-0.4,5.2-0.4s1-0.6,2.4-1.4C301.1,115.4,304.7,113.8,304.6,115.4z"/>
<path class="st13" d="M291.6,119.2c0,0-26,2.2-31.8,1.5c-5.8-0.7-3.4,12.5-3.4,12.5s-4.5,26.8-3.5,29.6s6.3,23.8,3.1,28.9
	c-3.2,5-13.2,31.2-13.2,31.2s-3.2,11.6-6,23.3c-2.8,11.6-9.4,33.9-11.1,35.9s-16,27.8-14.4,31.8s23.7-34,28.1-37.4
	s12.7-24.7,12.7-24.7s8.4-20.6,15.8-26.2s6.3-27.9,6.3-27.9s5.5-24.2,9.1-35.6s9.8-23.3,11.8-30c2-6.7,4.8-13,4.9-15.6
	S291.6,119.2,291.6,119.2z"/>
<path class="st8" d="M293.8,118.1c0,0-26,2.2-31.8,1.5s-3.4,12.5-3.4,12.5s-4.5,26.8-3.5,29.6c1,2.8,6.3,23.8,3.1,28.9
	c-3.2,5.1-13.2,31.3-13.2,31.3s-3.2,11.6-6,23.3c-2.8,11.6-9.4,33.9-11.1,35.9s-16,27.8-14.4,31.8s23.7-34.1,28.2-37.4
	s12.7-24.7,12.7-24.7s8.4-20.6,15.8-26.2s6.3-27.9,6.3-27.9s5.5-24.2,9.1-35.6s9.8-23.3,11.8-30c2-6.7,4.8-13,4.9-15.6
	S293.8,118.1,293.8,118.1z"/>
<path class="st9" d="M293.8,118.1c0,0-26,2.2-31.8,1.5s-3.4,12.5-3.4,12.5s-4.5,26.8-3.5,29.6c1,2.8,6.3,23.8,3.1,28.9
	c-3.2,5.1-13.2,31.3-13.2,31.3s-3.2,11.6-6,23.3c-2.8,11.6-9.4,33.9-11.1,35.9s-16,27.8-14.4,31.8s23.7-34.1,28.2-37.4
	s12.7-24.7,12.7-24.7s8.4-20.6,15.8-26.2s6.3-27.9,6.3-27.9s5.5-24.2,9.1-35.6s9.8-23.3,11.8-30c2-6.7,4.8-13,4.9-15.6
	S293.8,118.1,293.8,118.1z"/>
<path class="st2" d="M283.7,187.2c0,0,3.2,16.1-2.1,23.8S282.2,190.7,283.7,187.2z"/>
<path class="st2" d="M341.2,240.5c0,0-14.8,2.7-19.8,10.5C316.5,258.9,341.2,240.5,341.2,240.5z"/>
<path class="st2" d="M341.2,256.5c0,0-18.9,6-15.4,8.1s12-1.7,14.4-1S341.2,256.5,341.2,256.5z"/>
<path class="st2" d="M186.5,431.3c-2.6,2.7-4.2,4.7-4.2,4.7l-20.2-7.8l2.6-6.9l0.5-0.9c0,0,0.1,0,0.2,0c1.2,0.8,10.1,6.6,10.1,6.6
	L186.5,431.3z"/>
<path class="st11" d="M174.3,429.1c0,0-9-5.8-10.2-6.6s-9.9,10.4-9.9,10.4s-7.1,12.3-7.4,14s-5.8,2.8-6,4.1s-6.7,9.4-6.7,9.4
	s-3.6,9.5-10.1,12c-6.4,2.5-13.3,8.7-4.5,15.7S146,499,146,499s11.2-11.6,13.5-17.1s8.7-14.6,8.7-14.6s3.9-7.8,4.5-10.8
	s13.4-22.7,13.4-22.7L174.3,429.1z"/>
<path class="st2" d="M394.9,423.4l-19.9,9.8l-2.7-3.1c3.3-1.4,6.5-3.1,9.6-4.9l11.5-4.9C394.3,422.3,394.9,423.4,394.9,423.4z"/>
<path class="st11" d="M383,426.3c0,0-8.9,5.2-11.2,5.3s3.3,6.3,3.3,6.3s4.4,6.1,4.2,9.1s5.5,10.2,5.5,10.2s9.7,16.7,9.1,22.5
	s-6.3,21,7,18s27.5-4.5,27.2-11.3s-6-18.7-6-18.7l-5.9-12c0,0-5.9-7.8-8.5-13.1s-10.7-22.3-10.7-22.3L383,426.3z"/>
<path class="st10" d="M302.7,124.4c12.6-4.8,9.9-17.1,4-28.3c-6.4-2.4-11.9-6.7-15.8-12.4c-3.8,1.6-7.2,6.2-5.8,9.9
	c0.6,1.2,1.3,2.2,2.1,3.2c5.9,7.8,5.1,19.9-1.8,26.9c-1.1,1.1-2.4,2.3-2.3,3.8c0,1.9,2,3.1,3.8,3.8c2.3,0.8,4.7,1.3,7.2,1.4
	C293.1,130.2,295,127.3,302.7,124.4z"/>
<path class="st2" d="M382.7,296c0,0,13.5,0.5,17.9,3.5c2.7,1.8,4.9,4.4,6.2,7.4"/>
<g class="st4">
	<path d="M287.1,97.1c4.4,5.9,5,14.1,2.2,20.8c4-7,3.8-16.5-1.1-23c-0.8-1-1.6-2-2.1-3.2c-0.4-1.2-0.4-2.6,0-3.8
		c-1.3,1.7-1.8,3.9-1.1,6C285.5,95,286.2,96.1,287.1,97.1z"/>
	<path d="M293.9,130.7c-2-0.2-4.1-0.6-6-1.3c-1.8-0.6-3.8-1.9-3.8-3.8c0-0.1,0-0.2,0-0.3c-0.7,0.7-1.1,1.6-1.2,2.5
		c0,1.9,2,3.1,3.8,3.8c2.3,0.8,4.7,1.3,7.2,1.4C293.6,132.3,293.6,131.5,293.9,130.7z"/>
	<path d="M303.6,122.4c-6,2.3-8.5,4.6-8.8,6.7c1.3-1.5,3.7-3,7.7-4.5c4.4-1.7,7-4.3,8.1-7.5C308.9,119.6,306.5,121.4,303.6,122.4z"
		/>
</g>
<path class="st2" d="M337.2,87.2c-4.5,8.3-19.2,12.2-19.7,12.2c-3.5,0-7-0.5-10.4-1.6c-5.9-12.5-16.8-24.4-16.8-24.4
	s52.6-23.3,46.6,1C335.9,78.6,336,83,337.2,87.2z"/>
<path class="st7" d="M350.8,63.9c0,17.3-13.3,31.8-30.6,33.1c-0.9,0.1-1.8,0.1-2.7,0.1c-18.4,0-33.3-14.9-33.3-33.3
	s14.9-33.3,33.3-33.3C335.9,30.7,350.8,45.6,350.8,63.9L350.8,63.9z"/>
<path class="st2" d="M350.8,63.9c0,17.3-13.3,31.8-30.6,33.1c-5.1-4.1-8.8-9.9-11.8-15.8c-1.3-2.6-2.5-5.4-2.2-8.2
	c0.3-2.5,1.7-4.7,2.1-7.2c0.7-4-1.3-8.1-3.5-11.6c-2-3.3-3.8-7.1-6.7-9.7c-1.5-1.4-2.8-2.7-4.2-4.2c13-13,34.1-12.9,47,0.1
	C347.3,46.7,350.8,55.1,350.8,63.9L350.8,63.9z"/>
<path class="st10" d="M292.3,36c-1.7-2.1-3.5-4.5-3.5-7.3c-0.1-2.6,1.3-4.9,3-6.8c1.8-2.2,4.3-3.7,7-4.3c1.8-0.2,3.6-0.2,5.4-0.1
	c3-0.2,5.9-0.8,8.8-1.6c10.6-2.7,22.4-3.7,31.9,1.6c7.6,4.2,12.7,11.8,16.7,19.5c1.6,3.1,3.1,6.3,3.1,9.8c0.1,3.1-1,6.1-1.7,9.1
	c-0.2,0.6-0.2,1.2-0.1,1.9c0.4,1.5,2.3,2,3.8,2.6c2.7,1.3,4.7,3.7,5.7,6.5c0.9,2.8,1.5,5.8,1.7,8.7c0.3,1.9,0.2,3.8-0.3,5.6
	c-1.2,3.1-4.7,4.6-7.7,6c-3.4,1.5-6.5,3.7-8.9,6.6c-2.3,2.9-3.5,6.9-2.4,10.5c1.1,3.1,3.5,5.7,6.5,7.1c3,1.4,6.2,2.4,9.4,3
	c1.4,0.2,2.8,0.7,4,1.5c2.9,2.1,2.8,6.7,0.6,9.5c-2.2,2.8-5.8,4-9.3,4.5c-7.8,1-15.7-0.6-22.4-4.7c-4.1-2.5-7.9-6.2-8.8-10.9
	c-0.6-2.9,0-6.1-1.2-8.8c-1.6-3.5-5.6-5.1-8.9-7.1c-6.8-4.1-11.4-11-15-18.1c-1.3-2.6-2.5-5.4-2.2-8.2c0.3-2.5,1.7-4.7,2.1-7.2
	c0.7-4.1-1.3-8.1-3.5-11.6c-2-3.3-3.8-7.1-6.7-9.7C296.8,41.1,294.5,38.6,292.3,36z"/>
<g class="st4">
	<path d="M369.4,84.6c-2.1,1-4,2.2-5.8,3.5c0.8-0.5,1.7-0.9,2.5-1.3c2.1-0.9,4.1-2,5.9-3.5C371.1,83.8,370.3,84.2,369.4,84.6z"/>
	<path d="M369.2,127.2c-7.8,1-15.7-0.6-22.4-4.7c-4.1-2.5-7.9-6.2-8.8-10.9c-0.6-2.9,0-6.1-1.2-8.8c-1.6-3.5-5.6-5.1-8.9-7.1
		c-6.8-4.1-11.4-11-15-18.1c-1.3-2.6-2.5-5.4-2.2-8.2c0.3-2.5,1.7-4.7,2.1-7.2c0.7-4.1-1.3-8.1-3.5-11.6c-2-3.3-3.8-7.1-6.6-9.7
		c-2.5-2.3-4.9-4.8-7-7.5c-1.7-2.1-3.5-4.5-3.5-7.3c-0.1-2.6,1.3-4.9,3-6.8c0.4-0.4,0.8-0.9,1.3-1.3c-1.8,0.8-3.3,2-4.6,3.5
		c-1.7,1.9-3.1,4.3-3,6.8c0.1,2.8,1.8,5.1,3.6,7.3c2.1,2.7,4.5,5.2,7,7.5c2.8,2.6,4.7,6.4,6.6,9.7c2.1,3.5,4.2,7.5,3.5,11.6
		c-0.4,2.5-1.9,4.7-2.1,7.2c-0.3,2.9,0.9,5.6,2.2,8.2c3.6,7.1,8.2,13.9,15,18.1c3.3,2,7.3,3.6,8.9,7.1c1.2,2.7,0.6,5.9,1.2,8.8
		c0.9,4.7,4.7,8.4,8.8,10.9c6.7,4.1,14.6,5.8,22.4,4.7c3.1-0.5,6.3-1.5,8.5-3.7C372.7,126.5,371,127,369.2,127.2z"/>
</g>
</svg>
