<?xml version="1.0" encoding="utf-8"?>
<!-- Generator: Adobe Illustrator 23.0.2, SVG Export Plug-In . SVG Version: 6.00 Build 0)  -->
<svg version="1.1" id="Layer_1" xmlns="http://www.w3.org/2000/svg" xmlns:xlink="http://www.w3.org/1999/xlink" x="0px" y="0px"
	 viewBox="0 0 1071.5 877.3" style="enable-background:new 0 0 1071.5 877.3;" xml:space="preserve">
<style type="text/css">
	.st0{opacity:0.1;fill:#6C63FF;enable-background:new    ;}
	.st1{fill:url(#SVGID_1_);}
	.st2{fill:#4A4A76;}
	.st3{opacity:0.1;}
	.st4{fill:#6C63FF;}
	.st5{opacity:0.1;enable-background:new    ;}
	.st6{fill:#FFB9B9;}
	.st7{fill:#F57979;}
	.st8{fill:url(#SVGID_2_);}
	.st9{opacity:0.5;enable-background:new    ;}
	.st10{fill:#FFFFFF;}
	.st11{opacity:0.5;fill:#FFFFFF;enable-background:new    ;}
	.st12{fill:#444053;}
	.st13{opacity:0.5;}
</style>
<title>heartbroken</title>
<ellipse class="st0" cx="839.1" cy="849.5" rx="204.1" ry="30.7"/>
<linearGradient id="SVGID_1_" gradientUnits="userSpaceOnUse" x1="897.1922" y1="-0.8084" x2="897.1922" y2="319.6534" gradientTransform="matrix(1 0 0 -1 -64.27 866.65)">
	<stop  offset="0" style="stop-color:#808080;stop-opacity:0.25"/>
	<stop  offset="0.54" style="stop-color:#808080;stop-opacity:0.12"/>
	<stop  offset="1" style="stop-color:#808080;stop-opacity:0.1"/>
</linearGradient>
<path class="st1" d="M914.8,766.8c0,0-26.4,8.7-27.4,11c-0.4,1-5.2,3.2-10.5,5.4c0.7-2.9,0.1-6.5-0.8-7.7c-0.2-0.3-0.5-0.7-1-1.3
	c2.2-4.9,4.4-10.3,7.2-14.8c4.7-7.7,4.3-17.3,4.3-17.3l3-10.8c0,0,4.2-20.2,4.2-21.9v-21.2c0,0,0.3-3.1,0.7-6.8
	c3.9-3.3,6.8-7.7,8.4-12.6l-3.1-3.7c0.9-1.1,1.6-2.3,2.1-3.6c0.5-1.5,0.8-3.1,0.8-4.7c0-0.9-0.1-1.9-0.2-2.8c0,0,0,0.1,0,0.1
	c-0.5-2.5-1.2-4.9-2.2-7.2c-2-4.6-4.4-9.2-4.6-14.2c-0.6-13.7,15.3-23.3,16.2-37c0-0.3,0-0.6,0-0.9c0-0.1,0-0.2,0-0.3s0-0.3,0-0.5
	c0-0.8-0.1-1.5-0.2-2.3c0,0,0,0.1,0,0.1c-1-6.6-5.4-12.6-10.6-17c-6.2-5.2-13.7-8.7-20.4-13.3s-12.7-10.3-20.3-12.9
	c-4.8-1.6-9.8-1.8-14.8-1.8c-10,0.2-19.1,2.7-28.8,4.3c-6.8,1.1-15.7-2.2-21.2,3.5c-4.4,4.6-1.4,13.3-5.9,17.9
	c-2.1,2.1-5.3,2.7-7.9,4.1c-4.6,2.5-7,7.6-7.6,12.9c0,0,0-0.1,0-0.1c0,0.3,0,0.6-0.1,0.9l0,0c0,0.4,0,0.7-0.1,1.1s0,0.6,0,0.9v0.3
	c0,1.1,0.1,2.2,0.3,3.2c1.1,7.3,4.7,13.8,7.3,20.7s4.1,14.8,1,21.4c-2,4.4-5.9,7.8-8,12.2c-0.8,1.8-1.4,3.8-1.6,5.8c0,0,0-0.1,0-0.1
	c0,0.2,0,0.5,0,0.7l0,0c-1.9,1.9-3.4,4.2-4.5,6.6c-2.4,5.3-5.4,6.5-6.2,6.8H762c0,0-1.4,8.5,5.8,14c0.2,3.2,0.6,6.2,1.4,7.9
	c0.7,1.3,1,4.7,1.1,8.9c0,0.2,0,0.4,0,0.6l-0.7-0.6c0,0-9-22.7-9.5-27s-4.4-10.6-4.4-10.6s-13.2-17.5-30.2-18.2s1.6,7.9,1.6,7.9
	s-6.8,17.4,13.7,23.8c0,0,5.2,6.4,6,11.5s7,23.2,7,23.2s7.3,28.3,22.9,38.6c0,0,4.9,0.2,8.3-2.7c1.9-1.1,3.6-2.5,5-4.3
	c-0.4,1.8-1.1,3.5-2,5c-5.2,7.9-5.2,11.2-5.2,11.2s2.4,5.1-1.8,6.4s-2.6,5.9-2.6,5.9s-4.3,3.2-5.1,6.2c-9.5-6.2-22.4-15-25.4-18.3
	c-4.9-5.4-38.6,3.4-26.1,28.6c0,0,7.8,16,19.9,24.7c1.4,1,2.7,2,3.9,3c2.1,2.8,4.6,5.2,7.5,7.2c1.8,2,3.4,3.8,4.7,5.4
	c-0.1,0-0.1,0.1-0.2,0.1l-0.3,0.2l-0.2,0.2c-0.1,0.1-0.2,0.2-0.3,0.3l-0.2,0.2c-0.1,0.1-0.2,0.3-0.3,0.4c0,0.1-0.1,0.1-0.1,0.2
	c-0.2,0.2-0.3,0.4-0.5,0.6c-5,7.3-7.5,25.1-7.5,25.1s0.9,7.2,12.3,7.8c1.1,0,2.1-0.1,3.2-0.4c0.4-0.1,0.7-0.3,0.9-0.7
	c0.3-1.1,15.4-5.2,26.2-4s16.2-0.2,16.2-0.2s0.8-1.6,1.6-3.7l17-4.6l1.1-0.3c8,2.7,15.5,5.3,15.5,5.3s9.8,5.9,11.9,6.6
	c1.4,0.4,6,0.3,9,0.2c0.2,1.2,0.3,1.9,0.3,1.9s7.7,0.5,11.3,1.1s27-2.1,35.8,2.4c0,0,0.4,0.1,1.1,0.2c4.9,0.8,24,2.6,23.3-14.4
	c-0.9-19.5-16.9-21.7-16.9-21.7c-4.1-0.4-8.3-0.2-12.4,0.5c8-5,19.5-12.3,29.1-19.4c10.6-7.8,12.4-13.3,12.4-16.3
	c-0.1-2.8,0-5.7,0.3-8.5C951.2,753.2,914.8,766.8,914.8,766.8z M865.5,750c0.7-1,1.1-2.3,1.2-3.5c-0.5,2.8-1.4,5.5-2.5,8.1
	C864.3,752.3,864.4,751.1,865.5,750L865.5,750z M867.1,742.1c0,0,0.2-2.3,0.6-4.9c-0.2,2.2-0.5,4.2-0.7,5.8
	C867.1,742.5,867.1,742.1,867.1,742.1L867.1,742.1z"/>
<path class="st2" d="M795.7,558.3c-4.4,4.5-1.4,13.2-5.9,17.7c-2.1,2.1-5.3,2.7-7.9,4.1c-6.4,3.5-8.6,11.9-7.5,19s4.7,13.7,7.3,20.5
	s4.1,14.6,1,21.2c-2,4.4-5.9,7.7-8,12.1c-3.1,6.6-1.6,14.4,0.9,21.2c2.7,7.2,7.1,14.4,14.2,17.2c5.1,2,10.7,1.5,16.1,2.5
	c7.9,1.5,15.2,6.4,23.2,6.3c7.8-0.1,14.7-5,20.7-10.2s11.7-10.9,19.2-13.3c5.9-1.9,12.2-1.6,18.3-2.6s12.6-4,14.7-9.8
	c1.7-4.7,0.2-9.9-1.7-14.4s-4.4-9.1-4.6-14c-0.6-13.6,15.3-23.1,16.2-36.7c0.5-8.1-4.5-15.6-10.8-20.7s-13.7-8.6-20.4-13.2
	s-12.7-10.2-20.3-12.8c-4.8-1.4-9.8-2-14.8-1.8c-10,0.2-19.1,2.6-28.8,4.2C810.1,556,801.2,552.7,795.7,558.3z"/>
<g class="st3">
	<path d="M781.7,619.4c1.3,3.3,2.2,6.7,2.6,10.3c0.6-5.1-0.7-10.6-2.6-15.5c-2.6-6.8-6.2-13.3-7.3-20.5c0-0.3-0.1-0.6-0.1-1
		c-0.2,2-0.2,4.1,0.1,6.2C775.4,606.1,779.1,612.6,781.7,619.4z"/>
	<path d="M902.1,658.7c-2.2,5.8-8.6,8.8-14.7,9.8s-12.5,0.7-18.3,2.6c-7.5,2.4-13.3,8.2-19.2,13.3s-12.8,10-20.7,10.2
		c-8.1,0.1-15.3-4.8-23.2-6.3c-5.3-1-11-0.5-16.1-2.5c-7.2-2.8-11.5-10-14.2-17.2c-1.3-3.3-2.1-6.7-2.5-10.2
		c-0.6,5.1,0.7,10.5,2.5,15.4c2.7,7.2,7.1,14.4,14.2,17.2c5.1,2,10.7,1.5,16.1,2.5c7.9,1.5,15.2,6.4,23.2,6.3
		c7.8-0.1,14.7-5,20.7-10.2s11.7-10.9,19.2-13.3c5.9-1.9,12.2-1.6,18.3-2.6s12.6-4,14.7-9.8c0.8-2.3,1-4.8,0.5-7.2
		C902.5,657.4,902.4,658.1,902.1,658.7z"/>
	<path d="M895.8,630.2c0,0.6,0.1,1.3,0.2,1.9c1.8-11.9,15.1-20.9,16-33.4c0.1-1.3,0-2.5-0.2-3.8
		C909.9,607.8,895.2,617.1,895.8,630.2z"/>
</g>
<path class="st4" d="M762.2,672.4c0,0-3.1,19.2,24.3,18.1S773,671.1,773,671.1L762.2,672.4z"/>
<path class="st5" d="M772.8,671.1l-10.8,1.4c0,0-3.1,19.2,24.3,18.1"/>
<path class="st4" d="M903.1,671.3c0,0-5.7,20.6-28.7,17.5l-3.2-9.5l22.1-10.1L903.1,671.3z"/>
<path class="st5" d="M893.3,669.3l9.8,2c0,0-5.7,20.6-28.7,17.5"/>
<path class="st6" d="M793.7,734c-0.2,7.6-4,11.8-6.9,13.9c-1,0.8-2.2,1.4-3.3,1.9l-14.2-17.9c0,0,1.3-17.6,1.1-28.9
	c-0.1-4.2-0.4-7.5-1.1-8.8c-1.6-3.2-1.7-11.2-1.5-16.3c0.1-2.7,0.2-4.6,0.2-4.6l18.6,17.3c0,0,0.1,0.3,0.2,0.8
	C787.9,696.4,794,722.8,793.7,734z"/>
<rect x="797.4" y="802.6" class="st2" width="19.2" height="16.9"/>
<rect x="802.1" y="618" class="st2" width="61.3" height="49.9"/>
<rect x="802.1" y="600.4" class="st5" width="57.1" height="67.5"/>
<path class="st6" d="M814.7,629.3c0,0,11.4,20.8-7,22s-3.1,37.6-3.1,37.6s22.6,15,23.1,15s18.7,0.2,19.2-0.2s14.5-17.8,14.5-17.8
	l2-20.2l-5-16c0,0-19.4,8.3-14-22.3L814.7,629.3z"/>
<path class="st6" d="M947.3,788.6c-0.3,2.8-0.4,5.6-0.3,8.4c0,3-1.8,8.5-12.4,16.2c-16.6,12-38.8,25.1-38.8,25.1l-40,13.8l-12.9-6
	l-9.1-4.2l-2.4-18.8l-2.1-16.5l33.5-16.3c0,0,23.8-8.7,24.8-11s27.4-10.9,27.4-10.9S951.2,754.9,947.3,788.6z"/>
<path class="st2" d="M873.1,785.8l-2.9,4l-2.3,3.2c-14.7,1-36.5,34.4-36.5,34.4l-16-13.2c-10.2-13.2-23.8-23.5-39.2-29.8l0.2-0.3
	l3.4-6.2l49.8-5.9L873.1,785.8z"/>
<path class="st5" d="M873.1,785.8l-2.9,4c-6.8-0.4-18.8-1.7-18.8-1.7s-5.9,3.6-9,2.3s-42.5-0.7-47.2-3.7c-3.7-2.4-13.7-1.6-18.9-2.6
	l3.4-6.2l49.8-5.9L873.1,785.8z"/>
<path class="st4" d="M876.2,679.6l-1.1,10.7c4.7,14.7-5,29-5,29s1.5,10-0.3,12.6s-2.6,11.9-2.6,11.9s-0.2,6.3-1.6,7.8
	s-1.1,3.1-1.3,7.5c-0.1,3.5,6.7,11.4,10.2,15.5c0.9,1,1.5,1.8,1.8,2.2c1.5,2.1,2.3,11.7-3.6,11.6l-1.5-0.1c-1.3-0.1-3-0.2-4.7-0.3
	c-6.7-0.5-15-1.4-15-1.4c-0.8,0.5-1.6,0.9-2.4,1.2c-2,0.9-4.7,1.8-6.5,1c-3.1-1.3-42.5-0.7-47.2-3.7c-3.5-2.3-12.9-1.6-18.2-2.5
	c-1.8-0.3-3.1-0.8-3.6-1.6c-1.8-3.2,4.9-8.1,4.9-8.1s-1.6-4.6,2.6-5.9s1.8-6.3,1.8-6.3s0-3.3,5.2-11.1s2.9-30.3,2.9-30.3
	c-12-16.1-4.4-29-4.4-29l-9.8-34.5l5.7-5.2l27,0.3l-2.1,11.2c-2.9,21,25.6,30,25.6,30c26.5,0.8,21-28.3,21-28.3l-3.7-13.5
	c0,0,6.5-2.3,20.5-3.9c6.7-0.8,9.5,0.2,10.6,1.4c1.5,1.7,3.3,3.2,5.1,4.5c1.2,0.9,2.4,1.9,3.3,3.1l-9,16L876.2,679.6z"/>
<path class="st6" d="M812.5,810.5l-21.4,25.9l-6.2,7.5l-23.4-9.9c-5.4-7.8-12.1-14.6-19.7-20.2c-12-8.6-19.9-24.5-19.9-24.5
	c-12.5-25,21.2-33.7,26.1-28.3s35.8,24.9,35.8,24.9c5.4,1.4,13.3,8.4,19.5,14.5C808.5,805.8,812.5,810.5,812.5,810.5z"/>
<circle class="st5" cx="829.8" cy="608.6" r="30.9"/>
<circle class="st6" cx="829.8" cy="608" r="30.9"/>
<path class="st5" d="M774.7,733c-1.8,1.3,1.7-2.3,1.7-2.3l-7.2,1.1c0,0,1.3-17.6,1.1-28.9c9.6,7.5,16.9,28.9,16.9,28.9
	C790.1,740.3,777,730.2,774.7,733z"/>
<path class="st6" d="M786.5,731.9c0,0-7.3-21.5-16.9-29c0,0-9-22.5-9.5-26.7s-4.4-10.5-4.4-10.5s-13.2-17.4-30.3-18s1.6,7.8,1.6,7.8
	s-6.8,17.3,13.7,23.6c0,0,5.2,6.3,6,11.4s7,23,7,23s7.3,28,22.9,38.3C776.6,751.8,793.8,752.6,786.5,731.9z"/>
<path class="st5" d="M864.2,759.2c-0.1,3.5,6.7,11.4,10.2,15.5c-1.4,3.4-3.2,6.7-5.2,9.8l-0.1,0.1l-2.6,3.5
	c-1.6,2.2-3.3,4.7-4.9,6.8c-2.2,3.2-4,5.6-4,5.6s-13.5,35.7-17.1,26.5c-1.3-3.2-1.8-6.7-1.7-10.1c0.2-7.1,3-15.5,8.5-25.9
	c0.6-1.1,1.1-2.1,1.7-3.2c1.6-3.2,3-6,4.2-8.5c2.1-4.4,4-8.9,5.7-13.5C858.9,765.9,864.3,754.8,864.2,759.2z"/>
<path class="st6" d="M895.4,676.4c-0.5,5.8-1.4,14.1-1.4,14.1v21c0,1.6-4.2,21.7-4.2,21.7l-3,10.8c0,0,0.4,9.5-4.3,17.1
	s-7.8,17.9-12,23.6s-11.4,16-11.4,16s-13.6,35.6-17.2,26.5s-1.6-20.2,6.8-36s11.6-25.2,11.6-25.2s6-13.5,6.4-17.7s3.3-28.8,3.3-28.8
	s5.5-15.9,4.4-33.4c0-0.7,1.4-1.3,1.3-2c-1.8-18.2,19.8-13,19.8-13C895.7,672.8,895.7,674.6,895.4,676.4z"/>
<path class="st5" d="M840.9,827.3c-3.8,5.8,43.6,6.8,36.4,7.5c-2.6,0.4-5.1,0.9-7.6,1.6l0,0c-13.4,3.4-37.5,10.9-37.5,10.9l-3.2,0.9
	l-23,6.1l1.7-12.3l1.4-10.2l17.4-8.6c0,0,2.3-1,5.1-2.4c4.9-2.3,11.6-5.5,11.8-6.1c0.3-0.8,17.1-11.9,17.1-11.9
	c4.7-4.4,41.7-21.3,41.7-21.3C946.6,771.9,844.7,821.6,840.9,827.3z"/>
<path class="st5" d="M923.6,818.1c-3.7,5.8-39.1,18-46.2,18.7c-2.6,0.4-5.1,0.9-7.6,1.6l0,0c-7.7,1.9-18.8,5.2-27,7.7l-9.1-4.2
	l-2.4-18.8l0.4-0.2c4.9-2.3,11.6-5.6,11.8-6.1c0.3-0.8,29.6-3.3,29.6-3.3c4.7-4.4,29.2-30,29.2-30
	C887.8,812.7,927.4,812.3,923.6,818.1z"/>
<path class="st6" d="M923.6,817.4c-3.7,5.8-39.1,18-46.2,18.7c-2.6,0.4-5.1,0.9-7.6,1.6l0,0c-1.5,0.4-3.2,0.8-5,1.3
	c-13.6,3.7-32.5,9.6-32.5,9.6l-3.2,0.9l-3.6,1l-16.9,4.5l-2.4,0.7l1.4-10.2l0.3-2.1l0.2-1.3l0,0l1.2-8.8l17.5-8.6c0,0,1.2-0.6,3-1.4
	l2.1-1c4.9-2.3,11.6-5.6,11.8-6.1c0.3-0.8,17.1-11.9,17.1-11.9c4.7-4.4,41.7-21.3,41.7-21.3C946.6,773.2,927.4,811.7,923.6,817.4z"
	/>
<path class="st2" d="M810.8,846.2c-0.1,2.7-1.2,6.2-2.3,8.8c-0.8,2.2-1.6,3.7-1.6,3.7s-5.4,1.4-16.2,0.2s-25.8,2.9-26.2,4
	c-0.1,0.3-0.4,0.5-0.9,0.7c-1,0.3-2.1,0.4-3.2,0.4c-11.4-0.5-12.3-7.7-12.3-7.7s2.5-17.6,7.5-24.9c0.9-1.4,2.2-2.5,3.8-3.2
	c4.7-1.9,10,1.4,10,1.4c1.1,0.7,2.4,1.3,3.7,1.7l0,0c8.6,3.2,28.8,8.8,34.7,10.6l0,0l0.9,0.3C810.3,842.8,810.8,844.3,810.8,846.2z"
	/>
<path class="st5" d="M759.3,849.8c0,0-4.5,11.2,4.3,13.8c-1,0.3-2.1,0.4-3.2,0.4c-11.4-0.5-12.3-7.7-12.3-7.7s2.5-17.6,7.5-24.9
	s13.8-1.7,13.8-1.7c1.1,0.7,2.4,1.3,3.7,1.7C773.2,831.4,761,833.1,759.3,849.8z"/>
<path class="st5" d="M832.9,756.1c0,0,29.3-5.5,29.7-3.7S832.9,756.1,832.9,756.1z"/>
<path class="st5" d="M842.2,760.7c0,0,17.7-3.6,17.8-2S842.2,760.7,842.2,760.7z"/>
<path class="st5" d="M783.8,775.6c0,0,34.6,6.1,40.1,7.3s24.4,0,24.4,0s-24.3-0.3-27-2.3S783.8,775.6,783.8,775.6z"/>
<path class="st5" d="M833.3,795.4c0,0,12-1.4,11,0S833.3,795.4,833.3,795.4z"/>
<path class="st5" d="M827.9,814.2c0,0,10.3-9.2,10.3-7.9S827.9,814.2,827.9,814.2z"/>
<path class="st5" d="M812.5,810.5l-21.4,25.9c-2.6-1-5.3-1.7-8-2.2c-8.8-1.5-34.2-9.3-38.9-22.6c0,0,100.1,27,96.7,24.3
	s-120.5-78.7-76.8-59.4c0,0,25.3,12.9,39.2,24.1C808.5,805.8,812.5,810.5,812.5,810.5z"/>
<path class="st5" d="M866.1,860.7c0,0-9.5,0.7-11.6,0s-11.9-6.5-11.9-6.5s-6.3-2.3-13.6-4.7c-8.1-2.7-17.4-5.6-20.4-5.7l-0.9-0.4
	l1.4-10.2l17.4-8.6c0,0,2.3-1,5.1-2.4l5.8,3.9c0,0,13.5,9.3,17.6,9.6c3.6,0.3,12.3,1.8,14.7,2.1l0,0c0.2,0,0.4,0,0.6,0
	C870.9,837.6,866.1,860.7,866.1,860.7z"/>
<path class="st5" d="M864.8,839c-13.6,3.7-32.5,9.6-32.5,9.6l-3.2,0.9l-3.6,1c-5.5-1.8-11.1-3.5-14.7-4.3c-0.9-0.2-1.8-0.4-2.8-0.5
	l-0.5-0.3c-3-1.4-17.2-8-25-9.3c-8-1.6-15.7-4.2-22.9-7.8c4.7-1.9,10,1.4,10,1.4c1.1,0.7,2.4,1.3,3.7,1.7l0,0
	c8.6,3.2,28.8,8.8,34.7,10.6l1.2-8.8l17.4-8.6c0,0,1.2-0.6,3-1.4l7.2,4.8c0,0,13.6,9.3,17.7,9.6C856.7,837.8,861.2,838.5,864.8,839z
	"/>
<path class="st6" d="M763.4,777.6c0,0,39.2,20,46.9,31.9l26.5,17.8c0,0,13.5,9.3,17.6,9.6s14.8,2.3,15.3,2.1s-4.2,23-4.2,23
	s-9.5,0.7-11.6,0s-11.9-6.5-11.9-6.5s-28.3-10.1-34-10.4c0,0-16.8-8.1-25.6-9.6s-34.2-9.3-38.9-22.6c0,0-5.7-7.3-9.1-10.1
	S719.7,758.4,763.4,777.6z"/>
<path class="st2" d="M911.4,867.7c-0.7-0.1-1.1-0.2-1.1-0.2c-8.8-4.5-32.2-1.8-35.8-2.4s-11.3-1.1-11.3-1.1s-4-21.4-1.4-22.1
	c1.6-0.5,3.1-1.4,4.2-2.6c4.2-2.6,27.8-3.4,30.8-3.5c1,0,2-0.3,2.9-0.8l0,0c0.3-0.2,0.6-0.5,0.7-0.8c5.6-3.5,17.4-2.3,17.4-2.3
	s16.1,2.2,16.9,21.5C935.5,870.2,916.4,868.4,911.4,867.7z"/>
<path class="st5" d="M911.4,867.7c15.5-4.3,13.6-14.6,13.6-14.6c-4.2-20.6-24.9-18.1-25.4-18.1c0.3-0.2,0.6-0.5,0.7-0.8
	c5.6-3.5,17.4-2.3,17.4-2.3s16.1,2.2,16.9,21.5C935.5,870.2,916.4,868.4,911.4,867.7z"/>
<path class="st5" d="M895.4,676.4l-21,9.6c0-0.7,1.4-1.3,1.3-2c-1.8-18.2,19.8-13,19.8-13C895.8,672.8,895.7,674.6,895.4,676.4z"/>
<polygon class="st4" points="886.8,656 889.7,655.5 903.1,671.3 872,686.6 870.4,671.8 877.7,663.2 "/>
<path class="st5" d="M786.7,691.4l-0.2,0.5l-18.8-14c0.1-2.7,0.2-4.6,0.2-4.6l18.6,17.3C786.5,690.6,786.6,690.8,786.7,691.4z"/>
<path class="st4" d="M782.3,656h-5.5c-3.5,2.5-6.3,5.9-8.1,9.7c-2.8,6.1-6.3,6.7-6.3,6.7l24.3,18.1l4.6-10.4L782.3,656z"/>
<path class="st5" d="M800.9,583.4c-1,2.1-1.6,4.3-1.8,6.6c-0.2,2.3,0.9,4.5,2.9,5.8c1,0.5,2,0.8,3.1,0.8c5.3,0.5,10.6-1,15.8-1.9
	c6.4-1,13.3-1,19.2,1.7c3.3,1.5,6.1,3.9,9.1,6s6.1,4.1,9.7,4.9s7.6-0.1,10-2.8c2.1-2.3,2.6-5.7,2.5-8.8c-0.4-8.5-4.1-16.5-10.4-22.3
	c-6.3-5.7-14.1-9.4-22.4-10.7c-6.6-1.4-13.6,0-19.1,3.9c-5.5,3.4-10.3,7.9-14.1,13.1c-1.1,1.6-2.3,3.2-3.7,4.5
	c-1.4,1.4-3.3,2.1-5.3,2"/>
<path class="st2" d="M800.9,582.1c-1,2.1-1.6,4.3-1.8,6.6c-0.2,2.3,0.9,4.5,2.9,5.8c1,0.5,2,0.8,3.1,0.8c5.3,0.5,10.6-1,15.8-1.9
	c6.4-1,13.3-1.1,19.2,1.7c3.3,1.5,6.1,3.9,9.1,6s6.1,4.1,9.7,4.9s7.6-0.1,10-2.8c2.1-2.3,2.6-5.7,2.5-8.8
	c-0.4-8.5-4.1-16.5-10.4-22.3c-6.3-5.7-14.1-9.4-22.4-10.7c-6.6-1.4-13.6,0-19.1,3.8c-5.5,3.4-10.3,7.8-14.1,13.1
	c-1.1,1.6-2.3,3.2-3.7,4.5c-1.4,1.4-3.3,2.1-5.3,2"/>
<path class="st5" d="M873.1,840.9c0,0,8.8,10.6,1.8,20.6"/>
<path class="st5" d="M797.4,842.9c0,0-6.3,7.9-1.4,14.5"/>
<path class="st7" d="M870,719.4"/>
<path class="st4" d="M870.2,719.2c-0.1,0.1-0.1,0.2-0.1,0.2c-0.4-0.2-0.8-0.6-1-1.1c-2.9-5.8,1.3-30.5,1.3-30.5l2.9,1.8l0,0l0.8,0.5
	C878.9,703.7,871.3,717.4,870.2,719.2z"/>
<path class="st5" d="M827.9,716.1c0,0-4.7,7.6-7.7,7.6C820.2,723.7,827.4,718,827.9,716.1z"/>
<path class="st5" d="M837.3,716.1c0,0,4.7,7.6,7.7,7.6C845,723.7,837.8,718,837.3,716.1z"/>
<g class="st3">
	<path d="M799.2,582.6c-0.3,0.2-0.7,0.4-1,0.5l-2.8,1.7c1.1,0.1,2.3-0.1,3.3-0.6C798.9,583.7,799,583.2,799.2,582.6z"/>
	<path d="M800,582.1l-0.7,0.4l-0.1,0.2c0.2-0.1,0.5-0.3,0.7-0.4L800,582.1z"/>
	<path d="M870.4,594.3c0.1,2.7-0.8,5.4-2.5,7.5c-2.4,2.7-6.5,3.5-10,2.8s-6.7-2.7-9.7-4.9s-5.8-4.5-9.1-6
		c-5.9-2.8-12.8-2.8-19.2-1.7c-5.3,0.9-10.5,2.4-15.8,1.9c-1.1-0.1-2.1-0.3-3.1-0.8c-1.7-1.1-2.8-3-2.8-5c0,0.1,0,0.3,0,0.4
		c-0.2,2.3,0.9,4.5,2.9,5.8c1,0.5,2,0.8,3.1,0.8c5.3,0.5,10.6-1,15.8-1.9c6.4-1,13.3-1.1,19.2,1.7c3.3,1.5,6.1,3.9,9.1,6
		s6.1,4.1,9.7,4.9s7.6-0.1,10-2.8C870,600.8,870.6,597.5,870.4,594.3L870.4,594.3z"/>
</g>
<path class="st4" d="M785.9,237c0,0.6,0,1.3,0,2c0,0.9,0,1.7-0.1,2.6s0,1.4-0.1,2.1c-0.2,3.6-0.4,7.1-0.7,10.7c-0.5,5.3,0,0.1,0,0.1
	c-0.1,1-0.2,1.9-0.3,2.9c-0.1,0.6-0.1,1.2-0.2,1.9s-0.1,1.1-0.2,1.6c0,0.1,0,0.3,0,0.4c-0.2,1.4-0.3,2.7-0.5,4.1s-0.3,2.6-0.5,3.8
	c-0.1,0.6-0.2,1.1-0.3,1.7c-0.1,0.8-0.3,1.6-0.4,2.5c-0.1,0.6-0.2,1.2-0.3,1.8c-0.5,2.7-1,5.4-1.6,8c-0.1,0.6-0.3,1.2-0.4,1.9
	c-0.2,0.9-0.4,1.7-0.6,2.6c-0.3,1.5-0.7,2.9-1.1,4.4c-0.2,0.8-0.4,1.7-0.7,2.5c-0.2,0.6-0.3,1.2-0.5,1.8c-0.4,1.5-0.8,2.9-1.2,4.4
	c-0.2,0.6-0.3,1.1-0.5,1.7c-0.3,1-0.6,2-1,3s-0.7,2.2-1.1,3.3s-0.7,2-1,3c-0.2,0.6-0.4,1.2-0.7,1.9s-0.5,1.4-0.8,2.1
	c-0.7,1.9-1.5,3.8-2.2,5.7c-0.3,0.9-0.7,1.7-1.1,2.6s-0.7,1.6-1,2.3c-0.5,1.1-1,2.2-1.5,3.3c-0.4,0.9-0.8,1.8-1.2,2.6
	c-0.9,2-1.9,3.9-2.8,5.9c-0.4,0.8-0.8,1.7-1.3,2.5c-0.9,1.8-1.9,3.6-2.9,5.4c-0.2,0.4-0.4,0.7-0.6,1c-0.3,0.6-0.7,1.2-1,1.8
	l-0.3,0.5c-0.7,1.2-1.4,2.5-2.2,3.7c-0.4,0.7-0.8,1.3-1.2,2c-0.6,0.9-1.1,1.9-1.7,2.8c-0.4,0.7-0.8,1.4-1.3,2
	c-0.3,0.5-0.6,1-0.9,1.4c-0.7,1.1-1.4,2.1-2.1,3.1c-1.4,2.1-2.9,4.2-4.4,6.3l0.5,0.4l-25.2,29.9l-59.2,70.3l-14.2,16.9
	c12,10.9,21.9,23.8,29.3,38.1c19.7,38.7,10.8,89.9,24.1,110.1c-16-12.1-16.8-43.4-56.1-51.4c-2.3-0.5-4.6-0.9-7-1.3
	c-4.6-0.8-9.1-1.7-13.4-2.8c-4.1-1-8.1-2.2-12-3.4c-0.9-0.3-1.8-0.6-2.7-0.9c-9.3-3.1-18.3-7-27-11.5l-2.3,2.8l-10.4,12.3
	l-71.5,84.9l-27.6,32.8l0,0l-24.8,29.6l-1.1,1.2l-0.2-0.2l-2.5-2.1l-2.3-1.9l-6.6-5.6l-27.8-23.4L387.5,684l-9.3-7.8L366,666l-2-1.7
	l-7.6-6.5l-7.4-6.2L320,627.2l-14.6-12.3l-5.2-4.4l-2.4-2l-12.5-10.6l-21.4-18l-2.8-2.3l-0.3-0.2l-8.9-7.5l-11.1-9.5l-12.4-10.4
	l-2.2-1.8l-6.2-5.2l0,0l0,0l-8.4-7.1l0,0l-23.4-19.7l-3.7-3.1l-0.6-0.5l-14.5-12.2l-9.4-7.9l-3.4-2.8l-1.7-1.5l0,0l-5.6-4.8
	l-17.2-14.5l-48.9-41.2c-0.9-0.7-1.7-1.5-2.6-2.2l-0.5-0.4l-0.2-0.2c-0.9-0.8-1.7-1.5-2.6-2.3c-0.6-0.5-1.2-1-1.7-1.6l-0.4-0.4
	l-0.5-0.5l-1.2-1.1l-0.1-0.1l-0.2-0.1c-0.7-0.7-1.4-1.4-2.1-2l-1-0.9l-0.7-0.7c-0.4-0.4-0.8-0.8-1.1-1.1l-0.1-0.1
	c-1.2-1.2-2.3-2.4-3.5-3.5l-1.5-1.5c-0.5-0.5-1-1.1-1.5-1.6l-0.8-0.9c-0.4-0.5-0.8-0.9-1.3-1.4c-0.2-0.2-0.5-0.5-0.7-0.8l-1.2-1.3
	c-0.7-0.8-1.4-1.6-2.1-2.4c-0.5-0.5-0.9-1.1-1.4-1.6l-0.3-0.4c-0.7-0.8-1.3-1.6-1.9-2.3l-0.3-0.4c-0.5-0.7-1.1-1.3-1.6-2
	c-0.3-0.4-0.6-0.7-0.9-1.1s-0.7-0.9-1.1-1.4s-0.6-0.7-0.9-1.1c-0.1-0.1-0.1-0.2-0.2-0.3c-0.6-0.7-1.1-1.5-1.7-2.2l-0.3-0.4l-0.3-0.5
	l-0.6-0.8l-0.3-0.4l-0.5-0.7l-0.6-0.9l-0.3-0.4l-0.4-0.6c-0.5-0.7-0.9-1.3-1.4-2l-1-1.4c-0.6-0.9-1.2-1.7-1.7-2.6l-0.1-0.2
	c-0.6-0.9-1.2-1.9-1.8-2.8l-0.2-0.3c-0.1-0.2-0.2-0.3-0.3-0.5c-0.6-0.9-1.2-1.9-1.7-2.8c-0.4-0.7-0.8-1.4-1.2-2.1l-0.4-0.7l-1.2-2.1
	c-0.2-0.3-0.3-0.6-0.5-0.9l-0.3-0.6l-0.4-0.7l-0.3-0.6c-0.1-0.1-0.1-0.2-0.2-0.4c-0.4-0.7-0.8-1.4-1.1-2c0,0-0.1-0.1-0.1-0.1
	c-0.3-0.6-0.7-1.2-1-1.8c-0.4-0.8-0.9-1.7-1.3-2.5l-1-2c-0.2-0.5-0.5-1-0.7-1.5c-0.2-0.3-0.3-0.7-0.5-1s-0.3-0.6-0.4-0.8
	c0-0.1-0.1-0.2-0.1-0.3l-0.1-0.3l-0.2-0.4l-0.8-1.7c-0.1-0.1-0.1-0.2-0.1-0.2c-0.2-0.5-0.4-0.9-0.7-1.4c-0.1-0.3-0.3-0.5-0.4-0.8
	l-0.9-2l-0.4-0.8c-0.1-0.2-0.2-0.4-0.3-0.7c-0.3-0.7-0.6-1.4-0.9-2.2c-0.2-0.5-0.5-1.1-0.7-1.6c-0.2-0.4-0.3-0.7-0.4-1.1
	c-0.4-0.9-0.7-1.8-1.1-2.7c-0.1-0.3-0.3-0.7-0.4-1l-0.1-0.2c0-0.1-0.1-0.1-0.1-0.2l-0.1-0.2l-0.1-0.3c-0.1-0.3-0.2-0.5-0.3-0.8
	s-0.2-0.5-0.3-0.7c-0.3-0.8-0.6-1.5-0.8-2.2c-0.4-1.1-0.8-2.2-1.2-3.4c0-0.1,0-0.2-0.1-0.2c-0.2-0.5-0.4-1.1-0.6-1.6
	c-0.9-2.7-1.7-5.3-2.5-8c-0.4-1.5-0.9-3-1.3-4.5L7.8,309c-0.4-1.5-0.8-3-1.2-4.5l-0.5-2.3c-0.3-1.5-0.7-3-1-4.4L5,297.3
	c-0.1-0.7-0.3-1.3-0.4-2L4.1,293c-0.1-0.6-0.2-1.2-0.3-1.8c-0.2-1.1-0.4-2.1-0.6-3.2c-0.1-0.6-0.2-1.3-0.3-1.9
	c-0.2-1.5-0.5-3.1-0.7-4.6c-0.1-0.7-0.2-1.5-0.3-2.2c0-0.1,0-0.3-0.1-0.4c-0.2-1.4-0.3-2.9-0.5-4.3c-0.1-0.8-0.2-1.5-0.2-2.3
	s-0.2-1.5-0.2-2.3c-0.4-4-0.6-8-0.8-11.9c0-0.8-0.1-1.7-0.1-2.5C0,253.3,0,251.1,0,249c0-1.4,0-2.9,0-4.3s0.1-2.8,0.1-4.1
	c0-0.1,0-0.2,0-0.3c0-1.4,0.1-2.8,0.2-4.2s0.2-2.9,0.3-4.3c0-0.1,0-0.1,0-0.2c0.1-1.4,0.2-2.8,0.3-4.1s0.3-2.9,0.4-4.3l0,0
	c0.2-1.3,0.3-2.6,0.5-4c0-0.2,0-0.3,0.1-0.5c0.2-1.4,0.4-2.7,0.6-4.1c0.2-1.7,0.5-3.4,0.8-5.1s0.6-3.5,1-5.3
	c0.2-0.8,0.3-1.6,0.5-2.4c0.3-1.3,0.5-2.6,0.8-3.9c0.1-0.6,0.3-1.2,0.4-1.8s0.3-1.2,0.4-1.8c0.3-1.3,0.6-2.6,1-3.9
	c0.1-0.5,0.2-1,0.4-1.4c0.3-1.1,0.6-2.2,0.9-3.3s0.6-2.2,1-3.4s0.6-2.1,1-3.1c0.2-0.6,0.3-1.1,0.5-1.7c0-0.1,0-0.1,0-0.1
	c0.3-1,0.6-2,1-2.9c0.1-0.2,0.2-0.5,0.2-0.7c0.4-1.2,0.8-2.4,1.2-3.6l0,0c0.5-1.3,1-2.7,1.5-4c0.3-0.7,0.5-1.4,0.8-2.1
	c0.1-0.4,0.3-0.7,0.4-1.1c0.3-0.8,0.6-1.6,1-2.4c0.2-0.6,0.5-1.2,0.7-1.8c1.3-3,2.6-6,4-8.9c2.5-5.6,5.3-11,8.3-16.4
	c0.5-0.8,0.9-1.6,1.4-2.5s1-1.6,1.4-2.4c0.4-0.8,1-1.6,1.5-2.4c2.5-4,5.1-8,7.9-12c0.5-0.7,1-1.4,1.4-2l1.4-1.9
	c2-2.7,4.1-5.4,6.2-8.1c0.5-0.7,1.1-1.3,1.6-2s1.1-1.3,1.6-2c1.3-1.6,2.7-3.1,4-4.7c0.9-1,1.7-1.9,2.6-2.9c1.9-2,3.7-4,5.7-6
	c0.7-0.7,1.4-1.5,2.2-2.2c0.1-0.1,0.2-0.2,0.4-0.4c0.7-0.7,1.3-1.3,2-2l0.9-0.8l1.7-1.6l1-1l1.7-1.5c0.8-0.7,1.6-1.5,2.5-2.2
	l1.5-1.3l1.9-1.6c0.4-0.3,0.7-0.6,1.1-0.9c1.8-1.5,3.6-2.9,5.4-4.4c0.3-0.3,0.7-0.5,1-0.8c0.7-0.6,1.4-1.1,2.1-1.6l1.6-1.2
	c1.7-1.3,3.4-2.5,5.1-3.7l1.7-1.2l2.6-1.8l2.6-1.8l1.9-1.2c0.5-0.3,0.9-0.6,1.4-0.9l1.1-0.7c0.8-0.5,1.7-1,2.5-1.5
	c0.4-0.2,0.8-0.5,1.2-0.7c0.9-0.6,1.8-1.1,2.7-1.6l1.6-0.9c2-1.1,4-2.2,6.1-3.3l2.4-1.3l0,0l1.9-1c3-1.5,6.1-3,9.2-4.4l2.1-0.9
	c0.9-0.4,1.9-0.8,2.8-1.2l3.2-1.3c0.9-0.4,1.8-0.7,2.7-1l0.1-0.1l2-0.8l3.5-1.3c1.1-0.4,2.3-0.8,3.4-1.2l0.3-0.1
	c0.8-0.3,1.6-0.5,2.4-0.8c0.4-0.1,0.9-0.3,1.3-0.4c1-0.3,2-0.6,3-1l0.8-0.2c1.1-0.3,2.2-0.7,3.3-1l0,0c0.3-0.1,0.6-0.2,0.9-0.2
	c0.9-0.3,1.8-0.5,2.8-0.8l0.9-0.2l2.5-0.7c3.1-0.8,6.1-1.5,9.2-2.1c1.2-0.2,2.4-0.5,3.5-0.7h0.1c1.1-0.2,2.3-0.4,3.4-0.6l0.8-0.1
	c1.2-0.2,2.4-0.4,3.7-0.6l0.6-0.1c1-0.2,2-0.3,3-0.5l0.9-0.1c1.2-0.2,2.4-0.3,3.6-0.5h0.2l3.5-0.4l1-0.1l3-0.3l1-0.1l3.4-0.3h0.3
	c1.2-0.1,2.5-0.2,3.7-0.2s2.3-0.1,3.5-0.1l1.6-0.1c1.1,0,2.2-0.1,3.4-0.1c1.4,0,2.7,0,4.1,0c1.2,0,2.4,0,3.6,0s2.4,0,3.6,0.1
	c2,0.1,4,0.1,6,0.3l1.8,0.1c1.8,0.1,3.7,0.2,5.5,0.4c0.5,0,0.9,0,1.4,0.1c2.1,0.2,4.2,0.4,6.3,0.7c2.5,0.3,5,0.6,7.4,1
	c1.2,0.2,2.3,0.4,3.5,0.6s2.4,0.4,3.5,0.6c2.6,0.5,5.2,1,7.9,1.6l2.4,0.5l2.1,0.5l2,0.5c1.1,0.3,2.2,0.6,3.3,0.9
	c2.1,0.6,4.3,1.2,6.4,1.8c3.7,1.1,7.3,2.3,11,3.6c1,0.4,2.1,0.7,3.1,1.1l0.3,0.1c1,0.4,2.1,0.8,3.1,1.2c1,0.4,2,0.8,3,1.2l1,0.4
	l2.9,1.3c1.2,0.5,2.4,1,3.6,1.5l3.1,1.4l0,0c1.1,0.5,2.2,1,3.3,1.6c0.8,0.4,1.7,0.8,2.5,1.2c1.1,0.5,2.3,1.1,3.4,1.7l1.5,0.8
	l2.2,1.2l0.3,0.2c8.8,4.8,17.3,10.1,25.4,15.9l2.2,1.6c1.4,1,2.8,2.1,4.2,3.2l1.4,1c2.2,1.7,4.4,3.5,6.5,5.3l0.5,0.4
	c0.7-0.8,1.5-1.5,2.2-2.2c1.3-1.3,2.6-2.6,3.9-3.8c0.7-0.7,1.4-1.3,2.1-2s1.2-1.1,1.8-1.7c0.8-0.7,1.6-1.4,2.4-2.2
	c0.6-0.6,1.2-1.1,1.9-1.7c0.8-0.7,1.6-1.4,2.4-2l2.2-1.8c0.7-0.6,1.4-1.1,2.1-1.7c2-1.6,4-3.2,6.1-4.8c0.7-0.6,1.4-1.1,2.2-1.6
	c0.4-0.3,0.8-0.6,1.2-0.8l1.8-1.3c0.8-0.5,1.5-1.1,2.3-1.6l2.2-1.5l2.1-1.4c2.3-1.5,4.7-3,7-4.4c0.5-0.3,0.9-0.6,1.4-0.9
	c1.5-0.9,2.9-1.7,4.4-2.6c0.8-0.5,1.7-1,2.5-1.4c2.4-1.3,4.8-2.6,7.2-3.8l1.6-0.8l1.6-0.8c0.9-0.4,1.8-0.8,2.6-1.3s1.8-0.8,2.6-1.2
	l2.7-1.2c0.9-0.4,1.8-0.8,2.7-1.2s1.9-0.8,2.9-1.2l2.5-1c0.9-0.4,1.8-0.7,2.7-1l2.6-1h0.1c1.8-0.7,3.6-1.3,5.4-1.9l2.8-0.9l2.7-0.9
	c0.9-0.3,1.8-0.6,2.8-0.9l2.8-0.8c1.8-0.5,3.7-1,5.6-1.5l2.8-0.7c1.9-0.5,3.7-0.9,5.6-1.3c1.9-0.4,3.7-0.8,5.6-1.2s3.8-0.7,5.6-1.1
	l2.9-0.5c2.1-0.3,4.2-0.6,6.4-0.9l3.2-0.4c3.2-0.4,6.4-0.7,9.6-0.9c2.2-0.2,4.3-0.3,6.4-0.4c4.4-0.2,8.8-0.3,13.3-0.3
	c0.4,0,0.9,0,1.3,0h1.8c0.9,0,1.7,0,2.6,0.1l2.2,0.1c0.9,0,1.8,0.1,2.8,0.1s1.7,0.1,2.5,0.1l2.5,0.2c0.8,0.1,1.7,0.1,2.5,0.2L574,1
	c1,0.1,2.1,0.2,3.2,0.3c0.2,0,0.5,0.1,0.8,0.1c0.9,0.1,1.9,0.2,2.8,0.3l1.4,0.2c0.9,0.1,1.8,0.2,2.7,0.4l2,0.3
	c1.1,0.2,2.2,0.3,3.3,0.5s2.2,0.4,3.2,0.6c1.2,0.2,2.5,0.4,3.7,0.7c0.7,0.1,1.4,0.3,2.1,0.4c0.9,0.2,1.8,0.4,2.7,0.6
	c0.6,0.1,1.2,0.2,1.8,0.4s0.9,0.2,1.3,0.3l3.9,0.9l0.7,0.2l1.6,0.4l3.5,0.9c1.3,0.4,2.7,0.7,4,1.1h0.1l2.8,0.9l3.7,1.2
	c2.1,0.7,4.1,1.4,6.2,2.1c0.6,0.2,1.3,0.5,1.9,0.7c5.7,2.1,11.4,4.5,17,7.1c0.7,0.3,1.3,0.6,2,0.9c4.8,2.3,9.5,4.7,14.2,7.3l1.6,0.9
	c0.9,0.5,1.8,1,2.6,1.5c1.5,0.9,3.1,1.9,4.6,2.8l1.9,1.2c0.2,0.1,0.4,0.3,0.7,0.4c3.6,2.3,7.1,4.7,10.6,7.2h0.1
	c0.7,0.5,1.3,0.9,1.9,1.4c0.9,0.7,1.8,1.3,2.7,2l1.4,1.1l0.8,0.6c1.4,1.1,2.8,2.2,4.1,3.3l1.6,1.3l1.6,1.3c0.8,0.7,1.6,1.4,2.5,2.1
	c1.4,1.2,2.8,2.4,4.1,3.6c0.5,0.5,1.1,1,1.6,1.5l0.3,0.3l0.6,0.6c1.8,1.7,3.5,3.4,5.3,5.1c0.7,0.7,1.4,1.4,2.1,2.1
	c0.5,0.5,0.9,1,1.4,1.4c1.1,1.1,2.2,2.3,3.3,3.5l1.2,1.2c2.4,2.7,4.8,5.4,7.1,8.1c0.6,0.7,1.1,1.3,1.7,2c0.4,0.4,0.7,0.9,1.1,1.4
	s0.7,0.9,1.1,1.4c0.1,0.1,0.2,0.2,0.3,0.3c0.4,0.5,0.8,1,1.2,1.6c0.7,0.9,1.3,1.7,2,2.6c0.8,1.1,1.6,2.1,2.3,3.2
	c0.6,0.8,1.2,1.7,1.8,2.6c0.7,1,1.4,2.1,2.2,3.1c1.4,2.1,2.8,4.2,4.1,6.3l0,0c0.7,1.1,1.3,2.1,2,3.2s1.3,2.1,1.9,3.2
	s1.3,2.2,1.9,3.2s1.1,2,1.7,3c1.8,3.2,3.4,6.4,5,9.7c0.3,0.5,0.5,1.1,0.8,1.6c0.3,0.7,0.7,1.4,1,2.1l0.1,0.3c0.4,1,0.9,1.9,1.3,2.9
	c0.6,1.3,1.1,2.5,1.7,3.8c0.3,0.8,0.7,1.6,1,2.4c1.2,2.9,2.3,5.8,3.4,8.7c0.2,0.7,0.5,1.3,0.7,2s0.4,1.2,0.6,1.8
	c0.3,0.9,0.6,1.8,0.9,2.7c0.2,0.7,0.5,1.3,0.7,2s0.4,1.1,0.5,1.7c0.6,2,1.2,4,1.8,6c0.2,0.5,0.3,1,0.4,1.5c0.2,0.9,0.5,1.7,0.7,2.6
	c0.3,1.2,0.6,2.4,0.9,3.6s0.6,2.3,0.8,3.4c0,0.1,0,0.1,0,0.2c0.2,0.8,0.4,1.6,0.5,2.4l0.3,1.5c0.3,1.4,0.6,2.8,0.9,4.2
	c0.2,0.9,0.3,1.8,0.5,2.7c0.3,1.4,0.5,2.8,0.7,4.2c0.2,0.9,0.3,1.8,0.4,2.7c0,0.2,0.1,0.4,0.1,0.7c0.1,0.9,0.3,1.7,0.4,2.6
	c0,0.3,0.1,0.6,0.1,0.9c0.1,1,0.3,2,0.4,3c0.2,1.4,0.3,2.8,0.5,4.1c0.3,3,0.6,6,0.8,9c0.1,1,0.1,2.1,0.2,3.1s0.1,2.1,0.1,3.1
	c0,0.8,0.1,1.5,0.1,2.3C785.9,230.2,785.9,233.6,785.9,237z"/>
<path class="st4" d="M716.2,645.4c-5.1,0.4-11.9,2.9-19.5-8.8C709.9,646.6,716.2,645.4,716.2,645.4z"/>
<linearGradient id="SVGID_2_" gradientUnits="userSpaceOnUse" x1="457.1935" y1="137.78" x2="457.1935" y2="866.6093" gradientTransform="matrix(1 0 0 -1 -64.27 866.65)">
	<stop  offset="0" style="stop-color:#000000;stop-opacity:0.1"/>
	<stop  offset="0.47" style="stop-color:#000000;stop-opacity:0.3"/>
	<stop  offset="1" style="stop-color:#000000;stop-opacity:0.5"/>
</linearGradient>
<path class="st8" d="M785.9,237c0,0.6,0,1.3,0,2c0,0.9,0,1.7-0.1,2.6s0,1.4-0.1,2.1c-0.2,3.6-0.4,7.1-0.7,10.7c-0.5,5.3,0,0.1,0,0.1
	c-0.1,1-0.2,1.9-0.3,2.9c-0.1,0.6-0.1,1.2-0.2,1.9s-0.1,1.1-0.2,1.6c0,0.1,0,0.3,0,0.4c-0.2,1.4-0.3,2.7-0.5,4.1s-0.3,2.6-0.5,3.8
	c-0.1,0.6-0.2,1.1-0.3,1.7c-0.1,0.8-0.3,1.6-0.4,2.5c-0.1,0.6-0.2,1.2-0.3,1.8c-0.5,2.7-1,5.4-1.6,8c-0.1,0.6-0.3,1.2-0.4,1.9
	c-0.2,0.9-0.4,1.7-0.6,2.6c-0.3,1.5-0.7,2.9-1.1,4.4c-0.2,0.8-0.4,1.7-0.7,2.5c-0.2,0.6-0.3,1.2-0.5,1.8c-0.4,1.5-0.8,2.9-1.2,4.4
	c-0.2,0.6-0.3,1.1-0.5,1.7c-0.3,1-0.6,2-1,3s-0.7,2.2-1.1,3.3s-0.7,2-1,3c-0.2,0.6-0.4,1.2-0.7,1.9s-0.5,1.4-0.8,2.1
	c-0.7,1.9-1.5,3.8-2.2,5.7c-0.3,0.9-0.7,1.7-1.1,2.6s-0.7,1.6-1,2.3c-0.5,1.1-1,2.2-1.5,3.3c-0.4,0.9-0.8,1.8-1.2,2.6
	c-0.9,2-1.9,3.9-2.8,5.9c-0.4,0.8-0.8,1.7-1.3,2.5c-0.9,1.8-1.9,3.6-2.9,5.4c-0.2,0.4-0.4,0.7-0.6,1c-0.3,0.6-0.7,1.2-1,1.8
	l-0.3,0.5c-0.7,1.2-1.4,2.5-2.2,3.7c-0.4,0.7-0.8,1.3-1.2,2c-0.6,0.9-1.1,1.9-1.7,2.8c-0.4,0.7-0.8,1.4-1.3,2
	c-0.3,0.5-0.6,1-0.9,1.4c-0.7,1.1-1.4,2.1-2.1,3.1c-1.4,2.1-2.9,4.2-4.4,6.3l0.5,0.4l-25.2,29.9l-59.2,70.3l-14.2,16.9
	c12,10.9,21.9,23.8,29.3,38.1c19.7,38.7,10.8,89.9,24.1,110.1c-16-12.1-16.8-43.4-56.1-51.4c-2.3-0.5-4.6-0.9-7-1.3
	c-4.6-0.8-9.1-1.7-13.4-2.8c-4.1-1-8.1-2.2-12-3.4c-0.9-0.3-1.8-0.6-2.7-0.9c-9.3-3.1-18.3-7-27-11.5l-2.3,2.8l-10.4,12.3
	l-71.5,84.9l-27.6,32.8l0,0l-24.8,29.6l-1.1,1.2l-0.2-0.2l-2.5-2.1l-2.3-1.9l-6.6-5.6l-27.8-23.4L387.5,684l-9.3-7.8L366,666l-2-1.7
	l-7.6-6.5l-7.4-6.2L320,627.2l-14.6-12.3l-5.2-4.4l-2.4-2l-12.5-10.6l-21.4-18l-2.8-2.3l-0.3-0.2l-8.9-7.5l-11.1-9.5l-12.4-10.4
	l-2.2-1.8l-6.2-5.2l0,0l0,0l-8.4-7.1l0,0l-23.4-19.7l-3.7-3.1l-0.6-0.5l-14.5-12.2l-9.4-7.9l-3.4-2.8l-1.7-1.5l0,0l-5.6-4.8
	l-17.2-14.5l-48.9-41.2c-0.9-0.7-1.7-1.5-2.6-2.2l-0.5-0.4l-0.2-0.2c-0.9-0.8-1.7-1.5-2.6-2.3c-0.6-0.5-1.2-1-1.7-1.6l-0.4-0.4
	l-0.5-0.5l-1.2-1.1l-0.1-0.1l-0.2-0.1c-0.7-0.7-1.4-1.4-2.1-2l-1-0.9l-0.7-0.7l-1.1-1.1l0,0l-0.1-0.1c-1.2-1.2-2.3-2.4-3.5-3.5
	l-1.5-1.5c-0.5-0.5-1-1.1-1.5-1.6l-0.8-0.9c-0.4-0.5-0.8-0.9-1.3-1.4c-0.2-0.2-0.5-0.5-0.7-0.8l-1.2-1.3c-0.7-0.8-1.4-1.6-2.1-2.4
	c-0.5-0.5-0.9-1.1-1.4-1.6l-0.3-0.4c-0.7-0.8-1.3-1.6-1.9-2.3l-0.3-0.4c-0.5-0.7-1.1-1.3-1.6-2c-0.3-0.4-0.6-0.7-0.9-1.1
	s-0.7-0.9-1.1-1.4s-0.6-0.7-0.9-1.1c-0.1-0.1-0.1-0.2-0.2-0.3c-0.6-0.7-1.1-1.5-1.7-2.2l-0.3-0.4l-0.3-0.5l-0.6-0.8l-0.3-0.4
	l-0.5-0.7l-0.6-0.9l-0.3-0.4l-0.4-0.6c-0.5-0.7-0.9-1.3-1.4-2l-1-1.4c-0.6-0.9-1.2-1.7-1.7-2.6L38,377c-0.6-0.9-1.2-1.9-1.8-2.8
	l-0.2-0.3c-0.1-0.2-0.2-0.3-0.3-0.5c-0.6-0.9-1.2-1.9-1.7-2.8c-0.4-0.7-0.8-1.4-1.2-2.1l-0.4-0.7l-1.2-2.1c-0.2-0.3-0.3-0.6-0.5-0.9
	l-0.3-0.6l-0.4-0.7l-0.1-0.1l-0.3-0.5c-0.1-0.1-0.1-0.2-0.2-0.4c-0.4-0.7-0.8-1.4-1.1-2c0,0-0.1-0.1-0.1-0.1c-0.3-0.6-0.7-1.2-1-1.8
	c-0.4-0.8-0.9-1.7-1.3-2.5l-1-2c-0.2-0.5-0.5-1-0.7-1.5c-0.2-0.3-0.3-0.7-0.5-1s-0.3-0.6-0.4-0.8c0-0.1-0.1-0.2-0.1-0.3l-0.1-0.3
	l-0.2-0.4l-0.8-1.7c-0.1-0.1-0.1-0.2-0.1-0.2c-0.2-0.5-0.4-0.9-0.7-1.4c-0.1-0.3-0.3-0.5-0.4-0.8l-0.9-2l-0.4-0.8
	c-0.1-0.2-0.2-0.4-0.3-0.7c-0.3-0.7-0.6-1.4-0.9-2.2l-0.4-0.9c-0.1-0.2-0.2-0.4-0.3-0.6s-0.3-0.7-0.4-1.1c-0.4-0.9-0.7-1.8-1.1-2.7
	c-0.1-0.3-0.3-0.7-0.4-1l-0.1-0.2c0-0.1-0.1-0.1-0.1-0.2l-0.1-0.2l-0.1-0.3c-0.1-0.3-0.2-0.5-0.3-0.8s-0.2-0.5-0.3-0.7
	c-0.3-0.8-0.6-1.5-0.8-2.2c-0.4-1.1-0.8-2.2-1.2-3.4c0-0.1,0-0.2-0.1-0.2c-0.2-0.5-0.4-1.1-0.6-1.6s-0.3-0.9-0.4-1.3
	c-0.7-2.2-1.4-4.5-2.1-6.7c-0.4-1.5-0.9-3-1.3-4.5L7.8,309c-0.4-1.5-0.8-3-1.2-4.5l-0.5-2.3c-0.3-1.5-0.7-3-1-4.4L5,297.3
	c-0.1-0.7-0.3-1.3-0.4-2L4.1,293c-0.1-0.6-0.2-1.2-0.3-1.8c-0.2-1.1-0.4-2.1-0.6-3.2c-0.1-0.6-0.2-1.3-0.3-1.9
	c-0.2-1.5-0.5-3.1-0.7-4.6c-0.1-0.7-0.2-1.5-0.3-2.2c0-0.1,0-0.3-0.1-0.4c-0.2-1.4-0.3-2.9-0.5-4.3c-0.1-0.8-0.2-1.5-0.2-2.3
	s-0.2-1.5-0.2-2.3c-0.4-4-0.6-8-0.8-11.9c0-0.8-0.1-1.7-0.1-2.5C0,253.3,0,251.1,0,248.9c0-1.4,0-2.9,0-4.3s0.1-2.8,0.1-4.1
	c0-0.1,0-0.2,0-0.3c0-1.4,0.1-2.8,0.2-4.2s0.2-2.9,0.3-4.3c0-0.1,0-0.1,0-0.2c0.1-1.4,0.2-2.8,0.3-4.1s0.3-2.9,0.4-4.3l0,0
	c0.2-1.3,0.3-2.6,0.5-4c0-0.2,0-0.3,0.1-0.5c0.2-1.4,0.4-2.7,0.6-4.1c0.2-1.7,0.5-3.4,0.8-5.1s0.6-3.5,1-5.3
	c0.2-0.8,0.3-1.6,0.5-2.4c0.3-1.3,0.5-2.6,0.8-3.9c0.1-0.6,0.3-1.2,0.4-1.8s0.3-1.2,0.4-1.8c0.3-1.3,0.6-2.6,1-3.9
	c0.1-0.5,0.2-1,0.4-1.4c0.3-1.1,0.6-2.2,0.9-3.3s0.6-2.2,1-3.4s0.6-2.1,1-3.1c0.2-0.6,0.3-1.1,0.5-1.7c0-0.1,0-0.1,0-0.1
	c0.3-1,0.6-2,1-2.9c0.1-0.2,0.2-0.5,0.2-0.7c0.4-1.2,0.8-2.4,1.2-3.6l0,0c0.5-1.3,1-2.7,1.5-4c0.3-0.7,0.5-1.4,0.8-2.1
	c0.1-0.4,0.3-0.7,0.4-1.1c0.3-0.8,0.6-1.6,1-2.4c0.2-0.6,0.5-1.2,0.7-1.8c1.3-3,2.6-6,4-8.9c2.5-5.5,5.3-11,8.3-16.3
	c0.5-0.8,0.9-1.6,1.4-2.5s1-1.6,1.4-2.4c0.4-0.8,1-1.6,1.5-2.4c2.5-4,5.1-8,7.9-12c0.5-0.7,1-1.4,1.4-2l1.4-1.9
	c2-2.7,4.1-5.4,6.2-8.1c0.5-0.7,1.1-1.3,1.6-2s1.1-1.3,1.6-2c1.3-1.6,2.7-3.1,4-4.7c0.9-1,1.7-1.9,2.6-2.9c1.9-2,3.7-4,5.7-6
	c0.7-0.7,1.4-1.5,2.2-2.2c0.1-0.1,0.2-0.2,0.4-0.4c0.7-0.7,1.3-1.3,2-2l0.9-0.8l1.7-1.6l1-1l1.7-1.5c0.8-0.7,1.6-1.5,2.5-2.2
	l1.5-1.3l1.9-1.6c0.4-0.3,0.7-0.6,1.1-0.9c1.8-1.5,3.6-2.9,5.4-4.4c0.3-0.3,0.7-0.5,1-0.8c0.7-0.6,1.4-1.1,2.1-1.6l1.6-1.2
	c1.7-1.3,3.4-2.5,5.1-3.7l1.7-1.2l2.6-1.8l2.6-1.8l1.9-1.2c0.5-0.3,0.9-0.6,1.4-0.9l1.1-0.7c0.8-0.5,1.7-1,2.5-1.5
	c0.4-0.2,0.8-0.5,1.2-0.7c0.9-0.6,1.8-1.1,2.7-1.6l1.6-0.9c2-1.1,4-2.2,6.1-3.3l2.4-1.3l0,0l1.9-1c3-1.5,6.1-3,9.2-4.4l2.1-0.9
	c0.9-0.4,1.9-0.8,2.8-1.2l3.2-1.3c0.9-0.4,1.8-0.7,2.7-1l0.1-0.1l2-0.8l3.5-1.3c1.1-0.4,2.3-0.8,3.4-1.2l0.3-0.1
	c0.8-0.3,1.6-0.5,2.4-0.8c0.4-0.1,0.9-0.3,1.3-0.4c1-0.3,2-0.6,3-1l0.8-0.2c1.1-0.3,2.2-0.7,3.3-1l0,0c0.3-0.1,0.6-0.2,0.9-0.2
	c0.9-0.3,1.8-0.5,2.8-0.8l0.9-0.2l2.5-0.7c3.1-0.8,6.1-1.5,9.2-2.1c1.2-0.2,2.4-0.5,3.5-0.7h0.1c1.1-0.2,2.3-0.4,3.4-0.6l0.8-0.1
	c1.2-0.2,2.4-0.4,3.7-0.6l0.6-0.1c1-0.2,2-0.3,3-0.5l0.9-0.1c1.2-0.2,2.4-0.3,3.6-0.5h0.2l3.5-0.4l1-0.1l3-0.3l1-0.1l3.4-0.3h0.3
	c1.2-0.1,2.5-0.2,3.7-0.2s2.3-0.1,3.5-0.1l1.6-0.1c1.1,0,2.2-0.1,3.4-0.1c1.4,0,2.7,0,4.1,0c1.2,0,2.4,0,3.6,0s2.4,0,3.6,0.1
	c2,0.1,4,0.1,6,0.3l1.8,0.1c1.8,0.1,3.7,0.2,5.5,0.4c0.5,0,0.9,0,1.4,0.1c2.1,0.2,4.2,0.4,6.3,0.7c2.5,0.3,5,0.6,7.4,1
	c1.2,0.2,2.3,0.4,3.5,0.6s2.4,0.4,3.5,0.6c2.6,0.5,5.2,1,7.9,1.6l2.4,0.5l2.1,0.5l2,0.5c1.1,0.3,2.2,0.6,3.3,0.9
	c2.1,0.6,4.3,1.2,6.4,1.8c3.7,1.1,7.3,2.3,11,3.6c1,0.4,2.1,0.7,3.1,1.1l0.3,0.1c1,0.4,2.1,0.8,3.1,1.2c1,0.4,2,0.8,3,1.2l1,0.4
	l2.9,1.3c1.2,0.5,2.4,1,3.6,1.5l3.1,1.4l0,0c1.1,0.5,2.2,1,3.3,1.6c0.8,0.4,1.7,0.8,2.5,1.2c1.1,0.5,2.3,1.1,3.4,1.7l1.5,0.8
	l2.2,1.2l0.3,0.2c8.8,4.8,17.3,10.1,25.4,15.9l2.2,1.6c1.4,1,2.8,2.1,4.2,3.2l1.4,1c2.2,1.7,4.4,3.5,6.5,5.3l0.5,0.4
	c0.7-0.8,1.5-1.5,2.2-2.2c1.3-1.3,2.6-2.6,3.9-3.8c0.7-0.7,1.4-1.3,2.1-2s1.2-1.1,1.8-1.7c0.8-0.7,1.6-1.4,2.4-2.2
	c0.6-0.6,1.2-1.1,1.9-1.7c0.8-0.7,1.6-1.4,2.4-2l2.2-1.8c0.7-0.6,1.4-1.1,2.1-1.7c2-1.6,4-3.2,6.1-4.8c0.7-0.6,1.4-1.1,2.2-1.6
	c0.4-0.3,0.8-0.6,1.2-0.8l1.8-1.3c0.8-0.5,1.5-1.1,2.3-1.6l2.2-1.5l2.1-1.4c2.3-1.5,4.7-3,7-4.4c0.5-0.3,0.9-0.6,1.4-0.9
	c1.5-0.9,2.9-1.7,4.4-2.6c0.8-0.5,1.7-1,2.5-1.4c2.4-1.3,4.8-2.6,7.2-3.8l1.6-0.8l1.6-0.8c0.9-0.4,1.8-0.8,2.6-1.3s1.8-0.8,2.6-1.2
	l2.7-1.2c0.9-0.4,1.8-0.8,2.7-1.2s1.9-0.8,2.9-1.2l2.5-1c0.9-0.4,1.8-0.7,2.7-1l2.6-1h0.1c1.8-0.7,3.6-1.3,5.4-1.9l2.8-0.9l2.7-0.9
	c0.9-0.3,1.8-0.6,2.8-0.9l2.8-0.8c1.8-0.5,3.7-1,5.6-1.5l2.8-0.7c1.9-0.5,3.7-0.9,5.6-1.3s3.7-0.8,5.6-1.2s3.8-0.7,5.6-1.1l2.9-0.5
	c2.1-0.3,4.2-0.6,6.4-0.9l3.2-0.4c3.2-0.4,6.4-0.7,9.6-0.9c2.2-0.2,4.3-0.3,6.4-0.4c4.4-0.2,8.8-0.3,13.3-0.3c0.4,0,0.9,0,1.3,0h1.8
	c0.9,0,1.7,0,2.6,0.1l2.2,0.1c0.9,0,1.8,0.1,2.8,0.1s1.7,0.1,2.5,0.1l2.5,0.2c0.8,0.1,1.7,0.1,2.5,0.2L574,1c1,0.1,2.1,0.2,3.2,0.3
	c0.2,0,0.5,0.1,0.8,0.1c0.9,0.1,1.9,0.2,2.8,0.3l1.4,0.2c0.9,0.1,1.8,0.2,2.7,0.4l2,0.3c1.1,0.2,2.2,0.3,3.3,0.5s2.2,0.4,3.2,0.6
	c1.2,0.2,2.5,0.4,3.7,0.7c0.7,0.1,1.4,0.3,2.1,0.4c0.9,0.2,1.8,0.4,2.7,0.6c0.6,0.1,1.2,0.2,1.8,0.4s0.9,0.2,1.3,0.3l3.9,0.9
	l0.7,0.2l1.6,0.4l3.5,0.9c1.3,0.4,2.7,0.7,4,1.1h0.1l2.8,0.9c0.9,0.3,1.9,0.6,2.8,0.9l1,0.3c2.1,0.7,4.1,1.4,6.2,2.1
	c0.6,0.2,1.3,0.5,1.9,0.7c5.7,2.1,11.4,4.5,17,7.1c0.7,0.3,1.3,0.6,2,0.9c4.8,2.3,9.5,4.7,14.2,7.3l1.6,0.9c0.9,0.5,1.8,1,2.6,1.5
	c1.5,0.9,3.1,1.9,4.6,2.8l1.9,1.2c0.2,0.1,0.4,0.3,0.7,0.4c3.6,2.3,7.1,4.7,10.6,7.2h0.1c0.7,0.5,1.3,0.9,1.9,1.4
	c0.9,0.7,1.8,1.3,2.7,2l1.4,1.1l0.8,0.6c1.4,1.1,2.8,2.2,4.1,3.3l1.5,1.3l1.6,1.3c0.8,0.7,1.6,1.4,2.5,2.1c1.4,1.2,2.8,2.4,4.1,3.6
	c0.5,0.5,1.1,1,1.6,1.5l0.3,0.3l0.6,0.6c1.8,1.7,3.5,3.4,5.3,5.1c0.7,0.7,1.4,1.4,2.1,2.1c0.5,0.5,0.9,1,1.4,1.4
	c1.1,1.1,2.2,2.3,3.3,3.5l1.2,1.2c2.4,2.7,4.8,5.4,7.1,8.1c0.6,0.7,1.1,1.3,1.7,2c0.4,0.4,0.7,0.9,1.1,1.4s0.7,0.9,1.1,1.4
	c0.1,0.1,0.2,0.2,0.3,0.3c0.4,0.5,0.8,1,1.2,1.6c0.7,0.9,1.3,1.7,2,2.6c0.8,1.1,1.6,2.1,2.3,3.2c0.6,0.8,1.2,1.7,1.8,2.6
	c0.7,1,1.4,2.1,2.2,3.1c1.4,2.1,2.8,4.2,4.1,6.3l0,0c0.7,1.1,1.3,2.1,2,3.2s1.3,2.1,1.9,3.2s1.3,2.2,1.9,3.2s1.1,2,1.7,3
	c1.8,3.2,3.4,6.4,5,9.7c0.3,0.5,0.5,1.1,0.8,1.6c0.3,0.7,0.7,1.4,1,2.1l0.1,0.3c0.4,1,0.9,1.9,1.3,2.9c0.6,1.3,1.1,2.5,1.7,3.8
	c0.3,0.8,0.7,1.6,1,2.4c1.2,2.9,2.3,5.8,3.4,8.7c0.2,0.7,0.5,1.3,0.7,2s0.4,1.2,0.6,1.8c0.3,0.9,0.6,1.8,0.9,2.7
	c0.2,0.7,0.5,1.3,0.7,2s0.4,1.1,0.5,1.7c0.6,2,1.2,4,1.8,6c0.2,0.5,0.3,1,0.4,1.5c0.2,0.9,0.5,1.7,0.7,2.6c0.3,1.2,0.6,2.4,0.9,3.6
	s0.6,2.3,0.8,3.4c0,0.1,0,0.1,0,0.2c0.2,0.8,0.4,1.6,0.5,2.4l0.3,1.5c0.3,1.4,0.6,2.8,0.9,4.2c0.2,0.9,0.3,1.8,0.5,2.7
	c0.3,1.4,0.5,2.8,0.7,4.2c0.2,0.9,0.3,1.8,0.4,2.7c0,0.2,0.1,0.4,0.1,0.7c0.1,0.9,0.3,1.7,0.4,2.6c0,0.3,0.1,0.6,0.1,0.9
	c0.1,1,0.3,2,0.4,3c0.2,1.4,0.3,2.8,0.5,4.1c0.3,3,0.6,6,0.8,9c0.1,1,0.1,2.1,0.2,3.1s0.1,2.1,0.1,3.1c0,0.8,0.1,1.5,0.1,2.3
	C785.9,230.2,785.9,233.6,785.9,237z"/>
<path class="st0" d="M755.3,349.4c-0.7,1.2-1.4,2.5-2.2,3.7c-0.4,0.7-0.8,1.3-1.2,2c-0.6,0.9-1.1,1.9-1.7,2.8
	c-0.4,0.7-0.8,1.4-1.3,2c-0.3,0.5-0.6,1-0.9,1.4c-0.7,1.1-1.4,2.1-2.1,3.1c-1.4,2.1-2.9,4.2-4.4,6.3l0.5,0.4l-25.1,29.9l-59.2,70.3
	c-11.2,2.6-22.5,4.9-34,6.8c-36.8,6-75.9,11.9-116,17.1l-7.3,0.9l-0.7,0.1l-1.3,0.2l-6.9,0.9c-2.9,0.4-5.8,0.7-8.7,1.1
	c-2.1,0.3-4.3,0.5-6.4,0.8l-2.7,0.3c-45.7,5.4-92,9.9-137.1,12.5l-2.5,0.1c-3.6,0.2-7.1,0.4-10.7,0.6c-5.3,0.3-10.6,0.5-15.9,0.8
	c-21.2,0.9-42,1.3-62.2,1.3c-4.8,0-9.6,0-14.4-0.1l-4.7-0.1l-2,0c-3.3-0.1-6.5-0.2-9.7-0.3c-5.4-0.2-10.8-0.4-16.1-0.6
	c-2.7-0.1-5.4-0.3-8.1-0.4l-5.6-0.3l-0.6-0.5l-14.5-12.2l-9.4-7.9l-3.4-2.8l-1.7-1.5l0,0l-5.6-4.8l-17.1-14.4l-48.9-41.2
	c-0.9-0.7-1.7-1.5-2.6-2.2l-0.5-0.4l-0.2-0.2c-0.9-0.8-1.7-1.5-2.6-2.3c-0.6-0.5-1.2-1-1.7-1.6l-0.4-0.4l-0.5-0.5l-1.2-1.1l-0.1-0.1
	l-0.2-0.1c-0.7-0.7-1.4-1.4-2.1-2l-0.3-0.3l-1.4-1.4c-0.4-0.4-0.7-0.7-1.1-1.1c0,0-0.1-0.1-0.1-0.1c-1.2-1.2-2.3-2.4-3.5-3.5
	l-1.5-1.5c-0.5-0.5-1-1.1-1.5-1.6l-0.8-0.9c-0.4-0.5-0.8-0.9-1.3-1.4c-0.2-0.2-0.5-0.5-0.7-0.8l-1.2-1.3c-0.7-0.8-1.4-1.6-2.1-2.4
	c-0.5-0.5-0.9-1.1-1.4-1.6l-0.3-0.4l-0.3-0.3c-0.6-0.7-1.1-1.3-1.7-2l-0.3-0.4c-0.5-0.7-1.1-1.3-1.6-2c-0.3-0.4-0.6-0.7-0.9-1.1
	s-0.7-0.9-1.1-1.4s-0.6-0.7-0.9-1.1c-0.1-0.1-0.1-0.2-0.2-0.3l-1.3-1.7l-0.4-0.6l-0.3-0.4l-0.3-0.5l-0.6-0.8l-0.3-0.4l-0.5-0.7
	l-0.6-0.9l-0.3-0.4l-0.4-0.6c-0.5-0.7-0.9-1.3-1.4-2l-1-1.4c-0.6-0.9-1.2-1.7-1.7-2.6L38,377c-0.6-0.9-1.2-1.9-1.8-2.8l-0.2-0.3
	c-0.1-0.2-0.2-0.3-0.3-0.5c-0.6-0.9-1.2-1.9-1.7-2.8c-0.4-0.7-0.8-1.4-1.2-2.1l-0.4-0.7l-1.2-2.1c-0.2-0.3-0.3-0.6-0.5-0.9l-0.3-0.6
	l-0.4-0.7l-0.1-0.1l-0.3-0.5c-0.1-0.1-0.1-0.2-0.2-0.4c-0.4-0.7-0.8-1.4-1.1-2c0,0-0.1-0.1-0.1-0.1c-0.3-0.6-0.7-1.2-1-1.8
	c-0.4-0.8-0.9-1.7-1.3-2.5l-1-2c-0.2-0.5-0.5-1-0.7-1.5c-0.2-0.3-0.3-0.7-0.5-1s-0.3-0.6-0.4-0.8c0-0.1-0.1-0.2-0.1-0.3l-0.1-0.3
	l-0.2-0.4l-0.8-1.7c-0.1-0.1-0.1-0.2-0.1-0.2c-0.2-0.5-0.4-0.9-0.7-1.4c-0.1-0.3-0.3-0.5-0.4-0.8l-0.9-2l-0.4-0.8
	c-0.1-0.2-0.2-0.4-0.3-0.7l140.1,1.4h1.3l5,0l10,0.1l7.5,0.1h2l7,0.1l44.9,0.5l58.9,0.6l0,0l54.1,0.5h2.4l6.7,0.1l9.2,0.1l6.3,0h1.2
	h0.8l6.4,0.1L755.3,349.4z"/>
<path class="st0" d="M739.4,93.7H59c0.9-1,1.7-1.9,2.6-2.9c1.9-2,3.7-4,5.7-6c0.7-0.7,1.4-1.5,2.2-2.2c0.1-0.1,0.2-0.2,0.4-0.4
	c0.7-0.7,1.3-1.3,2-2l0.9-0.8l1.7-1.6l1-1l1.7-1.5c0.8-0.7,1.6-1.5,2.5-2.2l1.5-1.3l1.9-1.6c0.4-0.3,0.7-0.6,1.1-0.9
	c1.8-1.5,3.6-2.9,5.4-4.4c0.3-0.3,0.7-0.5,1-0.8c0.7-0.6,1.4-1.1,2.1-1.6l1.6-1.2c1.7-1.3,3.4-2.5,5.1-3.7l1.7-1.2l2.6-1.8l2.6-1.8
	l1.9-1.2c0.5-0.3,0.9-0.6,1.4-0.9l1.1-0.7c0.8-0.5,1.7-1,2.5-1.5c0.4-0.2,0.8-0.5,1.2-0.7c0.9-0.6,1.8-1.1,2.7-1.6l1.6-0.9
	c2-1.1,4-2.2,6.1-3.3l2.4-1.3l0,0l1.9-1c3-1.5,6.1-3,9.2-4.4l2.1-0.9c0.9-0.4,1.9-0.8,2.8-1.2l3.2-1.3c0.9-0.4,1.8-0.7,2.7-1
	l0.1-0.1l2-0.8l3.5-1.3c1.1-0.4,2.3-0.8,3.4-1.2l0.3-0.1c0.8-0.3,1.6-0.5,2.4-0.8c0.4-0.1,0.9-0.3,1.3-0.4c1-0.3,2-0.6,3-1l0.8-0.2
	c1.1-0.3,2.2-0.7,3.3-1l0,0C227.9,37.2,287.9,42.4,344.5,43c8.8,4.8,17.3,10.1,25.4,15.9l2.3,1.8c1.4,1,2.8,2.1,4.2,3.2l1.4,1
	c2.2,1.7,4.4,3.5,6.5,5.3l0.5,0.4c0.7-0.8,1.5-1.5,2.2-2.2c1.3-1.3,2.6-2.6,3.9-3.8c0.7-0.7,1.4-1.3,2.1-2s1.2-1.1,1.8-1.7
	c0.8-0.7,1.6-1.4,2.4-2.2c0.6-0.6,1.2-1.1,1.9-1.7c0.8-0.7,1.6-1.4,2.4-2l2.2-1.8c0.7-0.6,1.4-1.1,2.1-1.7c2-1.6,4-3.2,6.1-4.8
	c0.7-0.6,1.4-1.1,2.2-1.6c0.4-0.3,0.8-0.6,1.2-0.8l1.8-1.3c0.8-0.5,1.5-1.1,2.3-1.6c51.3-3,102.4-9,152.9-18
	c15.9-2.9,31.5-7.4,46.5-13.6l2.8,0.9c0.9,0.3,1.9,0.6,2.8,0.9l1,0.3c2.1,0.7,4.1,1.4,6.2,2.1c0.6,0.2,1.3,0.5,1.9,0.7
	c5.7,2.1,11.4,4.5,17,7.1c0.7,0.3,1.3,0.6,2,0.9c4.8,2.3,9.5,4.7,14.2,7.3l1.6,0.9c0.9,0.5,1.8,1,2.6,1.5c1.5,0.9,3.1,1.9,4.6,2.8
	c0.8,0.5,1.7,1.1,2.6,1.6c3.6,2.3,7.1,4.7,10.6,7.2l2,1.5c0.9,0.7,1.8,1.3,2.7,2l2.2,1.7c1.4,1.1,2.8,2.2,4.1,3.3l1.5,1.2l1.6,1.3
	c0.8,0.7,1.6,1.4,2.5,2.1c1.4,1.2,2.8,2.4,4.1,3.6c0.5,0.5,1.1,1,1.6,1.5l0.3,0.3l0.6,0.6c1.8,1.7,3.5,3.4,5.3,5.1
	c0.7,0.7,1.4,1.4,2.1,2.1c0.5,0.5,0.9,1,1.4,1.4c1.1,1.1,2.2,2.3,3.3,3.5l1.2,1.2c2.4,2.7,4.8,5.4,7.1,8.1c0.6,0.7,1.1,1.3,1.7,2
	c0.4,0.4,0.7,0.9,1.1,1.4s0.7,0.9,1.1,1.4c0.1,0.1,0.2,0.2,0.3,0.3c0.4,0.5,0.8,1,1.2,1.6C738,92,738.7,92.8,739.4,93.7z"/>
<path class="st0" d="M187.7,285.5L187.7,285.5c0.2,0.5,0.3,1,0.5,1.5l0.5,1.5h6.3C192.2,288.5,189.6,287.4,187.7,285.5z
	 M187.7,285.5L187.7,285.5c0.2,0.5,0.3,1,0.5,1.5l0.5,1.5h6.3C192.2,288.5,189.6,287.4,187.7,285.5z M187.7,285.5L187.7,285.5
	c0.2,0.5,0.3,1,0.5,1.5l0.5,1.5h6.3C192.2,288.5,189.6,287.4,187.7,285.5z M187.7,285.5L187.7,285.5c0.2,0.5,0.3,1,0.5,1.5l0.5,1.5
	h6.3C192.2,288.5,189.6,287.4,187.7,285.5z M187.7,285.5c0.1,0.5,0.3,0.9,0.4,1.4s0.3,1,0.5,1.5h6.3
	C192.2,288.5,189.6,287.4,187.7,285.5z M483.2,238.9l-2.9-0.1l-1.4-0.1l-1.4-0.1H477l-2-0.1l-9.4-0.5l-2-0.1l-9-0.5l-3.5-0.2
	L122,220.5l-1.6-0.1L93.6,219l-4.3-0.2l-6.3-0.3l-2.9-0.1l-3.9-0.2l-3.9-0.2l-69.8-3.6c-0.2,1.4-0.4,2.7-0.6,4.1
	c0,0.2,0,0.3-0.1,0.5c-0.2,1.3-0.3,2.6-0.5,4l0,0c-0.2,1.4-0.3,2.9-0.4,4.3s-0.2,2.8-0.3,4.1c0,0.1,0,0.1,0,0.2
	c-0.1,1.4-0.2,2.9-0.3,4.3s-0.1,2.8-0.2,4.2c0,0.1,0,0.2,0,0.3c0,1.4-0.1,2.8-0.1,4.1s0,2.9,0,4.3c0,2.2,0,4.3,0.1,6.5
	c0,0.8,0,1.7,0.1,2.5c0.1,4,0.4,8,0.8,11.9c0.1,0.8,0.1,1.5,0.2,2.3s0.2,1.5,0.2,2.3c0.2,1.5,0.3,2.9,0.5,4.3c0,0.1,0,0.3,0.1,0.4
	c0.1,0.7,0.2,1.5,0.3,2.2c0.2,1.5,0.4,3.1,0.7,4.6c0.1,0.6,0.2,1.3,0.3,1.9c0.2,1.1,0.4,2.1,0.6,3.2c0.1,0.6,0.2,1.2,0.3,1.8
	l0.4,2.3c0.1,0.6,0.3,1.3,0.4,2l0.1,0.4c0.3,1.5,0.6,3,1,4.4l0.5,2.3c0.4,1.5,0.8,3,1.2,4.5l0.6,2.3c0.4,1.5,0.8,3,1.2,4.5
	c0.7,2.2,1.4,4.5,2.1,6.7l59.5,1.9l2.7,0.1l11.6,0.3l10.2,0.3l2.5,0.1l57.2,1.8l10.2,0.3l13.9,0.5l0,0l2.2,0.1h1.2l1.9,0.1l9.1,0.3
	l157,5l0,0l10.7,0.3l0,0l11.7,0.4l2,0.1l0,0h0.7l0,0l8.9,0.3l88.5,2.9l1.6,0h0.2l12.1,0.4h0.1l2.6,0.1l62.3,2l10.9,0.4l16.5,0.5h0.8
	h1.2l3,0.1l3.9,0.1l9.4,0.3l158.9,5.1c1-1.8,2-3.6,2.9-5.4c0.4-0.8,0.9-1.7,1.3-2.5c1-2,1.9-3.9,2.8-5.9c0.4-0.9,0.8-1.7,1.2-2.6
	c0.5-1.1,1-2.2,1.5-3.3c0.3-0.8,0.7-1.6,1-2.3s0.7-1.7,1.1-2.6c0.8-1.9,1.5-3.8,2.2-5.7c0.3-0.7,0.5-1.4,0.8-2.1s0.5-1.2,0.7-1.9
	c0.4-1,0.7-2,1-3s0.7-2.2,1.1-3.3s0.7-2,1-3c0.2-0.6,0.3-1.2,0.5-1.7c0.4-1.5,0.8-2.9,1.2-4.4c0.2-0.6,0.3-1.2,0.5-1.8
	c0.2-0.9,0.5-1.7,0.7-2.5c0.4-1.5,0.7-2.9,1.1-4.4c0.2-0.9,0.4-1.7,0.6-2.6c0.1-0.6,0.3-1.2,0.4-1.9c0.6-2.7,1.1-5.4,1.6-8
	c0.1-0.6,0.2-1.2,0.3-1.8c0.1-0.8,0.3-1.6,0.4-2.5c0.1-0.6,0.2-1.1,0.3-1.7c0.2-1.3,0.4-2.6,0.5-3.8s0.4-2.7,0.5-4.1
	c0-0.1,0-0.2,0-0.4c0.1-0.5,0.1-1.1,0.2-1.6c0.1-0.6,0.1-1.2,0.2-1.9c0.1-1,0.2-1.9,0.3-2.9c0,0,0-0.1,0-0.1L483.2,238.9z
	 M303,288.5h-18.7c5.1,0,9.3,3.7,9.3,8.1s-4.2,8.1-9.3,8.1H176.1c-5-0.1-9.1-3.7-9.1-8.1c0.1-2.7,1.5-5.1,3.8-6.5l0,0
	c1.7-1.1,3.6-1.6,5.6-1.6h18.7c-2.7,0-5.3-1.1-7.2-3l0,0c-1.3-1.4-2.1-3.2-2.1-5.1c0-0.2,0-0.5,0-0.7l0,0c0.4-4.1,4.4-7.4,9.3-7.4
	h-13.3c-5.1,0-9.3-3.7-9.3-8.1s4.2-8.1,9.3-8.1h108.1c5.1,0,9.3,3.7,9.3,8.1s-4.2,8.1-9.3,8.1H303c5.1,0,9.3,3.6,9.3,8.1
	S308.1,288.5,303,288.5z M187.7,285.5L187.7,285.5c0.2,0.5,0.3,1,0.5,1.5l0.5,1.5h6.3C192.2,288.5,189.6,287.4,187.7,285.5
	L187.7,285.5z M187.7,285.5L187.7,285.5c0.2,0.5,0.3,1,0.5,1.5l0.5,1.5h6.3C192.2,288.5,189.6,287.4,187.7,285.5L187.7,285.5z
	 M187.7,285.5L187.7,285.5c0.2,0.5,0.3,1,0.5,1.5l0.5,1.5h6.3C192.2,288.5,189.6,287.4,187.7,285.5L187.7,285.5z M187.7,285.5
	L187.7,285.5c0.2,0.5,0.3,1,0.5,1.5l0.5,1.5h6.3C192.2,288.5,189.6,287.4,187.7,285.5L187.7,285.5z M187.7,285.5L187.7,285.5
	c0.2,0.5,0.3,1,0.5,1.5l0.5,1.5h6.3C192.2,288.5,189.6,287.4,187.7,285.5L187.7,285.5z"/>
<path class="st0" d="M20.8,158c0-4.5,4.2-8.1,9.3-8.1H22c-1.4,3-2.7,5.9-4,8.9c-0.2,0.6-0.5,1.2-0.7,1.8c-0.3,0.8-0.6,1.6-1,2.4
	c-0.2,0.4-0.3,0.7-0.4,1.1c-0.3,0.7-0.5,1.4-0.8,2.1h15C25,166.1,20.8,162.5,20.8,158z M784.1,205.2c-0.1-1-0.2-2-0.4-3
	c0-0.3-0.1-0.6-0.1-0.9c-0.1-0.9-0.2-1.7-0.4-2.6c0-0.2-0.1-0.4-0.1-0.7c-0.1-0.9-0.3-1.8-0.4-2.7c-0.2-1.4-0.5-2.8-0.7-4.2
	c-0.2-0.9-0.3-1.8-0.5-2.7c-0.3-1.4-0.6-2.8-0.9-4.2l-0.3-1.5c-0.2-0.8-0.3-1.6-0.5-2.4c0-0.1,0-0.1,0-0.2c-0.3-1.1-0.5-2.3-0.8-3.4
	c-0.3-1.2-0.6-2.4-0.9-3.6c-0.2-0.9-0.5-1.7-0.7-2.6c-0.1-0.5-0.3-1-0.4-1.5c-0.6-2-1.2-4-1.8-6c-0.2-0.6-0.3-1.1-0.5-1.7
	s-0.4-1.3-0.7-2c-0.3-0.9-0.6-1.8-0.9-2.7c-0.2-0.6-0.4-1.2-0.6-1.8s-0.5-1.4-0.7-2c-1.1-2.9-2.2-5.8-3.4-8.7
	c-0.3-0.8-0.7-1.6-1-2.4c-0.5-1.3-1.1-2.5-1.7-3.8c-0.4-0.9-0.9-1.9-1.3-2.9l-0.1-0.3c-0.3-0.7-0.7-1.4-1-2.1
	c-0.2-0.5-0.5-1.1-0.8-1.6c-1.6-3.3-3.3-6.5-5-9.7c-0.5-1-1.1-2-1.7-3s-1.2-2.2-1.9-3.2s-1.3-2.2-1.9-3.2s-1.3-2.1-2-3.2l0,0
	c-1.3-2.1-2.7-4.2-4.1-6.3c-0.7-1-1.4-2.1-2.2-3.1L42.7,114.3c-2.8,3.9-5.4,7.9-7.9,12c-0.5,0.8-1,1.6-1.5,2.4
	c-0.5,0.8-1,1.6-1.4,2.4s-1,1.6-1.4,2.5h94.5c5.1,0,9.3,3.7,9.3,8.1s-4.2,8.1-9.3,8.1h13.3c5.1,0,9.3,3.6,9.3,8.1s-4.2,8.1-9.3,8.1
	h-18.7c5.1,0,9.3,3.7,9.3,8.1s-4.2,8.1-9.3,8.1h-108c-0.6,0-1.2-0.1-1.8-0.2c-0.3,1.1-0.7,2.2-1,3.4s-0.6,2.2-0.9,3.3
	c-0.1,0.5-0.2,0.9-0.4,1.4c-0.3,1.3-0.7,2.6-1,3.9c-0.2,0.6-0.3,1.2-0.4,1.8s-0.3,1.2-0.4,1.8c-0.3,1.3-0.6,2.6-0.8,3.9
	c-0.2,0.8-0.3,1.6-0.5,2.4c-0.4,1.8-0.7,3.5-1,5.3h781.3C784.4,207.9,784.3,206.5,784.1,205.2z"/>
<path class="st4" d="M696.7,636.6c-16-12.1-16.8-43.4-56.1-51.4c-2.3-0.5-4.6-0.9-7-1.3c-4.6-0.8-9.1-1.7-13.4-2.8
	c-4.1-1-8.1-2.2-12-3.4c-0.9-0.3-1.8-0.6-2.7-0.9c-9.3-3.1-18.3-7-27-11.5l-2.3,2.8l-10.4,12.3l-71.5,84.9l-27.6,32.8l0,0
	l-24.8,29.5l-1.1,1.2l-0.2-0.2l-2.5-2.1l-2.3-1.9l-6.6-5.6l-27.8-23.4L387.5,684l-9.3-7.8L366,666l-2-1.7l-7.6-6.5l-7.4-6.2
	L320,627.2l-14.6-12.3l-5.2-4.4l-2.4-2l-12.5-10.6l-21.4-18l-2.8-2.3l-0.3-0.2l-8.9-7.5l-11.1-9.5l-12.4-10.4l-2.2-1.8l-6.2-5.2l0,0
	l-8.5-7.1l-23.4-19.7l-3.7-3.1l-0.6-0.5l-14.5-12.2l-9.4-7.9l-3.4-2.8l-1.7-1.5l0,0l-5.6-4.8l-17.2-14.4l-48.9-41.2
	c-0.9-0.7-1.7-1.5-2.6-2.2l-0.5-0.4l-0.2-0.2c-0.9-0.8-1.7-1.5-2.6-2.3c-0.6-0.5-1.2-1-1.7-1.6l-0.4-0.4l-0.5-0.5l-1.2-1.1l-0.1-0.1
	l-0.2-0.1c-0.7-0.7-1.4-1.4-2.1-2l-1-0.9l-0.7-0.7l-1.1-1.1l0,0l-0.1-0.1c-1.2-1.2-2.3-2.4-3.5-3.5l-1.5-1.5c-0.5-0.5-1-1.1-1.5-1.6
	l-0.8-0.9c-0.4-0.5-0.8-0.9-1.3-1.4c-0.6-0.7-1.2-1.4-1.9-2.1s-1.4-1.6-2.1-2.4c-0.5-0.5-0.9-1.1-1.4-1.6l-0.3-0.4
	c-0.7-0.8-1.3-1.6-1.9-2.3l-0.3-0.4c-0.5-0.7-1.1-1.3-1.6-2c-0.3-0.4-0.6-0.7-0.9-1.1s-0.7-0.9-1.1-1.4s-0.6-0.7-0.9-1.1
	c-0.1-0.1-0.1-0.2-0.2-0.3c-0.6-0.7-1.1-1.5-1.7-2.2l-0.3-0.4l-0.3-0.5l-0.6-0.8l-0.3-0.4l-1.1-1.5l-0.3-0.4l-0.4-0.6
	c-0.5-0.7-0.9-1.3-1.4-2l-1-1.4c-0.6-0.9-1.2-1.7-1.7-2.6l-0.1-0.2c-0.6-0.9-1.2-1.9-1.8-2.8l-0.2-0.3c-0.1-0.2-0.2-0.3-0.3-0.5
	c-0.6-0.9-1.2-1.9-1.7-2.8c-0.4-0.7-0.8-1.4-1.2-2.1l-0.4-0.7l-1.2-2.1c-0.2-0.3-0.3-0.6-0.5-0.9l-0.3-0.6l-0.4-0.7l-0.1-0.1
	c-0.2-0.3-0.3-0.5-0.5-0.8c-0.4-0.7-0.8-1.4-1.1-2c0,0-0.1-0.1-0.1-0.1c-0.3-0.6-0.7-1.2-1-1.8c-0.4-0.8-0.9-1.7-1.3-2.5l-1-2
	c-0.2-0.5-0.5-1-0.7-1.5c-0.2-0.3-0.3-0.7-0.5-1s-0.3-0.6-0.4-0.8c0-0.1-0.1-0.2-0.1-0.3l-0.1-0.3l-0.2-0.4l-0.8-1.7
	c-0.1-0.1-0.1-0.2-0.1-0.2c-0.2-0.5-0.4-0.9-0.7-1.4c-0.1-0.3-0.3-0.5-0.4-0.8l-0.9-2l-0.4-0.8c-0.1-0.2-0.2-0.4-0.3-0.7
	c-0.3-0.7-0.6-1.4-0.9-2.2l-0.4-0.9c-0.1-0.2-0.2-0.4-0.3-0.6s-0.3-0.7-0.4-1.1c-0.4-0.9-0.7-1.8-1.1-2.7c-0.1-0.3-0.3-0.7-0.4-1
	l-0.1-0.2c0-0.1-0.1-0.1-0.1-0.2l-0.1-0.2l-0.1-0.3c-0.1-0.3-0.2-0.5-0.3-0.8s-0.2-0.5-0.3-0.7c-0.3-0.8-0.6-1.5-0.8-2.2
	c-0.4-1.1-0.8-2.2-1.2-3.4c0-0.1,0-0.2-0.1-0.2c20.1,0.7,40.3,0.6,58.5-1c21.1-1.9,39.5-5.8,52-12.7c0,0,11.8,3,28.8,7.6
	c3.3,0.9,6.9,1.9,10.5,2.9c5.3,1.5,10.8,3,16.6,4.6l2.6,0.7l1.4,0.4l1.9,0.5l9,2.6c14.8,4.3,29.9,8.9,43.2,13.4
	c14.7,4.9,27.2,9.6,34.6,13.5c1.4,0.7,2.6,1.4,3.6,2.1c0.7,0.5,1.4,0.9,2.2,1.3c13.8,7.5,43,11.8,69.6,13.5
	c3.4,0.2,6.8,0.4,10.1,0.5c5.2,0.2,10.3,0.4,14.9,0.4h2.1c2.2,0,4.3,0,6.3-0.1c3.6-0.1,6.8-0.2,9.6-0.5c3-0.2,5.9-0.6,8.8-1.4
	c13.8-4.6,76.6-17.6,88.7-9.6s129.8,20.1,151.2,9.6s6.7-22.1,31.3-9.6c6.1,3.1,23.7,17.4,46.6,37.1l-59.2,70.3l-14.2,16.9
	c12,10.9,21.9,23.8,29.3,38.1C692.3,565.2,683.4,616.4,696.7,636.6z"/>
<path class="st9" d="M696.7,636.6c-16-12.1-16.8-43.4-56.1-51.4c-2.3-0.5-4.6-0.9-7-1.3c-4.6-0.8-9.1-1.7-13.4-2.8
	c-4.1-1-8.1-2.2-12-3.4c-0.9-0.3-1.8-0.6-2.7-0.9c-9.3-3.1-18.3-7-27-11.5l-2.3,2.8l-10.4,12.3l-71.5,84.9l-27.6,32.8l0,0
	l-24.8,29.5l-1.1,1.2l-0.2-0.2l-2.5-2.1l-2.3-1.9l-6.6-5.6l-27.8-23.4L387.5,684l-9.3-7.8L366,666l-2-1.7l-7.6-6.5l-7.4-6.2
	L320,627.2l-14.6-12.3l-5.2-4.4l-2.4-2l-12.5-10.6l-21.4-18l-2.8-2.3l-0.3-0.2l-8.9-7.5l-11.1-9.5l-12.4-10.4l-2.2-1.8l-6.2-5.2l0,0
	l-8.5-7.1l-23.4-19.7l-3.7-3.1l-0.6-0.5l-14.5-12.2l-9.4-7.9l-3.4-2.8l-1.7-1.5l0,0l-5.6-4.8l-17.2-14.4l-48.9-41.2
	c-0.9-0.7-1.7-1.5-2.6-2.2l-0.5-0.4l-0.2-0.2c-0.9-0.8-1.7-1.5-2.6-2.3c-0.6-0.5-1.2-1-1.7-1.6l-0.4-0.4l-0.5-0.5l-1.2-1.1l-0.1-0.1
	l-0.2-0.1c-0.7-0.7-1.4-1.4-2.1-2l-1-0.9l-0.7-0.7l-1.1-1.1l0,0l-0.1-0.1c-1.2-1.2-2.3-2.4-3.5-3.5l-1.5-1.5c-0.5-0.5-1-1.1-1.5-1.6
	l-0.8-0.9c-0.4-0.5-0.8-0.9-1.3-1.4c-0.6-0.7-1.2-1.4-1.9-2.1s-1.4-1.6-2.1-2.4c-0.5-0.5-0.9-1.1-1.4-1.6l-0.3-0.4
	c-0.7-0.8-1.3-1.6-1.9-2.3l-0.3-0.4c-0.5-0.7-1.1-1.3-1.6-2c-0.3-0.4-0.6-0.7-0.9-1.1s-0.7-0.9-1.1-1.4s-0.6-0.7-0.9-1.1
	c-0.1-0.1-0.1-0.2-0.2-0.3c-0.6-0.7-1.1-1.5-1.7-2.2l-0.3-0.4l-0.3-0.5l-0.6-0.8l-0.3-0.4l-1.1-1.5l-0.3-0.4l-0.4-0.6
	c-0.5-0.7-0.9-1.3-1.4-2l-1-1.4c-0.6-0.9-1.2-1.7-1.7-2.6l-0.1-0.2c-0.6-0.9-1.2-1.9-1.8-2.8l-0.2-0.3c-0.1-0.2-0.2-0.3-0.3-0.5
	c-0.6-0.9-1.2-1.9-1.7-2.8c-0.4-0.7-0.8-1.4-1.2-2.1l-0.4-0.7l-1.2-2.1c-0.2-0.3-0.3-0.6-0.5-0.9l-0.3-0.6l-0.4-0.7l-0.1-0.1
	c-0.2-0.3-0.3-0.5-0.5-0.8c-0.4-0.7-0.8-1.4-1.1-2c0,0-0.1-0.1-0.1-0.1c-0.3-0.6-0.7-1.2-1-1.8c-0.4-0.8-0.9-1.7-1.3-2.5l-1-2
	c-0.2-0.5-0.5-1-0.7-1.5c-0.2-0.3-0.3-0.7-0.5-1s-0.3-0.6-0.4-0.8c0-0.1-0.1-0.2-0.1-0.3l-0.1-0.3l-0.2-0.4l-0.8-1.7
	c-0.1-0.1-0.1-0.2-0.1-0.2c-0.2-0.5-0.4-0.9-0.7-1.4c-0.1-0.3-0.3-0.5-0.4-0.8l-0.9-2l-0.4-0.8c-0.1-0.2-0.2-0.4-0.3-0.7
	c-0.3-0.7-0.6-1.4-0.9-2.2l-0.4-0.9c-0.1-0.2-0.2-0.4-0.3-0.6s-0.3-0.7-0.4-1.1c-0.4-0.9-0.7-1.8-1.1-2.7c-0.1-0.3-0.3-0.7-0.4-1
	l-0.1-0.2c0-0.1-0.1-0.1-0.1-0.2l-0.1-0.2l-0.1-0.3c-0.1-0.3-0.2-0.5-0.3-0.8s-0.2-0.5-0.3-0.7c-0.3-0.8-0.6-1.5-0.8-2.2
	c-0.4-1.1-0.8-2.2-1.2-3.4c0-0.1,0-0.2-0.1-0.2c20.1,0.7,40.3,0.6,58.5-1c21.1-1.9,39.5-5.8,52-12.7c0,0,11.8,3,28.8,7.6
	c3.3,0.9,6.9,1.9,10.5,2.9c5.3,1.5,10.8,3,16.6,4.6l2.6,0.7l1.4,0.4l1.9,0.5l9,2.6c14.8,4.3,29.9,8.9,43.2,13.4
	c14.7,4.9,27.2,9.6,34.6,13.5c1.4,0.7,2.6,1.4,3.6,2.1c0.7,0.5,1.4,0.9,2.2,1.3c13.8,7.5,43,11.8,69.6,13.5
	c3.4,0.2,6.8,0.4,10.1,0.5c5.2,0.2,10.3,0.4,14.9,0.4h2.1c2.2,0,4.3,0,6.3-0.1c3.6-0.1,6.8-0.2,9.6-0.5c3-0.2,5.9-0.6,8.8-1.4
	c13.8-4.6,76.6-17.6,88.7-9.6s129.8,20.1,151.2,9.6s6.7-22.1,31.3-9.6c6.1,3.1,23.7,17.4,46.6,37.1l-59.2,70.3l-14.2,16.9
	c12,10.9,21.9,23.8,29.3,38.1C692.3,565.2,683.4,616.4,696.7,636.6z"/>
<path class="st4" d="M696.7,636.6c13.2,10,19.5,8.8,19.5,8.8C711.1,645.7,704.3,648.2,696.7,636.6z"/>
<circle class="st10" cx="78.9" cy="120.3" r="1"/>
<circle class="st10" cx="656.6" cy="175.7" r="1"/>
<circle class="st10" cx="326.9" cy="96.9" r="1"/>
<circle class="st10" cx="450.3" cy="98.4" r="1"/>
<circle class="st10" cx="374.3" cy="190" r="1"/>
<circle class="st10" cx="554.3" cy="128" r="1"/>
<circle class="st11" cx="474.2" cy="73" r="2.1"/>
<circle class="st11" cx="567.5" cy="51" r="2.1"/>
<circle class="st11" cx="210.3" cy="217" r="0.8"/>
<circle class="st11" cx="184.3" cy="99.3" r="0.8"/>
<circle class="st11" cx="164.3" cy="153.5" r="0.8"/>
<circle class="st11" cx="420.3" cy="147.7" r="0.8"/>
<circle class="st11" cx="606.3" cy="89.5" r="0.8"/>
<circle class="st11" cx="295.1" cy="145.6" r="2.1"/>
<circle class="st11" cx="257.5" cy="59.7" r="2.1"/>
<circle class="st11" cx="412.1" cy="99.9" r="2.1"/>
<polygon class="st10" points="110.2,88.9 109.7,88.9 109.7,88.3 109.5,88.3 109.5,88.9 109,88.9 109,89 109.5,89 109.5,89.5 
	109.7,89.5 109.7,89 110.2,89 "/>
<polygon class="st10" points="670.1,97.4 669.6,97.4 669.6,96.9 669.5,96.9 669.5,97.4 669,97.4 669,97.5 669.5,97.5 669.5,98.1 
	669.6,98.1 669.6,97.5 670.1,97.5 "/>
<polygon class="st10" points="215.5,100.3 214.5,100.3 214.5,99.3 214.2,99.3 214.2,100.3 213.2,100.3 213.2,100.5 214.2,100.5 
	214.2,101.5 214.5,101.5 214.5,100.5 215.5,100.5 "/>
<polygon class="st10" points="249.5,167.8 248.5,167.8 248.5,166.8 248.3,166.8 248.3,167.8 247.3,167.8 247.3,168 248.3,168 
	248.3,169 248.5,169 248.5,168 249.5,168 "/>
<polygon class="st10" points="99.3,184.4 98.3,184.4 98.3,183.4 98,183.4 98,184.4 97,184.4 97,184.7 98,184.7 98,185.7 98.3,185.7 
	98.3,184.7 99.3,184.7 "/>
<polygon class="st10" points="444.9,205.4 443.9,205.4 443.9,204.4 443.7,204.4 443.7,205.4 442.7,205.4 442.7,205.7 443.7,205.7 
	443.7,206.7 443.9,206.7 443.9,205.7 444.9,205.7 "/>
<polygon class="st10" points="568.6,168.9 567.6,168.9 567.6,167.9 567.3,167.9 567.3,168.9 566.3,168.9 566.3,169.1 567.3,169.1 
	567.3,170.1 567.6,170.1 567.6,169.1 568.6,169.1 "/>
<path class="st4" d="M352.4,599.7c-9.3,10.8-20.3,20.1-32.4,27.5l-14.6-12.3C319,603.1,338.7,590.5,352.4,599.7z"/>
<path class="st4" d="M307,584.7c0,0,34.7-37.6,60-28.3c0,0-29.7,39-64.7,40L307,584.7z"/>
<path class="st4" d="M322.7,542.2c0,0,38.3-36,55-29.7c0,0-27.7,40-56.7,37.7L322.7,542.2z"/>
<path class="st4" d="M338,502.8c0,0,33-43,51-39.7c0,0-20,38.3-51,44V502.8z"/>
<path class="st4" d="M354.7,449.8c0,0,29.2-33,44.9-32.9c0,0-23,44-46.1,43.6L354.7,449.8z"/>
<path class="st4" d="M364.5,414.5l28.2-68.7c0,0,1.4,62.1-31.8,81.4L364.5,414.5z"/>
<path class="st4" d="M376,338.8c0,0,4.7-57.3,1.7-62c0,0,20.1,47.7-1.9,87.3L376,338.8z"/>
<path class="st4" d="M285.2,597.9l-21.4-18l-2.8-2.3c0-0.1,0-0.2,0-0.4c-0.7-5.9-0.8-9.6-0.8-9.6C273.4,568.6,281,583.1,285.2,597.9
	z"/>
<path class="st4" d="M309.9,583c0,0-8.2-50.5-34.5-56.7c0,0,3.3,48.9,31.9,69L309.9,583z"/>
<path class="st4" d="M325.8,542.5c0,0-0.3-52.6-16.4-60.3c0,0-10,47.6,11.7,67L325.8,542.5z"/>
<path class="st4" d="M339.3,502.2c0,0-2.2-54.2-18.9-61.8c0,0-5.7,42.9,16.4,65.3L339.3,502.2z"/>
<path class="st4" d="M357,454.1c0,0-0.1-44-12-54.4c0,0-11.8,48.2,5.8,63.2L357,454.1z"/>
<path class="st4" d="M363.1,412.3L351.6,339c0,0-15.7,60.1,12.1,86.5L363.1,412.3z"/>
<path class="st4" d="M365.4,339.4c0,0-29.7-49.3-29.1-54.8c0,0,3.1,51.6,40.5,77.4L365.4,339.4z"/>
<path class="st4" d="M368.9,324.9c0,0-28-70-40.7-75.7c0,0,40,20.3,43,73.7L368.9,324.9z"/>
<path class="st12" d="M353.3,461l-1.9-0.6c23.6-77.1,29.5-126.2,16.6-138.5l1.4-1.5C383.1,333.4,377.5,382,353.3,461z"/>
<path class="st12" d="M355.1,455.2l-0.9,2.9l-0.7,2.2c-0.1,0.2-0.1,0.4-0.2,0.6c-3.7,11.8-7.9,24.7-12.5,38.3
	c-0.9,2.6-1.8,5.2-2.6,7.8c-3.4,9.9-7,20.2-10.8,30.8c-0.5,1.5-1.1,3-1.6,4.5l-0.1,0.2c-0.9,2.5-1.8,5-2.8,7.6
	c-3.5,9.7-7.2,19.5-11,29.6c-1,2.8-2.1,5.6-3.2,8.4c-0.8,2.1-1.6,4.3-2.5,6.5c-0.2,0.5-0.4,1.1-0.6,1.6c-1.8,4.7-3.7,9.4-5.5,14.2
	l-2.4-2c1.6-4,3.2-8,4.7-11.9c0.5-1.2,1-2.5,1.5-3.7c1-2.6,2-5.2,3-7.8l0.1-0.2c0.7-1.8,1.4-3.7,2.1-5.5c4-10.3,7.9-20.5,11.6-30.4
	l1.4-3.6c0.5-1.2,0.9-2.5,1.4-3.7c0.7-2,1.5-3.9,2.2-5.8c3.8-10.4,7.4-20.5,10.8-30.2c0.9-2.5,1.7-5,2.6-7.4
	c4.3-12.4,8.2-24.2,11.6-35.2c0.6-2,1.2-4,1.9-5.9c0-0.1,0.1-0.3,0.1-0.4l1.4-0.7L355.1,455.2z"/>
<path class="st4" d="M351.4,633.5l5,24.3l-7.4-6.2C349.4,645.6,350.2,639.5,351.4,633.5z"/>
<path class="st4" d="M369.1,629.7c0,0,6-57.2,9.8-61.2c0,0-28.6,43.1-14.3,86.2L369.1,629.7z"/>
<path class="st4" d="M387.5,684l-9.3-7.8l14.9-41.8C393.1,634.4,394.9,660.2,387.5,684z"/>
<path class="st4" d="M379.4,632.3c0,0,38.3-43,38.7-48.5c0,0-12.6,50.2-54.1,68.6L379.4,632.3z"/>
<path class="st4" d="M378.7,617.4c0,0,40.5-63.6,54-66.8c0,0-43.1,12.6-55.9,64.5L378.7,617.4z"/>
<path class="st12" d="M380.1,614.6c-0.8,0.5-1.5,1.1-2.2,1.8c-5.2,5.2-8.7,15.9-10.5,31.7c-0.1,1-0.2,1.9-0.3,2.9
	c-0.5,4.6-0.8,9.6-1,15l-2-1.7c0.1-3.4,0.3-6.6,0.6-9.7c0.1-0.9,0.1-1.7,0.2-2.6l0.1-0.8c0.6-7.9,2.1-15.6,4.4-23.2
	c2-6.1,4.5-10.6,7.5-13.5c0.7-0.6,1.4-1.2,2.1-1.7L380.1,614.6z"/>
<path class="st4" d="M441.8,727.7l-1.1,1.2l-0.2-0.2C441,728.3,441.4,728,441.8,727.7z"/>
<path class="st4" d="M494.3,665.3l-27.6,32.8l0,0c-6.4,3.4-13.2,5.6-20.1,5.5c-0.7,0-1.3,0-2-0.1l0.2-1l0.8-3.9l0.6-3l0.7-0.7
	c0.5-0.5,1.3-1.2,2.3-2.1l1.7-1.5l0,0C460.1,683.5,480.3,667.2,494.3,665.3z"/>
<path class="st4" d="M461.6,656.2c0,0,33-43,51-39.7c0,0-20,38.3-51,44V656.2z"/>
<path class="st4" d="M478.2,603.2c0,0,29.2-33,44.9-32.9c0,0-23,44-46.1,43.6L478.2,603.2z"/>
<path class="st4" d="M488.1,567.9l28.2-68.7c0,0,1.4,62.1-31.7,81.4L488.1,567.9z"/>
<path class="st4" d="M499.5,492.1c0,0,4.7-57.3,1.7-62c0,0,20.1,47.7-1.9,87.3L499.5,492.1z"/>
<path class="st4" d="M429.1,719.1l-27.8-23.4c-1.1-5.3-2-10.6-2.4-15.9C415,683.5,424.3,703.8,429.1,719.1z"/>
<path class="st4" d="M449.4,695.9c0,0-0.3-52.6-16.4-60.3c0,0-10,47.6,11.7,67L449.4,695.9z"/>
<path class="st4" d="M462.8,655.7c0,0-2.2-54.2-18.9-61.8c0,0-5.7,42.9,16.4,65.3L462.8,655.7z"/>
<path class="st4" d="M480.5,607.5c0,0-0.1-44-12-54.4c0,0-11.8,48.2,5.8,63.2L480.5,607.5z"/>
<path class="st4" d="M486.7,565.7l-11.5-73.3c0,0-15.7,60.1,12.1,86.5L486.7,565.7z"/>
<path class="st4" d="M488.9,492.8c0,0-29.7-49.3-29.1-54.8c0,0,3.2,51.6,40.5,77.4L488.9,492.8z"/>
<path class="st4" d="M492.4,478.3c0,0-28-70-40.7-75.7c0,0,40,20.3,43,73.7L492.4,478.3z"/>
<path class="st12" d="M476.9,614.3l-1.9-0.6c23.6-77.1,29.5-126.2,16.6-138.5l1.4-1.5C506.6,486.8,501.1,535.4,476.9,614.3z"/>
<path class="st12" d="M478.6,608.7c-0.3,1-0.6,2-0.9,2.9l0,0c-0.2,0.7-0.4,1.4-0.7,2.1l0,0l0,0c-0.1,0.2-0.1,0.4-0.2,0.6
	c-3.7,11.8-7.9,24.7-12.5,38.3l0,0c-0.9,2.6-1.8,5.2-2.7,7.8c-3.4,9.9-7,20.2-10.8,30.8l0,0c-0.5,1.5-1.1,3-1.6,4.5l-0.1,0.2l0,0
	c-0.9,2.5-1.8,5.1-2.8,7.6c-2.7,7.5-5.6,15.2-8.5,23l-2.3-1.9c2.9-7.6,5.7-15.1,8.5-22.5l1.4-3.6c0.5-1.2,0.9-2.5,1.4-3.7
	c0.7-2,1.4-3.9,2.2-5.8c3.8-10.4,7.4-20.5,10.8-30.2c0.9-2.5,1.7-5,2.6-7.4l0,0c4.3-12.4,8.2-24.2,11.6-35.2c0.6-2,1.2-3.9,1.8-5.8
	c0.1-0.2,0.1-0.4,0.2-0.5l1.4-0.7L478.6,608.7z"/>
<path class="st4" d="M652.2,561.1c-3.1,8.4-7,16.5-11.6,24.1c-2.3-0.5-4.6-0.9-7-1.3c-4.6-0.8-9.1-1.7-13.4-2.8
	C628.6,570.5,639.7,560.8,652.2,561.1z"/>
<path class="st4" d="M605.6,561.7c0,0,24.9-46.3,42.8-45.6c0,0-13.5,46.7-41.8,53.7L605.6,561.7z"/>
<path class="st4" d="M607.7,519.4c0,0,17.7-51.3,35.8-53.8c0,0-6.8,42.7-34.4,57.9L607.7,519.4z"/>
<path class="st4" d="M606.6,463.9c0,0,17.2-40.5,32.2-45.4c0,0-7.9,49-29.9,56L606.6,463.9z"/>
<path class="st4" d="M604.8,427.3l4.9-74c0,0,21,58.4-4.3,87.3L604.8,427.3z"/>
<path class="st4" d="M591.6,351.8c0,0-13.8-55.9-18.1-59.3c0,0,34.2,38.8,25.9,83.4L591.6,351.8z"/>
<path class="st4" d="M576.2,568.1l-10.4,12.3c-3.8-6-7.2-12.2-10-18.8C562.9,561,569.8,563.7,576.2,568.1z"/>
<path class="st4" d="M608.7,561c0,0-17-49.8-34.6-52c0,0,5.6,48.3,32.3,59.9L608.7,561z"/>
<path class="st4" d="M608.7,518.5c0,0-19.3-50.6-37.5-52.6c0,0,8.2,42.5,36.3,56.8L608.7,518.5z"/>
<path class="st4" d="M610.2,467.2c0,0-14.1-41.7-28.6-47.8c0,0,4.1,49.5,25.5,58.1L610.2,467.2z"/>
<path class="st4" d="M602.8,425.6l-34.2-65.9c0,0,4.2,61.9,38.9,78.2L602.8,425.6z"/>
<path class="st4" d="M581.8,355.8c0,0-43.8-37.3-44.9-42.7c0,0,19.4,48,63,60.6L581.8,355.8z"/>
<path class="st4" d="M580.5,340.9c0,0-48.8-57.5-62.6-58.9c0,0,44.4,6.6,64.2,56.2L580.5,340.9z"/>
<path class="st12" d="M608.9,474.9l-2,0c-2-80.6-12-129.1-28.2-136.6l0.8-1.8C596.7,344.5,606.8,392.3,608.9,474.9z"/>
<path class="st12" d="M609.2,515.2c0,2.7,0,5.5,0,8.2c-0.1,10.5-0.2,21.4-0.4,32.6c0,1.6-0.1,3.2-0.1,4.8c0,0.1,0,0.2,0,0.2
	c-0.1,2.7-0.1,5.4-0.2,8.1s-0.2,5.6-0.2,8.5c-0.9-0.3-1.8-0.6-2.7-0.9c0.1-2.8,0.2-5.5,0.3-8.2c0-1.3,0.1-2.6,0.1-3.8s0.1-2.7,0.1-4
	c0.1-2.1,0.1-4.1,0.2-6.2c0.3-11.1,0.5-21.8,0.7-32.1c0-2.7,0-5.3,0.1-7.8c0.1-13.1,0.1-25.5-0.1-37.1c0-2.1-0.1-4.2-0.1-6.3
	c0-0.1,0-0.2,0-0.3l1.1-1.1l0.8-0.8c0,1,0,2,0.1,3.1c0,0.7,0,1.5,0,2.2c0,0.2,0,0.5,0,0.7C609.1,487.3,609.3,500.8,609.2,515.2z"/>
<path class="st4" d="M443,284.6c0,0-7.9,1.2-5.8,6.4c0,0.6,0.4,1.1,1,1.2c0,0-0.1-0.4,0.7-0.4c0.3,0,0.6-0.1,0.9-0.1
	c0.4-0.1,0.7-0.3,0.9-0.6l0,0c0,0,2-1.4,2.1-5.1c0,0,0.5-0.9,0.4-1.1l-1.2,0.8c0.4,0.5,0.5,1.1,0.5,1.7c0,0-0.4-1.7-0.6-1.6
	c0,0-0.6,0.5-0.6,0.5c0.6,0.8,0.9,1.8,0.8,2.8c0,0-0.2-2.1-1-2.6l-0.8,0.7c0.7,0.8,1.1,1.9,1,3c0,0-0.3-2.1-1.1-2.8l-0.7,0.8
	c0.6,0.8,1,1.7,0.9,2.8c0,0-0.6-2.5-1.1-2.5c-0.3,0.3-0.5,0.7-0.6,1.1c0,0,0.8,1.1,0.6,1.8c0,0-0.6-1.6-0.8-1.6
	c-0.3,0.6-0.4,1.3-0.4,2c-0.1-0.7,0-1.4,0.2-2.1c-0.4,0.2-0.8,0.5-1,0.8c0,0-0.1-0.8,1.1-1.1c0.2-0.4,0.3-0.7,0.6-1
	c-0.6,0.1-1.3,0.3-1.8,0.6c0.5-0.6,1.2-0.9,2-0.9l0.7-0.9c-0.8,0-1.5,0.2-2.2,0.5c0.6-0.6,1.5-0.9,2.4-0.7l0.8-0.7
	c-0.7,0-1.4,0.1-2.1,0.3c0.7-0.4,1.5-0.6,2.4-0.5l0.6-0.4c0,0-1,0-1.3,0s-0.3,0-0.3,0c0.6-0.2,1.2-0.3,1.9-0.2
	C442.2,285.3,442.6,285,443,284.6z"/>
<path class="st9" d="M443,284.6c0,0-7.9,1.2-5.8,6.4c0,0.6,0.4,1.1,1,1.2c0,0-0.1-0.4,0.7-0.4c0.3,0,0.6-0.1,0.9-0.1
	c0.4-0.1,0.7-0.3,0.9-0.6l0,0c0,0,2-1.4,2.1-5.1c0,0,0.5-0.9,0.4-1.1l-1.2,0.8c0.4,0.5,0.5,1.1,0.5,1.7c0,0-0.4-1.7-0.6-1.6
	c0,0-0.6,0.5-0.6,0.5c0.6,0.8,0.9,1.8,0.8,2.8c0,0-0.2-2.1-1-2.6l-0.8,0.7c0.7,0.8,1.1,1.9,1,3c0,0-0.3-2.1-1.1-2.8l-0.7,0.8
	c0.6,0.8,1,1.7,0.9,2.8c0,0-0.6-2.5-1.1-2.5c-0.3,0.3-0.5,0.7-0.6,1.1c0,0,0.8,1.1,0.6,1.8c0,0-0.6-1.6-0.8-1.6
	c-0.3,0.6-0.4,1.3-0.4,2c-0.1-0.7,0-1.4,0.2-2.1c-0.4,0.2-0.8,0.5-1,0.8c0,0-0.1-0.8,1.1-1.1c0.2-0.4,0.3-0.7,0.6-1
	c-0.6,0.1-1.3,0.3-1.8,0.6c0.5-0.6,1.2-0.9,2-0.9l0.7-0.9c-0.8,0-1.5,0.2-2.2,0.5c0.6-0.6,1.5-0.9,2.4-0.7l0.8-0.7
	c-0.7,0-1.4,0.1-2.1,0.3c0.7-0.4,1.5-0.6,2.4-0.5l0.6-0.4c0,0-1,0-1.3,0s-0.3,0-0.3,0c0.6-0.2,1.2-0.3,1.9-0.2
	C442.2,285.3,442.6,285,443,284.6z"/>
<path class="st4" d="M107.9,255.1c0,0-7.9,1.2-5.8,6.4c0,0.6,0.4,1.1,1,1.2c0,0-0.1-0.4,0.7-0.4c0.3,0,0.6-0.1,0.9-0.1
	c0.4-0.1,0.7-0.3,0.9-0.6l0,0c0,0,2-1.4,2.1-5.1c0,0,0.5-0.9,0.4-1.1l-1.2,0.8c0.4,0.5,0.5,1.1,0.5,1.7c0,0-0.4-1.7-0.6-1.6
	c-0.1,0-0.6,0.5-0.6,0.5c0.6,0.8,0.9,1.8,0.8,2.8c0,0-0.2-2.1-1-2.6l-0.8,0.7c0.7,0.8,1.1,1.9,1,3c0,0-0.3-2.2-1.1-2.9l-0.7,0.8
	c0.6,0.8,1,1.7,0.9,2.8c0,0-0.6-2.5-1.1-2.5c-0.3,0.3-0.5,0.7-0.6,1.1c0,0,0.8,1.1,0.6,1.8c0,0-0.6-1.6-0.8-1.6
	c-0.3,0.6-0.4,1.3-0.4,2c-0.1-0.7,0-1.4,0.2-2.1c-0.4,0.2-0.8,0.5-1,0.8c0,0-0.1-0.8,1.1-1.1c0.2-0.4,0.3-0.7,0.6-1
	c-0.6,0.1-1.3,0.3-1.8,0.6c0.5-0.6,1.2-0.9,2-0.9l0.7-0.9c-0.8,0-1.5,0.2-2.2,0.5c0.6-0.6,1.5-0.9,2.4-0.7l0.8-0.7
	c-0.7,0-1.4,0.1-2.1,0.3c0.7-0.5,1.6-0.6,2.4-0.5l0.6-0.4c0,0-1,0-1.3,0s-0.3,0-0.3,0c0.6-0.2,1.2-0.3,1.9-0.2
	C107.1,255.8,107.5,255.5,107.9,255.1z"/>
<path class="st9" d="M107.9,255.1c0,0-7.9,1.2-5.8,6.4c0,0.6,0.4,1.1,1,1.2c0,0-0.1-0.4,0.7-0.4c0.3,0,0.6-0.1,0.9-0.1
	c0.4-0.1,0.7-0.3,0.9-0.6l0,0c0,0,2-1.4,2.1-5.1c0,0,0.5-0.9,0.4-1.1l-1.2,0.8c0.4,0.5,0.5,1.1,0.5,1.7c0,0-0.4-1.7-0.6-1.6
	c-0.1,0-0.6,0.5-0.6,0.5c0.6,0.8,0.9,1.8,0.8,2.8c0,0-0.2-2.1-1-2.6l-0.8,0.7c0.7,0.8,1.1,1.9,1,3c0,0-0.3-2.2-1.1-2.9l-0.7,0.8
	c0.6,0.8,1,1.7,0.9,2.8c0,0-0.6-2.5-1.1-2.5c-0.3,0.3-0.5,0.7-0.6,1.1c0,0,0.8,1.1,0.6,1.8c0,0-0.6-1.6-0.8-1.6
	c-0.3,0.6-0.4,1.3-0.4,2c-0.1-0.7,0-1.4,0.2-2.1c-0.4,0.2-0.8,0.5-1,0.8c0,0-0.1-0.8,1.1-1.1c0.2-0.4,0.3-0.7,0.6-1
	c-0.6,0.1-1.3,0.3-1.8,0.6c0.5-0.6,1.2-0.9,2-0.9l0.7-0.9c-0.8,0-1.5,0.2-2.2,0.5c0.6-0.6,1.5-0.9,2.4-0.7l0.8-0.7
	c-0.7,0-1.4,0.1-2.1,0.3c0.7-0.5,1.6-0.6,2.4-0.5l0.6-0.4c0,0-1,0-1.3,0s-0.3,0-0.3,0c0.6-0.2,1.2-0.3,1.9-0.2
	C107.1,255.8,107.5,255.5,107.9,255.1z"/>
<path class="st4" d="M410.4,295.2c0,0-7.9,1.2-5.8,6.4c0,0.6,0.4,1.1,1,1.2c0,0-0.1-0.4,0.7-0.4c0.3,0,0.6-0.1,0.9-0.1
	c0.4-0.1,0.7-0.3,0.9-0.6l0,0c0,0,2-1.4,2.1-5.1c0,0,0.5-0.9,0.4-1.1l-1.2,0.8c0.4,0.5,0.5,1.1,0.5,1.7c0,0-0.4-1.7-0.6-1.6
	c0,0-0.6,0.5-0.6,0.5c0.6,0.8,0.9,1.8,0.8,2.8c0,0-0.2-2.1-1-2.6l-0.8,0.7c0.7,0.8,1.1,1.9,1,3c0,0-0.3-2.2-1.1-2.9l-0.7,0.8
	c0.6,0.8,1,1.8,0.9,2.8c0,0-0.6-2.5-1.1-2.5c-0.3,0.3-0.5,0.7-0.6,1.1c0,0,0.8,1.1,0.6,1.8c0,0-0.6-1.6-0.8-1.6
	c-0.3,0.6-0.4,1.3-0.4,2c-0.1-0.7,0-1.4,0.2-2.1c-0.4,0.2-0.8,0.4-1,0.8c0,0,0-0.8,1.1-1.1c0.2-0.4,0.3-0.7,0.6-1
	c-0.6,0.1-1.3,0.3-1.8,0.6c0.5-0.6,1.2-1,2-0.9l0.7-0.8c-0.8,0-1.5,0.2-2.2,0.5c0.6-0.6,1.5-0.9,2.4-0.7l0.8-0.7
	c-0.7,0-1.4,0.1-2.1,0.3c0.7-0.5,1.5-0.6,2.4-0.5l0.6-0.4c0,0-1,0-1.3,0s-0.3,0-0.3,0c0.6-0.2,1.2-0.3,1.9-0.2
	C409.6,295.9,410,295.6,410.4,295.2z"/>
<path class="st9" d="M410.4,295.2c0,0-7.9,1.2-5.8,6.4c0,0.6,0.4,1.1,1,1.2c0,0-0.1-0.4,0.7-0.4c0.3,0,0.6-0.1,0.9-0.1
	c0.4-0.1,0.7-0.3,0.9-0.6l0,0c0,0,2-1.4,2.1-5.1c0,0,0.5-0.9,0.4-1.1l-1.2,0.8c0.4,0.5,0.5,1.1,0.5,1.7c0,0-0.4-1.7-0.6-1.6
	c0,0-0.6,0.5-0.6,0.5c0.6,0.8,0.9,1.8,0.8,2.8c0,0-0.2-2.1-1-2.6l-0.8,0.7c0.7,0.8,1.1,1.9,1,3c0,0-0.3-2.2-1.1-2.9l-0.7,0.8
	c0.6,0.8,1,1.8,0.9,2.8c0,0-0.6-2.5-1.1-2.5c-0.3,0.3-0.5,0.7-0.6,1.1c0,0,0.8,1.1,0.6,1.8c0,0-0.6-1.6-0.8-1.6
	c-0.3,0.6-0.4,1.3-0.4,2c-0.1-0.7,0-1.4,0.2-2.1c-0.4,0.2-0.8,0.4-1,0.8c0,0,0-0.8,1.1-1.1c0.2-0.4,0.3-0.7,0.6-1
	c-0.6,0.1-1.3,0.3-1.8,0.6c0.5-0.6,1.2-1,2-0.9l0.7-0.8c-0.8,0-1.5,0.2-2.2,0.5c0.6-0.6,1.5-0.9,2.4-0.7l0.8-0.7
	c-0.7,0-1.4,0.1-2.1,0.3c0.7-0.5,1.5-0.6,2.4-0.5l0.6-0.4c0,0-1,0-1.3,0s-0.3,0-0.3,0c0.6-0.2,1.2-0.3,1.9-0.2
	C409.6,295.9,410,295.6,410.4,295.2z"/>
<path class="st4" d="M417.7,264.7c0,0-4.8,6.3,0.3,8.6c0.4,0.4,1.1,0.5,1.6,0.2c0,0-0.3-0.2,0.2-0.8c0.2-0.2,0.4-0.4,0.5-0.7
	c0.2-0.3,0.3-0.7,0.2-1.1l0,0c0,0,0.5-2.4-2-5.1c0,0-0.3-1-0.5-1.1l-0.3,1.4c0.6,0.1,1.1,0.4,1.5,0.9c0,0-1.5-0.9-1.6-0.7
	c0,0-0.1,0.8-0.1,0.8c1,0.2,1.9,0.7,2.5,1.5c0,0-1.6-1.4-2.5-1.2l-0.1,1.1c1.1,0.1,2.1,0.7,2.8,1.5c0,0-1.7-1.4-2.8-1.3l0.1,1.1
	c1,0.1,1.9,0.6,2.6,1.3c0,0-2.1-1.4-2.5-1.1c0,0.4,0.1,0.8,0.3,1.2c0,0,1.4,0.2,1.7,0.9c0,0-1.5-0.8-1.6-0.6
	c0.3,0.6,0.6,1.2,1.1,1.7c-0.6-0.4-1-1-1.3-1.7c-0.2,0.4-0.2,0.8-0.1,1.3c0,0-0.6-0.5,0-1.6c-0.1-0.4-0.3-0.8-0.3-1.1
	c-0.4,0.5-0.7,1.1-0.9,1.7c-0.1-0.8,0.2-1.5,0.9-2l-0.1-1.1c-0.5,0.6-0.9,1.2-1.2,1.9c0,0-0.1-1,1.2-2.1l0.1-1.1
	c-0.5,0.5-1,1.1-1.4,1.7c0.2-0.8,0.7-1.5,1.4-2l0.1-0.7c0,0-0.7,0.7-0.9,0.9s-0.3,0.2-0.3,0.2c0.3-0.6,0.7-1.1,1.2-1.4
	C417.5,265.7,417.7,265.2,417.7,264.7z"/>
<path class="st9" d="M417.7,264.7c0,0-4.8,6.3,0.3,8.6c0.4,0.4,1.1,0.5,1.6,0.2c0,0-0.3-0.2,0.2-0.8c0.2-0.2,0.4-0.4,0.5-0.7
	c0.2-0.3,0.3-0.7,0.2-1.1l0,0c0,0,0.5-2.4-2-5.1c0,0-0.3-1-0.5-1.1l-0.3,1.4c0.6,0.1,1.1,0.4,1.5,0.9c0,0-1.5-0.9-1.6-0.7
	c0,0-0.1,0.8-0.1,0.8c1,0.2,1.9,0.7,2.5,1.5c0,0-1.6-1.4-2.5-1.2l-0.1,1.1c1.1,0.1,2.1,0.7,2.8,1.5c0,0-1.7-1.4-2.8-1.3l0.1,1.1
	c1,0.1,1.9,0.6,2.6,1.3c0,0-2.1-1.4-2.5-1.1c0,0.4,0.1,0.8,0.3,1.2c0,0,1.4,0.2,1.7,0.9c0,0-1.5-0.8-1.6-0.6
	c0.3,0.6,0.6,1.2,1.1,1.7c-0.6-0.4-1-1-1.3-1.7c-0.2,0.4-0.2,0.8-0.1,1.3c0,0-0.6-0.5,0-1.6c-0.1-0.4-0.3-0.8-0.3-1.1
	c-0.4,0.5-0.7,1.1-0.9,1.7c-0.1-0.8,0.2-1.5,0.9-2l-0.1-1.1c-0.5,0.6-0.9,1.2-1.2,1.9c0,0-0.1-1,1.2-2.1l0.1-1.1
	c-0.5,0.5-1,1.1-1.4,1.7c0.2-0.8,0.7-1.5,1.4-2l0.1-0.7c0,0-0.7,0.7-0.9,0.9s-0.3,0.2-0.3,0.2c0.3-0.6,0.7-1.1,1.2-1.4
	C417.5,265.7,417.7,265.2,417.7,264.7z"/>
<path class="st4" d="M451.1,371.6c0,0,21.1-0.9,23.3-42.1s-19.7-48.2-19.7-48.2s-7-3.9-10-4s-13.4,0.8-13.4,0.8l11.4-2.2
	c0,0-16-6.1-20.8-6.6l17.3,3.7c0,0,0.2-9.6-3.9-12.8c0,0,3.5-0.3,5.4,6.6c1.1,4,4,7.3,7.9,8.9c6.4,2.5,15.3,6.5,17.3,9.8
	c0,0,3.7,3.9,3.2-6.2s-3.3-18.9-4.3-19.1c0,0-7.6-8.1-18.3-8.6c0,0,6.3-2.5,16.8,5.4c0,0,0.9-4-3.1-8.7s-10.1-14.6-16.9-15.7
	c0,0,9.4-0.6,16.9,11.6c0,0,2.8,1.8,3-2.8c0.3-3.5,0.9-6.9,1.9-10.2c0,0,2.3,10.5-2.5,15.2c0,0,9.2,11.9,8.8,25.3
	c0,0,2.8,6.1,3.9-1.1c0,0,0.6-9.8,1.8-18.2c1-6.8-0.9-13.7-5.2-19.1c-2-2.5-3.4-5-2.7-6.3l10.6,12.7c0,0,9-20.7,15.4-25.1
	s7.3-5.4,7.3-5.4L492,221.5l13.2-4.6l-13.2,6.1c0,0-6.1,4.9-9.6,18.5s-3.8,22-3.8,22s18.8-14.9,22.3-14.4l-12.1,9.2
	c-6.7,5.1-10.8,12.7-11.4,21.1l0,0c0,0,23.5-6,29.1-7.1l10.7-11l-8.1,10.4l16.7-0.2l9.6-6.8c0,0-7.5,6.3-6.8,6.7s11.8,0.9,11.8,0.9
	s-28.1-0.2-31.2,1.9c-3.1,2-10,2.8-10,2.8l19.9,3l-23.7-1.7c0,0-17.9,3.2-18.9,8.9c0,0,3.7,9.5,6.1,13.3c2,3.1,6.1,13.3,6.9,22.2
	s2,22.6-1.1,31s-4.2,13.1-2.7,15.6s3,5.8-2,6.4s-27.1-0.3-27.1-0.3S449.8,376.6,451.1,371.6z"/>
<path class="st0" d="M462.9,367.2c2.2-1.1,4.7-1.4,7.2-0.9c3.6,0.6,7.3,0.7,11,0.3L462.9,367.2z"/>
<path class="st0" d="M476.1,318.6c0,0,1,15.9-0.8,19L476.1,318.6z"/>
<path class="st0" d="M479.9,337.6c0,0-1.3,14.9-2.1,17.8S479.9,337.6,479.9,337.6z"/>
<path class="st0" d="M481.1,301c0.9,0.3,4.8,8.3,4,10.6S481.1,301,481.1,301z"/>
<path class="st0" d="M471.2,292.8c0.4,0.2,2.2,4.8,1.9,6.1S471.2,292.8,471.2,292.8z"/>
<path class="st0" d="M488.1,319.4c-0.5,3.8-0.6,7.5-0.4,11.3c0.2,2.9,0.2,5.7-0.1,8.6L488.1,319.4z"/>
<path class="st0" d="M439.2,265.8c0.5,0.7,0.8,1.5,0.8,2.3c0,0.8-0.1,1.7,0,2.5s0.5,1.9,1.4,2L439.2,265.8z"/>
<path class="st0" d="M454.2,238.3c1.1,1.1,2.1,2.3,2.9,3.6c0.2,0.4,0.5,0.8,0.8,1.2c0.5,0.5,1,0.9,1.6,1.3c1.3,1,2.2,2.4,2.6,4
	L454.2,238.3z"/>
<path class="st0" d="M496.6,214.6c-0.3,0.5-0.6,1-1,1.4c-0.4,0.4-0.8,0.6-1.1,1c-0.3,0.3-0.5,0.7-0.7,1.1c-0.9,1.3-1.9,2.6-3,3.8
	L496.6,214.6z"/>
<path class="st0" d="M476.9,238.1c0.6,0.5,1,1.4,0.9,2.2c-0.1,0.8-0.1,1.7,0.2,2.4c0.1,0.4,0.4,0.6,0.5,1c0.2,0.6,0.3,1.3,0.3,1.9
	c0,0.7,0,1.5-0.1,2.2c0.1,0.9-0.2,1.8-0.7,2.5L476.9,238.1z"/>
<path class="st4" d="M482.8,261.4c-0.7,0.3-1.3,0.8-1.8,1.2c-0.6,0.5-0.9,1.2-1.1,1.9c0,0.3,0,0.6-0.1,0.9c-0.1,0.4-0.3,0.8-0.6,1.1
	c-0.5,0.6-1,1.2-1.5,1.7L482.8,261.4z"/>
<path class="st0" d="M477.5,282.6c0.5-0.4,1-0.7,1.5-1c0.5-0.3,1-0.5,1.5-0.7c0.8-0.2,1.7-0.2,2.5-0.3c0.8,0,1.7-0.4,2.3-0.9
	L477.5,282.6z"/>
<path class="st0" d="M510.5,272.3c-1,0-2,0.1-2.9,0.5c-0.4,0.2-0.8,0.6-1.3,0.8c-0.6,0.3-1.2,0.5-1.9,0.5L510.5,272.3z"/>
<path class="st0" d="M496.8,276.4c0.2-0.1,0.5-0.1,0.7,0.2c0.2,0.2,0.3,0.5,0.5,0.7c0.4,0.3,0.9,0.5,1.5,0.5L496.8,276.4z"/>
<path class="st0" d="M491.2,255.4l-1,0.5c-1,0.5-1.9,1.1-2.8,1.7L491.2,255.4z"/>
<path class="st0" d="M480.3,264.7c-0.6-0.1-1.2,0.5-1.3,1.1c0,0.6-0.1,1.3-0.2,1.9c-0.2,0.5-0.5,1-0.9,1.4L480.3,264.7z"/>
<path class="st0" d="M469.8,265.9c-0.6,1.7,0.6,3.5,0.3,5.3c-0.1,0.5-0.3,1-0.5,1.6c-0.3,1.4,0.2,2.9,1.2,4L469.8,265.9z"/>
<g class="st13">
	<path d="M451.1,371.6c0,0,21.1-0.9,23.3-42.1s-19.7-48.2-19.7-48.2s-7-3.9-10-4s-13.4,0.8-13.4,0.8l11.4-2.2c0,0-16-6.1-20.8-6.6
		l17.3,3.7c0,0,0.2-9.6-3.9-12.8c0,0,3.5-0.3,5.4,6.6c1.1,4,4,7.3,7.9,8.9c6.4,2.5,15.3,6.5,17.3,9.8c0,0,3.7,3.9,3.2-6.2
		s-3.3-18.9-4.3-19.1c0,0-7.6-8.1-18.3-8.6c0,0,6.3-2.5,16.8,5.4c0,0,0.9-4-3.1-8.7s-10.1-14.6-16.9-15.7c0,0,9.4-0.6,16.9,11.6
		c0,0,2.8,1.8,3-2.8c0.3-3.5,0.9-6.9,1.9-10.2c0,0,2.3,10.5-2.5,15.2c0,0,9.2,11.9,8.8,25.3c0,0,2.8,6.1,3.9-1.1
		c0,0,0.6-9.8,1.8-18.2c1-6.8-0.9-13.7-5.2-19.1c-2-2.5-3.4-5-2.7-6.3l10.6,12.7c0,0,9-20.7,15.4-25.1s7.3-5.4,7.3-5.4L492,221.5
		l13.2-4.6l-13.2,6.1c0,0-6.1,4.9-9.6,18.5s-3.8,22-3.8,22s18.8-14.9,22.3-14.4l-12.1,9.2c-6.7,5.1-10.8,12.7-11.4,21.1l0,0
		c0,0,23.5-6,29.1-7.1l10.7-11l-8.1,10.4l16.7-0.2l9.6-6.8c0,0-7.5,6.3-6.8,6.7s11.8,0.9,11.8,0.9s-28.1-0.2-31.2,1.9
		c-3.1,2-10,2.8-10,2.8l19.9,3l-23.7-1.7c0,0-17.9,3.2-18.9,8.9c0,0,3.7,9.5,6.1,13.3c2,3.1,6.1,13.3,6.9,22.2s2,22.6-1.1,31
		s-4.2,13.1-2.7,15.6s3,5.8-2,6.4s-27.1-0.3-27.1-0.3S449.8,376.6,451.1,371.6z"/>
	<path class="st5" d="M462.9,367.2c2.2-1.1,4.7-1.4,7.2-0.9c3.6,0.6,7.3,0.7,11,0.3L462.9,367.2z"/>
	<path class="st5" d="M476.1,318.6c0,0,1,15.9-0.8,19L476.1,318.6z"/>
	<path class="st5" d="M479.9,337.6c0,0-1.3,14.9-2.1,17.8S479.9,337.6,479.9,337.6z"/>
	<path class="st5" d="M481.1,301c0.9,0.3,4.8,8.3,4,10.6S481.1,301,481.1,301z"/>
	<path class="st5" d="M471.2,292.8c0.4,0.2,2.2,4.8,1.9,6.1S471.2,292.8,471.2,292.8z"/>
	<path class="st5" d="M488.1,319.4c-0.5,3.8-0.6,7.5-0.4,11.3c0.2,2.9,0.2,5.7-0.1,8.6L488.1,319.4z"/>
	<path class="st5" d="M439.2,265.8c0.5,0.7,0.8,1.5,0.8,2.3c0,0.8-0.1,1.7,0,2.5s0.5,1.9,1.4,2L439.2,265.8z"/>
	<path class="st5" d="M454.2,238.3c1.1,1.1,2.1,2.3,2.9,3.6c0.2,0.4,0.5,0.8,0.8,1.2c0.5,0.5,1,0.9,1.6,1.3c1.3,1,2.2,2.4,2.6,4
		L454.2,238.3z"/>
	<path class="st5" d="M496.6,214.6c-0.3,0.5-0.6,1-1,1.4c-0.4,0.4-0.8,0.6-1.1,1c-0.3,0.3-0.5,0.7-0.7,1.1c-0.9,1.3-1.9,2.6-3,3.8
		L496.6,214.6z"/>
	<path class="st5" d="M476.9,238.1c0.6,0.5,1,1.4,0.9,2.2c-0.1,0.8-0.1,1.7,0.2,2.4c0.1,0.4,0.4,0.6,0.5,1c0.2,0.6,0.3,1.3,0.3,1.9
		c0,0.7,0,1.5-0.1,2.2c0.1,0.9-0.2,1.8-0.7,2.5L476.9,238.1z"/>
	<path d="M482.8,261.4c-0.7,0.3-1.3,0.8-1.8,1.2c-0.6,0.5-0.9,1.2-1.1,1.9c0,0.3,0,0.6-0.1,0.9c-0.1,0.4-0.3,0.8-0.6,1.1
		c-0.5,0.6-1,1.2-1.5,1.7L482.8,261.4z"/>
	<path class="st5" d="M477.5,282.6c0.5-0.4,1-0.7,1.5-1c0.5-0.3,1-0.5,1.5-0.7c0.8-0.2,1.7-0.2,2.5-0.3c0.8,0,1.7-0.4,2.3-0.9
		L477.5,282.6z"/>
	<path class="st5" d="M510.5,272.3c-1,0-2,0.1-2.9,0.5c-0.4,0.2-0.8,0.6-1.3,0.8c-0.6,0.3-1.2,0.5-1.9,0.5L510.5,272.3z"/>
	<path class="st5" d="M496.8,276.4c0.2-0.1,0.5-0.1,0.7,0.2c0.2,0.2,0.3,0.5,0.5,0.7c0.4,0.3,0.9,0.5,1.5,0.5L496.8,276.4z"/>
	<path class="st5" d="M491.2,255.4l-1,0.5c-1,0.5-1.9,1.1-2.8,1.7L491.2,255.4z"/>
	<path class="st5" d="M480.3,264.7c-0.6-0.1-1.2,0.5-1.3,1.1c0,0.6-0.1,1.3-0.2,1.9c-0.2,0.5-0.5,1-0.9,1.4L480.3,264.7z"/>
	<path class="st5" d="M469.8,265.9c-0.6,1.7,0.6,3.5,0.3,5.3c-0.1,0.5-0.3,1-0.5,1.6c-0.3,1.4,0.2,2.9,1.2,4L469.8,265.9z"/>
</g>
<path class="st4" d="M107.9,329.6c0,0-21.1-0.9-23.3-42.1s19.7-48.2,19.7-48.2s7-3.9,10.1-4.1s13.4,0.8,13.4,0.8l-11.4-2.2
	c0,0,16-6.1,20.8-6.6l-17.3,3.6c0,0-0.2-9.6,3.9-12.8c0,0-3.5-0.3-5.4,6.6c-1.1,4-4,7.3-7.9,8.9c-6.4,2.5-15.3,6.4-17.3,9.8
	c0,0-3.7,3.9-3.2-6.2s3.2-18.8,4.2-19.1c0,0,7.6-8.1,18.4-8.6c0,0-6.2-2.5-16.8,5.4c0,0-0.9-4,3.1-8.7s10.1-14.6,16.9-15.7
	c0,0-9.4-0.6-16.9,11.6c0,0-2.8,1.8-3-2.8c-0.3-3.5-0.9-6.9-1.9-10.2c0,0-2.3,10.5,2.5,15.2c0,0-9.2,11.9-8.8,25.3
	c0,0-2.8,6.1-3.9-1.1c0,0-0.6-9.8-1.8-18.2c-1-6.8,0.9-13.7,5.2-19.1c2-2.5,3.4-5,2.7-6.3l-10.6,12.7c0,0-8.9-20.7-15.4-25.2
	s-7.3-5.4-7.3-5.4L67,179.4l-13.2-4.6l13.2,6.1c0,0,6.1,5,9.6,18.5s3.8,22,3.8,22S61.7,206.5,58.1,207l12.1,9.2
	c6.7,5.1,10.8,12.7,11.4,21.1l0,0c0,0-23.5-6-29.1-7.1l-10.7-11l8.1,10.4l-16.7-0.2l-9.6-6.8c0,0,7.6,6.3,6.8,6.7
	s-11.8,0.9-11.8,0.9s28.1-0.2,31.2,1.9s10,2.8,10,2.8l-19.9,3l23.7-1.7c0,0,17.9,3.2,18.9,8.8c0,0-3.6,9.5-6.1,13.3
	c-2,3.1-6.1,13.3-6.9,22.2s-1.9,22.6,1.1,31s4.2,13.1,2.7,15.7s-3,5.8,2,6.4s27.1-0.3,27.1-0.3S109.2,334.5,107.9,329.6z"/>
<path class="st0" d="M96.1,325.1c-2.2-1.1-4.7-1.4-7.1-0.9c-3.6,0.6-7.3,0.7-11,0.3L96.1,325.1z"/>
<path class="st0" d="M82.9,276.5c0,0-1,15.9,0.8,19L82.9,276.5z"/>
<path class="st0" d="M79.2,295.5c0,0,1.3,14.9,2.2,17.8S79.2,295.5,79.2,295.5z"/>
<path class="st0" d="M78,259c-0.9,0.3-4.8,8.3-4.1,10.6S78,259,78,259z"/>
<path class="st0" d="M87.9,250.7c-0.4,0.2-2.2,4.8-1.9,6.1S87.9,250.7,87.9,250.7z"/>
<path class="st0" d="M70.9,277.4c0.5,3.8,0.6,7.5,0.4,11.3c-0.2,2.9-0.2,5.7,0.1,8.6L70.9,277.4z"/>
<path class="st0" d="M119.9,223.7c-0.5,0.7-0.8,1.5-0.8,2.3c0,0.8,0.1,1.7,0,2.5s-0.5,1.9-1.4,2L119.9,223.7z"/>
<path class="st0" d="M104.9,196.3c-1.1,1.1-2.1,2.3-2.9,3.6c-0.2,0.4-0.5,0.8-0.8,1.2c-0.5,0.5-1,0.9-1.6,1.3c-1.3,1-2.2,2.4-2.6,4
	L104.9,196.3z"/>
<path class="st0" d="M62.5,172.5c0.3,0.5,0.6,1,1,1.4c0.4,0.4,0.8,0.6,1.1,1c0.3,0.3,0.5,0.7,0.7,1.1c0.9,1.3,1.9,2.6,3,3.8
	L62.5,172.5z"/>
<path class="st0" d="M82.1,196c-0.6,0.5-1,1.4-0.9,2.2c0.1,0.8,0.1,1.7-0.1,2.4c-0.1,0.4-0.4,0.6-0.5,1c-0.2,0.6-0.3,1.3-0.2,1.9
	c0,0.7,0,1.5,0.1,2.2c-0.1,0.9,0.2,1.8,0.7,2.5L82.1,196z"/>
<path class="st4" d="M76.3,219.3c0.7,0.3,1.3,0.8,1.8,1.3c0.6,0.5,0.9,1.2,1.1,1.9c0,0.3,0,0.6,0.1,0.9c0.1,0.4,0.3,0.8,0.6,1.1
	c0.5,0.6,1,1.2,1.5,1.7L76.3,219.3z"/>
<path class="st0" d="M81.6,240.5c-0.5-0.4-1-0.7-1.5-1c-0.5-0.3-1-0.5-1.5-0.7c-0.8-0.2-1.7-0.2-2.5-0.3c-0.8,0-1.7-0.4-2.3-0.9
	L81.6,240.5z"/>
<path class="st0" d="M48.5,230.2c1,0,2,0.1,2.9,0.5c0.4,0.2,0.8,0.6,1.3,0.8c0.6,0.3,1.2,0.5,1.9,0.5L48.5,230.2z"/>
<path class="st0" d="M62.2,234.3c-0.2-0.1-0.5-0.1-0.7,0.2c-0.2,0.2-0.3,0.5-0.5,0.7c-0.4,0.3-0.9,0.5-1.5,0.5L62.2,234.3z"/>
<path class="st0" d="M67.9,213.3l1,0.5c1,0.5,1.9,1.1,2.8,1.7L67.9,213.3z"/>
<path class="st0" d="M78.7,222.6c0.6-0.1,1.2,0.5,1.3,1.1c0,0.6,0.1,1.3,0.2,1.9c0.2,0.5,0.5,1,0.9,1.4L78.7,222.6z"/>
<path class="st0" d="M89.3,223.8c0.6,1.7-0.6,3.5-0.3,5.3c0.1,0.5,0.4,1,0.5,1.6c0.3,1.4-0.2,2.9-1.1,4L89.3,223.8z"/>
<g class="st13">
	<path d="M107.9,329.6c0,0-21.1-0.9-23.3-42.1s19.7-48.2,19.7-48.2s7-3.9,10.1-4.1s13.4,0.8,13.4,0.8l-11.4-2.2c0,0,16-6.1,20.8-6.6
		l-17.3,3.6c0,0-0.2-9.6,3.9-12.8c0,0-3.5-0.3-5.4,6.6c-1.1,4-4,7.3-7.9,8.9c-6.4,2.5-15.3,6.4-17.3,9.8c0,0-3.7,3.9-3.2-6.2
		s3.2-18.8,4.2-19.1c0,0,7.6-8.1,18.4-8.6c0,0-6.2-2.5-16.8,5.4c0,0-0.9-4,3.1-8.7s10.1-14.6,16.9-15.7c0,0-9.4-0.6-16.9,11.6
		c0,0-2.8,1.8-3-2.8c-0.3-3.5-0.9-6.9-1.9-10.2c0,0-2.3,10.5,2.5,15.2c0,0-9.2,11.9-8.8,25.3c0,0-2.8,6.1-3.9-1.1
		c0,0-0.6-9.8-1.8-18.2c-1-6.8,0.9-13.7,5.2-19.1c2-2.5,3.4-5,2.7-6.3l-10.6,12.7c0,0-8.9-20.7-15.4-25.2s-7.3-5.4-7.3-5.4L67,179.4
		l-13.2-4.6l13.2,6.1c0,0,6.1,5,9.6,18.5s3.8,22,3.8,22S61.7,206.5,58.1,207l12.1,9.2c6.7,5.1,10.8,12.7,11.4,21.1l0,0
		c0,0-23.5-6-29.1-7.1l-10.7-11l8.1,10.4l-16.7-0.2l-9.6-6.8c0,0,7.6,6.3,6.8,6.7s-11.8,0.9-11.8,0.9s28.1-0.2,31.2,1.9
		s10,2.8,10,2.8l-19.9,3l23.7-1.7c0,0,17.9,3.2,18.9,8.8c0,0-3.6,9.5-6.1,13.3c-2,3.1-6.1,13.3-6.9,22.2s-1.9,22.6,1.1,31
		s4.2,13.1,2.7,15.7s-3,5.8,2,6.4s27.1-0.3,27.1-0.3S109.2,334.5,107.9,329.6z"/>
	<path class="st5" d="M96.1,325.1c-2.2-1.1-4.7-1.4-7.1-0.9c-3.6,0.6-7.3,0.7-11,0.3L96.1,325.1z"/>
	<path class="st5" d="M82.9,276.5c0,0-1,15.9,0.8,19L82.9,276.5z"/>
	<path class="st5" d="M79.2,295.5c0,0,1.3,14.9,2.2,17.8S79.2,295.5,79.2,295.5z"/>
	<path class="st5" d="M78,259c-0.9,0.3-4.8,8.3-4.1,10.6S78,259,78,259z"/>
	<path class="st5" d="M87.9,250.7c-0.4,0.2-2.2,4.8-1.9,6.1S87.9,250.7,87.9,250.7z"/>
	<path class="st5" d="M70.9,277.4c0.5,3.8,0.6,7.5,0.4,11.3c-0.2,2.9-0.2,5.7,0.1,8.6L70.9,277.4z"/>
	<path class="st5" d="M119.9,223.7c-0.5,0.7-0.8,1.5-0.8,2.3c0,0.8,0.1,1.7,0,2.5s-0.5,1.9-1.4,2L119.9,223.7z"/>
	<path class="st5" d="M104.9,196.3c-1.1,1.1-2.1,2.3-2.9,3.6c-0.2,0.4-0.5,0.8-0.8,1.2c-0.5,0.5-1,0.9-1.6,1.3c-1.3,1-2.2,2.4-2.6,4
		L104.9,196.3z"/>
	<path class="st5" d="M62.5,172.5c0.3,0.5,0.6,1,1,1.4c0.4,0.4,0.8,0.6,1.1,1c0.3,0.3,0.5,0.7,0.7,1.1c0.9,1.3,1.9,2.6,3,3.8
		L62.5,172.5z"/>
	<path class="st5" d="M82.1,196c-0.6,0.5-1,1.4-0.9,2.2c0.1,0.8,0.1,1.7-0.1,2.4c-0.1,0.4-0.4,0.6-0.5,1c-0.2,0.6-0.3,1.3-0.2,1.9
		c0,0.7,0,1.5,0.1,2.2c-0.1,0.9,0.2,1.8,0.7,2.5L82.1,196z"/>
	<path d="M76.3,219.3c0.7,0.3,1.3,0.8,1.8,1.3c0.6,0.5,0.9,1.2,1.1,1.9c0,0.3,0,0.6,0.1,0.9c0.1,0.4,0.3,0.8,0.6,1.1
		c0.5,0.6,1,1.2,1.5,1.7L76.3,219.3z"/>
	<path class="st5" d="M81.6,240.5c-0.5-0.4-1-0.7-1.5-1c-0.5-0.3-1-0.5-1.5-0.7c-0.8-0.2-1.7-0.2-2.5-0.3c-0.8,0-1.7-0.4-2.3-0.9
		L81.6,240.5z"/>
	<path class="st5" d="M48.5,230.2c1,0,2,0.1,2.9,0.5c0.4,0.2,0.8,0.6,1.3,0.8c0.6,0.3,1.2,0.5,1.9,0.5L48.5,230.2z"/>
	<path class="st5" d="M62.2,234.3c-0.2-0.1-0.5-0.1-0.7,0.2c-0.2,0.2-0.3,0.5-0.5,0.7c-0.4,0.3-0.9,0.5-1.5,0.5L62.2,234.3z"/>
	<path class="st5" d="M67.9,213.3l1,0.5c1,0.5,1.9,1.1,2.8,1.7L67.9,213.3z"/>
	<path class="st5" d="M78.7,222.6c0.6-0.1,1.2,0.5,1.3,1.1c0,0.6,0.1,1.3,0.2,1.9c0.2,0.5,0.5,1,0.9,1.4L78.7,222.6z"/>
	<path class="st5" d="M89.3,223.8c0.6,1.7-0.6,3.5-0.3,5.3c0.1,0.5,0.4,1,0.5,1.6c0.3,1.4-0.2,2.9-1.1,4L89.3,223.8z"/>
</g>
<path class="st4" d="M190.3,513l-0.3,0.4c-0.3,0.5-1,1.5-2,2.8l-3.7-3.1l-0.6-0.5C186,512.1,188.2,512.3,190.3,513z"/>
<path class="st4" d="M200.5,463.4c0,0-11.5,23.5-31.2,36.9l-9.4-7.9C170.8,479.6,188.6,461.5,200.5,463.4z"/>
<path class="st4" d="M165.8,450.8c0,0,28.4-33.7,44.1-34c0,0-22,44.5-45.1,44.7L165.8,450.8z"/>
<path class="st4" d="M174.8,415.3l26.5-69.3c0,0,2.9,62-29.8,82.1L174.8,415.3z"/>
<path class="st4" d="M184.5,339.3c0,0,3.3-57.4,0.2-62c0,0,21.3,47.2,0.2,87.4L184.5,339.3z"/>
<path class="st4" d="M149.2,483.3l-17.1-14.4c-1.3-8.8-1.6-17.8-0.8-26.6C141.2,446.6,146.5,467.2,149.2,483.3z"/>
<path class="st4" d="M168.2,455.1c0,0-1.1-44-13.3-54.1c0,0-10.7,48.5,7.3,63.1L168.2,455.1z"/>
<path class="st4" d="M173.4,413.2l-13.3-73c0,0-14.3,60.4,14.2,86.2L173.4,413.2z"/>
<path class="st4" d="M173.9,340.3c0,0-30.8-48.6-30.4-54.1c0,0,4.4,51.6,42.3,76.4L173.9,340.3z"/>
<path class="st4" d="M177,325.6c0,0-29.6-69.3-42.5-74.7c0,0,40.5,19.4,44.7,72.6L177,325.6z"/>
<path class="st12" d="M164.7,462l-1.9-0.5c21.8-77.6,26.5-126.9,13.3-138.9l1.3-1.5C191.5,333.8,187.1,382.5,164.7,462z"/>
<path class="st12" d="M166.3,456.3c-0.3,1-0.6,2-0.8,2.9l0,0c-0.2,0.7-0.4,1.4-0.6,2.2c-0.1,0.2-0.1,0.4-0.2,0.6
	c-2.5,8.7-5.2,17.9-8.1,27.5l-1.7-1.5l0,0c2.6-8.4,5-16.4,7.2-24.1l0,0c0.5-1.6,0.9-3.3,1.4-4.9c0.1-0.4,0.2-0.7,0.3-1.1
	c0-0.1,0.1-0.3,0.1-0.4l1.4-0.7L166.3,456.3z"/>
<path class="st4" d="M227,534.4c0,0-21.2-38.6-36.6-42c0,0,12.8,48,35.4,52.7L227,534.4z"/>
<path class="st4" d="M225.2,497.8l-12.4-73.2c0,0-15,60.2,13.1,86.4L225.2,497.8z"/>
<path class="st4" d="M230.7,421.4c0,0,8-57,12-60.9c0,0-30.1,42.1-17.4,85.6L230.7,421.4z"/>
<path class="st4" d="M264,576c0,0,0,1.4-0.2,3.9l-2.8-2.3l-0.3-0.2c0.1,0,0.2-0.1,0.2-0.1C261.9,576.6,262.9,576.2,264,576z"/>
<path class="st4" d="M262.6,532.9c0,0-1.7,19.1-10.7,36.9l-11.1-9.4C246.4,547.5,254,534.7,262.6,532.9z"/>
<path class="st4" d="M223.8,538.1c0,0,9.8-42.9,23.6-50.4c0,0,0.9,49.7-19.5,60.4L223.8,538.1z"/>
<path class="st4" d="M227,496l27.4-69c0,0,2.1,62-30.8,81.8L227,496z"/>
<path class="st4" d="M240.8,424.4c0,0,39.8-41.6,40.4-47.1c0,0-14.4,49.7-56.5,66.6L240.8,424.4z"/>
<path class="st4" d="M240.6,409.5c0,0,42.7-62.1,56.3-64.9c0,0-43.5,11-58.1,62.4L240.6,409.5z"/>
<path class="st12" d="M225.9,545.7l2-0.2c-6.2-80.4-1.1-129.7,14.2-138.8l-1-1.7C224.9,414.6,219.6,463.3,225.9,545.7z"/>
<path class="st12" d="M228.1,548c0,0.6,0.1,1.3,0.2,1.9l-2.2-1.8c-0.1-0.8-0.1-1.7-0.2-2.5c0-0.2,0-0.4,0-0.6l0,0
	c-0.1-0.8-0.1-1.5-0.2-2.2l0,0c-0.1-0.8-0.1-1.6-0.2-2.4c0-0.2,0-0.5,0-0.7l0,0l0.9,0.8l1.2,1c0,0.1,0,0.2,0,0.2c0,0.1,0,0.1,0,0.2
	c0.1,0.8,0.1,1.7,0.2,2.5c0,0.2,0,0.3,0,0.5C227.9,546,228,547,228.1,548z"/>
</svg>
