<?xml version="1.0" encoding="utf-8"?>
<!-- Generator: Adobe Illustrator 23.0.2, SVG Export Plug-In . SVG Version: 6.00 Build 0)  -->
<svg version="1.1" id="Layer_1" xmlns="http://www.w3.org/2000/svg" xmlns:xlink="http://www.w3.org/1999/xlink" x="0px" y="0px"
	 viewBox="0 0 1100 498.5" style="enable-background:new 0 0 1100 498.5;" xml:space="preserve">
<style type="text/css">
	.st0{opacity:0.1;fill:#6C63FF;enable-background:new    ;}
	.st1{fill:#6C63FF;}
	.st2{fill:url(#SVGID_1_);}
	.st3{fill:#4A4A76;}
	.st4{opacity:0.1;}
	.st5{opacity:0.1;enable-background:new    ;}
	.st6{fill:#FFB9B9;}
	.st7{fill:#F57979;}
	.st8{fill:url(#SVGID_2_);}
	.st9{opacity:0.5;enable-background:new    ;}
	.st10{fill:#FFFFFF;}
	.st11{opacity:0.5;fill:#FFFFFF;enable-background:new    ;}
	.st12{fill:#444053;}
	.st13{opacity:0.5;}
</style>
<title>feeling blue</title>
<path class="st0" d="M19.7,307.2C37,360.9,73.8,407.4,131.8,429.9c120.7,46.8,392.9,22.7,596.1-5C833,410.6,925.4,371,992.5,315.4
	L19.7,307.2z"/>
<path class="st0" d="M1085,68.6H973.5c-5.3,0-9.6-2.6-9.6-6c0-3.2,4.3-6,9.6-6h19.3c-5.3,0-9.6-2.6-9.6-6c0-3.3,4.3-6,9.6-6H979
	c-5.3,0-9.6-2.6-9.6-6s4.3-6,9.6-6h58.2c-12.9-3.7-28-6.3-45.4-7.8c-158.7-12.6-215.3-4.3-235.3,4.3c-24.9,10.8-52.6,18.3-81.5,22.1
	c-97.9,12.5-280.9,27.5-446.8-4.8C145.7,30.6,84.4,57.7,47.7,103h1056.7c-1.4-13.1-5.5-25.3-13.1-36
	C1089.5,68.1,1087.3,68.6,1085,68.6z"/>
<path class="st0" d="M10.2,203.5c-4.3,27.2-2.8,54.6,4.3,81.5l978.7,22.5c26.9-19.5,49.8-41.4,68-65.3L10.2,203.5z M397.3,261.7H378
	c5.3,0,9.6,2.7,9.6,6.1s-4.3,6.1-9.6,6.1H266.5c-5.3,0-9.6-2.7-9.6-6.1s4.3-6.1,9.6-6.1h19.3c-5.3,0-9.6-2.7-9.6-6.1
	s4.3-6.1,9.6-6.1H272c-5.3,0-9.6-2.7-9.6-6.1c0-3.4,4.3-6.1,9.6-6.1h111.5c5.3,0,9.6,2.7,9.6,6.1c0,3.3-4.3,6.1-9.6,6.1h13.8
	c5.3,0,9.6,2.7,9.6,6.1C406.9,259,402.6,261.7,397.3,261.7z"/>
<path class="st0" d="M1104.4,115.9L35.9,132.3c-13,21.2-21.6,45.2-25.6,70.1h1075.4c7-14.6,12.2-29.5,15.5-44.6
	C1104.4,143.1,1105.7,129,1104.4,115.9z M227.3,170H208c5.3,0,9.6,2.7,9.6,6.1c0,3.3-4.3,6.1-9.6,6.1H96.5c-5.3,0-9.6-2.7-9.6-6.1
	c0-3.4,4.3-6.1,9.6-6.1h19.3c-5.3,0-9.6-2.7-9.6-6.1c0-3.3,4.3-6.1,9.6-6.1H102c-5.3,0-9.6-2.7-9.6-6.1c0-3.4,4.3-6.1,9.6-6.1h111.5
	c5.3,0,9.6,2.7,9.6,6.1c0,3.4-4.3,6.1-9.6,6.1h13.8c5.3,0,9.6,2.7,9.6,6.1C236.9,167.2,232.6,170,227.3,170z"/>
<ellipse class="st0" cx="46.8" cy="581.3" rx="26.9" ry="4.5"/>
<ellipse class="st0" cx="203.1" cy="587" rx="26.9" ry="4.5"/>
<ellipse class="st1" cx="943" cy="380.6" rx="40.2" ry="6.8"/>
<path class="st1" d="M959.6,369.5c1.8-1.5,3.2-3.5,3.8-5.8c0.5-2.3-0.5-5-2.7-5.9c-2.5-0.9-5.1,0.8-7.1,2.5s-4.3,3.7-6.9,3.3
	c2.7-2.5,4-6.2,3.2-9.8c-0.1-0.7-0.4-1.4-0.9-2c-1.4-1.5-3.8-0.8-5.5,0.3c-5.2,3.7-6.7,10.7-6.7,17.1c-0.5-2.3-0.1-4.7-0.1-7
	s-0.7-5-2.6-6.2c-1.2-0.7-2.6-1-4-0.9c-2.3-0.1-4.9,0.1-6.5,1.8c-2,2.1-1.5,5.7,0.3,8s4.3,3.8,6.8,5.4c1.9,1.2,3.6,2.7,4.8,4.6
	c0.1,0.3,0.3,0.5,0.4,0.8h14.7C953.8,374.1,956.9,372,959.6,369.5z"/>
<linearGradient id="SVGID_1_" gradientUnits="userSpaceOnUse" x1="803.5897" y1="501.6077" x2="803.5897" y2="676.95" gradientTransform="matrix(1 0 0 -1 -64.27 938.65)">
	<stop  offset="0" style="stop-color:#808080;stop-opacity:0.25"/>
	<stop  offset="0.54" style="stop-color:#808080;stop-opacity:0.12"/>
	<stop  offset="1" style="stop-color:#808080;stop-opacity:0.1"/>
</linearGradient>
<path class="st2" d="M784.4,382c0,0-14.4,4.8-15,6c-0.2,0.5-2.9,1.8-5.7,3c0.4-1.6,0-3.6-0.4-4.2c-0.1-0.2-0.3-0.4-0.5-0.7
	c1.2-2.7,2.4-5.6,3.9-8.1c2.6-4.2,2.4-9.4,2.4-9.4l1.6-5.9c0,0,2.3-11.1,2.3-12v-11.6c0,0,0.2-1.7,0.4-3.7c2.1-1.8,3.7-4.2,4.6-6.9
	l-1.7-2c0.5-0.6,0.9-1.2,1.1-2c0.3-0.8,0.4-1.7,0.4-2.6c0-0.5,0-1-0.1-1.5l0,0c-0.3-1.4-0.7-2.7-1.2-3.9c-1.1-2.5-2.4-5-2.5-7.8
	c-0.3-7.5,8.4-12.8,8.8-20.2c0-0.2,0-0.3,0-0.5c0-0.1,0-0.1,0-0.2s0-0.2,0-0.3c0-0.4,0-0.8-0.1-1.2l0,0c-0.5-3.6-2.9-6.9-5.8-9.3
	c-3.4-2.8-7.5-4.8-11.1-7.3c-3.7-2.5-6.9-5.6-11.1-7c-2.6-0.9-5.4-1-8.1-1c-5.5,0.1-10.4,1.5-15.8,2.3c-3.7,0.6-8.6-1.2-11.6,1.9
	c-2.4,2.5-0.8,7.3-3.2,9.8c-1.1,1.2-2.9,1.5-4.3,2.2c-2.5,1.4-3.8,4.1-4.2,7.1c0,0,0,0,0-0.1c0,0.2,0,0.3,0,0.5l0,0
	c0,0.2,0,0.4,0,0.6s0,0.3,0,0.5v0.2c0,0.6,0.1,1.2,0.1,1.8c0.6,4,2.6,7.6,4,11.3c1.4,3.8,2.2,8.1,0.5,11.7c-1.1,2.4-3.2,4.3-4.4,6.7
	c-0.5,1-0.8,2.1-0.9,3.2c0,0,0,0,0-0.1c0,0.1,0,0.2,0,0.4l0,0c-1,1.1-1.8,2.3-2.5,3.6c-1.3,2.9-3,3.6-3.4,3.7h-0.2
	c0,0-0.7,4.7,3.1,7.7c0.1,1.8,0.3,3.4,0.8,4.3c0.4,0.7,0.5,2.6,0.6,4.9c0,0.1,0,0.2,0,0.3l-0.4-0.3c0,0-4.9-12.4-5.2-14.7
	s-2.4-5.8-2.4-5.8s-7.2-9.6-16.5-9.9s0.9,4.3,0.9,4.3s-3.7,9.5,7.5,13c0,0,2.9,3.5,3.3,6.3c0.4,2.8,3.8,12.7,3.8,12.7
	s4,15.5,12.5,21.1c0,0,2.7,0.1,4.6-1.5c1.1-0.6,2-1.4,2.7-2.4c-0.2,1-0.6,1.9-1.1,2.8c-2.9,4.3-2.9,6.1-2.9,6.1s1.3,2.8-1,3.5
	s-1.4,3.2-1.4,3.2s-2.4,1.8-2.8,3.4c-5.2-3.4-12.2-8.2-13.9-10c-2.7-3-21.1,1.8-14.3,15.6c0,0,4.3,8.8,10.9,13.5
	c0.7,0.5,1.5,1.1,2.1,1.7c1.1,1.5,2.5,2.9,4.1,3.9c1,1.1,1.9,2.1,2.5,2.9c0,0-0.1,0-0.1,0.1l-0.2,0.1l-0.1,0.1
	c-0.1,0.1-0.1,0.1-0.2,0.2l-0.1,0.1c-0.1,0.1-0.1,0.1-0.2,0.2c0,0,0,0.1-0.1,0.1c-0.1,0.1-0.2,0.2-0.3,0.3c-2.7,4-4.1,13.7-4.1,13.7
	s0.5,4,6.7,4.3c0.6,0,1.2-0.1,1.7-0.2c0.2,0,0.4-0.2,0.5-0.4c0.2-0.6,8.4-2.9,14.3-2.2c5.9,0.7,8.8-0.1,8.8-0.1s0.4-0.9,0.9-2
	l9.3-2.5l0.6-0.2c4.4,1.5,8.5,2.9,8.5,2.9s5.3,3.2,6.5,3.6c0.8,0.2,3.3,0.2,4.9,0.1c0.1,0.6,0.2,1,0.2,1s4.2,0.3,6.2,0.6
	s14.8-1.1,19.6,1.3c0,0,0.2,0,0.6,0.1c2.7,0.4,13.1,1.4,12.7-7.9c-0.5-10.7-9.3-11.9-9.3-11.9c-2.3-0.2-4.5-0.1-6.8,0.3
	c4.4-2.7,10.7-6.8,15.9-10.6c5.8-4.3,6.8-7.3,6.8-8.9s0-3.1,0.2-4.7C804.3,374.5,784.4,382,784.4,382z M757.4,372.8
	c0.4-0.6,0.6-1.2,0.7-1.9c-0.3,1.5-0.7,3-1.3,4.5C756.7,374.1,756.8,373.4,757.4,372.8L757.4,372.8z M758.3,368.5
	c0,0,0.1-1.2,0.3-2.7c-0.1,1.2-0.3,2.3-0.4,3.2C758.3,368.7,758.3,368.5,758.3,368.5L758.3,368.5z"/>
<path class="st3" d="M719.2,267.9c-2.4,2.5-0.8,7.2-3.2,9.7c-1.1,1.2-2.9,1.5-4.3,2.2c-3.5,1.9-4.7,6.5-4.1,10.4
	c0.6,3.9,2.6,7.5,4,11.2s2.2,8,0.5,11.6c-1.1,2.4-3.2,4.2-4.4,6.6c-1.7,3.6-0.9,7.9,0.5,11.6c1.5,3.9,3.9,7.9,7.8,9.4
	c2.8,1.1,5.9,0.8,8.8,1.3c4.3,0.8,8.3,3.5,12.7,3.4c4.3-0.1,8.1-2.7,11.3-5.6s6.4-5.9,10.5-7.3c3.2-1.1,6.7-0.9,10-1.4
	c3.3-0.6,6.9-2.2,8.1-5.4c0.9-2.5,0.1-5.4-0.9-7.9c-1.1-2.5-2.4-5-2.5-7.7c-0.3-7.4,8.4-12.7,8.8-20.1c0.3-4.4-2.5-8.5-5.9-11.4
	c-3.4-2.8-7.5-4.7-11.1-7.2c-3.7-2.5-6.9-5.6-11.1-7c-2.6-0.8-5.4-1.1-8.1-1c-5.5,0.1-10.4,1.4-15.8,2.3
	C727.1,266.6,722.2,264.8,719.2,267.9z"/>
<g class="st4">
	<path d="M711.5,301.3c0.7,1.8,1.2,3.7,1.4,5.6c0.3-2.8-0.4-5.8-1.4-8.5c-1.4-3.7-3.4-7.3-4-11.2c0-0.2,0-0.3-0.1-0.5
		c-0.1,1.1-0.1,2.3,0.1,3.4C708.1,294,710.1,297.6,711.5,301.3z"/>
	<path d="M777.5,322.8c-1.2,3.2-4.7,4.8-8.1,5.4c-3.3,0.6-6.8,0.4-10,1.4c-4.1,1.3-7.3,4.5-10.5,7.3s-7,5.5-11.3,5.6
		c-4.4,0.1-8.4-2.6-12.7-3.4c-2.9-0.5-6-0.3-8.8-1.4c-3.9-1.5-6.3-5.5-7.8-9.4c-0.7-1.8-1.2-3.7-1.4-5.6c-0.3,2.8,0.4,5.7,1.4,8.4
		c1.5,3.9,3.9,7.9,7.8,9.4c2.8,1.1,5.9,0.8,8.8,1.4c4.3,0.8,8.3,3.5,12.7,3.4c4.3-0.1,8.1-2.7,11.3-5.6s6.4-5.9,10.5-7.3
		c3.2-1.1,6.7-0.9,10-1.4c3.3-0.6,6.9-2.2,8.1-5.4c0.4-1.3,0.5-2.6,0.3-3.9C777.7,322.1,777.6,322.5,777.5,322.8z"/>
	<path d="M774,307.2c0,0.3,0,0.7,0.1,1c1-6.5,8.3-11.5,8.8-18.3c0-0.7,0-1.4-0.1-2.1C781.7,295,773.7,300.1,774,307.2z"/>
</g>
<path class="st1" d="M700.9,330.3c0,0-1.7,10.5,13.3,9.9s-7.4-10.7-7.4-10.7L700.9,330.3z"/>
<path class="st5" d="M706.7,329.6l-5.9,0.8c0,0-1.7,10.5,13.3,9.9"/>
<path class="st1" d="M778,329.7c0,0-3.1,11.3-15.7,9.6l-1.8-5.2l12.1-5.5L778,329.7z"/>
<path class="st5" d="M772.6,328.6l5.4,1.1c0,0-3.1,11.3-15.7,9.6"/>
<path class="st6" d="M718.1,364c-0.1,4.1-2.2,6.5-3.8,7.6c-0.6,0.4-1.2,0.8-1.8,1l-7.8-9.8c0,0,0.7-9.6,0.6-15.8
	c0-2.3-0.2-4.1-0.6-4.8c-0.9-1.8-0.9-6.1-0.8-8.9c0-1.5,0.1-2.5,0.1-2.5l10.2,9.5c0,0,0,0.2,0.1,0.5
	C714.9,343.5,718.3,357.9,718.1,364z"/>
<rect x="720.1" y="401.6" class="st3" width="10.5" height="9.3"/>
<rect x="722.7" y="300.5" class="st3" width="33.5" height="27.3"/>
<rect x="722.7" y="290.9" class="st5" width="31.3" height="37"/>
<path class="st6" d="M729.6,306.7c0,0,6.2,11.4-3.8,12c-10.1,0.6-1.7,20.6-1.7,20.6s12.4,8.2,12.7,8.2s10.2,0.1,10.5-0.1
	s7.9-9.7,7.9-9.7l1.1-11.1l-2.7-8.8c0,0-10.6,4.5-7.7-12.2L729.6,306.7z"/>
<path class="st6" d="M802.1,393.9c-0.2,1.5-0.2,3.1-0.2,4.6c0,1.6-1,4.6-6.8,8.8c-9.1,6.6-21.3,13.7-21.3,13.7l-21.9,7.6l-7.1-3.3
	l-5-2.3l-1.3-10.3l-1.2-9l18.4-8.9c0,0,13-4.7,13.6-6c0.5-1.3,15-6,15-6S804.3,375.5,802.1,393.9z"/>
<path class="st3" d="M761.6,392.4l-1.6,2.2l-1.3,1.8c-8,0.5-20,18.8-20,18.8l-8.8-7.2c-5.6-7.2-13-12.9-21.5-16.3l0.1-0.2l1.9-3.4
	l27.3-3.2L761.6,392.4z"/>
<path class="st5" d="M761.6,392.4l-1.6,2.2c-3.7-0.2-10.3-0.9-10.3-0.9s-3.2,2-4.9,1.2s-23.3-0.4-25.8-2c-2-1.3-7.5-0.9-10.3-1.4
	l1.9-3.4l27.3-3.2L761.6,392.4z"/>
<path class="st1" d="M763.3,334.2l-0.6,5.9c2.6,8-2.7,15.9-2.7,15.9s0.8,5.5-0.2,6.9s-1.4,6.5-1.4,6.5s-0.1,3.5-0.9,4.3
	s-0.6,1.7-0.7,4.1c-0.1,1.9,3.7,6.2,5.6,8.5c0.5,0.5,0.8,1,1,1.2c0.8,1.2,1.2,6.4-2,6.3h-0.8c-0.7,0-1.6-0.1-2.6-0.2
	c-3.7-0.3-8.2-0.8-8.2-0.8c-0.4,0.3-0.9,0.5-1.3,0.7c-1.1,0.5-2.6,1-3.6,0.5c-1.7-0.7-23.3-0.4-25.8-2c-1.9-1.3-7.1-0.9-10-1.4
	c-1-0.2-1.7-0.4-2-0.9c-1-1.8,2.7-4.5,2.7-4.5s-0.9-2.5,1.4-3.2s1-3.5,1-3.5s0-1.8,2.9-6.1s1.6-16.6,1.6-16.6
	c-6.6-8.8-2.4-15.9-2.4-15.9L709,321l3.1-2.9l14.8,0.2l-1.1,6.2c-1.6,11.5,14,16.4,14,16.4c14.5,0.4,11.5-15.5,11.5-15.5l-2-7.4
	c0,0,3.6-1.2,11.2-2.1c3.6-0.4,5.2,0.1,5.8,0.8c0.8,0.9,1.8,1.7,2.8,2.4c0.7,0.5,1.3,1,1.8,1.7l-4.9,8.8L763.3,334.2z"/>
<path class="st6" d="M728.4,405.9l-11.7,14.2l-3.4,4.1l-12.8-5.4c-3-4.2-6.6-8-10.8-11.1c-6.6-4.7-10.9-13.4-10.9-13.4
	c-6.9-13.7,11.6-18.4,14.3-15.5s19.6,13.6,19.6,13.6c3,0.8,7.3,4.6,10.7,7.9C726.2,403.3,728.4,405.9,728.4,405.9z"/>
<circle class="st5" cx="737.9" cy="295.4" r="16.9"/>
<circle class="st6" cx="737.9" cy="295.1" r="16.9"/>
<path class="st5" d="M707.7,363.5c-1,0.7,0.9-1.2,0.9-1.2l-3.9,0.6c0,0,0.7-9.6,0.6-15.8c5.2,4.1,9.2,15.8,9.2,15.8
	C716.2,367.5,709,362,707.7,363.5z"/>
<path class="st6" d="M714.2,362.9c0,0-4-11.8-9.3-15.9c0,0-4.9-12.3-5.2-14.6s-2.4-5.7-2.4-5.7s-7.2-9.5-16.6-9.9
	c-9.4-0.4,0.9,4.3,0.9,4.3s-3.7,9.4,7.5,12.9c0,0,2.9,3.5,3.3,6.2c0.4,2.8,3.8,12.6,3.8,12.6s4,15.3,12.5,20.9
	C708.8,373.8,718.2,374.2,714.2,362.9z"/>
<path class="st5" d="M756.7,377.9c-0.1,1.9,3.7,6.2,5.6,8.5c-0.8,1.9-1.7,3.7-2.9,5.3v0.1l-1.4,1.9c-0.9,1.2-1.8,2.6-2.7,3.7
	c-1.2,1.7-2.2,3.1-2.2,3.1s-7.4,19.5-9.4,14.5c-0.7-1.8-1-3.6-0.9-5.5c0.1-3.9,1.6-8.5,4.7-14.2c0.3-0.6,0.6-1.2,0.9-1.7
	c0.9-1.7,1.6-3.3,2.3-4.7c1.2-2.4,2.2-4.9,3.1-7.4C753.8,381.5,756.8,375.4,756.7,377.9z"/>
<path class="st6" d="M773.8,332.5c-0.3,3.2-0.8,7.7-0.8,7.7v11.5c0,0.9-2.3,11.9-2.3,11.9l-1.6,5.9c0,0,0.2,5.2-2.4,9.4
	s-4.3,9.8-6.6,12.9s-6.2,8.8-6.2,8.8s-7.4,19.5-9.4,14.5s-0.9-11.1,3.7-19.7c4.6-8.6,6.3-13.8,6.3-13.8s3.3-7.4,3.5-9.7
	s1.8-15.8,1.8-15.8s3-8.7,2.4-18.3c0-0.4,0.8-0.7,0.7-1.1c-1-10,10.9-7.1,10.9-7.1C774,330.6,773.9,331.5,773.8,332.5z"/>
<path class="st5" d="M744,415.1c-2.1,3.2,23.9,3.7,19.9,4.1c-1.4,0.2-2.8,0.5-4.2,0.9l0,0c-7.3,1.9-20.5,6-20.5,6l-1.8,0.5
	l-12.6,3.4l0.9-6.7l0.8-5.6l9.5-4.7c0,0,1.2-0.5,2.8-1.3c2.7-1.3,6.3-3,6.5-3.3c0.2-0.4,9.4-6.5,9.4-6.5
	c2.6-2.4,22.8-11.7,22.8-11.7C801.8,384.8,746,412,744,415.1z"/>
<path class="st5" d="M789.2,410.1c-2,3.2-21.4,9.9-25.3,10.2c-1.4,0.2-2.8,0.5-4.2,0.9l0,0c-4.2,1.1-10.3,2.9-14.8,4.2l-5-2.3
	l-1.3-10.3l0.2-0.1c2.7-1.3,6.3-3,6.5-3.3c0.2-0.4,16.2-1.8,16.2-1.8c2.6-2.4,16-16.4,16-16.4C769.6,407.1,791.3,406.9,789.2,410.1z
	"/>
<path class="st6" d="M789.2,409.7c-2,3.1-21.4,9.9-25.3,10.2c-1.4,0.2-2.8,0.5-4.2,0.9l0,0c-0.8,0.2-1.8,0.5-2.7,0.7
	c-7.5,2-17.8,5.3-17.8,5.3l-1.8,0.5l-2,0.5l-9.3,2.5l-1.3,0.4l0.8-5.6l0.2-1.2l0.1-0.7l0,0l0.7-4.8l9.6-4.7c0,0,0.7-0.3,1.6-0.8
	l1.1-0.5c2.7-1.3,6.3-3,6.5-3.3c0.2-0.4,9.4-6.5,9.4-6.5c2.6-2.4,22.8-11.7,22.8-11.7C801.8,385.5,791.3,406.5,789.2,409.7z"/>
<path class="st3" d="M727.4,425.4c0,1.5-0.7,3.4-1.2,4.8c-0.5,1.2-0.9,2-0.9,2s-3,0.8-8.8,0.1c-5.9-0.7-14.1,1.6-14.3,2.2
	c0,0.2-0.2,0.3-0.5,0.4c-0.6,0.1-1.1,0.2-1.7,0.2c-6.2-0.3-6.7-4.2-6.7-4.2s1.4-9.6,4.1-13.6c0.5-0.8,1.2-1.4,2.1-1.7
	c2.6-1.1,5.5,0.8,5.5,0.8c0.6,0.4,1.3,0.7,2,1l0,0c4.7,1.8,15.8,4.8,19,5.8l0,0l0.5,0.1C727.2,423.6,727.5,424.4,727.4,425.4z"/>
<path class="st5" d="M699.3,427.4c0,0-2.4,6.1,2.4,7.6c-0.6,0.1-1.1,0.2-1.7,0.2c-6.2-0.3-6.7-4.2-6.7-4.2s1.4-9.6,4.1-13.6
	c2.7-4,7.5-0.9,7.5-0.9c0.6,0.4,1.3,0.7,2,1C706.9,417.4,700.2,418.3,699.3,427.4z"/>
<path class="st5" d="M739.6,376.2c0,0,16-3,16.3-2S739.6,376.2,739.6,376.2z"/>
<path class="st5" d="M744.7,378.6c0,0,9.7-2,9.8-1.1S744.7,378.6,744.7,378.6z"/>
<path class="st5" d="M712.7,386.8c0,0,18.9,3.3,22,4c3,0.7,13.4,0,13.4,0s-13.3-0.2-14.8-1.2C731.8,388.5,712.7,386.8,712.7,386.8z"
	/>
<path class="st5" d="M739.8,397.6c0,0,6.6-0.8,6,0C745.3,398.4,739.8,397.6,739.8,397.6z"/>
<path class="st5" d="M736.9,407.9c0,0,5.6-5,5.7-4.3C742.6,404.3,736.9,407.9,736.9,407.9z"/>
<path class="st5" d="M728.4,405.9l-11.7,14.2c-1.4-0.5-2.9-0.9-4.4-1.2c-4.8-0.8-18.7-5.1-21.3-12.4c0,0,54.8,14.8,52.9,13.3
	c-1.9-1.5-65.9-43-42-32.5c0,0,13.8,7,21.5,13.2C726.2,403.3,728.4,405.9,728.4,405.9z"/>
<path class="st5" d="M757.8,433.4c0,0-5.2,0.4-6.3,0c-1.2-0.4-6.5-3.6-6.5-3.6s-3.5-1.2-7.5-2.6c-4.4-1.5-9.5-3-11.2-3.1l-0.5-0.2
	l0.8-5.6l9.5-4.7c0,0,1.2-0.5,2.8-1.3l3.2,2.1c0,0,7.4,5.1,9.6,5.3c2,0.2,6.7,1,8.1,1.1l0,0c0.1,0,0.2,0,0.3,0
	C760.3,420.7,757.8,433.4,757.8,433.4z"/>
<path class="st5" d="M757,421.5c-7.5,2-17.8,5.3-17.8,5.3l-1.8,0.5l-2,0.5c-3-1-6.1-1.9-8-2.4c-0.5-0.1-1-0.2-1.5-0.3l-0.3-0.1
	c-1.6-0.8-9.4-4.4-13.7-5.1c-4.4-0.8-8.6-2.3-12.5-4.3c2.6-1.1,5.5,0.8,5.5,0.8c0.6,0.4,1.3,0.7,2,1l0,0c4.7,1.8,15.8,4.8,19,5.8
	l0.7-4.8l9.5-4.7c0,0,0.7-0.3,1.6-0.8l4,2.6c0,0,7.4,5.1,9.7,5.2C752.6,420.8,755.1,421.2,757,421.5z"/>
<path class="st6" d="M701.5,387.9c0,0,21.5,10.9,25.7,17.5l14.5,9.7c0,0,7.4,5.1,9.6,5.3s8.1,1.2,8.4,1.2c0.3-0.1-2.3,12.6-2.3,12.6
	s-5.2,0.4-6.3,0s-6.5-3.6-6.5-3.6s-15.5-5.5-18.6-5.7c0,0-9.2-4.5-14-5.3s-18.7-5.1-21.3-12.4c0,0-3.1-4-5-5.5
	C683.8,400.2,677.6,377.4,701.5,387.9z"/>
<path class="st3" d="M782.6,437.2c-0.4-0.1-0.6-0.1-0.6-0.1c-4.8-2.4-17.6-1-19.6-1.3s-6.2-0.6-6.2-0.6s-2.2-11.7-0.8-12.1
	c0.9-0.3,1.7-0.8,2.3-1.4c2.3-1.4,15.2-1.8,16.9-1.9c0.6,0,1.1-0.1,1.6-0.4l0,0c0.2-0.1,0.3-0.3,0.4-0.4c3.1-1.9,9.5-1.2,9.5-1.2
	s8.8,1.2,9.3,11.8C795.7,438.6,785.2,437.6,782.6,437.2z"/>
<path class="st5" d="M782.6,437.2c8.5-2.4,7.5-8,7.5-8c-2.3-11.3-13.6-9.9-13.9-9.9c0.2-0.1,0.3-0.3,0.4-0.4
	c3.1-1.9,9.5-1.2,9.5-1.2s8.8,1.2,9.3,11.8C795.7,438.6,785.2,437.6,782.6,437.2z"/>
<path class="st5" d="M773.8,332.5l-11.5,5.2c0-0.4,0.8-0.7,0.7-1.1c-1-10,10.9-7.1,10.9-7.1C774,330.6,773.9,331.5,773.8,332.5z"/>
<polygon class="st1" points="769.1,321.3 770.7,321.1 778,329.7 761,338.1 760.1,330 764.1,325.3 "/>
<path class="st5" d="M714.3,340.7l-0.1,0.3l-10.3-7.7c0-1.5,0.1-2.5,0.1-2.5l10.2,9.5C714.2,340.3,714.2,340.4,714.3,340.7z"/>
<path class="st1" d="M711.9,321.3h-3c-1.9,1.4-3.4,3.2-4.5,5.3c-1.5,3.3-3.5,3.7-3.5,3.7l13.3,9.9l2.5-5.7L711.9,321.3z"/>
<path class="st5" d="M722.1,281.6c-0.5,1.1-0.9,2.3-1,3.6s0.5,2.5,1.6,3.2c0.5,0.3,1.1,0.4,1.7,0.4c2.9,0.3,5.8-0.5,8.7-1
	c3.5-0.5,7.3-0.5,10.5,0.9c1.8,0.8,3.4,2.1,5,3.3s3.3,2.3,5.3,2.7s4.2,0,5.5-1.5c1.1-1.3,1.4-3.1,1.4-4.8c-0.2-4.7-2.3-9-5.7-12.2
	c-3.4-3.1-7.7-5.2-12.3-5.8c-3.6-0.8-7.4,0-10.5,2.1c-3,1.9-5.6,4.3-7.7,7.2c-0.6,0.9-1.3,1.7-2,2.5c-0.8,0.8-1.8,1.2-2.9,1.1"/>
<path class="st3" d="M722.1,280.9c-0.5,1.1-0.9,2.3-1,3.6s0.5,2.5,1.6,3.2c0.5,0.3,1.1,0.4,1.7,0.4c2.9,0.3,5.8-0.5,8.7-1
	c3.5-0.6,7.3-0.6,10.5,0.9c1.8,0.8,3.4,2.1,5,3.3s3.3,2.3,5.3,2.7s4.2,0,5.5-1.5c1.1-1.3,1.4-3.1,1.4-4.8c-0.2-4.6-2.3-9-5.7-12.2
	c-3.4-3.1-7.7-5.2-12.3-5.8c-3.6-0.8-7.4,0-10.5,2.1c-3,1.9-5.6,4.3-7.7,7.2c-0.6,0.9-1.3,1.7-2,2.5c-0.8,0.8-1.8,1.2-2.9,1.1"/>
<path class="st5" d="M761.6,422.6c0,0,4.8,5.8,1,11.3"/>
<path class="st5" d="M720.2,423.6c0,0-3.4,4.3-0.8,7.9"/>
<path class="st7" d="M759.9,356"/>
<path class="st1" d="M760,355.9C760,356,759.9,356,760,355.9c-0.3,0-0.5-0.2-0.6-0.5c-1.6-3.2,0.7-16.7,0.7-16.7l1.6,1l0,0l0.4,0.3
	C764.8,347.4,760.6,354.9,760,355.9z"/>
<path class="st5" d="M736.9,354.2c0,0-2.6,4.2-4.2,4.2C732.6,358.4,736.6,355.3,736.9,354.2z"/>
<path class="st5" d="M742,354.2c0,0,2.6,4.2,4.2,4.2C746.2,358.4,742.3,355.3,742,354.2z"/>
<g class="st4">
	<path d="M721.1,281.2c-0.2,0.1-0.4,0.2-0.5,0.3l-1.5,0.9c0.6,0.1,1.3-0.1,1.8-0.3C720.9,281.8,721,281.5,721.1,281.2z"/>
	<path d="M721.5,280.9l-0.4,0.2v0.1C721.3,281.1,721.4,281,721.5,280.9L721.5,280.9z"/>
	<path d="M760.1,287.6c0,1.5-0.4,3-1.4,4.1c-1.3,1.5-3.5,1.9-5.5,1.5s-3.7-1.5-5.3-2.7s-3.2-2.4-5-3.3c-3.2-1.5-7-1.5-10.5-0.9
		c-2.9,0.5-5.8,1.3-8.7,1c-0.6,0-1.2-0.2-1.7-0.4c-0.9-0.6-1.5-1.6-1.6-2.7c0,0.1,0,0.2,0,0.2c-0.1,1.3,0.5,2.5,1.6,3.2
		c0.5,0.3,1.1,0.4,1.7,0.4c2.9,0.3,5.8-0.5,8.7-1c3.5-0.6,7.3-0.6,10.5,0.9c1.8,0.8,3.4,2.1,5,3.3s3.3,2.3,5.3,2.7s4.2,0,5.5-1.5
		C759.9,291.1,760.2,289.3,760.1,287.6L760.1,287.6z"/>
</g>
<path class="st1" d="M433.4,307.1l-1.1,1.3l-5,5.9l-34,40.4l-13.1,15.6l0,0l-11.8,14.1l-0.5,0.6l-0.1-0.1l-1.2-1l-1.1-1l-3.1-2.7
	l-13.2-11.1l-6.6-5.6l-4.4-3.7l-5.7-4.9l-1-0.8l-3.6-3l-3.5-3l-13.8-11.6l-7-5.8l-2.5-2.1l-1.1-1l-6-5l-10.2-8.6l-1.3-1.1l-0.1-0.1
	l-4.3-3.6l-5.3-4.5l-5.9-5l-1-0.9l-3-2.4l0,0l0,0l-4-3.4l0,0l-11.1-9.4l-1.7-1.5l-0.3-0.3l-6.9-5.8l-4.4-3.7l-1.6-1.3l-0.8-0.7l0,0
	l-2.7-2.3l-8.2-6.9l-23.3-19.6c-0.4-0.3-0.8-0.7-1.2-1l-0.3-0.2l-0.1-0.1c-0.4-0.3-0.8-0.7-1.2-1c-0.3-0.3-0.5-0.4-0.8-0.8l-0.2-0.2
	l-0.3-0.2l-0.6-0.5l-0.1-0.1l-0.1-0.1c-0.3-0.3-0.7-0.6-1-1l-0.4-0.4l-0.3-0.3c-0.2-0.2-0.3-0.3-0.5-0.5l0,0
	c-0.5-0.5-1.1-1.1-1.7-1.7l-0.7-0.7c-0.3-0.3-0.4-0.5-0.7-0.8l-0.3-0.4c-0.2-0.3-0.4-0.4-0.6-0.7c-0.1-0.1-0.3-0.3-0.3-0.3l-0.5-0.6
	c-0.3-0.3-0.7-0.8-1-1.1s-0.4-0.5-0.6-0.8l-0.2-0.2c-0.3-0.3-0.6-0.8-1-1.1l-0.2-0.2c-0.3-0.3-0.5-0.6-0.8-1
	c-0.2-0.2-0.3-0.3-0.4-0.5c-0.2-0.2-0.3-0.4-0.5-0.7s-0.3-0.3-0.4-0.5l-0.1-0.1c-0.3-0.3-0.5-0.7-0.8-1l-0.1-0.2l-0.2-0.3l-0.3-0.3
	l-0.2-0.2l-0.3-0.3l-0.3-0.4l-0.2-0.2l-0.2-0.3c-0.3-0.3-0.4-0.6-0.7-1l-0.4-0.7c-0.3-0.4-0.5-0.8-0.8-1.2l-0.1-0.1
	c-0.3-0.4-0.6-0.9-0.9-1.3l-0.1-0.2c-0.1-0.1-0.1-0.2-0.2-0.3c-0.3-0.4-0.5-0.9-0.8-1.3c-0.2-0.3-0.4-0.7-0.6-1l-0.2-0.3l-0.5-1
	c-0.1-0.2-0.2-0.3-0.3-0.4l-0.2-0.3l-0.2-0.3l-0.2-0.3c0-0.1-0.1-0.1-0.1-0.2c-0.2-0.3-0.3-0.6-0.5-1c0,0,0,0,0-0.1
	c-0.2-0.3-0.3-0.6-0.4-0.9c-0.2-0.4-0.4-0.8-0.6-1.2l-0.4-1c-0.1-0.3-0.3-0.4-0.3-0.7c-0.1-0.2-0.2-0.3-0.3-0.4
	c-0.1-0.2-0.2-0.3-0.2-0.4c0,0,0-0.1-0.1-0.1l-0.1-0.1l-0.1-0.2l-0.3-0.8c0,0,0-0.1-0.1-0.1c-0.1-0.3-0.2-0.4-0.3-0.7
	c-0.1-0.2-0.1-0.3-0.2-0.4l-0.4-1l-0.2-0.3c0-0.1-0.1-0.2-0.2-0.3c-0.2-0.3-0.3-0.7-0.4-1c-0.1-0.3-0.2-0.5-0.3-0.8
	c-0.1-0.2-0.2-0.3-0.2-0.5c-0.2-0.4-0.3-0.9-0.5-1.3c-0.1-0.2-0.2-0.3-0.2-0.5v0.2v-0.1v-0.1l-0.1-0.2c-0.1-0.1-0.1-0.3-0.2-0.3
	c0-0.1-0.1-0.3-0.1-0.3c-0.2-0.3-0.3-0.7-0.4-1c-0.2-0.5-0.3-1-0.6-1.6v-0.1c-0.1-0.3-0.2-0.5-0.3-0.8c-0.4-1.3-0.9-2.5-1.2-3.8
	c-0.2-0.7-0.4-1.4-0.6-2.2l-0.3-1c-0.2-0.7-0.3-1.4-0.5-2.2l-0.3-1c-0.2-0.7-0.3-1.4-0.4-2.1V180c-0.1-0.3-0.2-0.6-0.2-1l-0.2-1.1
	c-0.1-0.3-0.1-0.5-0.2-0.9c-0.1-0.5-0.2-1-0.3-1.6c-0.1-0.3-0.1-0.6-0.2-0.9c-0.1-0.7-0.3-1.5-0.3-2.2c-0.1-0.3-0.1-0.7-0.2-1
	c0-0.1,0-0.1,0-0.2c-0.1-0.7-0.2-1.4-0.3-2.1c0-0.3-0.1-0.7-0.1-1.1c0-0.3-0.1-0.7-0.1-1.1c-0.2-1.9-0.3-3.8-0.3-5.6
	c0-0.4,0-0.8,0-1.2c0-1,0-2.1,0-3.1c0-0.7,0-1.4,0-2.1c0-0.7,0-1.3,0.1-2c0-0.1,0-0.1,0-0.2c0-0.7,0.1-1.3,0.1-2s0.1-1.4,0.2-2.1
	v-0.1c0.1-0.7,0.1-1.3,0.2-2c0.1-0.6,0.1-1.4,0.2-2l0,0c0.1-0.6,0.2-1.2,0.3-1.9c0-0.1,0-0.2,0-0.3c0.1-0.7,0.2-1.3,0.3-1.9
	c0.1-0.8,0.3-1.6,0.3-2.4c0.2-0.8,0.3-1.7,0.4-2.5c0.1-0.3,0.2-0.8,0.3-1.1c0.1-0.6,0.3-1.2,0.4-1.8c0.1-0.3,0.1-0.5,0.2-0.9
	c0.1-0.3,0.2-0.6,0.2-0.9c0.2-0.6,0.3-1.2,0.4-1.8c0.1-0.3,0.1-0.4,0.2-0.7c0.2-0.5,0.3-1,0.4-1.6c0.2-0.5,0.3-1,0.4-1.6
	c0.2-0.5,0.3-1,0.4-1.5c0.1-0.3,0.2-0.5,0.3-0.8v-0.1c0.2-0.4,0.3-1,0.4-1.4c0-0.1,0.1-0.3,0.1-0.3c0.2-0.6,0.3-1.1,0.6-1.7l0,0
	c0.3-0.6,0.4-1.3,0.7-1.9c0.1-0.3,0.3-0.6,0.3-1c0.1-0.2,0.2-0.3,0.2-0.5c0.2-0.3,0.3-0.8,0.4-1.1c0.1-0.3,0.3-0.6,0.3-0.9
	c0.6-1.4,1.2-2.9,1.9-4.3c1.2-2.7,2.5-5.2,3.9-7.8c0.3-0.3,0.4-0.8,0.7-1.1c0.3-0.3,0.4-0.8,0.7-1.1c0.2-0.3,0.4-0.8,0.7-1.1
	c1.2-1.9,2.4-3.8,3.7-5.7c0.3-0.3,0.4-0.6,0.7-1l0.7-1c1-1.3,1.9-2.6,3-3.8c0.3-0.3,0.5-0.6,0.8-1c0.3-0.3,0.5-0.6,0.8-1
	c0.6-0.8,1.3-1.5,1.9-2.3c0.4-0.4,0.8-1,1.2-1.4c0.9-1,1.7-1.9,2.7-2.9c0.3-0.3,0.7-0.7,1-1c0.1-0.1,0.1-0.1,0.2-0.2
	c0.3-0.3,0.6-0.6,1-1l0.4-0.4l0.8-0.8l0.4-0.4l0.8-0.7c0.3-0.3,0.8-0.7,1.2-1l0.7-0.6l0.9-0.8c0.2-0.2,0.3-0.3,0.5-0.4
	c0.9-0.7,1.7-1.4,2.5-2.1c0.2-0.1,0.3-0.3,0.4-0.3c0.3-0.3,0.7-0.5,1-0.8l0.8-0.6c0.8-0.6,1.7-1.2,2.4-1.7l0.8-0.5l1.3-0.9l1.2-0.9
	l0.9-0.6c0.3-0.2,0.4-0.3,0.7-0.4l0.5-0.3c0.4-0.3,0.8-0.4,1.2-0.7c0.2-0.1,0.3-0.3,0.6-0.3c0.4-0.3,0.9-0.5,1.3-0.8l0.8-0.4
	c1-0.5,1.9-1,2.9-1.6l1.1-0.6l0,0l1-0.4c1.5-0.7,3-1.4,4.4-2.1l1-0.4c0.4-0.2,0.9-0.3,1.3-0.6l1.6-0.6c0.4-0.2,0.9-0.3,1.3-0.4h0.1
	l1-0.3L232,52c0.5-0.2,1.1-0.3,1.7-0.6h0.1c0.3-0.1,0.8-0.3,1.1-0.3c0.2-0.1,0.4-0.2,0.6-0.2c0.4-0.2,1-0.3,1.4-0.4l0.3-0.1
	c0.5-0.2,1-0.3,1.6-0.4l0,0c0.2,0,0.3-0.1,0.4-0.1c0.4-0.1,0.9-0.3,1.3-0.3l0.4-0.1l1.2-0.3c1.5-0.3,3-0.7,4.3-1
	c0.5-0.1,1.1-0.3,1.7-0.3h0.1c0.5-0.1,1-0.2,1.7-0.3l0.3-0.1c0.6-0.1,1.1-0.2,1.7-0.3h0.3c0.4-0.1,1-0.2,1.4-0.2l0.4-0.1
	c0.6-0.1,1.1-0.2,1.7-0.3h0.1l1.7-0.2l0.4-0.1l1.4-0.2h0.4l1.7-0.1h0.1c0.6,0,1.2-0.1,1.7-0.1c0.6,0,1.1-0.1,1.7-0.1h0.8
	c0.5,0,1,0,1.6,0s1.3,0,1.9,0s1.1,0,1.7,0s1.1,0,1.7,0c1,0,1.9,0.1,2.9,0.1l0.9,0.1c0.9,0.1,1.7,0.1,2.6,0.2c0.3,0,0.4,0,0.7,0.1
	c1,0.1,2,0.2,3,0.3c1.2,0.2,2.3,0.3,3.6,0.4c0.5,0.1,1.1,0.2,1.7,0.3c0.5,0.1,1.1,0.2,1.7,0.3c1.2,0.3,2.5,0.5,3.7,0.8l1.1,0.3
	l1,0.3l1,0.3c0.5,0.2,1,0.3,1.6,0.4c1,0.3,2,0.5,3,0.9c1.7,0.5,3.5,1,5.2,1.7c0.4,0.2,1,0.3,1.5,0.5l0.2,0.1c0.5,0.2,1,0.3,1.5,0.5
	c0.4,0.2,1,0.3,1.4,0.6l0.4,0.2l1.4,0.6c0.6,0.3,1.1,0.4,1.7,0.7l1.5,0.7l0,0c0.5,0.3,1,0.4,1.6,0.8c0.4,0.2,0.8,0.3,1.2,0.6
	c0.5,0.3,1,0.5,1.7,0.8l0.7,0.3l1,0.5l0.2,0.1c4.2,2.3,8.3,4.8,12.1,7.6l1,0.8c0.7,0.4,1.3,1,2,1.5l0.6,0.4c1,0.8,2.1,1.7,3.1,2.5
	l0.3,0.2c0.3-0.3,0.7-0.7,1-1c0.6-0.6,1.2-1.2,1.8-1.8c0.3-0.3,0.7-0.6,1-1c0.3-0.3,0.6-0.5,0.9-0.8s0.8-0.7,1.1-1
	c0.3-0.3,0.6-0.5,0.9-0.8s0.8-0.7,1.1-1l1-0.9c0.3-0.3,0.7-0.5,1-0.8c1-0.8,1.9-1.6,2.9-2.3c0.3-0.3,0.7-0.5,1-0.8
	c0.2-0.2,0.3-0.3,0.5-0.4l0.9-0.6c0.3-0.3,0.7-0.5,1-0.8l1-0.7l1-0.7c1.1-0.7,2.3-1.4,3.3-2.1c0.3-0.2,0.4-0.3,0.7-0.4
	c0.7-0.4,1.4-0.8,2.1-1.2c0.4-0.3,0.8-0.4,1.2-0.7c1.1-0.6,2.3-1.2,3.4-1.8l0.8-0.3l0.8-0.3c0.4-0.2,0.9-0.4,1.2-0.6
	c0.4-0.2,0.9-0.4,1.2-0.6l1.3-0.6c0.4-0.2,0.9-0.3,1.3-0.5s1-0.4,1.4-0.6l1.1-0.4c0.4-0.2,0.9-0.3,1.3-0.4l1.2-0.4l0,0
	c0.9-0.3,1.7-0.6,2.6-1l1.3-0.4l1.3-0.4c0.4-0.2,0.9-0.3,1.3-0.4l1.3-0.3c0.9-0.3,1.7-0.5,2.6-0.7l1.3-0.3c0.9-0.3,1.7-0.4,2.7-0.6
	c0.9-0.2,1.7-0.3,2.7-0.5s1.8-0.3,2.7-0.5l1.4-0.3c1-0.2,2-0.3,3-0.4l1.6-0.2c1.6-0.2,3-0.3,4.6-0.4c1-0.1,2-0.2,3-0.2
	c2.1-0.1,4.2-0.2,6.3-0.1c0.2,0,0.4,0,0.6,0h0.9c0.4,0,0.8,0,1.2,0h1c0.4,0,0.9,0,1.3,0.1c0.4,0,0.8,0,1.2,0.1l1.2,0.1
	c0.4,0,0.8,0.1,1.2,0.1l0.9,0.1c0.5,0,1,0.1,1.5,0.2c0.1,0,0.3,0,0.3,0c0.4,0,0.9,0.1,1.3,0.2l0.7,0.1c0.4,0.1,0.9,0.1,1.3,0.2
	l1,0.2c0.5,0.1,1,0.2,1.6,0.3c0.5,0.1,1,0.2,1.6,0.3s1.2,0.2,1.7,0.3c0.3,0.1,0.7,0.1,1,0.2c0.4,0.1,0.9,0.2,1.3,0.3
	c0.3,0.1,0.5,0.1,0.9,0.2c0.3,0.1,0.4,0.1,0.6,0.2l1.8,0.4l0.3,0.1l0.8,0.2l1.7,0.4c0.6,0.2,1.3,0.3,1.9,0.5h0.1l1.3,0.4l1.7,0.6
	c1,0.3,2,0.7,3,1c0.3,0.1,0.6,0.3,0.9,0.3c2.7,1,5.4,2.2,8.1,3.4c0.3,0.2,0.6,0.3,1,0.4c2.3,1,4.5,2.3,6.8,3.5l0.8,0.4
	c0.4,0.3,0.9,0.4,1.2,0.7c0.7,0.4,1.5,0.9,2.2,1.3l0.9,0.6c0.1,0.1,0.2,0.1,0.3,0.2c1.7,1,3.4,2.3,5,3.4l0,0c0.3,0.3,0.6,0.4,1,0.7
	s0.9,0.6,1.3,1l0.7,0.5l0.3,0.3c0.7,0.5,1.3,1,2,1.6l0.8,0.6l0.8,0.6c0.3,0.3,0.8,0.7,1.1,1c0.7,0.6,1.3,1.1,1.9,1.7
	c0.3,0.3,0.5,0.4,0.8,0.7l0.2,0.1l0.3,0.3c0.9,0.8,1.7,1.6,2.5,2.4c0.3,0.3,0.7,0.7,1,1s0.4,0.4,0.7,0.7c0.5,0.5,1,1.1,1.6,1.7
	l0.5,0.6c1.1,1.3,2.3,2.5,3.4,3.8c0.3,0.3,0.5,0.6,0.8,1c0.2,0.2,0.3,0.4,0.5,0.6c0.2,0.3,0.3,0.4,0.5,0.6c0.1,0.1,0.1,0.1,0.1,0.2
	c0.2,0.3,0.3,0.4,0.6,0.8c0.3,0.4,0.6,0.8,1,1.2c0.3,0.5,0.8,1,1.1,1.5c0.3,0.4,0.6,0.8,0.9,1.2c0.3,0.4,0.7,1,1,1.5
	c0.7,1,1.3,2,2,3l0,0c0.3,0.5,0.6,1,1,1.5c0.3,0.5,0.6,1,1,1.6c0.3,0.5,0.6,1,0.9,1.6c0.3,0.5,0.5,1,0.8,1.4c0.9,1.5,1.7,3,2.3,4.6
	c0.1,0.3,0.3,0.5,0.3,0.8c0.2,0.3,0.3,0.7,0.4,1l0.1,0.2c0.2,0.4,0.4,0.9,0.6,1.4c0.3,0.6,0.5,1.2,0.8,1.8c0.2,0.3,0.3,0.8,0.4,1.1
	c0.6,1.4,1.1,2.8,1.7,4.2c0.1,0.3,0.3,0.6,0.3,1c0.1,0.3,0.2,0.5,0.3,0.9c0.2,0.4,0.3,0.9,0.4,1.3c0.1,0.3,0.2,0.6,0.3,1
	c0.1,0.3,0.2,0.5,0.3,0.8c0.3,1,0.6,1.9,0.9,2.9c0.1,0.3,0.2,0.4,0.2,0.7c0.1,0.4,0.3,0.8,0.3,1.2c0.2,0.5,0.3,1.1,0.4,1.7
	c0.2,0.6,0.3,1.1,0.4,1.7v0.1c0.1,0.3,0.2,0.8,0.3,1.1l0.2,0.7c0.2,0.7,0.3,1.3,0.4,2c0.1,0.4,0.2,0.9,0.3,1.3
	c0.1,0.7,0.3,1.3,0.3,2c0.1,0.4,0.2,0.9,0.2,1.3c0,0.1,0,0.2,0.1,0.3c0.1,0.4,0.1,0.8,0.2,1.2c0,0.2,0,0.3,0.1,0.4
	c0.1,0.4,0.1,1,0.2,1.4c0.1,0.7,0.2,1.3,0.3,2c0.2,1.4,0.3,2.9,0.3,4.3c0,0.4,0.1,1,0.1,1.5s0.1,1,0.1,1.5c0,0.3,0,0.7,0,1.1
	c0.1,1.6,0.1,3.2,0.1,4.9c0,0.3,0,0.6,0,1s0,0.8,0,1.2s0,0.7,0,1c-0.1,1.7-0.2,3.4-0.3,5c-0.3,2.5,0,0,0,0.1c0,0.4-0.1,0.9-0.1,1.4
	c0,0.3-0.1,0.6-0.1,0.9s-0.1,0.5-0.1,0.8c0,0.1,0,0.1,0,0.2c-0.1,0.6-0.2,1.3-0.3,1.9c-0.1,0.6-0.2,1.2-0.3,1.8
	c0,0.3-0.1,0.5-0.1,0.8c-0.1,0.3-0.1,0.8-0.2,1.1c-0.1,0.3-0.1,0.5-0.2,0.9c-0.3,1.3-0.4,2.5-0.8,3.8c-0.1,0.3-0.1,0.6-0.2,0.9
	c-0.1,0.4-0.2,0.8-0.3,1.2c-0.2,0.7-0.3,1.4-0.5,2.1c-0.1,0.4-0.2,0.8-0.3,1.2c-0.1,0.3-0.2,0.6-0.3,0.9c-0.2,0.7-0.3,1.4-0.6,2.1
	c-0.1,0.3-0.2,0.5-0.3,0.8c-0.2,0.4-0.3,1-0.4,1.5s-0.3,1-0.5,1.6c-0.2,0.5-0.3,1-0.4,1.4c-0.1,0.3-0.2,0.6-0.3,0.9
	c-0.1,0.3-0.3,0.7-0.3,1c-0.3,0.9-0.7,1.8-1,2.7c-0.2,0.4-0.3,0.8-0.5,1.2s-0.3,0.8-0.4,1.1c-0.3,0.5-0.4,1-0.7,1.6
	c-0.2,0.4-0.3,0.9-0.6,1.2c-0.4,1-0.9,1.8-1.3,2.8c-0.2,0.4-0.4,0.8-0.6,1.2c-0.4,0.9-0.9,1.7-1.4,2.6c-0.1,0.2-0.2,0.3-0.3,0.5
	c-0.2,0.3-0.3,0.6-0.4,0.9l-0.2,0.3c-0.3,0.6-0.7,1.2-1,1.7c-0.2,0.3-0.3,0.6-0.6,1s-0.5,0.9-0.8,1.3c-0.2,0.3-0.4,0.6-0.6,1
	c-0.2,0.3-0.3,0.4-0.4,0.7c-0.3,0.5-0.6,1-1,1.5c-0.7,1-1.4,2-2.1,3l0.3,0.2l-12,14.3l-28.2,33.5l-6.8,8"/>
<linearGradient id="SVGID_2_" gradientUnits="userSpaceOnUse" x1="409.6699" y1="553.65" x2="409.6699" y2="899.9914" gradientTransform="matrix(1 0 0 -1 -64.27 938.65)">
	<stop  offset="0" style="stop-color:#000000;stop-opacity:0.1"/>
	<stop  offset="0.47" style="stop-color:#000000;stop-opacity:0.3"/>
	<stop  offset="1" style="stop-color:#000000;stop-opacity:0.5"/>
</linearGradient>
<path class="st8" d="M433.4,307.1l-1.1,1.3l-5,5.9l-34,40.4l-13.1,15.6l0,0l-11.8,14.1l-0.5,0.6l-0.1-0.1l-1.2-1l-1.1-1l-3.1-2.7
	l-13.2-11.1l-6.6-5.6l-4.4-3.7l-5.7-4.9l-1-0.8l-3.6-3l-3.5-3l-13.8-11.6l-7-5.8l-2.5-2.1l-1.1-1l-6-5l-10.2-8.6l-1.3-1.1l-0.1-0.1
	l-4.3-3.6l-5.3-4.5l-5.9-5l-1-0.9l-3-2.4l0,0l0,0l-4-3.4l0,0l-11.1-9.4l-1.7-1.5l-0.3-0.3l-6.9-5.8l-4.4-3.7l-1.6-1.3l-0.8-0.7l0,0
	l-2.7-2.3l-8.2-6.9l-23.3-19.6c-0.4-0.3-0.8-0.7-1.2-1l-0.3-0.2l-0.1-0.1c-0.4-0.3-0.8-0.7-1.2-1c-0.3-0.3-0.5-0.4-0.8-0.8l-0.2-0.2
	l-0.3-0.2l-0.6-0.5l-0.1-0.1l-0.1-0.1c-0.3-0.3-0.7-0.6-1-1l-0.4-0.4l-0.3-0.3l-0.5-0.5l0,0l0,0c-0.5-0.5-1.1-1.1-1.7-1.7l-0.7-0.7
	c-0.3-0.3-0.4-0.5-0.7-0.8l-0.3-0.4c-0.2-0.3-0.4-0.4-0.6-0.7c-0.1-0.1-0.3-0.3-0.3-0.3l-0.5-0.6c-0.3-0.3-0.7-0.8-1-1.1
	s-0.4-0.5-0.6-0.8l-0.2-0.2c-0.3-0.3-0.6-0.8-1-1.1l-0.2-0.2c-0.3-0.3-0.5-0.6-0.8-1c-0.2-0.2-0.3-0.3-0.4-0.5
	c-0.2-0.2-0.3-0.4-0.5-0.7s-0.3-0.3-0.4-0.5l-0.1-0.1c-0.3-0.3-0.5-0.7-0.8-1l-0.1-0.2l-0.2-0.3l-0.3-0.3l-0.2-0.2l-0.3-0.3
	l-0.3-0.4l-0.2-0.2l-0.2-0.3c-0.3-0.3-0.4-0.6-0.7-1l-0.4-0.7c-0.3-0.4-0.5-0.8-0.8-1.2l-0.1-0.1c-0.3-0.4-0.6-0.9-0.9-1.3l-0.1-0.2
	c-0.1-0.1-0.1-0.2-0.2-0.3c-0.3-0.4-0.5-0.9-0.8-1.3c-0.2-0.3-0.4-0.7-0.6-1l-0.2-0.3l-0.6-1c-0.1-0.2-0.2-0.3-0.3-0.4l-0.2-0.3
	l-0.2-0.3V211l-0.1-0.3c0-0.1-0.1-0.1-0.1-0.2c-0.2-0.3-0.3-0.6-0.5-1c0,0,0,0,0-0.1c-0.2-0.3-0.3-0.6-0.4-0.9
	c-0.2-0.4-0.4-0.8-0.6-1.2l-0.4-1c-0.1-0.3-0.3-0.4-0.3-0.7c-0.1-0.2-0.2-0.3-0.3-0.4c-0.1-0.2-0.2-0.3-0.2-0.4c0,0,0-0.1-0.1-0.1
	l-0.1-0.1l-0.1-0.2l0.1-0.4c0,0,0-0.1-0.1-0.1c-0.1-0.3-0.2-0.4-0.3-0.7c-0.1-0.2-0.1-0.3-0.2-0.4l-0.4-1l-0.2-0.3
	c0-0.1-0.1-0.2-0.2-0.3c-0.2-0.3-0.3-0.7-0.4-1l-0.2-0.4c0-0.1-0.1-0.2-0.1-0.3s-0.2-0.3-0.2-0.5c-0.2-0.4-0.3-0.9-0.5-1.3
	c-0.1-0.2-0.2-0.3-0.2-0.5v-0.1V197v-0.1l-0.1-0.2c-0.1-0.1-0.1-0.3-0.2-0.3c0-0.1-0.1-0.3-0.1-0.3c-0.2-0.3-0.3-0.7-0.4-1
	c-0.2-0.5-0.3-1-0.6-1.6v-0.1c-0.1-0.3-0.2-0.5-0.3-0.8s-0.2-0.4-0.2-0.6c-0.3-1-0.7-2.1-1-3.2c-0.2-0.7-0.4-1.4-0.6-2.2l-0.3-1
	c-0.2-0.7-0.3-1.4-0.5-2.2l-0.3-1c-0.2-0.7-0.3-1.4-0.4-2.1v-0.2c-0.1-0.3-0.2-0.6-0.2-1l-0.2-1.1c-0.1-0.3-0.1-0.5-0.2-0.9
	c-0.1-0.5-0.2-1-0.3-1.6c-0.1-0.3-0.1-0.6-0.2-0.9c-0.1-0.7-0.3-1.5-0.3-2.2c-0.1-0.3-0.1-0.7-0.2-1c0-0.1,0-0.1,0-0.2
	c-0.1-0.7-0.2-1.4-0.3-2.1c0-0.3-0.1-0.7-0.1-1.1c0-0.3-0.1-0.7-0.1-1.1c-0.2-1.9-0.3-3.8-0.3-5.6c0-0.4,0-0.8,0-1.2
	c0-1,0-2.1,0-3.1c0-0.7,0-1.4,0-2.1c0-0.7,0-1.3,0.1-2c0-0.1,0-0.1,0-0.2c0-0.7,0.1-1.3,0.1-2s0.1-1.4,0.2-2.1v-0.1
	c0.1-0.7,0.1-1.3,0.2-2c0.1-0.6,0.1-1.4,0.2-2l0,0c0.1-0.6,0.2-1.2,0.3-1.9c0-0.1,0-0.2,0-0.3c0.1-0.7,0.2-1.3,0.3-1.9
	c0.1-0.8,0.3-1.6,0.3-2.4c0.1-0.9,0.3-1.7,0.4-2.5c0.1-0.3,0.2-0.8,0.3-1.1c0.1-0.6,0.3-1.2,0.4-1.8c0.1-0.3,0.1-0.5,0.2-0.9
	c0.1-0.3,0.2-0.6,0.2-0.9c0.2-0.6,0.3-1.2,0.4-1.8c0.1-0.3,0.1-0.4,0.2-0.7c0.2-0.5,0.3-1,0.4-1.6c0.2-0.5,0.3-1,0.4-1.6
	c0.2-0.5,0.3-1,0.4-1.5c0.1-0.3,0.2-0.5,0.3-0.8v-0.1c0.2-0.4,0.3-1,0.4-1.4c0-0.1,0.1-0.3,0.1-0.3c0.2-0.6,0.3-1.1,0.6-1.7l0,0
	c0.3-0.6,0.4-1.3,0.7-1.9c0.1-0.3,0.3-0.6,0.3-1c0.1-0.2,0.2-0.3,0.2-0.5c0.2-0.3,0.3-0.8,0.4-1.1c0.1-0.3,0.3-0.6,0.3-0.9
	c0.6-1.4,1.2-2.9,1.9-4.3c1.2-2.6,2.5-5.2,3.9-7.7c0.3-0.3,0.4-0.8,0.7-1.1c0.3-0.3,0.4-0.8,0.7-1.1c0.2-0.3,0.4-0.8,0.7-1.1
	c1.2-1.9,2.4-3.8,3.7-5.7c0.3-0.3,0.4-0.6,0.7-1l0.7-1c1-1.3,1.9-2.6,3-3.8c0.3-0.3,0.5-0.6,0.8-1c0.3-0.3,0.5-0.6,0.8-1
	c0.6-0.8,1.3-1.5,1.9-2.3c0.4-0.4,0.8-1,1.2-1.4c0.9-1,1.7-1.9,2.7-2.9c0.3-0.3,0.7-0.7,1-1c0.1-0.1,0.1-0.1,0.2-0.2
	c0.3-0.3,0.6-0.6,1-1l0.4-0.4l0.8-0.8l0.4-0.4l0.8-0.7c0.3-0.3,0.8-0.7,1.2-1l0.7-0.6l0.9-0.8c0.2-0.2,0.3-0.3,0.5-0.4
	c0.9-0.7,1.7-1.4,2.5-2.1c0.2-0.1,0.3-0.3,0.4-0.3c0.3-0.3,0.7-0.5,1-0.8l0.8-0.6c0.8-0.6,1.7-1.2,2.4-1.7l0.8-0.5l1.3-0.9l1.2-0.9
	l0.9-0.6c0.3-0.2,0.4-0.3,0.7-0.4l0.5-0.3c0.4-0.3,0.8-0.4,1.2-0.7c0.2-0.1,0.3-0.3,0.6-0.3c0.4-0.3,0.9-0.5,1.3-0.8l0.8-0.4
	c1-0.5,1.9-1,2.9-1.6l1.1-0.6l0,0l1-0.4c1.5-0.7,3-1.4,4.4-2.1l1-0.4c0.4-0.2,0.9-0.3,1.3-0.6l1.6-0.6c0.4-0.2,0.9-0.3,1.3-0.4h0.1
	l1-0.3l1.7-0.6c0.5-0.2,1.1-0.3,1.7-0.6h0.1c0.3-0.1,0.8-0.3,1.1-0.3c0.2-0.1,0.4-0.2,0.6-0.2c0.4-0.2,1-0.3,1.4-0.4l0.3-0.1
	c0.5-0.2,1-0.3,1.6-0.4l0,0c0.2,0,0.3-0.1,0.4-0.1c0.4-0.1,0.9-0.3,1.3-0.3l0.4-0.1l1.2-0.3c1.5-0.3,3-0.7,4.3-1
	c0.5-0.1,1.1-0.3,1.7-0.3h0.1c0.5-0.1,1-0.2,1.7-0.3l0.3-0.1c0.6-0.1,1.1-0.2,1.7-0.3h0.3c0.4-0.1,1-0.2,1.4-0.2l0.4-0.1
	c0.6-0.1,1.1-0.2,1.7-0.3h0.1l1.7-0.2l0.4-0.1l1.4-0.2h0.4l1.7-0.1h0.1c0.6,0,1.2-0.1,1.7-0.1c0.6,0,1.1-0.1,1.7-0.1h0.8
	c0.5,0,1,0,1.6,0s1.3,0,1.9,0s1.1,0,1.7,0s1.1,0,1.7,0c1,0,1.9,0.1,2.9,0.1l0.9,0.1c0.9,0.1,1.7,0.1,2.6,0.2c0.3,0,0.4,0,0.7,0.1
	c1,0.1,2,0.2,3,0.3c1.2,0.2,2.3,0.3,3.6,0.4c0.5,0.1,1.1,0.2,1.7,0.3c0.5,0.1,1.1,0.2,1.7,0.3c1.2,0.3,2.5,0.5,3.7,0.8l1.1,0.3
	l1,0.3l1,0.3c0.5,0.2,1,0.3,1.6,0.4c1,0.3,2,0.5,3,0.9c1.7,0.5,3.5,1,5.2,1.7c0.4,0.2,1,0.3,1.5,0.5l0.2,0.1c0.5,0.2,1,0.3,1.5,0.5
	c0.4,0.2,1,0.3,1.4,0.6l0.4,0.2l1.4,0.6c0.6,0.3,1.1,0.4,1.7,0.7l1.5,0.7l0,0c0.5,0.3,1,0.4,1.6,0.8c0.4,0.2,0.8,0.3,1.2,0.6
	c0.5,0.3,1,0.5,1.7,0.8l0.7,0.3l1,0.5l0.2,0.1c4.2,2.3,8.3,4.8,12.1,7.6l1,0.8c0.7,0.4,1.3,1,2,1.5l0.6,0.4c1,0.8,2.1,1.7,3.1,2.5
	l0.3,0.2c0.3-0.3,0.7-0.7,1-1c0.6-0.6,1.2-1.2,1.8-1.8c0.3-0.3,0.7-0.6,1-1c0.3-0.3,0.6-0.5,0.9-0.8s0.8-0.7,1.1-1
	c0.3-0.3,0.6-0.5,0.9-0.8s0.8-0.7,1.1-1l1-0.9c0.3-0.3,0.7-0.5,1-0.8c1-0.8,1.9-1.6,2.9-2.3c0.3-0.3,0.7-0.5,1-0.8
	c0.2-0.2,0.3-0.3,0.5-0.4l0.9-0.6c0.3-0.3,0.7-0.5,1-0.8l1-0.7l1-0.7c1.1-0.7,2.3-1.4,3.3-2.1c0.3-0.2,0.4-0.3,0.7-0.4
	c0.7-0.4,1.4-0.8,2.1-1.2c0.4-0.3,0.8-0.4,1.2-0.7c1.1-0.6,2.3-1.2,3.4-1.8l0.8-0.3l0.8-0.3c0.4-0.2,0.9-0.4,1.2-0.6
	c0.4-0.2,0.9-0.4,1.2-0.6l1.3-0.6c0.4-0.2,0.9-0.3,1.3-0.5s1-0.4,1.4-0.6l1.1-0.4c0.4-0.2,0.9-0.3,1.3-0.4l1.2-0.4l0,0
	c0.9-0.3,1.7-0.6,2.6-1l1.3-0.4l1.3-0.4c0.4-0.2,0.9-0.3,1.3-0.4l1.3-0.3c0.9-0.3,1.7-0.5,2.6-0.7l1.3-0.3c0.9-0.3,1.7-0.4,2.7-0.6
	c0.9-0.2,1.7-0.3,2.7-0.5s1.8-0.3,2.7-0.5L403,40c1-0.2,2-0.3,3-0.4l1.6-0.2c1.6-0.2,3-0.3,4.6-0.4c1-0.1,2-0.2,3-0.2
	c2.1-0.1,4.2-0.2,6.3-0.1c0.2,0,0.4,0,0.6,0h0.9c0.4,0,0.8,0,1.2,0h1c0.4,0,0.9,0,1.3,0.1c0.4,0,0.8,0,1.2,0.1l1.2,0.1
	c0.4,0,0.8,0.1,1.2,0.1l0.9,0.1c0.5,0,1,0.1,1.5,0.2c0.1,0,0.3,0,0.3,0c0.4,0,0.9,0.1,1.3,0.2l0.7,0.1c0.4,0.1,0.9,0.1,1.3,0.2
	l1,0.2c0.5,0.1,1,0.2,1.6,0.3c0.5,0.1,1,0.2,1.6,0.3s1.2,0.2,1.7,0.3c0.3,0.1,0.7,0.1,1,0.2c0.4,0.1,0.9,0.2,1.3,0.3
	c0.3,0.1,0.5,0.1,0.9,0.2c0.3,0.1,0.4,0.1,0.6,0.2l1.8,0.4l0.3,0.1l0.8,0.2l1.7,0.4c0.6,0.2,1.3,0.3,1.9,0.5h0.1l1.3,0.4
	c0.4,0.2,0.9,0.3,1.3,0.4l0.4,0.2c1,0.3,2,0.7,3,1c0.3,0.1,0.6,0.3,0.9,0.3c2.7,1,5.4,2.2,8.1,3.4c0.3,0.2,0.6,0.3,1,0.4
	c2.3,1,4.5,2.3,6.8,3.5l0.8,0.4c0.4,0.3,0.9,0.4,1.2,0.7c0.7,0.4,1.5,0.9,2.2,1.3l0.9,0.6c0.1,0.1,0.2,0.1,0.3,0.2
	c1.7,1,3.4,2.3,5,3.4l0,0c0.3,0.3,0.6,0.4,1,0.7s0.9,0.6,1.3,1l0.7,0.5l0.3,0.3c0.7,0.5,1.3,1,2,1.6l0.7,0.6l0.8,0.6
	c0.3,0.3,0.8,0.7,1.1,1c0.7,0.6,1.3,1.1,1.9,1.7c0.3,0.3,0.5,0.4,0.8,0.7l0.2,0.1l0.3,0.3c0.9,0.8,1.7,1.6,2.5,2.4
	c0.3,0.3,0.7,0.7,1,1s0.4,0.4,0.7,0.7c0.5,0.5,1,1.1,1.6,1.7l0.5,0.6c1.1,1.3,2.3,2.5,3.4,3.8c0.3,0.3,0.5,0.6,0.8,1
	c0.2,0.2,0.3,0.4,0.5,0.6c0.2,0.3,0.3,0.4,0.5,0.6c0.1,0.1,0.1,0.1,0.1,0.2c0.2,0.3,0.3,0.4,0.6,0.8c0.3,0.4,0.6,0.8,1,1.2
	c0.3,0.5,0.8,1,1.1,1.5c0.3,0.4,0.6,0.8,0.9,1.2c0.3,0.4,0.7,1,1,1.5c0.7,1,1.3,2,2,3l0,0c0.3,0.5,0.6,1,1,1.5c0.3,0.5,0.6,1,1,1.6
	c0.3,0.5,0.6,1,0.9,1.6c0.3,0.5,0.5,1,0.8,1.4c0.9,1.5,1.7,3,2.3,4.6c0.1,0.3,0.3,0.5,0.3,0.8c0.2,0.3,0.3,0.7,0.4,1l0.1,0.2
	c0.2,0.4,0.4,0.9,0.6,1.4c0.3,0.6,0.5,1.2,0.8,1.8c0.2,0.3,0.3,0.8,0.4,1.1c0.6,1.4,1.1,2.8,1.7,4.2c0.1,0.3,0.3,0.6,0.3,1
	c0.1,0.3,0.2,0.5,0.3,0.9c0.2,0.4,0.3,0.9,0.4,1.3c0.1,0.3,0.2,0.6,0.3,1c0.1,0.3,0.2,0.5,0.3,0.8c0.3,1,0.6,1.9,0.9,2.9
	c0.1,0.3,0.2,0.4,0.2,0.7c0.1,0.4,0.3,0.8,0.3,1.2c0.2,0.5,0.3,1.1,0.4,1.7c0.2,0.6,0.3,1.1,0.4,1.7v0.1c0.1,0.3,0.2,0.8,0.3,1.1
	l0.2,0.7c0.2,0.7,0.3,1.3,0.4,2c0.1,0.4,0.2,0.9,0.3,1.3c0.1,0.7,0.3,1.3,0.3,2c0.1,0.4,0.2,0.9,0.2,1.3c0,0.1,0,0.2,0.1,0.3
	c0.1,0.4,0.1,0.8,0.2,1.2c0,0.2,0,0.3,0.1,0.4c0.1,0.4,0.1,1,0.2,1.4c0.1,0.7,0.2,1.3,0.3,2c0.2,1.4,0.3,2.9,0.3,4.3
	c0,0.4,0.1,1,0.1,1.5s0.1,1,0.1,1.5c0,0.3,0,0.7,0,1.1c0.1,1.6,0.1,3.2,0.1,4.9c0,0.3,0,0.6,0,1s0,0.8,0,1.2s0,0.7,0,1
	c-0.1,1.7-0.2,3.4-0.3,5c-0.3,2.5,0,0,0,0.1c0,0.4-0.1,0.9-0.1,1.4c0,0.3-0.1,0.6-0.1,0.9s-0.1,0.5-0.1,0.8c0,0.1,0,0.1,0,0.2
	c-0.1,0.6-0.2,1.3-0.3,1.9c-0.1,0.6-0.2,1.2-0.3,1.8c0,0.3-0.1,0.5-0.1,0.8c-0.1,0.3-0.1,0.8-0.2,1.1c-0.1,0.3-0.1,0.5-0.2,0.9
	c-0.3,1.3-0.4,2.5-0.8,3.8c-0.1,0.3-0.1,0.6-0.2,0.9c-0.1,0.4-0.2,0.8-0.3,1.2c-0.2,0.7-0.3,1.4-0.5,2.1c-0.1,0.4-0.2,0.8-0.3,1.2
	c-0.1,0.3-0.2,0.6-0.3,0.9c-0.2,0.7-0.3,1.4-0.6,2.1c-0.1,0.3-0.2,0.5-0.3,0.8c-0.2,0.4-0.3,1-0.4,1.5c-0.2,0.5-0.3,1-0.5,1.6
	s-0.3,1-0.4,1.4c-0.1,0.3-0.2,0.6-0.3,0.9c-0.1,0.3-0.3,0.7-0.3,1c-0.3,0.9-0.7,1.8-1,2.7c-0.2,0.4-0.3,0.8-0.5,1.2
	s-0.3,0.8-0.4,1.1c-0.3,0.5-0.4,1-0.7,1.6c-0.2,0.4-0.3,0.9-0.6,1.2c-0.4,1-0.9,1.8-1.3,2.8c-0.2,0.4-0.4,0.8-0.6,1.2
	c-0.4,0.9-0.9,1.7-1.4,2.6c-0.1,0.2-0.2,0.3-0.3,0.5c-0.2,0.3-0.3,0.6-0.4,0.9l-0.2,0.3c-0.3,0.6-0.7,1.2-1,1.7
	c-0.2,0.3-0.3,0.6-0.6,1s-0.5,0.9-0.8,1.3c-0.2,0.3-0.4,0.6-0.6,1c-0.2,0.3-0.3,0.4-0.4,0.7c-0.3,0.5-0.6,1-1,1.5
	c-0.7,1-1.4,2-2.1,3l0.3,0.2l-12,14.3L471.4,263l-6.8,8"/>
<path class="st0" d="M517.5,204.5c-0.3,0.6-0.7,1.2-1,1.7c-0.2,0.3-0.3,0.6-0.6,1s-0.5,0.9-0.8,1.3c-0.2,0.3-0.4,0.6-0.6,1
	c-0.2,0.3-0.3,0.4-0.4,0.7c-0.3,0.5-0.6,1-1,1.5c-0.7,1-1.4,2-2.1,3l0.3,0.2l-12,14.3l-28.2,33.5c-5.3,1.2-10.7,2.3-16.2,3.2
	c-17.5,2.9-36.1,5.6-55.2,8.2l-3.5,0.4h-0.3l-0.6,0.1L392,275c-1.4,0.2-2.8,0.3-4.1,0.5c-1,0.1-2,0.3-3,0.3l-1.3,0.2
	c-21.7,2.6-43.7,4.7-65.2,6l-1.1,0.1c-1.7,0.1-3.4,0.2-5.1,0.3c-2.5,0.2-5,0.3-7.6,0.3c-10.1,0.4-20,0.6-29.6,0.6
	c-2.3,0-4.6,0-6.9-0.1h-2.3h-1c-1.6,0-3.1-0.1-4.6-0.1c-2.6-0.1-5.1-0.2-7.6-0.3c-1.3-0.1-2.6-0.2-3.8-0.2l-2.7-0.2l-0.3-0.3
	l-6.9-5.8l-4.4-3.7l-1.6-1.3l-0.8-0.7l0,0l-2.7-2.3l-8.2-6.9L198,241.8c-0.4-0.3-0.8-0.7-1.2-1l-0.3-0.2l-0.1-0.1
	c-0.4-0.3-0.8-0.7-1.2-1c-0.3-0.3-0.5-0.4-0.8-0.8l-0.2-0.2l-0.3-0.2l-0.6-0.5l-0.1-0.1l-0.1-0.1c-0.3-0.3-0.7-0.6-1-1l-0.2-0.1
	l-0.7-0.6c-0.2-0.2-0.3-0.3-0.5-0.5c0,0,0,0-0.1-0.1c-0.5-0.5-1.1-1.1-1.7-1.7l-0.7-0.7c-0.3-0.3-0.4-0.5-0.7-0.8l-0.3-0.4
	c-0.2-0.3-0.4-0.4-0.6-0.7c-0.1-0.1-0.3-0.3-0.3-0.3l-0.5-0.6c-0.3-0.3-0.7-0.8-1-1.1s-0.4-0.5-0.6-0.8L184,228l-0.1-0.2
	c-0.3-0.3-0.5-0.6-0.8-1l-0.2-0.2c-0.3-0.3-0.5-0.6-0.8-1c-0.2-0.2-0.3-0.3-0.4-0.5s-0.3-0.4-0.5-0.7s-0.3-0.3-0.4-0.5l-0.1-0.1
	l-0.6-0.8l-0.2-0.3l-0.1-0.2l-0.2-0.3l-0.3-0.3l-0.2-0.2l-0.3-0.3l-0.3-0.4l-0.2-0.2l-0.2-0.3c-0.3-0.3-0.4-0.6-0.7-1l-0.4-0.7
	c-0.3-0.4-0.5-0.8-0.8-1.2l-0.1-0.1c-0.3-0.4-0.6-0.9-0.9-1.3l-0.1-0.2c-0.1-0.1-0.1-0.2-0.2-0.3c-0.3-0.4-0.5-0.9-0.8-1.3
	c-0.2-0.3-0.4-0.7-0.6-1l-0.2-0.3l-0.6-1c-0.1-0.2-0.2-0.3-0.3-0.4l-0.2-0.3l-0.2-0.3V211l-0.1-0.3c0-0.1-0.1-0.1-0.1-0.2
	c-0.2-0.3-0.3-0.6-0.5-1c0,0,0,0,0-0.1c-0.2-0.3-0.3-0.6-0.4-0.9c-0.2-0.4-0.4-0.8-0.6-1.2l-0.4-1c-0.1-0.3-0.3-0.4-0.3-0.7
	c-0.1-0.2-0.2-0.3-0.3-0.4c-0.1-0.2-0.2-0.3-0.2-0.4c0,0,0-0.1-0.1-0.1l-0.1-0.1l-0.1-0.2l-0.3-0.8c0,0,0-0.1-0.1-0.1
	c-0.1-0.3-0.2-0.4-0.3-0.7c-0.1-0.2-0.1-0.3-0.2-0.4l-0.4-1l-0.2-0.3c0-0.1-0.1-0.2-0.2-0.3l66.7,0.7h0.6h2.3l4.8,0.1h3.6h1h3.3
	l21.4,0.2l28,0.3l0,0l25.7,0.3h1.1h3.2h4.3h3h0.6h0.3h3L517.5,204.5z"/>
<path class="st0" d="M509.9,82.8H186.4c0.4-0.4,0.8-1,1.2-1.4c0.9-1,1.7-1.9,2.7-2.9c0.3-0.3,0.7-0.7,1-1c0.1-0.1,0.1-0.1,0.2-0.2
	c0.3-0.3,0.6-0.6,1-1l0.4-0.4l0.8-0.8l0.4-0.4l0.8-0.7c0.3-0.3,0.8-0.7,1.2-1l0.7-0.6l0.9-0.8c0.2-0.2,0.3-0.3,0.5-0.4
	c0.9-0.7,1.7-1.4,2.5-2.1c0.2-0.1,0.3-0.3,0.4-0.3c0.3-0.3,0.7-0.5,1-0.8l0.8-0.6c0.8-0.6,1.7-1.2,2.4-1.7l0.8-0.5l1.3-0.9l1.2-0.9
	l0.9-0.6c0.3-0.2,0.4-0.3,0.7-0.4l0.5-0.3c0.4-0.3,0.8-0.4,1.2-0.7c0.2-0.1,0.3-0.3,0.6-0.3c0.4-0.3,0.9-0.5,1.3-0.8l0.8-0.4
	c1-0.5,1.9-1,2.9-1.6l1.1-0.6l0,0l1-0.4c1.5-0.7,3-1.4,4.4-2.1l1-0.4c0.4-0.2,0.9-0.3,1.3-0.6l1.6-0.6c0.4-0.2,0.9-0.3,1.3-0.4h0.1
	l1-0.3l1.7-0.6c0.5-0.2,1.1-0.3,1.7-0.6h0.1c0.3-0.1,0.8-0.3,1.1-0.3c0.2-0.1,0.4-0.2,0.6-0.2c0.4-0.2,1-0.3,1.4-0.4l0.3-0.1
	c0.5-0.2,1-0.3,1.6-0.4l0,0c27.9,6.3,56.4,8.7,83.3,9c4.2,2.3,8.3,4.8,12.1,7.6l1.1,0.9c0.7,0.4,1.3,1,2,1.5l0.6,0.4
	c1,0.8,2.1,1.7,3.1,2.5l0.3,0.2c0.3-0.3,0.7-0.7,1-1c0.6-0.6,1.2-1.2,1.8-1.8c0.3-0.3,0.7-0.6,1-1s0.6-0.5,0.9-0.8s0.8-0.7,1.1-1
	c0.3-0.3,0.6-0.5,0.9-0.8s0.8-0.7,1.1-1l1-0.9c0.3-0.3,0.7-0.5,1-0.8c1-0.8,1.9-1.6,2.9-2.3c0.3-0.3,0.7-0.5,1-0.8
	c0.2-0.2,0.3-0.3,0.5-0.4l0.9-0.6c0.3-0.3,0.7-0.5,1-0.8c24.4-1.4,48.7-4.3,72.7-8.6c7.6-1.4,15-3.6,22.2-6.5l1.3,0.4
	c0.4,0.2,0.9,0.3,1.3,0.4l0.4,0.2c1,0.3,2,0.7,3,1c0.3,0.1,0.6,0.3,0.9,0.3c2.7,1,5.4,2.2,8.1,3.4c0.3,0.2,0.6,0.3,1,0.4
	c2.3,1,4.5,2.3,6.8,3.5l0.8,0.4c0.4,0.3,0.9,0.4,1.2,0.7c0.7,0.4,1.5,0.9,2.2,1.3c0.4,0.3,0.8,0.5,1.2,0.8c1.7,1,3.4,2.3,5,3.4
	l1,0.7c0.4,0.3,0.9,0.6,1.3,1l1,0.8c0.7,0.5,1.3,1,2,1.6l0.7,0.6l0.8,0.6c0.3,0.3,0.8,0.7,1.1,1c0.7,0.6,1.3,1.1,1.9,1.7
	c0.3,0.3,0.5,0.4,0.8,0.7l0.2,0.1l0.3,0.3c0.9,0.8,1.7,1.6,2.5,2.4c0.3,0.3,0.7,0.7,1,1s0.4,0.4,0.7,0.7c0.5,0.5,1,1.1,1.6,1.7
	l0.5,0.6c1.1,1.3,2.3,2.5,3.4,3.8c0.3,0.3,0.5,0.6,0.8,1c0.2,0.2,0.3,0.4,0.5,0.6c0.2,0.3,0.3,0.4,0.5,0.6c0.1,0.1,0.1,0.1,0.1,0.2
	c0.2,0.3,0.3,0.4,0.6,0.8C509.3,82.1,509.7,82.4,509.9,82.8z"/>
<path class="st0" d="M247.6,174.1L247.6,174.1c0.1,0.3,0.2,0.4,0.3,0.7l0.3,0.7h3C249.7,175.5,248.4,175,247.6,174.1z M247.6,174.1
	L247.6,174.1c0.1,0.3,0.2,0.4,0.3,0.7l0.3,0.7h3C249.7,175.5,248.4,175,247.6,174.1z M247.6,174.1L247.6,174.1
	c0.1,0.3,0.2,0.4,0.3,0.7l0.3,0.7h3C249.7,175.5,248.4,175,247.6,174.1z M247.6,174.1L247.6,174.1c0.1,0.3,0.2,0.4,0.3,0.7l0.3,0.7
	h3C249.7,175.5,248.4,175,247.6,174.1z M247.6,174.1c0.1,0.3,0.2,0.4,0.2,0.7c0.1,0.3,0.2,0.4,0.3,0.7h3
	C249.7,175.5,248.4,175,247.6,174.1z M388.1,151.9l-1.4-0.1H386h-0.7h-0.2l-1-0.1l-4.5-0.3l-1-0.1l-4.3-0.3l-1.7-0.1L216.1,143h-0.8
	l-12.7-0.6l-2-0.1l-3-0.2l-1.4-0.1l-1.8-0.1l-1.8-0.1l-33.2-1.7c-0.1,0.7-0.2,1.3-0.3,1.9c0,0.1,0,0.2,0,0.3
	c-0.1,0.6-0.2,1.3-0.3,1.9l0,0c-0.1,0.7-0.2,1.4-0.2,2c-0.1,0.7-0.1,1.3-0.2,2v0.1c-0.1,0.7-0.1,1.4-0.2,2.1c0,0.7-0.1,1.3-0.1,2
	c0,0.1,0,0.1,0,0.2c0,0.6,0,1.3-0.1,2s0,1.4,0,2.1c0,1,0,2.1,0,3.1c0,0.4,0,0.8,0,1.2c0.1,1.9,0.2,3.8,0.3,5.6
	c0,0.3,0.1,0.7,0.1,1.1c0,0.3,0.1,0.7,0.1,1.1c0.1,0.7,0.2,1.4,0.3,2.1c0,0.1,0,0.2,0,0.2c0.1,0.3,0.1,0.7,0.2,1
	c0.1,0.7,0.2,1.5,0.3,2.2c0.1,0.3,0.1,0.6,0.2,0.9c0.1,0.5,0.2,1,0.3,1.6c0.1,0.3,0.1,0.6,0.2,0.9l0.2,1.1c0.1,0.3,0.1,0.6,0.2,1
	v0.2c0.2,0.7,0.3,1.4,0.4,2.1l0.3,1c0.2,0.7,0.3,1.4,0.5,2.2l0.3,1c0.2,0.7,0.3,1.4,0.6,2.2c0.3,1,0.6,2.2,1,3.2l28.3,0.9h1.3
	l5.6,0.2l4.9,0.2h1.2l27.2,0.9l4.9,0.2l6.6,0.2l0,0h1h0.6h1l4.3,0.2l74.6,2.3l0,0l5.1,0.2l0,0l5.6,0.2h1l0,0h0.3l0,0l4.3,0.2
	l42.1,1.4h0.8h0.1l5.7,0.2h0.1h1.2l29.6,1l5.2,0.2l7.8,0.3h0.3h0.5l1.4,0.1l1.8,0.1l4.5,0.2l75.6,2.4c0.4-0.9,1-1.7,1.4-2.6
	c0.2-0.4,0.4-0.8,0.6-1.2c0.4-1,1-1.8,1.3-2.8c0.2-0.4,0.3-0.9,0.6-1.2c0.3-0.5,0.4-1,0.7-1.6c0.2-0.3,0.3-0.8,0.4-1.1
	c0.2-0.3,0.3-0.8,0.5-1.2c0.3-0.9,0.7-1.8,1-2.7c0.1-0.3,0.3-0.7,0.3-1c0.1-0.3,0.2-0.6,0.3-0.9c0.2-0.4,0.3-1,0.4-1.4
	c0.2-0.4,0.3-1,0.5-1.6c0.2-0.5,0.3-1,0.4-1.5c0.1-0.3,0.2-0.5,0.3-0.8c0.2-0.7,0.4-1.4,0.6-2.1c0.1-0.3,0.2-0.6,0.3-0.9
	c0.1-0.4,0.3-0.8,0.3-1.2c0.2-0.7,0.3-1.4,0.5-2.1c0.1-0.4,0.2-0.9,0.3-1.2s0.1-0.6,0.2-0.9c0.3-1.3,0.5-2.5,0.8-3.8
	c0.1-0.3,0.1-0.5,0.2-0.9c0.1-0.3,0.1-0.8,0.2-1.1c0-0.3,0.1-0.5,0.1-0.8c0.1-0.6,0.2-1.2,0.3-1.8s0.2-1.3,0.3-1.9
	c0-0.1,0-0.1,0-0.2c0-0.3,0.1-0.5,0.1-0.8s0.1-0.6,0.1-0.9c0.1-0.4,0.1-0.9,0.1-1.4c0,0,0,0,0-0.1L388.1,151.9z M302.4,175.5h-8.9
	c2.4,0,4.4,1.7,4.4,3.8s-2,3.8-4.4,3.8h-51.4c-2.3-0.1-4.3-1.7-4.3-3.8c0-1.3,0.7-2.4,1.8-3.1l0,0c0.8-0.5,1.7-0.8,2.6-0.8h8.9
	c-1.3,0-2.5-0.5-3.4-1.4l0,0c-0.6-0.7-1-1.6-1-2.4c0-0.1,0-0.3,0-0.3l0,0c0.2-2,2.1-3.6,4.4-3.6h-6.3c-2.4,0-4.4-1.7-4.4-3.8
	s2-3.8,4.4-3.8H296c2.4,0,4.4,1.7,4.4,3.8s-2,3.8-4.4,3.8h6.3c2.4,0,4.4,1.7,4.4,3.8S304.8,175.5,302.4,175.5z M247.6,174.1
	L247.6,174.1c0.1,0.3,0.2,0.4,0.3,0.7l0.3,0.7h3C249.7,175.5,248.5,175,247.6,174.1L247.6,174.1z M247.6,174.1L247.6,174.1
	c0.1,0.3,0.2,0.4,0.3,0.7l0.3,0.7h3C249.7,175.5,248.5,175,247.6,174.1L247.6,174.1z M247.6,174.1L247.6,174.1
	c0.1,0.3,0.2,0.4,0.3,0.7l0.3,0.7h3C249.7,175.5,248.5,175,247.6,174.1L247.6,174.1z M247.6,174.1L247.6,174.1
	c0.1,0.3,0.2,0.4,0.3,0.7l0.3,0.7h3C249.7,175.5,248.5,175,247.6,174.1L247.6,174.1z M247.6,174.1L247.6,174.1
	c0.1,0.3,0.2,0.4,0.3,0.7l0.3,0.7h3C249.7,175.5,248.5,175,247.6,174.1L247.6,174.1z"/>
<path class="st0" d="M168.2,113.4c0-2.1,2-3.8,4.4-3.8h-3.9c-0.7,1.4-1.3,2.9-1.9,4.3c-0.1,0.3-0.3,0.6-0.3,0.9
	c-0.2,0.3-0.3,0.8-0.4,1.1c-0.1,0.2-0.2,0.3-0.2,0.5c-0.1,0.3-0.3,0.6-0.3,1h7.1C170.2,117.3,168.2,115.5,168.2,113.4z M531.2,135.9
	c-0.1-0.4-0.1-1-0.2-1.4c0-0.2,0-0.3-0.1-0.4c-0.1-0.4-0.1-0.8-0.2-1.2c0-0.1,0-0.2-0.1-0.3c-0.1-0.4-0.2-0.9-0.2-1.3
	c-0.1-0.7-0.3-1.3-0.3-2c-0.1-0.4-0.2-0.9-0.3-1.3c-0.1-0.7-0.3-1.3-0.4-2l-0.2-0.7c-0.1-0.3-0.2-0.8-0.3-1.1v-0.1
	c-0.1-0.5-0.3-1.1-0.4-1.7c-0.2-0.6-0.3-1.1-0.4-1.7c-0.1-0.4-0.3-0.8-0.3-1.2c-0.1-0.3-0.2-0.4-0.2-0.7c-0.3-1-0.5-1.9-0.9-2.9
	c-0.1-0.3-0.2-0.5-0.3-0.8s-0.2-0.6-0.3-1c-0.2-0.4-0.3-0.9-0.4-1.3c-0.1-0.3-0.2-0.5-0.3-0.9c-0.1-0.3-0.3-0.6-0.3-1
	c-0.5-1.4-1-2.8-1.7-4.2c-0.2-0.3-0.3-0.8-0.4-1.1c-0.3-0.6-0.5-1.2-0.8-1.8c-0.2-0.4-0.4-0.9-0.6-1.4l-0.1-0.2
	c-0.2-0.3-0.3-0.7-0.4-1c-0.1-0.3-0.3-0.5-0.3-0.8c-0.8-1.6-1.6-3-2.3-4.6c-0.3-0.4-0.5-1-0.8-1.4s-0.6-1-0.9-1.6
	c-0.3-0.5-0.6-1-1-1.6c-0.3-0.5-0.6-1-1-1.5l0,0c-0.6-1-1.3-2-2-3c-0.3-0.4-0.7-1-1-1.5l-333.4,7c-1.3,1.8-2.6,3.7-3.7,5.7
	c-0.3,0.3-0.4,0.8-0.7,1.1c-0.3,0.3-0.4,0.8-0.7,1.1c-0.2,0.3-0.4,0.8-0.7,1.1h44.9c2.4,0,4.4,1.7,4.4,3.8s-2,3.8-4.4,3.8h6.3
	c2.4,0,4.4,1.7,4.4,3.8s-2,3.8-4.4,3.8h-8.9c2.4,0,4.4,1.7,4.4,3.8s-2,3.8-4.4,3.8h-51.4c-0.3,0-0.6,0-0.9-0.1
	c-0.2,0.5-0.3,1-0.4,1.6c-0.2,0.5-0.3,1-0.4,1.6c-0.1,0.3-0.1,0.4-0.2,0.7c-0.2,0.6-0.3,1.2-0.4,1.8c-0.1,0.3-0.2,0.6-0.2,0.9
	s-0.1,0.5-0.2,0.9c-0.2,0.6-0.3,1.2-0.4,1.8c-0.1,0.3-0.2,0.8-0.3,1.1c-0.2,0.9-0.3,1.7-0.4,2.5h371.6
	C531.4,137.2,531.3,136.5,531.2,135.9z"/>
<path class="st1" d="M433.4,307.1l-1.1,1.3l-5,5.9l-34,40.4l-13.1,15.6l0,0l-11.8,14.1l-0.5,0.6l-0.1-0.1l-1.2-1l-1.1-1l-3.1-2.7
	l-13.2-11.1l-6.6-5.6l-4.4-3.7l-5.7-4.9l-1-0.8l-3.6-3l-3.5-3l-13.8-11.6l-7-5.8l-2.5-2.1l-1.1-1l-6-5l-10.2-8.6l-1.3-1.1l-0.1-0.1
	l-4.3-3.6l-5.3-4.5l-5.9-5l-1-0.9l-3-2.4l0,0l-4-3.4l-11.1-9.4l-1.7-1.5l-0.3-0.3l-6.9-5.8l-4.4-3.7l-1.6-1.3l-0.8-0.7l0,0l-2.7-2.3
	l-8.2-6.9l-23.3-19.6c-0.4-0.3-0.8-0.7-1.2-1l-0.3-0.2l-0.1-0.1c-0.4-0.3-0.8-0.7-1.2-1c-0.3-0.3-0.5-0.4-0.8-0.8l-0.2-0.2l-0.3-0.2
	l-0.6-0.5l-0.1-0.1l-0.1-0.1c-0.3-0.3-0.7-0.6-1-1l-0.4-0.4l-0.3-0.3l-0.5-0.5l0,0l0,0c-0.5-0.5-1.1-1.1-1.7-1.7l-0.7-0.7
	c-0.3-0.3-0.4-0.5-0.7-0.8l-0.3-0.4c-0.2-0.3-0.4-0.4-0.6-0.7c-0.3-0.3-0.6-0.7-0.9-1c-0.3-0.3-0.7-0.8-1-1.1s-0.4-0.5-0.6-0.8
	l-0.2-0.2c-0.3-0.3-0.6-0.8-1-1.1l-0.2-0.2c-0.3-0.3-0.5-0.6-0.8-1c-0.2-0.2-0.3-0.3-0.4-0.5c-0.2-0.2-0.3-0.4-0.5-0.7
	s-0.3-0.3-0.4-0.5l-0.1-0.1c-0.3-0.3-0.5-0.7-0.8-1l-0.1-0.2l-0.2-0.3l-0.3-0.3l-0.2-0.2l-0.5-0.7l-0.2-0.2l-0.2-0.3
	c-0.3-0.3-0.4-0.6-0.7-1l-0.4-0.7c-0.3-0.4-0.5-0.8-0.8-1.2l-0.1-0.1c-0.3-0.4-0.6-0.9-0.9-1.3l-0.1-0.2c-0.1-0.1-0.1-0.2-0.2-0.3
	c-0.3-0.4-0.5-0.9-0.8-1.3c-0.2-0.3-0.4-0.7-0.6-1l-0.2-0.3l-0.6-1c-0.1-0.2-0.2-0.3-0.3-0.4l-0.2-0.3l-0.2-0.3v-0.1
	c-0.1-0.1-0.2-0.3-0.3-0.4c-0.2-0.3-0.3-0.6-0.5-1c0,0,0,0,0-0.1c-0.2-0.3-0.3-0.6-0.4-0.9c-0.2-0.4-0.4-0.8-0.6-1.2l-0.4-1
	c-0.1-0.3-0.3-0.4-0.3-0.7c-0.1-0.2-0.2-0.3-0.3-0.4c-0.1-0.2-0.2-0.3-0.2-0.4c0,0,0-0.1-0.1-0.1l-0.1-0.1l-0.1-0.2l-0.3-0.8
	c0,0,0-0.1-0.1-0.1c-0.1-0.3-0.2-0.4-0.3-0.7c-0.1-0.2-0.1-0.3-0.2-0.4l-0.4-1l-0.2-0.3c0-0.1-0.1-0.2-0.2-0.3
	c-0.2-0.3-0.3-0.7-0.4-1l-0.2-0.4c0-0.1-0.1-0.2-0.1-0.3s-0.2-0.3-0.2-0.5c-0.2-0.4-0.3-0.9-0.5-1.3c-0.1-0.2-0.2-0.3-0.2-0.5v-0.1
	v-0.1v-0.1l-0.1-0.2c-0.1-0.1-0.1-0.3-0.2-0.3c0-0.1-0.1-0.3-0.1-0.3c-0.2-0.3-0.3-0.7-0.4-1c-0.2-0.5-0.3-1-0.6-1.6V193
	c9.6,0.3,19.2,0.3,27.8-0.4c10.1-0.9,18.8-2.8,24.8-6.1c0,0,5.6,1.4,13.7,3.6c1.6,0.4,3.3,0.9,5,1.4c2.5,0.7,5.1,1.4,7.9,2.2
	l1.2,0.3l0.6,0.2l0.9,0.3l4.3,1.2c7,2.1,14.3,4.3,20.5,6.3c7,2.3,12.9,4.6,16.4,6.4c0.7,0.3,1.2,0.7,1.7,1c0.3,0.2,0.7,0.4,1,0.6
	c6.6,3.6,20.4,5.6,33.1,6.4c1.7,0.1,3.2,0.2,4.8,0.3c2.5,0.1,4.9,0.2,7.1,0.2h1c1,0,2,0,3,0c1.7,0,3.2-0.1,4.5-0.3
	c1.4-0.1,2.8-0.3,4.2-0.7c6.6-2.2,36.4-8.3,42.1-4.5s61.7,9.6,71.9,4.5c10.2-5,3.2-10.5,14.9-4.5c2.9,1.5,11.2,8.3,22.2,17.6
	l-28.2,33.5l-6.8,8"/>
<path class="st9" d="M433.4,307.1l-1.1,1.3l-5,5.9l-34,40.4l-13.1,15.6l0,0l-11.8,14.1l-0.5,0.6l-0.1-0.1l-1.2-1l-1.1-1l-3.1-2.7
	l-13.2-11.1l-6.6-5.6l-4.4-3.7l-5.7-4.9l-1-0.8l-3.6-3l-3.5-3l-13.8-11.6l-7-5.8l-2.5-2.1l-1.1-1l-6-5l-10.2-8.6l-1.3-1.1l-0.1-0.1
	l-4.3-3.6l-5.3-4.5l-5.9-5l-1-0.9l-3-2.4l0,0l-4-3.4l-11.1-9.4l-1.7-1.5l-0.3-0.3l-6.9-5.8l-4.4-3.7l-1.6-1.3l-0.8-0.7l0,0l-2.7-2.3
	l-8.2-6.9l-23.3-19.6c-0.4-0.3-0.8-0.7-1.2-1l-0.3-0.2l-0.1-0.1c-0.4-0.3-0.8-0.7-1.2-1c-0.3-0.3-0.5-0.4-0.8-0.8l-0.2-0.2l-0.3-0.2
	l-0.6-0.5l-0.1-0.1l-0.1-0.1c-0.3-0.3-0.7-0.6-1-1l-0.4-0.4l-0.3-0.3l-0.5-0.5l0,0l0,0c-0.5-0.5-1.1-1.1-1.7-1.7l-0.7-0.7
	c-0.3-0.3-0.4-0.5-0.7-0.8l-0.3-0.4c-0.2-0.3-0.4-0.4-0.6-0.7c-0.3-0.3-0.6-0.7-0.9-1c-0.3-0.3-0.7-0.8-1-1.1s-0.4-0.5-0.6-0.8
	l-0.2-0.2c-0.3-0.3-0.6-0.8-1-1.1l-0.2-0.2c-0.3-0.3-0.5-0.6-0.8-1c-0.2-0.2-0.3-0.3-0.4-0.5c-0.2-0.2-0.3-0.4-0.5-0.7
	s-0.3-0.3-0.4-0.5l-0.1-0.1c-0.3-0.3-0.5-0.7-0.8-1l-0.1-0.2l-0.2-0.3l-0.3-0.3l-0.2-0.2l-0.5-0.7l-0.2-0.2l-0.2-0.3
	c-0.3-0.3-0.4-0.6-0.7-1l-0.4-0.7c-0.3-0.4-0.5-0.8-0.8-1.2l-0.1-0.1c-0.3-0.4-0.6-0.9-0.9-1.3l-0.1-0.2c-0.1-0.1-0.1-0.2-0.2-0.3
	c-0.3-0.4-0.5-0.9-0.8-1.3c-0.2-0.3-0.4-0.7-0.6-1l-0.2-0.3l-0.6-1c-0.1-0.2-0.2-0.3-0.3-0.4l-0.2-0.3l-0.2-0.3v-0.1
	c-0.1-0.1-0.2-0.3-0.3-0.4c-0.2-0.3-0.3-0.6-0.5-1c0,0,0,0,0-0.1c-0.2-0.3-0.3-0.6-0.4-0.9c-0.2-0.4-0.4-0.8-0.6-1.2l-0.4-1
	c-0.1-0.3-0.3-0.4-0.3-0.7c-0.1-0.2-0.2-0.3-0.3-0.4c-0.1-0.2-0.2-0.3-0.2-0.4c0,0,0-0.1-0.1-0.1l-0.1-0.1l-0.1-0.2l-0.3-0.8
	c0,0,0-0.1-0.1-0.1c-0.1-0.3-0.2-0.4-0.3-0.7c-0.1-0.2-0.1-0.3-0.2-0.4l-0.4-1l-0.2-0.3c0-0.1-0.1-0.2-0.2-0.3
	c-0.2-0.3-0.3-0.7-0.4-1l-0.2-0.4c0-0.1-0.1-0.2-0.1-0.3s-0.2-0.3-0.2-0.5c-0.2-0.4-0.3-0.9-0.5-1.3c-0.1-0.2-0.2-0.3-0.2-0.5v-0.1
	v-0.1v-0.1l-0.1-0.2c-0.1-0.1-0.1-0.3-0.2-0.3c0-0.1-0.1-0.3-0.1-0.3c-0.2-0.3-0.3-0.7-0.4-1c-0.2-0.5-0.3-1-0.6-1.6V193
	c9.6,0.3,19.2,0.3,27.8-0.4c10.1-0.9,18.8-2.8,24.8-6.1c0,0,5.6,1.4,13.7,3.6c1.6,0.4,3.3,0.9,5,1.4c2.5,0.7,5.1,1.4,7.9,2.2
	l1.2,0.3l0.6,0.2l0.9,0.3l4.3,1.2c7,2.1,14.3,4.3,20.5,6.3c7,2.3,12.9,4.6,16.4,6.4c0.7,0.3,1.2,0.7,1.7,1c0.3,0.2,0.7,0.4,1,0.6
	c6.6,3.6,20.4,5.6,33.1,6.4c1.7,0.1,3.2,0.2,4.8,0.3c2.5,0.1,4.9,0.2,7.1,0.2h1c1,0,2,0,3,0c1.7,0,3.2-0.1,4.5-0.3
	c1.4-0.1,2.8-0.3,4.2-0.7c6.6-2.2,36.4-8.3,42.1-4.5s61.7,9.6,71.9,4.5c10.2-5,3.2-10.5,14.9-4.5c2.9,1.5,11.2,8.3,22.2,17.6
	l-28.2,33.5l-6.8,8"/>
<circle class="st10" cx="195.8" cy="95.5" r="0.4"/>
<circle class="st10" cx="470.5" cy="121.9" r="0.4"/>
<circle class="st10" cx="313.8" cy="84.3" r="0.4"/>
<circle class="st10" cx="372.4" cy="85.1" r="0.4"/>
<circle class="st10" cx="336.3" cy="128.6" r="0.4"/>
<circle class="st10" cx="421.9" cy="99.2" r="0.4"/>
<circle class="st11" cx="383.8" cy="73" r="1"/>
<circle class="st11" cx="428.1" cy="62.5" r="1"/>
<circle class="st11" cx="258.2" cy="141.5" r="0.4"/>
<circle class="st11" cx="245.9" cy="85.5" r="0.4"/>
<circle class="st11" cx="236.4" cy="111.3" r="0.4"/>
<circle class="st11" cx="358.2" cy="108.6" r="0.4"/>
<circle class="st11" cx="446.7" cy="80.8" r="0.4"/>
<circle class="st11" cx="298.7" cy="107.5" r="1"/>
<circle class="st11" cx="280.8" cy="66.7" r="1"/>
<circle class="st11" cx="354.3" cy="85.8" r="1"/>
<polygon class="st10" points="210.7,80.6 210.4,80.6 210.4,80.3 210.4,80.3 210.4,80.6 210.1,80.6 210.1,80.6 210.4,80.6 
	210.4,80.8 210.4,80.8 210.4,80.6 "/>
<polygon class="st10" points="477,84.6 476.7,84.6 476.7,84.3 476.7,84.3 476.7,84.6 476.5,84.6 476.5,84.7 476.7,84.7 476.7,84.9 
	476.7,84.9 476.7,84.7 477,84.7 "/>
<polygon class="st10" points="260.8,86 260.3,86 260.3,85.5 260.2,85.5 260.2,86 259.7,86 259.7,86.1 260.2,86.1 260.2,86.6 
	260.3,86.6 260.3,86.1 260.8,86.1 "/>
<polygon class="st10" points="276.9,118 276.5,118 276.5,117.6 276.3,117.6 276.3,118 275.9,118 275.9,118.2 276.3,118.2 
	276.3,118.6 276.5,118.6 276.5,118.2 276.9,118.2 "/>
<polygon class="st10" points="205.5,126 205,126 205,125.5 204.9,125.5 204.9,126 204.5,126 204.5,126.1 204.9,126.1 204.9,126.6 
	205,126.6 205,126.1 205.5,126.1 "/>
<polygon class="st10" points="369.9,136 369.4,136 369.4,135.5 369.3,135.5 369.3,136 368.8,136 368.8,136.1 369.3,136.1 
	369.3,136.5 369.4,136.5 369.4,136.1 369.9,136.1 "/>
<polygon class="st10" points="428.7,118.6 428.2,118.6 428.2,118.1 428.1,118.1 428.1,118.6 427.6,118.6 427.6,118.7 428.1,118.7 
	428.1,119.2 428.2,119.2 428.2,118.7 428.7,118.7 "/>
<path class="st1" d="M325.9,323.5c-4.4,5.1-9.6,9.6-15.4,13.1l-7-5.8C310,325.1,319.3,319.1,325.9,323.5z"/>
<path class="st1" d="M304.3,316.4c0,0,16.5-17.9,28.5-13.5c0,0-14.1,18.5-30.8,19L304.3,316.4z"/>
<path class="st1" d="M311.8,296.1c0,0,18.2-17.1,26.2-14.1c0,0-13.1,19-26.9,17.9L311.8,296.1z"/>
<path class="st1" d="M319.1,277.4c0,0,15.7-20.4,24.2-18.9c0,0-9.5,18.2-24.2,20.9V277.4z"/>
<path class="st1" d="M327,252.2c0,0,13.9-15.7,21.4-15.6c0,0-10.9,20.9-21.9,20.8L327,252.2z"/>
<path class="st1" d="M331.7,235.4l13.4-32.7c0,0,0.7,29.5-15.1,38.7L331.7,235.4z"/>
<path class="st1" d="M337.1,199.4c0,0,2.3-27.3,0.8-29.5c0,0,9.6,22.7-0.9,41.5L337.1,199.4z"/>
<path class="st1" d="M293.9,322.6l-10.2-8.6l-1.3-1.1c0-0.1,0-0.1,0-0.2c-0.3-2.8-0.3-4.6-0.3-4.6
	C288.3,308.7,291.9,315.6,293.9,322.6z"/>
<path class="st1" d="M305.7,315.6c0,0-3.9-24-16.4-26.9c0,0,1.6,23.3,15.2,32.8L305.7,315.6z"/>
<path class="st1" d="M313.3,296.3c0,0-0.2-25-7.7-28.7c0,0-4.8,22.6,5.6,31.9L313.3,296.3z"/>
<path class="st1" d="M319.6,277.2c0,0-1-25.7-9-29.4c0,0-2.7,20.4,7.8,31.1L319.6,277.2z"/>
<path class="st1" d="M328.1,254.2c0,0-0.1-20.9-5.7-25.9c0,0-5.6,22.9,2.8,30.1L328.1,254.2z"/>
<path class="st1" d="M331,234.4l-5.5-34.8c0,0-7.5,28.6,5.7,41.2L331,234.4z"/>
<path class="st1" d="M332,199.7c0,0-14.1-23.5-13.8-26.1c0,0,1.5,24.6,19.3,36.8L332,199.7z"/>
<path class="st1" d="M333.7,192.8c0,0-13.3-33.3-19.4-36c0,0,19,9.6,20.4,35L333.7,192.8z"/>
<path class="st12" d="M326.3,257.5l-0.9-0.3c11.2-36.7,14.1-60,7.9-65.9l0.7-0.7C340.5,196.9,337.8,220,326.3,257.5z"/>
<path class="st12" d="M327.2,254.8l-0.4,1.4l-0.3,1c0,0.1-0.1,0.2-0.1,0.3c-1.7,5.6-3.7,11.7-5.9,18.2c-0.4,1.2-0.9,2.4-1.3,3.7
	c-1.7,4.7-3.3,9.6-5.1,14.7c-0.3,0.7-0.5,1.4-0.8,2.2l-0.1,0.1c-0.4,1.2-0.9,2.3-1.3,3.6c-1.7,4.6-3.4,9.3-5.2,14.1
	c-0.4,1.3-1,2.7-1.6,4c-0.3,1-0.8,2.1-1.2,3c-0.1,0.3-0.2,0.5-0.3,0.8c-0.9,2.3-1.7,4.5-2.6,6.8l-1.1-1c0.8-1.9,1.5-3.8,2.3-5.6
	c0.3-0.6,0.4-1.2,0.7-1.7c0.4-1.2,1-2.4,1.4-3.7v-0.1c0.3-0.9,0.7-1.7,1-2.6c1.9-5,3.7-9.7,5.5-14.5l0.6-1.7
	c0.3-0.6,0.4-1.2,0.6-1.7c0.3-1,0.7-1.8,1-2.8c1.8-5,3.6-9.7,5.1-14.3c0.4-1.2,0.8-2.3,1.2-3.6c2-5.9,3.9-11.5,5.6-16.7
	c0.3-1,0.6-1.9,0.9-2.8c0-0.1,0-0.2,0.1-0.2l0.7-0.3L327.2,254.8z"/>
<path class="st1" d="M325.4,339.6l2.3,11.6l-3.5-3C324.5,345.3,324.8,342.4,325.4,339.6z"/>
<path class="st1" d="M333.9,337.7c0,0,2.9-27.2,4.7-29.1c0,0-13.6,20.5-6.8,41L333.9,337.7z"/>
<path class="st1" d="M342.5,363.6l-4.4-3.7l7-19.9C345.2,340,346.1,352.2,342.5,363.6z"/>
<path class="st1" d="M338.7,339c0,0,18.2-20.4,18.4-23c0,0-6,23.9-25.7,32.6L338.7,339z"/>
<path class="st1" d="M338.4,331.9c0,0,19.2-30.2,25.6-31.8c0,0-20.5,6-26.6,30.7L338.4,331.9z"/>
<path class="st12" d="M339.1,330.6c-0.3,0.3-0.7,0.5-1,0.9c-2.4,2.4-4.2,7.6-5,15.1c-0.1,0.4-0.1,0.9-0.2,1.4
	c-0.3,2.2-0.3,4.6-0.4,7.1l-1-0.8c0.1-1.7,0.2-3.1,0.3-4.6c0-0.4,0.1-0.9,0.1-1.2v-0.4c0.3-3.7,1-7.4,2.1-11c1-2.9,2.2-5,3.6-6.4
	c0.3-0.3,0.7-0.5,1-0.8L339.1,330.6z"/>
<path class="st1" d="M368.4,384.3l-0.5,0.6l-0.1-0.1C368,384.7,368.2,384.5,368.4,384.3z"/>
<path class="st1" d="M393.4,354.7l-13.1,15.6l0,0c-3,1.7-6.3,2.7-9.6,2.6c-0.3,0-0.6,0-1,0l0.1-0.4l0.3-1.9l0.3-1.4l0.3-0.3
	c0.3-0.3,0.6-0.6,1.1-1l0.8-0.7l0,0C377,363.4,386.7,355.6,393.4,354.7z"/>
<path class="st1" d="M377.8,350.3c0,0,15.7-20.4,24.2-18.9c0,0-9.5,18.2-24.2,20.9V350.3z"/>
<path class="st1" d="M385.7,325.1c0,0,13.9-15.7,21.4-15.6c0,0-10.9,20.9-21.9,20.8L385.7,325.1z"/>
<path class="st1" d="M390.4,308.4l13.4-32.7c0,0,0.7,29.5-15.1,38.8L390.4,308.4z"/>
<path class="st1" d="M395.8,272.4c0,0,2.3-27.3,0.8-29.5c0,0,9.6,22.7-0.9,41.5L395.8,272.4z"/>
<path class="st1" d="M362.4,380.3l-13.2-11.1c-0.5-2.5-1-5-1.1-7.6C355.7,363.4,360.1,373,362.4,380.3z"/>
<path class="st1" d="M372,369.3c0,0-0.2-25-7.7-28.7c0,0-4.8,22.6,5.6,31.9L372,369.3z"/>
<path class="st1" d="M378.3,350.1c0,0-1-25.7-9-29.4c0,0-2.7,20.4,7.8,31.1L378.3,350.1z"/>
<path class="st1" d="M386.9,327.2c0,0-0.1-20.9-5.7-25.9c0,0-5.6,22.9,2.8,30.1L386.9,327.2z"/>
<path class="st1" d="M389.7,307.3l-5.5-34.8c0,0-7.5,28.6,5.7,41.2L389.7,307.3z"/>
<path class="st1" d="M390.8,272.6c0,0-14.1-23.5-13.8-26.1c0,0,1.5,24.6,19.3,36.8L390.8,272.6z"/>
<path class="st1" d="M392.5,265.8c0,0-13.3-33.3-19.4-36c0,0,19,9.6,20.4,35L392.5,265.8z"/>
<path class="st12" d="M385,330.4l-0.9-0.3c11.2-36.7,14.1-60,7.9-65.9l0.7-0.7C399.2,269.8,396.6,292.9,385,330.4z"/>
<path class="st12" d="M385.9,327.7c-0.2,0.4-0.3,1-0.4,1.4l0,0c-0.1,0.3-0.2,0.7-0.3,1l0,0l0,0c0,0.1-0.1,0.2-0.1,0.3
	c-1.7,5.6-3.7,11.7-5.9,18.2l0,0c-0.4,1.2-0.9,2.4-1.3,3.7c-1.7,4.7-3.3,9.6-5.1,14.7l0,0c-0.3,0.7-0.5,1.4-0.8,2.1v0.1l0,0
	c-0.4,1.2-0.9,2.4-1.3,3.6c-1.3,3.6-2.6,7.2-4,10.9l-1.1-0.9c1.4-3.6,2.7-7.2,4.1-10.7l0.6-1.7c0.3-0.6,0.4-1.2,0.6-1.7
	c0.3-1,0.7-1.8,1-2.8c1.8-5,3.6-9.7,5.1-14.3c0.4-1.2,0.8-2.3,1.2-3.6l0,0c2-5.9,3.9-11.5,5.6-16.7c0.3-1,0.6-1.8,0.9-2.8
	c0-0.1,0.1-0.2,0.1-0.3l0.7-0.3L385.9,327.7z"/>
<path class="st1" d="M466.6,283.8"/>
<path class="st1" d="M447.3,285.3c0,0,8.4-24.3,17-25.5c0,0-3.2,20.3-16.3,27.5L447.3,285.3z"/>
<path class="st1" d="M446.8,258.9c0,0,8.2-19.3,15.3-21.6c0,0-3.7,23.3-14.3,26.6L446.8,258.9z"/>
<path class="st1" d="M446,241.5l2.3-35.2c0,0,10,27.8-2,41.5L446,241.5z"/>
<path class="st1" d="M439.6,205.6c0,0-6.5-26.6-8.6-28.2c0,0,16.3,18.4,12.3,39.7L439.6,205.6z"/>
<path class="st1" d="M432.3,308.4l-5,5.9c-1.8-2.9-3.4-5.8-4.8-9C426,305.1,429.3,306.4,432.3,308.4z"/>
<path class="st1" d="M442.9,296c0,0-3.2-14.6-11.6-15.7c0,0-3.9,13.3,8.8,18.8L442.9,296z"/>
<path class="st1" d="M447.8,284.9c0,0-9.2-24.1-17.8-25c0,0,3.9,20.2,17.3,27L447.8,284.9z"/>
<path class="st1" d="M448.5,260.5c0,0-6.7-19.8-13.6-22.7c0,0,1.9,23.6,12.2,27.6L448.5,260.5z"/>
<path class="st1" d="M445,240.7l-16.3-31.3c0,0,2,29.5,18.5,37.2L445,240.7z"/>
<path class="st1" d="M435,207.5c0,0-20.9-17.7-21.4-20.3c0,0,9.2,22.9,30,28.8L435,207.5z"/>
<path class="st1" d="M434.4,200.4c0,0-23.2-27.4-29.7-28c0,0,21.1,3.1,30.5,26.8L434.4,200.4z"/>
<path class="st12" d="M447.9,264.1h-1c-1-38.3-5.7-61.4-13.4-65l0.4-0.9C442,202.2,446.9,224.8,447.9,264.1z"/>
<path class="st12" d="M447.8,305.1"/>
<path class="st12" d="M447,286.7c0-1.3,0-2.5,0-3.7c0.1-6.3,0-12.2-0.1-17.6c0-1,0-2-0.1-3c0-0.1,0-0.1,0-0.2l0.5-0.5l0.4-0.4
	c0,0.4,0,1,0,1.5c0,0.3,0,0.7,0,1c0,0.1,0,0.2,0,0.3c0.2,5.9,0.2,12.3,0.2,19.2c0,1.3,0,2.6,0,3.9"/>
<path class="st1" d="M369,173.7c0,0-3.7,0.6-2.8,3c0,0.3,0.2,0.5,0.4,0.6c0,0,0-0.2,0.3-0.2c0.2,0,0.3,0,0.4-0.1s0.3-0.2,0.4-0.3
	l0,0c0,0,1-0.6,1-2.4C368.8,174.3,369,173.8,369,173.7l-0.6,0.5c0.2,0.3,0.3,0.5,0.3,0.8c0,0-0.2-0.8-0.3-0.8l-0.3,0.3
	c0.3,0.3,0.4,0.9,0.3,1.3c0,0-0.1-1-0.4-1.2l-0.3,0.3c0.3,0.4,0.5,0.9,0.4,1.4c0,0-0.2-1-0.5-1.4l-0.3,0.4c0.3,0.3,0.4,0.9,0.4,1.3
	c0,0-0.3-1.1-0.5-1.2c-0.1,0.2-0.3,0.3-0.3,0.5c0,0,0.4,0.5,0.3,0.9l-0.3-0.8c-0.1,0.3-0.2,0.6-0.2,1c-0.1-0.3,0-0.7,0.1-1
	c-0.2,0.1-0.3,0.2-0.4,0.3c0,0,0-0.3,0.5-0.5c0.1-0.2,0.2-0.3,0.3-0.4c-0.3,0-0.6,0.2-0.9,0.3c0.3-0.3,0.6-0.4,1-0.4l0.3-0.4
	c-0.3,0-0.7,0.1-1,0.3c0.3-0.3,0.7-0.4,1.1-0.3l0.3-0.3c-0.3,0-0.7,0-1,0.1c0.3-0.2,0.7-0.3,1.1-0.3l0.3-0.2c0,0-0.4,0-0.6,0
	s-0.2,0-0.2,0c0.3-0.1,0.6-0.2,0.9-0.1C368.6,173.9,368.8,173.8,369,173.7z"/>
<path class="st9" d="M369,173.7c0,0-3.7,0.6-2.8,3c0,0.3,0.2,0.5,0.4,0.6c0,0,0-0.2,0.3-0.2c0.2,0,0.3,0,0.4-0.1s0.3-0.2,0.4-0.3
	l0,0c0,0,1-0.6,1-2.4C368.8,174.3,369,173.8,369,173.7l-0.6,0.5c0.2,0.3,0.3,0.5,0.3,0.8c0,0-0.2-0.8-0.3-0.8l-0.3,0.3
	c0.3,0.3,0.4,0.9,0.3,1.3c0,0-0.1-1-0.4-1.2l-0.3,0.3c0.3,0.4,0.5,0.9,0.4,1.4c0,0-0.2-1-0.5-1.4l-0.3,0.4c0.3,0.3,0.4,0.9,0.4,1.3
	c0,0-0.3-1.1-0.5-1.2c-0.1,0.2-0.3,0.3-0.3,0.5c0,0,0.4,0.5,0.3,0.9l-0.3-0.8c-0.1,0.3-0.2,0.6-0.2,1c-0.1-0.3,0-0.7,0.1-1
	c-0.2,0.1-0.3,0.2-0.4,0.3c0,0,0-0.3,0.5-0.5c0.1-0.2,0.2-0.3,0.3-0.4c-0.3,0-0.6,0.2-0.9,0.3c0.3-0.3,0.6-0.4,1-0.4l0.3-0.4
	c-0.3,0-0.7,0.1-1,0.3c0.3-0.3,0.7-0.4,1.1-0.3l0.3-0.3c-0.3,0-0.7,0-1,0.1c0.3-0.2,0.7-0.3,1.1-0.3l0.3-0.2c0,0-0.4,0-0.6,0
	s-0.2,0-0.2,0c0.3-0.1,0.6-0.2,0.9-0.1C368.6,173.9,368.8,173.8,369,173.7z"/>
<path class="st1" d="M209.6,159.7c0,0-3.7,0.6-2.8,3c0,0.3,0.2,0.5,0.4,0.6c0,0,0-0.2,0.3-0.2c0.2,0,0.3,0,0.4-0.1
	c0.2-0.1,0.3-0.2,0.4-0.3l0,0c0,0,1-0.6,1-2.4C209.4,160.3,209.7,159.8,209.6,159.7l-0.6,0.5c0.2,0.3,0.3,0.5,0.3,0.8
	c0,0-0.2-0.8-0.3-0.8l-0.3,0.3c0.3,0.3,0.4,0.9,0.3,1.3c0,0-0.1-1-0.4-1.2l-0.3,0.3c0.3,0.4,0.5,0.9,0.4,1.4c0,0-0.2-1-0.5-1.4
	l-0.3,0.4c0.3,0.3,0.4,0.9,0.4,1.3c0,0-0.3-1.1-0.5-1.2c-0.1,0.2-0.3,0.3-0.3,0.5c0,0,0.4,0.5,0.3,0.9l-0.3-0.8
	c-0.1,0.3-0.2,0.6-0.2,1c-0.1-0.3,0-0.7,0.1-1c-0.2,0.1-0.3,0.2-0.4,0.3c0,0,0-0.3,0.5-0.5c0.1-0.2,0.2-0.3,0.3-0.4
	c-0.3,0-0.6,0.2-0.9,0.3c0.3-0.3,0.6-0.4,1-0.4l0.3-0.4c-0.3,0-0.7,0.1-1,0.3c0.3-0.3,0.7-0.4,1.1-0.3l0.3-0.3c-0.3,0-0.7,0.1-1,0.2
	c0.3-0.2,0.8-0.3,1.1-0.3l0.3-0.2c0,0-0.4,0-0.6,0s-0.2,0-0.2,0c0.3-0.1,0.6-0.2,0.9-0.1C209.2,159.9,209.4,159.8,209.6,159.7z"/>
<path class="st9" d="M209.6,159.7c0,0-3.7,0.6-2.8,3c0,0.3,0.2,0.5,0.4,0.6c0,0,0-0.2,0.3-0.2c0.2,0,0.3,0,0.4-0.1
	c0.2-0.1,0.3-0.2,0.4-0.3l0,0c0,0,1-0.6,1-2.4C209.4,160.3,209.7,159.8,209.6,159.7l-0.6,0.5c0.2,0.3,0.3,0.5,0.3,0.8
	c0,0-0.2-0.8-0.3-0.8l-0.3,0.3c0.3,0.3,0.4,0.9,0.3,1.3c0,0-0.1-1-0.4-1.2l-0.3,0.3c0.3,0.4,0.5,0.9,0.4,1.4c0,0-0.2-1-0.5-1.4
	l-0.3,0.4c0.3,0.3,0.4,0.9,0.4,1.3c0,0-0.3-1.1-0.5-1.2c-0.1,0.2-0.3,0.3-0.3,0.5c0,0,0.4,0.5,0.3,0.9l-0.3-0.8
	c-0.1,0.3-0.2,0.6-0.2,1c-0.1-0.3,0-0.7,0.1-1c-0.2,0.1-0.3,0.2-0.4,0.3c0,0,0-0.3,0.5-0.5c0.1-0.2,0.2-0.3,0.3-0.4
	c-0.3,0-0.6,0.2-0.9,0.3c0.3-0.3,0.6-0.4,1-0.4l0.3-0.4c-0.3,0-0.7,0.1-1,0.3c0.3-0.3,0.7-0.4,1.1-0.3l0.3-0.3c-0.3,0-0.7,0.1-1,0.2
	c0.3-0.2,0.8-0.3,1.1-0.3l0.3-0.2c0,0-0.4,0-0.6,0s-0.2,0-0.2,0c0.3-0.1,0.6-0.2,0.9-0.1C209.2,159.9,209.4,159.8,209.6,159.7z"/>
<path class="st1" d="M353.5,178.7c0,0-3.7,0.6-2.8,3c0,0.3,0.2,0.5,0.4,0.6c0,0,0-0.2,0.3-0.2c0.2,0,0.3,0,0.4-0.1
	c0.2-0.1,0.3-0.2,0.4-0.3l0,0c0,0,1-0.6,1-2.4C353.3,179.3,353.6,178.9,353.5,178.7l-0.6,0.5c0.2,0.3,0.3,0.5,0.3,0.8
	c0,0-0.2-0.8-0.3-0.8l-0.3,0.3c0.3,0.3,0.4,0.9,0.3,1.3c0,0-0.1-1-0.4-1.2l-0.3,0.3c0.3,0.4,0.5,0.9,0.4,1.4c0,0-0.2-1-0.5-1.4
	l-0.3,0.4c0.3,0.3,0.4,0.9,0.4,1.3c0,0-0.3-1.1-0.5-1.2c-0.1,0.2-0.3,0.3-0.3,0.5c0,0,0.4,0.5,0.3,0.9l-0.3-0.8
	c-0.1,0.3-0.2,0.6-0.2,1c-0.1-0.3,0-0.7,0.1-1c-0.2,0.1-0.3,0.2-0.4,0.3c0,0,0-0.3,0.5-0.5c0.1-0.2,0.2-0.3,0.3-0.4
	c-0.3,0-0.6,0.2-0.9,0.3c0.3-0.3,0.6-0.4,1-0.4l0.3-0.4c-0.3,0-0.7,0.1-1,0.3c0.3-0.3,0.7-0.4,1.1-0.3l0.3-0.3c-0.3,0-0.7,0.1-1,0.2
	c0.3-0.2,0.7-0.3,1.1-0.3l0.3-0.2c0,0-0.4,0-0.6,0s-0.2,0-0.2,0c0.3-0.1,0.6-0.2,0.9-0.1C353.1,179,353.3,178.9,353.5,178.7z"/>
<path class="st9" d="M353.5,178.7c0,0-3.7,0.6-2.8,3c0,0.3,0.2,0.5,0.4,0.6c0,0,0-0.2,0.3-0.2c0.2,0,0.3,0,0.4-0.1
	c0.2-0.1,0.3-0.2,0.4-0.3l0,0c0,0,1-0.6,1-2.4C353.3,179.3,353.6,178.9,353.5,178.7l-0.6,0.5c0.2,0.3,0.3,0.5,0.3,0.8
	c0,0-0.2-0.8-0.3-0.8l-0.3,0.3c0.3,0.3,0.4,0.9,0.3,1.3c0,0-0.1-1-0.4-1.2l-0.3,0.3c0.3,0.4,0.5,0.9,0.4,1.4c0,0-0.2-1-0.5-1.4
	l-0.3,0.4c0.3,0.3,0.4,0.9,0.4,1.3c0,0-0.3-1.1-0.5-1.2c-0.1,0.2-0.3,0.3-0.3,0.5c0,0,0.4,0.5,0.3,0.9l-0.3-0.8
	c-0.1,0.3-0.2,0.6-0.2,1c-0.1-0.3,0-0.7,0.1-1c-0.2,0.1-0.3,0.2-0.4,0.3c0,0,0-0.3,0.5-0.5c0.1-0.2,0.2-0.3,0.3-0.4
	c-0.3,0-0.6,0.2-0.9,0.3c0.3-0.3,0.6-0.4,1-0.4l0.3-0.4c-0.3,0-0.7,0.1-1,0.3c0.3-0.3,0.7-0.4,1.1-0.3l0.3-0.3c-0.3,0-0.7,0.1-1,0.2
	c0.3-0.2,0.7-0.3,1.1-0.3l0.3-0.2c0,0-0.4,0-0.6,0s-0.2,0-0.2,0c0.3-0.1,0.6-0.2,0.9-0.1C353.1,179,353.3,178.9,353.5,178.7z"/>
<path class="st1" d="M357,164.2c0,0-2.3,3,0.2,4.1c0.2,0.2,0.5,0.3,0.8,0.1c0,0-0.2-0.1,0.1-0.3c0.1-0.1,0.2-0.2,0.3-0.3
	c0.1-0.2,0.1-0.3,0.1-0.5l0,0c0,0,0.3-1.1-1-2.4c0,0-0.2-0.4-0.3-0.5l-0.2,0.7c0.3,0.1,0.5,0.2,0.7,0.4c0,0-0.7-0.4-0.8-0.3
	l-0.1,0.3c0.4,0.1,0.9,0.3,1.2,0.7c0,0-0.8-0.6-1.2-0.6v0.5c0.5,0.1,1,0.3,1.3,0.7c0,0-0.8-0.6-1.3-0.6v0.5c0.4,0.1,0.9,0.3,1.2,0.6
	c0,0-1-0.6-1.2-0.5c0,0.2,0.1,0.4,0.2,0.6c0,0,0.6,0.1,0.8,0.4c0,0-0.7-0.3-0.8-0.3c0.1,0.3,0.3,0.6,0.5,0.8
	c-0.3-0.2-0.5-0.4-0.6-0.8c-0.1,0.2-0.1,0.4-0.1,0.6c0,0-0.3-0.3,0-0.8c-0.1-0.2-0.1-0.3-0.2-0.5c-0.2,0.3-0.3,0.5-0.4,0.8
	c-0.1-0.3,0.1-0.7,0.4-1V166c-0.3,0.3-0.4,0.5-0.6,0.9c0,0-0.1-0.4,0.6-1v-0.5c-0.3,0.3-0.4,0.5-0.6,0.8c0.1-0.3,0.3-0.7,0.7-1
	l0.1-0.3c0,0-0.3,0.3-0.4,0.4c-0.1,0.1-0.1,0.1-0.1,0.1c0.1-0.3,0.3-0.5,0.6-0.7C356.9,164.6,356.9,164.4,357,164.2z"/>
<path class="st9" d="M357,164.2c0,0-2.3,3,0.2,4.1c0.2,0.2,0.5,0.3,0.8,0.1c0,0-0.2-0.1,0.1-0.3c0.1-0.1,0.2-0.2,0.3-0.3
	c0.1-0.2,0.1-0.3,0.1-0.5l0,0c0,0,0.3-1.1-1-2.4c0,0-0.2-0.4-0.3-0.5l-0.2,0.7c0.3,0.1,0.5,0.2,0.7,0.4c0,0-0.7-0.4-0.8-0.3
	l-0.1,0.3c0.4,0.1,0.9,0.3,1.2,0.7c0,0-0.8-0.6-1.2-0.6v0.5c0.5,0.1,1,0.3,1.3,0.7c0,0-0.8-0.6-1.3-0.6v0.5c0.4,0.1,0.9,0.3,1.2,0.6
	c0,0-1-0.6-1.2-0.5c0,0.2,0.1,0.4,0.2,0.6c0,0,0.6,0.1,0.8,0.4c0,0-0.7-0.3-0.8-0.3c0.1,0.3,0.3,0.6,0.5,0.8
	c-0.3-0.2-0.5-0.4-0.6-0.8c-0.1,0.2-0.1,0.4-0.1,0.6c0,0-0.3-0.3,0-0.8c-0.1-0.2-0.1-0.3-0.2-0.5c-0.2,0.3-0.3,0.5-0.4,0.8
	c-0.1-0.3,0.1-0.7,0.4-1V166c-0.3,0.3-0.4,0.5-0.6,0.9c0,0-0.1-0.4,0.6-1v-0.5c-0.3,0.3-0.4,0.5-0.6,0.8c0.1-0.3,0.3-0.7,0.7-1
	l0.1-0.3c0,0-0.3,0.3-0.4,0.4c-0.1,0.1-0.1,0.1-0.1,0.1c0.1-0.3,0.3-0.5,0.6-0.7C356.9,164.6,356.9,164.4,357,164.2z"/>
<path class="st1" d="M372.9,215c0,0,10-0.4,11-20.1s-9.4-22.9-9.4-22.9s-3.3-1.8-4.8-1.9c-1.4-0.1-6.3,0.3-6.3,0.3l5.4-1
	c0,0-7.6-2.9-9.9-3.1l8.3,1.7c0,0,0.1-4.5-1.8-6.1c0,0,1.7-0.1,2.6,3.1c0.5,1.9,1.9,3.5,3.7,4.2c3,1.2,7.3,3,8.3,4.7
	c0,0,1.7,1.8,1.5-3c-0.3-4.9-1.6-9-2-9.1c0,0-3.6-3.8-8.7-4.1c0,0,3-1.2,8,2.5c0,0,0.4-1.9-1.5-4.2s-4.8-7-8-7.5c0,0,4.5-0.3,8,5.6
	c0,0,1.3,0.9,1.4-1.3c0.2-1.7,0.4-3.3,0.9-4.9c0,0,1,5-1.2,7.2c0,0,4.3,5.6,4.2,12.1c0,0,1.4,2.9,1.8-0.5c0,0,0.3-4.7,0.9-8.6
	c0.4-3.2-0.4-6.5-2.4-9c-1-1.2-1.7-2.3-1.3-3l5,6c0,0,4.3-9.8,7.3-12c3-2.1,3.5-2.6,3.5-2.6l-5,5.8l6.3-2.2l-6.3,2.9
	c0,0-2.9,2.3-4.5,8.8c-1.7,6.4-1.8,10.4-1.8,10.4s9-7,10.6-6.9l-5.7,4.3c-3.2,2.4-5.1,6.1-5.4,10l0,0c0,0,11.1-2.9,13.8-3.4l5.1-5.2
	l-3.8,5l8-0.1l4.5-3.2c0,0-3.6,3-3.2,3.2c0.3,0.2,5.6,0.4,5.6,0.4s-13.4-0.1-14.9,0.9s-4.8,1.3-4.8,1.3l9.5,1.4l-11.3-0.8
	c0,0-8.5,1.6-9,4.2c0,0,1.7,4.5,2.9,6.3c1,1.5,2.9,6.3,3.3,10.6c0.3,4.3,1,10.8-0.5,14.8s-2,6.3-1.3,7.5c0.8,1.2,1.4,2.8-1,3
	c-2.3,0.3-12.9-0.2-12.9-0.2S372.2,217.4,372.9,215z"/>
<path class="st0" d="M378.4,212.9c1-0.5,2.3-0.7,3.4-0.4c1.7,0.3,3.5,0.3,5.2,0.2L378.4,212.9z"/>
<path class="st0" d="M384.8,189.8c0,0,0.4,7.6-0.3,9L384.8,189.8z"/>
<path class="st0" d="M386.5,198.9c0,0-0.6,7-1,8.4C385,208.7,386.5,198.9,386.5,198.9z"/>
<path class="st0" d="M387.1,181.5c0.4,0.2,2.3,3.9,1.9,5S387.1,181.5,387.1,181.5z"/>
<path class="st0" d="M382.3,177.6c0.2,0.1,1,2.3,0.9,2.9C383,181,382.3,177.6,382.3,177.6z"/>
<path class="st0" d="M390.4,190.3c-0.3,1.8-0.3,3.6-0.2,5.4c0.1,1.4,0.1,2.7-0.1,4.1L390.4,190.3z"/>
<path class="st0" d="M367.1,164.7c0.3,0.3,0.3,0.7,0.3,1.1s0,0.8,0,1.2s0.3,0.9,0.6,1L367.1,164.7z"/>
<path class="st0" d="M374.3,151.7c0.5,0.5,1,1.1,1.4,1.7c0.1,0.2,0.3,0.3,0.4,0.6c0.3,0.3,0.5,0.4,0.8,0.6c0.6,0.5,1,1.1,1.2,1.9
	L374.3,151.7z"/>
<path class="st0" d="M394.4,140.4c-0.1,0.3-0.3,0.4-0.4,0.7c-0.2,0.2-0.3,0.3-0.5,0.4c-0.1,0.2-0.3,0.3-0.3,0.5
	c-0.4,0.6-0.9,1.2-1.4,1.8L394.4,140.4z"/>
<path class="st0" d="M385.1,151.5c0.3,0.3,0.4,0.6,0.4,1c-0.1,0.3,0,0.8,0.1,1.1c0.1,0.2,0.2,0.3,0.3,0.4c0.1,0.3,0.2,0.6,0.1,0.9
	c0,0.3,0,0.7,0,1c0,0.4-0.1,0.9-0.3,1.2L385.1,151.5z"/>
<path class="st1" d="M387.9,162.6c-0.3,0.2-0.6,0.3-0.9,0.6s-0.4,0.5-0.5,0.9c0,0.2,0,0.3,0,0.4c-0.1,0.2-0.2,0.3-0.3,0.5
	c-0.3,0.3-0.4,0.5-0.7,0.8L387.9,162.6z"/>
<path class="st0" d="M385.4,172.7c0.3-0.2,0.4-0.3,0.7-0.4c0.3-0.2,0.4-0.3,0.7-0.3c0.4-0.1,0.8-0.1,1.2-0.1c0.4,0,0.8-0.2,1-0.4
	L385.4,172.7z"/>
<path class="st0" d="M401.1,167.8c-0.4,0-1,0.1-1.4,0.3c-0.2,0.1-0.4,0.3-0.6,0.3c-0.3,0.2-0.6,0.3-0.9,0.3L401.1,167.8z"/>
<path class="st0" d="M394.6,169.7c0.1-0.1,0.3,0,0.3,0.1c0.1,0.1,0.1,0.3,0.3,0.3c0.2,0.2,0.4,0.3,0.7,0.3L394.6,169.7z"/>
<path class="st0" d="M391.9,159.8l-0.4,0.3c-0.4,0.3-1,0.5-1.3,0.8L391.9,159.8z"/>
<path class="st0" d="M386.7,164.2c-0.3-0.1-0.5,0.3-0.6,0.5c0,0.3,0,0.6-0.1,1c-0.1,0.3-0.3,0.5-0.4,0.7L386.7,164.2z"/>
<path class="st0" d="M381.7,164.7c-0.3,0.8,0.3,1.7,0.2,2.5c-0.1,0.3-0.2,0.4-0.3,0.8c-0.1,0.7,0.1,1.4,0.5,1.9L381.7,164.7z"/>
<g class="st13">
	<path d="M372.9,215c0,0,10-0.4,11-20.1s-9.4-22.9-9.4-22.9s-3.3-1.8-4.8-1.9c-1.4-0.1-6.3,0.3-6.3,0.3l5.4-1c0,0-7.6-2.9-9.9-3.1
		l8.3,1.7c0,0,0.1-4.5-1.8-6.1c0,0,1.7-0.1,2.6,3.1c0.5,1.9,1.9,3.5,3.7,4.2c3,1.2,7.3,3,8.3,4.7c0,0,1.7,1.8,1.5-3
		c-0.3-4.9-1.6-9-2-9.1c0,0-3.6-3.8-8.7-4.1c0,0,3-1.2,8,2.5c0,0,0.4-1.9-1.5-4.2s-4.8-7-8-7.5c0,0,4.5-0.3,8,5.6
		c0,0,1.3,0.9,1.4-1.3c0.2-1.7,0.4-3.3,0.9-4.9c0,0,1,5-1.2,7.2c0,0,4.3,5.6,4.2,12.1c0,0,1.4,2.9,1.8-0.5c0,0,0.3-4.7,0.9-8.6
		c0.4-3.2-0.4-6.5-2.4-9c-1-1.2-1.7-2.3-1.3-3l5,6c0,0,4.3-9.8,7.3-12c3-2.1,3.5-2.6,3.5-2.6l-5,5.8l6.3-2.2l-6.3,2.9
		c0,0-2.9,2.3-4.5,8.8c-1.7,6.4-1.8,10.4-1.8,10.4s9-7,10.6-6.9l-5.7,4.3c-3.2,2.4-5.1,6.1-5.4,10l0,0c0,0,11.1-2.9,13.8-3.4
		l5.1-5.2l-3.8,5l8-0.1l4.5-3.2c0,0-3.6,3-3.2,3.2c0.3,0.2,5.6,0.4,5.6,0.4s-13.4-0.1-14.9,0.9s-4.8,1.3-4.8,1.3l9.5,1.4l-11.3-0.8
		c0,0-8.5,1.6-9,4.2c0,0,1.7,4.5,2.9,6.3c1,1.5,2.9,6.3,3.3,10.6c0.3,4.3,1,10.8-0.5,14.8s-2,6.3-1.3,7.5c0.8,1.2,1.4,2.8-1,3
		c-2.3,0.3-12.9-0.2-12.9-0.2S372.2,217.4,372.9,215z"/>
	<path class="st5" d="M378.4,212.9c1-0.5,2.3-0.7,3.4-0.4c1.7,0.3,3.5,0.3,5.2,0.2L378.4,212.9z"/>
	<path class="st5" d="M384.8,189.8c0,0,0.4,7.6-0.3,9L384.8,189.8z"/>
	<path class="st5" d="M386.5,198.9c0,0-0.6,7-1,8.4C385,208.7,386.5,198.9,386.5,198.9z"/>
	<path class="st5" d="M387.1,181.5c0.4,0.2,2.3,3.9,1.9,5S387.1,181.5,387.1,181.5z"/>
	<path class="st5" d="M382.3,177.6c0.2,0.1,1,2.3,0.9,2.9C383,181,382.3,177.6,382.3,177.6z"/>
	<path class="st5" d="M390.4,190.3c-0.3,1.8-0.3,3.6-0.2,5.4c0.1,1.4,0.1,2.7-0.1,4.1L390.4,190.3z"/>
	<path class="st5" d="M367.1,164.7c0.3,0.3,0.3,0.7,0.3,1.1s0,0.8,0,1.2s0.3,0.9,0.6,1L367.1,164.7z"/>
	<path class="st5" d="M374.3,151.7c0.5,0.5,1,1.1,1.4,1.7c0.1,0.2,0.3,0.3,0.4,0.6c0.3,0.3,0.5,0.4,0.8,0.6c0.6,0.5,1,1.1,1.2,1.9
		L374.3,151.7z"/>
	<path class="st5" d="M394.4,140.4c-0.1,0.3-0.3,0.4-0.4,0.7c-0.2,0.2-0.3,0.3-0.5,0.4c-0.1,0.2-0.3,0.3-0.3,0.5
		c-0.4,0.6-0.9,1.2-1.4,1.8L394.4,140.4z"/>
	<path class="st5" d="M385.1,151.5c0.3,0.3,0.4,0.6,0.4,1c-0.1,0.3,0,0.8,0.1,1.1c0.1,0.2,0.2,0.3,0.3,0.4c0.1,0.3,0.2,0.6,0.1,0.9
		c0,0.3,0,0.7,0,1c0,0.4-0.1,0.9-0.3,1.2L385.1,151.5z"/>
	<path d="M387.9,162.6c-0.3,0.2-0.6,0.3-0.9,0.6s-0.4,0.5-0.5,0.9c0,0.2,0,0.3,0,0.4c-0.1,0.2-0.2,0.3-0.3,0.5
		c-0.3,0.3-0.4,0.5-0.7,0.8L387.9,162.6z"/>
	<path class="st5" d="M385.4,172.7c0.3-0.2,0.4-0.3,0.7-0.4c0.3-0.2,0.4-0.3,0.7-0.3c0.4-0.1,0.8-0.1,1.2-0.1c0.4,0,0.8-0.2,1-0.4
		L385.4,172.7z"/>
	<path class="st5" d="M401.1,167.8c-0.4,0-1,0.1-1.4,0.3c-0.2,0.1-0.4,0.3-0.6,0.3c-0.3,0.2-0.6,0.3-0.9,0.3L401.1,167.8z"/>
	<path class="st5" d="M394.6,169.7c0.1-0.1,0.3,0,0.3,0.1c0.1,0.1,0.1,0.3,0.3,0.3c0.2,0.2,0.4,0.3,0.7,0.3L394.6,169.7z"/>
	<path class="st5" d="M391.9,159.8l-0.4,0.3c-0.4,0.3-1,0.5-1.3,0.8L391.9,159.8z"/>
	<path class="st5" d="M386.7,164.2c-0.3-0.1-0.5,0.3-0.6,0.5c0,0.3,0,0.6-0.1,1c-0.1,0.3-0.3,0.5-0.4,0.7L386.7,164.2z"/>
	<path class="st5" d="M381.7,164.7c-0.3,0.8,0.3,1.7,0.2,2.5c-0.1,0.3-0.2,0.4-0.3,0.8c-0.1,0.7,0.1,1.4,0.5,1.9L381.7,164.7z"/>
</g>
<path class="st1" d="M209.6,195c0,0-10-0.4-11-20.1S208,152,208,152s3.3-1.8,4.8-1.9c1.5-0.1,6.3,0.3,6.3,0.3l-5.4-1
	c0,0,7.6-2.9,9.9-3.1l-8.3,1.7c0,0-0.1-4.5,1.8-6.1c0,0-1.7-0.1-2.6,3.1c-0.5,1.9-1.9,3.5-3.7,4.2c-3,1.2-7.3,3-8.3,4.7
	c0,0-1.7,1.8-1.5-3c0.3-4.9,1.6-9,2-9c0,0,3.6-3.8,8.7-4.1c0,0-3-1.2-8,2.5c0,0-0.4-1.9,1.5-4.2s4.9-7,8-7.5c0,0-4.5-0.3-8,5.6
	c0,0-1.3,0.9-1.4-1.3c-0.2-1.7-0.4-3.3-0.9-4.9c0,0-1,5,1.2,7.2c0,0-4.3,5.6-4.2,12.1c0,0-1.4,2.9-1.8-0.5c0,0-0.3-4.7-0.9-8.7
	c-0.4-3.2,0.4-6.5,2.4-9c1-1.2,1.7-2.3,1.3-3l-5,6c0,0-4.3-9.8-7.3-12c-3.1-2.1-3.5-2.6-3.5-2.6l5,5.8l-6.3-2.2l6.3,2.9
	c0,0,2.9,2.3,4.5,8.8c1.7,6.4,1.8,10.4,1.8,10.4s-9-7-10.6-6.9l5.7,4.3c3.2,2.4,5.1,6.1,5.4,10l0,0c0,0-11.1-2.9-13.8-3.4L178,142
	l3.8,5l-8-0.1l-4.5-3.2c0,0,3.6,3,3.2,3.2c-0.3,0.2-5.6,0.4-5.6,0.4s13.4-0.1,14.9,0.9s4.8,1.3,4.8,1.3l-9.5,1.4l11.3-0.8
	c0,0,8.5,1.6,9,4.2c0,0-1.7,4.5-2.9,6.3c-1,1.5-2.9,6.3-3.3,10.6c-0.3,4.3-1,10.8,0.5,14.8s2,6.3,1.3,7.5s-1.4,2.8,1,3
	s12.9-0.2,12.9-0.2S210.3,197.4,209.6,195z"/>
<path class="st0" d="M204,192.9c-1-0.5-2.3-0.7-3.4-0.4c-1.7,0.3-3.5,0.3-5.2,0.2L204,192.9z"/>
<path class="st0" d="M197.8,169.8c0,0-0.4,7.6,0.3,9L197.8,169.8z"/>
<path class="st0" d="M195.9,178.9c0,0,0.6,7,1,8.4C197.4,188.7,195.9,178.9,195.9,178.9z"/>
<path class="st0" d="M195.3,161.5c-0.4,0.2-2.3,3.9-1.9,5C193.8,167.7,195.3,161.5,195.3,161.5z"/>
<path class="st0" d="M200.1,157.6c-0.2,0.1-1,2.3-0.9,2.9C199.3,161.1,200.1,157.6,200.1,157.6z"/>
<path class="st0" d="M192,170.2c0.3,1.8,0.3,3.6,0.2,5.4c-0.1,1.4-0.1,2.7,0.1,4.1L192,170.2z"/>
<path class="st0" d="M215.3,144.7c-0.3,0.3-0.3,0.7-0.3,1.1c0,0.4,0,0.8,0,1.2s-0.3,0.9-0.6,1L215.3,144.7z"/>
<path class="st0" d="M208.2,131.6c-0.5,0.5-1,1.1-1.4,1.7c-0.1,0.2-0.3,0.3-0.4,0.6c-0.3,0.3-0.5,0.4-0.8,0.6
	c-0.6,0.5-1,1.1-1.2,1.9L208.2,131.6z"/>
<path class="st0" d="M188,120.4c0.1,0.3,0.3,0.4,0.4,0.7c0.2,0.2,0.3,0.3,0.5,0.4c0.1,0.2,0.3,0.3,0.3,0.5c0.4,0.6,0.9,1.2,1.4,1.8
	L188,120.4z"/>
<path class="st0" d="M197.3,131.5c-0.3,0.3-0.4,0.6-0.4,1c0.1,0.3,0,0.8-0.1,1.1c-0.1,0.2-0.2,0.3-0.3,0.4c-0.1,0.3-0.2,0.6-0.1,0.9
	c0,0.3,0,0.7,0,1c0,0.4,0.1,0.9,0.3,1.2L197.3,131.5z"/>
<path class="st1" d="M194.5,142.6c0.3,0.2,0.6,0.3,0.9,0.6s0.4,0.5,0.5,0.9c0,0.2,0,0.3,0,0.4c0.1,0.2,0.2,0.3,0.3,0.5
	c0.3,0.3,0.4,0.5,0.7,0.8L194.5,142.6z"/>
<path class="st0" d="M197.1,152.7c-0.3-0.2-0.4-0.3-0.7-0.4c-0.3-0.2-0.4-0.3-0.7-0.3c-0.4-0.1-0.8-0.1-1.2-0.1s-0.8-0.2-1-0.4
	L197.1,152.7z"/>
<path class="st0" d="M181.3,147.8c0.4,0,1,0.1,1.4,0.3c0.2,0.1,0.4,0.3,0.6,0.3c0.3,0.2,0.6,0.3,0.9,0.3L181.3,147.8z"/>
<path class="st0" d="M187.9,149.8c-0.1-0.1-0.3,0-0.3,0.1c-0.1,0.1-0.2,0.3-0.3,0.3c-0.2,0.2-0.4,0.3-0.7,0.3L187.9,149.8z"/>
<path class="st0" d="M190.5,139.8l0.4,0.3c0.4,0.3,0.9,0.5,1.3,0.8L190.5,139.8z"/>
<path class="st0" d="M195.8,144.2c0.3-0.1,0.5,0.3,0.6,0.5c0,0.3,0,0.6,0.1,0.9c0.1,0.3,0.3,0.5,0.4,0.7L195.8,144.2z"/>
<path class="st0" d="M200.7,144.7c0.3,0.8-0.3,1.7-0.2,2.5c0.1,0.3,0.2,0.4,0.3,0.8c0.1,0.7-0.1,1.4-0.5,1.9L200.7,144.7z"/>
<g class="st13">
	<path d="M209.6,195c0,0-10-0.4-11-20.1S208,152,208,152s3.3-1.8,4.8-1.9c1.5-0.1,6.3,0.3,6.3,0.3l-5.4-1c0,0,7.6-2.9,9.9-3.1
		l-8.3,1.7c0,0-0.1-4.5,1.8-6.1c0,0-1.7-0.1-2.6,3.1c-0.5,1.9-1.9,3.5-3.7,4.2c-3,1.2-7.3,3-8.3,4.7c0,0-1.7,1.8-1.5-3
		c0.3-4.9,1.6-9,2-9c0,0,3.6-3.8,8.7-4.1c0,0-3-1.2-8,2.5c0,0-0.4-1.9,1.5-4.2s4.9-7,8-7.5c0,0-4.5-0.3-8,5.6c0,0-1.3,0.9-1.4-1.3
		c-0.2-1.7-0.4-3.3-0.9-4.9c0,0-1,5,1.2,7.2c0,0-4.3,5.6-4.2,12.1c0,0-1.4,2.9-1.8-0.5c0,0-0.3-4.7-0.9-8.7c-0.4-3.2,0.4-6.5,2.4-9
		c1-1.2,1.7-2.3,1.3-3l-5,6c0,0-4.3-9.8-7.3-12c-3.1-2.1-3.5-2.6-3.5-2.6l5,5.8l-6.3-2.2l6.3,2.9c0,0,2.9,2.3,4.5,8.8
		c1.7,6.4,1.8,10.4,1.8,10.4s-9-7-10.6-6.9l5.7,4.3c3.2,2.4,5.1,6.1,5.4,10l0,0c0,0-11.1-2.9-13.8-3.4L178,142l3.8,5l-8-0.1
		l-4.5-3.2c0,0,3.6,3,3.2,3.2c-0.3,0.2-5.6,0.4-5.6,0.4s13.4-0.1,14.9,0.9s4.8,1.3,4.8,1.3l-9.5,1.4l11.3-0.8c0,0,8.5,1.6,9,4.2
		c0,0-1.7,4.5-2.9,6.3c-1,1.5-2.9,6.3-3.3,10.6c-0.3,4.3-1,10.8,0.5,14.8s2,6.3,1.3,7.5s-1.4,2.8,1,3s12.9-0.2,12.9-0.2
		S210.3,197.4,209.6,195z"/>
	<path class="st5" d="M204,192.9c-1-0.5-2.3-0.7-3.4-0.4c-1.7,0.3-3.5,0.3-5.2,0.2L204,192.9z"/>
	<path class="st5" d="M197.8,169.8c0,0-0.4,7.6,0.3,9L197.8,169.8z"/>
	<path class="st5" d="M195.9,178.9c0,0,0.6,7,1,8.4C197.4,188.7,195.9,178.9,195.9,178.9z"/>
	<path class="st5" d="M195.3,161.5c-0.4,0.2-2.3,3.9-1.9,5C193.8,167.7,195.3,161.5,195.3,161.5z"/>
	<path class="st5" d="M200.1,157.6c-0.2,0.1-1,2.3-0.9,2.9C199.3,161.1,200.1,157.6,200.1,157.6z"/>
	<path class="st5" d="M192,170.2c0.3,1.8,0.3,3.6,0.2,5.4c-0.1,1.4-0.1,2.7,0.1,4.1L192,170.2z"/>
	<path class="st5" d="M215.3,144.7c-0.3,0.3-0.3,0.7-0.3,1.1c0,0.4,0,0.8,0,1.2s-0.3,0.9-0.6,1L215.3,144.7z"/>
	<path class="st5" d="M208.2,131.6c-0.5,0.5-1,1.1-1.4,1.7c-0.1,0.2-0.3,0.3-0.4,0.6c-0.3,0.3-0.5,0.4-0.8,0.6
		c-0.6,0.5-1,1.1-1.2,1.9L208.2,131.6z"/>
	<path class="st5" d="M188,120.4c0.1,0.3,0.3,0.4,0.4,0.7c0.2,0.2,0.3,0.3,0.5,0.4c0.1,0.2,0.3,0.3,0.3,0.5c0.4,0.6,0.9,1.2,1.4,1.8
		L188,120.4z"/>
	<path class="st5" d="M197.3,131.5c-0.3,0.3-0.4,0.6-0.4,1c0.1,0.3,0,0.8-0.1,1.1c-0.1,0.2-0.2,0.3-0.3,0.4
		c-0.1,0.3-0.2,0.6-0.1,0.9c0,0.3,0,0.7,0,1c0,0.4,0.1,0.9,0.3,1.2L197.3,131.5z"/>
	<path d="M194.5,142.6c0.3,0.2,0.6,0.3,0.9,0.6s0.4,0.5,0.5,0.9c0,0.2,0,0.3,0,0.4c0.1,0.2,0.2,0.3,0.3,0.5c0.3,0.3,0.4,0.5,0.7,0.8
		L194.5,142.6z"/>
	<path class="st5" d="M197.1,152.7c-0.3-0.2-0.4-0.3-0.7-0.4c-0.3-0.2-0.4-0.3-0.7-0.3c-0.4-0.1-0.8-0.1-1.2-0.1s-0.8-0.2-1-0.4
		L197.1,152.7z"/>
	<path class="st5" d="M181.3,147.8c0.4,0,1,0.1,1.4,0.3c0.2,0.1,0.4,0.3,0.6,0.3c0.3,0.2,0.6,0.3,0.9,0.3L181.3,147.8z"/>
	<path class="st5" d="M187.9,149.8c-0.1-0.1-0.3,0-0.3,0.1c-0.1,0.1-0.2,0.3-0.3,0.3c-0.2,0.2-0.4,0.3-0.7,0.3L187.9,149.8z"/>
	<path class="st5" d="M190.5,139.8l0.4,0.3c0.4,0.3,0.9,0.5,1.3,0.8L190.5,139.8z"/>
	<path class="st5" d="M195.8,144.2c0.3-0.1,0.5,0.3,0.6,0.5c0,0.3,0,0.6,0.1,0.9c0.1,0.3,0.3,0.5,0.4,0.7L195.8,144.2z"/>
	<path class="st5" d="M200.7,144.7c0.3,0.8-0.3,1.7-0.2,2.5c0.1,0.3,0.2,0.4,0.3,0.8c0.1,0.7-0.1,1.4-0.5,1.9L200.7,144.7z"/>
</g>
<path class="st1" d="M248.8,282.3l-0.1,0.2c-0.2,0.3-0.4,0.7-1,1.3l-1.7-1.5l-0.3-0.3C246.7,281.9,247.8,281.9,248.8,282.3z"/>
<path class="st1" d="M253.6,258.6c0,0-5.5,11.1-14.9,17.6l-4.4-3.7C239.5,266.4,248,257.8,253.6,258.6z"/>
<path class="st1" d="M237.1,252.7c0,0,13.5-16,21-16.2c0,0-10.4,21.2-21.5,21.3L237.1,252.7z"/>
<path class="st1" d="M241.5,235.8l12.6-32.9c0,0,1.4,29.5-14.2,39L241.5,235.8z"/>
<path class="st1" d="M246,199.6c0,0,1.6-27.3,0.1-29.5c0,0,10.1,22.4,0.1,41.5L246,199.6z"/>
<path class="st1" d="M229.2,268.1l-8.1-6.9c-0.6-4.2-0.8-8.4-0.3-12.7C225.5,250.7,228,260.5,229.2,268.1z"/>
<path class="st1" d="M238.3,254.7c0,0-0.5-20.9-6.3-25.7c0,0-5,23.1,3.5,30L238.3,254.7z"/>
<path class="st1" d="M240.8,234.7l-6.3-34.8c0,0-6.8,28.8,6.7,41L240.8,234.7z"/>
<path class="st1" d="M241,200.1c0,0-14.7-23.1-14.4-25.7c0,0,2.1,24.5,20.2,36.3L241,200.1z"/>
<path class="st1" d="M242.5,193.1c0,0-14.1-32.9-20.2-35.5c0,0,19.2,9.2,21.3,34.5L242.5,193.1z"/>
<path class="st12" d="M236.6,258l-1-0.3c10.3-36.9,12.6-60.4,6.3-66l0.6-0.7C249.4,197,247.2,220.2,236.6,258z"/>
<path class="st12" d="M237.4,255.3c-0.1,0.4-0.3,1-0.4,1.4l0,0c-0.1,0.3-0.2,0.7-0.3,1c0,0.1-0.1,0.2-0.1,0.3
	c-1.2,4.1-2.4,8.5-3.8,13.1l-0.8-0.7l0,0c1.2-4,2.3-7.8,3.5-11.5l0,0c0.3-0.8,0.4-1.6,0.7-2.3c0.1-0.2,0.1-0.3,0.2-0.5
	c0-0.1,0-0.2,0.1-0.2l0.7-0.3L237.4,255.3z"/>
<path class="st1" d="M266.2,292.5c0,0-10.1-18.3-17.4-20c0,0,6.1,22.9,16.9,25L266.2,292.5z"/>
<path class="st1" d="M265.4,275.1l-5.9-34.8c0,0-7.1,28.7,6.3,41.1L265.4,275.1z"/>
<path class="st1" d="M268,238.7c0,0,3.8-27.1,5.7-28.9c0,0-14.3,20-8.3,40.8L268,238.7z"/>
<path class="st1" d="M283.9,312.2c0,0,0,0.7-0.1,1.8l-1.3-1.1l-0.1-0.1l0.1-0.1C282.8,312.5,283.4,312.4,283.9,312.2z"/>
<path class="st1" d="M283.2,291.7c0,0-0.8,9.1-5.1,17.6l-5.3-4.4C275.5,298.6,279.1,292.5,283.2,291.7z"/>
<path class="st1" d="M264.8,294.2c0,0,4.7-20.4,11.2-24c0,0,0.4,23.6-9.3,28.8L264.8,294.2z"/>
<path class="st1" d="M266.2,274.2l13-32.8c0,0,1,29.5-14.7,38.8L266.2,274.2z"/>
<path class="st1" d="M272.8,240.1c0,0,18.9-19.7,19.2-22.4c0,0-6.9,23.6-26.9,31.7L272.8,240.1z"/>
<path class="st1" d="M272.8,233c0,0,20.3-29.5,26.8-30.9c0,0-20.7,5.2-27.6,29.7L272.8,233z"/>
<path class="st12" d="M265.7,297.8l1-0.1c-3-38.2-0.5-61.7,6.8-66l-0.4-0.8C265.2,235.5,262.8,258.6,265.7,297.8z"/>
<path class="st12" d="M266.8,298.9c0,0.3,0.1,0.6,0.1,0.9l-1-0.9c0-0.4-0.1-0.8-0.1-1.2c0-0.1,0-0.2,0-0.3l0,0c0-0.3-0.1-0.7-0.1-1
	l0,0c0-0.3-0.1-0.8-0.1-1.1c0-0.1,0-0.2,0-0.3l0,0l0.4,0.3l0.6,0.4v0.1v0.1c0,0.4,0.1,0.8,0.1,1.2c0,0.1,0,0.2,0,0.3
	C266.7,297.9,266.8,298.4,266.8,298.9z"/>
</svg>
