<?xml version="1.0" encoding="utf-8"?>
<!-- Generator: Adobe Illustrator 23.0.2, SVG Export Plug-In . SVG Version: 6.00 Build 0)  -->
<svg version="1.1" id="Layer_1" xmlns="http://www.w3.org/2000/svg" xmlns:xlink="http://www.w3.org/1999/xlink" x="0px" y="0px"
	 viewBox="0 0 1071.5 877.3" style="enable-background:new 0 0 1071.5 877.3;" xml:space="preserve">
<style type="text/css">
	.st0{opacity:0.1;fill:#6C63FF;enable-background:new    ;}
	.st1{fill:url(#SVGID_1_);}
	.st2{fill:#4A4A76;}
	.st3{opacity:0.1;}
	.st4{fill:#6C63FF;}
	.st5{opacity:0.1;enable-background:new    ;}
	.st6{fill:#FFB9B9;}
	.st7{fill:#F57979;}
	.st8{fill:url(#SVGID_2_);}
	.st9{opacity:0.5;enable-background:new    ;}
	.st10{fill:#FFFFFF;}
	.st11{opacity:0.5;fill:#FFFFFF;enable-background:new    ;}
	.st12{fill:#444053;}
	.st13{opacity:0.5;}
</style>
<title>heartbroken</title>
<ellipse class="st0" cx="832.2" cy="850.9" rx="181.3" ry="27.3"/>
<linearGradient id="SVGID_1_" gradientUnits="userSpaceOnUse" x1="891.0242" y1="360.3567" x2="891.0242" y2="75.3972" gradientTransform="matrix(1 0 0 1 -64.27 506.65)">
	<stop  offset="0" style="stop-color:#808080;stop-opacity:0.25"/>
	<stop  offset="0.54" style="stop-color:#808080;stop-opacity:0.12"/>
	<stop  offset="1" style="stop-color:#808080;stop-opacity:0.1"/>
</linearGradient>
<path class="st1" d="M899.4,777.5c0,0-23.5,7.7-24.3,9.8c-0.4,0.9-4.6,2.8-9.3,4.8c0.6-2.6,0.1-5.8-0.7-6.8
	c-0.2-0.3-0.4-0.6-0.9-1.2c2-4.4,3.9-9.1,6.4-13.1c4.2-6.8,3.8-15.4,3.8-15.4l2.7-9.6c0,0,3.7-17.9,3.7-19.5v-18.8
	c0,0,0.3-2.8,0.6-6c3.5-2.9,6-6.8,7.5-11.2l-2.8-3.3c0.8-1,1.4-2,1.9-3.2c0.4-1.3,0.7-2.8,0.7-4.2c0-0.8-0.1-1.7-0.2-2.5v0.1
	c-0.4-2.2-1.1-4.4-2-6.4c-1.8-4.1-3.9-8.2-4.1-12.6c-0.5-12.2,13.6-20.7,14.4-32.9c0-0.3,0-0.5,0-0.8c0-0.1,0-0.2,0-0.3s0-0.3,0-0.4
	c0-0.7-0.1-1.3-0.2-2v0.1c-0.9-5.9-4.8-11.2-9.4-15.1c-5.5-4.6-12.2-7.7-18.1-11.8c-6-4.1-11.3-9.1-18-11.5
	c-4.3-1.4-8.7-1.6-13.1-1.6c-8.9,0.2-17,2.4-25.6,3.8c-6,1-13.9-2-18.8,3.1c-3.9,4.1-1.2,11.8-5.2,15.9c-1.9,1.9-4.7,2.4-7,3.6
	c-4.1,2.2-6.2,6.8-6.8,11.5v-0.1c0,0.3,0,0.5-0.1,0.8l0,0c0,0.4,0,0.6-0.1,1c-0.1,0.4,0,0.5,0,0.8v0.3c0,1,0.1,2,0.3,2.8
	c1,6.5,4.2,12.3,6.5,18.4c2.3,6.1,3.6,13.1,0.9,19c-1.8,3.9-5.2,6.9-7.1,10.8c-0.7,1.6-1.2,3.4-1.4,5.2v-0.1c0,0.2,0,0.4,0,0.6l0,0
	c-1.7,1.7-3,3.7-4,5.9c-2.1,4.7-4.8,5.8-5.5,6h-0.3c0,0-1.2,7.6,5.2,12.4c0.2,2.8,0.5,5.5,1.2,7c0.6,1.2,0.9,4.2,1,7.9
	c0,0.2,0,0.4,0,0.5l-0.6-0.5c0,0-8-20.2-8.4-24s-3.9-9.4-3.9-9.4s-11.7-15.5-26.8-16.2c-15.1-0.6,1.4,7,1.4,7s-6,15.5,12.2,21.1
	c0,0,4.6,5.7,5.3,10.2c0.7,4.5,6.2,20.6,6.2,20.6s6.5,25.1,20.3,34.3c0,0,4.4,0.2,7.4-2.4c1.7-1,3.2-2.2,4.4-3.8
	c-0.4,1.6-1,3.1-1.8,4.4c-4.6,7-4.6,9.9-4.6,9.9s2.1,4.5-1.6,5.7c-3.7,1.2-2.3,5.2-2.3,5.2s-3.8,2.8-4.5,5.5
	c-8.4-5.5-19.9-13.3-22.6-16.3c-4.4-4.8-34.3,3-23.2,25.4c0,0,6.9,14.2,17.7,21.9c1.2,0.9,2.4,1.8,3.5,2.7c1.9,2.5,4.1,4.6,6.7,6.4
	c1.6,1.8,3,3.4,4.2,4.8c-0.1,0-0.1,0.1-0.2,0.1l-0.3,0.2l-0.2,0.2c-0.1,0.1-0.2,0.2-0.3,0.3l-0.2,0.2c-0.1,0.1-0.2,0.3-0.3,0.4
	c0,0.1-0.1,0.1-0.1,0.2c-0.2,0.2-0.3,0.4-0.4,0.5c-4.4,6.5-6.7,22.3-6.7,22.3s0.8,6.4,10.9,6.9c1,0,1.9-0.1,2.8-0.4
	c0.4-0.1,0.6-0.3,0.8-0.6c0.3-1,13.7-4.6,23.3-3.6c9.6,1.1,14.4-0.2,14.4-0.2s0.7-1.4,1.4-3.3l15.1-4.1l1-0.3
	c7.1,2.4,13.8,4.7,13.8,4.7s8.7,5.2,10.6,5.9c1.2,0.4,5.3,0.3,8,0.2c0.2,1.1,0.3,1.7,0.3,1.7s6.8,0.4,10,1c3.2,0.5,24-1.9,31.8,2.1
	c0,0,0.4,0.1,1,0.2c4.4,0.7,21.3,2.3,20.7-12.8c-0.8-17.3-15-19.3-15-19.3c-3.6-0.4-7.4-0.2-11,0.4c7.1-4.4,17.3-10.9,25.9-17.2
	c9.4-6.9,11-11.8,11-14.5c-0.1-2.5,0-5.1,0.3-7.6C931.7,765.4,899.4,777.5,899.4,777.5z M855.6,762.6c0.6-0.9,1-2,1.1-3.1
	c-0.4,2.5-1.2,4.9-2.2,7.2C854.6,764.6,854.6,763.5,855.6,762.6L855.6,762.6z M857,755.5c0,0,0.2-2,0.5-4.4c-0.2,2-0.4,3.7-0.6,5.2
	C857,755.9,857,755.5,857,755.5L857,755.5z"/>
<path class="st2" d="M793.6,592.3c-3.9,4-1.2,11.7-5.2,15.7c-1.9,1.9-4.7,2.4-7,3.6c-5.7,3.1-7.6,10.6-6.7,16.9
	c1,6.3,4.2,12.2,6.5,18.2c2.3,6,3.6,13,0.9,18.8c-1.8,3.9-5.2,6.8-7.1,10.7c-2.8,5.9-1.4,12.8,0.8,18.8c2.4,6.4,6.3,12.8,12.6,15.3
	c4.5,1.8,9.5,1.3,14.3,2.2c7,1.3,13.5,5.7,20.6,5.6c6.9-0.1,13.1-4.4,18.4-9.1c5.3-4.6,10.4-9.7,17.1-11.8
	c5.2-1.7,10.8-1.4,16.3-2.3c5.4-0.9,11.2-3.6,13.1-8.7c1.5-4.2,0.2-8.8-1.5-12.8c-1.7-4-3.9-8.1-4.1-12.4
	c-0.5-12.1,13.6-20.5,14.4-32.6c0.4-7.2-4-13.9-9.6-18.4c-5.6-4.5-12.2-7.6-18.1-11.7c-6-4.1-11.3-9.1-18-11.4
	c-4.3-1.2-8.7-1.8-13.1-1.6c-8.9,0.2-17,2.3-25.6,3.7C806.4,590.2,798.5,587.3,793.6,592.3z"/>
<g class="st3">
	<path d="M781.2,646.5c1.2,2.9,2,6,2.3,9.1c0.5-4.5-0.6-9.4-2.3-13.8c-2.3-6-5.5-11.8-6.5-18.2c0-0.3-0.1-0.5-0.1-0.9
		c-0.2,1.8-0.2,3.6,0.1,5.5C775.6,634.7,778.9,640.5,781.2,646.5z"/>
	<path d="M888.1,681.5c-2,5.2-7.6,7.8-13.1,8.7c-5.4,0.9-11.1,0.6-16.3,2.3c-6.7,2.1-11.8,7.3-17.1,11.8c-5.2,4.5-11.4,8.9-18.4,9.1
		c-7.2,0.1-13.6-4.3-20.6-5.6c-4.7-0.9-9.8-0.4-14.3-2.2c-6.4-2.5-10.2-8.9-12.6-15.3c-1.2-2.9-1.9-6-2.2-9.1
		c-0.5,4.5,0.6,9.3,2.2,13.7c2.4,6.4,6.3,12.8,12.6,15.3c4.5,1.8,9.5,1.3,14.3,2.2c7,1.3,13.5,5.7,20.6,5.6
		c6.9-0.1,13.1-4.4,18.4-9.1c5.3-4.6,10.4-9.7,17.1-11.8c5.2-1.7,10.8-1.4,16.3-2.3c5.4-0.9,11.2-3.6,13.1-8.7
		c0.7-2,0.9-4.3,0.4-6.4C888.5,680.3,888.4,680.9,888.1,681.5z"/>
	<path d="M882.5,656.1c0,0.5,0.1,1.2,0.2,1.7c1.6-10.6,13.4-18.6,14.2-29.7c0.1-1.2,0-2.2-0.2-3.4
		C895.1,636.2,882,644.5,882.5,656.1z"/>
</g>
<path class="st4" d="M763.9,693.6c0,0-2.8,17.1,21.6,16.1c24.3-1-12-17.2-12-17.2L763.9,693.6z"/>
<path class="st5" d="M773.3,692.5l-9.6,1.2c0,0-2.8,17.1,21.6,16.1"/>
<path class="st4" d="M889,692.6c0,0-5.1,18.3-25.5,15.5l-2.8-8.4l19.6-9L889,692.6z"/>
<path class="st5" d="M880.3,690.9l8.7,1.8c0,0-5.1,18.3-25.5,15.5"/>
<path class="st6" d="M791.8,748.3c-0.2,6.8-3.6,10.5-6.1,12.3c-0.9,0.7-2,1.2-2.9,1.7l-12.6-15.9c0,0,1.2-15.6,1-25.7
	c-0.1-3.7-0.4-6.7-1-7.8c-1.4-2.8-1.5-9.9-1.3-14.5c0.1-2.4,0.2-4.1,0.2-4.1l16.5,15.4c0,0,0.1,0.3,0.2,0.7
	C786.7,714.9,792.1,738.4,791.8,748.3z"/>
<rect x="795.1" y="809.3" class="st2" width="17.1" height="15"/>
<rect x="799.3" y="645.3" class="st2" width="54.5" height="44.3"/>
<rect x="799.3" y="629.7" class="st5" width="50.7" height="60"/>
<path class="st6" d="M810.5,655.3c0,0,10.1,18.5-6.2,19.5c-16.3,1.1-2.8,33.4-2.8,33.4s20.1,13.3,20.5,13.3c0.4,0,16.6,0.2,17.1-0.2
	c0.4-0.4,12.9-15.8,12.9-15.8l1.8-17.9l-4.4-14.2c0,0-17.2,7.4-12.4-19.8L810.5,655.3z"/>
<path class="st6" d="M928.3,796.8c-0.3,2.5-0.4,5-0.3,7.5c0,2.7-1.6,7.6-11,14.4c-14.7,10.7-34.5,22.3-34.5,22.3L847,853.3
	l-11.5-5.3l-8.1-3.7l-2.1-16.7l-1.9-14.7l29.8-14.5c0,0,21.1-7.7,22-9.8c0.9-2,24.3-9.7,24.3-9.7S931.7,766.9,928.3,796.8z"/>
<path class="st2" d="M862.4,794.4l-2.6,3.6l-2,2.8c-13.1,0.9-32.4,30.6-32.4,30.6l-14.2-11.7c-9.1-11.7-21.1-20.9-34.8-26.5l0.2-0.3
	l3-5.5l44.2-5.2L862.4,794.4z"/>
<path class="st5" d="M862.4,794.4l-2.6,3.6c-6-0.4-16.7-1.5-16.7-1.5s-5.2,3.2-8,2c-2.8-1.2-37.8-0.6-41.9-3.3
	c-3.3-2.1-12.2-1.4-16.8-2.3l3-5.5l44.2-5.2L862.4,794.4z"/>
<path class="st4" d="M865.1,700l-1,9.5c4.2,13.1-4.4,25.8-4.4,25.8s1.3,8.9-0.3,11.2s-2.3,10.6-2.3,10.6s-0.2,5.6-1.4,6.9
	c-1.2,1.3-1,2.8-1.2,6.7c-0.1,3.1,6,10.1,9.1,13.8c0.8,0.9,1.3,1.6,1.6,2c1.3,1.9,2,10.4-3.2,10.3l-1.3-0.1
	c-1.2-0.1-2.7-0.2-4.2-0.3c-6-0.4-13.3-1.2-13.3-1.2c-0.7,0.4-1.4,0.8-2.1,1.1c-1.8,0.8-4.2,1.6-5.8,0.9c-2.8-1.2-37.8-0.6-41.9-3.3
	c-3.1-2-11.5-1.4-16.2-2.2c-1.6-0.3-2.8-0.7-3.2-1.4c-1.6-2.8,4.4-7.2,4.4-7.2s-1.4-4.1,2.3-5.2c3.7-1.2,1.6-5.6,1.6-5.6
	s0-2.9,4.6-9.9c4.6-6.9,2.6-26.9,2.6-26.9c-10.7-14.3-3.9-25.8-3.9-25.8l-8.7-30.6l5.1-4.6l24,0.3l-1.9,9.9
	c-2.6,18.7,22.7,26.7,22.7,26.7c23.5,0.7,18.7-25.1,18.7-25.1l-3.3-12c0,0,5.8-2,18.2-3.5c6-0.7,8.4,0.2,9.4,1.2
	c1.3,1.5,2.9,2.8,4.5,4c1.1,0.8,2.1,1.7,2.9,2.8l-8,14.2L865.1,700z"/>
<path class="st6" d="M808.5,816.3l-19,23L784,846l-20.8-8.8c-4.8-6.9-10.7-13-17.5-17.9c-10.7-7.6-17.7-21.8-17.7-21.8
	c-11.1-22.2,18.8-29.9,23.2-25.1c4.4,4.8,31.8,22.1,31.8,22.1c4.8,1.2,11.8,7.5,17.3,12.9C805,812.1,808.5,816.3,808.5,816.3z"/>
<circle class="st5" cx="823.9" cy="636.9" r="27.4"/>
<circle class="st6" cx="823.9" cy="636.4" r="27.4"/>
<path class="st5" d="M775,747.5c-1.6,1.2,1.5-2,1.5-2l-6.4,1c0,0,1.2-15.6,1-25.7c8.5,6.7,15,25.7,15,25.7
	C788.6,753.9,777,745,775,747.5z"/>
<path class="st6" d="M785.4,746.5c0,0-6.5-19.1-15-25.8c0,0-8-20-8.4-23.7s-3.9-9.3-3.9-9.3s-11.7-15.5-26.9-16
	c-15.2-0.5,1.4,6.9,1.4,6.9s-6,15.4,12.2,21c0,0,4.6,5.6,5.3,10.1c0.7,4.5,6.2,20.4,6.2,20.4s6.5,24.9,20.3,34
	C776.6,764.2,791.9,764.9,785.4,746.5z"/>
<path class="st5" d="M854.5,770.7c-0.1,3.1,6,10.1,9.1,13.8c-1.2,3-2.8,6-4.6,8.7l-0.1,0.1l-2.3,3.1c-1.4,2-2.9,4.2-4.4,6
	c-2,2.8-3.6,5-3.6,5s-12,31.7-15.2,23.5c-1.2-2.8-1.6-6-1.5-9c0.2-6.3,2.7-13.8,7.6-23c0.5-1,1-1.9,1.5-2.8c1.4-2.8,2.7-5.3,3.7-7.6
	c1.9-3.9,3.6-7.9,5.1-12C849.8,776.7,854.6,766.8,854.5,770.7z"/>
<path class="st6" d="M882.2,697.2c-0.4,5.2-1.2,12.5-1.2,12.5v18.7c0,1.4-3.7,19.3-3.7,19.3l-2.7,9.6c0,0,0.4,8.4-3.8,15.2
	c-4.2,6.8-6.9,15.9-10.7,21s-10.1,14.2-10.1,14.2s-12.1,31.6-15.3,23.5c-3.2-8.1-1.4-17.9,6-32s10.3-22.4,10.3-22.4s5.3-12,5.7-15.7
	c0.4-3.7,2.9-25.6,2.9-25.6s4.9-14.1,3.9-29.7c0-0.6,1.2-1.2,1.2-1.8c-1.6-16.2,17.6-11.5,17.6-11.5
	C882.4,694,882.4,695.6,882.2,697.2z"/>
<path class="st5" d="M833.8,831.2c-3.4,5.2,38.7,6,32.3,6.7c-2.3,0.4-4.5,0.8-6.8,1.4l0,0c-11.9,3-33.3,9.7-33.3,9.7l-2.8,0.8
	l-20.4,5.4l1.5-10.9l1.2-9.1l15.5-7.6c0,0,2-0.9,4.5-2.1c4.4-2,10.3-4.9,10.5-5.4c0.3-0.7,15.2-10.6,15.2-10.6
	c4.2-3.9,37-18.9,37-18.9C927.7,782,837.1,826.2,833.8,831.2z"/>
<path class="st5" d="M907.2,823.1c-3.3,5.2-34.7,16-41,16.6c-2.3,0.4-4.5,0.8-6.8,1.4l0,0c-6.8,1.7-16.7,4.6-24,6.8l-8.1-3.7
	l-2.1-16.7l0.4-0.2c4.4-2,10.3-5,10.5-5.4c0.3-0.7,26.3-2.9,26.3-2.9c4.2-3.9,25.9-26.7,25.9-26.7
	C875.4,818.3,910.6,817.9,907.2,823.1z"/>
<path class="st6" d="M907.2,822.4c-3.3,5.2-34.7,16-41,16.6c-2.3,0.4-4.5,0.8-6.8,1.4l0,0c-1.3,0.4-2.8,0.7-4.4,1.2
	c-12.1,3.3-28.9,8.5-28.9,8.5l-2.8,0.8l-3.2,0.9l-15,4l-2.1,0.6l1.2-9.1l0.3-1.9l0.2-1.2l0,0l1.1-7.8l15.5-7.6c0,0,1.1-0.5,2.7-1.2
	l1.9-0.9c4.4-2,10.3-5,10.5-5.4c0.3-0.7,15.2-10.6,15.2-10.6c4.2-3.9,37-18.9,37-18.9C927.7,783.2,910.6,817.4,907.2,822.4z"/>
<path class="st2" d="M807,848c-0.1,2.4-1.1,5.5-2,7.8c-0.7,2-1.4,3.3-1.4,3.3s-4.8,1.2-14.4,0.2c-9.6-1.1-22.9,2.6-23.3,3.6
	c-0.1,0.3-0.4,0.4-0.8,0.6c-0.9,0.3-1.9,0.4-2.8,0.4c-10.1-0.4-10.9-6.8-10.9-6.8s2.2-15.6,6.7-22.1c0.8-1.2,2-2.2,3.4-2.8
	c4.2-1.7,8.9,1.2,8.9,1.2c1,0.6,2.1,1.2,3.3,1.5l0,0c7.6,2.8,25.6,7.8,30.8,9.4l0,0l0.8,0.3C806.6,845,807,846.3,807,848z"/>
<path class="st5" d="M761.3,851.2c0,0-4,9.9,3.8,12.3c-0.9,0.3-1.9,0.4-2.8,0.4c-10.1-0.4-10.9-6.8-10.9-6.8s2.2-15.6,6.7-22.1
	c4.4-6.5,12.3-1.5,12.3-1.5c1,0.6,2.1,1.2,3.3,1.5C773.6,834.9,762.8,836.4,761.3,851.2z"/>
<path class="st5" d="M826.7,768c0,0,26-4.9,26.4-3.3C853.4,766.3,826.7,768,826.7,768z"/>
<path class="st5" d="M834.9,772.1c0,0,15.7-3.2,15.8-1.8S834.9,772.1,834.9,772.1z"/>
<path class="st5" d="M783,785.3c0,0,30.7,5.4,35.6,6.5c4.9,1.1,21.7,0,21.7,0s-21.6-0.3-24-2C814,788,783,785.3,783,785.3z"/>
<path class="st5" d="M827,802.9c0,0,10.7-1.2,9.8,0C835.9,804.1,827,802.9,827,802.9z"/>
<path class="st5" d="M822.2,819.6c0,0,9.1-8.2,9.1-7C831.4,813.7,822.2,819.6,822.2,819.6z"/>
<path class="st5" d="M808.5,816.3l-19,23c-2.3-0.9-4.7-1.5-7.1-2c-7.8-1.3-30.4-8.3-34.6-20.1c0,0,88.9,24,85.9,21.6
	s-107-69.9-68.2-52.8c0,0,22.5,11.5,34.8,21.4C805,812.1,808.5,816.3,808.5,816.3z"/>
<path class="st5" d="M856.2,860.9c0,0-8.4,0.6-10.3,0c-1.9-0.6-10.6-5.8-10.6-5.8s-5.6-2-12.1-4.2c-7.2-2.4-15.5-5-18.1-5.1
	l-0.8-0.4l1.2-9.1l15.5-7.6c0,0,2-0.9,4.5-2.1l5.2,3.5c0,0,12,8.3,15.6,8.5c3.2,0.3,10.9,1.6,13.1,1.9l0,0c0.2,0,0.4,0,0.5,0
	C860.4,840.4,856.2,860.9,856.2,860.9z"/>
<path class="st5" d="M855,841.6c-12.1,3.3-28.9,8.5-28.9,8.5l-2.8,0.8l-3.2,0.9c-4.9-1.6-9.9-3.1-13.1-3.8c-0.8-0.2-1.6-0.4-2.5-0.4
	l-0.4-0.3c-2.7-1.2-15.3-7.1-22.2-8.3c-7.1-1.4-13.9-3.7-20.3-6.9c4.2-1.7,8.9,1.2,8.9,1.2c1,0.6,2.1,1.2,3.3,1.5l0,0
	c7.6,2.8,25.6,7.8,30.8,9.4l1.1-7.8l15.5-7.6c0,0,1.1-0.5,2.7-1.2l6.4,4.3c0,0,12.1,8.3,15.7,8.5C847.8,840.6,851.8,841.2,855,841.6
	z"/>
<path class="st6" d="M764.9,787.1c0,0,34.8,17.8,41.7,28.3l23.5,15.8c0,0,12,8.3,15.6,8.5c3.6,0.3,13.1,2,13.6,1.9
	c0.4-0.2-3.7,20.4-3.7,20.4s-8.4,0.6-10.3,0s-10.6-5.8-10.6-5.8s-25.1-9-30.2-9.2c0,0-14.9-7.2-22.7-8.5s-30.4-8.3-34.6-20.1
	c0,0-5.1-6.5-8.1-9C736.1,807,726.1,770,764.9,787.1z"/>
<path class="st2" d="M896.4,867.1c-0.6-0.1-1-0.2-1-0.2c-7.8-4-28.6-1.6-31.8-2.1c-3.2-0.5-10-1-10-1s-3.6-19-1.2-19.6
	c1.4-0.4,2.8-1.2,3.7-2.3c3.7-2.3,24.7-3,27.4-3.1c0.9,0,1.8-0.3,2.6-0.7l0,0c0.3-0.2,0.5-0.4,0.6-0.7c5-3.1,15.5-2,15.5-2
	s14.3,2,15,19.1C917.8,869.3,900.8,867.7,896.4,867.1z"/>
<path class="st5" d="M896.4,867.1c13.8-3.8,12.1-13,12.1-13c-3.7-18.3-22.1-16.1-22.6-16.1c0.3-0.2,0.5-0.4,0.6-0.7
	c5-3.1,15.5-2,15.5-2s14.3,2,15,19.1C917.8,869.3,900.8,867.7,896.4,867.1z"/>
<path class="st5" d="M882.2,697.2l-18.7,8.5c0-0.6,1.2-1.2,1.2-1.8c-1.6-16.2,17.6-11.5,17.6-11.5
	C882.5,694,882.4,695.6,882.2,697.2z"/>
<polygon class="st4" points="874.5,679.1 877.1,678.6 889,692.6 861.4,706.2 860,693.1 866.5,685.4 "/>
<path class="st5" d="M785.6,710.5l-0.2,0.4l-16.7-12.4c0.1-2.4,0.2-4.1,0.2-4.1l16.5,15.4C785.4,709.8,785.5,710,785.6,710.5z"/>
<path class="st4" d="M781.7,679.1h-4.9c-3.1,2.2-5.6,5.2-7.2,8.6c-2.5,5.4-5.6,6-5.6,6l21.6,16.1l4.1-9.2L781.7,679.1z"/>
<path class="st5" d="M798.2,614.6c-0.9,1.9-1.4,3.8-1.6,5.9s0.8,4,2.6,5.2c0.9,0.4,1.8,0.7,2.8,0.7c4.7,0.4,9.4-0.9,14-1.7
	c5.7-0.9,11.8-0.9,17.1,1.5c2.9,1.3,5.4,3.5,8.1,5.3c2.7,1.9,5.4,3.6,8.6,4.4c3.2,0.7,6.8-0.1,8.9-2.5c1.9-2,2.3-5.1,2.2-7.8
	c-0.4-7.6-3.6-14.7-9.2-19.8c-5.6-5.1-12.5-8.4-19.9-9.5c-5.9-1.2-12.1,0-17,3.5c-4.9,3-9.1,7-12.5,11.6c-1,1.4-2,2.8-3.3,4
	c-1.2,1.2-2.9,1.9-4.7,1.8"/>
<path class="st2" d="M798.2,613.4c-0.9,1.9-1.4,3.8-1.6,5.9c-0.2,2,0.8,4,2.6,5.2c0.9,0.4,1.8,0.7,2.8,0.7c4.7,0.4,9.4-0.9,14-1.7
	c5.7-0.9,11.8-1,17.1,1.5c2.9,1.3,5.4,3.5,8.1,5.3c2.7,1.9,5.4,3.6,8.6,4.4c3.2,0.7,6.8-0.1,8.9-2.5c1.9-2,2.3-5.1,2.2-7.8
	c-0.4-7.6-3.6-14.7-9.2-19.8c-5.6-5.1-12.5-8.4-19.9-9.5c-5.9-1.2-12.1,0-17,3.4c-4.9,3-9.1,6.9-12.5,11.6c-1,1.4-2,2.8-3.3,4
	c-1.2,1.2-2.9,1.9-4.7,1.8"/>
<path class="st5" d="M862.4,843.3c0,0,7.8,9.4,1.6,18.3"/>
<path class="st5" d="M795.1,845.1c0,0-5.6,7-1.2,12.9"/>
<path class="st7" d="M859.6,735.4"/>
<path class="st4" d="M859.8,735.2c-0.1,0.1-0.1,0.2-0.1,0.2c-0.4-0.2-0.7-0.5-0.9-1c-2.6-5.2,1.2-27.1,1.2-27.1l2.6,1.6l0,0l0.7,0.4
	C867.5,721.4,860.8,733.6,859.8,735.2z"/>
<path class="st5" d="M822.2,732.4c0,0-4.2,6.8-6.8,6.8C815.4,739.2,821.8,734.1,822.2,732.4z"/>
<path class="st5" d="M830.6,732.4c0,0,4.2,6.8,6.8,6.8C837.4,739.2,831,734.1,830.6,732.4z"/>
<g class="st3">
	<path d="M796.7,613.8c-0.3,0.2-0.6,0.4-0.9,0.4l-2.5,1.5c1,0.1,2-0.1,2.9-0.5C796.5,614.8,796.5,614.4,796.7,613.8z"/>
	<path d="M797.4,613.4l-0.6,0.4l-0.1,0.2c0.2-0.1,0.4-0.3,0.6-0.4L797.4,613.4z"/>
	<path d="M860,624.2c0.1,2.4-0.7,4.8-2.2,6.7c-2.1,2.4-5.8,3.1-8.9,2.5c-3.1-0.6-6-2.4-8.6-4.4c-2.7-2-5.2-4-8.1-5.3
		c-5.2-2.5-11.4-2.5-17.1-1.5c-4.7,0.8-9.3,2.1-14,1.7c-1-0.1-1.9-0.3-2.8-0.7c-1.5-1-2.5-2.7-2.5-4.4c0,0.1,0,0.3,0,0.4
		c-0.2,2,0.8,4,2.6,5.2c0.9,0.4,1.8,0.7,2.8,0.7c4.7,0.4,9.4-0.9,14-1.7c5.7-0.9,11.8-1,17.1,1.5c2.9,1.3,5.4,3.5,8.1,5.3
		c2.7,1.9,5.4,3.6,8.6,4.4s6.8-0.1,8.9-2.5C859.6,630,860.1,627.1,860,624.2L860,624.2z"/>
</g>
<path class="st4" d="M784.9,306.8c0,0.5,0,1.2,0,1.8c0,0.8,0,1.5-0.1,2.3c-0.1,0.8,0,1.2-0.1,1.9c-0.2,3.2-0.4,6.3-0.6,9.5
	c-0.4,4.7,0,0.1,0,0.1c-0.1,0.9-0.2,1.7-0.3,2.6c-0.1,0.5-0.1,1.1-0.2,1.7s-0.1,1-0.2,1.4c0,0.1,0,0.3,0,0.4
	c-0.2,1.2-0.3,2.4-0.4,3.6s-0.3,2.3-0.4,3.4c-0.1,0.5-0.2,1-0.3,1.5c-0.1,0.7-0.3,1.4-0.4,2.2c-0.1,0.5-0.2,1.1-0.3,1.6
	c-0.4,2.4-0.9,4.8-1.4,7.1c-0.1,0.5-0.3,1.1-0.4,1.7c-0.2,0.8-0.4,1.5-0.5,2.3c-0.3,1.3-0.6,2.6-1,3.9c-0.2,0.7-0.4,1.5-0.6,2.2
	c-0.2,0.5-0.3,1.1-0.4,1.6c-0.4,1.3-0.7,2.6-1.1,3.9c-0.2,0.5-0.3,1-0.4,1.5c-0.3,0.9-0.5,1.8-0.9,2.7c-0.4,0.9-0.6,2-1,2.9
	c-0.4,1-0.6,1.8-0.9,2.7c-0.2,0.5-0.4,1.1-0.6,1.7c-0.3,0.6-0.4,1.2-0.7,1.9c-0.6,1.7-1.3,3.4-2,5.1c-0.3,0.8-0.6,1.5-1,2.3
	c-0.4,0.8-0.6,1.4-0.9,2c-0.4,1-0.9,2-1.3,2.9c-0.4,0.8-0.7,1.6-1.1,2.3c-0.8,1.8-1.7,3.5-2.5,5.2c-0.4,0.7-0.7,1.5-1.2,2.2
	c-0.8,1.6-1.7,3.2-2.6,4.8c-0.2,0.4-0.4,0.6-0.5,0.9c-0.3,0.5-0.6,1.1-0.9,1.6l-0.3,0.4c-0.6,1.1-1.2,2.2-2,3.3
	c-0.4,0.6-0.7,1.2-1.1,1.8c-0.5,0.8-1,1.7-1.5,2.5c-0.4,0.6-0.7,1.2-1.2,1.8c-0.3,0.4-0.5,0.9-0.8,1.2c-0.6,1-1.2,1.9-1.9,2.8
	c-1.2,1.9-2.6,3.7-3.9,5.6l0.4,0.4l-22.4,26.6L670.8,515l-12.6,15c10.7,9.7,19.5,21.1,26,33.8c17.5,34.4,9.6,79.9,21.4,97.8
	c-14.2-10.7-14.9-38.6-49.8-45.7c-2-0.4-4.1-0.8-6.2-1.2c-4.1-0.7-8.1-1.5-11.9-2.5c-3.6-0.9-7.2-2-10.7-3c-0.8-0.3-1.6-0.5-2.4-0.8
	c-8.3-2.8-16.3-6.2-24-10.2l-2,2.5l-9.2,10.9l-63.5,75.4l-24.5,29.1l0,0l-22,26.3l-1,1.1l-0.2-0.2l-2.2-1.9l-2-1.7l-5.9-5
	l-24.7-20.8L431,703.9l-8.3-6.9l-10.8-9.1l-1.8-1.5l-6.8-5.8l-6.6-5.5L371,653.5l-13-10.9l-4.6-3.9l-2.1-1.8l-11.1-9.4l-19-16
	l-2.5-2l-0.3-0.2l-7.9-6.7l-9.9-8.4l-11-9.2l-2-1.6l-5.5-4.6l0,0l0,0l-7.5-6.3l0,0l-20.8-17.5l-3.3-2.8l-0.5-0.4l-12.9-10.8l-8.4-7
	l-3-2.5l-1.5-1.3l0,0l-5-4.3l-15.3-12.9l-43.4-36.6c-0.8-0.6-1.5-1.3-2.3-2l-0.4-0.4l-0.2-0.2c-0.8-0.7-1.5-1.3-2.3-2
	c-0.5-0.4-1.1-0.9-1.5-1.4l-0.4-0.4l-0.4-0.4l-1.1-1l-0.1-0.1l-0.2-0.1c-0.6-0.6-1.2-1.2-1.9-1.8l-0.9-0.8l-0.6-0.6
	c-0.4-0.4-0.7-0.7-1-1l-0.1-0.1c-1.1-1.1-2-2.1-3.1-3.1l-1.3-1.3c-0.4-0.4-0.9-1-1.3-1.4l-0.7-0.8c-0.4-0.4-0.7-0.8-1.2-1.2
	c-0.2-0.2-0.4-0.4-0.6-0.7l-1.1-1.2c-0.6-0.7-1.2-1.4-1.9-2.1c-0.4-0.4-0.8-1-1.2-1.4l-0.3-0.4c-0.6-0.7-1.2-1.4-1.7-2l-0.3-0.4
	c-0.4-0.6-1-1.2-1.4-1.8c-0.3-0.4-0.5-0.6-0.8-1c-0.3-0.4-0.6-0.8-1-1.2c-0.4-0.4-0.5-0.6-0.8-1c-0.1-0.1-0.1-0.2-0.2-0.3
	c-0.5-0.6-1-1.3-1.5-2l-0.3-0.4l-0.3-0.4l-0.5-0.7l-0.3-0.4l-0.4-0.6l-0.5-0.8l-0.3-0.4l-0.4-0.5c-0.4-0.6-0.8-1.2-1.2-1.8l-0.9-1.2
	c-0.5-0.8-1.1-1.5-1.5-2.3l-0.1-0.2c-0.5-0.8-1.1-1.7-1.6-2.5l-0.2-0.3c-0.1-0.2-0.2-0.3-0.3-0.4c-0.5-0.8-1.1-1.7-1.5-2.5
	c-0.4-0.6-0.7-1.2-1.1-1.9l-0.4-0.6l-1.1-1.9c-0.2-0.3-0.3-0.5-0.4-0.8l-0.3-0.5l-0.4-0.6l-0.3-0.5c-0.1-0.1-0.1-0.2-0.2-0.4
	c-0.4-0.6-0.7-1.2-1-1.8l-0.1-0.1c-0.3-0.5-0.6-1.1-0.9-1.6c-0.4-0.7-0.8-1.5-1.2-2.2l-0.9-1.8c-0.2-0.4-0.4-0.9-0.6-1.3
	c-0.2-0.3-0.3-0.6-0.4-0.9c-0.2-0.3-0.3-0.5-0.4-0.7c0-0.1-0.1-0.2-0.1-0.3l-0.1-0.3L107,407l-0.7-1.5c-0.1-0.1-0.1-0.2-0.1-0.2
	c-0.2-0.4-0.4-0.8-0.6-1.2c-0.1-0.3-0.3-0.4-0.4-0.7l-0.8-1.8l-0.4-0.7c-0.1-0.2-0.2-0.4-0.3-0.6c-0.3-0.6-0.5-1.2-0.8-2
	c-0.2-0.4-0.4-1-0.6-1.4c-0.2-0.4-0.3-0.6-0.4-1c-0.4-0.8-0.6-1.6-1-2.4c-0.1-0.3-0.3-0.6-0.4-0.9l-0.1-0.2c0-0.1-0.1-0.1-0.1-0.2
	l-0.1-0.2l-0.1-0.3c-0.1-0.3-0.2-0.4-0.3-0.7c-0.1-0.3-0.2-0.4-0.3-0.6c-0.3-0.7-0.5-1.3-0.7-2c-0.4-1-0.7-2-1.1-3
	c0-0.1,0-0.2-0.1-0.2c-0.2-0.4-0.4-1-0.5-1.4c-0.8-2.4-1.5-4.7-2.2-7.1c-0.4-1.3-0.8-2.7-1.2-4l-0.4-2c-0.4-1.3-0.7-2.7-1.1-4
	l-0.4-2c-0.3-1.3-0.6-2.7-0.9-3.9l-0.1-0.4c-0.1-0.6-0.3-1.2-0.4-1.8l-0.4-2c-0.1-0.5-0.2-1.1-0.3-1.6c-0.2-1-0.4-1.9-0.5-2.8
	c-0.1-0.5-0.2-1.2-0.3-1.7c-0.2-1.3-0.4-2.8-0.6-4.1c-0.1-0.6-0.2-1.3-0.3-2c0-0.1,0-0.3-0.1-0.4c-0.2-1.2-0.3-2.6-0.4-3.8
	c-0.1-0.7-0.2-1.3-0.2-2s-0.2-1.3-0.2-2c-0.4-3.6-0.5-7.1-0.7-10.6c0-0.7-0.1-1.5-0.1-2.2c0-2,0-4,0-5.9c0-1.2,0-2.6,0-3.8
	s0.1-2.5,0.1-3.6c0-0.1,0-0.2,0-0.3c0-1.2,0.1-2.5,0.2-3.7c0.1-1.2,0.2-2.6,0.3-3.8c0-0.1,0-0.1,0-0.2c0.1-1.2,0.2-2.5,0.3-3.6
	c0.1-1.2,0.3-2.6,0.4-3.8l0,0c0.2-1.2,0.3-2.3,0.4-3.6c0-0.2,0-0.3,0.1-0.4c0.2-1.2,0.4-2.4,0.5-3.6c0.2-1.5,0.4-3,0.7-4.5
	c0.3-1.5,0.5-3.1,0.9-4.7c0.2-0.7,0.3-1.4,0.4-2.1c0.3-1.2,0.4-2.3,0.7-3.5c0.1-0.5,0.3-1.1,0.4-1.6c0.1-0.5,0.3-1.1,0.4-1.6
	c0.3-1.2,0.5-2.3,0.9-3.5c0.1-0.4,0.2-0.9,0.4-1.2c0.3-1,0.5-2,0.8-2.9s0.5-2,0.9-3c0.4-1.1,0.5-1.9,0.9-2.8c0.2-0.5,0.3-1,0.4-1.5
	c0-0.1,0-0.1,0-0.1c0.3-0.9,0.5-1.8,0.9-2.6c0.1-0.2,0.2-0.4,0.2-0.6c0.4-1.1,0.7-2.1,1.1-3.2l0,0c0.4-1.2,0.9-2.4,1.3-3.6
	c0.3-0.6,0.4-1.2,0.7-1.9c0.1-0.4,0.3-0.6,0.4-1c0.3-0.7,0.5-1.4,0.9-2.1c0.2-0.5,0.4-1.1,0.6-1.6c1.2-2.7,2.3-5.3,3.6-7.9
	c2.2-5,4.7-9.8,7.4-14.6c0.4-0.7,0.8-1.4,1.2-2.2s0.9-1.4,1.2-2.1s0.9-1.4,1.3-2.1c2.2-3.6,4.5-7.1,7-10.7c0.4-0.6,0.9-1.2,1.2-1.8
	l1.2-1.7c1.8-2.4,3.6-4.8,5.5-7.2c0.4-0.6,1-1.2,1.4-1.8c0.4-0.6,1-1.2,1.4-1.8c1.2-1.4,2.4-2.8,3.6-4.2c0.8-0.9,1.5-1.7,2.3-2.6
	c1.7-1.8,3.3-3.6,5.1-5.3c0.6-0.6,1.2-1.3,2-2c0.1-0.1,0.2-0.2,0.4-0.4c0.6-0.6,1.2-1.2,1.8-1.8l0.8-0.7l1.5-1.4l0.9-0.9l1.5-1.3
	c0.7-0.6,1.4-1.3,2.2-2l1.3-1.2l1.7-1.4c0.4-0.3,0.6-0.5,1-0.8c1.6-1.3,3.2-2.6,4.8-3.9c0.3-0.3,0.6-0.4,0.9-0.7
	c0.6-0.5,1.2-1,1.9-1.4l1.4-1.1c1.5-1.2,3-2.2,4.5-3.3l1.5-1.1l2.3-1.6l2.3-1.6l1.7-1.1c0.4-0.3,0.8-0.5,1.2-0.8l1-0.6
	c0.7-0.4,1.5-0.9,2.2-1.3c0.4-0.2,0.7-0.4,1.1-0.6c0.8-0.5,1.6-1,2.4-1.4l1.4-0.8c1.8-1,3.6-2,5.4-2.9l2.1-1.2l0,0l1.7-0.9
	c2.7-1.3,5.4-2.7,8.2-3.9l1.9-0.8c0.8-0.4,1.7-0.7,2.5-1.1l2.8-1.2c0.8-0.4,1.6-0.6,2.4-0.9l0.1-0.1l1.8-0.7l3.1-1.2
	c1-0.4,2-0.7,3-1.1l0.3-0.1c0.7-0.3,1.4-0.4,2.1-0.7c0.4-0.1,0.8-0.3,1.2-0.4c0.9-0.3,1.8-0.5,2.7-0.9l0.7-0.2c1-0.3,2-0.6,2.9-0.9
	l0,0c0.3-0.1,0.5-0.2,0.8-0.2c0.8-0.3,1.6-0.4,2.5-0.7l0.8-0.2l2.2-0.6c2.8-0.7,5.4-1.3,8.2-1.9c1.1-0.2,2.1-0.4,3.1-0.6h0.1
	c1-0.2,2-0.4,3-0.5l0.7-0.1c1.1-0.2,2.1-0.4,3.3-0.5l0.5-0.1c0.9-0.2,1.8-0.3,2.7-0.4l0.8-0.1c1.1-0.2,2.1-0.3,3.2-0.4h0.2l3.1-0.4
	l0.9-0.1l2.7-0.3l0.9-0.1l3-0.3h0.3c1.1-0.1,2.2-0.2,3.3-0.2c1.1,0,2-0.1,3.1-0.1l1.4-0.1c1,0,2-0.1,3-0.1c1.2,0,2.4,0,3.6,0
	c1.1,0,2.1,0,3.2,0s2.1,0,3.2,0.1c1.8,0.1,3.6,0.1,5.3,0.3l1.6,0.1c1.6,0.1,3.3,0.2,4.9,0.4c0.4,0,0.8,0,1.2,0.1
	c1.9,0.2,3.7,0.4,5.6,0.6c2.2,0.3,4.4,0.5,6.6,0.9c1.1,0.2,2,0.4,3.1,0.5c1.1,0.2,2.1,0.4,3.1,0.5c2.3,0.4,4.6,0.9,7,1.4l2.1,0.4
	l1.9,0.4l1.8,0.4c1,0.3,2,0.5,2.9,0.8c1.9,0.5,3.8,1.1,5.7,1.6c3.3,1,6.5,2,9.8,3.2c0.9,0.4,1.9,0.6,2.8,1l0.3,0.1
	c0.9,0.4,1.9,0.7,2.8,1.1c0.9,0.4,1.8,0.7,2.7,1.1l0.9,0.4l2.6,1.2c1.1,0.4,2.1,0.9,3.2,1.3l2.8,1.2l0,0c1,0.4,2,0.9,2.9,1.4
	c0.7,0.4,1.5,0.7,2.2,1.1c1,0.4,2,1,3,1.5l1.3,0.7l2,1.1l0.3,0.2c7.8,4.3,15.4,9,22.6,14.1l2,1.4c1.2,0.9,2.5,1.9,3.7,2.8l1.2,0.9
	c2,1.5,3.9,3.1,5.8,4.7l0.4,0.4c0.6-0.7,1.3-1.3,2-2c1.2-1.2,2.3-2.3,3.5-3.4c0.6-0.6,1.2-1.2,1.9-1.8c0.6-0.6,1.1-1,1.6-1.5
	c0.7-0.6,1.4-1.2,2.1-2c0.5-0.5,1.1-1,1.7-1.5c0.7-0.6,1.4-1.2,2.1-1.8l2-1.6c0.6-0.5,1.2-1,1.9-1.5c1.8-1.4,3.6-2.8,5.4-4.3
	c0.6-0.5,1.2-1,2-1.4c0.4-0.3,0.7-0.5,1.1-0.7l1.6-1.2c0.7-0.4,1.3-1,2-1.4l2-1.3l1.9-1.2c2-1.3,4.2-2.7,6.2-3.9
	c0.4-0.3,0.8-0.5,1.2-0.8c1.3-0.8,2.6-1.5,3.9-2.3c0.7-0.4,1.5-0.9,2.2-1.2c2.1-1.2,4.3-2.3,6.4-3.4l1.4-0.7l1.4-0.7
	c0.8-0.4,1.6-0.7,2.3-1.2c0.7-0.4,1.6-0.7,2.3-1.1l2.4-1.1c0.8-0.4,1.6-0.7,2.4-1.1c0.8-0.4,1.7-0.7,2.6-1.1l2.2-0.9
	c0.8-0.4,1.6-0.6,2.4-0.9l2.3-0.9h0.1c1.6-0.6,3.2-1.2,4.8-1.7l2.5-0.8l2.4-0.8c0.8-0.3,1.6-0.5,2.5-0.8l2.5-0.7
	c1.6-0.4,3.3-0.9,5-1.3l2.5-0.6c1.7-0.4,3.3-0.8,5-1.2c1.7-0.4,3.3-0.7,5-1.1c1.7-0.4,3.4-0.6,5-1l2.6-0.4c1.9-0.3,3.7-0.5,5.7-0.8
	l2.8-0.4c2.8-0.4,5.7-0.6,8.5-0.8c2-0.2,3.8-0.3,5.7-0.4c3.9-0.2,7.8-0.3,11.8-0.3c0.4,0,0.8,0,1.2,0h1.6c0.8,0,1.5,0,2.3,0.1l2,0.1
	c0.8,0,1.6,0.1,2.5,0.1c0.9,0,1.5,0.1,2.2,0.1l2.2,0.2c0.7,0.1,1.5,0.1,2.2,0.2l1.4,0.2c0.9,0.1,1.9,0.2,2.8,0.3
	c0.2,0,0.4,0.1,0.7,0.1c0.8,0.1,1.7,0.2,2.5,0.3L604,98c0.8,0.1,1.6,0.2,2.4,0.4l1.8,0.3c1,0.2,2,0.3,2.9,0.4c1,0.2,2,0.4,2.8,0.5
	c1.1,0.2,2.2,0.4,3.3,0.6c0.6,0.1,1.2,0.3,1.9,0.4c0.8,0.2,1.6,0.4,2.4,0.5c0.5,0.1,1.1,0.2,1.6,0.4c0.5,0.2,0.8,0.2,1.2,0.3
	l3.5,0.8l0.6,0.2l1.4,0.4l3.1,0.8c1.2,0.4,2.4,0.6,3.6,1h0.1l2.5,0.8l3.3,1.1c1.9,0.6,3.6,1.2,5.5,1.9c0.5,0.2,1.2,0.4,1.7,0.6
	c5.1,1.9,10.1,4,15.1,6.3c0.6,0.3,1.2,0.5,1.8,0.8c4.3,2,8.4,4.2,12.6,6.5l1.4,0.8c0.8,0.4,1.6,0.9,2.3,1.3c1.3,0.8,2.8,1.7,4.1,2.5
	l1.7,1.1c0.2,0.1,0.4,0.3,0.6,0.4c3.2,2,6.3,4.2,9.4,6.4h0.1c0.6,0.4,1.2,0.8,1.7,1.2c0.8,0.6,1.6,1.2,2.4,1.8l1.2,1l0.7,0.5
	c1.2,1,2.5,2,3.6,2.9l1.4,1.2l1.4,1.2c0.7,0.6,1.4,1.2,2.2,1.9c1.2,1.1,2.5,2.1,3.6,3.2c0.4,0.4,1,0.9,1.4,1.3l0.3,0.3l0.5,0.5
	c1.6,1.5,3.1,3,4.7,4.5c0.6,0.6,1.2,1.2,1.9,1.9c0.4,0.4,0.8,0.9,1.2,1.2c1,1,2,2,2.9,3.1l1.1,1.1c2.1,2.4,4.3,4.8,6.3,7.2
	c0.5,0.6,1,1.2,1.5,1.8c0.4,0.4,0.6,0.8,1,1.2s0.6,0.8,1,1.2c0.1,0.1,0.2,0.2,0.3,0.3c0.4,0.4,0.7,0.9,1.1,1.4
	c0.6,0.8,1.2,1.5,1.8,2.3c0.7,1,1.4,1.9,2,2.8c0.5,0.7,1.1,1.5,1.6,2.3c0.6,0.9,1.2,1.9,2,2.8c1.2,1.9,2.5,3.7,3.6,5.6l0,0
	c0.6,1,1.2,1.9,1.8,2.8c0.6,1,1.2,1.9,1.7,2.8c0.5,1,1.2,2,1.7,2.8c0.5,0.9,1,1.8,1.5,2.7c1.6,2.8,3,5.7,4.4,8.6
	c0.3,0.4,0.4,1,0.7,1.4c0.3,0.6,0.6,1.2,0.9,1.9l0.1,0.3c0.4,0.9,0.8,1.7,1.2,2.6c0.5,1.2,1,2.2,1.5,3.4c0.3,0.7,0.6,1.4,0.9,2.1
	c1.1,2.6,2,5.2,3,7.7c0.2,0.6,0.4,1.2,0.6,1.8c0.2,0.6,0.4,1.1,0.5,1.6c0.3,0.8,0.5,1.6,0.8,2.4c0.2,0.6,0.4,1.2,0.6,1.8
	c0.2,0.6,0.4,1,0.4,1.5c0.5,1.8,1.1,3.6,1.6,5.3c0.2,0.4,0.3,0.9,0.4,1.3c0.2,0.8,0.4,1.5,0.6,2.3c0.3,1.1,0.5,2.1,0.8,3.2
	s0.5,2,0.7,3c0,0.1,0,0.1,0,0.2c0.2,0.7,0.4,1.4,0.4,2.1l0.3,1.3c0.3,1.2,0.5,2.5,0.8,3.7c0.2,0.8,0.3,1.6,0.4,2.4
	c0.3,1.2,0.4,2.5,0.6,3.7c0.2,0.8,0.3,1.6,0.4,2.4c0,0.2,0.1,0.4,0.1,0.6c0.1,0.8,0.3,1.5,0.4,2.3c0,0.3,0.1,0.5,0.1,0.8
	c0.1,0.9,0.3,1.8,0.4,2.7c0.2,1.2,0.3,2.5,0.4,3.6c0.3,2.7,0.5,5.3,0.7,8c0.1,0.9,0.1,1.9,0.2,2.8s0.1,1.9,0.1,2.8
	c0,0.7,0.1,1.3,0.1,2C784.9,300.8,784.9,303.8,784.9,306.8z"/>
<path class="st4" d="M723,669.6c-4.5,0.4-10.6,2.6-17.3-7.8C717.4,670.7,723,669.6,723,669.6z"/>
<linearGradient id="SVGID_2_" gradientUnits="userSpaceOnUse" x1="500.105" y1="236.9853" x2="500.105" y2="-410.3447" gradientTransform="matrix(1 0 0 1 -64.27 506.65)">
	<stop  offset="0" style="stop-color:#000000;stop-opacity:0.1"/>
	<stop  offset="0.47" style="stop-color:#000000;stop-opacity:0.3"/>
	<stop  offset="1" style="stop-color:#000000;stop-opacity:0.5"/>
</linearGradient>
<path class="st8" d="M784.9,306.8c0,0.5,0,1.2,0,1.8c0,0.8,0,1.5-0.1,2.3c-0.1,0.8,0,1.2-0.1,1.9c-0.2,3.2-0.4,6.3-0.6,9.5
	c-0.4,4.7,0,0.1,0,0.1c-0.1,0.9-0.2,1.7-0.3,2.6c-0.1,0.5-0.1,1.1-0.2,1.7s-0.1,1-0.2,1.4c0,0.1,0,0.3,0,0.4
	c-0.2,1.2-0.3,2.4-0.4,3.6s-0.3,2.3-0.4,3.4c-0.1,0.5-0.2,1-0.3,1.5c-0.1,0.7-0.3,1.4-0.4,2.2c-0.1,0.5-0.2,1.1-0.3,1.6
	c-0.4,2.4-0.9,4.8-1.4,7.1c-0.1,0.5-0.3,1.1-0.4,1.7c-0.2,0.8-0.4,1.5-0.5,2.3c-0.3,1.3-0.6,2.6-1,3.9c-0.2,0.7-0.4,1.5-0.6,2.2
	c-0.2,0.5-0.3,1.1-0.4,1.6c-0.4,1.3-0.7,2.6-1.1,3.9c-0.2,0.5-0.3,1-0.4,1.5c-0.3,0.9-0.5,1.8-0.9,2.7c-0.4,0.9-0.6,2-1,2.9
	c-0.4,1-0.6,1.8-0.9,2.7c-0.2,0.5-0.4,1.1-0.6,1.7c-0.3,0.6-0.4,1.2-0.7,1.9c-0.6,1.7-1.3,3.4-2,5.1c-0.3,0.8-0.6,1.5-1,2.3
	c-0.4,0.8-0.6,1.4-0.9,2c-0.4,1-0.9,2-1.3,2.9c-0.4,0.8-0.7,1.6-1.1,2.3c-0.8,1.8-1.7,3.5-2.5,5.2c-0.4,0.7-0.7,1.5-1.2,2.2
	c-0.8,1.6-1.7,3.2-2.6,4.8c-0.2,0.4-0.4,0.6-0.5,0.9c-0.3,0.5-0.6,1.1-0.9,1.6l-0.3,0.4c-0.6,1.1-1.2,2.2-2,3.3
	c-0.4,0.6-0.7,1.2-1.1,1.8c-0.5,0.8-1,1.7-1.5,2.5c-0.4,0.6-0.7,1.2-1.2,1.8c-0.3,0.4-0.5,0.9-0.8,1.2c-0.6,1-1.2,1.9-1.9,2.8
	c-1.2,1.9-2.6,3.7-3.9,5.6l0.4,0.4l-22.4,26.6L670.8,515l-12.6,15c10.7,9.7,19.5,21.1,26,33.8c17.5,34.4,9.6,79.9,21.4,97.8
	c-14.2-10.7-14.9-38.6-49.8-45.7c-2-0.4-4.1-0.8-6.2-1.2c-4.1-0.7-8.1-1.5-11.9-2.5c-3.6-0.9-7.2-2-10.7-3c-0.8-0.3-1.6-0.5-2.4-0.8
	c-8.3-2.8-16.3-6.2-24-10.2l-2,2.5l-9.2,10.9l-63.5,75.4l-24.5,29.1l0,0l-22,26.3l-1,1.1l-0.2-0.2l-2.2-1.9l-2-1.7l-5.9-5
	l-24.7-20.8L431,703.9l-8.3-6.9l-10.8-9.1l-1.8-1.5l-6.8-5.8l-6.6-5.5L371,653.5l-13-10.9l-4.6-3.9l-2.1-1.8l-11.1-9.4l-19-16
	l-2.5-2l-0.3-0.2l-7.9-6.7l-9.9-8.4l-11-9.2l-2-1.6l-5.5-4.6l0,0l0,0l-7.5-6.3l0,0l-20.8-17.5l-3.3-2.8l-0.5-0.4l-12.9-10.8l-8.4-7
	l-3-2.5l-1.5-1.3l0,0l-5-4.3l-15.3-12.9l-43.4-36.6c-0.8-0.6-1.5-1.3-2.3-2l-0.4-0.4l-0.2-0.2c-0.8-0.7-1.5-1.3-2.3-2
	c-0.5-0.4-1.1-0.9-1.5-1.4l-0.4-0.4l-0.4-0.4l-1.1-1l-0.1-0.1l-0.2-0.1c-0.6-0.6-1.2-1.2-1.9-1.8l-0.9-0.8l-0.6-0.6l-1-1l0,0
	l-0.1-0.1c-1.1-1.1-2-2.1-3.1-3.1l-1.3-1.3c-0.4-0.4-0.9-1-1.3-1.4l-0.7-0.8c-0.4-0.4-0.7-0.8-1.2-1.2c-0.2-0.2-0.4-0.4-0.6-0.7
	l-1.1-1.2c-0.6-0.7-1.2-1.4-1.9-2.1c-0.4-0.4-0.8-1-1.2-1.4l-0.3-0.4c-0.6-0.7-1.2-1.4-1.7-2l-0.3-0.4c-0.4-0.6-1-1.2-1.4-1.8
	c-0.3-0.4-0.5-0.6-0.8-1c-0.3-0.4-0.6-0.8-1-1.2c-0.4-0.4-0.5-0.6-0.8-1c-0.1-0.1-0.1-0.2-0.2-0.3c-0.5-0.6-1-1.3-1.5-2l-0.3-0.4
	l-0.3-0.4l-0.5-0.7l-0.3-0.4l-0.4-0.6l-0.5-0.8l-0.3-0.4l-0.4-0.5c-0.4-0.6-0.8-1.2-1.2-1.8l-0.9-1.2c-0.5-0.8-1.1-1.5-1.5-2.3
	l0.1-0.1c-0.5-0.8-1.1-1.7-1.6-2.5l-0.2-0.3c-0.1-0.2-0.2-0.3-0.3-0.4c-0.5-0.8-1.1-1.7-1.5-2.5c-0.4-0.6-0.7-1.2-1.1-1.9l-0.4-0.6
	l-1.1-1.9c-0.2-0.3-0.3-0.5-0.4-0.8l-0.3-0.5l-0.4-0.6l-0.1-0.1l-0.3-0.4c-0.1-0.1-0.1-0.2-0.2-0.4c-0.4-0.6-0.7-1.2-1-1.8l-0.1-0.1
	c-0.3-0.5-0.6-1.1-0.9-1.6c-0.4-0.7-0.8-1.5-1.2-2.2l-0.9-1.8c-0.2-0.4-0.4-0.9-0.6-1.3c-0.2-0.3-0.3-0.6-0.4-0.9
	c-0.2-0.3-0.3-0.5-0.4-0.7c0-0.1-0.1-0.2-0.1-0.3l-0.1-0.3l-0.2-0.4l-0.7-1.5c-0.1-0.1-0.1-0.2-0.1-0.2c-0.2-0.4-0.4-0.8-0.6-1.2
	c-0.1-0.3-0.3-0.4-0.4-0.7l-0.8-1.8l-0.4-0.7c-0.1-0.2-0.2-0.4-0.3-0.6c-0.3-0.6-0.5-1.2-0.8-2l-0.4-0.8c-0.1-0.2-0.2-0.4-0.3-0.5
	c-0.1-0.2-0.3-0.6-0.4-1c-0.4-0.8-0.6-1.6-1-2.4c-0.1-0.3-0.3-0.6-0.4-0.9l-0.1-0.2c0-0.1-0.1-0.1-0.1-0.2l-0.1-0.2l-0.1-0.3
	c-0.1-0.3-0.2-0.4-0.3-0.7c-0.1-0.3-0.2-0.4-0.3-0.6c-0.3-0.7-0.5-1.3-0.7-2c-0.4-1-0.7-2-1.1-3c0-0.1,0-0.2-0.1-0.2
	c-0.2-0.4-0.4-1-0.5-1.4c-0.2-0.4-0.3-0.8-0.4-1.2c-0.6-2-1.2-4-1.9-6c-0.4-1.3-0.8-2.7-1.2-4l-0.4-2.1c-0.4-1.3-0.7-2.7-1.1-4
	l-0.4-2c-0.3-1.3-0.6-2.7-0.9-3.9l-0.1-0.4c-0.1-0.6-0.3-1.2-0.4-1.8l-0.4-2c-0.1-0.5-0.2-1.1-0.3-1.6c-0.2-1-0.4-1.9-0.5-2.8
	c-0.1-0.5-0.2-1.2-0.3-1.7c-0.2-1.3-0.4-2.8-0.6-4.1c-0.1-0.6-0.2-1.3-0.3-2c0-0.1,0-0.3-0.1-0.4c-0.2-1.2-0.3-2.6-0.4-3.8
	c-0.1-0.7-0.2-1.3-0.2-2s-0.2-1.3-0.2-2c-0.4-3.6-0.5-7.1-0.7-10.6c0-0.7-0.1-1.5-0.1-2.2c0-2,0-4,0-6c0-1.2,0-2.6,0-3.8
	s0.1-2.5,0.1-3.6c0-0.1,0-0.2,0-0.3c0-1.2,0.1-2.5,0.2-3.7c0.1-1.2,0.2-2.6,0.3-3.8c0-0.1,0-0.1,0-0.2c0.1-1.2,0.2-2.5,0.3-3.6
	c0.1-1.2,0.3-2.6,0.4-3.8l0,0c0.2-1.2,0.3-2.3,0.4-3.6c0-0.2,0-0.3,0.1-0.4c0.2-1.2,0.4-2.4,0.5-3.6c0.2-1.5,0.4-3,0.7-4.5
	c0.3-1.5,0.5-3.1,0.9-4.7c0.2-0.7,0.3-1.4,0.4-2.1c0.3-1.2,0.4-2.3,0.7-3.5c0.1-0.5,0.3-1.1,0.4-1.6s0.3-1.1,0.4-1.6
	c0.3-1.2,0.5-2.3,0.9-3.5c0.1-0.4,0.2-0.9,0.4-1.2c0.3-1,0.5-2,0.8-2.9s0.5-2,0.9-3c0.4-1.1,0.5-1.9,0.9-2.8c0.2-0.5,0.3-1,0.4-1.5
	c0-0.1,0-0.1,0-0.1c0.3-0.9,0.5-1.8,0.9-2.6c0.1-0.2,0.2-0.4,0.2-0.6c0.4-1.1,0.7-2.1,1.1-3.2l0,0c0.4-1.2,0.9-2.4,1.3-3.6
	c0.3-0.6,0.4-1.2,0.7-1.9c0.1-0.4,0.3-0.6,0.4-1c0.3-0.7,0.5-1.4,0.9-2.1c0.2-0.5,0.4-1.1,0.6-1.6c1.2-2.7,2.3-5.3,3.6-7.9
	c2.2-4.9,4.7-9.8,7.4-14.5c0.4-0.7,0.8-1.4,1.2-2.2s0.9-1.4,1.2-2.1s0.9-1.4,1.3-2.1c2.2-3.6,4.5-7.1,7-10.7
	c0.4-0.6,0.9-1.2,1.2-1.8l1.2-1.7c1.8-2.4,3.6-4.8,5.5-7.2c0.4-0.6,1-1.2,1.4-1.8c0.4-0.6,1-1.2,1.4-1.8c1.2-1.4,2.4-2.8,3.6-4.2
	c0.8-0.9,1.5-1.7,2.3-2.6c1.7-1.8,3.3-3.6,5.1-5.3c0.6-0.6,1.2-1.3,2-2c0.1-0.1,0.2-0.2,0.4-0.4c0.6-0.6,1.2-1.2,1.8-1.8l0.8-0.7
	l1.5-1.4l0.9-0.9l1.5-1.3c0.7-0.6,1.4-1.3,2.2-2l1.3-1.2l1.7-1.4c0.4-0.3,0.6-0.5,1-0.8c1.6-1.3,3.2-2.6,4.8-3.9
	c0.3-0.3,0.6-0.4,0.9-0.7c0.6-0.5,1.2-1,1.9-1.4l1.4-1.1c1.5-1.2,3-2.2,4.5-3.3l1.5-1.1l2.3-1.6l2.3-1.6l1.7-1.1
	c0.4-0.3,0.8-0.5,1.2-0.8l1-0.6c0.7-0.4,1.5-0.9,2.2-1.3c0.4-0.2,0.7-0.4,1.1-0.6c0.8-0.5,1.6-1,2.4-1.4l1.4-0.8
	c1.8-1,3.6-2,5.4-2.9l2.1-1.2l0,0l1.7-0.9c2.7-1.3,5.4-2.7,8.2-3.9l1.9-0.8c0.8-0.4,1.7-0.7,2.5-1.1l2.8-1.2
	c0.8-0.4,1.6-0.6,2.4-0.9l0.1-0.1l1.8-0.7l3.1-1.2c1-0.4,2-0.7,3-1.1l0.3-0.1c0.7-0.3,1.4-0.4,2.1-0.7c0.4-0.1,0.8-0.3,1.2-0.4
	c0.9-0.3,1.8-0.5,2.7-0.9l0.7-0.2c1-0.3,2-0.6,2.9-0.9l0,0c0.3-0.1,0.5-0.2,0.8-0.2c0.8-0.3,1.6-0.4,2.5-0.7l0.8-0.2l2.2-0.6
	c2.8-0.7,5.4-1.3,8.2-1.9c1.1-0.2,2.1-0.4,3.1-0.6h0.1c1-0.2,2-0.4,3-0.5l0.7-0.1c1.1-0.2,2.1-0.4,3.3-0.5l0.5-0.1
	c0.9-0.2,1.8-0.3,2.7-0.4l0.8-0.1c1.1-0.2,2.1-0.3,3.2-0.4h0.2l3.1-0.4l0.9-0.1l2.7-0.3l0.9-0.1l3-0.3h0.3c1.1-0.1,2.2-0.2,3.3-0.2
	c1.1,0,2-0.1,3.1-0.1l1.4-0.1c1,0,2-0.1,3-0.1c1.2,0,2.4,0,3.6,0c1.1,0,2.1,0,3.2,0s2.1,0,3.2,0.1c1.8,0.1,3.6,0.1,5.3,0.3l1.6,0.1
	c1.6,0.1,3.3,0.2,4.9,0.4c0.4,0,0.8,0,1.2,0.1c1.9,0.2,3.7,0.4,5.6,0.6c2.2,0.3,4.4,0.5,6.6,0.9c1.1,0.2,2,0.4,3.1,0.5
	s2.1,0.4,3.1,0.5c2.3,0.4,4.6,0.9,7,1.4l2.1,0.4l1.9,0.4l1.8,0.4c1,0.3,2,0.5,2.9,0.8c1.9,0.5,3.8,1.1,5.7,1.6c3.3,1,6.5,2,9.8,3.2
	c0.9,0.4,1.9,0.6,2.8,1l0.3,0.1c0.9,0.4,1.9,0.7,2.8,1.1c0.9,0.4,1.8,0.7,2.7,1.1l0.9,0.4l2.6,1.2c1.1,0.4,2.1,0.9,3.2,1.3l2.8,1.2
	l0,0c1,0.4,2,0.9,2.9,1.4c0.7,0.4,1.5,0.7,2.2,1.1c1,0.4,2,1,3,1.5l1.3,0.7l2,1.1l0.3,0.2c7.8,4.3,15.4,9,22.6,14.1l2,1.4
	c1.2,0.9,2.5,1.9,3.7,2.8l1.2,0.9c2,1.5,3.9,3.1,5.8,4.7l0.4,0.4c0.6-0.7,1.3-1.3,2-2c1.2-1.2,2.3-2.3,3.5-3.4
	c0.6-0.6,1.2-1.2,1.9-1.8c0.6-0.6,1.1-1,1.6-1.5c0.7-0.6,1.4-1.2,2.1-2c0.5-0.5,1.1-1,1.7-1.5c0.7-0.6,1.4-1.2,2.1-1.8l2-1.6
	c0.6-0.5,1.2-1,1.9-1.5c1.8-1.4,3.6-2.8,5.4-4.3c0.6-0.5,1.2-1,2-1.4c0.4-0.3,0.7-0.5,1.1-0.7l1.6-1.2c0.7-0.4,1.3-1,2-1.4l2-1.3
	l1.9-1.2c2-1.3,4.2-2.7,6.2-3.9c0.4-0.3,0.8-0.5,1.2-0.8c1.3-0.8,2.6-1.5,3.9-2.3c0.7-0.4,1.5-0.9,2.2-1.2c2.1-1.2,4.3-2.3,6.4-3.4
	l1.4-0.7l1.4-0.7c0.8-0.4,1.6-0.7,2.3-1.2c0.7-0.4,1.6-0.7,2.3-1.1l2.4-1.1c0.8-0.4,1.6-0.7,2.4-1.1c0.8-0.4,1.7-0.7,2.6-1.1
	l2.2-0.9c0.8-0.4,1.6-0.6,2.4-0.9l2.3-0.9h0.1c1.6-0.6,3.2-1.2,4.8-1.7l2.5-0.8l2.4-0.8c0.8-0.3,1.6-0.5,2.5-0.8l2.5-0.7
	c1.6-0.4,3.3-0.9,5-1.3l2.5-0.6c1.7-0.4,3.3-0.8,5-1.2c1.7-0.4,3.3-0.7,5-1.1c1.7-0.4,3.4-0.6,5-1l2.6-0.4c1.9-0.3,3.7-0.5,5.7-0.8
	l2.8-0.4c2.8-0.4,5.7-0.6,8.5-0.8c2-0.2,3.8-0.3,5.7-0.4c3.9-0.2,7.8-0.3,11.8-0.3c0.4,0,0.8,0,1.2,0h1.6c0.8,0,1.5,0,2.3,0.1l2,0.1
	c0.8,0,1.6,0.1,2.5,0.1c0.9,0,1.5,0.1,2.2,0.1l2.2,0.2c0.7,0.1,1.5,0.1,2.2,0.2l1.4,0.2c0.9,0.1,1.9,0.2,2.8,0.3
	c0.2,0,0.4,0.1,0.7,0.1c0.8,0.1,1.7,0.2,2.5,0.3L604,98c0.8,0.1,1.6,0.2,2.4,0.4l1.8,0.3c1,0.2,2,0.3,2.9,0.4c1,0.2,2,0.4,2.8,0.5
	c1.1,0.2,2.2,0.4,3.3,0.6c0.6,0.1,1.2,0.3,1.9,0.4c0.8,0.2,1.6,0.4,2.4,0.5c0.5,0.1,1.1,0.2,1.6,0.4c0.5,0.2,0.8,0.2,1.2,0.3
	l3.5,0.8l0.6,0.2l1.4,0.4l3.1,0.8c1.2,0.4,2.4,0.6,3.6,1h0.1l2.5,0.8c0.8,0.3,1.7,0.5,2.5,0.8l0.9,0.3c1.9,0.6,3.6,1.2,5.5,1.9
	c0.5,0.2,1.2,0.4,1.7,0.6c5.1,1.9,10.1,4,15.1,6.3c0.6,0.3,1.2,0.5,1.8,0.8c4.3,2,8.4,4.2,12.6,6.5l1.4,0.8c0.8,0.4,1.6,0.9,2.3,1.3
	c1.3,0.8,2.8,1.7,4.1,2.5l1.7,1.1c0.2,0.1,0.4,0.3,0.6,0.4c3.2,2,6.3,4.2,9.4,6.4h0.1c0.6,0.4,1.2,0.8,1.7,1.2
	c0.8,0.6,1.6,1.2,2.4,1.8l1.2,1l0.7,0.5c1.2,1,2.5,2,3.6,2.9l1.3,1.2l1.4,1.2c0.7,0.6,1.4,1.2,2.2,1.9c1.2,1.1,2.5,2.1,3.6,3.2
	c0.4,0.4,1,0.9,1.4,1.3l0.3,0.3l0.5,0.5c1.6,1.5,3.1,3,4.7,4.5c0.6,0.6,1.2,1.2,1.9,1.9c0.4,0.4,0.8,0.9,1.2,1.2c1,1,2,2,2.9,3.1
	l1.1,1.1c2.1,2.4,4.3,4.8,6.3,7.2c0.5,0.6,1,1.2,1.5,1.8c0.4,0.4,0.6,0.8,1,1.2s0.6,0.8,1,1.2c0.1,0.1,0.2,0.2,0.3,0.3
	c0.4,0.4,0.7,0.9,1.1,1.4c0.6,0.8,1.2,1.5,1.8,2.3c0.7,1,1.4,1.9,2,2.8c0.5,0.7,1.1,1.5,1.6,2.3c0.6,0.9,1.2,1.9,2,2.8
	c1.2,1.9,2.5,3.7,3.6,5.6l0,0c0.6,1,1.2,1.9,1.8,2.8c0.6,1,1.2,1.9,1.7,2.8c0.5,1,1.2,2,1.7,2.8c0.5,0.9,1,1.8,1.5,2.7
	c1.6,2.8,3,5.7,4.4,8.6c0.3,0.4,0.4,1,0.7,1.4c0.3,0.6,0.6,1.2,0.9,1.9l0.1,0.3c0.4,0.9,0.8,1.7,1.2,2.6c0.5,1.2,1,2.2,1.5,3.4
	c0.3,0.7,0.6,1.4,0.9,2.1c1.1,2.6,2,5.2,3,7.7c0.2,0.6,0.4,1.2,0.6,1.8c0.2,0.6,0.4,1.1,0.5,1.6c0.3,0.8,0.5,1.6,0.8,2.4
	c0.2,0.6,0.4,1.2,0.6,1.8c0.2,0.6,0.4,1,0.4,1.5c0.5,1.8,1.1,3.6,1.6,5.3c0.2,0.4,0.3,0.9,0.4,1.3c0.2,0.8,0.4,1.5,0.6,2.3
	c0.3,1.1,0.5,2.1,0.8,3.2s0.5,2,0.7,3c0,0.1,0,0.1,0,0.2c0.2,0.7,0.4,1.4,0.4,2.1l0.3,1.3c0.3,1.2,0.5,2.5,0.8,3.7
	c0.2,0.8,0.3,1.6,0.4,2.4c0.3,1.2,0.4,2.5,0.6,3.7c0.2,0.8,0.3,1.6,0.4,2.4c0,0.2,0.1,0.4,0.1,0.6c0.1,0.8,0.3,1.5,0.4,2.3
	c0,0.3,0.1,0.5,0.1,0.8c0.1,0.9,0.3,1.8,0.4,2.7c0.2,1.2,0.3,2.5,0.4,3.6c0.3,2.7,0.5,5.3,0.7,8c0.1,0.9,0.1,1.9,0.2,2.8
	s0.1,1.9,0.1,2.8c0,0.7,0.1,1.3,0.1,2C784.9,300.8,784.9,303.8,784.9,306.8z"/>
<path class="st0" d="M757.7,406.7c-0.6,1.1-1.2,2.2-2,3.3c-0.4,0.6-0.7,1.2-1.1,1.8c-0.5,0.8-1,1.7-1.5,2.5
	c-0.4,0.6-0.7,1.2-1.2,1.8c-0.3,0.4-0.5,0.9-0.8,1.2c-0.6,1-1.2,1.9-1.9,2.8c-1.2,1.9-2.6,3.7-3.9,5.6l0.4,0.4l-22.3,26.6L671,515
	c-9.9,2.3-20,4.4-30.2,6c-32.7,5.3-67.4,10.6-103,15.2l-6.5,0.8l-0.6,0.1l-1.2,0.2l-6.1,0.8c-2.6,0.4-5.2,0.6-7.7,1
	c-1.9,0.3-3.8,0.4-5.7,0.7l-2.4,0.3c-40.6,4.8-81.7,8.8-121.8,11.1l-2.2,0.1c-3.2,0.2-6.3,0.4-9.5,0.5c-4.7,0.3-9.4,0.4-14.1,0.7
	c-18.8,0.8-37.3,1.2-55.3,1.2c-4.3,0-8.5,0-12.8-0.1l-4.2-0.1h-1.8c-2.9-0.1-5.8-0.2-8.6-0.3c-4.8-0.2-9.6-0.4-14.3-0.5
	c-2.4-0.1-4.8-0.3-7.2-0.4l-5-0.3l-0.5-0.4l-12.9-10.8l-8.4-7l-3-2.5l-1.5-1.3l0,0l-5-4.3l-15.2-12.8l-43.4-36.6
	c-0.8-0.6-1.5-1.3-2.3-2l-0.4-0.4l-0.2-0.2c-0.8-0.7-1.5-1.3-2.3-2c-0.5-0.4-1.1-0.9-1.5-1.4l-0.4-0.4l-0.4-0.4l-1.1-1l-0.1-0.1
	l-0.2-0.1c-0.6-0.6-1.2-1.2-1.9-1.8l-0.3-0.3l-1.2-1.2c-0.4-0.4-0.6-0.6-1-1l-0.1-0.1c-1.1-1.1-2-2.1-3.1-3.1l-1.3-1.3
	c-0.4-0.4-0.9-1-1.3-1.4l-0.7-0.8c-0.4-0.4-0.7-0.8-1.2-1.2c-0.2-0.2-0.4-0.4-0.6-0.7l-1.1-1.2c-0.6-0.7-1.2-1.4-1.9-2.1
	c-0.4-0.4-0.8-1-1.2-1.4l-0.3-0.4l-0.3-0.3c-0.5-0.6-1-1.2-1.5-1.8l-0.3-0.4c-0.4-0.6-1-1.2-1.4-1.8c-0.3-0.4-0.5-0.6-0.8-1
	c-0.3-0.4-0.6-0.8-1-1.2c-0.4-0.4-0.5-0.6-0.8-1c-0.1-0.1-0.1-0.2-0.2-0.3l-1.2-1.5l-0.4-0.5l-0.3-0.4l-0.3-0.4l-0.5-0.7l-0.3-0.4
	l-0.4-0.6l-0.5-0.8l-0.3-0.4l-0.4-0.5c-0.4-0.6-0.8-1.2-1.2-1.8l-0.9-1.2c-0.5-0.8-1.1-1.5-1.5-2.3l-0.1,0.1
	c-0.5-0.8-1.1-1.7-1.6-2.5l-0.2-0.3c-0.1-0.2-0.2-0.3-0.3-0.4c-0.5-0.8-1.1-1.7-1.5-2.5c-0.4-0.6-0.7-1.2-1.1-1.9l-0.4-0.6l-1.1-1.9
	c-0.2-0.3-0.3-0.5-0.4-0.8l-0.3-0.5l-0.4-0.6l-0.1-0.1l-0.3-0.4c-0.1-0.1-0.1-0.2-0.2-0.4c-0.4-0.6-0.7-1.2-1-1.8l-0.1-0.1
	c-0.3-0.5-0.6-1.1-0.9-1.6c-0.4-0.7-0.8-1.5-1.2-2.2l-0.9-1.8c-0.2-0.4-0.4-0.9-0.6-1.3c-0.2-0.3-0.3-0.6-0.4-0.9
	c-0.2-0.3-0.3-0.5-0.4-0.7c0-0.1-0.1-0.2-0.1-0.3l-0.1-0.3l-0.2-0.4l-0.7-1.5c-0.1-0.1-0.1-0.2-0.1-0.2c-0.2-0.4-0.4-0.8-0.6-1.2
	c-0.1-0.3-0.3-0.4-0.4-0.7l-0.8-1.8l-0.4-0.7c-0.1-0.2-0.2-0.4-0.3-0.6l124.5,1.2h1.2h4.4l8.9,0.1l6.7,0.1h1.8l6.2,0.1l39.9,0.4
	l52.3,0.5l0,0l48.1,0.4h2.1l6,0.1l8.2,0.1h5.6h1.1h0.7l5.7,0.1L757.7,406.7z"/>
<path class="st0" d="M743.6,179.5H139.2c0.8-0.9,1.5-1.7,2.3-2.6c1.7-1.8,3.3-3.6,5.1-5.3c0.6-0.6,1.2-1.3,2-2
	c0.1-0.1,0.2-0.2,0.4-0.4c0.6-0.6,1.2-1.2,1.8-1.8l0.8-0.7l1.5-1.4l0.9-0.9l1.5-1.3c0.7-0.6,1.4-1.3,2.2-2l1.3-1.2l1.7-1.4
	c0.4-0.3,0.6-0.5,1-0.8c1.6-1.3,3.2-2.6,4.8-3.9c0.3-0.3,0.6-0.4,0.9-0.7c0.6-0.5,1.2-1,1.9-1.4l1.4-1.1c1.5-1.2,3-2.2,4.5-3.3
	l1.5-1.1l2.3-1.6l2.3-1.6l1.7-1.1c0.4-0.3,0.8-0.5,1.2-0.8l1-0.6c0.7-0.4,1.5-0.9,2.2-1.3c0.4-0.2,0.7-0.4,1.1-0.6
	c0.8-0.5,1.6-1,2.4-1.4l1.4-0.8c1.8-1,3.6-2,5.4-2.9l2.1-1.2l0,0l1.7-0.9c2.7-1.3,5.4-2.7,8.2-3.9l1.9-0.8c0.8-0.4,1.7-0.7,2.5-1.1
	l2.8-1.2c0.8-0.4,1.6-0.6,2.4-0.9l0.1-0.1l1.8-0.7l3.1-1.2c1-0.4,2-0.7,3-1.1l0.3-0.1c0.7-0.3,1.4-0.4,2.1-0.7
	c0.4-0.1,0.8-0.3,1.2-0.4c0.9-0.3,1.8-0.5,2.7-0.9l0.7-0.2c1-0.3,2-0.6,2.9-0.9l0,0c52.1,11.7,105.4,16.3,155.7,16.9
	c7.8,4.3,15.4,9,22.6,14.1l2,1.6c1.2,0.9,2.5,1.9,3.7,2.8l1.2,0.9c2,1.5,3.9,3.1,5.8,4.7l0.4,0.4c0.6-0.7,1.3-1.3,2-2
	c1.2-1.2,2.3-2.3,3.5-3.4c0.6-0.6,1.2-1.2,1.9-1.8c0.6-0.6,1.1-1,1.6-1.5c0.7-0.6,1.4-1.2,2.1-2c0.5-0.5,1.1-1,1.7-1.5
	c0.7-0.6,1.4-1.2,2.1-1.8l2-1.6c0.6-0.5,1.2-1,1.9-1.5c1.8-1.4,3.6-2.8,5.4-4.3c0.6-0.5,1.2-1,2-1.4c0.4-0.3,0.7-0.5,1.1-0.7
	l1.6-1.2c0.7-0.4,1.3-1,2-1.4c45.6-2.7,91-8,135.8-16c14.1-2.6,28-6.6,41.3-12.1l2.5,0.8c0.8,0.3,1.7,0.5,2.5,0.8l0.9,0.3
	c1.9,0.6,3.6,1.2,5.5,1.9c0.5,0.2,1.2,0.4,1.7,0.6c5.1,1.9,10.1,4,15.1,6.3c0.6,0.3,1.2,0.5,1.8,0.8c4.3,2,8.4,4.2,12.6,6.5l1.4,0.8
	c0.8,0.4,1.6,0.9,2.3,1.3c1.3,0.8,2.8,1.7,4.1,2.5c0.7,0.4,1.5,1,2.3,1.4c3.2,2,6.3,4.2,9.4,6.4l1.8,1.3c0.8,0.6,1.6,1.2,2.4,1.8
	l2,1.5c1.2,1,2.5,2,3.6,2.9l1.3,1.1l1.4,1.2c0.7,0.6,1.4,1.2,2.2,1.9c1.2,1.1,2.5,2.1,3.6,3.2c0.4,0.4,1,0.9,1.4,1.3l0.3,0.3
	l0.5,0.5c1.6,1.5,3.1,3,4.7,4.5c0.6,0.6,1.2,1.2,1.9,1.9c0.4,0.4,0.8,0.9,1.2,1.2c1,1,2,2,2.9,3.1l1.1,1.1c2.1,2.4,4.3,4.8,6.3,7.2
	c0.5,0.6,1,1.2,1.5,1.8c0.4,0.4,0.6,0.8,1,1.2c0.4,0.4,0.6,0.8,1,1.2c0.1,0.1,0.2,0.2,0.3,0.3c0.4,0.4,0.7,0.9,1.1,1.4
	C742.4,178,743,178.7,743.6,179.5z"/>
<path class="st0" d="M253.5,349.9L253.5,349.9c0.2,0.4,0.3,0.9,0.4,1.3l0.4,1.3h5.6C257.5,352.6,255.2,351.6,253.5,349.9z
	 M253.5,349.9L253.5,349.9c0.2,0.4,0.3,0.9,0.4,1.3l0.4,1.3h5.6C257.5,352.6,255.2,351.6,253.5,349.9z M253.5,349.9L253.5,349.9
	c0.2,0.4,0.3,0.9,0.4,1.3l0.4,1.3h5.6C257.5,352.6,255.2,351.6,253.5,349.9z M253.5,349.9L253.5,349.9c0.2,0.4,0.3,0.9,0.4,1.3
	l0.4,1.3h5.6C257.5,352.6,255.2,351.6,253.5,349.9z M253.5,349.9c0.1,0.4,0.3,0.8,0.4,1.2c0.1,0.4,0.3,0.9,0.4,1.3h5.6
	C257.5,352.6,255.2,351.6,253.5,349.9z M516,308.5l-2.6-0.1l-1.2-0.1l-1.2-0.1h-0.4l-1.8-0.1l-8.4-0.4l-1.8-0.1l-8-0.4l-3.1-0.2
	l-292.4-14.8l-1.4-0.1l-23.8-1.2l-3.8-0.2l-5.6-0.3l-2.6-0.1l-3.5-0.2L151,290l-62-3.2c-0.2,1.2-0.4,2.4-0.5,3.6
	c0,0.2,0,0.3-0.1,0.4c-0.2,1.2-0.3,2.3-0.4,3.6l0,0c-0.2,1.2-0.3,2.6-0.4,3.8c-0.1,1.2-0.2,2.5-0.3,3.6c0,0.1,0,0.1,0,0.2
	c-0.1,1.2-0.2,2.6-0.3,3.8c-0.1,1.2-0.1,2.5-0.2,3.7c0,0.1,0,0.2,0,0.3c0,1.2-0.1,2.5-0.1,3.6s0,2.6,0,3.8c0,2,0,3.8,0.1,5.8
	c0,0.7,0,1.5,0.1,2.2c0.1,3.6,0.4,7.1,0.7,10.6c0.1,0.7,0.1,1.3,0.2,2c0.1,0.7,0.2,1.3,0.2,2c0.2,1.3,0.3,2.6,0.4,3.8
	c0,0.1,0,0.3,0.1,0.4c0.1,0.6,0.2,1.3,0.3,2c0.2,1.3,0.4,2.8,0.6,4.1c0.1,0.5,0.2,1.2,0.3,1.7c0.2,1,0.4,1.9,0.5,2.8
	c0.1,0.5,0.2,1.1,0.3,1.6l0.4,2c0.1,0.5,0.3,1.2,0.4,1.8l0.1,0.4c0.3,1.3,0.5,2.7,0.9,3.9l0.4,2c0.4,1.3,0.7,2.7,1.1,4l0.5,2
	c0.4,1.3,0.7,2.7,1.1,4c0.6,2,1.2,4,1.9,6l52.9,1.7l2.4,0.1l10.3,0.3l9.1,0.3l2.2,0.1l50.8,1.6l9.1,0.3l12.3,0.4l0,0l2,0.1h1.1
	l1.7,0.1l8.1,0.3l139.5,4.4l0,0l9.5,0.3l0,0l10.4,0.4l1.8,0.1l0,0h0.6l0,0l7.9,0.3l78.6,2.6h1.4h0.2l10.7,0.4h0.1l2.3,0.1l55.3,1.8
	l9.7,0.4l14.7,0.4h0.7h1.1l2.7,0.1l3.5,0.1l8.4,0.3l141.2,4.5c0.9-1.6,1.8-3.2,2.6-4.8c0.4-0.7,0.8-1.5,1.2-2.2
	c0.9-1.8,1.7-3.5,2.5-5.2c0.4-0.8,0.7-1.5,1.1-2.3c0.4-1,0.9-2,1.3-2.9c0.3-0.7,0.6-1.4,0.9-2c0.3-0.6,0.6-1.5,1-2.3
	c0.7-1.7,1.3-3.4,2-5.1c0.3-0.6,0.4-1.2,0.7-1.9c0.3-0.6,0.4-1.1,0.6-1.7c0.4-0.9,0.6-1.8,0.9-2.7c0.3-0.9,0.6-2,1-2.9
	s0.6-1.8,0.9-2.7c0.2-0.5,0.3-1.1,0.4-1.5c0.4-1.3,0.7-2.6,1.1-3.9c0.2-0.5,0.3-1.1,0.4-1.6c0.2-0.8,0.4-1.5,0.6-2.2
	c0.4-1.3,0.6-2.6,1-3.9c0.2-0.8,0.4-1.5,0.5-2.3c0.1-0.5,0.3-1.1,0.4-1.7c0.5-2.4,1-4.8,1.4-7.1c0.1-0.5,0.2-1.1,0.3-1.6
	c0.1-0.7,0.3-1.4,0.4-2.2c0.1-0.5,0.2-1,0.3-1.5c0.2-1.2,0.4-2.3,0.4-3.4c0.1-1.1,0.4-2.4,0.4-3.6c0-0.1,0-0.2,0-0.4
	c0.1-0.4,0.1-1,0.2-1.4c0.1-0.5,0.1-1.1,0.2-1.7c0.1-0.9,0.2-1.7,0.3-2.6v-0.1L516,308.5z M355.9,352.6h-16.6c4.5,0,8.3,3.3,8.3,7.2
	c0,3.9-3.7,7.2-8.3,7.2h-96.1c-4.4-0.1-8.1-3.3-8.1-7.2c0.1-2.4,1.3-4.5,3.4-5.8l0,0c1.5-1,3.2-1.4,5-1.4h16.6c-2.4,0-4.7-1-6.4-2.7
	l0,0c-1.2-1.2-1.9-2.8-1.9-4.5c0-0.2,0-0.4,0-0.6l0,0c0.4-3.6,3.9-6.6,8.3-6.6h-11.8c-4.5,0-8.3-3.3-8.3-7.2s3.7-7.2,8.3-7.2h96
	c4.5,0,8.3,3.3,8.3,7.2s-3.7,7.2-8.3,7.2h11.6c4.5,0,8.3,3.2,8.3,7.2C364.2,349.4,360.5,352.6,355.9,352.6z M253.5,349.9
	L253.5,349.9c0.2,0.4,0.3,0.9,0.4,1.3l0.4,1.3h5.6C257.5,352.6,255.2,351.6,253.5,349.9L253.5,349.9z M253.5,349.9L253.5,349.9
	c0.2,0.4,0.3,0.9,0.4,1.3l0.4,1.3h5.6C257.5,352.6,255.2,351.6,253.5,349.9L253.5,349.9z M253.5,349.9L253.5,349.9
	c0.2,0.4,0.3,0.9,0.4,1.3l0.4,1.3h5.6C257.5,352.6,255.2,351.6,253.5,349.9L253.5,349.9z M253.5,349.9L253.5,349.9
	c0.2,0.4,0.3,0.9,0.4,1.3l0.4,1.3h5.6C257.5,352.6,255.2,351.6,253.5,349.9L253.5,349.9z M253.5,349.9L253.5,349.9
	c0.2,0.4,0.3,0.9,0.4,1.3l0.4,1.3h5.6C257.5,352.6,255.2,351.6,253.5,349.9L253.5,349.9z"/>
<path class="st0" d="M105.2,236.7c0-4,3.7-7.2,8.3-7.2h-7.2c-1.2,2.7-2.4,5.2-3.6,7.9c-0.2,0.5-0.4,1.1-0.6,1.6
	c-0.3,0.7-0.5,1.4-0.9,2.1c-0.2,0.4-0.3,0.6-0.4,1c-0.3,0.6-0.4,1.2-0.7,1.9h13.3C109,243.9,105.2,240.7,105.2,236.7z M783.3,278.6
	c-0.1-0.9-0.2-1.8-0.4-2.7c0-0.3-0.1-0.5-0.1-0.8c-0.1-0.8-0.2-1.5-0.4-2.3c0-0.2-0.1-0.4-0.1-0.6c-0.1-0.8-0.3-1.6-0.4-2.4
	c-0.2-1.2-0.4-2.5-0.6-3.7c-0.2-0.8-0.3-1.6-0.4-2.4c-0.3-1.2-0.5-2.5-0.8-3.7l-0.3-1.3c-0.2-0.7-0.3-1.4-0.4-2.1c0-0.1,0-0.1,0-0.2
	c-0.3-1-0.4-2-0.7-3c-0.3-1.1-0.5-2.1-0.8-3.2c-0.2-0.8-0.4-1.5-0.6-2.3c-0.1-0.4-0.3-0.9-0.4-1.3c-0.5-1.8-1.1-3.6-1.6-5.3
	c-0.2-0.5-0.3-1-0.4-1.5c-0.2-0.5-0.4-1.2-0.6-1.8c-0.3-0.8-0.5-1.6-0.8-2.4c-0.2-0.5-0.4-1.1-0.5-1.6c-0.2-0.5-0.4-1.2-0.6-1.8
	c-1-2.6-2-5.2-3-7.7c-0.3-0.7-0.6-1.4-0.9-2.1c-0.4-1.2-1-2.2-1.5-3.4c-0.4-0.8-0.8-1.7-1.2-2.6l-0.1-0.3c-0.3-0.6-0.6-1.2-0.9-1.9
	c-0.2-0.4-0.4-1-0.7-1.4c-1.4-2.9-2.9-5.8-4.4-8.6c-0.4-0.9-1-1.8-1.5-2.7s-1.1-2-1.7-2.8c-0.6-0.9-1.2-2-1.7-2.8
	c-0.5-0.9-1.2-1.9-1.8-2.8l0,0c-1.2-1.9-2.4-3.7-3.6-5.6c-0.6-0.9-1.2-1.9-2-2.8l-622.7,13.3c-2.5,3.5-4.8,7-7,10.7
	c-0.4,0.7-0.9,1.4-1.3,2.1c-0.4,0.7-0.9,1.4-1.2,2.1c-0.4,0.7-0.9,1.4-1.2,2.2h83.9c4.5,0,8.3,3.3,8.3,7.2s-3.7,7.2-8.3,7.2h11.8
	c4.5,0,8.3,3.2,8.3,7.2s-3.7,7.2-8.3,7.2H193c4.5,0,8.3,3.3,8.3,7.2c0,3.9-3.7,7.2-8.3,7.2H97.1c-0.5,0-1.1-0.1-1.6-0.2
	c-0.3,1-0.6,2-0.9,3c-0.3,1.1-0.5,2-0.8,2.9c-0.1,0.4-0.2,0.8-0.4,1.2c-0.3,1.2-0.6,2.3-0.9,3.5c-0.2,0.5-0.3,1.1-0.4,1.6
	c-0.1,0.5-0.3,1.1-0.4,1.6c-0.3,1.2-0.5,2.3-0.7,3.5c-0.2,0.7-0.3,1.4-0.4,2.1c-0.4,1.6-0.6,3.1-0.9,4.7h694.1
	C783.6,281,783.5,279.7,783.3,278.6z"/>
<path class="st4" d="M705.7,661.8c-14.2-10.7-14.9-38.6-49.8-45.7c-2-0.4-4.1-0.8-6.2-1.2c-4.1-0.7-8.1-1.5-11.9-2.5
	c-3.6-0.9-7.2-2-10.7-3c-0.8-0.3-1.6-0.5-2.4-0.8c-8.3-2.8-16.3-6.2-24-10.2l-2,2.5l-9.2,10.9l-63.5,75.4l-24.5,29.1l0,0l-22,26.2
	l-1,1.1l-0.2-0.2l-2.2-1.9l-2-1.7l-5.9-5l-24.7-20.8L431,703.9l-8.3-6.9l-10.8-9.1l-1.8-1.5l-6.8-5.8l-6.6-5.5L371,653.5l-13-10.9
	l-4.6-3.9l-2.1-1.8l-11.1-9.4l-19-16l-2.5-2l-0.3-0.2l-7.9-6.7l-9.9-8.4l-11-9.2l-2-1.6l-5.5-4.6l0,0l-7.6-6.3l-20.8-17.5l-3.3-2.8
	l-0.5-0.4l-12.9-10.8l-8.4-7l-3-2.5l-1.5-1.3l0,0l-5-4.3L204,512.9l-43.4-36.6c-0.8-0.6-1.5-1.3-2.3-2l-0.4-0.4l-0.2-0.2
	c-0.8-0.7-1.5-1.3-2.3-2c-0.5-0.4-1.1-0.9-1.5-1.4l-0.4-0.4l-0.4-0.4l-1.1-1l-0.1-0.1l-0.2-0.1c-0.6-0.6-1.2-1.2-1.9-1.8l-0.9-0.8
	l-0.6-0.6l-1-1l0,0l-0.1-0.1c-1.1-1.1-2-2.1-3.1-3.1l-1.3-1.3c-0.4-0.4-0.9-1-1.3-1.4l-0.7-0.8c-0.4-0.4-0.7-0.8-1.2-1.2
	c-0.5-0.6-1.1-1.2-1.7-1.9c-0.6-0.6-1.2-1.4-1.9-2.1c-0.4-0.4-0.8-1-1.2-1.4l-0.3-0.4c-0.6-0.7-1.2-1.4-1.7-2l-0.3-0.4
	c-0.4-0.6-1-1.2-1.4-1.8c-0.3-0.4-0.5-0.6-0.8-1c-0.3-0.4-0.6-0.8-1-1.2c-0.4-0.4-0.5-0.6-0.8-1c-0.1-0.1-0.1-0.2-0.2-0.3
	c-0.5-0.6-1-1.3-1.5-2l-0.3-0.4l-0.3-0.4l-0.5-0.7l-0.3-0.4l-1-1.3l-0.3-0.4l-0.4-0.5c-0.4-0.6-0.8-1.2-1.2-1.8l-0.9-1.2
	c-0.5-0.8-1.1-1.5-1.5-2.3l-0.1-0.2c-0.5-0.8-1.1-1.7-1.6-2.5l-0.2-0.3c-0.1-0.2-0.2-0.3-0.3-0.4c-0.5-0.8-1.1-1.7-1.5-2.5
	c-0.4-0.6-0.7-1.2-1.1-1.9l-0.4-0.6l-1.1-1.9c-0.2-0.3-0.3-0.5-0.4-0.8l-0.3-0.5l-0.4-0.6l-0.1-0.1c-0.2-0.3-0.3-0.4-0.4-0.7
	c-0.4-0.6-0.7-1.2-1-1.8l-0.1-0.1c-0.3-0.5-0.6-1.1-0.9-1.6c-0.4-0.7-0.8-1.5-1.2-2.2l-0.9-1.8c-0.2-0.4-0.4-0.9-0.6-1.3
	c-0.2-0.3-0.3-0.6-0.4-0.9s-0.3-0.5-0.4-0.7c0-0.1-0.1-0.2-0.1-0.3l-0.1-0.3l-0.2-0.4l-0.7-1.5c-0.1-0.1-0.1-0.2-0.1-0.2
	c-0.2-0.4-0.4-0.8-0.6-1.2c-0.1-0.3-0.3-0.4-0.4-0.7l-0.8-1.8l-0.4-0.7c-0.1-0.2-0.2-0.4-0.3-0.6c-0.3-0.6-0.5-1.2-0.8-2l-0.4-0.8
	c-0.1-0.2-0.2-0.4-0.3-0.5c-0.1-0.2-0.3-0.6-0.4-1c-0.4-0.8-0.6-1.6-1-2.4c-0.1-0.3-0.3-0.6-0.4-0.9l-0.1-0.2c0-0.1-0.1-0.1-0.1-0.2
	l-0.1-0.2l-0.1-0.3c-0.1-0.3-0.2-0.4-0.3-0.7c-0.1-0.3-0.2-0.4-0.3-0.6c-0.3-0.7-0.5-1.3-0.7-2c-0.4-1-0.7-2-1.1-3
	c0-0.1,0-0.2-0.1-0.2c17.9,0.6,35.8,0.5,52-0.9c18.7-1.7,35.1-5.2,46.2-11.3c0,0,10.5,2.7,25.6,6.8c2.9,0.8,6.1,1.7,9.3,2.6
	c4.7,1.3,9.6,2.7,14.7,4.1l2.3,0.6l1.2,0.4l1.7,0.4l8,2.3c13.1,3.8,26.6,7.9,38.4,11.9c13.1,4.4,24.2,8.5,30.7,12
	c1.2,0.6,2.3,1.2,3.2,1.9c0.6,0.4,1.2,0.8,2,1.2c12.3,6.7,38.2,10.5,61.8,12c3,0.2,6,0.4,9,0.4c4.6,0.2,9.1,0.4,13.2,0.4h1.9
	c2,0,3.8,0,5.6-0.1c3.2-0.1,6-0.2,8.5-0.4c2.7-0.2,5.2-0.5,7.8-1.2c12.3-4.1,68-15.6,78.8-8.5c10.7,7.1,115.3,17.9,134.3,8.5
	c19-9.3,6-19.6,27.8-8.5c5.4,2.8,21.1,15.5,41.4,33l-52.6,62.4l-12.6,15c10.7,9.7,19.5,21.1,26,33.8
	C701.8,598.4,693.9,643.9,705.7,661.8z"/>
<path class="st9" d="M705.7,661.8c-14.2-10.7-14.9-38.6-49.8-45.7c-2-0.4-4.1-0.8-6.2-1.2c-4.1-0.7-8.1-1.5-11.9-2.5
	c-3.6-0.9-7.2-2-10.7-3c-0.8-0.3-1.6-0.5-2.4-0.8c-8.3-2.8-16.3-6.2-24-10.2l-2,2.5l-9.2,10.9l-63.5,75.4l-24.5,29.1l0,0l-22,26.2
	l-1,1.1l-0.2-0.2l-2.2-1.9l-2-1.7l-5.9-5l-24.7-20.8L431,703.9l-8.3-6.9l-10.8-9.1l-1.8-1.5l-6.8-5.8l-6.6-5.5L371,653.5l-13-10.9
	l-4.6-3.9l-2.1-1.8l-11.1-9.4l-19-16l-2.5-2l-0.3-0.2l-7.9-6.7l-9.9-8.4l-11-9.2l-2-1.6l-5.5-4.6l0,0l-7.6-6.3l-20.8-17.5l-3.3-2.8
	l-0.5-0.4l-12.9-10.8l-8.4-7l-3-2.5l-1.5-1.3l0,0l-5-4.3L204,512.9l-43.4-36.6c-0.8-0.6-1.5-1.3-2.3-2l-0.4-0.4l-0.2-0.2
	c-0.8-0.7-1.5-1.3-2.3-2c-0.5-0.4-1.1-0.9-1.5-1.4l-0.4-0.4l-0.4-0.4l-1.1-1l-0.1-0.1l-0.2-0.1c-0.6-0.6-1.2-1.2-1.9-1.8l-0.9-0.8
	l-0.6-0.6l-1-1l0,0l-0.1-0.1c-1.1-1.1-2-2.1-3.1-3.1l-1.3-1.3c-0.4-0.4-0.9-1-1.3-1.4l-0.7-0.8c-0.4-0.4-0.7-0.8-1.2-1.2
	c-0.5-0.6-1.1-1.2-1.7-1.9c-0.6-0.6-1.2-1.4-1.9-2.1c-0.4-0.4-0.8-1-1.2-1.4l-0.3-0.4c-0.6-0.7-1.2-1.4-1.7-2l-0.3-0.4
	c-0.4-0.6-1-1.2-1.4-1.8c-0.3-0.4-0.5-0.6-0.8-1c-0.3-0.4-0.6-0.8-1-1.2c-0.4-0.4-0.5-0.6-0.8-1c-0.1-0.1-0.1-0.2-0.2-0.3
	c-0.5-0.6-1-1.3-1.5-2l-0.3-0.4l-0.3-0.4l-0.5-0.7l-0.3-0.4l-1-1.3l-0.3-0.4l-0.4-0.5c-0.4-0.6-0.8-1.2-1.2-1.8l-0.9-1.2
	c-0.5-0.8-1.1-1.5-1.5-2.3l-0.1-0.2c-0.5-0.8-1.1-1.7-1.6-2.5l-0.2-0.3c-0.1-0.2-0.2-0.3-0.3-0.4c-0.5-0.8-1.1-1.7-1.5-2.5
	c-0.4-0.6-0.7-1.2-1.1-1.9l-0.4-0.6l-1.1-1.9c-0.2-0.3-0.3-0.5-0.4-0.8l-0.3-0.5l-0.4-0.6l-0.1-0.1c-0.2-0.3-0.3-0.4-0.4-0.7
	c-0.4-0.6-0.7-1.2-1-1.8l-0.1-0.1c-0.3-0.5-0.6-1.1-0.9-1.6c-0.4-0.7-0.8-1.5-1.2-2.2l-0.9-1.8c-0.2-0.4-0.4-0.9-0.6-1.3
	c-0.2-0.3-0.3-0.6-0.4-0.9s-0.3-0.5-0.4-0.7c0-0.1-0.1-0.2-0.1-0.3l-0.1-0.3l-0.2-0.4l-0.7-1.5c-0.1-0.1-0.1-0.2-0.1-0.2
	c-0.2-0.4-0.4-0.8-0.6-1.2c-0.1-0.3-0.3-0.4-0.4-0.7l-0.8-1.8l-0.4-0.7c-0.1-0.2-0.2-0.4-0.3-0.6c-0.3-0.6-0.5-1.2-0.8-2l-0.4-0.8
	c-0.1-0.2-0.2-0.4-0.3-0.5c-0.1-0.2-0.3-0.6-0.4-1c-0.4-0.8-0.6-1.6-1-2.4c-0.1-0.3-0.3-0.6-0.4-0.9l-0.1-0.2c0-0.1-0.1-0.1-0.1-0.2
	l-0.1-0.2l-0.1-0.3c-0.1-0.3-0.2-0.4-0.3-0.7c-0.1-0.3-0.2-0.4-0.3-0.6c-0.3-0.7-0.5-1.3-0.7-2c-0.4-1-0.7-2-1.1-3
	c0-0.1,0-0.2-0.1-0.2c17.9,0.6,35.8,0.5,52-0.9c18.7-1.7,35.1-5.2,46.2-11.3c0,0,10.5,2.7,25.6,6.8c2.9,0.8,6.1,1.7,9.3,2.6
	c4.7,1.3,9.6,2.7,14.7,4.1l2.3,0.6l1.2,0.4l1.7,0.4l8,2.3c13.1,3.8,26.6,7.9,38.4,11.9c13.1,4.4,24.2,8.5,30.7,12
	c1.2,0.6,2.3,1.2,3.2,1.9c0.6,0.4,1.2,0.8,2,1.2c12.3,6.7,38.2,10.5,61.8,12c3,0.2,6,0.4,9,0.4c4.6,0.2,9.1,0.4,13.2,0.4h1.9
	c2,0,3.8,0,5.6-0.1c3.2-0.1,6-0.2,8.5-0.4c2.7-0.2,5.2-0.5,7.8-1.2c12.3-4.1,68-15.6,78.8-8.5c10.7,7.1,115.3,17.9,134.3,8.5
	c19-9.3,6-19.6,27.8-8.5c5.4,2.8,21.1,15.5,41.4,33l-52.6,62.4l-12.6,15c10.7,9.7,19.5,21.1,26,33.8
	C701.8,598.4,693.9,643.9,705.7,661.8z"/>
<path class="st4" d="M705.7,661.8c11.7,8.9,17.3,7.8,17.3,7.8C718.5,669.9,712.4,672.1,705.7,661.8z"/>
<circle class="st10" cx="156.9" cy="203.2" r="0.9"/>
<circle class="st10" cx="670" cy="252.4" r="0.9"/>
<circle class="st10" cx="377.2" cy="182.4" r="0.9"/>
<circle class="st10" cx="486.8" cy="183.7" r="0.9"/>
<circle class="st10" cx="419.3" cy="265.1" r="0.9"/>
<circle class="st10" cx="579.2" cy="210" r="0.9"/>
<circle class="st11" cx="508" cy="161.2" r="1.9"/>
<circle class="st11" cx="590.9" cy="141.6" r="1.9"/>
<circle class="st11" cx="273.6" cy="289.1" r="0.7"/>
<circle class="st11" cx="250.5" cy="184.5" r="0.7"/>
<circle class="st11" cx="232.7" cy="232.7" r="0.7"/>
<circle class="st11" cx="460.1" cy="227.5" r="0.7"/>
<circle class="st11" cx="625.4" cy="175.8" r="0.7"/>
<circle class="st11" cx="348.9" cy="225.6" r="1.9"/>
<circle class="st11" cx="315.5" cy="149.3" r="1.9"/>
<circle class="st11" cx="452.8" cy="185.1" r="1.9"/>
<polygon class="st10" points="184.7,175.3 184.2,175.3 184.2,174.7 184,174.7 184,175.3 183.6,175.3 183.6,175.4 184,175.4 
	184,175.8 184.2,175.8 184.2,175.4 184.7,175.4 "/>
<polygon class="st10" points="682,182.8 681.6,182.8 681.6,182.4 681.5,182.4 681.5,182.8 681.1,182.8 681.1,182.9 681.5,182.9 
	681.5,183.5 681.6,183.5 681.6,182.9 682,182.9 "/>
<polygon class="st10" points="278.2,185.4 277.3,185.4 277.3,184.5 277,184.5 277,185.4 276.2,185.4 276.2,185.6 277,185.6 
	277,186.5 277.3,186.5 277.3,185.6 278.2,185.6 "/>
<polygon class="st10" points="308.4,245.4 307.5,245.4 307.5,244.5 307.3,244.5 307.3,245.4 306.4,245.4 306.4,245.5 307.3,245.5 
	307.3,246.4 307.5,246.4 307.5,245.5 308.4,245.5 "/>
<polygon class="st10" points="175,260.1 174.1,260.1 174.1,259.2 173.8,259.2 173.8,260.1 172.9,260.1 172.9,260.4 173.8,260.4 
	173.8,261.3 174.1,261.3 174.1,260.4 175,260.4 "/>
<polygon class="st10" points="482,278.8 481.1,278.8 481.1,277.9 480.9,277.9 480.9,278.8 480,278.8 480,279 480.9,279 480.9,279.9 
	481.1,279.9 481.1,279 482,279 "/>
<polygon class="st10" points="591.9,246.3 591,246.3 591,245.5 590.7,245.5 590.7,246.3 589.8,246.3 589.8,246.5 590.7,246.5 
	590.7,247.4 591,247.4 591,246.5 591.9,246.5 "/>
<path class="st4" d="M399.8,629c-8.3,9.6-18,17.9-28.8,24.4l-13-10.9C370.1,632.1,387.6,620.9,399.8,629z"/>
<path class="st4" d="M359.5,615.7c0,0,30.8-33.4,53.3-25.1c0,0-26.4,34.6-57.5,35.5L359.5,615.7z"/>
<path class="st4" d="M373.4,578c0,0,34-32,48.9-26.4c0,0-24.6,35.5-50.4,33.5L373.4,578z"/>
<path class="st4" d="M387,543c0,0,29.3-38.2,45.3-35.3c0,0-17.8,34-45.3,39.1V543z"/>
<path class="st4" d="M401.9,495.9c0,0,25.9-29.3,39.9-29.2c0,0-20.4,39.1-41,38.7L401.9,495.9z"/>
<path class="st4" d="M410.6,464.5l25.1-61c0,0,1.2,55.2-28.2,72.3L410.6,464.5z"/>
<path class="st4" d="M420.8,397.3c0,0,4.2-50.9,1.5-55.1c0,0,17.9,42.4-1.7,77.6L420.8,397.3z"/>
<path class="st4" d="M340.1,627.4l-19-16l-2.5-2c0-0.1,0-0.2,0-0.4c-0.6-5.2-0.7-8.5-0.7-8.5C329.6,601.4,336.4,614.3,340.1,627.4z"
	/>
<path class="st4" d="M362.1,614.2c0,0-7.3-44.9-30.6-50.4c0,0,2.9,43.4,28.3,61.3L362.1,614.2z"/>
<path class="st4" d="M376.2,578.2c0,0-0.3-46.7-14.6-53.6c0,0-8.9,42.3,10.4,59.5L376.2,578.2z"/>
<path class="st4" d="M388.2,542.4c0,0-2-48.1-16.8-54.9c0,0-5.1,38.1,14.6,58L388.2,542.4z"/>
<path class="st4" d="M403.9,499.7c0,0-0.1-39.1-10.7-48.3c0,0-10.5,42.8,5.2,56.1L403.9,499.7z"/>
<path class="st4" d="M409.3,462.6l-10.2-65.1c0,0-13.9,53.4,10.7,76.8L409.3,462.6z"/>
<path class="st4" d="M411.4,397.8c0,0-26.4-43.8-25.9-48.7c0,0,2.8,45.8,36,68.8L411.4,397.8z"/>
<path class="st4" d="M414.5,384.9c0,0-24.9-62.2-36.2-67.2c0,0,35.5,18,38.2,65.5L414.5,384.9z"/>
<path class="st12" d="M400.6,505.8l-1.7-0.5c21-68.5,26.2-112.1,14.7-123l1.2-1.3C427.1,392.5,422.1,435.6,400.6,505.8z"/>
<path class="st12" d="M402.2,500.7l-0.8,2.6l-0.6,2c-0.1,0.2-0.1,0.4-0.2,0.5c-3.3,10.5-7,21.9-11.1,34c-0.8,2.3-1.6,4.6-2.3,6.9
	c-3,8.8-6.2,17.9-9.6,27.4c-0.4,1.3-1,2.7-1.4,4l-0.1,0.2c-0.8,2.2-1.6,4.4-2.5,6.8c-3.1,8.6-6.4,17.3-9.8,26.3
	c-0.9,2.5-1.9,5-2.8,7.5c-0.7,1.9-1.4,3.8-2.2,5.8c-0.2,0.4-0.4,1-0.5,1.4c-1.6,4.2-3.3,8.4-4.9,12.6l-2.1-1.8
	c1.4-3.6,2.8-7.1,4.2-10.6c0.4-1.1,0.9-2.2,1.3-3.3c0.9-2.3,1.8-4.6,2.7-6.9l0.1-0.2c0.6-1.6,1.2-3.3,1.9-4.9
	c3.6-9.1,7-18.2,10.3-27l1.2-3.2c0.4-1.1,0.8-2.2,1.2-3.3c0.6-1.8,1.3-3.5,2-5.2c3.4-9.2,6.6-18.2,9.6-26.8c0.8-2.2,1.5-4.4,2.3-6.6
	c3.8-11,7.3-21.5,10.3-31.3c0.5-1.8,1.1-3.6,1.7-5.2c0-0.1,0.1-0.3,0.1-0.4l1.2-0.6L402.2,500.7z"/>
<path class="st4" d="M398.9,659.1l4.4,21.6l-6.6-5.5C397.1,669.8,397.9,664.4,398.9,659.1z"/>
<path class="st4" d="M414.6,655.7c0,0,5.3-50.8,8.7-54.4c0,0-25.4,38.3-12.7,76.6L414.6,655.7z"/>
<path class="st4" d="M431,703.9l-8.3-6.9l13.2-37.1C436,659.9,437.6,682.8,431,703.9z"/>
<path class="st4" d="M423.8,658c0,0,34-38.2,34.4-43.1c0,0-11.2,44.6-48.1,60.9L423.8,658z"/>
<path class="st4" d="M423.2,644.8c0,0,36-56.5,48-59.3c0,0-38.3,11.2-49.7,57.3L423.2,644.8z"/>
<path class="st12" d="M424.4,642.3c-0.7,0.4-1.3,1-2,1.6c-4.6,4.6-7.7,14.1-9.3,28.2c-0.1,0.9-0.2,1.7-0.3,2.6
	c-0.4,4.1-0.7,8.5-0.9,13.3l-1.8-1.5c0.1-3,0.3-5.9,0.5-8.6c0.1-0.8,0.1-1.5,0.2-2.3l0.1-0.7c0.5-7,1.9-13.9,3.9-20.6
	c1.8-5.4,4-9.4,6.7-12c0.6-0.5,1.2-1.1,1.9-1.5L424.4,642.3z"/>
<path class="st4" d="M479.2,742.7l-1,1.1l-0.2-0.2C478.5,743.3,478.9,743,479.2,742.7z"/>
<path class="st4" d="M525.9,687.3l-24.5,29.1l0,0c-5.7,3-11.7,5-17.9,4.9c-0.6,0-1.2,0-1.8-0.1l0.2-0.9l0.7-3.5l0.5-2.7l0.6-0.6
	c0.4-0.4,1.2-1.1,2-1.9l1.5-1.3l0,0C495.5,703.5,513.4,689,525.9,687.3z"/>
<path class="st4" d="M496.8,679.2c0,0,29.3-38.2,45.3-35.3c0,0-17.8,34-45.3,39.1L496.8,679.2L496.8,679.2z"/>
<path class="st4" d="M511.6,632.1c0,0,25.9-29.3,39.9-29.2c0,0-20.4,39.1-41,38.7L511.6,632.1z"/>
<path class="st4" d="M520.4,600.8l25.1-61c0,0,1.2,55.2-28.2,72.3L520.4,600.8z"/>
<path class="st4" d="M530.5,533.5c0,0,4.2-50.9,1.5-55.1c0,0,17.9,42.4-1.7,77.6L530.5,533.5z"/>
<path class="st4" d="M467.9,735.1l-24.7-20.8c-1-4.7-1.8-9.4-2.1-14.1C455.4,703.5,463.7,721.5,467.9,735.1z"/>
<path class="st4" d="M486,714.5c0,0-0.3-46.7-14.6-53.6c0,0-8.9,42.3,10.4,59.5L486,714.5z"/>
<path class="st4" d="M497.9,678.8c0,0-2-48.1-16.8-54.9c0,0-5.1,38.1,14.6,58L497.9,678.8z"/>
<path class="st4" d="M513.6,636c0,0-0.1-39.1-10.7-48.3c0,0-10.5,42.8,5.2,56.1L513.6,636z"/>
<path class="st4" d="M519.1,598.8l-10.2-65.1c0,0-13.9,53.4,10.7,76.8L519.1,598.8z"/>
<path class="st4" d="M521.1,534.1c0,0-26.4-43.8-25.9-48.7c0,0,2.8,45.8,36,68.8L521.1,534.1z"/>
<path class="st4" d="M524.2,521.2c0,0-24.9-62.2-36.2-67.2c0,0,35.5,18,38.2,65.5L524.2,521.2z"/>
<path class="st12" d="M510.4,642l-1.7-0.5c21-68.5,26.2-112.1,14.7-123l1.2-1.3C536.8,528.7,531.9,571.9,510.4,642z"/>
<path class="st12" d="M511.9,637c-0.3,0.9-0.5,1.8-0.8,2.6l0,0c-0.2,0.6-0.4,1.2-0.6,1.9l0,0l0,0c-0.1,0.2-0.1,0.4-0.2,0.5
	c-3.3,10.5-7,21.9-11.1,34l0,0c-0.8,2.3-1.6,4.6-2.4,6.9c-3,8.8-6.2,17.9-9.6,27.4l0,0c-0.4,1.3-1,2.7-1.4,4l-0.1,0.2l0,0
	c-0.8,2.2-1.6,4.5-2.5,6.8c-2.4,6.7-5,13.5-7.6,20.4l-2-1.7c2.6-6.8,5.1-13.4,7.6-20l1.2-3.2c0.4-1.1,0.8-2.2,1.2-3.3
	c0.6-1.8,1.2-3.5,2-5.2c3.4-9.2,6.6-18.2,9.6-26.8c0.8-2.2,1.5-4.4,2.3-6.6l0,0c3.8-11,7.3-21.5,10.3-31.3c0.5-1.8,1.1-3.5,1.6-5.2
	c0.1-0.2,0.1-0.4,0.2-0.4l1.2-0.6L511.9,637z"/>
<path class="st4" d="M666.1,594.8c-2.8,7.5-6.2,14.7-10.3,21.4c-2-0.4-4.1-0.8-6.2-1.2c-4.1-0.7-8.1-1.5-11.9-2.5
	C645.2,603.1,655,594.5,666.1,594.8z"/>
<path class="st4" d="M624.7,595.3c0,0,22.1-41.1,38-40.5c0,0-12,41.5-37.1,47.7L624.7,595.3z"/>
<path class="st4" d="M626.6,557.7c0,0,15.7-45.6,31.8-47.8c0,0-6,37.9-30.6,51.4L626.6,557.7z"/>
<path class="st4" d="M625.6,508.4c0,0,15.3-36,28.6-40.3c0,0-7,43.5-26.6,49.7L625.6,508.4z"/>
<path class="st4" d="M624,475.9l4.4-65.7c0,0,18.7,51.9-3.8,77.6L624,475.9z"/>
<path class="st4" d="M612.3,408.8c0,0-12.3-49.7-16.1-52.7c0,0,30.4,34.5,23,74.1L612.3,408.8z"/>
<path class="st4" d="M598.6,601l-9.2,10.9c-3.4-5.3-6.4-10.8-8.9-16.7C586.8,594.7,592.9,597.1,598.6,601z"/>
<path class="st4" d="M627.5,594.7c0,0-15.1-44.2-30.7-46.2c0,0,5,42.9,28.7,53.2L627.5,594.7z"/>
<path class="st4" d="M627.5,556.9c0,0-17.1-44.9-33.3-46.7c0,0,7.3,37.8,32.2,50.5L627.5,556.9z"/>
<path class="st4" d="M628.8,511.3c0,0-12.5-37-25.4-42.5c0,0,3.6,44,22.7,51.6L628.8,511.3z"/>
<path class="st4" d="M622.3,474.4l-30.4-58.5c0,0,3.7,55,34.6,69.5L622.3,474.4z"/>
<path class="st4" d="M603.6,412.4c0,0-38.9-33.1-39.9-37.9c0,0,17.2,42.6,56,53.8L603.6,412.4z"/>
<path class="st4" d="M602.4,399.1c0,0-43.4-51.1-55.6-52.3c0,0,39.4,5.9,57,49.9L602.4,399.1z"/>
<path class="st12" d="M627.7,518.2h-1.8c-1.8-71.6-10.7-114.7-25.1-121.3l0.7-1.6C616.8,402.3,625.8,444.8,627.7,518.2z"/>
<path class="st12" d="M627.9,554c0,2.4,0,4.9,0,7.3c-0.1,9.3-0.2,19-0.4,29c0,1.4-0.1,2.8-0.1,4.3c0,0.1,0,0.2,0,0.2
	c-0.1,2.4-0.1,4.8-0.2,7.2c-0.1,2.4-0.2,5-0.2,7.6c-0.8-0.3-1.6-0.5-2.4-0.8c0.1-2.5,0.2-4.9,0.3-7.3c0-1.2,0.1-2.3,0.1-3.4
	c0-1.1,0.1-2.4,0.1-3.6c0.1-1.9,0.1-3.6,0.2-5.5c0.3-9.9,0.4-19.4,0.6-28.5c0-2.4,0-4.7,0.1-6.9c0.1-11.6,0.1-22.7-0.1-33
	c0-1.9-0.1-3.7-0.1-5.6c0-0.1,0-0.2,0-0.3l1-1l0.7-0.7c0,0.9,0,1.8,0.1,2.8c0,0.6,0,1.3,0,2c0,0.2,0,0.4,0,0.6
	C627.8,529.2,628,541.2,627.9,554z"/>
<path class="st4" d="M480.3,349.1c0,0-7,1.1-5.2,5.7c0,0.5,0.4,1,0.9,1.1c0,0-0.1-0.4,0.6-0.4c0.3,0,0.5-0.1,0.8-0.1
	c0.4-0.1,0.6-0.3,0.8-0.5l0,0c0,0,1.8-1.2,1.9-4.5c0,0,0.4-0.8,0.4-1l-1.1,0.7c0.4,0.4,0.4,1,0.4,1.5c0,0-0.4-1.5-0.5-1.4l-0.5,0.4
	c0.5,0.7,0.8,1.6,0.7,2.5c0,0-0.2-1.9-0.9-2.3l-0.7,0.6c0.6,0.7,1,1.7,0.9,2.7c0,0-0.3-1.9-1-2.5l-0.6,0.7c0.5,0.7,0.9,1.5,0.8,2.5
	c0,0-0.5-2.2-1-2.2c-0.3,0.3-0.4,0.6-0.5,1c0,0,0.7,1,0.5,1.6c0,0-0.5-1.4-0.7-1.4c-0.3,0.5-0.4,1.2-0.4,1.8c-0.1-0.6,0-1.2,0.2-1.9
	c-0.4,0.2-0.7,0.4-0.9,0.7c0,0-0.1-0.7,1-1c0.2-0.4,0.3-0.6,0.5-0.9c-0.5,0.1-1.2,0.3-1.6,0.5c0.4-0.5,1.1-0.8,1.8-0.8l0.6-0.8
	c-0.7,0-1.3,0.2-2,0.4c0.5-0.5,1.3-0.8,2.1-0.6l0.7-0.6c-0.6,0-1.2,0.1-1.9,0.3c0.6-0.4,1.3-0.5,2.1-0.4l0.5-0.4c0,0-0.9,0-1.2,0
	s-0.3,0-0.3,0c0.5-0.2,1.1-0.3,1.7-0.2C479.6,349.7,479.9,349.5,480.3,349.1z"/>
<path class="st9" d="M480.3,349.1c0,0-7,1.1-5.2,5.7c0,0.5,0.4,1,0.9,1.1c0,0-0.1-0.4,0.6-0.4c0.3,0,0.5-0.1,0.8-0.1
	c0.4-0.1,0.6-0.3,0.8-0.5l0,0c0,0,1.8-1.2,1.9-4.5c0,0,0.4-0.8,0.4-1l-1.1,0.7c0.4,0.4,0.4,1,0.4,1.5c0,0-0.4-1.5-0.5-1.4l-0.5,0.4
	c0.5,0.7,0.8,1.6,0.7,2.5c0,0-0.2-1.9-0.9-2.3l-0.7,0.6c0.6,0.7,1,1.7,0.9,2.7c0,0-0.3-1.9-1-2.5l-0.6,0.7c0.5,0.7,0.9,1.5,0.8,2.5
	c0,0-0.5-2.2-1-2.2c-0.3,0.3-0.4,0.6-0.5,1c0,0,0.7,1,0.5,1.6c0,0-0.5-1.4-0.7-1.4c-0.3,0.5-0.4,1.2-0.4,1.8c-0.1-0.6,0-1.2,0.2-1.9
	c-0.4,0.2-0.7,0.4-0.9,0.7c0,0-0.1-0.7,1-1c0.2-0.4,0.3-0.6,0.5-0.9c-0.5,0.1-1.2,0.3-1.6,0.5c0.4-0.5,1.1-0.8,1.8-0.8l0.6-0.8
	c-0.7,0-1.3,0.2-2,0.4c0.5-0.5,1.3-0.8,2.1-0.6l0.7-0.6c-0.6,0-1.2,0.1-1.9,0.3c0.6-0.4,1.3-0.5,2.1-0.4l0.5-0.4c0,0-0.9,0-1.2,0
	s-0.3,0-0.3,0c0.5-0.2,1.1-0.3,1.7-0.2C479.6,349.7,479.9,349.5,480.3,349.1z"/>
<path class="st4" d="M182.6,322.9c0,0-7,1.1-5.2,5.7c0,0.5,0.4,1,0.9,1.1c0,0-0.1-0.4,0.6-0.4c0.3,0,0.5-0.1,0.8-0.1
	c0.4-0.1,0.6-0.3,0.8-0.5l0,0c0,0,1.8-1.2,1.9-4.5c0,0,0.4-0.8,0.4-1l-1.1,0.7c0.4,0.4,0.4,1,0.4,1.5c0,0-0.4-1.5-0.5-1.4
	c-0.1,0-0.5,0.4-0.5,0.4c0.5,0.7,0.8,1.6,0.7,2.5c0,0-0.2-1.9-0.9-2.3l-0.7,0.6c0.6,0.7,1,1.7,0.9,2.7c0,0-0.3-2-1-2.6l-0.6,0.7
	c0.5,0.7,0.9,1.5,0.8,2.5c0,0-0.5-2.2-1-2.2c-0.3,0.3-0.4,0.6-0.5,1c0,0,0.7,1,0.5,1.6c0,0-0.5-1.4-0.7-1.4
	c-0.3,0.5-0.4,1.2-0.4,1.8c-0.1-0.6,0-1.2,0.2-1.9c-0.4,0.2-0.7,0.4-0.9,0.7c0,0-0.1-0.7,1-1c0.2-0.4,0.3-0.6,0.5-0.9
	c-0.5,0.1-1.2,0.3-1.6,0.5c0.4-0.5,1.1-0.8,1.8-0.8l0.6-0.8c-0.7,0-1.3,0.2-2,0.4c0.5-0.5,1.3-0.8,2.1-0.6l0.7-0.6
	c-0.6,0-1.2,0.1-1.9,0.3c0.6-0.4,1.4-0.5,2.1-0.4l0.5-0.4c0,0-0.9,0-1.2,0c-0.3,0-0.3,0-0.3,0c0.5-0.2,1.1-0.3,1.7-0.2
	C181.9,323.5,182.3,323.3,182.6,322.9z"/>
<path class="st9" d="M182.6,322.9c0,0-7,1.1-5.2,5.7c0,0.5,0.4,1,0.9,1.1c0,0-0.1-0.4,0.6-0.4c0.3,0,0.5-0.1,0.8-0.1
	c0.4-0.1,0.6-0.3,0.8-0.5l0,0c0,0,1.8-1.2,1.9-4.5c0,0,0.4-0.8,0.4-1l-1.1,0.7c0.4,0.4,0.4,1,0.4,1.5c0,0-0.4-1.5-0.5-1.4
	c-0.1,0-0.5,0.4-0.5,0.4c0.5,0.7,0.8,1.6,0.7,2.5c0,0-0.2-1.9-0.9-2.3l-0.7,0.6c0.6,0.7,1,1.7,0.9,2.7c0,0-0.3-2-1-2.6l-0.6,0.7
	c0.5,0.7,0.9,1.5,0.8,2.5c0,0-0.5-2.2-1-2.2c-0.3,0.3-0.4,0.6-0.5,1c0,0,0.7,1,0.5,1.6c0,0-0.5-1.4-0.7-1.4
	c-0.3,0.5-0.4,1.2-0.4,1.8c-0.1-0.6,0-1.2,0.2-1.9c-0.4,0.2-0.7,0.4-0.9,0.7c0,0-0.1-0.7,1-1c0.2-0.4,0.3-0.6,0.5-0.9
	c-0.5,0.1-1.2,0.3-1.6,0.5c0.4-0.5,1.1-0.8,1.8-0.8l0.6-0.8c-0.7,0-1.3,0.2-2,0.4c0.5-0.5,1.3-0.8,2.1-0.6l0.7-0.6
	c-0.6,0-1.2,0.1-1.9,0.3c0.6-0.4,1.4-0.5,2.1-0.4l0.5-0.4c0,0-0.9,0-1.2,0c-0.3,0-0.3,0-0.3,0c0.5-0.2,1.1-0.3,1.7-0.2
	C181.9,323.5,182.3,323.3,182.6,322.9z"/>
<path class="st4" d="M451.3,358.5c0,0-7,1.1-5.2,5.7c0,0.5,0.4,1,0.9,1.1c0,0-0.1-0.4,0.6-0.4c0.3,0,0.5-0.1,0.8-0.1
	c0.4-0.1,0.6-0.3,0.8-0.5l0,0c0,0,1.8-1.2,1.9-4.5c0,0,0.4-0.8,0.4-1l-1.1,0.7c0.4,0.4,0.4,1,0.4,1.5c0,0-0.4-1.5-0.5-1.4l-0.5,0.4
	c0.5,0.7,0.8,1.6,0.7,2.5c0,0-0.2-1.9-0.9-2.3l-0.7,0.6c0.6,0.7,1,1.7,0.9,2.7c0,0-0.3-2-1-2.6l-0.6,0.7c0.5,0.7,0.9,1.6,0.8,2.5
	c0,0-0.5-2.2-1-2.2c-0.3,0.3-0.4,0.6-0.5,1c0,0,0.7,1,0.5,1.6c0,0-0.5-1.4-0.7-1.4c-0.3,0.5-0.4,1.2-0.4,1.8c-0.1-0.6,0-1.2,0.2-1.9
	c-0.4,0.2-0.7,0.4-0.9,0.7c0,0,0-0.7,1-1c0.2-0.4,0.3-0.6,0.5-0.9c-0.5,0.1-1.2,0.3-1.6,0.5c0.4-0.5,1.1-0.9,1.8-0.8l0.6-0.7
	c-0.7,0-1.3,0.2-2,0.4c0.5-0.5,1.3-0.8,2.1-0.6l0.7-0.6c-0.6,0-1.2,0.1-1.9,0.3c0.6-0.4,1.3-0.5,2.1-0.4l0.5-0.4c0,0-0.9,0-1.2,0
	s-0.3,0-0.3,0c0.5-0.2,1.1-0.3,1.7-0.2C450.6,359.2,451,358.9,451.3,358.5z"/>
<path class="st9" d="M451.3,358.5c0,0-7,1.1-5.2,5.7c0,0.5,0.4,1,0.9,1.1c0,0-0.1-0.4,0.6-0.4c0.3,0,0.5-0.1,0.8-0.1
	c0.4-0.1,0.6-0.3,0.8-0.5l0,0c0,0,1.8-1.2,1.9-4.5c0,0,0.4-0.8,0.4-1l-1.1,0.7c0.4,0.4,0.4,1,0.4,1.5c0,0-0.4-1.5-0.5-1.4l-0.5,0.4
	c0.5,0.7,0.8,1.6,0.7,2.5c0,0-0.2-1.9-0.9-2.3l-0.7,0.6c0.6,0.7,1,1.7,0.9,2.7c0,0-0.3-2-1-2.6l-0.6,0.7c0.5,0.7,0.9,1.6,0.8,2.5
	c0,0-0.5-2.2-1-2.2c-0.3,0.3-0.4,0.6-0.5,1c0,0,0.7,1,0.5,1.6c0,0-0.5-1.4-0.7-1.4c-0.3,0.5-0.4,1.2-0.4,1.8c-0.1-0.6,0-1.2,0.2-1.9
	c-0.4,0.2-0.7,0.4-0.9,0.7c0,0,0-0.7,1-1c0.2-0.4,0.3-0.6,0.5-0.9c-0.5,0.1-1.2,0.3-1.6,0.5c0.4-0.5,1.1-0.9,1.8-0.8l0.6-0.7
	c-0.7,0-1.3,0.2-2,0.4c0.5-0.5,1.3-0.8,2.1-0.6l0.7-0.6c-0.6,0-1.2,0.1-1.9,0.3c0.6-0.4,1.3-0.5,2.1-0.4l0.5-0.4c0,0-0.9,0-1.2,0
	s-0.3,0-0.3,0c0.5-0.2,1.1-0.3,1.7-0.2C450.6,359.2,451,358.9,451.3,358.5z"/>
<path class="st4" d="M457.8,331.4c0,0-4.3,5.6,0.3,7.6c0.4,0.4,1,0.4,1.4,0.2c0,0-0.3-0.2,0.2-0.7c0.2-0.2,0.4-0.4,0.4-0.6
	c0.2-0.3,0.3-0.6,0.2-1l0,0c0,0,0.4-2.1-1.8-4.5c0,0-0.3-0.9-0.4-1l-0.3,1.2c0.5,0.1,1,0.4,1.3,0.8c0,0-1.3-0.8-1.4-0.6l-0.1,0.7
	c0.9,0.2,1.7,0.6,2.2,1.3c0,0-1.4-1.2-2.2-1.1l-0.1,1c1,0.1,1.9,0.6,2.5,1.3c0,0-1.5-1.2-2.5-1.2l0.1,1c0.9,0.1,1.7,0.5,2.3,1.2
	c0,0-1.9-1.2-2.2-1c0,0.4,0.1,0.7,0.3,1.1c0,0,1.2,0.2,1.5,0.8c0,0-1.3-0.7-1.4-0.5c0.3,0.5,0.5,1.1,1,1.5c-0.5-0.4-0.9-0.9-1.2-1.5
	c-0.2,0.4-0.2,0.7-0.1,1.2c0,0-0.5-0.4,0-1.4c-0.1-0.4-0.3-0.7-0.3-1c-0.4,0.4-0.6,1-0.8,1.5c-0.1-0.7,0.2-1.3,0.8-1.8l-0.1-1
	c-0.4,0.5-0.8,1.1-1.1,1.7c0,0-0.1-0.9,1.1-1.9l0.1-1c-0.4,0.4-0.9,1-1.2,1.5c0.2-0.7,0.6-1.3,1.2-1.8l0.1-0.6c0,0-0.6,0.6-0.8,0.8
	c-0.2,0.2-0.3,0.2-0.3,0.2c0.3-0.5,0.6-1,1.1-1.2C457.6,332.3,457.8,331.9,457.8,331.4z"/>
<path class="st9" d="M457.8,331.4c0,0-4.3,5.6,0.3,7.6c0.4,0.4,1,0.4,1.4,0.2c0,0-0.3-0.2,0.2-0.7c0.2-0.2,0.4-0.4,0.4-0.6
	c0.2-0.3,0.3-0.6,0.2-1l0,0c0,0,0.4-2.1-1.8-4.5c0,0-0.3-0.9-0.4-1l-0.3,1.2c0.5,0.1,1,0.4,1.3,0.8c0,0-1.3-0.8-1.4-0.6l-0.1,0.7
	c0.9,0.2,1.7,0.6,2.2,1.3c0,0-1.4-1.2-2.2-1.1l-0.1,1c1,0.1,1.9,0.6,2.5,1.3c0,0-1.5-1.2-2.5-1.2l0.1,1c0.9,0.1,1.7,0.5,2.3,1.2
	c0,0-1.9-1.2-2.2-1c0,0.4,0.1,0.7,0.3,1.1c0,0,1.2,0.2,1.5,0.8c0,0-1.3-0.7-1.4-0.5c0.3,0.5,0.5,1.1,1,1.5c-0.5-0.4-0.9-0.9-1.2-1.5
	c-0.2,0.4-0.2,0.7-0.1,1.2c0,0-0.5-0.4,0-1.4c-0.1-0.4-0.3-0.7-0.3-1c-0.4,0.4-0.6,1-0.8,1.5c-0.1-0.7,0.2-1.3,0.8-1.8l-0.1-1
	c-0.4,0.5-0.8,1.1-1.1,1.7c0,0-0.1-0.9,1.1-1.9l0.1-1c-0.4,0.4-0.9,1-1.2,1.5c0.2-0.7,0.6-1.3,1.2-1.8l0.1-0.6c0,0-0.6,0.6-0.8,0.8
	c-0.2,0.2-0.3,0.2-0.3,0.2c0.3-0.5,0.6-1,1.1-1.2C457.6,332.3,457.8,331.9,457.8,331.4z"/>
<path class="st4" d="M487.5,426.4c0,0,18.7-0.8,20.7-37.4c2-36.6-17.5-42.8-17.5-42.8s-6.2-3.5-8.9-3.6s-11.9,0.7-11.9,0.7l10.1-2
	c0,0-14.2-5.4-18.5-5.9l15.4,3.3c0,0,0.2-8.5-3.5-11.4c0,0,3.1-0.3,4.8,5.9c1,3.6,3.6,6.5,7,7.9c5.7,2.2,13.6,5.8,15.4,8.7
	c0,0,3.3,3.5,2.8-5.5c-0.4-9-2.9-16.8-3.8-17c0,0-6.8-7.2-16.3-7.6c0,0,5.6-2.2,14.9,4.8c0,0,0.8-3.6-2.8-7.7c-3.6-4.2-9-13-15-13.9
	c0,0,8.4-0.5,15,10.3c0,0,2.5,1.6,2.7-2.5c0.3-3.1,0.8-6.1,1.7-9.1c0,0,2,9.3-2.2,13.5c0,0,8.2,10.6,7.8,22.5c0,0,2.5,5.4,3.5-1
	c0,0,0.5-8.7,1.6-16.2c0.9-6-0.8-12.2-4.6-17c-1.8-2.2-3-4.4-2.4-5.6l9.4,11.3c0,0,8-18.4,13.7-22.3c5.7-3.9,6.5-4.8,6.5-4.8
	l-9.3,10.9l11.7-4.1l-11.7,5.4c0,0-5.4,4.4-8.5,16.4c-3.1,12.1-3.4,19.5-3.4,19.5s16.7-13.2,19.8-12.8l-10.7,8.2
	c-6,4.5-9.6,11.3-10.1,18.7l0,0c0,0,20.9-5.3,25.9-6.3l9.5-9.8l-7.2,9.2l14.8-0.2l8.5-6c0,0-6.7,5.6-6,6c0.6,0.4,10.5,0.8,10.5,0.8
	s-25-0.2-27.7,1.7c-2.8,1.8-8.9,2.5-8.9,2.5l17.7,2.7l-21.1-1.5c0,0-15.9,2.8-16.8,7.9c0,0,3.3,8.4,5.4,11.8
	c1.8,2.8,5.4,11.8,6.1,19.7c0.7,7.9,1.8,20.1-1,27.5s-3.7,11.6-2.4,13.9c1.3,2.2,2.7,5.2-1.8,5.7c-4.4,0.5-24.1-0.3-24.1-0.3
	S486.3,430.9,487.5,426.4z"/>
<path class="st0" d="M498,422.5c2-1,4.2-1.2,6.4-0.8c3.2,0.5,6.5,0.6,9.8,0.3L498,422.5z"/>
<path class="st0" d="M509.7,379.3c0,0,0.9,14.1-0.7,16.9L509.7,379.3z"/>
<path class="st0" d="M513.1,396.2c0,0-1.2,13.2-1.9,15.8C510.5,414.6,513.1,396.2,513.1,396.2z"/>
<path class="st0" d="M514.1,363.7c0.8,0.3,4.3,7.4,3.6,9.4C517,375.2,514.1,363.7,514.1,363.7z"/>
<path class="st0" d="M505.3,356.4c0.4,0.2,2,4.3,1.7,5.4S505.3,356.4,505.3,356.4z"/>
<path class="st0" d="M520.4,380c-0.4,3.4-0.5,6.7-0.4,10c0.2,2.6,0.2,5.1-0.1,7.6L520.4,380z"/>
<path class="st0" d="M476.9,332.4c0.4,0.6,0.7,1.3,0.7,2s-0.1,1.5,0,2.2s0.4,1.7,1.2,1.8L476.9,332.4z"/>
<path class="st0" d="M490.2,308c1,1,1.9,2,2.6,3.2c0.2,0.4,0.4,0.7,0.7,1.1c0.4,0.4,0.9,0.8,1.4,1.2c1.2,0.9,2,2.1,2.3,3.6
	L490.2,308z"/>
<path class="st0" d="M527.9,286.9c-0.3,0.4-0.5,0.9-0.9,1.2c-0.4,0.4-0.7,0.5-1,0.9c-0.3,0.3-0.4,0.6-0.6,1
	c-0.8,1.2-1.7,2.3-2.7,3.4L527.9,286.9z"/>
<path class="st0" d="M510.4,307.8c0.5,0.4,0.9,1.2,0.8,2s-0.1,1.5,0.2,2.1c0.1,0.4,0.4,0.5,0.4,0.9c0.2,0.5,0.3,1.2,0.3,1.7
	c0,0.6,0,1.3-0.1,2c0.1,0.8-0.2,1.6-0.6,2.2L510.4,307.8z"/>
<path class="st4" d="M515.7,328.5c-0.6,0.3-1.2,0.7-1.6,1.1c-0.5,0.4-0.8,1.1-1,1.7c0,0.3,0,0.5-0.1,0.8c-0.1,0.4-0.3,0.7-0.5,1
	c-0.4,0.5-0.9,1.1-1.3,1.5L515.7,328.5z"/>
<path class="st0" d="M510.9,347.3c0.4-0.4,0.9-0.6,1.3-0.9c0.4-0.3,0.9-0.4,1.3-0.6c0.7-0.2,1.5-0.2,2.2-0.3c0.7,0,1.5-0.4,2-0.8
	L510.9,347.3z"/>
<path class="st0" d="M540.3,338.2c-0.9,0-1.8,0.1-2.6,0.4c-0.4,0.2-0.7,0.5-1.2,0.7c-0.5,0.3-1.1,0.4-1.7,0.4L540.3,338.2z"/>
<path class="st0" d="M528.1,341.8c0.2-0.1,0.4-0.1,0.6,0.2c0.2,0.2,0.3,0.4,0.4,0.6c0.4,0.3,0.8,0.4,1.3,0.4L528.1,341.8z"/>
<path class="st0" d="M523.1,323.2l-0.9,0.4c-0.9,0.4-1.7,1-2.5,1.5L523.1,323.2z"/>
<path class="st0" d="M513.4,331.4c-0.5-0.1-1.1,0.4-1.2,1c0,0.5-0.1,1.2-0.2,1.7c-0.2,0.4-0.4,0.9-0.8,1.2L513.4,331.4z"/>
<path class="st0" d="M504.1,332.5c-0.5,1.5,0.5,3.1,0.3,4.7c-0.1,0.4-0.3,0.9-0.4,1.4c-0.3,1.2,0.2,2.6,1.1,3.6L504.1,332.5z"/>
<g class="st13">
	<path d="M487.5,426.4c0,0,18.7-0.8,20.7-37.4c2-36.6-17.5-42.8-17.5-42.8s-6.2-3.5-8.9-3.6s-11.9,0.7-11.9,0.7l10.1-2
		c0,0-14.2-5.4-18.5-5.9l15.4,3.3c0,0,0.2-8.5-3.5-11.4c0,0,3.1-0.3,4.8,5.9c1,3.6,3.6,6.5,7,7.9c5.7,2.2,13.6,5.8,15.4,8.7
		c0,0,3.3,3.5,2.8-5.5c-0.4-9-2.9-16.8-3.8-17c0,0-6.8-7.2-16.3-7.6c0,0,5.6-2.2,14.9,4.8c0,0,0.8-3.6-2.8-7.7
		c-3.6-4.2-9-13-15-13.9c0,0,8.4-0.5,15,10.3c0,0,2.5,1.6,2.7-2.5c0.3-3.1,0.8-6.1,1.7-9.1c0,0,2,9.3-2.2,13.5
		c0,0,8.2,10.6,7.8,22.5c0,0,2.5,5.4,3.5-1c0,0,0.5-8.7,1.6-16.2c0.9-6-0.8-12.2-4.6-17c-1.8-2.2-3-4.4-2.4-5.6l9.4,11.3
		c0,0,8-18.4,13.7-22.3c5.7-3.9,6.5-4.8,6.5-4.8l-9.3,10.9l11.7-4.1l-11.7,5.4c0,0-5.4,4.4-8.5,16.4c-3.1,12.1-3.4,19.5-3.4,19.5
		s16.7-13.2,19.8-12.8l-10.7,8.2c-6,4.5-9.6,11.3-10.1,18.7l0,0c0,0,20.9-5.3,25.9-6.3l9.5-9.8l-7.2,9.2l14.8-0.2l8.5-6
		c0,0-6.7,5.6-6,6c0.6,0.4,10.5,0.8,10.5,0.8s-25-0.2-27.7,1.7c-2.8,1.8-8.9,2.5-8.9,2.5l17.7,2.7l-21.1-1.5c0,0-15.9,2.8-16.8,7.9
		c0,0,3.3,8.4,5.4,11.8c1.8,2.8,5.4,11.8,6.1,19.7c0.7,7.9,1.8,20.1-1,27.5s-3.7,11.6-2.4,13.9c1.3,2.2,2.7,5.2-1.8,5.7
		c-4.4,0.5-24.1-0.3-24.1-0.3S486.3,430.9,487.5,426.4z"/>
	<path class="st5" d="M498,422.5c2-1,4.2-1.2,6.4-0.8c3.2,0.5,6.5,0.6,9.8,0.3L498,422.5z"/>
	<path class="st5" d="M509.7,379.3c0,0,0.9,14.1-0.7,16.9L509.7,379.3z"/>
	<path class="st5" d="M513.1,396.2c0,0-1.2,13.2-1.9,15.8C510.5,414.6,513.1,396.2,513.1,396.2z"/>
	<path class="st5" d="M514.1,363.7c0.8,0.3,4.3,7.4,3.6,9.4C517,375.2,514.1,363.7,514.1,363.7z"/>
	<path class="st5" d="M505.3,356.4c0.4,0.2,2,4.3,1.7,5.4S505.3,356.4,505.3,356.4z"/>
	<path class="st5" d="M520.4,380c-0.4,3.4-0.5,6.7-0.4,10c0.2,2.6,0.2,5.1-0.1,7.6L520.4,380z"/>
	<path class="st5" d="M476.9,332.4c0.4,0.6,0.7,1.3,0.7,2s-0.1,1.5,0,2.2s0.4,1.7,1.2,1.8L476.9,332.4z"/>
	<path class="st5" d="M490.2,308c1,1,1.9,2,2.6,3.2c0.2,0.4,0.4,0.7,0.7,1.1c0.4,0.4,0.9,0.8,1.4,1.2c1.2,0.9,2,2.1,2.3,3.6
		L490.2,308z"/>
	<path class="st5" d="M527.9,286.9c-0.3,0.4-0.5,0.9-0.9,1.2c-0.4,0.4-0.7,0.5-1,0.9c-0.3,0.3-0.4,0.6-0.6,1
		c-0.8,1.2-1.7,2.3-2.7,3.4L527.9,286.9z"/>
	<path class="st5" d="M510.4,307.8c0.5,0.4,0.9,1.2,0.8,2s-0.1,1.5,0.2,2.1c0.1,0.4,0.4,0.5,0.4,0.9c0.2,0.5,0.3,1.2,0.3,1.7
		c0,0.6,0,1.3-0.1,2c0.1,0.8-0.2,1.6-0.6,2.2L510.4,307.8z"/>
	<path d="M515.7,328.5c-0.6,0.3-1.2,0.7-1.6,1.1c-0.5,0.4-0.8,1.1-1,1.7c0,0.3,0,0.5-0.1,0.8c-0.1,0.4-0.3,0.7-0.5,1
		c-0.4,0.5-0.9,1.1-1.3,1.5L515.7,328.5z"/>
	<path class="st5" d="M510.9,347.3c0.4-0.4,0.9-0.6,1.3-0.9c0.4-0.3,0.9-0.4,1.3-0.6c0.7-0.2,1.5-0.2,2.2-0.3c0.7,0,1.5-0.4,2-0.8
		L510.9,347.3z"/>
	<path class="st5" d="M540.3,338.2c-0.9,0-1.8,0.1-2.6,0.4c-0.4,0.2-0.7,0.5-1.2,0.7c-0.5,0.3-1.1,0.4-1.7,0.4L540.3,338.2z"/>
	<path class="st5" d="M528.1,341.8c0.2-0.1,0.4-0.1,0.6,0.2c0.2,0.2,0.3,0.4,0.4,0.6c0.4,0.3,0.8,0.4,1.3,0.4L528.1,341.8z"/>
	<path class="st5" d="M523.1,323.2l-0.9,0.4c-0.9,0.4-1.7,1-2.5,1.5L523.1,323.2z"/>
	<path class="st5" d="M513.4,331.4c-0.5-0.1-1.1,0.4-1.2,1c0,0.5-0.1,1.2-0.2,1.7c-0.2,0.4-0.4,0.9-0.8,1.2L513.4,331.4z"/>
	<path class="st5" d="M504.1,332.5c-0.5,1.5,0.5,3.1,0.3,4.7c-0.1,0.4-0.3,0.9-0.4,1.4c-0.3,1.2,0.2,2.6,1.1,3.6L504.1,332.5z"/>
</g>
<path class="st4" d="M182.6,389.1c0,0-18.7-0.8-20.7-37.4c-2-36.6,17.5-42.8,17.5-42.8s6.2-3.5,9-3.6c2.8-0.2,11.9,0.7,11.9,0.7
	l-10.1-2c0,0,14.2-5.4,18.5-5.9l-15.4,3.2c0,0-0.2-8.5,3.5-11.4c0,0-3.1-0.3-4.8,5.9c-1,3.6-3.6,6.5-7,7.9
	c-5.7,2.2-13.6,5.7-15.4,8.7c0,0-3.3,3.5-2.8-5.5c0.4-9,2.8-16.7,3.7-17c0,0,6.8-7.2,16.3-7.6c0,0-5.5-2.2-14.9,4.8
	c0,0-0.8-3.6,2.8-7.7s9-13,15-13.9c0,0-8.4-0.5-15,10.3c0,0-2.5,1.6-2.7-2.5c-0.3-3.1-0.8-6.1-1.7-9.1c0,0-2,9.3,2.2,13.5
	c0,0-8.2,10.6-7.8,22.5c0,0-2.5,5.4-3.5-1c0,0-0.5-8.7-1.6-16.2c-0.9-6,0.8-12.2,4.6-17c1.8-2.2,3-4.4,2.4-5.6l-9.4,11.3
	c0,0-7.9-18.4-13.7-22.4c-5.8-4-6.5-4.8-6.5-4.8l9.2,11.1l-11.7-4.1l11.7,5.4c0,0,5.4,4.4,8.5,16.4c3.1,12,3.4,19.5,3.4,19.5
	s-16.6-13.2-19.8-12.8l10.7,8.2c6,4.5,9.6,11.3,10.1,18.7l0,0c0,0-20.9-5.3-25.9-6.3l-9.5-9.8l7.2,9.2l-14.8-0.2l-8.5-6
	c0,0,6.8,5.6,6,6c-0.7,0.4-10.5,0.8-10.5,0.8s25-0.2,27.7,1.7c2.8,1.9,8.9,2.5,8.9,2.5l-17.7,2.7l21.1-1.5c0,0,15.9,2.8,16.8,7.8
	c0,0-3.2,8.4-5.4,11.8c-1.8,2.8-5.4,11.8-6.1,19.7c-0.7,7.9-1.7,20.1,1,27.5c2.7,7.5,3.7,11.6,2.4,13.9c-1.3,2.3-2.7,5.2,1.8,5.7
	c4.4,0.5,24.1-0.3,24.1-0.3S183.8,393.5,182.6,389.1z"/>
<path class="st0" d="M172.1,385.1c-2-1-4.2-1.2-6.3-0.8c-3.2,0.5-6.5,0.6-9.8,0.3L172.1,385.1z"/>
<path class="st0" d="M160.4,341.9c0,0-0.9,14.1,0.7,16.9L160.4,341.9z"/>
<path class="st0" d="M157.1,358.8c0,0,1.2,13.2,2,15.8S157.1,358.8,157.1,358.8z"/>
<path class="st0" d="M156.1,326.4c-0.8,0.3-4.3,7.4-3.6,9.4S156.1,326.4,156.1,326.4z"/>
<path class="st0" d="M164.8,319c-0.4,0.2-2,4.3-1.7,5.4C163.4,325.6,164.8,319,164.8,319z"/>
<path class="st0" d="M149.7,342.7c0.4,3.4,0.5,6.7,0.4,10c-0.2,2.6-0.2,5.1,0.1,7.6L149.7,342.7z"/>
<path class="st0" d="M193.3,295c-0.4,0.6-0.7,1.3-0.7,2c0,0.7,0.1,1.5,0,2.2s-0.4,1.7-1.2,1.8L193.3,295z"/>
<path class="st0" d="M179.9,270.7c-1,1-1.9,2-2.6,3.2c-0.2,0.4-0.4,0.7-0.7,1.1c-0.4,0.4-0.9,0.8-1.4,1.2c-1.2,0.9-2,2.1-2.3,3.6
	L179.9,270.7z"/>
<path class="st0" d="M142.3,249.5c0.3,0.4,0.5,0.9,0.9,1.2c0.4,0.4,0.7,0.5,1,0.9c0.3,0.3,0.4,0.6,0.6,1c0.8,1.2,1.7,2.3,2.7,3.4
	L142.3,249.5z"/>
<path class="st0" d="M159.7,270.4c-0.5,0.4-0.9,1.2-0.8,2c0.1,0.7,0.1,1.5-0.1,2.1c-0.1,0.4-0.4,0.5-0.4,0.9
	c-0.2,0.5-0.3,1.2-0.2,1.7c0,0.6,0,1.3,0.1,2c-0.1,0.8,0.2,1.6,0.6,2.2L159.7,270.4z"/>
<path class="st4" d="M154.5,291.1c0.6,0.3,1.2,0.7,1.6,1.2c0.5,0.4,0.8,1.1,1,1.7c0,0.3,0,0.5,0.1,0.8c0.1,0.4,0.3,0.7,0.5,1
	c0.4,0.5,0.9,1.1,1.3,1.5L154.5,291.1z"/>
<path class="st0" d="M159.3,310c-0.4-0.4-0.9-0.6-1.3-0.9c-0.4-0.3-0.9-0.4-1.3-0.6c-0.7-0.2-1.5-0.2-2.2-0.3c-0.7,0-1.5-0.4-2-0.8
	L159.3,310z"/>
<path class="st0" d="M129.8,300.8c0.9,0,1.8,0.1,2.6,0.4c0.4,0.2,0.7,0.5,1.2,0.7c0.5,0.3,1.1,0.4,1.7,0.4L129.8,300.8z"/>
<path class="st0" d="M142,304.4c-0.2-0.1-0.4-0.1-0.6,0.2c-0.2,0.2-0.3,0.4-0.4,0.6c-0.4,0.3-0.8,0.4-1.3,0.4L142,304.4z"/>
<path class="st0" d="M147.1,285.8l0.9,0.4c0.9,0.4,1.7,1,2.5,1.5L147.1,285.8z"/>
<path class="st0" d="M156.7,294c0.5-0.1,1.1,0.4,1.2,1c0,0.5,0.1,1.2,0.2,1.7c0.2,0.4,0.4,0.9,0.8,1.2L156.7,294z"/>
<path class="st0" d="M166.1,295.1c0.5,1.5-0.5,3.1-0.3,4.7c0.1,0.4,0.4,0.9,0.4,1.4c0.3,1.2-0.2,2.6-1,3.6L166.1,295.1z"/>
<g class="st13">
	<path d="M182.6,389.1c0,0-18.7-0.8-20.7-37.4c-2-36.6,17.5-42.8,17.5-42.8s6.2-3.5,9-3.6c2.8-0.2,11.9,0.7,11.9,0.7l-10.1-2
		c0,0,14.2-5.4,18.5-5.9l-15.4,3.2c0,0-0.2-8.5,3.5-11.4c0,0-3.1-0.3-4.8,5.9c-1,3.6-3.6,6.5-7,7.9c-5.7,2.2-13.6,5.7-15.4,8.7
		c0,0-3.3,3.5-2.8-5.5c0.4-9,2.8-16.7,3.7-17c0,0,6.8-7.2,16.3-7.6c0,0-5.5-2.2-14.9,4.8c0,0-0.8-3.6,2.8-7.7s9-13,15-13.9
		c0,0-8.4-0.5-15,10.3c0,0-2.5,1.6-2.7-2.5c-0.3-3.1-0.8-6.1-1.7-9.1c0,0-2,9.3,2.2,13.5c0,0-8.2,10.6-7.8,22.5c0,0-2.5,5.4-3.5-1
		c0,0-0.5-8.7-1.6-16.2c-0.9-6,0.8-12.2,4.6-17c1.8-2.2,3-4.4,2.4-5.6l-9.4,11.3c0,0-7.9-18.4-13.7-22.4c-5.8-4-6.5-4.8-6.5-4.8
		l9.2,11.1l-11.7-4.1l11.7,5.4c0,0,5.4,4.4,8.5,16.4c3.1,12,3.4,19.5,3.4,19.5s-16.6-13.2-19.8-12.8l10.7,8.2
		c6,4.5,9.6,11.3,10.1,18.7l0,0c0,0-20.9-5.3-25.9-6.3l-9.5-9.8l7.2,9.2l-14.8-0.2l-8.5-6c0,0,6.8,5.6,6,6
		c-0.7,0.4-10.5,0.8-10.5,0.8s25-0.2,27.7,1.7c2.8,1.9,8.9,2.5,8.9,2.5l-17.7,2.7l21.1-1.5c0,0,15.9,2.8,16.8,7.8
		c0,0-3.2,8.4-5.4,11.8c-1.8,2.8-5.4,11.8-6.1,19.7c-0.7,7.9-1.7,20.1,1,27.5c2.7,7.5,3.7,11.6,2.4,13.9c-1.3,2.3-2.7,5.2,1.8,5.7
		c4.4,0.5,24.1-0.3,24.1-0.3S183.8,393.5,182.6,389.1z"/>
	<path class="st5" d="M172.1,385.1c-2-1-4.2-1.2-6.3-0.8c-3.2,0.5-6.5,0.6-9.8,0.3L172.1,385.1z"/>
	<path class="st5" d="M160.4,341.9c0,0-0.9,14.1,0.7,16.9L160.4,341.9z"/>
	<path class="st5" d="M157.1,358.8c0,0,1.2,13.2,2,15.8S157.1,358.8,157.1,358.8z"/>
	<path class="st5" d="M156.1,326.4c-0.8,0.3-4.3,7.4-3.6,9.4S156.1,326.4,156.1,326.4z"/>
	<path class="st5" d="M164.8,319c-0.4,0.2-2,4.3-1.7,5.4C163.4,325.6,164.8,319,164.8,319z"/>
	<path class="st5" d="M149.7,342.7c0.4,3.4,0.5,6.7,0.4,10c-0.2,2.6-0.2,5.1,0.1,7.6L149.7,342.7z"/>
	<path class="st5" d="M193.3,295c-0.4,0.6-0.7,1.3-0.7,2c0,0.7,0.1,1.5,0,2.2s-0.4,1.7-1.2,1.8L193.3,295z"/>
	<path class="st5" d="M179.9,270.7c-1,1-1.9,2-2.6,3.2c-0.2,0.4-0.4,0.7-0.7,1.1c-0.4,0.4-0.9,0.8-1.4,1.2c-1.2,0.9-2,2.1-2.3,3.6
		L179.9,270.7z"/>
	<path class="st5" d="M142.3,249.5c0.3,0.4,0.5,0.9,0.9,1.2c0.4,0.4,0.7,0.5,1,0.9c0.3,0.3,0.4,0.6,0.6,1c0.8,1.2,1.7,2.3,2.7,3.4
		L142.3,249.5z"/>
	<path class="st5" d="M159.7,270.4c-0.5,0.4-0.9,1.2-0.8,2c0.1,0.7,0.1,1.5-0.1,2.1c-0.1,0.4-0.4,0.5-0.4,0.9
		c-0.2,0.5-0.3,1.2-0.2,1.7c0,0.6,0,1.3,0.1,2c-0.1,0.8,0.2,1.6,0.6,2.2L159.7,270.4z"/>
	<path d="M154.5,291.1c0.6,0.3,1.2,0.7,1.6,1.2c0.5,0.4,0.8,1.1,1,1.7c0,0.3,0,0.5,0.1,0.8c0.1,0.4,0.3,0.7,0.5,1
		c0.4,0.5,0.9,1.1,1.3,1.5L154.5,291.1z"/>
	<path class="st5" d="M159.3,310c-0.4-0.4-0.9-0.6-1.3-0.9c-0.4-0.3-0.9-0.4-1.3-0.6c-0.7-0.2-1.5-0.2-2.2-0.3c-0.7,0-1.5-0.4-2-0.8
		L159.3,310z"/>
	<path class="st5" d="M129.8,300.8c0.9,0,1.8,0.1,2.6,0.4c0.4,0.2,0.7,0.5,1.2,0.7c0.5,0.3,1.1,0.4,1.7,0.4L129.8,300.8z"/>
	<path class="st5" d="M142,304.4c-0.2-0.1-0.4-0.1-0.6,0.2c-0.2,0.2-0.3,0.4-0.4,0.6c-0.4,0.3-0.8,0.4-1.3,0.4L142,304.4z"/>
	<path class="st5" d="M147.1,285.8l0.9,0.4c0.9,0.4,1.7,1,2.5,1.5L147.1,285.8z"/>
	<path class="st5" d="M156.7,294c0.5-0.1,1.1,0.4,1.2,1c0,0.5,0.1,1.2,0.2,1.7c0.2,0.4,0.4,0.9,0.8,1.2L156.7,294z"/>
	<path class="st5" d="M166.1,295.1c0.5,1.5-0.5,3.1-0.3,4.7c0.1,0.4,0.4,0.9,0.4,1.4c0.3,1.2-0.2,2.6-1,3.6L166.1,295.1z"/>
</g>
<path class="st4" d="M255.8,552l-0.3,0.4c-0.3,0.4-0.9,1.3-1.8,2.5l-3.3-2.8l-0.5-0.4C252,551.2,253.9,551.4,255.8,552z"/>
<path class="st4" d="M264.9,508c0,0-10.2,20.9-27.7,32.8l-8.4-7C238.5,522.4,254.3,506.3,264.9,508z"/>
<path class="st4" d="M234,496.8c0,0,25.2-29.9,39.2-30.2c0,0-19.5,39.5-40.1,39.7L234,496.8z"/>
<path class="st4" d="M242,465.2l23.5-61.6c0,0,2.6,55.1-26.5,72.9L242,465.2z"/>
<path class="st4" d="M250.7,397.7c0,0,2.9-51,0.2-55.1c0,0,18.9,41.9,0.2,77.6L250.7,397.7z"/>
<path class="st4" d="M219.3,525.6l-15.2-12.8c-1.2-7.8-1.4-15.8-0.7-23.6C212.2,493,216.9,511.3,219.3,525.6z"/>
<path class="st4" d="M236.2,500.6c0,0-1-39.1-11.8-48.1c0,0-9.5,43.1,6.5,56.1L236.2,500.6z"/>
<path class="st4" d="M240.8,463.4L229,398.5c0,0-12.7,53.7,12.6,76.6L240.8,463.4z"/>
<path class="st4" d="M241.2,398.6c0,0-27.4-43.2-27-48.1c0,0,3.9,45.8,37.6,67.9L241.2,398.6z"/>
<path class="st4" d="M244,385.5c0,0-26.3-61.6-37.8-66.4c0,0,36,17.2,39.7,64.5L244,385.5z"/>
<path class="st12" d="M233.1,506.7l-1.7-0.4c19.4-68.9,23.5-112.7,11.8-123.4l1.2-1.3C256.9,392.8,253,436.1,233.1,506.7z"/>
<path class="st12" d="M234.5,501.7c-0.3,0.9-0.5,1.8-0.7,2.6l0,0c-0.2,0.6-0.4,1.2-0.5,2c-0.1,0.2-0.1,0.4-0.2,0.5
	c-2.2,7.7-4.6,15.9-7.2,24.4l-1.5-1.3l0,0c2.3-7.5,4.4-14.6,6.4-21.4l0,0c0.4-1.4,0.8-2.9,1.2-4.4c0.1-0.4,0.2-0.6,0.3-1
	c0-0.1,0.1-0.3,0.1-0.4l1.2-0.6L234.5,501.7z"/>
<path class="st4" d="M288.4,571c0,0-18.8-34.3-32.5-37.3c0,0,11.4,42.6,31.4,46.8L288.4,571z"/>
<path class="st4" d="M286.8,538.5l-11-65c0,0-13.3,53.5,11.6,76.8L286.8,538.5z"/>
<path class="st4" d="M291.7,470.6c0,0,7.1-50.6,10.7-54.1c0,0-26.7,37.4-15.5,76L291.7,470.6z"/>
<path class="st4" d="M321.3,608c0,0,0,1.2-0.2,3.5l-2.5-2l-0.3-0.2c0.1,0,0.2-0.1,0.2-0.1C319.4,608.5,320.3,608.2,321.3,608z"/>
<path class="st4" d="M320,569.7c0,0-1.5,17-9.5,32.8l-9.9-8.4C305.6,582.7,312.4,571.3,320,569.7z"/>
<path class="st4" d="M285.6,574.3c0,0,8.7-38.1,21-44.8c0,0,0.8,44.2-17.3,53.7L285.6,574.3z"/>
<path class="st4" d="M288.4,536.9l24.3-61.3c0,0,1.9,55.1-27.4,72.7L288.4,536.9z"/>
<path class="st4" d="M300.7,473.3c0,0,35.4-37,35.9-41.8c0,0-12.8,44.2-50.2,59.2L300.7,473.3z"/>
<path class="st4" d="M300.5,460.1c0,0,37.9-55.2,50-57.7c0,0-38.6,9.8-51.6,55.4L300.5,460.1z"/>
<path class="st12" d="M287.4,581.1l1.8-0.2c-5.5-71.4-1-115.2,12.6-123.3l-0.9-1.5C286.6,464.6,281.8,507.9,287.4,581.1z"/>
<path class="st12" d="M289.4,583.1c0,0.5,0.1,1.2,0.2,1.7l-2-1.6c-0.1-0.7-0.1-1.5-0.2-2.2c0-0.2,0-0.4,0-0.5l0,0
	c-0.1-0.7-0.1-1.3-0.2-2l0,0c-0.1-0.7-0.1-1.4-0.2-2.1c0-0.2,0-0.4,0-0.6l0,0l0.8,0.7l1.1,0.9c0,0.1,0,0.2,0,0.2c0,0.1,0,0.1,0,0.2
	c0.1,0.7,0.1,1.5,0.2,2.2c0,0.2,0,0.3,0,0.4C289.2,581.3,289.3,582.2,289.4,583.1z"/>
</svg>
