<?xml version="1.0" encoding="utf-8"?>
<!-- Generator: Adobe Illustrator 23.0.2, SVG Export Plug-In . SVG Version: 6.00 Build 0)  -->
<svg version="1.1" id="a0c20882-2d18-455a-ade1-f7c359a0c63a"
	 xmlns="http://www.w3.org/2000/svg" xmlns:xlink="http://www.w3.org/1999/xlink" x="0px" y="0px" viewBox="0 0 266.9 361.6"
	 style="enable-background:new 0 0 266.9 361.6;" xml:space="preserve">
<style type="text/css">
	.st0{fill:#E7685D;}
	.st1{opacity:0.1;enable-background:new    ;}
	.st2{fill:#EFB7B9;}
	.st3{fill:#3F3D56;}
	.st4{opacity:0.1;}
	.st5{fill:#4C4981;}
	.st6{fill:#444053;}
	.st7{fill:#F86D70;}
	.st8{fill:#925978;}
</style>
<title>compose music</title>
<path class="st0" d="M146.3,16.5v199.2c-36-20.8-82.1-8.4-102.9,27.6c-20.8,36-8.4,82.1,27.6,102.9c36,20.8,82.1,8.4,102.9-27.6
	c6.6-11.5,10.1-24.5,10.1-37.8V92h75.6V16.5H146.3z"/>
<path class="st1" d="M248.1,16.5v63.1h-75.6v188.8c0,41.7-33.8,75.5-75.4,75.5c-17,0-33.5-5.7-46.9-16.3
	c25.8,32.7,73.3,38.3,106,12.4c18.1-14.3,28.7-36.1,28.7-59.2V92h75.6V16.5H248.1z"/>
<path class="st2" d="M20.1,34.3l0.3,2.2l9.4,1.3c0,0,0.8-0.6,2-1.4c2.2-1.5,6-3.7,9.2-4.3c4.9-1,20.7-8.1,15.6-8.5s-4.6,0.6-4.6,0.6
	s-5.6-5.5-11.4-0.5c-4.4,3.8-14,7.9-18.4,9.7C20.9,34,20.1,34.3,20.1,34.3z"/>
<path class="st3" d="M57.8,9.3c1.4-0.6,3-1,4.5-1.2c1.6-0.2,3.1,0.4,4.3,1.4c0.6,0.6,1,1.4,1.6,2.1c2.9,3.1,8.5,0.8,11.9,3.2
	c2.1,1.5,2.8,4.3,3.6,6.8s2.1,5.2,4.7,5.8c1.2,0.1,2.5,0.1,3.7-0.1c1.2-0.2,2.5,0.3,3.3,1.2c1.2,1.8-0.4,4.8,1.3,6.1
	c1.5,1.1,4.3-0.4,5.4,1.1c0.4,0.9,0.3,1.9-0.4,2.6c-0.6,0.7-1.2,1.4-1.7,2.2c-0.8,1.6-0.2,3.6,1.4,4.5c0.6,0.3,1.2,0.4,1.9,0.4
	c1.1-0.1,2.2-0.7,3.2-0.2c0.6,0.4,1,1.1,1,1.8c0.1,2.5-1.7,4.6-4.2,4.9c-1.8,0.1-3.5-0.9-5.2-1.7s-3.6-1.6-5.3-0.9
	c-0.8,0.4-1.5,0.9-2.1,1.5c-1.9,1.6-4.1,2.9-6.5,3.9c-2.1,0.8-4.5,1.3-6.5,0.3c-2.2-1.1-3.4-3.9-5.8-4.8s-5.1,0.7-7.4,2.1
	s-5.3,2.5-7.4,0.8c-2.2-1.8-1.5-5.4-2.9-7.9c-0.5-0.9-1.3-1.8-2.2-2.4c-1.5-1.2-3.2-2.1-4.8-3.2c-1.6-1.1-2.8-2.7-3.3-4.6
	c-0.4-2.3,0.6-4.5,1.9-6.5s2.7-3.9,3.1-6.1c0.3-1.7,0-3.5,0.4-5.1c0.6-2,2.1-3.7,4.1-4.4c1.1-0.4,1.3-0.3,1.9-1.3
	C55.8,10.3,56.7,9.6,57.8,9.3z"/>
<g class="st4">
	<path d="M95.7,29.1c0.2,1,0.3,2,0.2,3C95.7,31.1,95.6,30.1,95.7,29.1z"/>
	<path d="M100,40.5c-0.2,0.3-0.3,0.7-0.3,1.1c-0.4-0.9-0.3-1.9,0.1-2.8c0.5-0.8,1.1-1.5,1.7-2.2c0.2-0.3,0.4-0.6,0.5-1l0.1,0.1
		c0.4,0.9,0.3,1.9-0.4,2.6C101.1,39,100.5,39.7,100,40.5z"/>
	<path d="M47,37.8c1.5,1.2,3.2,2,4.8,3.2c0.9,0.6,1.6,1.4,2.2,2.4c1.4,2.5,0.7,6.1,2.9,7.9c2.1,1.7,5.1,0.5,7.4-0.8s4.9-3,7.4-2.1
		s3.5,3.6,5.8,4.8c2,1,4.4,0.5,6.5-0.3c2.4-0.9,4.6-2.2,6.5-3.9c0.6-0.6,1.3-1.1,2.1-1.5c1.7-0.7,3.6,0,5.3,0.9s3.3,1.8,5.2,1.7
		c2.2-0.2,3.9-1.9,4.1-4.1c0.1,0.3,0.2,0.6,0.2,0.9c0.2,2.5-1.7,4.7-4.1,4.9c-1.8,0.1-3.5-0.9-5.2-1.7s-3.6-1.6-5.3-0.9
		c-0.8,0.4-1.5,0.9-2.1,1.5c-1.9,1.6-4.1,2.9-6.5,3.9c-2.1,0.8-4.5,1.3-6.5,0.3c-2.3-1.1-3.4-3.9-5.8-4.8s-5.1,0.7-7.4,2.1
		s-5.3,2.5-7.4,0.8c-2.2-1.8-1.5-5.4-2.9-7.9c-0.5-0.9-1.3-1.7-2.2-2.4c-1.5-1.2-3.2-2.1-4.8-3.2c-1.6-1.1-2.8-2.7-3.3-4.6
		c-0.1-0.4-0.1-0.8-0.1-1.2C44.5,35.4,45.6,36.8,47,37.8z"/>
</g>
<path class="st5" d="M51.1,89.8l-3.4,0.7c0,0,3.4,5.6,8.6,1.9S51.1,89.8,51.1,89.8z"/>
<path class="st1" d="M51.1,89.8l-3.4,0.7c0,0,3.4,5.6,8.6,1.9S51.1,89.8,51.1,89.8z"/>
<path class="st2" d="M125.5,141.5c0,0,4.8,2.5,9.2,5.3c3.2,2,6.2,4.3,7.2,5.9c2.4,4,13.8,8.3,13.8,8.3l11.4,8.7
	c2.7,0.9,5.3,4.1,6.4,5.6c0.3,0.4,0.5,0.7,0.5,0.7l4.6-0.6l2.4-3.1c0,0,0.6-6.9-4.1-6.8c-0.9,0-1.8-0.3-2.7-0.7
	c-5.1-2.2-12.2-9.4-12.2-9.4s-12.1-15.1-15.8-15.6c-0.4-0.1-0.8-0.2-1.1-0.3c-3.7-1.3-9-6-9-6L125.5,141.5z"/>
<path class="st2" d="M78.5,185.3c1.2,7.3,6.7,21.2,8.5,24.1c2.2,3.6,3.4,10.8,3.4,10.8l0.6,5c0.1,0.7,0.4,1.3,0.7,1.9
	c0.2,0.3,0.4,0.7,0.6,1l9.1-2.8c0,0-0.5-2.1-1.3-4.5s-2-5.4-3.1-6.6c-2.2-2.2-2.6-9.9-2.6-9.9s-1.9-14.9-2.4-16.7
	c-0.5-1.8-0.9-3.6-1-5.5c-0.1-1-0.1-2.1-0.2-3.4c-0.2-3.7-0.7-7.4-1.4-11l-10.6,1.9l-0.3,11.9C78.2,182.7,78.2,184.1,78.5,185.3z"/>
<path class="st1" d="M173.5,175.4c0.3,0.4,0.5,0.7,0.5,0.7l4.6-0.6l2.4-3.1c0,0,0.6-6.9-4.1-6.8c-0.9,0-1.8-0.3-2.7-0.7
	c-0.4,2.1,1.9,3.8,1.9,3.8s1,0.7,0.7,3.9C176.6,174.8,174.7,175.3,173.5,175.4z"/>
<path class="st6" d="M173,175.8c0.3,1.1,3.2,2.7,5.2,3.8c1,0.5,1.8,0.9,1.9,0.9c0.5,0.2,2.9-2.5,3.2-4.6s6.1-8.9,6.1-8.9
	c1.2-2.7,1.9-5.5,2.1-8.5c0.2-3-1-3.2-2.5-2.5c-1,0.5-2,1.3-2.7,2.1c-1,0.9-2.2,1.6-3.5,1.8c-1.8,0.4-3.5,1.2-5.1,2.2
	c-1.4,0.9-2.8,2-3,3c-0.5,2.1,1.9,3.9,1.9,3.9s1,0.7,0.7,3.9S172.9,175.7,173,175.8z"/>
<path class="st1" d="M178.1,179.6c1,0.5,1.8,0.9,1.9,0.9c0.5,0.2,2.9-2.5,3.2-4.6s6.1-8.9,6.1-8.9c1.2-2.7,1.9-5.5,2.1-8.5
	c0.2-3-1-3.2-2.5-2.5c-0.2,2.3-0.8,6.9-2,9.3C185.6,168.1,179.7,177.1,178.1,179.6z"/>
<path class="st1" d="M91.8,226.9l-0.1,0.2c0.2,0.3,0.4,0.7,0.6,1l9.1-2.8c0,0-0.5-2.1-1.3-4.5c-3.6-1-8.8,5.3-8.8,5.3L91.8,226.9z"
	/>
<path class="st6" d="M91.2,233.7c0,0,7.6,2.7,11,2.3c2.6-0.3,2.7-1.5,2.5-4c-0.1-0.8-0.1-1.7-0.2-2.8c-0.2-4.4-1.9-5.3-1.9-5.3
	c-2.9-7.6-11.2,2.6-11.2,2.6l0.4,0.8c-0.6,1.3-0.9,2.7-0.9,4.1C91,232.2,91.1,233,91.2,233.7z"/>
<path class="st1" d="M91.2,233.7c0,0,7.6,2.7,11,2.3c2.6-0.3,2.7-1.5,2.5-4c-1.7,1.4-4,2.1-6.2,1.8c-2.6-0.3-5.2-1.1-7.6-2.3
	C91,232.2,91.1,233,91.2,233.7z"/>
<path class="st2" d="M53.4,48.9l3,13l0.6,2.7l5.5,0.7l5.7,0.7l6.2-2.2c0,0,1.7-5.9,0.3-10.3c-0.4-1.6-1.5-2.9-2.9-3.8
	c-0.4-0.3-0.8-0.6-1.2-0.9c-0.4-0.4-0.7-0.9-1-1.4c-0.3-0.7-0.5-1.4-0.5-2.1c-0.3-3.5,1.9-7.4,1.9-7.4S58,33.5,59,36.3
	c0.7,1.9-1.2,5.1-2.6,7.2c-0.8,1.1-1.4,1.9-1.4,1.9L53.4,48.9z"/>
<circle class="st1" cx="65.3" cy="32.5" r="11.4"/>
<circle class="st2" cx="65.2" cy="32.1" r="11.4"/>
<path class="st7" d="M54.3,92.2c0.5,2.5,3,6.5,3,6.5l15.9,3.9l11.3-11.9v-0.1C84.2,89.4,79.8,75.4,83,72c3.3-3.6,2-13.7,2-13.7
	s-5.7-6.5-6.8-8.1s-8.5-2.8-8.5-2.8c0.4,0.5,0.7,1,1,1.4c0.8,1.2,1.4,2.5,1.8,3.8c0.5,1.4,0.4,2.8-0.1,4.2c-0.2,0.3-0.3,0.7-0.4,1.1
	c-1.2,5.4-6.9,4.7-9.1,4.1c-0.6-0.1-0.9-0.3-0.9-0.3l-5.4,0.2L53,62c0,0,1.6,26.8,1.2,28.9C54.1,91.3,54.2,91.7,54.3,92.2z"/>
<path class="st8" d="M53.1,63.4l9.9-1.3h-0.2c-0.6-0.1-0.9-0.3-0.9-0.3L56.4,62L53,62.1C53,62.1,53,62.6,53.1,63.4z"/>
<polygon class="st8" points="64.1,100.3 68.4,101.4 75.1,100.5 76.9,98.7 "/>
<polygon class="st8" points="71.2,102.1 73.2,102.5 74,101.7 "/>
<path class="st1" d="M54.3,92.2c2.5,0.3,4.9,0.4,4.9,0.4l13.1-0.5V78.4c-1.6-1.4-3.3-2.6-5.3-3.5c-2.3-0.8-5-3.2-4.5-9.6
	c0-0.4,0.1-0.8,0.1-1.1c0.1-0.7,0.1-1.4,0.1-2.1c0-3.2-1.3-6.2-3.6-8.4c-0.1-0.1-0.1-0.1-0.2-0.2l-2.1-9.9c-0.1,0-0.3,0-0.4,0.1
	c-0.8,1.1-1.4,1.9-1.4,1.9l-1.6,3.4l3,13L53,62c0,0,1.6,26.8,1.2,28.9C54.1,91.3,54.2,91.7,54.3,92.2z"/>
<path class="st6" d="M58.7,92.6l13.1-0.5V78.5c-1.6-1.4-3.3-2.6-5.3-3.5c-2.4-0.8-5.3-3.5-4.4-10.7c0.7-3.9-0.6-7.9-3.5-10.6
	l-0.2-0.2l-2.1-9.9c-1.4,0.1-2.6,0.8-3.4,1.9c-0.2,0.4-0.5,0.8-0.8,1.2c-0.5,0.9-1.7,1.3-2.6,0.8c-1.4-0.6-7.3-3.1-8.6-0.7
	s-1.6,17.1-1.6,17.1c2,1.6,3.3,3.8,3.9,6.3c0.9,4.2,2.4,4.3,2.4,4.3l1.6,12c0,0,1.5,2.6,0.4,4"/>
<path class="st6" d="M52.2,46.6l2.2,6.7l4.3,0.4l-0.2-0.2l-2.1-9.9c-1.4,0.1-2.6,0.8-3.4,1.9C52.8,45.9,52.5,46.3,52.2,46.6z"/>
<path class="st1" d="M20.1,34.3l0.3,2.2l9.4,1.3c0,0,0.8-0.6,2-1.4c-1-0.2-5.7-1.2-8.2-2c-0.9-0.3-1.5-0.5-1.5-0.7s0.1-0.2,0.2-0.3
	C20.9,34,20.1,34.3,20.1,34.3z"/>
<path class="st6" d="M9,48.4c0,0,10.7,8.1,17.4,9.4c0,0,9.3,2.8,13,6l4-15.4l-2.4-1.7c0,0-2.9,1.8-5.4,1.2s-5.3-1-5.3-1
	c-2.2-0.8-4.5-1.4-6.8-1.9c-1.8-0.1-1.1-2.5,0.7-3.7c0.2-0.2,0.5-0.3,0.8-0.4c0.7,1,2,1.2,3,0.7c0.7-0.4,1.3-1,1.8-1.6l0,0
	c0.7-0.9,1.4-1.9,2-3c0,0-5.6-1.2-8.4-2.1c-0.9-0.3-1.5-0.5-1.5-0.7c-0.1-0.6,5-2.7,5-2.7s-4.3-2.1-6.1-0.6c0,0,1.1,0.9,0.2,1.7
	s-12,9.4-12,9.4S3.3,44.8,9,48.4z"/>
<path class="st1" d="M18.2,40.5l5.9,0.9c0.2-0.2,0.5-0.3,0.8-0.4c0.7,1,2,1.2,3,0.7c0.7-0.4,1.3-1,1.8-1.6l0,0
	c0.6-0.8,1.1-1.7,1.6-2.5c0,0-5.6-1.2-8.4-2.1L18.2,40.5z"/>
<path class="st6" d="M18.6,40.1l6.3,0.9c0.7,1,2,1.2,3,0.7c1.8-1,3.8-4.7,3.8-4.7s-5.6-1.2-8.4-2.1L18.6,40.1z"/>
<path class="st1" d="M136,133.6l-10.5,8c0,0,4.8,2.5,9.2,5.3c3.9-2.6,7.5-5,10.3-7.2C141.3,138.3,136,133.6,136,133.6z"/>
<path class="st1" d="M78.5,185.3c2.6-0.3,5.2-0.9,7.7-1.8c0,0,1.9-0.4,4.8-1.4c-0.1-1-0.1-2.1-0.2-3.4c-0.2-3.7-0.7-7.4-1.4-11
	l-10.6,1.9l-0.3,11.9C78.2,182.7,78.2,184.1,78.5,185.3z"/>
<path class="st6" d="M59.5,137c2.1,3.2,8,16.6,8,16.6c1.3,2.4,2.8,4.7,4.5,6.9c2.3,2.9,3.9,9.5,5.7,14.8s-0.5,4.3-0.3,7
	s10.3-0.8,10.3-0.8s20.4-4.5,26.7-17s31.2-23.8,36.3-30.9c5.1-7-1.4-4.1-1.2-7.9c0.2-3.8-2.6-7-2.6-7s-9.4-2.7-11-4.5s-9-6.5-9-6.5
	s-7.1-3.1-8-4.1s-9.3-4.4-11.9-5s-5.1-4.3-5.1-4.3s-1.6,0.2-3.9-2.1S85.7,88,85.7,88c-16.8,12.4-28.5,10.7-28.5,10.7L57,101
	C48.1,112.6,57.4,133.8,59.5,137z"/>
<path class="st1" d="M57,101c0,0,14.6,4.8,28.7-12.9c-16.8,12.3-28.5,10.6-28.5,10.6L57,101z"/>
<path class="st1" d="M82,109.2c0,0,19.5,28.2,20.8,29.2S83.1,108.9,82,109.2z"/>
<path class="st1" d="M73,107.1c0,0,13.5,21,13.3,23.8C86.3,130.9,73.2,110.7,73,107.1z"/>
<path class="st1" d="M65.1,112.8c0,0,2.5,11.8-1.3,18.4L65.1,112.8z"/>
<path class="st1" d="M59.9,113.5c0,0-0.2,10.2-1.3,12.3L59.9,113.5z"/>
<polygon class="st1" points="93.1,104.4 111,111.5 104.5,112.3 "/>
<path class="st1" d="M57.7,25.8c0.9,0.6,1.6,1.6,2.7,1.7c0.8,0,1.5-0.2,2.2-0.5c1.8-0.8,3.8-1.4,5.7-0.8c2.6,0.9,4.1,3.9,6.7,4.8
	c0.8,0.3,1.7,0.3,2.5,0.1c0.5-0.1,1-0.3,1.4-0.6c1-0.6,1.7-1.7,2-2.8c0.4-2.1-0.4-4.2-2-5.5c-1.6-1.3-3.5-2.2-5.6-2.5
	c-5.3-1.2-10.8-0.8-16.2-0.4c-0.4,0-0.9,0.1-1.3,0.3c-0.8,0.6-2.2,3.7-1.9,4.7C54.4,25.6,57.5,24.6,57.7,25.8z"/>
<path class="st3" d="M57.6,25.4c0.9,0.6,1.6,1.6,2.7,1.7c0.8,0,1.5-0.2,2.2-0.6c1.8-0.8,3.8-1.4,5.7-0.8c2.6,0.9,4.1,3.9,6.7,4.8
	c0.8,0.3,1.7,0.3,2.5,0.1c0.5-0.1,1-0.3,1.4-0.6c1-0.6,1.8-1.7,2.1-2.8c0.4-2.1-0.4-4.2-2.1-5.6c-1.6-1.3-3.5-2.2-5.6-2.5
	C68,18,62.6,18.4,57.2,18.8c-0.4,0-0.9,0.1-1.3,0.3c-0.8,0.6-2.2,3.7-1.9,4.7C54.4,25.3,57.5,24.2,57.6,25.4z"/>
<path class="st2" d="M127.2,33.7l1.7,6.9l2.2-1.4l12.1-7.3c0,0,9.2-0.3,9.9-7.7s-10.2-0.1-10.8,0.5s-1.9,1.6-1.9,1.6l-11.3,6.3
	L127.2,33.7z"/>
<path class="st1" d="M127.2,33.7l1.7,6.9l2.2-1.4c-0.5-3.1-1.3-6-2-6.7L127.2,33.7z"/>
<path class="st1" d="M67.4,79.2l2.5,14.5l14.6-3c-0.4-1.1-4.7-15.1-1.6-18.6c3.3-3.6,2-13.7,2-13.7s-5.7-6.5-6.8-8.1
	s-8.5-2.8-8.5-2.8c-0.3-0.7-0.5-1.4-0.5-2.1c-0.2,0.5-0.4,1-0.6,1.6c0,2.6,1.1,4.5,3.9,5.8c0.2,0.1,0.5,0.2,0.8,0.3
	c0.4,0.2,0.9,0.4,1.4,0.5l0.2,0.1c4.7,1.4,5.7,4.2,5.7,4.2c1.6,2.2,2.4,4.9,2.1,7.6C82.3,69.9,67.4,79.2,67.4,79.2z"/>
<path class="st6" d="M68.2,79.1l2.5,14.5l16.5-3.4c0,0-0.5-5.5-1.6-7.7s-0.9-10.9-0.9-10.9c7-7.5,3.3-13.7,3.3-13.7s20.6-3.3,20.9-4
	s7.2-4.3,7.2-4.3s7.5-1.9,8.5-3c0.4-0.4,0.8-0.8,1.2-1.1c0.1-0.1,0.3-0.2,0.4-0.3l0.5,4.8h0.2c1.2-0.1,2.3-0.6,3.2-1.3
	c1.7-1.3-0.5-15.6-2.1-16.1c-0.3-0.1-0.6-0.1-1,0c-1.3,0.4-2.5,1.1-3.5,1.9l-0.3,0.2l-0.1,0.1c0,0-9.3,3.6-11.2,5.3S95.7,44,95.7,44
	s-6.5,1.5-7.3,0.6s-10.8-2.4-11.6-1s-3.1,1.2-3.1,1.2c-1.6-1.9-2.8-1.1-3.4-0.1c-0.4,0.6-0.7,1.4-0.9,2.1c0,2.9,1.3,4.8,4.7,6.1
	c0.5,0.2,1.1,0.4,1.7,0.6c4.7,1.4,5.7,4.2,5.7,4.2c1.7,2.2,2.4,4.9,2.1,7.6C83.2,69.8,68.2,79.1,68.2,79.1z"/>
<path class="st1" d="M127.2,32.6c0.2,0,0.4,0,0.5,0.1c1.7,0.5,3.8,14.8,2.1,16.1c-0.9,0.6-1.8,1.1-2.9,1.2h-0.2l-0.5-4.8
	c-0.1,0.1-0.3,0.2-0.4,0.3v-0.2c0.9-3.7,0-7.6-2.4-10.6L127.2,32.6z"/>
<path class="st6" d="M126.1,45.2l0.5,4.8c1.3-0.1,2.5-0.6,3.5-1.4c1.7-1.3-0.5-15.6-2.1-16.1c-1.3-0.4-3.6,1.2-4.5,1.9
	C126.1,37.5,127,41.5,126.1,45.2z"/>
<path class="st6" d="M74.1,52.9l2.4-2.2l-6.2-6c-0.4,0.6-0.7,1.4-0.9,2.1C69.4,49.6,70.7,51.5,74.1,52.9z"/>
<path class="st1" d="M57.5,24.5c0.9,0.6,1.6,1.6,2.7,1.7c0.8,0,1.5-0.2,2.2-0.6c1.8-0.8,3.8-1.4,5.7-0.8c2.6,0.9,4.1,3.9,6.7,4.8
	c0.8,0.3,1.7,0.3,2.5,0.1c1.7-0.4,3.1-1.7,3.5-3.4c0.1-0.4,0.1-0.8,0.1-1.3c0.2,0.7,0.2,1.4,0,2.1c-0.3,1.2-1,2.2-2.1,2.8
	c-0.4,0.3-0.9,0.5-1.4,0.6c-0.8,0.2-1.7,0.1-2.5-0.1c-2.6-0.9-4.1-3.9-6.7-4.8c-1.9-0.6-3.9,0-5.7,0.8c-0.7,0.4-1.4,0.6-2.2,0.6
	c-1.1-0.1-1.8-1.1-2.7-1.7c-0.1-1.2-3.3-0.1-3.7-1.5c0-0.2,0-0.4,0-0.6C54.6,24.3,57.4,23.4,57.5,24.5z"/>
<path class="st1" d="M67.2,57.2c0,0-1.3,3.7,0.4,4.9c0,0-1.8-4.9-2.9-4.8"/>
<path class="st2" d="M148.7,21.4c0,0-8.5,7.3-2.3,8.5S148.7,21.4,148.7,21.4z"/>
</svg>
