<?xml version="1.0" encoding="utf-8"?>
<!-- Generator: Adobe Illustrator 23.0.2, SVG Export Plug-In . SVG Version: 6.00 Build 0)  -->
<svg version="1.1" id="bb2a0322-f60c-49c8-997e-d7c4b3c4ffc5"
	 xmlns="http://www.w3.org/2000/svg" xmlns:xlink="http://www.w3.org/1999/xlink" x="0px" y="0px" viewBox="0 0 517 477"
	 style="enable-background:new 0 0 517 477;" xml:space="preserve">
<style type="text/css">
	.st0{fill:#2F2E41;}
	.st1{fill:#9F616A;}
	.st2{fill:#E7685D;}
</style>
<title>taking selfie</title>
<ellipse transform="matrix(0.6651 -0.7468 0.7468 0.6651 80.8758 245.3813)" class="st0" cx="314" cy="32.5" rx="34" ry="20.5"/>
<circle class="st0" cx="378.5" cy="95.5" r="89"/>
<path class="st0" d="M118.4,56.3l-82.7,6.8c-6.7,0.6-12,5.9-12.5,12.7l-3.1,42.6c-0.5,7.5,5.1,14.1,12.7,14.6c0.3,0,0.7,0,1,0H71v2
	h15v-2h8v2h15v-2h8c7.3,0,13.3-5.7,13.7-13l2.5-49.4c0.4-7.5-5.4-14-13-14.4C119.6,56.2,119,56.3,118.4,56.3z"/>
<path class="st1" d="M171,191L54,136l-21,33c0,0,60.8,38.8,64,42c4.5,4.5,53,36,72,31S179,196,171,191z"/>
<polygon class="st0" points="251,443 236,477 391.3,477 380,441 "/>
<path class="st1" d="M346,167c0,0,6,33,0,37c-6,4,40,53,40,53l19-17l6-39c0,0-18-25-10-47S346,167,346,167z"/>
<circle class="st1" cx="364" cy="113" r="64"/>
<path class="st2" d="M381,234c0,0-25-38-39-41s-27-1-35,0s-35-9-51-2s0,89,0,89s-18,105-10,132s2,32-2,35s91,30,91,30h90
	c0,0,0-29,9-36s8-155,8-155l30-58c0,0-5-22-26-23s-39.7-12-39.7-12L392,234H381z"/>
<path class="st2" d="M265,196l-9-5c0,0-17,1-20,0s-41-13-56-6s-25-2-25-2s49,42-11,55c0,0,1,5,16,8s18,6,24,11c6,5,18,10,26,12
	s34,19,38,15s11-18,11-18L265,196z"/>
<path class="st2" d="M453,217l19,11c0,0,25,74,21,92s-8,15-2,27s12,13,8,24s-2,38-8,49s-35,46-60-13S453,217,453,217z"/>
<path class="st1" d="M489,370c0,0-14-28-17-30s-17-71-17-71s22-36,2-52c0,0,37-52,25-51s-36,39-36,39s-5.5-1.5-3.5-9.5
	S452,159,446,158s-18,42-18,42s-24.5,44.5-17,60c4.4,8.7,9.4,17.1,15,25l17,124C443,409,476,449,489,370z"/>
<ellipse class="st2" cx="112" cy="70" rx="11" ry="5"/>
<path class="st1" d="M45,169H31c0,0-31-10-31-33s9-70,37-69s2,63,2,63l17,6.9l0,21.1L45,169z"/>
<ellipse class="st0" cx="353.5" cy="70.5" rx="57" ry="29"/>
<ellipse class="st1" cx="430.5" cy="106.5" rx="5" ry="11"/>
<ellipse transform="matrix(0.8995 -0.4368 0.4368 0.8995 25.0125 205.8187)" class="st0" cx="460" cy="48.5" rx="20.5" ry="34"/>
</svg>
