<?xml version="1.0" encoding="utf-8"?>
<!-- Generator: Adobe Illustrator 23.0.2, SVG Export Plug-In . SVG Version: 6.00 Build 0)  -->
<svg version="1.1" id="bf12c7ca-cc15-4ca0-987a-6b3269e72dfc"
	 xmlns="http://www.w3.org/2000/svg" xmlns:xlink="http://www.w3.org/1999/xlink" x="0px" y="0px" viewBox="0 0 549.3 644.2"
	 style="enable-background:new 0 0 549.3 644.2;" xml:space="preserve">
<style type="text/css">
	.st0{fill:#3F3D56;}
	.st1{fill:#E7685D;}
	.st2{fill:#FFFFFF;}
	.st3{fill:#A0616A;}
	.st4{fill:#2F2E41;}
	.st5{opacity:0.1;enable-background:new    ;}
	.st6{fill:#575A89;}
</style>
<title>intense feeling</title>
<ellipse class="st0" cx="392.4" cy="625.5" rx="144.4" ry="18.7"/>
<polygon class="st1" points="0,227.3 253,155.5 290.7,288.2 272.4,293.4 286.4,342.5 223.4,307.4 37.7,360.1 "/>
<path class="st2" d="M153.4,286.2l-5.6-2.8c-20-10.1-33.1-16.5-36.5-28.3c-2.8-9.2,2.4-18.9,11.6-21.7c0.2,0,0.3-0.1,0.5-0.1
	c5.4-1.5,11.1-0.6,15.7,2.6c2.3-5.1,6.7-8.9,12-10.4c9.2-2.7,18.9,2.5,21.6,11.7c0,0.2,0.1,0.3,0.1,0.5c3.3,11.8-4.4,24.2-16.2,43.2
	L153.4,286.2z"/>
<path class="st3" d="M290.4,146.9c0,0-8.6,25.7-3.8,31.4s-28.5-17.1-28.5-17.1l18.1-20.9L290.4,146.9z"/>
<circle class="st4" cx="270.9" cy="104.2" r="42.7"/>
<polygon class="st3" points="436.8,435.8 414.9,452.9 402.6,432.9 424.4,417.7 "/>
<path class="st4" d="M405.9,564.5l5.7,27.6l16.2,21.9c0,0,43.7,13.3,14.3,20s-36.1-4.8-36.1-4.8L385,611.1v24.7h-13.3l-2.9-35.2
	c0,0-1.9-10.5,6.7-21.9l1.9-17.1L405.9,564.5z"/>
<path class="st3" d="M295.7,223.4l7.6,43.7c0,0,80.8-8.6,86.5,7.6s7.6,20.9,7.6,20.9l-16.2,5.7l-7.6-14.3c-4.7-1.7-9.8-1.3-14.3,1
	c-7.6,3.8-74.1,13.3-78.9,1s-18.1-58-18.1-58l20-16.2L295.7,223.4z"/>
<path class="st5" d="M295.7,223.4l7.6,43.7c0,0,80.8-8.6,86.5,7.6s7.6,20.9,7.6,20.9l-16.2,5.7l-7.6-14.3c-4.7-1.7-9.8-1.3-14.3,1
	c-7.6,3.8-74.1,13.3-78.9,1s-18.1-58-18.1-58l20-16.2L295.7,223.4z"/>
<path class="st4" d="M340.3,349.8l6.7,22.8l17.1,87.4c0,0,1.9,64.6,4.8,72.2s2.9,8.6,0,11.4s-8.6,12.4,0,18.1s39,12.4,39.9,5.7
	s1-17.1,0-21.9s2.9-78.9,2.9-78.9l-11.4-113.1l-39-18.1L340.3,349.8z"/>
<path class="st5" d="M340.3,349.8l6.7,22.8l17.1,87.4c0,0,1.9,64.6,4.8,72.2s2.9,8.6,0,11.4s-8.6,12.4,0,18.1s39,12.4,39.9,5.7
	s1-17.1,0-21.9s2.9-78.9,2.9-78.9l-11.4-113.1l-39-18.1L340.3,349.8z"/>
<path class="st4" d="M381.2,260.5l20.9,39.9c0,0,119.7,53.2,109.3,75.1c-10.5,21.9-68.4,62.7-68.4,62.7s-2.9,16.2-11.4,11.4
	s-29.5-29.5-27.6-32.3s8.6-9.5,11.4-8.6s36.1-24.7,36.1-24.7l-57-14.3c0,0-68.4-1.9-72.2-34.2s0-38,0-38l-4.8-10.5l39-23.8
	L381.2,260.5z"/>
<path class="st4" d="M410.6,418.2l-20,18.1c0,0-17.1-7.6-27.6-4.8s-28.5,4.8-28.5,4.8l2.9,16.2l24.2-4.5l-19.5,27.3
	c0,0,0,42.8,12.4,42.8s8.6-25.7,8.6-25.7l38-29.5c0,0,19-7.6,20.9-7.6S410.6,418.2,410.6,418.2z"/>
<circle class="st3" cx="286.6" cy="122.2" r="32.3"/>
<path class="st6" d="M254.8,147.4c0,0,15.2-3.8,20,0s5.7,12.4,12.4,13.3s12.4,1,13.3,1.9s22.8,27.6,22.8,27.6s13.3,7.6,16.2,18.1
	s31.4,45.6,35.2,49.4c3.8,3.8-24.7,22.8-34.2,29.5s-37.1,9.5-45.6-5.7S239.6,167.4,254.8,147.4z"/>
<path class="st3" d="M290.9,209.2l7.6,43.7c0,0,80.8-8.6,86.5,7.6s7.6,20.9,7.6,20.9l-16.2,5.7l-7.6-14.3c-4.7-1.7-9.8-1.3-14.3,1
	c-7.6,3.8-74.1,13.3-78.9,1s-18.1-58-18.1-58l20-16.2L290.9,209.2z"/>
<path class="st6" d="M272.8,151.4c0,0,22.9,48.3,21,61.6s-8.6,3.8-8.6,3.8s-8.6-13.3-12.4-5.7s-8.6,18.1-12.4,17.1
	s-24.7-71.3-13.3-77.9S272.8,151.4,272.8,151.4z"/>
<circle class="st4" cx="224.7" cy="48.1" r="42.7"/>
<path class="st4" d="M187.9,83.4c19.1,13.8,45.8,9.5,59.6-9.6c2.8-3.9,4.9-8.2,6.3-12.8c-2.9,23.4-24.3,39.9-47.7,37
	c-23.4-2.9-39.9-24.3-37-47.7c0.3-2.3,0.8-4.6,1.4-6.8C168.6,59,175.3,74.3,187.9,83.4z"/>
<circle class="st4" cx="259.6" cy="111.3" r="31.3"/>
<ellipse class="st4" cx="285.9" cy="99.6" rx="27.7" ry="21.7"/>
<ellipse class="st3" cx="287.1" cy="125.6" rx="6.2" ry="10.9"/>
<path class="st4" d="M371.9,286.7c0,0,16.8-9.7,19.9-7.2s4.5,10,4.5,10l-19.4,7.6l-5.7-10.5L371.9,286.7z"/>
</svg>
