<?xml version="1.0" encoding="utf-8"?>
<!-- Generator: Adobe Illustrator 23.0.2, SVG Export Plug-In . SVG Version: 6.00 Build 0)  -->
<svg version="1.1" id="f7ee2044-fccd-4254-8d0a-396acfe54447"
	 xmlns="http://www.w3.org/2000/svg" xmlns:xlink="http://www.w3.org/1999/xlink" x="0px" y="0px" viewBox="0 0 355 635.5"
	 style="enable-background:new 0 0 355 635.5;" xml:space="preserve">
<style type="text/css">
	.st0{fill:#3F3D56;}
	.st1{fill:#FBBEBE;}
	.st2{fill:#3C354C;}
	.st3{opacity:0.1;enable-background:new    ;}
	.st4{fill:#F2F2F2;}
	.st5{fill:#E7685D;}
</style>
<title>travelers</title>
<circle class="st0" cx="111.7" cy="90.1" r="57.1"/>
<circle class="st0" cx="293.1" cy="596.8" r="14.3"/>
<circle class="st0" cx="218.5" cy="596.8" r="14.3"/>
<rect x="234.3" y="252.4" class="st0" width="6.4" height="175.4"/>
<rect x="268.5" y="252.4" class="st0" width="6.4" height="175.4"/>
<path class="st0" d="M235.9,257.1l-1.6-4.8c0,0,17.5-20.6,42.1-4l-1.6,7.1h-6.3c0,0-10.3-8.6-27.8,1.2L235.9,257.1z"/>
<rect x="72.1" y="227.4" class="st1" width="57.1" height="73"/>
<rect x="151.4" y="206.7" class="st1" width="17.5" height="34.9"/>
<path class="st2" d="M79.6,582.5l-7.1,21.4c0,0-3.2,15.9,7.1,16.7s27-2.4,27-2.4s2.4-7.1,0-13.5s-9.5-23.8-9.5-23.8L79.6,582.5z"/>
<path class="st2" d="M133.6,583.3c0,0-11.1,27.8-2.4,32.5s20.6,0.8,30.2,4.8S197,615,197,615s3.2-8.7-14.3-11.1c0,0-19-14.3-19-17.5
	s-11.1-3.2-11.1-3.2H133.6z"/>
<path class="st0" d="M131.2,266.7c0,0-65.1,13.5-73,9.5s-15.9,54-15.9,54s-3.2,34.9,7.9,81.7s0,69.8,0,69.8s1.6,44.4,13.5,65.1
	s11.9,39.7,11.9,39.7s23,2.4,23.8-3.2c0,0-9.5-22.2-7.9-42.8s-4.8-60.3-4.8-60.3s10.3-50,8.7-69s5.6-59.5,9.5-52.4
	c4,7.1,14.3,42.1,14.3,49.2s4,54.8,6.3,57.9s1.6,12.7,0.8,17.5s-0.8,40.5,3.2,59.5s0.8,40.5,1.6,43.7s23.8,0.8,24.6-4.8
	c0,0,3.2-34.1,4.8-38.9s2.3-65.2,2.3-65.2s1.6-46.8,3.2-51.6s4-107.1-6.3-119s-6.3-42.1-6.3-42.1L131.2,266.7z"/>
<path class="st1" d="M77.7,128.4c-2.9,5.5-5.9,11.1-7.7,17.1s-2.5,12.5-0.8,18.6c1.2,3.8,3,7.4,5.1,10.7c1.7,3.2,3.9,6.1,6.5,8.6
	c6,5.5,14.7,6.6,22.8,7.4c1.4,0.2,2.8,0.2,4.2-0.1c1.1-0.3,2.1-0.9,3-1.6c3.5-3,5.2-7.6,6.5-12c3.1-10.5,5.3-21.3,6.6-32.1
	c0.3-1.7,0.3-3.5,0-5.2c-0.7-3-3.1-5.3-4.8-7.9c-2.1-3.1-3.3-6.7-3.4-10.4c-0.1-1.8,0-3.8-1.1-5.2c-0.8-0.8-1.7-1.3-2.7-1.7
	c-4.7-2-9.5-4-14.2-5.9c-2.9-1.2-8-4.3-11-2c-2.6,2-1.3,6.6-2.4,9.4C82.5,120.4,79.8,124.4,77.7,128.4z"/>
<path class="st3" d="M77.7,128.4c-2.9,5.5-5.9,11.1-7.7,17.1s-2.5,12.5-0.8,18.6c1.2,3.8,3,7.4,5.1,10.7c1.7,3.2,3.9,6.1,6.5,8.6
	c6,5.5,14.7,6.6,22.8,7.4c1.4,0.2,2.8,0.2,4.2-0.1c1.1-0.3,2.1-0.9,3-1.6c3.5-3,5.2-7.6,6.5-12c3.1-10.5,5.3-21.3,6.6-32.1
	c0.3-1.7,0.3-3.5,0-5.2c-0.7-3-3.1-5.3-4.8-7.9c-2.1-3.1-3.3-6.7-3.4-10.4c-0.1-1.8,0-3.8-1.1-5.2c-0.8-0.8-1.7-1.3-2.7-1.7
	c-4.7-2-9.5-4-14.2-5.9c-2.9-1.2-8-4.3-11-2c-2.6,2-1.3,6.6-2.4,9.4C82.5,120.4,79.8,124.4,77.7,128.4z"/>
<circle class="st1" cx="109" cy="102.4" r="27.8"/>
<path class="st4" d="M118.7,172.4c-5.3,1.9-10.7,3.5-16.3,3.7c-4.2,0-8.4-0.4-12.5-1.3c-8.4-1.7-16.7-4-24.8-7.1
	c-1.7,3.4-2.2,7.3-2.3,11.1c-0.4,11.5,1.9,22.9,2.7,34.4c1.1,14.6,0,29.5,3.8,43.6c0.2-2.4,1.2-4.7,2.7-6.5c1.3-1.4,2.8-2.5,4.5-3.3
	c7.6-3.9,16.3-5,24.6-3.1c4.8,1.1,9.9,3.3,14.5,1.4c2.7-1.1,4.7-3.6,6.2-6.1c2.6-4.6,4.4-9.5,5.4-14.7c3-13.2,3.4-26.9,3.8-40.5
	c0.1-3.6,1.7-14.4-1.3-17.1c-2.1-1.9-2.7,0.8-4.2,2.2C123.4,170.6,121.1,171.7,118.7,172.4z"/>
<path class="st5" d="M79.6,124.7c-1.8-1.5-4.6-1-6.6,0.2s-3.7,2.9-5.8,4c-5.7,3.1-13.5,0.8-18.9,4.5c-5.1,3.4-6,10.4-6.4,16.6
	c-1,15.6-1.9,31.3-5.6,46.5c-1,4-2.2,8.1-1.8,12.2c0.3,2.4,0.9,4.7,1.7,6.9l4.9,15.4c2.3,7.1,4.6,14.4,4.8,21.9
	c0.2,7.5-1.5,14.6-3.3,21.8c-3.5,14.1-5.7,28.4-6.7,42.9c-0.3,4.8-0.4,9.8,1.5,14.2c2,4.6,6.1,8,10.3,10.6s8.9,4.6,13.1,7.3
	c8.4,5.5,15.2,14.2,25,16.5c4.5,1,9.2,0.6,13.8-0.3c0,0-2.6-116.7-9.7-133.4s-13.5-88.9-13.5-91.3S79.6,124.7,79.6,124.7z"/>
<path class="st5" d="M118.2,128.6c0,0,37.5,0,43.1,19.8s-15.9,52.4-15.9,52.4s8.7,64.3,12.7,70.6s2.4,19,2.4,19
	c2.9,8.7,3.4,18,1.6,27c-3.2,14.3-15.1,39.7-15.1,39.7s-15.9,0-19.8,9.5s-4.8-41.3-4.8-41.3s-14.3-92.9-13.5-98.4s4.8-51.6,6.3-64.3
	S120.4,133.3,118.2,128.6z"/>
<path class="st5" d="M147,141.3c0,0,18.3,5.5,18.3,11.9s5.6,40.5,5.6,51.6s-2.4,12.7,0,16.7s-25.4,2.4-25.4,2.4l-5-45.2L147,141.3z"
	/>
<path class="st2" d="M232,416.6c0,0-21.4,0.8-24.6,25.4s0,138.9,0,138.9s24.6,18.2,54.8,15.9s78.6-11.1,78.6-11.1v-134
	c0-20-16.7-36.3-36.7-35.2c-0.5,0-1,0.1-1.4,0.1L232,416.6z"/>
<circle class="st0" cx="262.9" cy="600.8" r="14.3"/>
<ellipse transform="matrix(0.9239 -0.3827 0.3827 0.9239 -202.9121 172.71)" class="st0" cx="332.7" cy="596.4" rx="14.3" ry="14.3"/>
<polygon class="st0" points="138.3,178.6 102.6,204 124.8,206.3 155.8,180.1 "/>
<path class="st1" d="M166.1,216.7c0,0,8.7,27-3.2,34.9c-11.9,7.9-31.8-27.8-31.8-27.8s-21.4-25.4-7.1-31s20.1,18.6,20.1,18.6
	l18.7,16.3L166.1,216.7z"/>
<ellipse class="st0" cx="111.7" cy="81.7" rx="31.7" ry="20.2"/>
<circle class="st0" cx="117.3" cy="32.9" r="23"/>
<path class="st1" d="M52.5,288.9c-6.5-4.7-14.7-39.8-14.7-39.8l-3.4-30l-22.2-7.2c0,0-1.1,34.5,2.4,42.2c3.5,7.7,14.1,26.1,16,32.2
	c1.9,6.1,14.5,44.8,20,40.7C56.1,322.9,59.1,293.6,52.5,288.9z"/>
<path class="st5" d="M52.3,133.5c0,0-23.7,1-25.1,7.7c-1.4,6.6-15.9,40.9-18.4,52.5c-2.5,11.6,0.1,13.9-3.7,17.5s30.7,9.1,30.7,9.1
	l16.3-46L52.3,133.5z"/>
</svg>
