<svg xmlns="http://www.w3.org/2000/svg" viewBox="0 0 66.11 60.68"><defs><style>.cls-1{fill:#e7685d;}</style></defs><title>heart</title><g id="Layer_2" data-name="Layer 2"><g id="Layer_1-2" data-name="Layer 1"><path class="cls-1" d="M65.33,23.47c.09-.35.18-.71.26-1.06a16.94,16.94,0,0,0,.35-1.91s0-.06,0-.09c0-.29.06-.57.08-.87,0-.47.07-.95.07-1.42A18.19,18.19,0,0,0,33,7.78,18.18,18.18,0,0,0,0,18.37H0a18.12,18.12,0,0,0,1.06,6c3.48,11.14,15.19,23.39,31.82,36.3C50.45,47,62.24,34.49,65.3,23.55Z"/></g></g></svg>