<svg xmlns="http://www.w3.org/2000/svg" viewBox="0 0 64.08 59.93"><defs><style>.cls-1{fill:#e7685d;}.cls-2{fill:none;stroke:#e7685d;stroke-linecap:round;stroke-linejoin:round;stroke-width:6px;}</style></defs><title>home</title><g id="Layer_2" data-name="Layer 2"><g id="Layer_1-2" data-name="Layer 1"><path class="cls-1" d="M10.41,32.65A5.82,5.82,0,0,0,8.87,36.3V57.78A2.15,2.15,0,0,0,11,59.93H22.56a2.16,2.16,0,0,0,2.16-2.15V41.21A2.18,2.18,0,0,1,26.87,39l3.49,0c1.18,0,3.12,0,4.3,0l3.49,0a2.18,2.18,0,0,1,2.15,2.17V57.78a2.16,2.16,0,0,0,2.15,2.15H54a2.16,2.16,0,0,0,2.15-2.15V36.3a5.82,5.82,0,0,0-1.54-3.65L34.05,12.73a2.25,2.25,0,0,0-3.09,0Z"/><polyline class="cls-2" points="3 29.41 32.18 3 61.08 30.46"/></g></g></svg>