<svg xmlns="http://www.w3.org/2000/svg" viewBox="0 0 55.04 54.11"><defs><style>.cls-1{fill:none;stroke:#fff;stroke-linecap:round;stroke-miterlimit:10;stroke-width:6px;}</style></defs><title>Asset 11</title><g id="Layer_2" data-name="Layer 2"><g id="Layer_1-2" data-name="Layer 1"><path class="cls-1" d="M26.57,15.24A27.87,27.87,0,0,1,30,10.65C36.4,3.49,45.19.89,49.59,4.85s2.72,13-3.73,20.14-15.24,9.75-19.64,5.79A7.12,7.12,0,0,1,25,29.32"/><path class="cls-1" d="M28.47,38.87a27.87,27.87,0,0,1-3.38,4.59c-6.45,7.17-15.24,9.76-19.64,5.8s-2.72-13,3.73-20.13,15.24-9.76,19.64-5.8A7.12,7.12,0,0,1,30,24.79"/></g></g></svg>