<?xml version="1.0" encoding="utf-8"?>
<!-- Generator: Adobe Illustrator 23.0.2, SVG Export Plug-In . SVG Version: 6.00 Build 0)  -->
<svg version="1.1" id="d6af144a-e925-4ddf-847c-b38e3205da29"
	 xmlns="http://www.w3.org/2000/svg" xmlns:xlink="http://www.w3.org/1999/xlink" x="0px" y="0px" viewBox="0 0 1084.7 452.8"
	 style="enable-background:new 0 0 1084.7 452.8;" xml:space="preserve">
<style type="text/css">
	.st0{opacity:0.23;fill:#2A4977;enable-background:new    ;}
	.st1{display:none;}
	.st2{display:inline;opacity:0.1;enable-background:new    ;}
	.st3{display:inline;fill:none;stroke:#535461;stroke-width:2;stroke-miterlimit:10;}
	.st4{display:inline;fill:#6C63FF;}
	.st5{fill:#684C52;}
	.st6{fill:#865A61;}
	.st7{fill:url(#SVGID_1_);}
	.st8{fill:#4C495A;}
	.st9{opacity:0.1;enable-background:new    ;}
	.st10{fill:#5F5D7E;}
	.st11{fill:#FDC2CC;}
	.st12{fill:#6C63FF;}
	.st13{fill:#DFE6F5;}
	.st14{fill:#53526B;}
	.st15{fill:#FFFFFF;}
	.st16{opacity:0.1;}
	.st17{fill:#3F3D56;}
	.st18{fill:#F2F2F2;}
	.st19{fill:#D0CDE1;}
	.st20{fill:#9F616A;}
	.st21{opacity:0.1;fill:#FFFFFF;enable-background:new    ;}
	.st22{fill:#E6E4F4;}
</style>
<title>eating_together</title>
<path class="st0" d="M619.9,16.6C547.4,30.1,468.6,30.7,395.5,18C291.8,0.1,156.4-4.5,106.3,77.9c-85.6,140.8,89.5,191,89.5,191
	s122.3,13.2,190,37c96.2,33.8,214,45.1,324.9,29.3c71-10.1,131.7-26.8,149.1-54c48.6-76.1,17.7-121.9,105.8-141.9s39-94.4-23.5-96.1
	s-210,15.6-255.6-18.7C670.2,12.2,645.3,11.9,619.9,16.6z"/>
<g class="st1">
	<ellipse class="st2" cx="879.2" cy="422.6" rx="45" ry="16"/>
	<path class="st3" d="M877.4,424.9c0,0,12-40.8-2.3-70.9c-6.1-12.6-7.9-26.8-5.2-40.5c1.3-6.5,3.2-12.9,5.7-19"/>
	<path class="st4" d="M866.8,275.5c0,5,9.1,19.5,9.1,19.5s9.1-14.5,9.1-19.5s-4.1-9.1-9.1-9.1S866.8,270.5,866.8,275.5L866.8,275.5z
		"/>
	<path class="st4" d="M851.8,303.3c2.7,4.2,18.2,11.5,18.2,11.5s-0.3-17.1-3-21.3c-2.7-4.2-8.3-5.4-12.5-2.7
		C850.3,293.4,849.1,299.1,851.8,303.3L851.8,303.3z"/>
	<path class="st4" d="M852.5,350.6c4.5,2.2,21.5,0.7,21.5,0.7s-8.9-14.6-13.3-16.9c-4.5-2.3-9.9-0.5-12.2,4S848,348.4,852.5,350.6
		L852.5,350.6z"/>
	<path class="st4" d="M861,386.4c4,3,21.1,4.3,21.1,4.3s-6.3-15.9-10.3-18.9s-9.7-2.1-12.7,1.9C856.2,377.7,857,383.4,861,386.4
		L861,386.4z"/>
	<path class="st4" d="M889.1,315.7c-3.6,3.5-20.3,7.1-20.3,7.1s4.1-16.6,7.7-20.1c3.6-3.5,9.3-3.4,12.8,0.2S892.6,312.2,889.1,315.7
		z"/>
	<path class="st4" d="M898.5,357.6c-4.5,2.2-21.5,0.7-21.5,0.7s8.9-14.6,13.3-16.8c4.5-2.3,9.9-0.5,12.2,4S903,355.4,898.5,357.6
		L898.5,357.6z"/>
	<path class="st4" d="M902.2,399.6c-4,3-21.1,4.3-21.1,4.3s6.3-15.9,10.3-18.9s9.7-2.1,12.7,1.9C907,391,906.2,396.6,902.2,399.6z"
		/>
</g>
<g class="st1">
	<ellipse class="st2" cx="152.3" cy="356.5" rx="45" ry="16"/>
	<path class="st3" d="M152.3,356.6c0,0,25.7-87.1-4.8-151.3c-12.8-26.9-17-57.1-11.1-86.4c2.8-13.9,6.9-27.4,12.2-40.5"/>
	<path class="st4" d="M129.6,37.8c0,10.7,19.3,41.7,19.3,41.7s19.3-31,19.3-41.7s-8.6-19.3-19.3-19.4
		C138.2,18.3,129.6,27.1,129.6,37.8L129.6,37.8L129.6,37.8z"/>
	<path class="st4" d="M97.6,97c5.8,9,38.9,24.5,38.9,24.5s-0.6-36.6-6.4-45.5c-6-8.8-18-11.1-26.9-5.1C94.7,76.7,92.2,88.2,97.6,97
		L97.6,97z"/>
	<path class="st4" d="M99,198.1c9.5,4.8,45.9,1.5,45.9,1.5s-19-31.2-28.5-36s-21.2-1-26,8.6C85.7,181.7,89.5,193.3,99,198.1
		L99,198.1L99,198.1z"/>
	<path class="st4" d="M117.3,274.4c8.6,6.3,45,9.2,45,9.2s-13.4-34-22-40.3c-8.6-6.4-20.7-4.5-27,4S108.7,268,117.3,274.4
		L117.3,274.4z"/>
	<path class="st4" d="M177.1,123.5c-7.7,7.4-43.4,15.1-43.4,15.1s8.7-35.5,16.4-42.9c7.7-7.5,19.9-7.3,27.4,0.4
		S184.8,116,177.1,123.5L177.1,123.5L177.1,123.5z"/>
	<path class="st4" d="M197.4,213c-9.5,4.8-45.9,1.5-45.9,1.5s19-31.2,28.5-36s21.2-1,26,8.6C210.8,196.7,206.9,208.2,197.4,213
		L197.4,213L197.4,213z"/>
	<path class="st4" d="M205.1,302.6c-8.6,6.3-45,9.2-45,9.2s13.4-34,22-40.3c8.6-6.4,20.7-4.5,27,4S213.7,296.3,205.1,302.6
		L205.1,302.6z"/>
</g>
<g>
	<path class="st5" d="M266.5,114.7c0,0,2.9-3.5,2.4-7.3c-0.4-3.9-2.1-5.1-2.1-5.1s1-0.6,1.1-5.5c0.1-5-0.7-7.3-0.7-7.3l-34.4,0.2
		c0,0-3,3.1-2.6,7.5c0.4,4.4,1.9,6.8,1.9,6.8s-1.6,5.5-0.7,8.1s2.7,4.6,2.7,4.6L266.5,114.7z"/>
	<path class="st6" d="M266.1,114.5c0,0,2.8-3.5,2.4-7.3c-0.4-3.9-2.1-5.1-2.1-5.1s1-0.6,1.1-5.5s-0.7-7.3-0.7-7.3l-33.3,0.2
		c0,0-2.9,3.1-2.5,7.5c0.4,4.4,1.8,6.8,1.8,6.8s-1.5,5.5-0.7,8.1c0.8,2.6,2.6,4.6,2.6,4.6L266.1,114.5z"/>
	
		<linearGradient id="SVGID_1_" gradientUnits="userSpaceOnUse" x1="408.2232" y1="-90.8875" x2="408.2232" y2="310.0782" gradientTransform="matrix(1 0 0 -1 -154.9654 348.3641)">
		<stop  offset="0" style="stop-color:#808080;stop-opacity:0.25"/>
		<stop  offset="0.5351" style="stop-color:#808080;stop-opacity:0.12"/>
		<stop  offset="1" style="stop-color:#808080;stop-opacity:0.1"/>
	</linearGradient>
	<path class="st7" d="M315.7,170.5c-0.9-1.7-5.6-12.4-5.6-12.4l-7.9-20.4c0,0-5.6-8.6-5.6-10.2s-10.2-8-10.2-8s-8.3-2.5-8.9-2.7
		c-0.6-0.2-10.4-3.5-10.4-3.5s-3.9-5.1-4.4-3.7l0,0c0,0,0-0.1-0.1-0.1c-0.8-1.5-1.3-3.1-1.5-4.7c0-0.1,0-0.3-0.1-0.5
		c5.2-3.5,8.3-9.3,8.3-15.5c0-0.8-0.1-1.6-0.2-2.4c0.1,0,0.1-0.1,0.2-0.1c0.2-0.1,0.1-0.1,0-0.2c0,0,0.1,0,0.1-0.1
		c0.2-0.1,0.1-0.2-0.1-0.2l0,0c0.3-0.1-0.1-0.2-0.4-0.3c0-0.1,0-0.2,0-0.3c0.1-0.2,0.1-0.3,0.1-0.5c0,0,0,0,0.1,0
		c0.1-0.3,0.1-0.6,0-1c0,0.1,0,0.1-0.1,0.2c0-0.6-0.2-1.1-0.7-1.5c0,0,0,0,0,0l0.5-5.5c8-0.4,9.3-13.9,7.5-14.7
		c-1.8-0.8,0-2.4,0-5.6c0-3.3-6-6.9-6-6.9s-2.5,1.3-6.4-5c-3.9-6.3-18.3-7.3-19.3-5.6c-1,1.6-7.4,3.8-15.8,6.1s-6.8,12.3-5.4,14.4
		c1.1,1.8,1.8,3.8,2,5.9c0,1.3,2.7,6.5,2.7,6.5c-0.8,1.8,1.3,11.8,1.9,14.6c0,0.1,0,0.2,0,0.3c0,0,0,0,0,0c0,0-0.1,0.1-0.1,0.1
		c-0.1,0.3-0.2,0.6-0.1,0.9c0,0.3,0,0.7,0.1,1c0.1,5.4,2.5,10.5,6.7,14c0,0.2,0,0.3,0,0.5c0.1,2.3,0.2,5.1,0.1,7.7
		c0,0.1,0,0.3,0,0.4c-0.9,0.2-1.7,0.8-2.1,1.7c-0.8,1.5-5.4,3.9-5.4,3.9s-8,0.4-8.8,1.8c-0.8,1.5-12.3,6.4-12.3,6.4
		s-6.1,3.6-5.2,7.6c0.5,2.1-0.8,5.4-2.2,8.1c-2.8-1.1-5.8-1.8-8.8-2.2l6.5,6.2c-0.1,0.2-0.2,0.3-0.2,0.3l-3.7,13
		c0,0-1.3,4.6-2.5,5.7c-1.3,1.1,1.1,11.2,1.1,11.2s-1.4,7.1-2.5,9c-1.1,1.8,1.8,6.4,1.8,6.4l5.8,13.3l15.5,3.9c0,0,1,0.2,2.7,0.6
		c-0.1,0.3-0.1,0.6-0.2,0.9c-0.7,4.2-1.7,8.1-2.9,9.2c-2.9,2.6-2.8,14.2-2.8,14.2l0.1,16.4c0,0,1,20.2,0.5,20.9
		c-0.3,0.5,0.3,1.2,2,1.9c0,0.3-0.1,0.6-0.1,0.9c-0.5,3.3-0.7,7.2,0.4,8.9c0.5,0.9,0.7,1.9,0.8,3c0,1.6,2.4,4.9,2.4,4.9
		s-1.9,13.7,1.3,18.3c3.2,4.7,5.8,13.2,4.3,15.1c0,0-2.7,5.8-1.4,8.4c1.3,2.6,0,4.1-1.7,4.7c-1.7,0.6-1.5,5.7-1.5,5.7l3,24
		c0,0,1.7,4.9,0.3,6.6c-1.4,1.7-1.4,10.3,0.8,13.3c2.2,3-3.1,8.4-3.1,8.4s-3.2,4.6,1.9,6c0,0,1,0.2-0.9,2.2c-1.9,2-2.3,4.4-1,5.3
		c0.3,0.2,0.5,0.3,0.8,0.4c0,0.3-0.1,0.6-0.2,0.9c-0.5,2.6-1.4,5.9-3.1,7.5c-3.2,3.3-6,7.1-8.3,11.1c-1.7,3.3-2.5,6.4-0.6,7.9
		c4.6,3.4,10.4,4.6,13.9,3.2s8.3-5.5,8.3-5.5l1.1-4.8c0,0-0.8-3,3.1-4.1c3.8-1.1,7.4-5,7.4-5v-6.4c0.9-0.5,1.8-1.1,2.7-1.7
		c0,0,1.8-6.3,0-8.4c-1.8-2.1-2.4-2.8-0.1-4.2c2.3-1.4,2.6-4.3,0.9-6.9c-1.7-2.6-4.4-6.4-2.1-11.8s3.1-22,3.1-22s-1.1-11.3,0-13.9
		s-1.2-7.8-1.2-7.8s0.8-6.4,2.2-9.4c1.4-3,2.5-18.6,2.5-18.6s2.5-6.6,2.5-11c0-4.3-3.9-14.6,1.9-17.4c0,0,2.5,2.2,1.5,11.1
		c0,0,2.9,10.3,2.9,13.5c0,3.2,2.2,14.8,2.2,14.8s0.3,3.7,1.1,5s0,5,0,5s3.3,3.1,2.4,5c-0.9,2,0.2,6.4,0.2,6.4l-0.8,27.6
		c0,0-2.3,11.8,3.1,19c0,0-1.9,10.5-3.1,11.2c-1.1,0.7,4.2,7.1,4.2,7.1s-1.5,4.1,1.5,4.3v6.9c1,1.8,2.5,3.4,4.2,4.7
		c2.8,2,1.7,8.7,1.7,8.7s3.6,8.6,13,6.8c9.4-1.8,10.7-2.7,10.2-5.8c-0.2-1.1-0.6-3.1-1.2-5.4c-1-4-2.6-8.7-4.4-11.1
		c-2.9-3.7-5.3-11.5-5.3-11.5s-1.1-2.6,0-3.4c1.1-0.9,0.6-2.5,0.6-2.5s1.1-3.2,0.1-5.2c-1-2,1.9-6,1.9-6l-0.9-19l0.9-27.6
		c0,0-3.9-4.6-2.3-7.3c1.7-2.7-1.9-6.5-1.9-6.5s-0.4-0.1,0.6-3.2c0.6-1.8,0.5-3.8-0.3-5.5c0,0-2.2-7.6,1.7-13.4
		c0,0,1.7-7.6,2.2-11.6c0.4-2.7,2.5-13,3.9-18.9c0.1-0.3,0.1-0.7,0.2-1c1.9,0.1,3.3,0.2,3.3,0.2s-2.9-20.3,0-24.5
		s-2.3-36.2-2.3-36.2s-1.2-5.6-2-11.3c0-0.3-0.1-0.6-0.1-1c2.4-0.2,4.7-0.2,7.1-0.2c6.1,0.4,12.1-2,12.2-4.3
		c0.1-2.3,3.4-11.6,3.9-13.7C316.2,179.4,316.6,172.2,315.7,170.5z"/>
	<path class="st8" d="M241.5,407.9v11.4c0,0-3.4,3.9-7.1,5c-3.7,1.1-2.9,4-2.9,4l-1.1,4.8c0,0-4.7,4.2-8,5.5s-8.9,0.2-13.4-3.2
		c-1.9-1.4-1.1-4.5,0.6-7.8c2.2-4,4.9-7.7,8-11c1.6-1.6,2.5-4.9,3-7.5c0.3-1.9,0.5-3.4,0.5-3.4L241.5,407.9z"/>
	<path class="st9" d="M241.5,416.4v2.9c0,0-3.4,3.9-7.1,5c-3.7,1.1-2.9,4-2.9,4l-1.1,4.8c0,0-4.7,4.2-8,5.5s-8.9,0.2-13.4-3.2
		c-1.9-1.4-1.1-4.5,0.6-7.8c-0.1,3.5,0.9,7.3,5.9,7.2c5.4-0.2,10.6-2.1,14.8-5.4c0,0-0.1-8.1,5.5-9.9
		C237.9,418.9,239.8,417.8,241.5,416.4z"/>
	<path class="st8" d="M286.3,437.1c-9.1,1.8-12.5-6.7-12.5-6.7s1.1-6.7-1.6-8.7c-1.7-1.2-3-2.8-4-4.7v-11.3l11-7.8l6,5.3l0.4,0.4
		c0,0,2.3,7.7,5.1,11.4c1.8,2.3,3.3,7.1,4.3,11c0.6,2.3,1,4.3,1.1,5.4C296.6,434.4,295.4,435.3,286.3,437.1z"/>
	<path class="st9" d="M286.3,437.1c-9.1,1.8-12.5-6.7-12.5-6.7s1.1-6.7-1.6-8.7c-1.7-1.2-3-2.8-4-4.7v-4.4c1.7,1.8,5,5.4,5.8,6.9
		c1,2.1,1.1,9.7,5.6,11c4.5,1.3,13.4,2.6,14.1-0.9c0.3-1.3,0.7-2.6,1.3-3.8c0.6,2.3,1,4.3,1.1,5.4
		C296.6,434.4,295.4,435.3,286.3,437.1z"/>
	<path class="st9" d="M221,405.7l20.5,2.2v6c-2.3,1.4-5.6,2.8-7.5,1.3c-2.7-2.2-10.9-5-13.4-6.2C220.9,407.2,221,405.7,221,405.7z"
		/>
	<path class="st9" d="M285.6,404.5c-2.8-1-7.8,3.3-14.5,6c-0.9,0.4-1.9,0.7-2.9,0.7v-5.4l11-7.8l6,5.3
		C285.3,403.6,285.4,404.1,285.6,404.5z"/>
	<path class="st10" d="M292.8,269.6c0,0-0.4,1.8-0.9,4.4c-1.3,6-3.4,16.1-3.7,18.9c-0.5,3.9-2.1,11.5-2.1,11.5
		c-3.7,5.8-1.6,13.4-1.6,13.4c0.7,1.7,0.8,3.7,0.2,5.5c-1,3.1-0.6,3.2-0.6,3.2s3.4,3.8,1.8,6.5c-1.6,2.7,2.2,7.2,2.2,7.2l-0.9,27.4
		l0.9,18.9c0,0-2.8,4-1.9,6c1,2-0.1,5.1-0.1,5.1s0.5,1.6-0.6,2.5c-1.1,0.9,0,3.4,0,3.4c-2.8-1-7.8,3.3-14.5,6
		c-6.6,2.7-4.4-3.7-4.4-3.7s-5.1-6.4-4-7.1s2.9-11.2,2.9-11.2c-5.1-7.1-2.9-18.9-2.9-18.9l0.8-27.4c0,0-1-4.4-0.1-6.4
		c0.9-2-2.3-5-2.3-5s0.9-3.7,0-5s-1.1-5-1.1-5s-2.1-11.5-2.1-14.7c0-3.2-2.8-13.5-2.8-13.5c1-8.8-1.5-11-1.5-11
		c-5.6,2.7-1.8,13-1.8,17.3c0,4.3-2.5,10.9-2.5,10.9s-1.1,15.6-2.5,18.5c-1.3,2.9-2.1,9.3-2.1,9.3s2.2,5.1,1.2,7.7s0,13.8,0,13.8
		s-0.8,16.5-3,21.9c-2.2,5.4,0.4,9.2,2,11.8c1.6,2.6,1.3,5.5-0.9,6.9c-2.2,1.3-1.6,2.1,0.1,4.2c1.7,2.1,0,8.3,0,8.3s-7,5.5-10,3.1
		c-3.1-2.5-12.9-5.6-14.1-6.5s-0.9-3.3,1-5.3c1.8-2,0.9-2.2,0.9-2.2c-4.9-1.5-1.8-6-1.8-6s5-5.4,2.9-8.3c-2.1-2.9-2.1-11.5-0.7-13.2
		c1.3-1.7-0.2-6.6-0.2-6.6l-2.9-23.9c0,0-0.1-5,1.5-5.6s2.8-2.1,1.6-4.7c-1.2-2.6,1.3-8.3,1.3-8.3c1.5-2-1.1-10.4-4.2-15.1
		c-3.1-4.7-1.2-18.3-1.2-18.3s-2.3-3.3-2.3-4.9c0-1-0.3-2-0.7-2.9c-1.1-1.7-0.9-5.5-0.4-8.8c0.4-3.2,1.1-6,1.1-6L292.8,269.6z"/>
	<path class="st11" d="M268.8,130.8l-24.1,5.6c0,0-11.9-10-8.9-15.4c1-1.9,1.5-5,1.6-8.4c0.1-2.6,0.1-5.3-0.1-7.7
		c-0.2-3.3-0.4-5.8-0.4-5.8s24.8-14,23.9,0c-0.2,2.3-0.1,4.7,0.2,7c0.2,1.6,0.7,3.2,1.4,4.7c1.3,2.4,3,2.4,3,2.4L268.8,130.8z"/>
	<path class="st9" d="M260.9,106.1c-7.2,5.2-17,4.7-23.6-1.2c-0.2-3.3-0.4-5.8-0.4-5.8s24.8-14,23.9,0
		C260.6,101.5,260.6,103.8,260.9,106.1z"/>
	<circle class="st11" cx="249.8" cy="90.2" r="19"/>
	<path class="st9" d="M268.8,130.8l-24.1,5.6c0,0-11.9-10-8.9-15.4c1-1.9,1.5-5,1.6-8.4c0.5,2.9,2.1,5.5,4.4,7.4
		c5.5,3.7,4.7,8.2,4.7,8.2l9.9-0.4c-0.6-4,3.1-6.2,4.3-6.7s0.6-2.7,0.6-2.7l1.1-7.5c1.3,2.4,3,2.4,3,2.4L268.8,130.8z"/>
	<path class="st9" d="M292.8,269.6c0,0-0.4,1.8-0.9,4.4c-2.7-0.1-6.2-0.2-7.8,0.1c-2.7,0.6-13.5,0.9-13.5,0.9l-26.7,0.9v-0.8
		c-3.1,0-6.1,0.2-9.2,0.6c-4.5,0.6-11.6-0.2-16.2-1c-1.4-0.2-2.8-0.6-4.1-1.1c0.4-3.2,1.1-6,1.1-6L292.8,269.6z"/>
	<path class="st12" d="M290.7,191.8c-0.4,2.3-0.1,6.1,0.4,9.8c0.7,5.7,1.9,11.2,1.9,11.2s5,31.9,2.2,36c-2.8,4.2,0,24.4,0,24.4
		s-8.5-0.7-11.2-0.1c-2.7,0.6-13.5,0.9-13.5,0.9l-26.7,0.9v-0.8c-3.1,0-6.1,0.2-9.2,0.6c-4.5,0.6-11.6-0.2-16.2-1
		c-4.5-0.7-6.4-2.2-5.9-2.9s-0.5-20.8-0.5-20.8l-0.1-16.3c0,0-0.1-11.5,2.7-14.1c1.2-1,2.1-4.9,2.8-9.1c1-6.1,1.6-12.9,1.6-12.9
		l-18.6-49.9l-0.4-1c0,0,5.4-8.3,4.5-12.4c-0.9-4,5-7.6,5-7.6s11.2-4.9,11.9-6.4c0.7-1.5,8.5-1.8,8.5-1.8s4.4-2.3,5.2-3.8
		c0.4-0.9,1.1-1.5,2.1-1.7c0.5,2.9,2.1,5.6,4.4,7.5c5.5,3.7,4.7,8.2,4.7,8.2l9.9-0.4c-0.6-4,3.1-6.2,4.3-6.7s0.6-2.7,0.6-2.7
		l1.1-7.9c0.5-1.3,4.2,3.7,4.2,3.7s9.4,3.2,10,3.5c0.6,0.2,8.6,2.7,8.6,2.7s9.8,6.4,9.8,8c0,1.6,5.4,10.2,5.4,10.2s-0.1,0.3-0.2,1
		C299,146.7,291.6,186.5,290.7,191.8z"/>
	<path class="st11" d="M251.5,171.9c0,0-21.2-5.6-23.3-7c-2.1-1.3-14.3,6.5,0.6,17.2c0,0,18.3,3.8,23.2,0
		C256.9,178.3,251.5,171.9,251.5,171.9z"/>
	<path class="st9" d="M297.4,138.4l2.6,0.1l7.6,20.3c0,0,4.5,10.7,5.4,12.4c0.9,1.7,0.5,8.8,0,10.9c-0.5,2.1-3.7,11.3-3.8,13.6
		c-0.1,2.3-5.9,4.7-11.8,4.3c-5.9-0.4-19.6,1.5-19.6,1.5s-14.7-1.5-23.6,3.1c0,0-5.8-11.9-5.1-34.1c0,0,10.2-0.6,12.7,0.4
		c2.6,1,15.1,3.8,16.7,2.3c1.6-1.5,8.8,2.7,8.8,2.7c0.7-1.6,0.7-3.5,0-5.1c-1.2-2.9-3.3-12.1-0.6-15.1
		C289.3,152.7,297.4,138.4,297.4,138.4z"/>
	<path class="st9" d="M291.1,201.6c-6.1,0.4-12.9,1.3-12.9,1.3s-14.7-1.5-23.6,3.1c0,0-5.8-11.9-5.1-34.1c0,0,10.2-0.6,12.7,0.4
		c2.6,1,15.1,3.8,16.7,2.3c1.6-1.5,8.8,2.7,8.8,2.7c0.7-1.6,0.7-3.5,0-5.1c-1.2-2.9-3.3-12.1-0.6-15.1c2.7-2.9,10.8-17.3,10.8-17.3
		l2.4,0.1c-1.2,6.8-8.6,46.6-9.5,51.8C290.4,194.1,290.6,197.9,291.1,201.6z"/>
	<path class="st12" d="M297.9,138.9l2.6,0.1l7.6,20.3c0,0,4.5,10.7,5.4,12.4c0.9,1.7,0.5,8.8,0,10.9c-0.5,2.1-3.7,11.3-3.8,13.6
		c-0.1,2.3-5.9,4.7-11.8,4.3c-5.9-0.4-19.6,1.5-19.6,1.5s-14.7-1.5-23.6,3.1c0,0-5.8-11.9-5.1-34.1c0,0,10.2-0.6,12.7,0.4
		c2.6,1,15.1,3.8,16.7,2.3c1.6-1.5,8.8,2.7,8.8,2.7c0.7-1.6,0.7-3.5,0-5.1c-1.2-2.9-3.3-12.1-0.6-15.1
		C289.8,153.2,297.9,138.9,297.9,138.9z"/>
	
		<rect x="265.8" y="169.3" transform="matrix(0.5264 -0.8502 0.8502 0.5264 -11.8823 320.7755)" class="st13" width="32.4" height="3.6"/>
	
		<ellipse transform="matrix(0.5264 -0.8502 0.8502 0.5264 11.4009 321.8522)" class="st13" cx="294.6" cy="150.7" rx="10.4" ry="7.3"/>
	
		<ellipse transform="matrix(0.5264 -0.8502 0.8502 0.5264 11.4009 321.8522)" class="st9" cx="294.6" cy="150.7" rx="7.4" ry="5.2"/>
	
		<rect x="260" y="188.5" transform="matrix(0.5264 -0.8502 0.8502 0.5264 -33.9068 319.757)" class="st14" width="20.1" height="3.6"/>
	<path class="st11" d="M245.3,199.1l7.5-2.1c0,0,36.9,1,24.5-14.2c0,0-6.5-6.2-20.1-1.2c-13.6,5-17.4,5.6-17.4,5.6L245.3,199.1z"/>
	<circle class="st9" cx="239.8" cy="133.6" r="1.5"/>
	<circle class="st9" cx="265" cy="132.7" r="1.5"/>
	<circle class="st15" cx="239.8" cy="133.1" r="1.5"/>
	<circle class="st9" cx="241.9" cy="153.9" r="1.5"/>
	<circle class="st9" cx="265.7" cy="152.5" r="1.5"/>
	<circle class="st15" cx="241.9" cy="153.4" r="1.5"/>
	<circle class="st9" cx="265.1" cy="223.4" r="1.5"/>
	<circle class="st9" cx="245.8" cy="223.4" r="1.5"/>
	<circle class="st15" cx="265.1" cy="222.9" r="1.5"/>
	<circle class="st9" cx="247.3" cy="248" r="1.5"/>
	<circle class="st9" cx="265.7" cy="246.6" r="1.5"/>
	<circle class="st15" cx="247.3" cy="247.5" r="1.5"/>
	<circle class="st15" cx="245.8" cy="222.9" r="1.5"/>
	<circle class="st15" cx="265.7" cy="246.1" r="1.5"/>
	<circle class="st15" cx="265" cy="132.2" r="1.5"/>
	<circle class="st15" cx="265.7" cy="152" r="1.5"/>
	<path class="st9" d="M268,203.6c0,0,0.2,33.6,1,39.6C268.9,243.1,269.2,205.1,268,203.6z"/>
	<path class="st9" d="M274.2,219.1c-0.5,0,10,39.3,10.5,42.2C285.2,264.1,277.1,219.1,274.2,219.1z"/>
	<path class="st9" d="M282.5,212.7c0,0.4,5.9,21.3,8.8,22.4S282.5,212.7,282.5,212.7z"/>
	<path class="st9" d="M305.7,171.9c0,0-12.5,0.6-12.9,2.4C292.5,176.1,305.7,171.9,305.7,171.9z"/>
	<path class="st9" d="M283.6,331.7c0,0-8.9,3.8-7.6,4C277.4,336,283.6,331.7,283.6,331.7z"/>
	<path class="st9" d="M265.1,326.1c-0.3-0.8,6,3.2,6,3.7C271.1,330.3,265.6,327.2,265.1,326.1z"/>
	<path class="st9" d="M273.5,339c0,0,7-0.4,7.5,2.3S273.5,339,273.5,339z"/>
	<path class="st9" d="M223.2,338.9c0,0,7.6-1.5,8.2,0S223.2,338.9,223.2,338.9z"/>
	<path class="st9" d="M226,385.1c0,0,0.5,6.2-1.3,7.7S226,385.1,226,385.1z"/>
	<path class="st9" d="M225.1,398.4c2.4,0.2,15-2,14.9,0S225.1,398.4,225.1,398.4z"/>
	<path class="st9" d="M283,390.8c0,0-4.3-0.7-3.3,2.2L283,390.8z"/>
	<path class="st9" d="M203,146.2h-2.3l-3.6,13c0,0-1.2,4.5-2.5,5.6s1.1,11.2,1.1,11.2s-1.3,7.1-2.5,8.9c-1.1,1.8,1.7,6.4,1.7,6.4
		l5.6,13.2l14.9,3.9c0,0,26.3,5.8,27.6,6.6s2.3-0.4,3.2-8.3c0.9-8,3.2-23.4,5-24.1c0,0-14.7,1.6-15.9,1.3c-1.2-0.2-7.1,0.1-7.1,0.1
		s-7.7-0.5-8.9,0.2s1.6-3.6,1.6-3.6c0.5-2,0.5-4,0-6C220.2,171.5,219.7,134,203,146.2z"/>
	<path class="st9" d="M250.9,184.1c-1.8,0.7-4.2,16.2-5,24.1c-0.9,8-2,9.2-3.2,8.3c-1-0.7-18.6-4.6-25.1-6.1
		c1-6.1,1.6-12.9,1.6-12.9l-18.6-49.9h2c16.7-12.3,17.2,25.2,18,28.5c0.5,2,0.5,4,0,6c0,0-2.8,4.3-1.6,3.6s8.9-0.2,8.9-0.2
		s5.9-0.4,7.1-0.1C236.2,185.7,250.9,184.1,250.9,184.1z"/>
	<path class="st12" d="M202.5,146.7h-2.3l-3.6,13c0,0-1.2,4.5-2.5,5.6s1.1,11.2,1.1,11.2s-1.3,7.1-2.5,8.9c-1.1,1.8,1.7,6.4,1.7,6.4
		l5.6,13.2l14.9,3.9c0,0,26.3,5.8,27.6,6.6c1.2,0.9,2.3-0.4,3.2-8.3s3.2-23.4,5-24.1c0,0-14.7,1.6-15.9,1.3
		c-1.2-0.2-7.1,0.1-7.1,0.1s-7.7-0.5-8.9,0.2c-1.2,0.7,1.6-3.6,1.6-3.6c0.5-2,0.5-4,0-6C219.7,171.9,219.2,134.4,202.5,146.7z"/>
	<path class="st9" d="M210.5,191.1c0,0-6.7,12.7-8,11.3C201.3,200.9,210.5,191.1,210.5,191.1z"/>
	<path class="st9" d="M203.5,183.8c0,0-6.2,5.2-3.3,6.5C203.1,191.7,203.5,183.8,203.5,183.8z"/>
	<path class="st9" d="M209.4,177.5c0.5,0.1,9.1,1.8,9.2,2.6C218.7,180.8,209.4,177.5,209.4,177.5z"/>
	<path class="st9" d="M268.9,87.7c-0.5,0.2-0.9,0.7-0.8,1.3c-0.5,0.4-1.2-0.1-1.6-0.6c-0.4-0.6-0.9-1.2-1.5-1.2
		c-0.3,0.1-0.6,0.2-0.9,0.4c-1,0.3-1.8-0.8-2.4-1.8c-1-1.8-1.9-3.5-2.9-5.3c-1.9,1.1-4.2-0.1-6.1-1.2c-1.9-1.2-4.2-2.3-6.1-1.2
		c-2.8,1.6-2.9,7.1-5.8,8.4c-0.9,0.4-2,0.3-2.9,0.9c-0.9,0.6-1.3,1.7-1.7,2.8c-0.1,0.6-0.5,1.2-1,1.6c-0.3,0.2-0.6,0.2-1,0.2
		c-0.9,0.1-1.8,0-2.5-0.4c-0.9-0.5-1.2-1.6-0.9-2.5c0,0,0-0.1,0.1-0.1c0.3-0.4,0.6-0.8,0.8-1.2c0.3-0.8-0.1-1.7,0-2.5
		c0.2-1.4,1.7-2.2,1.9-3.6c0.1-0.6,0-1.1,0.1-1.7c0-0.1,0-0.1,0.1-0.2l-0.9,0.6c1-1.2,1.5-2.8,2.2-4.2c1.7-3.1,4.5-5.5,7.9-6.5
		c3.2-0.9,6.6-0.7,9.8,0.1c3.1,0.8,6,2,8.7,3.6c1,0.5,1.8,1.2,2.5,2.1c0.6,0.9,1.1,1.8,1.5,2.8c1,2,3.5,3.8,1.5,4.1
		c-1.7,0.2-0.2,1.4,0.7,2.2c0.2,0.2,0.4,0.4,0.5,0.6c0.3,0.6,0.3,1.4-0.1,2C267.9,87.4,269.3,87.5,268.9,87.7z"/>
	<path class="st6" d="M268.9,87.2c-0.5,0.2-0.9,0.7-0.8,1.3c-0.5,0.4-1.2-0.1-1.6-0.6c-0.4-0.6-0.9-1.2-1.5-1.2
		c-0.3,0.1-0.6,0.2-0.9,0.4c-1,0.3-1.8-0.8-2.4-1.8c-1-1.8-1.9-3.5-2.9-5.3c-1.9,1.1-4.2-0.1-6.1-1.2c-1.9-1.2-4.2-2.3-6.1-1.2
		c-2.8,1.6-2.9,7.1-5.8,8.4c-0.9,0.4-2,0.3-2.9,0.9c-0.9,0.6-1.3,1.7-1.7,2.8c-0.1,0.6-0.5,1.2-1,1.6c-0.3,0.2-0.6,0.2-1,0.2
		c-0.9,0.1-1.8,0-2.5-0.4c-0.9-0.5-1.2-1.6-0.9-2.5c0,0,0-0.1,0.1-0.1c0.3-0.4,0.6-0.8,0.8-1.2c0.3-0.8-0.1-1.7,0-2.5
		c0.2-1.4,1.7-2.2,1.9-3.6c0.1-0.6,0-1.1,0.1-1.7c0-0.1,0-0.1,0.1-0.2l-0.9,0.6c1-1.2,1.5-2.8,2.2-4.2c1.7-3.1,4.5-5.5,7.9-6.5
		c3.2-0.9,6.6-0.7,9.8,0.1c3.1,0.8,6,2,8.7,3.6c1,0.5,1.8,1.2,2.5,2.1c0.6,0.9,1.1,1.8,1.5,2.8c1,2,3.5,3.8,1.5,4.1
		c-1.7,0.2-0.2,1.4,0.7,2.2c0.2,0.2,0.4,0.4,0.5,0.6c0.3,0.6,0.3,1.4-0.1,2C267.9,86.9,269.3,87,268.9,87.2z"/>
	<path class="st9" d="M267.9,83.9l-0.2,2.1c0,0-20.6-26.1-36.6,3.4c0,0-0.1-0.4-0.2-1c0.3-0.4,0.6-0.8,0.8-1.2
		c0.3-0.8-0.1-1.7,0-2.5c0.2-1.4,1.7-2.2,1.9-3.6c0.1-0.6,0-1.1,0.1-1.7c0-0.1,0-0.1,0.1-0.2l-0.9,0.6c1-1.2,1.5-2.8,2.2-4.2
		c1.7-3.1,4.5-5.5,7.9-6.5c3.2-0.9,6.6-0.7,9.8,0.1c3.1,0.8,6,2,8.7,3.6c1,0.5,1.8,1.2,2.5,2.1c0.6,0.9,1.1,1.8,1.5,2.8
		c1,2,3.5,3.8,1.5,4.1C265.4,81.9,267,83.1,267.9,83.9z"/>
	<g class="st16">
		<path d="M268.4,86.9c-0.2,0.2-0.3,0.5-0.2,0.8c-0.5,0.4-1.2-0.1-1.6-0.6c-0.4-0.6-0.9-1.2-1.5-1.2c-0.3,0.1-0.6,0.2-0.9,0.4
			c-1,0.3-1.8-0.8-2.4-1.8c-1-1.8-1.9-3.5-2.9-5.3c-1.9,1.1-4.2-0.1-6.1-1.2s-4.2-2.3-6.1-1.2c-2.8,1.6-2.9,7.1-5.8,8.4
			c-0.9,0.4-2,0.3-2.9,0.9c-0.9,0.6-1.3,1.7-1.7,2.8c-0.1,0.6-0.5,1.2-1,1.6c-0.3,0.2-0.6,0.2-1,0.2c-0.9,0.1-1.8,0-2.5-0.4
			c-0.5-0.3-0.8-0.8-1-1.3c-0.2,0.9,0.2,1.8,1,2.3c0.8,0.4,1.7,0.5,2.5,0.4c0.3,0,0.7-0.1,1-0.2c0.5-0.4,0.8-1,1-1.6
			c0.4-1.1,0.9-2.2,1.7-2.8c0.9-0.6,2-0.5,2.9-0.9c2.9-1.3,3-6.8,5.8-8.4c1.9-1.1,4.2,0.1,6.1,1.2s4.2,2.3,6.1,1.2
			c1,1.8,1.9,3.5,2.9,5.3c0.5,1,1.4,2.2,2.4,1.8c0.3-0.1,0.6-0.3,0.9-0.4c0.6-0.1,1.1,0.6,1.5,1.2c0.4,0.6,1.1,1.1,1.6,0.6
			c-0.1-0.6,0.3-1.1,0.8-1.3C269.4,87.3,268.6,87.2,268.4,86.9z"/>
		<path d="M266.8,82c0.1-0.1,0.3-0.1,0.5-0.1c0.9-0.1,0.9-0.5,0.6-1.1c-0.2,0.1-0.4,0.1-0.6,0.2C266.3,81.1,266.3,81.5,266.8,82z"/>
		<path d="M268.7,86.1c0.1-0.3,0.1-0.6,0-1c0,0.2-0.1,0.4-0.2,0.5C268.2,85.9,268.4,86,268.7,86.1z"/>
		<path d="M231.9,84.7c0,0.1,0,0.1,0,0.2c0,0.4,0,0.9,0.1,1.3C232,85.7,232,85.2,231.9,84.7z"/>
		<path d="M233.8,78.8c-0.2,0.4-0.5,0.8-0.8,1.2l0.8-0.5C233.8,79.2,233.8,79,233.8,78.8z"/>
	</g>
	<path class="st12" d="M231.1,88.9c0,0-3-13.2-2-15.3c0,0-2.6-5.2-2.6-6.5c-0.1-2.1-0.8-4.1-1.9-5.9c-1.3-2.1-2.8-12,5.2-14.3
		c8.1-2.4,14.2-4.5,15.2-6.1c0.9-1.6,14.8-0.6,18.6,5.6s6.2,5,6.2,5s5.8,3.6,5.8,6.9c0,3.2-1.7,4.9,0,5.6s0.4,14.2-7.3,14.6
		l-0.7,7.1C267.7,85.5,247.1,59.4,231.1,88.9z"/>
	<path class="st9" d="M232,49.4c0,0-1.8,10.4,1.5,13.9L232,49.4z"/>
	<path class="st9" d="M240.3,47c0,0-4.5,11.2-3.4,13.3L240.3,47z"/>
	<path class="st9" d="M244.2,43.5c0,0-3.1,14.5-1.6,15.7L244.2,43.5z"/>
	<path class="st9" d="M249.5,47.4c0,0-3.8,9.3-2.3,10.6L249.5,47.4z"/>
	<path class="st9" d="M256.7,48.5c0,0-4.5,7.6-3.6,8.9L256.7,48.5z"/>
	<path class="st9" d="M267.4,52.7c0,0-3.9,0.8-3.1,1.8L267.4,52.7z"/>
	<path class="st9" d="M270.4,63.8c0,0-4.3,2.1-3.5,3.2L270.4,63.8z"/>
	<path class="st9" d="M229.1,73.5c0,0,27.4-11.1,39.3,4.9C268.3,78.4,254,66.1,229.1,73.5z"/>
	<polygon class="st14" points="219.2,164.9 223,161.1 233.8,171.8 230,175.6 220.1,165.8 	"/>
	<path class="st13" d="M194.2,140.2c0,0,16.7,1.4,32.3,18.9l-6.5,6.6L194.2,140.2z"/>
	<path class="st11" d="M244.3,171.5c0,0-16.1-5.9-17.6-7.3c-1.6-1.4-10.9,6.7,0.5,17.8c0,0,13.8,3.9,17.5,0
		C248.3,178.1,244.3,171.5,244.3,171.5z"/>
</g>
<polygon class="st17" points="631.5,287 631.5,401 615,401 615,279 "/>
<polyline class="st17" points="749,287 749,400 765,400 765,286 "/>
<path class="st17" d="M890.5,273.3c0-11.9-88.5-21.6-197.7-21.6s-197.7,9.7-197.7,21.6c0,4.6,13.3,8.9,36,12.4v147.6h10.8V287.2
	c36.3,4.7,90.4,7.6,151,7.6c61,0,115.6-3,151.9-7.8v146.2h10.8V285.6C877.6,282.1,890.5,277.9,890.5,273.3z"/>
<ellipse class="st18" cx="717.6" cy="263.9" rx="40.3" ry="9.9"/>
<ellipse class="st19" cx="717.6" cy="263.9" rx="33" ry="8.1"/>
<ellipse class="st18" cx="567.8" cy="271.8" rx="40.3" ry="9.9"/>
<ellipse class="st19" cx="567.8" cy="271.8" rx="33" ry="8.1"/>
<ellipse class="st20" cx="716.6" cy="260.1" rx="19.2" ry="3"/>
<ellipse class="st12" cx="706.4" cy="255.7" rx="6.1" ry="3.3"/>
<ellipse class="st12" cx="704.1" cy="255.7" rx="6.1" ry="3.3"/>
<ellipse class="st12" cx="730.7" cy="256.5" rx="6.1" ry="3.3"/>
<ellipse class="st12" cx="716.8" cy="255.7" rx="6.1" ry="3.3"/>
<ellipse class="st12" cx="727.1" cy="255.7" rx="6.1" ry="3.3"/>
<path class="st17" d="M735,253.7c-11,3.7-23.2,3.7-36.9,0v-0.5c0-8,6.3-14.6,14.3-15.1c3.2-0.2,6.5-0.2,9.8,0
	c7.2,0.4,12.8,6.4,12.8,13.6V253.7z"/>
<path class="st17" d="M729.6,267.6c-8.1,0.8-16.3,0.8-24.3,0c-4-0.4-7-3.7-7-7.7h38.4C736.6,263.9,733.6,267.2,729.6,267.6z"/>
<path class="st19" d="M711.5,242.8c-1.8,0.7-3.8,0.7-5.6,0C707.7,242.1,709.7,242.1,711.5,242.8z"/>
<path class="st19" d="M717,245.1c-1.8,0.7-3.8,0.7-5.6,0C713.2,244.4,715.2,244.4,717,245.1z"/>
<path class="st19" d="M717.5,241.1c-1.8,0.7-3.8,0.7-5.6,0C713.8,240.3,715.8,240.3,717.5,241.1z"/>
<path class="st19" d="M727.9,241.1c-1.8,0.7-3.8,0.7-5.6,0C724.1,240.3,726.1,240.3,727.9,241.1z"/>
<path class="st19" d="M725.1,243.3c-1.8,0.7-3.8,0.7-5.6,0C721.3,242.6,723.3,242.6,725.1,243.3z"/>
<ellipse class="st20" cx="567.5" cy="268.1" rx="19.2" ry="3"/>
<ellipse class="st12" cx="557.3" cy="263.6" rx="6.1" ry="3.3"/>
<ellipse class="st12" cx="555" cy="263.6" rx="6.1" ry="3.3"/>
<ellipse class="st12" cx="581.5" cy="264.4" rx="6.1" ry="3.3"/>
<ellipse class="st12" cx="567.6" cy="263.6" rx="6.1" ry="3.3"/>
<ellipse class="st12" cx="578" cy="263.6" rx="6.1" ry="3.3"/>
<path class="st17" d="M585.8,261.6c-11,3.7-23.2,3.7-36.9,0v-0.5c0-8,6.3-14.6,14.3-15.1c3.2-0.2,6.5-0.2,9.8,0
	c7.2,0.4,12.8,6.4,12.8,13.6V261.6z"/>
<path class="st17" d="M580.4,275.5c-8.1,0.8-16.3,0.8-24.3,0c-4-0.4-7-3.7-7-7.7h38.4C587.4,271.8,584.4,275.1,580.4,275.5z"/>
<path class="st19" d="M562.3,250.8c-1.8,0.7-3.8,0.7-5.6,0C558.5,250,560.5,250,562.3,250.8z"/>
<path class="st19" d="M567.9,253c-1.8,0.7-3.8,0.7-5.6,0C564.1,252.3,566.1,252.3,567.9,253z"/>
<path class="st19" d="M568.4,249c-1.8,0.7-3.8,0.7-5.6,0C564.6,248.3,566.6,248.3,568.4,249z"/>
<path class="st19" d="M578.7,249c-1.8,0.7-3.8,0.7-5.6,0C574.9,248.3,576.9,248.3,578.7,249z"/>
<path class="st19" d="M575.9,251.3c-1.8,0.7-3.8,0.7-5.6,0C572.2,250.5,574.2,250.5,575.9,251.3z"/>
<path class="st12" d="M752.2,261.2l0.1,2l0.1,2.7c0,0-12.2,0.7-14.6,3.3c-0.1,0.1-0.1,0.1-0.2,0.2l-4.9-1.1l0-2.4c0,0,0.1,0,0.2-0.1
	c0,0,0.1,0,0.1-0.1C739,262.8,745.6,261.2,752.2,261.2z"/>
<path class="st9" d="M752.2,261.2l0.1,2c-5.4,0.2-15.6,3.4-15.6,3.4l-3.7-0.9C738.9,262.8,745.5,261.2,752.2,261.2z"/>
<path class="st21" d="M733.1,265.7l3.6,0.9l1.1,2.5c-0.1,0.1-0.1,0.1-0.2,0.2l-4.9-1.1l0-2.4c0,0,0.1,0,0.2-0.1
	C733,265.7,733,265.7,733.1,265.7z"/>
<path class="st12" d="M605,269.8l0.1,2l0.1,2.7c0,0-12.2,0.7-14.6,3.3c-0.1,0.1-0.1,0.1-0.2,0.2l-4.9-1.1l0-2.4c0,0,0.1,0,0.2-0.1
	c0,0,0.1,0,0.1-0.1C591.8,271.4,598.4,269.8,605,269.8z"/>
<path class="st9" d="M605,269.8l0.1,2c-5.4,0.2-15.6,3.4-15.6,3.4l-3.7-0.9C591.8,271.4,598.4,269.8,605,269.8z"/>
<path class="st21" d="M585.9,274.3l3.6,0.9l1.1,2.5c-0.1,0.1-0.1,0.1-0.2,0.2l-4.9-1.1l0-2.4c0,0,0.1,0,0.2-0.1
	C585.8,274.3,585.8,274.3,585.9,274.3z"/>
<path class="st17" d="M825.6,200c-1-1-2.3-1.9-3.6-2.5v-25.6c0-0.6-0.5-1.1-1.1-1.1l0,0h-6.3c-0.6,0-1.1,0.5-1.1,1.1l0,0V197
	c-4.7,1.6-7.9,6-7.9,10.9v55c0,2.8,2.3,5,5,5h13.6c2.8,0,5-2.2,5-5v-54.4C829.1,205.3,827.8,202.2,825.6,200z"/>
<rect x="805.5" y="216" class="st12" width="23.7" height="31.3"/>
<path class="st12" d="M822.5,172.4H822v-0.6c0-0.6-0.5-1.1-1.1-1.1l0,0h-6.3c-0.6,0-1.1,0.5-1.1,1.1l0,0v0.6h-0.5v2.6h0.5v13.4h8.6
	v-13.4h0.5V172.4z"/>
<path class="st22" d="M636.1,222.2c-0.6-1.3-1.1-2.3-1.3-2.6c-10.6,2.6-17.7,0.4-18.8,0c-0.5,1-4,7.6-5.3,14
	c-1.2,5.7-0.5,9.5,2.1,11.4l0.1,0.1l0,0c2.9,1.9,5.8,3.7,8.4,5.1c0.4,0.2,0.7,0.4,1,0.5l0,0l0,0c0.4,0.4,0.7,0.9,1,1.4
	c0.6,0.8,0.9,1.7,1,2.7v28.3l-0.2,0c-6.8,0.1-11,1.3-11,2.3c0,1.1,5,2.3,12.2,2.3s12.2-1.2,12.2-2.3c0-1-4.1-2.1-10.8-2.3l-0.2,0
	l0.2-26.2c0-1.8,0.4-3.5,1.2-5.1c0.1-0.3,0.3-0.5,0.4-0.8c0.1-0.2,0.2-0.4,0.4-0.6l0,0l0,0c0.3-0.2,0.7-0.4,1.1-0.6l0,0
	c2.5-1.4,5.1-3,7.9-4.8c2.5-1.6,3.3-4.9,2.6-9.8C639.8,230.6,637.7,225.6,636.1,222.2z"/>
<path class="st12" d="M636.8,244.4c-2.9,1.9-5.3,3.3-7.1,4.4h0c-2.7-0.2-5.4-0.1-8,0.2c-1.9-1-4.4-2.6-7.5-4.6c0,0-0.1,0-0.1-0.1v0
	c-2.9-2-2.9-6.1-2-10.4c2.4-0.3,6.1-0.1,11.2,1.7c6,2.1,12.3,0.9,15.9-0.2C639.7,239.2,639.4,242.7,636.8,244.4z"/>
<circle class="st12" cx="619.5" cy="231.6" r="0.8"/>
<circle class="st15" cx="617.2" cy="239.2" r="0.8"/>
<circle class="st12" cx="621.5" cy="233.6" r="0.5"/>
<circle class="st15" cx="623.5" cy="242.9" r="0.5"/>
<circle class="st15" cx="620" cy="243.4" r="0.5"/>
<circle class="st12" cx="630" cy="227" r="0.5"/>
<path class="st22" d="M674.7,195.5c-0.6-1.3-1.1-2.3-1.3-2.6c-10.6,2.6-17.7,0.4-18.8,0c-0.5,1-4,7.6-5.3,14
	c-1.2,5.7-0.5,9.5,2.1,11.4l0.1,0.1l0,0c2.9,1.9,5.8,3.7,8.4,5.1c0.4,0.2,0.7,0.4,1,0.5l0,0l0,0c0.4,0.4,0.7,0.9,1,1.4
	c0.6,0.8,0.9,1.7,1,2.7v28.3l-0.2,0c-6.8,0.1-11,1.3-11,2.3c0,1.1,5,2.3,12.2,2.3s12.2-1.2,12.2-2.3c0-1-4.1-2.1-10.8-2.3l-0.2,0
	l0.2-26.2c0-1.8,0.4-3.5,1.2-5.1c0.1-0.3,0.3-0.5,0.4-0.8c0.1-0.2,0.2-0.4,0.4-0.6l0,0l0,0c0.3-0.2,0.7-0.4,1.1-0.6l0,0
	c2.5-1.4,5.1-3,7.9-4.8c2.5-1.6,3.3-4.9,2.6-9.8C678.3,203.9,676.2,198.9,674.7,195.5z"/>
<path class="st12" d="M675.3,217.7c-2.9,1.9-5.3,3.3-7.1,4.4h0c-2.7-0.2-5.4-0.1-8,0.2c-1.9-1-4.4-2.6-7.5-4.6c0,0-0.1,0-0.1-0.1v0
	c-2.9-2-2.9-6.1-2-10.4c2.4-0.3,6.1-0.1,11.2,1.7c6,2.1,12.3,0.9,15.9-0.2C678.3,212.5,677.9,216,675.3,217.7z"/>
<circle class="st12" cx="658" cy="204.9" r="0.8"/>
<circle class="st15" cx="655.7" cy="212.4" r="0.8"/>
<circle class="st12" cx="660" cy="206.9" r="0.5"/>
<circle class="st15" cx="662" cy="216.2" r="0.5"/>
<circle class="st15" cx="658.5" cy="216.7" r="0.5"/>
<circle class="st12" cx="668.6" cy="200.3" r="0.5"/>
</svg>
