<?xml version="1.0" encoding="utf-8"?>
<!-- Generator: Adobe Illustrator 23.0.2, SVG Export Plug-In . SVG Version: 6.00 Build 0)  -->
<svg version="1.1" id="d6af144a-e925-4ddf-847c-b38e3205da29"
	 xmlns="http://www.w3.org/2000/svg" xmlns:xlink="http://www.w3.org/1999/xlink" x="0px" y="0px" viewBox="0 0 1084.7 452.8"
	 style="enable-background:new 0 0 1084.7 452.8;" xml:space="preserve">
<style type="text/css">
	.st0{opacity:0.23;fill:#2A4977;enable-background:new    ;}
	.st1{display:none;}
	.st2{display:inline;opacity:0.1;enable-background:new    ;}
	.st3{display:inline;fill:none;stroke:#535461;stroke-width:2;stroke-miterlimit:10;}
	.st4{display:inline;fill:#6C63FF;}
	.st5{fill:#2F2F60;}
	.st6{fill:#40414D;}
	.st7{fill:#DFE6F5;}
	.st8{opacity:0.1;enable-background:new    ;}
	.st9{fill:#F0F3F7;}
	.st10{fill:#F4DFB5;stroke:#E2B588;stroke-miterlimit:10;}
	.st11{fill:#778AE8;}
	.st12{fill:#353549;}
	.st13{fill:#727B93;}
	.st14{fill:#F8BDC5;}
	.st15{opacity:5.000000e-02;enable-background:new    ;}
	.st16{fill:#EB6475;}
	.st17{fill:#EA656B;}
	.st18{fill:#5B3940;}
</style>
<title>eating_together</title>
<path class="st0" d="M619.9,16.6C547.4,30.1,468.6,30.7,395.5,18C291.8,0.1,156.4-4.5,106.3,77.9c-85.6,140.8,89.5,191,89.5,191
	s122.3,13.2,190,37c96.2,33.8,214,45.1,324.9,29.3c71-10.1,131.7-26.8,149.1-54c48.6-76.1,17.7-121.9,105.8-141.9s39-94.4-23.5-96.1
	s-210,15.6-255.6-18.7C670.2,12.2,645.3,11.9,619.9,16.6z"/>
<g class="st1">
	<ellipse class="st2" cx="879.2" cy="422.6" rx="45" ry="16"/>
	<path class="st3" d="M877.4,424.9c0,0,12-40.8-2.3-70.9c-6.1-12.6-7.9-26.8-5.2-40.5c1.3-6.5,3.2-12.9,5.7-19"/>
	<path class="st4" d="M866.8,275.5c0,5,9.1,19.5,9.1,19.5s9.1-14.5,9.1-19.5s-4.1-9.1-9.1-9.1S866.8,270.5,866.8,275.5L866.8,275.5z
		"/>
	<path class="st4" d="M851.8,303.3c2.7,4.2,18.2,11.5,18.2,11.5s-0.3-17.1-3-21.3c-2.7-4.2-8.3-5.4-12.5-2.7
		C850.3,293.4,849.1,299.1,851.8,303.3L851.8,303.3z"/>
	<path class="st4" d="M852.5,350.6c4.5,2.2,21.5,0.7,21.5,0.7s-8.9-14.6-13.3-16.9c-4.5-2.3-9.9-0.5-12.2,4S848,348.4,852.5,350.6
		L852.5,350.6z"/>
	<path class="st4" d="M861,386.4c4,3,21.1,4.3,21.1,4.3s-6.3-15.9-10.3-18.9s-9.7-2.1-12.7,1.9C856.2,377.7,857,383.4,861,386.4
		L861,386.4z"/>
	<path class="st4" d="M889.1,315.7c-3.6,3.5-20.3,7.1-20.3,7.1s4.1-16.6,7.7-20.1c3.6-3.5,9.3-3.4,12.8,0.2S892.6,312.2,889.1,315.7
		z"/>
	<path class="st4" d="M898.5,357.6c-4.5,2.2-21.5,0.7-21.5,0.7s8.9-14.6,13.3-16.8c4.5-2.3,9.9-0.5,12.2,4S903,355.4,898.5,357.6
		L898.5,357.6z"/>
	<path class="st4" d="M902.2,399.6c-4,3-21.1,4.3-21.1,4.3s6.3-15.9,10.3-18.9s9.7-2.1,12.7,1.9C907,391,906.2,396.6,902.2,399.6z"
		/>
</g>
<g class="st1">
	<ellipse class="st2" cx="152.3" cy="356.5" rx="45" ry="16"/>
	<path class="st3" d="M152.3,356.6c0,0,25.7-87.1-4.8-151.3c-12.8-26.9-17-57.1-11.1-86.4c2.8-13.9,6.9-27.4,12.2-40.5"/>
	<path class="st4" d="M129.6,37.8c0,10.7,19.3,41.7,19.3,41.7s19.3-31,19.3-41.7s-8.6-19.3-19.3-19.4
		C138.2,18.3,129.6,27.1,129.6,37.8L129.6,37.8L129.6,37.8z"/>
	<path class="st4" d="M97.6,97c5.8,9,38.9,24.5,38.9,24.5s-0.6-36.6-6.4-45.5c-6-8.8-18-11.1-26.9-5.1C94.7,76.7,92.2,88.2,97.6,97
		L97.6,97z"/>
	<path class="st4" d="M99,198.1c9.5,4.8,45.9,1.5,45.9,1.5s-19-31.2-28.5-36s-21.2-1-26,8.6C85.7,181.7,89.5,193.3,99,198.1
		L99,198.1L99,198.1z"/>
	<path class="st4" d="M117.3,274.4c8.6,6.3,45,9.2,45,9.2s-13.4-34-22-40.3c-8.6-6.4-20.7-4.5-27,4C107,255.8,108.7,268,117.3,274.4
		L117.3,274.4z"/>
	<path class="st4" d="M177.1,123.5c-7.7,7.4-43.4,15.1-43.4,15.1s8.7-35.5,16.4-42.9c7.7-7.5,19.9-7.3,27.4,0.4
		S184.8,116,177.1,123.5L177.1,123.5L177.1,123.5z"/>
	<path class="st4" d="M197.4,213c-9.5,4.8-45.9,1.5-45.9,1.5s19-31.2,28.5-36s21.2-1,26,8.6C210.8,196.7,206.9,208.2,197.4,213
		L197.4,213L197.4,213z"/>
	<path class="st4" d="M205.1,302.6c-8.6,6.3-45,9.2-45,9.2s13.4-34,22-40.3c8.6-6.4,20.7-4.5,27,4S213.7,296.3,205.1,302.6
		L205.1,302.6z"/>
</g>
<path class="st5" d="M467.5,141.7l-55.7-7.2c-2.3-0.3-4-1.1-3.9-1.9l0,0c0.1-0.8,2-1.1,4.3-0.8l55.6,8c1.5,0.2,2.7,0.8,2.6,1.3l0,0
	C470.3,141.6,469.1,141.9,467.5,141.7z"/>
<path class="st5" d="M467.9,142.6l-55.9-5.8c-2.3-0.2-4.2,0.2-4.3,0.9l0,0c-0.1,0.8,1.7,1.5,4,1.7l56,5c1.5,0.1,2.8-0.2,2.8-0.7l0,0
	C470.6,143.3,469.4,142.8,467.9,142.6z"/>
<rect x="353.8" y="244.5" class="st6" width="13.6" height="194.9"/>
<rect x="756.5" y="244.5" class="st6" width="13.6" height="194.9"/>
<path class="st7" d="M348.6,228.7h314c12.2,0,22,9.8,22,22v2.9l0,0h-358l0,0v-2.9C326.6,238.5,336.5,228.7,348.6,228.7z"/>
<path class="st8" d="M353.8,228.7h401.4c15.5,0,28.1,9.8,28.1,22v2.9l0,0H325.6l0,0v-2.9C325.6,238.5,338.2,228.7,353.8,228.7z"/>
<path class="st9" d="M355,224.1h401.4c15.5,0,28.1,9.8,28.1,22v2.9l0,0H326.9l0,0v-2.9C326.9,234,339.5,224.1,355,224.1z"/>
<circle class="st10" cx="505.6" cy="181.1" r="27.2"/>
<circle class="st10" cx="505.6" cy="181.1" r="21.5"/>
<circle class="st10" cx="505.6" cy="181.1" r="16.4"/>
<circle class="st10" cx="505.6" cy="181.1" r="9.2"/>
<circle class="st10" cx="489.8" cy="195.8" r="27.2"/>
<circle class="st10" cx="489.8" cy="195.8" r="21.5"/>
<circle class="st10" cx="489.8" cy="195.8" r="16.4"/>
<circle class="st10" cx="489.8" cy="195.8" r="9.2"/>
<circle class="st10" cx="521.5" cy="195.8" r="27.2"/>
<circle class="st10" cx="521.5" cy="195.8" r="21.5"/>
<circle class="st10" cx="521.5" cy="195.8" r="16.4"/>
<circle class="st10" cx="521.5" cy="195.8" r="9.2"/>
<path class="st11" d="M449,187.9h113.3l0,0v5.3c0,22.1-17.9,40-40,40H489c-22.1,0-40-17.9-40-40L449,187.9L449,187.9z"/>
<path class="st8" d="M552.1,187.9c-0.6,24.6-20.7,44.2-45.3,44.2h-22.5c3.3,0.7,6.6,1.1,10,1.1H517c25,0,45.3-20.3,45.3-45.3l0,0
	H552.1z"/>
<rect x="362.9" y="392.9" class="st6" width="397" height="12.7"/>
<rect x="240.6" y="345.5" class="st6" width="11.9" height="108.2"/>
<rect x="334.5" y="345.5" class="st6" width="11.9" height="108.2"/>
<path class="st12" d="M355.9,327.7c0,7.2-24.5,13.1-54.7,13.1c-30.2,0-53.5-5.8-53.5-13.1s23.3-13.1,53.5-13.1
	C331.4,314.6,355.9,320.5,355.9,327.7z"/>
<path class="st6" d="M231.1,327.6h124.8l0,0v10.9c0,5.8-4.7,10.5-10.5,10.5l0,0h-96.3c-9.9,0-18-8.1-18-18V327.6L231.1,327.6z"/>
<path class="st6" d="M209.9,202.6l2.6-0.6c3.8-0.9,7.5,1.5,8.4,5.3l31.2,138.1l0,0l-3.9,0.9c-6.8,1.5-13.6-2.7-15.1-9.6l-28.6-125.8
	C203.7,207.2,206.1,203.4,209.9,202.6C209.8,202.6,209.8,202.6,209.9,202.6z"/>
<g>
	<rect x="887.6" y="341" class="st6" width="11.9" height="108.2"/>
	<rect x="793.7" y="341" class="st6" width="11.9" height="108.2"/>
	<path class="st12" d="M784.2,323.2c0,7.2,24.5,13.1,54.7,13.1s53.5-5.8,53.5-13.1s-23.3-13.1-53.5-13.1S784.2,316,784.2,323.2z"/>
	<path class="st6" d="M891,344.6h-96.3c-5.8,0-10.5-4.7-10.5-10.5v-10.9l0,0H909l0,0v3.4C909,336.5,901,344.6,891,344.6z"/>
	<path class="st6" d="M892,341.8l-3.9-0.9l0,0l31.2-138.1c0.9-3.8,4.6-6.1,8.4-5.3l2.6,0.6c3.8,0.9,6.1,4.6,5.3,8.4l-28.4,125.8
		C905.6,339,898.9,343.3,892,341.8z"/>
</g>
<path class="st12" d="M394.9,396c0,0-8.8,18.8-4.7,25.5s17.6,12.3,25.6,13c8.5,0.7,34.5,11.5,37.3-1.2c0,0,3.1-9.1-16.9-16.2
	c-24.5-8.7-13.2-26.2-13.2-26.2L394.9,396z"/>
<path class="st13" d="M247.1,273.1c0,0-12,41,24,48l39-2c0,0,53-1.5,68,6.5c0,0,6,1,4,9s5,52.5,5,52.5v18c0,0,34,0,38-4
	c0,0-3-16,0-29s-3.8-47.6-3.8-47.6l-0.8-24.7c-0.1-6.2-3.6-11.9-9.1-14.8c-1.9-1-4-1.5-6.1-1.6c0,0-69.2-17.4-93.2-15.4
	S247.1,273.1,247.1,273.1z"/>
<path class="st14" d="M350.1,192.1c0,0,8,10,13,0s16-43,16-43s27-29,36-20s-22,25-22,25s-11,61-21,62s-25,0-25,0l-5-11L350.1,192.1z
	"/>
<path class="st15" d="M350.1,192.1c0,0,8,10,13,0s16-43,16-43s27-29,36-20s-22,25-22,25s-11,61-21,62s-25,0-25,0l-5-11L350.1,192.1z
	"/>
<path class="st16" d="M314.1,142.1c0,0,18,21,20,28s24,25,24,25s-16,12-13,18s-21-20-21-20l-28-41L314.1,142.1z"/>
<path class="st8" d="M314.1,142.1c0,0,18,21,20,28s24,25,24,25s-16,12-13,18s-21-20-21-20l-28-41L314.1,142.1z"/>
<path class="st14" d="M326.1,118.1c0,0-9,29-9,40s-38-3-37-9s22-28,23-37S326.1,118.1,326.1,118.1z"/>
<path class="st17" d="M296.1,136.1c0,0-35-9-40,42s4,57-11,88s87.1,3,87.1,3s-7.3-4.1-11-11.8c-3.7-7.5-3.5-16.7-3.5-16.7
	s1.1-8.3,9.4-13.5c14.5-8.9,9-35,9-35s-9-30-14-33S308.1,138.1,296.1,136.1z"/>
<path class="st14" d="M331.1,208.1c0,0,73,8,85,6c0,0,41.5-4.4,27.9,9.2c-1,1-23.9,6.8-27.9,5.8s-89,0-89,0l-1-10L331.1,208.1z"/>
<path class="st8" d="M275.1,183.1l53,48c0,0,10-20,13-20s-36-59-36-59s-10-12-16-6S265.1,148.1,275.1,183.1z"/>
<path class="st17" d="M274.1,181.1l53,48c0,0,10-20,13-20s-36-59-36-59s-10-12-16-6S264.1,146.1,274.1,181.1z"/>
<circle class="st14" cx="317.1" cy="103.1" r="33"/>
<path class="st18" d="M345,93.9c5.6,2.2,12.5-0.4,15.8-5.5c3.3-5.1,3.2-11.9,0.4-17.2c-2.8-5.3-7.9-9.2-13.6-11.2
	c-3.4-1.2-7.3-1.9-9.9-4.4c-1.7-1.6-2.7-3.7-3.9-5.7c-4.7-7.3-13-11.6-21.5-13.3s-17.2-1.2-25.8-0.6c-3.2,0.2-7,0.8-8.5,3.7
	c-1.1,2.2-0.4,4.8-0.5,7.2c-0.5,7.7-9,11.9-16.5,13.8s-16.1,3.6-19.8,10.3c-3.3,6.1-0.9,13.4,0.1,20.2c1.7,11.9-0.9,24.1-7.3,34.2
	c-3.3,5.1-7.5,9.7-10.1,15.2c-2.9,6.2-3.5,13.1-1.9,19.7c0.5,1.9,1.2,3.9,0.8,5.9c-0.4,1.6-1.2,3.1-2.3,4.4
	c-8.9,11.3-0.6,21.7-14.9,22.7c1.1,4.3,5.3,7,9.2,9c6.7,3.5,5,6.4,12.4,8.3c4.9,1.3,10.1,2.2,15.1,1.3s9.9-3.8,12-8.5
	c1.2-2.7,1.4-5.8,2.4-8.5c2.4-6.2-3.1-13.5,0.4-19.2c3.3-5.4,3.6-6.1,4.5-12.4s2.7-13.1,7.8-16.8c5.4-3.9,13-3.1,19-0.2
	s9.7,1.8,14.7,6.2c8.8,7.6,18.6,14,29.2,18.8c-1-8.7-2.6-18.5-9.7-23.6c-2-1.5-4.5-2.6-5.6-4.9c-1.7-3.6,1.2-8.1-0.1-11.9
	c-1.3-3.8-6.3-5.2-8.5-8.6c-1.9-2.9-1.4-6.9,0.4-9.9s4.5-5.2,7.3-7.3c2.5-1.9,5-3.7,7.5-5.5c2.3-1.4,4.3-3.2,6.1-5.3
	c1-1.4,1.7-4.4,3-5.3C336.4,86.7,341.8,92.6,345,93.9z"/>
</svg>
