<?xml version="1.0" encoding="utf-8"?>
<!-- Generator: Adobe Illustrator 23.0.2, SVG Export Plug-In . SVG Version: 6.00 Build 0)  -->
<svg version="1.1" id="d6af144a-e925-4ddf-847c-b38e3205da29"
	 xmlns="http://www.w3.org/2000/svg" xmlns:xlink="http://www.w3.org/1999/xlink" x="0px" y="0px" viewBox="0 0 561 507"
	 style="enable-background:new 0 0 561 507;" xml:space="preserve">
<style type="text/css">
	.st0{opacity:0.23;fill:#2A4977;enable-background:new    ;}
	.st1{display:none;}
	.st2{display:inline;opacity:0.1;enable-background:new    ;}
	.st3{display:inline;fill:none;stroke:#535461;stroke-width:2;stroke-miterlimit:10;}
	.st4{display:inline;fill:#6C63FF;}
	.st5{fill:#2F2F60;}
	.st6{fill:#40414D;}
	.st7{fill:#DFE6F5;}
	.st8{opacity:0.1;enable-background:new    ;}
	.st9{fill:#F0F3F7;}
	.st10{fill:#F4DFB5;stroke:#E2B588;stroke-miterlimit:10;}
	.st11{fill:#778AE8;}
	.st12{fill:#353549;}
	.st13{fill:#727B93;}
	.st14{fill:#F8BDC5;}
	.st15{opacity:5.000000e-02;enable-background:new    ;}
	.st16{fill:#EB6475;}
	.st17{fill:#EA656B;}
	.st18{fill:#5B3940;}
</style>
<title>eating_together</title>
<path class="st0" d="M333,71.3c-37.8,14-78.7,14.7-116.7,1.5C162.4,54,92.1,49.3,66,135c-44.5,146.4,46.5,198.7,46.5,198.7
	s63.6,13.7,98.7,38.5c50,35.2,111.2,46.9,168.9,30.4c36.9-10.5,68.5-27.8,77.5-56.2c25.3-79.2,9.2-126.7,55-147.6
	s20.3-98.2-12.2-100c-32.5-1.8-109.2,16.2-132.9-19.5C359.1,66.7,346.2,66.4,333,71.3z"/>
<g class="st1">
	<ellipse class="st2" cx="813.9" cy="476.9" rx="45" ry="16"/>
	<path class="st3" d="M812.1,479.2c0,0,12-40.8-2.3-70.9c-6.1-12.6-7.9-26.8-5.2-40.5c1.3-6.5,3.2-12.9,5.7-19"/>
	<path class="st4" d="M801.4,329.8c0,5,9.1,19.5,9.1,19.5s9.1-14.5,9.1-19.5c0-5-4.1-9.1-9.1-9.1S801.4,324.8,801.4,329.8
		L801.4,329.8z"/>
	<path class="st4" d="M786.5,357.5c2.7,4.2,18.2,11.5,18.2,11.5s-0.3-17.1-3-21.3c-2.7-4.2-8.3-5.4-12.5-2.7
		C784.9,347.7,783.7,353.3,786.5,357.5L786.5,357.5z"/>
	<path class="st4" d="M787.1,404.9c4.5,2.2,21.5,0.7,21.5,0.7s-8.9-14.6-13.3-16.9c-4.5-2.3-9.9-0.5-12.2,4S782.6,402.6,787.1,404.9
		L787.1,404.9z"/>
	<path class="st4" d="M795.7,440.6c4,3,21.1,4.3,21.1,4.3s-6.3-15.9-10.3-18.9c-4-3-9.7-2.1-12.7,1.9
		C790.8,432,791.6,437.7,795.7,440.6L795.7,440.6z"/>
	<path class="st4" d="M823.7,370c-3.6,3.5-20.3,7.1-20.3,7.1s4.1-16.6,7.7-20.1c3.6-3.5,9.3-3.4,12.8,0.2S827.3,366.5,823.7,370z"/>
	<path class="st4" d="M833.2,411.9c-4.5,2.2-21.5,0.7-21.5,0.7s8.9-14.6,13.3-16.8c4.5-2.3,9.9-0.5,12.2,4S837.6,409.7,833.2,411.9
		L833.2,411.9z"/>
	<path class="st4" d="M836.8,453.9c-4,3-21.1,4.3-21.1,4.3s6.3-15.9,10.3-18.9c4-3,9.7-2.1,12.7,1.9
		C841.7,445.2,840.8,450.9,836.8,453.9z"/>
</g>
<g class="st1">
	<ellipse class="st2" cx="86.9" cy="410.7" rx="45" ry="16"/>
	<path class="st3" d="M86.9,410.9c0,0,25.7-87.1-4.8-151.3c-12.8-26.9-17-57.2-11.1-86.4c2.8-13.9,6.9-27.4,12.2-40.5"/>
	<path class="st4" d="M64.3,92.1c0,10.7,19.3,41.7,19.3,41.7s19.3-31,19.3-41.7c0-10.7-8.6-19.3-19.3-19.4S64.2,81.4,64.3,92.1
		C64.2,92.1,64.2,92.1,64.3,92.1L64.3,92.1z"/>
	<path class="st4" d="M32.3,151.3c5.8,9,38.9,24.5,38.9,24.5s-0.6-36.5-6.4-45.5c-6-8.8-18-11.1-26.9-5.1
		C29.3,130.9,26.9,142.4,32.3,151.3L32.3,151.3z"/>
	<path class="st4" d="M33.7,252.4c9.5,4.8,45.9,1.5,45.9,1.5s-19-31.2-28.5-36c-9.5-4.8-21.2-1-26,8.6
		C20.3,236,24.1,247.6,33.7,252.4L33.7,252.4L33.7,252.4z"/>
	<path class="st4" d="M51.9,328.6c8.6,6.3,45,9.2,45,9.2s-13.4-34-22-40.3c-8.6-6.4-20.7-4.5-27,4S43.3,322.3,51.9,328.6L51.9,328.6
		z"/>
	<path class="st4" d="M111.8,177.7c-7.7,7.4-43.4,15.1-43.4,15.1s8.7-35.5,16.4-42.9c7.7-7.5,19.9-7.3,27.4,0.4
		S119.5,170.3,111.8,177.7L111.8,177.7L111.8,177.7z"/>
	<path class="st4" d="M132,267.3c-9.5,4.8-45.9,1.5-45.9,1.5s19-31.2,28.5-36c9.5-4.8,21.2-1,26,8.6S141.6,262.5,132,267.3
		L132,267.3L132,267.3z"/>
	<path class="st4" d="M139.8,356.9c-8.6,6.3-45,9.2-45,9.2s13.4-34,22-40.3c8.6-6.4,20.7-4.5,27,4S148.4,350.6,139.8,356.9
		L139.8,356.9z"/>
</g>
<path class="st5" d="M402.2,196l-55.7-7.2c-2.3-0.3-4-1.1-3.9-1.9l0,0c0.1-0.8,2-1.1,4.3-0.8l55.6,8c1.5,0.2,2.7,0.8,2.6,1.3l0,0
	C405,195.9,403.7,196.2,402.2,196z"/>
<path class="st5" d="M402.5,196.9l-55.9-5.8c-2.3-0.2-4.2,0.2-4.3,0.9l0,0c-0.1,0.8,1.7,1.5,4,1.7l56,5c1.5,0.1,2.8-0.2,2.8-0.7l0,0
	C405.3,197.6,404.1,197.1,402.5,196.9z"/>
<rect x="288.5" y="298.8" class="st6" width="13.6" height="194.9"/>
<rect x="691.1" y="298.8" class="st6" width="13.6" height="194.9"/>
<path class="st7" d="M283.3,283h314c12.2,0,22,9.8,22,22v2.9l0,0h-358l0,0V305C261.3,292.8,271.1,283,283.3,283z"/>
<path class="st8" d="M288.4,283h401.4c15.5,0,28.1,9.8,28.1,22v2.9l0,0H260.3l0,0V305C260.3,292.8,272.9,283,288.4,283z"/>
<path class="st9" d="M289.7,278.4h401.4c15.5,0,28.1,9.8,28.1,22v2.9l0,0H261.6l0,0v-2.9C261.6,288.3,274.1,278.4,289.7,278.4z"/>
<circle class="st10" cx="440.3" cy="235.4" r="27.2"/>
<circle class="st10" cx="440.3" cy="235.4" r="21.5"/>
<circle class="st10" cx="440.3" cy="235.4" r="16.4"/>
<circle class="st10" cx="440.3" cy="235.4" r="9.2"/>
<circle class="st10" cx="424.4" cy="250.1" r="27.2"/>
<circle class="st10" cx="424.4" cy="250.1" r="21.5"/>
<circle class="st10" cx="424.4" cy="250.1" r="16.4"/>
<circle class="st10" cx="424.4" cy="250.1" r="9.2"/>
<circle class="st10" cx="456.1" cy="250.1" r="27.2"/>
<circle class="st10" cx="456.1" cy="250.1" r="21.5"/>
<circle class="st10" cx="456.1" cy="250.1" r="16.4"/>
<circle class="st10" cx="456.1" cy="250.1" r="9.2"/>
<path class="st11" d="M383.6,242.2h113.3l0,0v5.3c0,22.1-17.9,40-40,40h-33.3c-22.1,0-40-17.9-40-40V242.2L383.6,242.2z"/>
<path class="st8" d="M486.7,242.2c-0.6,24.6-20.7,44.2-45.3,44.2h-22.5c3.3,0.7,6.6,1.1,10,1.1h22.7c25,0,45.3-20.3,45.3-45.3
	c0,0,0,0,0,0H486.7z"/>
<rect x="297.5" y="447.2" class="st6" width="397" height="12.7"/>
<rect x="175.2" y="399.8" class="st6" width="11.9" height="108.2"/>
<rect x="269.1" y="399.8" class="st6" width="11.9" height="108.2"/>
<path class="st12" d="M290.5,381.9c0,7.2-24.5,13.1-54.7,13.1s-53.5-5.8-53.5-13.1s23.3-13.1,53.5-13.1S290.5,374.7,290.5,381.9z"/>
<path class="st6" d="M165.7,381.9h124.8l0,0v10.9c0,5.8-4.7,10.5-10.5,10.5l0,0h-96.3c-9.9,0-18-8.1-18-18V381.9L165.7,381.9z"/>
<path class="st6" d="M144.5,256.8l2.6-0.6c3.8-0.9,7.5,1.5,8.4,5.3l31.2,138.1l0,0l-3.9,0.9c-6.8,1.5-13.6-2.7-15.1-9.6l-28.4-125.8
	C138.3,261.4,140.7,257.7,144.5,256.8C144.5,256.8,144.5,256.8,144.5,256.8z"/>
<g>
	<rect x="822.3" y="395.3" class="st6" width="11.9" height="108.2"/>
	<rect x="728.4" y="395.3" class="st6" width="11.9" height="108.2"/>
	<path class="st12" d="M718.9,377.5c0,7.2,24.5,13.1,54.7,13.1s53.5-5.8,53.5-13.1s-23.3-13.1-53.5-13.1S718.9,370.2,718.9,377.5z"
		/>
	<path class="st6" d="M825.7,398.9h-96.3c-5.8,0-10.5-4.7-10.5-10.5v-10.9l0,0h124.8l0,0v3.4C843.7,390.8,835.6,398.9,825.7,398.9z"
		/>
	<path class="st6" d="M826.7,396.1l-3.9-0.9l0,0L854,257.1c0.9-3.8,4.6-6.1,8.4-5.3l2.6,0.6c3.8,0.9,6.1,4.6,5.3,8.4l-28.4,125.8
		C840.3,393.3,833.5,397.6,826.7,396.1z"/>
</g>
<path class="st12" d="M329.5,450.3c0,0-8.8,18.8-4.7,25.5s17.6,12.3,25.6,13c8.5,0.7,34.5,11.5,37.3-1.2c0,0,3.1-9.1-16.9-16.2
	c-24.5-8.7-13.2-26.2-13.2-26.2L329.5,450.3z"/>
<path class="st13" d="M181.8,327.4c0,0-12,41,24,48l39-2c0,0,53-1.5,68,6.5c0,0,6,1,4,9s5,52.5,5,52.5v18c0,0,34,0,38-4
	c0,0-3-16,0-29s-3.8-47.6-3.8-47.6l-0.8-24.7c-0.1-6.2-3.6-11.9-9.1-14.8c-1.9-1-4-1.5-6.1-1.6c0,0-69.2-17.4-93.2-15.4
	S181.8,327.4,181.8,327.4z"/>
<path class="st14" d="M284.8,246.4c0,0,8,10,13,0c5-10,16-43,16-43s27-29,36-20s-22,25-22,25s-11,61-21,62s-25,0-25,0l-5-11
	L284.8,246.4z"/>
<path class="st15" d="M284.8,246.4c0,0,8,10,13,0c5-10,16-43,16-43s27-29,36-20s-22,25-22,25s-11,61-21,62s-25,0-25,0l-5-11
	L284.8,246.4z"/>
<path class="st16" d="M248.8,196.4c0,0,18,21,20,28s24,25,24,25s-16,12-13,18s-21-20-21-20l-28-41L248.8,196.4z"/>
<path class="st8" d="M248.8,196.4c0,0,18,21,20,28s24,25,24,25s-16,12-13,18s-21-20-21-20l-28-41L248.8,196.4z"/>
<path class="st14" d="M260.8,172.4c0,0-9,29-9,40s-38-3-37-9s22-28,23-37S260.8,172.4,260.8,172.4z"/>
<path class="st17" d="M230.8,190.4c0,0-35-9-40,42s4,57-11,88s87.1,3,87.1,3s-7.3-4.1-11-11.8c-3.7-7.5-3.5-16.7-3.5-16.7
	s1.1-8.3,9.4-13.5c14.5-8.9,9-35,9-35s-9-30-14-33C251.8,210.4,242.8,192.4,230.8,190.4z"/>
<path class="st14" d="M265.8,262.4c0,0,73,8,85,6c0,0,41.5-4.4,27.9,9.2c-1,1-23.9,6.8-27.9,5.8s-89,0-89,0l-1-10L265.8,262.4z"/>
<path class="st8" d="M209.8,237.4l53,48c0,0,10-20,13-20s-36-59-36-59s-10-12-16-6S199.8,202.4,209.8,237.4z"/>
<path class="st17" d="M208.8,235.4l53,48c0,0,10-20,13-20s-36-59-36-59s-10-12-16-6S198.8,200.4,208.8,235.4z"/>
<circle class="st14" cx="251.8" cy="157.4" r="33"/>
<path class="st18" d="M279.7,148.1c5.6,2.2,12.5-0.4,15.8-5.5s3.2-11.9,0.4-17.2c-2.8-5.3-7.9-9.2-13.6-11.2
	c-3.4-1.2-7.3-1.9-9.9-4.4c-1.7-1.6-2.7-3.7-3.9-5.7c-4.7-7.3-13-11.6-21.5-13.3s-17.2-1.1-25.9-0.5c-3.2,0.2-7,0.8-8.5,3.7
	c-1.1,2.2-0.4,4.8-0.5,7.2c-0.5,7.7-9,11.9-16.5,13.8s-16.1,3.6-19.8,10.3c-3.3,6.1-0.9,13.4,0.1,20.2c1.7,11.9-0.9,24.1-7.3,34.2
	c-3.3,5.1-7.5,9.7-10.1,15.2c-2.9,6.2-3.5,13.1-1.9,19.7c0.5,1.9,1.2,3.9,0.8,5.9c-0.4,1.6-1.2,3.1-2.3,4.4
	c-8.9,11.3-0.6,21.7-14.9,22.7c1.1,4.3,5.3,7,9.2,9c6.7,3.5,5,6.4,12.4,8.3c4.9,1.3,10.1,2.2,15.1,1.3s9.9-3.8,12-8.5
	c1.2-2.7,1.4-5.7,2.4-8.5c2.4-6.2-3.1-13.5,0.4-19.2c3.3-5.4,3.6-6.1,4.5-12.4s2.7-13.1,7.8-16.8c5.4-3.9,13-3.1,19-0.2
	s9.7,1.8,14.7,6.2c8.8,7.6,18.6,14,29.2,18.8c-1-8.7-2.6-18.5-9.7-23.6c-2-1.5-4.5-2.6-5.6-4.9c-1.7-3.6,1.2-8.1-0.1-11.9
	s-6.3-5.2-8.5-8.6c-1.9-2.9-1.4-6.9,0.4-9.9s4.5-5.2,7.3-7.3c2.5-1.9,5-3.7,7.5-5.5c2.3-1.4,4.3-3.2,6.1-5.3c1-1.4,1.7-4.4,3-5.3
	C271.1,141,276.4,146.9,279.7,148.1z"/>
</svg>
