<?xml version="1.0" encoding="utf-8"?>
<!-- Generator: Adobe Illustrator 23.0.2, SVG Export Plug-In . SVG Version: 6.00 Build 0)  -->
<svg version="1.1" id="d6af144a-e925-4ddf-847c-b38e3205da29"
	 xmlns="http://www.w3.org/2000/svg" xmlns:xlink="http://www.w3.org/1999/xlink" x="0px" y="0px" viewBox="0 0 280 230"
	 style="enable-background:new 0 0 280 230;" xml:space="preserve">
<style type="text/css">
	.st0{display:none;}
	.st1{display:inline;opacity:0.1;enable-background:new    ;}
	.st2{display:inline;fill:none;stroke:#535461;stroke-width:2;stroke-miterlimit:10;}
	.st3{display:inline;fill:#6C63FF;}
	.st4{opacity:0.8;fill:#F3F3FF;enable-background:new    ;}
	.st5{fill:#684C52;}
	.st6{fill:#865A61;}
	.st7{fill:url(#SVGID_1_);}
	.st8{fill:#4C495A;}
	.st9{opacity:0.1;enable-background:new    ;}
	.st10{fill:#5F5D7E;}
	.st11{fill:#FDC2CC;}
	.st12{fill:#6C63FF;}
	.st13{fill:#DFE6F5;}
	.st14{fill:#53526B;}
	.st15{fill:#FFFFFF;}
	.st16{opacity:0.1;}
</style>
<title>eating_together</title>
<g class="st0">
	<ellipse class="st1" cx="673.4" cy="338.4" rx="45" ry="16"/>
	<path class="st2" d="M671.6,340.7c0,0,12-40.8-2.3-70.9c-6.1-12.6-7.9-26.8-5.2-40.5c1.3-6.5,3.2-12.9,5.7-19"/>
	<path class="st3" d="M660.9,191.3c0,5,9.1,19.5,9.1,19.5s9.1-14.5,9.1-19.5s-4.1-9.1-9.1-9.1S660.9,186.3,660.9,191.3L660.9,191.3z
		"/>
	<path class="st3" d="M646,219c2.7,4.2,18.2,11.5,18.2,11.5s-0.3-17.1-3-21.3c-2.7-4.2-8.3-5.4-12.5-2.7
		C644.4,209.2,643.2,214.8,646,219L646,219z"/>
	<path class="st3" d="M646.6,266.4c4.5,2.2,21.5,0.7,21.5,0.7s-8.9-14.6-13.3-16.9c-4.5-2.3-9.9-0.5-12.2,4S642.1,264.1,646.6,266.4
		L646.6,266.4z"/>
	<path class="st3" d="M655.2,302.1c4,3,21.1,4.3,21.1,4.3s-6.3-15.9-10.3-18.9s-9.7-2.1-12.7,1.9
		C650.3,293.5,651.1,299.2,655.2,302.1L655.2,302.1z"/>
	<path class="st3" d="M683.2,231.5c-3.6,3.5-20.3,7.1-20.3,7.1s4.1-16.6,7.7-20.1c3.6-3.5,9.3-3.4,12.8,0.2S686.8,228,683.2,231.5z"
		/>
	<path class="st3" d="M692.7,273.4c-4.5,2.2-21.5,0.7-21.5,0.7s8.9-14.6,13.3-16.8c4.5-2.3,9.9-0.5,12.2,4S697.1,271.2,692.7,273.4
		L692.7,273.4z"/>
	<path class="st3" d="M696.3,315.4c-4,3-21.1,4.3-21.1,4.3s6.3-15.9,10.3-18.9s9.7-2.1,12.7,1.9
		C701.2,306.7,700.3,312.4,696.3,315.4z"/>
</g>
<g class="st0">
	<ellipse class="st1" cx="-53.6" cy="272.2" rx="45" ry="16"/>
	<path class="st2" d="M-53.6,272.4c0,0,25.7-87.1-4.8-151.3c-12.8-26.9-17-57.2-11.1-86.4c2.8-13.9,6.9-27.4,12.2-40.5"/>
	<path class="st3" d="M-76.2-46.4c0,10.7,19.3,41.7,19.3,41.7s19.3-31,19.3-41.7s-8.6-19.3-19.3-19.4S-76.3-57.1-76.2-46.4
		C-76.3-46.4-76.3-46.4-76.2-46.4L-76.2-46.4z"/>
	<path class="st3" d="M-108.2,12.8c5.8,9,38.9,24.5,38.9,24.5s-0.6-36.5-6.4-45.5c-6-8.8-18-11.1-26.9-5.1
		C-111.2-7.6-113.6,3.9-108.2,12.8L-108.2,12.8z"/>
	<path class="st3" d="M-106.8,113.9c9.5,4.8,45.9,1.5,45.9,1.5s-19-31.2-28.5-36s-21.2-1-26,8.6
		C-120.2,97.5-116.4,109.1-106.8,113.9L-106.8,113.9L-106.8,113.9z"/>
	<path class="st3" d="M-88.6,190.1c8.6,6.3,45,9.2,45,9.2s-13.4-34-22-40.3c-8.6-6.4-20.7-4.5-27,4S-97.2,183.8-88.6,190.1
		L-88.6,190.1z"/>
	<path class="st3" d="M-28.7,39.2c-7.7,7.4-43.4,15.1-43.4,15.1s8.7-35.5,16.4-42.9c7.7-7.5,19.9-7.3,27.4,0.4S-21,31.8-28.7,39.2
		L-28.7,39.2L-28.7,39.2z"/>
	<path class="st3" d="M-8.5,128.8c-9.5,4.8-45.9,1.5-45.9,1.5s19-31.2,28.5-36s21.2-1,26,8.6S1.1,124-8.5,128.8L-8.5,128.8
		L-8.5,128.8z"/>
	<path class="st3" d="M-0.7,218.4c-8.6,6.3-45,9.2-45,9.2s13.4-34,22-40.3c8.6-6.4,20.7-4.5,27,4S7.9,212.1-0.7,218.4L-0.7,218.4z"
		/>
</g>
<path class="st4" d="M89.2,33.2c8-7.1,20.5-8.5,31.9-8c35.8,1.8,68,19,96,38.6c10.1,7.1,20.1,14.7,26.6,24.4
	c13.4,19.8,9.4,47.3-9.2,63.6c-6.3,5.6-14,9.8-21.8,13.6c-14,6.7-29.1,12.1-44.9,13.6c-11.3,1.1-22.8,0.2-34-1.3
	c-31.4-4.3-62.3-13.7-88.1-29.8c-11.3-7.1-22-15.9-26.7-27.3c-4.7-11.4-1.7-25.9,9.9-32.7c4.8-2.8,10.5-4.1,16.1-5.3
	c8.3-1.7,16.6-3.5,24.1-7c7.7-3.7,16.8-10.8,15.3-18.9C82.5,47.9,81.2,40.3,89.2,33.2z"/>
<path class="st5" d="M148.6,89.8c0,0,2.2-2.7,1.9-5.6s-1.6-3.9-1.6-3.9s0.8-0.4,0.9-4.2c0.1-3.8-0.5-5.6-0.5-5.6l-26.1,0.1
	c0,0-2.3,2.4-2,5.7c0.3,3.4,1.4,5.2,1.4,5.2s-1.2,4.2-0.5,6.1c0.7,2,2.1,3.5,2.1,3.5L148.6,89.8z"/>
<path class="st6" d="M148.3,89.6c0,0,2.1-2.7,1.8-5.6c-0.3-2.9-1.6-3.9-1.6-3.9s0.7-0.4,0.8-4.2c0.1-3.8-0.5-5.6-0.5-5.6l-25.4,0.1
	c0,0-2.2,2.4-1.9,5.7c0.3,3.4,1.4,5.2,1.4,5.2s-1.2,4.2-0.5,6.1c0.6,2,2,3.5,2,3.5L148.3,89.6z"/>
<linearGradient id="SVGID_1_" gradientUnits="userSpaceOnUse" x1="293.4926" y1="-209.2465" x2="293.4926" y2="95.6617" gradientTransform="matrix(1 0 0 -1 -154.9654 127.3641)">
	<stop  offset="0" style="stop-color:#808080;stop-opacity:0.25"/>
	<stop  offset="0.5351" style="stop-color:#808080;stop-opacity:0.12"/>
	<stop  offset="1" style="stop-color:#808080;stop-opacity:0.1"/>
</linearGradient>
<path class="st7" d="M186,132.3c-0.7-1.3-4.3-9.5-4.3-9.5l-6-15.5c0,0-4.3-6.6-4.3-7.8s-7.7-6.1-7.7-6.1s-6.3-1.9-6.8-2.1
	c-0.5-0.2-7.9-2.7-7.9-2.7s-2.9-3.9-3.3-2.8l0,0c0,0,0,0,0-0.1c-0.6-1.1-1-2.3-1.1-3.6c0-0.1,0-0.2,0-0.3c3.9-2.7,6.3-7.1,6.3-11.8
	c0-0.6,0-1.2-0.1-1.8c0.1,0,0.1-0.1,0.2-0.1c0.1-0.1,0.1-0.1,0-0.1c0,0,0.1,0,0.1,0c0.2-0.1,0.1-0.1-0.1-0.2l0,0
	c0.2-0.1-0.1-0.2-0.3-0.3c0-0.1,0-0.1,0-0.2c0-0.1,0.1-0.3,0.1-0.4c0,0,0,0,0.1,0c0.1-0.2,0.1-0.5,0-0.7c0,0,0,0.1-0.1,0.1
	c0-0.4-0.2-0.9-0.6-1.1c0,0,0,0,0,0l0.4-4.2c6-0.3,7.1-10.6,5.7-11.1c-1.4-0.6,0-1.8,0-4.3s-4.6-5.2-4.6-5.2s-1.9,1-4.9-3.8
	s-13.9-5.5-14.6-4.3c-0.7,1.2-5.6,2.9-12,4.7c-6.4,1.8-5.2,9.3-4.1,11c0.9,1.3,1.4,2.9,1.5,4.5c0,1,2,5,2,5c-0.6,1.4,1,9,1.5,11.1
	c0,0.1,0,0.1,0,0.2c0,0,0,0,0,0c0,0,0,0.1-0.1,0.1c-0.1,0.2-0.1,0.5-0.1,0.7c0,0.3,0,0.5,0.1,0.8c0.1,4.1,1.9,8,5.1,10.7
	c0,0.1,0,0.3,0,0.4c0.1,1.8,0.1,3.8,0,5.8c0,0.1,0,0.2,0,0.3c-0.7,0.1-1.3,0.6-1.6,1.3c-0.6,1.2-4.1,2.9-4.1,2.9s-6.1,0.3-6.7,1.4
	s-9.4,4.9-9.4,4.9s-4.6,2.7-4,5.8c0.4,1.6-0.6,4.1-1.7,6.1c-2.2-0.8-4.4-1.4-6.7-1.7l4.9,4.7c-0.1,0.2-0.2,0.3-0.2,0.3l-2.8,9.9
	c0,0-1,3.5-1.9,4.3c-1,0.8,0.9,8.5,0.9,8.5s-1.1,5.4-1.9,6.8s1.4,4.9,1.4,4.9l4.4,10.1l11.8,3c0,0,0.8,0.2,2.1,0.4
	c0,0.2-0.1,0.5-0.1,0.7c-0.6,3.2-1.3,6.2-2.2,7c-2.2,2-2.1,10.8-2.1,10.8l0.1,12.4c0,0,0.8,15.3,0.4,15.9c-0.2,0.4,0.2,0.9,1.5,1.5
	c0,0.2-0.1,0.5-0.1,0.7c-0.4,2.5-0.5,5.5,0.3,6.7c0.4,0.7,0.6,1.5,0.6,2.2c0,1.2,1.8,3.7,1.8,3.7s-1.5,10.4,1,13.9
	c2.4,3.6,4.4,10,3.3,11.5c0,0-2,4.4-1.1,6.4c1,2,0,3.1-1.3,3.6s-1.1,4.3-1.1,4.3l2.3,18.2c0,0,1.3,3.7,0.2,5.1
	c-1.1,1.3-1.1,7.9,0.6,10.1c1.6,2.2-2.3,6.4-2.3,6.4s-2.4,3.5,1.5,4.6c0,0,0.8,0.2-0.7,1.7c-1.5,1.5-1.7,3.4-0.8,4
	c0.2,0.1,0.4,0.2,0.6,0.3c0,0.2-0.1,0.5-0.1,0.7c-0.4,2-1.1,4.5-2.3,5.7c-2.5,2.5-4.6,5.4-6.3,8.4c-1.3,2.5-1.9,4.9-0.4,6
	c3.5,2.6,7.9,3.5,10.5,2.4s6.3-4.2,6.3-4.2l0.9-3.6c0,0-0.6-2.2,2.3-3.1c2.9-0.8,5.6-3.8,5.6-3.8v-4.9c0.7-0.4,1.4-0.8,2-1.3
	c0,0,1.4-4.8,0-6.4c-1.4-1.6-1.8-2.2-0.1-3.2c1.7-1,2-3.3,0.7-5.2c-1.3-2-3.3-4.9-1.6-9s2.4-16.8,2.4-16.8s-0.8-8.6,0-10.6
	c0.8-2-0.9-5.9-0.9-5.9s0.6-4.9,1.6-7.1s1.9-14.1,1.9-14.1s1.9-5.1,1.9-8.3c0-3.3-3-11.1,1.5-13.2c0,0,1.9,1.7,1.2,8.4
	c0,0,2.2,7.9,2.2,10.3c0,2.4,1.6,11.2,1.6,11.2s0.2,2.8,0.9,3.8c0.7,1,0,3.8,0,3.8s2.5,2.3,1.8,3.8c-0.7,1.5,0.1,4.9,0.1,4.9
	l-0.6,21c0,0-1.7,9,2.3,14.4c0,0-1.5,8-2.3,8.5c-0.9,0.6,3.2,5.4,3.2,5.4s-1.1,3.2,1.2,3.3v5.2c0.8,1.4,1.9,2.6,3.2,3.6
	c2.1,1.5,1.3,6.6,1.3,6.6s2.7,6.6,9.9,5.1s8.1-2.1,7.7-4.4c-0.1-0.9-0.4-2.4-0.9-4.1c-0.8-3-1.9-6.6-3.4-8.4
	c-2.2-2.8-4.1-8.7-4.1-8.7s-0.9-2,0-2.6s0.5-1.9,0.5-1.9s0.8-2.4,0.1-3.9c-0.8-1.5,1.5-4.6,1.5-4.6l-0.7-14.4l0.7-21
	c0,0-3-3.5-1.7-5.5c1.3-2.1-1.5-5-1.5-5s-0.3-0.1,0.5-2.4c0.5-1.4,0.4-2.9-0.2-4.2c0,0-1.6-5.8,1.3-10.2c0,0,1.3-5.8,1.6-8.8
	c0.3-2.1,1.9-9.9,2.9-14.4c0.1-0.3,0.1-0.5,0.2-0.7c1.4,0.1,2.5,0.2,2.5,0.2s-2.2-15.4,0-18.6c2.2-3.2-1.7-27.5-1.7-27.5
	s-0.9-4.3-1.5-8.6c0-0.2-0.1-0.5-0.1-0.7c1.8-0.1,3.6-0.2,5.4-0.1c4.6,0.3,9.2-1.5,9.3-3.3c0.1-1.8,2.6-8.8,3-10.4
	C186.4,139,186.7,133.6,186,132.3z"/>
<path class="st8" d="M129.6,312.8v8.7c0,0-2.6,3-5.4,3.8s-2.2,3.1-2.2,3.1l-0.8,3.6c0,0-3.5,3.2-6.1,4.2c-2.5,1-6.8,0.2-10.2-2.4
	c-1.4-1.1-0.9-3.4,0.4-5.9c1.7-3.1,3.7-5.9,6.1-8.4c1.2-1.2,1.9-3.8,2.3-5.7c0.3-1.5,0.4-2.6,0.4-2.6L129.6,312.8z"/>
<path class="st9" d="M129.6,319.3v2.2c0,0-2.6,3-5.4,3.8s-2.2,3.1-2.2,3.1l-0.8,3.6c0,0-3.5,3.2-6.1,4.2c-2.5,1-6.8,0.2-10.2-2.4
	c-1.4-1.1-0.9-3.4,0.4-5.9c-0.1,2.6,0.7,5.6,4.5,5.5c4.1-0.1,8-1.6,11.3-4.1c0,0-0.1-6.1,4.2-7.5
	C126.9,321.1,128.3,320.3,129.6,319.3z"/>
<path class="st8" d="M163.7,335c-6.9,1.4-9.5-5.1-9.5-5.1s0.8-5.1-1.2-6.6c-1.3-0.9-2.3-2.2-3.1-3.5v-8.6l8.4-6l4.5,4l0.3,0.3
	c0,0,1.8,5.9,3.9,8.7c1.4,1.8,2.5,5.4,3.2,8.4c0.4,1.7,0.7,3.2,0.9,4.1C171.5,332.9,170.6,333.6,163.7,335z"/>
<path class="st9" d="M163.7,335c-6.9,1.4-9.5-5.1-9.5-5.1s0.8-5.1-1.2-6.6c-1.3-0.9-2.3-2.2-3.1-3.5v-3.3c1.3,1.4,3.8,4.1,4.4,5.3
	c0.7,1.6,0.8,7.4,4.3,8.4c3.4,1,10.2,2,10.7-0.7c0.2-1,0.6-2,1-2.9c0.4,1.7,0.7,3.2,0.9,4.1C171.5,332.9,170.6,333.6,163.7,335z"/>
<path class="st9" d="M114,311.1l15.6,1.7v4.6c-1.8,1-4.3,2.1-5.7,1c-2.1-1.7-8.3-3.8-10.2-4.7C113.9,312.3,114,311.1,114,311.1z"/>
<path class="st9" d="M163.1,310.2c-2.1-0.7-6,2.5-11,4.6c-0.7,0.3-1.5,0.5-2.2,0.5v-4.1l8.4-6l4.5,4
	C162.9,309.5,163,309.9,163.1,310.2z"/>
<path class="st10" d="M168.6,207.6c0,0-0.3,1.4-0.7,3.4c-1,4.5-2.6,12.3-2.8,14.3c-0.4,3-1.6,8.8-1.6,8.8
	c-2.8,4.4-1.2,10.2-1.2,10.2c0.6,1.3,0.6,2.8,0.2,4.2c-0.7,2.3-0.5,2.4-0.5,2.4s2.6,2.9,1.4,4.9c-1.2,2,1.7,5.5,1.7,5.5l-0.7,20.9
	l0.7,14.3c0,0-2.1,3.1-1.4,4.6c0.7,1.5-0.1,3.9-0.1,3.9s0.4,1.2-0.5,1.9s0,2.6,0,2.6c-2.1-0.7-6,2.5-11,4.6s-3.4-2.8-3.4-2.8
	s-3.9-4.8-3.1-5.4c0.8-0.6,2.2-8.5,2.2-8.5c-3.9-5.4-2.2-14.3-2.2-14.3l0.6-20.9c0,0-0.8-3.4-0.1-4.9c0.7-1.5-1.8-3.8-1.8-3.8
	s0.7-2.8,0-3.8c-0.7-1-0.8-3.8-0.8-3.8s-1.6-8.8-1.6-11.2c0-2.4-2.1-10.2-2.1-10.2c0.7-6.7-1.1-8.4-1.1-8.4c-4.3,2-1.4,9.9-1.4,13.1
	c0,3.3-1.9,8.3-1.9,8.3s-0.8,11.8-1.9,14.1s-1.6,7.1-1.6,7.1s1.7,3.9,0.9,5.9c-0.8,2,0,10.5,0,10.5s-0.6,12.6-2.3,16.7
	c-1.7,4.1,0.3,7,1.5,8.9c1.2,2,1,4.2-0.7,5.2s-1.2,1.6,0.1,3.2c1.3,1.6,0,6.3,0,6.3s-5.3,4.2-7.6,2.3c-2.3-1.9-9.8-4.3-10.7-4.9
	c-0.9-0.7-0.7-2.5,0.7-4c1.4-1.5,0.7-1.7,0.7-1.7c-3.7-1.1-1.4-4.6-1.4-4.6s3.8-4.1,2.2-6.3c-1.6-2.2-1.6-8.8-0.6-10.1
	c1-1.3-0.2-5-0.2-5l-2.2-18.2c0,0-0.1-3.8,1.1-4.3c1.2-0.5,2.1-1.6,1.2-3.5c-0.9-2,1-6.3,1-6.3c1.1-1.5-0.8-7.9-3.2-11.5
	c-2.3-3.5-0.9-13.9-0.9-13.9s-1.8-2.5-1.8-3.7c0-0.8-0.2-1.5-0.6-2.2c-0.8-1.3-0.6-4.2-0.3-6.7c0.3-2.5,0.9-4.6,0.9-4.6L168.6,207.6
	z"/>
<path class="st11" d="M150.4,102l-18.4,4.3c0,0-9-7.6-6.8-11.7c0.8-1.4,1.1-3.8,1.2-6.4c0.1-2,0-4.1,0-5.8c-0.1-2.5-0.3-4.4-0.3-4.4
	s18.8-10.6,18.2,0c-0.1,1.8-0.1,3.5,0.1,5.3c0.1,1.3,0.5,2.5,1.1,3.6c1,1.8,2.2,1.8,2.2,1.8L150.4,102z"/>
<path class="st9" d="M144.3,83.3c-5.5,3.9-12.9,3.5-18-0.9c-0.1-2.5-0.3-4.4-0.3-4.4s18.8-10.6,18.2,0
	C144.1,79.8,144.1,81.5,144.3,83.3z"/>
<circle class="st11" cx="135.9" cy="71.2" r="14.4"/>
<path class="st9" d="M150.4,102l-18.4,4.3c0,0-9-7.6-6.8-11.7c0.8-1.4,1.1-3.8,1.2-6.4c0.4,2.2,1.6,4.2,3.3,5.6
	c4.2,2.8,3.5,6.2,3.5,6.2l7.5-0.3c-0.5-3.1,2.3-4.8,3.3-5.1c0.9-0.4,0.5-2,0.5-2l0.8-5.7c1,1.8,2.2,1.8,2.2,1.8L150.4,102z"/>
<path class="st9" d="M168.6,207.6c0,0-0.3,1.4-0.7,3.4c-2-0.1-4.7-0.2-5.9,0.1c-2,0.5-10.2,0.7-10.2,0.7l-20.3,0.7v-0.6
	c-2.3,0-4.7,0.2-7,0.5c-3.4,0.5-8.9-0.2-12.3-0.7c-1.1-0.2-2.1-0.4-3.1-0.8c0.3-2.5,0.9-4.6,0.9-4.6L168.6,207.6z"/>
<path class="st12" d="M167,148.4c-0.3,1.7-0.1,4.6,0.3,7.5c0.6,4.3,1.5,8.6,1.5,8.6s3.8,24.2,1.7,27.4c-2.1,3.2,0,18.5,0,18.5
	s-6.4-0.6-8.5-0.1c-2,0.5-10.2,0.7-10.2,0.7l-20.3,0.7V211c-2.3,0-4.7,0.2-7,0.5c-3.4,0.5-8.9-0.2-12.3-0.7
	c-3.4-0.6-4.8-1.7-4.5-2.2c0.4-0.6-0.4-15.8-0.4-15.8l-0.1-12.4c0,0-0.1-8.8,2-10.7c0.9-0.8,1.6-3.7,2.1-7c0.8-4.6,1.2-9.8,1.2-9.8
	l-14.2-37.9l-0.3-0.7c0,0,4.1-6.3,3.4-9.4s3.8-5.8,3.8-5.8s8.5-3.7,9-4.8s6.4-1.4,6.4-1.4s3.4-1.8,3.9-2.9c0.3-0.7,0.9-1.1,1.6-1.3
	c0.4,2.2,1.6,4.3,3.4,5.7c4.2,2.8,3.5,6.2,3.5,6.2l7.5-0.3c-0.5-3.1,2.3-4.8,3.3-5.1c0.9-0.4,0.5-2,0.5-2l0.9-6
	c0.4-1,3.2,2.8,3.2,2.8s7.2,2.5,7.6,2.6c0.5,0.2,6.5,2,6.5,2s7.5,4.8,7.5,6.1c0,1.2,4.1,7.7,4.1,7.7s0,0.3-0.1,0.7
	C173.3,114.1,167.7,144.4,167,148.4z"/>
<path class="st11" d="M137.2,133.3c0,0-16.1-4.3-17.7-5.3c-1.6-1-10.9,4.9,0.5,13c0,0,13.9,2.9,17.6,0
	C141.3,138.2,137.2,133.3,137.2,133.3z"/>
<path class="st9" d="M172.1,107.8l2,0.1l5.8,15.5c0,0,3.4,8.1,4.1,9.4c0.7,1.3,0.4,6.7,0,8.3c-0.4,1.6-2.8,8.6-2.9,10.3
	c-0.1,1.8-4.5,3.5-8.9,3.3c-4.5-0.3-14.9,1.1-14.9,1.1s-11.1-1.2-18,2.3c0,0-4.4-9-3.9-25.9c0,0,7.7-0.5,9.7,0.3
	c2,0.7,11.5,2.9,12.7,1.8c1.2-1.1,6.7,2,6.7,2c0.6-1.2,0.6-2.7,0-3.9c-0.9-2.2-2.5-9.2-0.5-11.5
	C165.9,118.7,172.1,107.8,172.1,107.8z"/>
<path class="st9" d="M167.3,155.9c-4.6,0.3-9.8,1-9.8,1s-11.1-1.2-18,2.3c0,0-4.4-9-3.9-25.9c0,0,7.7-0.5,9.7,0.3
	c2,0.7,11.5,2.9,12.7,1.8c1.2-1.1,6.7,2,6.7,2c0.6-1.2,0.6-2.7,0-3.9c-0.9-2.2-2.5-9.2-0.5-11.5c2-2.2,8.2-13.1,8.2-13.1l1.8,0.1
	c-0.9,5.1-6.5,35.4-7.2,39.4C166.7,150.2,167,153.1,167.3,155.9z"/>
<path class="st12" d="M172.4,108.2l2,0.1l5.8,15.5c0,0,3.4,8.1,4.1,9.4c0.7,1.3,0.4,6.7,0,8.3c-0.4,1.6-2.8,8.6-2.9,10.3
	s-4.5,3.5-8.9,3.3c-4.5-0.3-14.9,1.1-14.9,1.1s-11.1-1.2-18,2.3c0,0-4.4-9-3.9-25.9c0,0,7.7-0.5,9.7,0.3c2,0.7,11.5,2.9,12.7,1.8
	c1.2-1.1,6.7,2,6.7,2c0.6-1.2,0.6-2.7,0-3.9c-0.9-2.2-2.5-9.2-0.5-11.5C166.3,119.1,172.4,108.2,172.4,108.2z"/>
<rect x="148.1" y="131.3" transform="matrix(0.5264 -0.8502 0.8502 0.5264 -36.8366 199.1931)" class="st13" width="24.6" height="2.7"/>
<ellipse transform="matrix(0.5264 -0.8502 0.8502 0.5264 -19.1313 200.0118)" class="st13" cx="170" cy="117.2" rx="7.9" ry="5.5"/>
<ellipse transform="matrix(0.5264 -0.8502 0.8502 0.5264 -19.1313 200.0118)" class="st9" cx="170" cy="117.2" rx="5.7" ry="4"/>
<rect x="143.7" y="145.9" transform="matrix(0.5264 -0.8502 0.8502 0.5264 -53.5848 198.4186)" class="st14" width="15.3" height="2.7"/>
<path class="st11" d="M132.5,154l5.7-1.6c0,0,28,0.7,18.6-10.8c0,0-4.9-4.8-15.3-0.9c-10.3,3.8-13.2,4.3-13.2,4.3L132.5,154z"/>
<circle class="st9" cx="128.3" cy="104.2" r="1.1"/>
<circle class="st9" cx="147.5" cy="103.5" r="1.1"/>
<circle class="st15" cx="128.3" cy="103.8" r="1.1"/>
<circle class="st9" cx="129.9" cy="119.6" r="1.1"/>
<circle class="st9" cx="148" cy="118.5" r="1.1"/>
<circle class="st15" cx="129.9" cy="119.3" r="1.1"/>
<circle class="st9" cx="147.6" cy="172.5" r="1.1"/>
<circle class="st9" cx="132.8" cy="172.5" r="1.1"/>
<circle class="st15" cx="147.6" cy="172.1" r="1.1"/>
<circle class="st9" cx="134" cy="191.2" r="1.1"/>
<circle class="st9" cx="148" cy="190.1" r="1.1"/>
<circle class="st15" cx="134" cy="190.8" r="1.1"/>
<circle class="st15" cx="132.8" cy="172.1" r="1.1"/>
<circle class="st15" cx="148" cy="189.7" r="1.1"/>
<circle class="st15" cx="147.5" cy="103.1" r="1.1"/>
<circle class="st15" cx="148" cy="118.2" r="1.1"/>
<path class="st9" d="M149.7,157.4c0,0,0.2,25.5,0.7,30.1C150.4,187.5,150.7,158.6,149.7,157.4z"/>
<path class="st9" d="M154.5,169.2c-0.4,0,7.6,29.9,8,32.1C162.8,203.4,156.7,169.2,154.5,169.2z"/>
<path class="st9" d="M160.8,164.4c0,0.3,4.5,16.2,6.7,17.1S160.8,164.4,160.8,164.4z"/>
<path class="st9" d="M178.4,133.3c0,0-9.5,0.4-9.8,1.8C168.3,136.5,178.4,133.3,178.4,133.3z"/>
<path class="st9" d="M161.6,254.8c0,0-6.8,2.9-5.8,3.1C156.9,258.1,161.6,254.8,161.6,254.8z"/>
<path class="st9" d="M147.6,250.6c-0.3-0.6,4.6,2.4,4.6,2.8C152.1,253.7,147.9,251.4,147.6,250.6z"/>
<path class="st9" d="M153.9,260.3c0,0,5.3-0.3,5.7,1.8S153.9,260.3,153.9,260.3z"/>
<path class="st9" d="M115.7,260.3c0,0,5.8-1.1,6.2,0S115.7,260.3,115.7,260.3z"/>
<path class="st9" d="M117.8,295.5c0,0,0.4,4.8-1,5.9C115.4,302.5,117.8,295.5,117.8,295.5z"/>
<path class="st9" d="M117.1,305.5c1.8,0.2,11.4-1.5,11.3,0C128.4,307,117.1,305.5,117.1,305.5z"/>
<path class="st9" d="M161.2,299.8c0,0-3.3-0.5-2.5,1.7L161.2,299.8z"/>
<path class="st9" d="M100.3,113.8h-1.8l-2.7,9.9c0,0-0.9,3.4-1.9,4.3s0.8,8.5,0.8,8.5s-1,5.4-1.9,6.8c-0.8,1.4,1.3,4.8,1.3,4.8
	l4.3,10.1l11.4,3c0,0,20,4.4,21,5c0.9,0.7,1.8-0.3,2.4-6.3c0.7-6.1,2.4-17.8,3.8-18.4c0,0-11.2,1.2-12.1,1c-0.9-0.2-5.4,0.1-5.4,0.1
	s-5.9-0.4-6.8,0.2c-0.9,0.6,1.2-2.7,1.2-2.7c0.4-1.5,0.4-3.1,0-4.6C113.4,133,113,104.5,100.3,113.8z"/>
<path class="st9" d="M136.8,142.6c-1.4,0.6-3.2,12.3-3.8,18.4c-0.7,6.1-1.5,7-2.4,6.3c-0.8-0.5-14.1-3.5-19.1-4.6
	c0.8-4.6,1.2-9.8,1.2-9.8l-14.2-37.9h1.5c12.7-9.3,13,19.2,13.7,21.7c0.4,1.5,0.4,3.1,0,4.6c0,0-2.1,3.3-1.2,2.7
	c0.9-0.6,6.8-0.2,6.8-0.2s4.5-0.3,5.4-0.1C125.6,143.8,136.8,142.6,136.8,142.6z"/>
<path class="st12" d="M99.9,114.1h-1.8l-2.7,9.9c0,0-0.9,3.4-1.9,4.3c-0.9,0.8,0.8,8.5,0.8,8.5s-1,5.4-1.9,6.8
	c-0.8,1.4,1.3,4.8,1.3,4.8l4.3,10.1l11.4,3c0,0,20,4.4,21,5c0.9,0.7,1.8-0.3,2.4-6.3c0.7-6.1,2.4-17.8,3.8-18.4c0,0-11.2,1.2-12.1,1
	c-0.9-0.2-5.4,0.1-5.4,0.1s-5.9-0.4-6.8,0.2c-0.9,0.6,1.2-2.7,1.2-2.7c0.4-1.5,0.4-3.1,0-4.6C113,133.3,112.6,104.8,99.9,114.1z"/>
<path class="st9" d="M106,147.9c0,0-5.1,9.7-6.1,8.6C99,155.3,106,147.9,106,147.9z"/>
<path class="st9" d="M100.7,142.4c0,0-4.8,3.9-2.5,5C100.4,148.3,100.7,142.4,100.7,142.4z"/>
<path class="st9" d="M105.2,137.5c0.4,0.1,6.9,1.4,7,2C112.2,140,105.2,137.5,105.2,137.5z"/>
<path class="st9" d="M150.4,69.3c-0.4,0.1-0.7,0.6-0.6,1c-0.4,0.3-0.9-0.1-1.2-0.5c-0.3-0.4-0.7-1-1.1-0.9c-0.2,0.1-0.4,0.2-0.7,0.3
	c-0.7,0.2-1.4-0.6-1.8-1.4c-0.7-1.3-1.5-2.7-2.2-4c-1.5,0.8-3.2,0-4.6-0.9c-1.4-0.9-3.2-1.8-4.6-0.9c-2.1,1.2-2.2,5.4-4.4,6.4
	c-0.7,0.3-1.5,0.3-2.2,0.7c-0.7,0.4-1,1.3-1.3,2.1c-0.1,0.5-0.4,0.9-0.7,1.2c-0.2,0.1-0.5,0.2-0.8,0.2c-0.7,0.1-1.3,0-1.9-0.3
	c-0.7-0.4-0.9-1.2-0.7-1.9c0,0,0-0.1,0.1-0.1c0.2-0.3,0.5-0.6,0.6-0.9c0.2-0.6-0.1-1.3,0-1.9c0.1-1.1,1.3-1.7,1.5-2.8
	c0.1-0.4,0-0.9,0.1-1.3c0-0.1,0-0.1,0-0.2l-0.7,0.5c0.8-0.9,1.1-2.1,1.7-3.2c1.3-2.4,3.4-4.2,6-4.9c2.4-0.7,5-0.5,7.5,0.1
	c2.3,0.6,4.6,1.5,6.6,2.7c0.7,0.4,1.4,0.9,1.9,1.6c0.5,0.7,0.8,1.4,1.1,2.1c0.7,1.5,2.7,2.9,1.1,3.1c-1.3,0.2-0.1,1.1,0.6,1.7
	c0.2,0.1,0.3,0.3,0.4,0.4c0.2,0.5,0.2,1-0.1,1.5C149.7,69,150.8,69.1,150.4,69.3z"/>
<path class="st6" d="M150.4,68.9c-0.4,0.1-0.7,0.6-0.6,1c-0.4,0.3-0.9-0.1-1.2-0.5c-0.3-0.4-0.7-1-1.1-0.9c-0.2,0.1-0.4,0.2-0.7,0.3
	c-0.7,0.2-1.4-0.6-1.8-1.4c-0.7-1.3-1.5-2.7-2.2-4c-1.5,0.8-3.2,0-4.6-0.9c-1.4-0.9-3.2-1.8-4.6-0.9c-2.1,1.2-2.2,5.4-4.4,6.4
	c-0.7,0.3-1.5,0.3-2.2,0.7c-0.7,0.4-1,1.3-1.3,2.1c-0.1,0.5-0.4,0.9-0.7,1.2c-0.2,0.1-0.5,0.2-0.8,0.2c-0.7,0.1-1.3,0-1.9-0.3
	c-0.7-0.4-0.9-1.2-0.7-1.9c0,0,0-0.1,0.1-0.1c0.2-0.3,0.5-0.6,0.6-0.9c0.2-0.6-0.1-1.3,0-1.9c0.1-1.1,1.3-1.7,1.5-2.8
	c0.1-0.4,0-0.9,0.1-1.3c0-0.1,0-0.1,0-0.2l-0.7,0.5c0.8-0.9,1.1-2.1,1.7-3.2c1.3-2.4,3.4-4.2,6-4.9c2.4-0.7,5-0.5,7.5,0.1
	c2.3,0.6,4.6,1.5,6.6,2.7c0.7,0.4,1.4,0.9,1.9,1.6c0.5,0.7,0.8,1.4,1.1,2.1c0.7,1.5,2.7,2.9,1.1,3.1c-1.3,0.2-0.1,1.1,0.6,1.7
	c0.2,0.1,0.3,0.3,0.4,0.4c0.2,0.5,0.2,1-0.1,1.5C149.7,68.7,150.8,68.7,150.4,68.9z"/>
<path class="st9" d="M149.6,66.4l-0.1,1.6c0,0-15.6-19.8-27.8,2.6c0,0-0.1-0.3-0.2-0.7c0.2-0.3,0.5-0.6,0.6-0.9
	c0.2-0.6-0.1-1.3,0-1.9c0.1-1.1,1.3-1.7,1.5-2.8c0.1-0.4,0-0.9,0.1-1.3c0-0.1,0-0.1,0-0.2l-0.7,0.5c0.8-0.9,1.1-2.1,1.7-3.2
	c1.3-2.4,3.4-4.2,6-4.9c2.4-0.7,5-0.5,7.5,0.1c2.3,0.6,4.6,1.5,6.6,2.7c0.7,0.4,1.4,0.9,1.9,1.6c0.5,0.7,0.8,1.4,1.1,2.1
	c0.7,1.5,2.7,2.9,1.1,3.1C147.8,64.9,149,65.8,149.6,66.4z"/>
<g class="st16">
	<path d="M150,68.7c-0.2,0.2-0.2,0.4-0.2,0.6c-0.4,0.3-0.9-0.1-1.2-0.5c-0.3-0.4-0.7-1-1.1-0.9c-0.2,0.1-0.4,0.2-0.7,0.3
		c-0.7,0.2-1.4-0.6-1.8-1.4c-0.7-1.3-1.5-2.7-2.2-4c-1.5,0.8-3.2,0-4.6-0.9s-3.2-1.8-4.6-0.9c-2.1,1.2-2.2,5.4-4.4,6.4
		c-0.7,0.3-1.5,0.3-2.2,0.7c-0.7,0.4-1,1.3-1.3,2.1c-0.1,0.5-0.4,0.9-0.7,1.2c-0.2,0.1-0.5,0.2-0.8,0.2c-0.7,0.1-1.3,0-1.9-0.3
		c-0.4-0.2-0.6-0.6-0.7-1c-0.2,0.7,0.1,1.4,0.7,1.8c0.6,0.3,1.3,0.4,1.9,0.3c0.3,0,0.5-0.1,0.8-0.2c0.4-0.3,0.6-0.7,0.7-1.2
		c0.3-0.8,0.6-1.7,1.3-2.1c0.7-0.5,1.5-0.4,2.2-0.7c2.2-1,2.3-5.1,4.4-6.4c1.5-0.8,3.2,0,4.6,0.9s3.2,1.8,4.6,0.9
		c0.7,1.3,1.5,2.7,2.2,4c0.4,0.8,1,1.6,1.8,1.4c0.2-0.1,0.4-0.2,0.7-0.3c0.5-0.1,0.8,0.5,1.1,0.9c0.3,0.4,0.8,0.8,1.2,0.5
		c0-0.4,0.2-0.9,0.6-1C150.8,69,150.2,68.9,150,68.7z"/>
	<path d="M148.8,65c0.1,0,0.2-0.1,0.4-0.1c0.7-0.1,0.7-0.4,0.4-0.9c-0.1,0.1-0.3,0.1-0.4,0.1C148.4,64.2,148.5,64.6,148.8,65z"/>
	<path d="M150.2,68.1c0.1-0.2,0.1-0.5,0-0.7c0,0.1-0.1,0.3-0.2,0.4C149.9,67.9,150.1,68,150.2,68.1z"/>
	<path d="M122.3,67c0,0,0,0.1,0,0.1c0,0.3,0,0.7,0.1,1C122.3,67.8,122.3,67.4,122.3,67z"/>
	<path d="M123.8,62.5c-0.2,0.3-0.4,0.6-0.6,0.9l0.6-0.4C123.7,62.8,123.7,62.6,123.8,62.5z"/>
</g>
<path class="st12" d="M121.7,70.2c0,0-2.2-10.1-1.5-11.7c0,0-1.9-4-1.9-4.9c-0.1-1.6-0.6-3.1-1.4-4.5c-1-1.6-2.1-9.1,4-10.9
	c6.1-1.8,10.8-3.4,11.6-4.6c0.7-1.2,11.2-0.5,14.1,4.3s4.7,3.8,4.7,3.8s4.4,2.8,4.4,5.2c0,2.5-1.3,3.7,0,4.3
	c1.3,0.6,0.3,10.8-5.5,11.1l-0.5,5.4C149.5,67.6,133.9,47.8,121.7,70.2z"/>
<path class="st9" d="M122.4,40.2c0,0-1.4,7.9,1.1,10.6L122.4,40.2z"/>
<path class="st9" d="M128.7,38.3c0,0-3.4,8.5-2.6,10.1L128.7,38.3z"/>
<path class="st9" d="M131.7,35.6c0,0-2.3,11-1.2,11.9L131.7,35.6z"/>
<path class="st9" d="M135.7,38.6c0,0-2.9,7.1-1.7,8.1L135.7,38.6z"/>
<path class="st9" d="M141.1,39.5c0,0-3.4,5.8-2.7,6.8L141.1,39.5z"/>
<path class="st9" d="M149.3,42.6c0,0-3,0.6-2.4,1.4L149.3,42.6z"/>
<path class="st9" d="M151.6,51.1c0,0-3.3,1.6-2.7,2.4L151.6,51.1z"/>
<path class="st9" d="M120.2,58.5c0,0,20.8-8.5,29.8,3.7C150,62.2,139.1,52.9,120.2,58.5z"/>
<polygon class="st14" points="112.6,128 115.5,125.1 123.7,133.2 120.8,136.1 113.3,128.7 "/>
<path class="st13" d="M93.6,109.2c0,0,12.7,1.1,24.5,14.4l-4.9,5L93.6,109.2z"/>
<path class="st11" d="M131.7,133c0,0-12.2-4.5-13.4-5.5c-1.2-1.1-8.3,5.1,0.4,13.5c0,0,10.5,3,13.3,0C134.8,138,131.7,133,131.7,133
	z"/>
</svg>
