<?xml version="1.0" encoding="utf-8"?>
<!-- Generator: Adobe Illustrator 23.0.2, SVG Export Plug-In . SVG Version: 6.00 Build 0)  -->
<svg version="1.1" id="f698cf57-4f6b-4529-a39c-70592e247574"
	 xmlns="http://www.w3.org/2000/svg" xmlns:xlink="http://www.w3.org/1999/xlink" x="0px" y="0px" viewBox="0 0 280 230"
	 style="enable-background:new 0 0 280 230;" xml:space="preserve">
<style type="text/css">
	.st0{opacity:0.75;}
	.st1{fill:#373280;}
	.st2{opacity:0.22;}
	.st3{fill:#231F20;}
	.st4{fill:#FFFFFF;}
	.st5{opacity:0.48;fill:#231F20;enable-background:new    ;}
	.st6{opacity:0.2;fill:#231F20;enable-background:new    ;}
</style>
<g class="st0">
	<path class="st1" d="M252.2,183.9c-0.2,0.6-0.4,1.1-0.6,1.6c-11.5,7.1-23.6,12.2-36.3,15.1c-7.1,1.6-14.4,3.2-22,4.7l0,0
		c-7.9,0.5-15.8,0.4-23.6,0.4c-23.1-0.2-46.2-0.2-69.2-2.5c-10.6-1-21-2.5-31.2-6.1c-13.9-5-26.6-14-37.1-26.2
		c-0.4-0.4-0.8-0.9-1.1-1.3c-2.2-2.7-4.3-5.7-5.2-9.3c-1.4-5-0.7-10.3,0.9-15.3l219.4,3c-0.9,6.1-0.2,12.5,1.9,18.3
		c0.2,0.4,0.4,0.9,0.5,1.3C250.7,172.8,253.8,178.4,252.2,183.9z"/>
	<path class="st1" d="M254.4,43.7H42.1l0.5-0.3c11.9-7.1,24.9-10.9,38.1-11.3c7.7-0.2,15.7,0.7,22.9-2.6c4-1.9,7.7-5.1,11.9-6.3
		c7.1-2.1,14.5,1.6,20.9,6.1c3.6,2.5,7.3,5.3,11.1,7.5c2.8,1.6,6,3.4,9,4.3c2.9,1,5.9-1,8.5-2.5c5.5-3.4,10.8-8.5,17.2-9.3
		c8.1-1,16.1,5.4,24.1,3.4c3.4-0.9,6.4-3.2,9.7-4.5c8.7-3.4,18,0.7,26.2,5.6C246.7,36.2,251.2,39.2,254.4,43.7z"/>
	<path class="st1" d="M34.3,93c2.5,8.2,4.6,16.6,3.2,25c-1.1,6.8-4.6,12.6-7.4,18.7l216.3,9.6c0.2-1.3,0.6-2.6,1-3.9
		c2.7-8.5,8.4-15.1,12-23.1c1.4-3.2,2.5-6.6,3.3-10.1L34.3,93z"/>
	<path class="st1" d="M260,60.4c-1-5.1-2-10.2-4.3-14.5L32.3,52.5c-0.2,0.2-0.3,0.5-0.5,0.7c-5.3,9.2-3.2,21.8,0,32.3
		c0.5,1.7,1.1,3.5,1.7,5.3H264C263.7,80.7,261.9,70.3,260,60.4z M72.8,73.2h-5.5c1.5-0.1,2.7,1.4,2.8,3.2c0.1,1.8-1.1,3.4-2.7,3.4
		c-0.1,0-0.1,0-0.2,0H35.6c-1.5,0.1-2.7-1.4-2.8-3.2c-0.1-1.8,1.1-3.4,2.7-3.4c0.1,0,0.1,0,0.2,0h5.5c-1.5,0.1-2.7-1.4-2.8-3.2
		c-0.1-1.8,1.1-3.4,2.7-3.4c0.1,0,0.1,0,0.2,0h-3.9c-1.5,0-2.7-1.5-2.7-3.3c0-1.8,1.2-3.3,2.7-3.3h31.7c1.5,0,2.7,1.5,2.7,3.3
		c0,1.8-1.2,3.3-2.7,3.3h3.9c1.5-0.1,2.7,1.4,2.8,3.2c0.1,1.8-1.1,3.4-2.7,3.4C72.8,73.2,72.8,73.2,72.8,73.2L72.8,73.2z"/>
</g>
<title>Taken</title>
<g class="st2">
	<path class="st3" d="M177.5,166.6l11.1-32.9c7.8-23.5-0.6-49.4-20.9-63.8l0.1-0.1c-4.4-3.1-9.2-5.5-14.2-7.2l0,0l-0.2-0.1l-0.2-0.1
		l0,0c-4.9-1.7-10-2.6-15.2-2.9c-1.8-0.1-3.7-0.1-5.5,0c-3.2,0.2-6.3,0.6-9.4,1.3c-0.9,0.2-1.8,0.4-2.6,0.7
		c-0.8,0.2-1.7,0.5-2.6,0.8c-1.7,0.6-3.4,1.2-5,1.9c-0.8,0.4-1.6,0.7-2.4,1.1c-2.4,1.2-4.8,2.6-7,4.1c-0.7,0.5-1.5,1-2.2,1.6
		c-8.9,6.8-15.6,16-19.1,26.6l-17.4,51.9c-2.7,8.1-3.6,16.8-2.4,25.3c0.2,1.3,0.4,2.6,0.7,3.9s0.6,2.6,0.9,3.8
		c0.2,0.8,0.5,1.7,0.8,2.5c0.4,1.2,0.9,2.5,1.4,3.7c0.3,0.8,0.7,1.6,1.1,2.4c0.7,1.6,1.5,3.1,2.4,4.6s1.8,3,2.8,4.4
		c0.8,1.1,1.6,2.1,2.4,3.1c1.1,1.4,2.3,2.7,3.5,3.9c5.4,5.4,11.8,9.7,18.9,12.5l0,0l0,0l0.3,0.1c0.4-0.7,0.8-1.3,1.3-2
		c2.7-3.7,7.4-6.3,11.9-5.3c0.3,0.1,0.6,0.2,1,0.3c2.3,0.8,4.5,2.2,6.7,2.9c1.6,0.7,3.5,0.7,5-0.1c4.4-2.3,2.8-9.7,6.5-12.9
		c0.2-0.1,0.4-0.3,0.5-0.4c-0.1-0.1-0.1-0.1-0.1-0.2c2.9-1.8,6.9-0.6,10.3,0.6c3.6,1.3,8.3,2.1,10.8-0.8c1.7-2,1.6-5.1,3.2-7.2
		c1.9-2.4,5.4-2.7,8.5-2.3h0.2c5.9,2.4,12.2-1.6,11.8-7.9C174.3,176.4,176.9,168.5,177.5,166.6z"/>
</g>
<path class="st4" d="M98.2,212.4c2.6-3.6,7.1-6.1,11.5-5.1c4.3,1,8.4,5.1,12.3,3c5.3-2.8,1.5-13.1,10.1-13.9
	c1.8-0.1,3.6,0.2,5.2,0.9c3.6,1.5,9.2,3.1,12-0.2c1.6-1.9,1.5-4.9,3.1-6.9c1.8-2.3,5.2-2.6,8.2-2.2h0.1c5.6,2.3,11.8-1.5,11.4-7.6
	c-0.6-8.1,2-15.7,2.6-17.4l10.7-31.8c9.5-28.4-5.8-59-34.1-68.7l0,0c-28.4-9.5-59,5.8-68.6,34.1l-16.9,50
	c-9.1,27.3,4.6,56.9,31.3,67.6C97.4,213.5,97.8,213,98.2,212.4z"/>
<circle class="st5" cx="119.1" cy="91.6" r="5.9"/>
<circle class="st5" cx="152.4" cy="102.8" r="5.9"/>
<ellipse transform="matrix(0.319 -0.9478 0.9478 0.319 -25.7874 202.932)" class="st5" cx="128.3" cy="119.4" rx="8.8" ry="5.9"/>
<circle class="st6" cx="221" cy="61.3" r="9.8"/>
<circle class="st6" cx="251.9" cy="46" r="4.9"/>
<circle class="st4" cx="218.6" cy="59.1" r="9.8"/>
<circle class="st4" cx="249.5" cy="43.7" r="4.9"/>
</svg>
