<?xml version="1.0" encoding="utf-8"?>
<!-- Generator: Adobe Illustrator 23.0.2, SVG Export Plug-In . SVG Version: 6.00 Build 0)  -->
<svg version="1.1" id="f698cf57-4f6b-4529-a39c-70592e247574"
	 xmlns="http://www.w3.org/2000/svg" xmlns:xlink="http://www.w3.org/1999/xlink" x="0px" y="0px" viewBox="0 0 747.9 334.6"
	 style="enable-background:new 0 0 747.9 334.6;" xml:space="preserve">
<style type="text/css">
	.st0{opacity:0.41;}
	.st1{fill:#8787C6;}
	.st2{opacity:0.22;}
	.st3{fill:#231F20;}
	.st4{fill:#FFFFFF;}
	.st5{opacity:0.44;fill:#231F20;enable-background:new    ;}
	.st6{opacity:0.2;fill:#231F20;enable-background:new    ;}
	.st7{fill:#3F3D56;}
</style>
<g class="st0">
	<path class="st1" d="M710.7,281c-0.5,0.9-1.2,1.7-2,2.4c-35.6,11.2-73.7,19.1-113.1,23.5c-22,2.5-45,5-68.5,7.3l0,0
		c-24.5,0.8-49.1,0.7-73.7,0.6c-72-0.2-144-0.4-215.8-4c-32.8-1.6-65.7-3.9-97.3-9.6c-43.3-7.8-83-21.9-115.7-40.9
		c-1.2-0.6-2.3-1.4-3.5-2.1c-6.9-4.2-13.2-8.9-16.3-14.5c-4.3-7.8-2.1-16,2.9-23.8l683.7,4.7c-2.8,9.6-0.7,19.6,6,28.5
		c0.5,0.7,1.1,1.4,1.7,2.1C706.3,263.8,716,272.4,710.7,281z"/>
	<path class="st1" d="M717.7,40.7H56.2l1.5-0.6c37-12.6,77.6-19.5,118.8-20.1c24-0.3,48.9,1.3,71.4-4.6c12.6-3.4,24-9,37.2-11.3
		c22.2-3.8,45.3,2.9,65.2,10.7c11.5,4.5,22.7,9.4,34.7,13.3c8.7,2.8,18.8,5.9,28,7.7c9.1,1.7,18.5-1.7,26.4-4.5
		c17.3-6.1,33.6-15.1,53.5-16.5c25.2-1.8,50.2,9.6,75.1,5.9c10.6-1.6,20-5.7,30.3-8c27-6,56.1,1.3,81.6,9.9
		C693.8,27.2,707.9,32.6,717.7,40.7z"/>
	<path class="st1" d="M31.9,128.1c7.8,14.6,14.4,29.5,9.9,44.4c-3.6,12.1-14.1,22.5-23.3,33.1l674,16.9c0.8-2.4,1.8-4.7,3.1-6.9
		c8.5-15.1,26.2-26.8,37.4-41c4.4-5.6,7.8-11.7,10.2-17.9L31.9,128.1z M302.5,181.6h-17.1c4.7-0.1,8.6,2.5,8.7,5.7s-3.6,6-8.2,6.1
		c-0.2,0-0.3,0-0.5,0h-98.8c-4.7,0.1-8.6-2.5-8.7-5.7c-0.1-3.3,3.6-6,8.2-6.1c0.2,0,0.3,0,0.5,0h17.1c-4.7,0.1-8.6-2.5-8.7-5.7
		c-0.1-3.3,3.6-6,8.2-6.1c0.2,0,0.3,0,0.5,0h-12.2c-4.7,0-8.5-2.6-8.5-5.9c0-3.3,3.8-5.9,8.4-5.9l0,0h98.8c4.7,0,8.5,2.6,8.5,5.9
		c0,3.3-3.8,5.9-8.4,5.9l0,0h12.2c4.7-0.1,8.6,2.5,8.7,5.7s-3.6,6-8.2,6.1C302.8,181.6,302.7,181.6,302.5,181.6L302.5,181.6z"/>
	<path class="st1" d="M735.4,70.3c-3-9-6.1-18.2-13.4-25.8L26.1,56.2c-0.5,0.4-1,0.9-1.4,1.3c-16.5,16.3-10,38.7,0,57.3
		c1.7,3.1,3.4,6.3,5.2,9.4h717.9C746.8,106.3,741.2,87.9,735.4,70.3z M151.8,93.1h-17.1c4.7-0.1,8.6,2.5,8.7,5.7
		c0.1,3.3-3.6,6-8.2,6.1c-0.2,0-0.3,0-0.5,0H35.9c-4.7,0.1-8.6-2.5-8.7-5.7s3.6-6,8.2-6.1c0.2,0,0.3,0,0.5,0H53
		c-4.7,0.1-8.6-2.5-8.7-5.7c-0.1-3.3,3.6-6,8.2-6.1c0.2,0,0.3,0,0.5,0H40.8c-4.7,0-8.5-2.6-8.5-5.9s3.8-5.9,8.5-5.9h98.8
		c4.7,0,8.5,2.6,8.5,5.9s-3.8,5.9-8.5,5.9h12.2c4.7-0.1,8.6,2.5,8.7,5.7c0.1,3.3-3.6,6-8.2,6.1C152.1,93.1,151.9,93.1,151.8,93.1
		L151.8,93.1z"/>
</g>
<title>Taken</title>
<g class="st2">
	<path class="st3" d="M511.9,255.3l11.1-32.9c7.8-23.5-0.6-49.4-20.9-63.8l0.1-0.1c-4.4-3.1-9.2-5.5-14.2-7.2l0,0l-0.2-0.1l-0.2-0.1
		l0,0c-4.9-1.7-10-2.6-15.2-2.9c-1.8-0.1-3.7-0.1-5.5,0c-3.2,0.2-6.3,0.6-9.4,1.3c-0.9,0.2-1.8,0.4-2.6,0.7s-1.7,0.5-2.6,0.8
		c-1.7,0.6-3.4,1.2-5,1.9c-0.8,0.4-1.6,0.7-2.4,1.1c-2.4,1.2-4.8,2.6-7,4.1c-0.7,0.5-1.5,1-2.2,1.6c-8.9,6.8-15.6,16-19.1,26.6
		l-17.4,51.9c-2.7,8.1-3.6,16.8-2.4,25.3c0.2,1.3,0.4,2.6,0.7,3.9s0.6,2.6,0.9,3.8c0.2,0.8,0.5,1.7,0.8,2.5c0.4,1.2,0.9,2.5,1.4,3.7
		c0.3,0.8,0.7,1.6,1.1,2.4c0.7,1.6,1.5,3.1,2.4,4.6s1.8,3,2.8,4.4c0.8,1.1,1.6,2.1,2.4,3.1c1.1,1.4,2.3,2.7,3.5,3.9
		c5.4,5.4,11.8,9.7,18.9,12.5l0,0l0,0l0.3,0.1c0.4-0.7,0.8-1.3,1.3-2c2.7-3.7,7.4-6.3,11.9-5.3c0.3,0.1,0.6,0.2,1,0.3
		c2.3,0.8,4.5,2.2,6.7,2.9c1.6,0.7,3.5,0.7,5-0.1c4.4-2.3,2.8-9.7,6.5-12.9c0.2-0.1,0.4-0.3,0.5-0.4c-0.1-0.1-0.1-0.1-0.1-0.2
		c2.9-1.8,6.9-0.6,10.3,0.6c3.6,1.3,8.3,2.1,10.8-0.8c1.7-2,1.6-5.1,3.2-7.2c1.9-2.4,5.4-2.7,8.5-2.3h0.2c5.9,2.4,12.2-1.6,11.8-7.9
		C508.7,265,511.3,257.1,511.9,255.3z"/>
</g>
<path class="st4" d="M432.6,301c2.6-3.6,7.1-6.1,11.5-5.1c4.3,1,8.4,5.1,12.3,3c5.3-2.8,1.5-13.1,10.1-13.9c1.8-0.1,3.6,0.2,5.2,0.9
	c3.6,1.5,9.2,3.1,12-0.2c1.6-1.9,1.5-4.9,3.1-6.9c1.8-2.3,5.2-2.6,8.2-2.2h0.1c5.6,2.3,11.8-1.5,11.4-7.6c-0.6-8.1,2-15.7,2.6-17.4
	l10.7-31.8c9.5-28.4-5.8-59-34.1-68.7l0,0c-28.4-9.5-59,5.8-68.6,34.1l-16.9,50c-9.1,27.3,4.6,56.9,31.3,67.6
	C431.8,302.2,432.2,301.6,432.6,301z"/>
<circle class="st5" cx="453.5" cy="180.2" r="5.9"/>
<circle class="st5" cx="486.8" cy="191.4" r="5.9"/>
<ellipse transform="matrix(0.319 -0.9478 0.9478 0.319 117.9096 580.2578)" class="st5" cx="462.7" cy="208.1" rx="8.8" ry="5.9"/>
<circle class="st6" cx="555.4" cy="150" r="9.8"/>
<circle class="st6" cx="586.3" cy="134.6" r="4.9"/>
<circle class="st4" cx="553" cy="147.7" r="9.8"/>
<circle class="st4" cx="583.9" cy="132.3" r="4.9"/>
<path class="st7" d="M201.5,302.9c0,0-36.5-1.6-40.3-73c-3.8-71.5,34.3-83.6,34.3-83.6s12.1-6.7,17.4-7c5.3-0.3,23.2,1.4,23.2,1.4
	l-19.7-3.8c0,0,27.7-10.5,36-11.4l-30,6.3c0,0-0.4-16.6,6.8-22.1c0,0-6.1-0.4-9.4,11.5c-1.9,7-7,12.7-13.7,15.4
	c-11.1,4.3-26.5,11.2-30,17c0,0-6.4,6.8-5.5-10.9c1-17.7,5.7-32.7,7.3-33c0,0,13.2-14.1,31.8-15c0,0-10.9-4.3-29.1,9.3
	c0,0-1.6-6.9,5.4-15c6.9-8.2,17.6-25.3,29.3-27.1c0,0-16.3-1-29.3,20.1c0,0-4.8,3.1-5.2-4.8s-3.2-17.7-3.2-17.7s-3.9,18.2,4.3,26.3
	c0,0-15.9,20.7-15.2,43.9c0,0-5,10.5-6.8-1.8c0,0-1-17-3.2-31.6c-1.7-11.8,1.6-23.7,9-33c3.5-4.3,6-8.6,4.6-10.9l-18.4,21.9
	c0,0-15.5-35.9-26.8-43.6s-12.7-9.4-12.7-9.4l18.2,21.2l-22.8-8L130.6,45c0,0,10.5,8.6,16.6,32.1s6.6,38.2,6.6,38.2
	s-32.8-25.8-38.9-25l21,15.9c11.6,8.8,18.8,22.1,19.7,36.6l0,0c0,0-40.7-10.4-50.5-12.3l-18.6-19l14.1,18l-29-0.4L55,117.3
	c0,0,13.1,11,11.8,11.7c-1.3,0.7-20.4,1.6-20.4,1.6s48.7-0.3,54.1,3.2s17.3,4.8,17.3,4.8l-34.5,5.2l41.1-3c0,0,31.1,5.7,32.8,15.4
	c0,0-6.3,16.5-10.5,23c-3.5,5.5-10.5,23-12,38.5c-1.4,15.5-3.4,39.3,2,53.7c5.4,14.5,7.3,22.8,4.6,27.1c-2.7,4.3-5.2,10,3.5,11.1
	s47-0.5,47-0.5S203.7,311.6,201.5,302.9z"/>
</svg>
