<?xml version="1.0" encoding="utf-8"?>
<!-- Generator: Adobe Illustrator 23.0.2, SVG Export Plug-In . SVG Version: 6.00 Build 0)  -->
<svg version="1.1" id="f698cf57-4f6b-4529-a39c-70592e247574"
	 xmlns="http://www.w3.org/2000/svg" xmlns:xlink="http://www.w3.org/1999/xlink" x="0px" y="0px" viewBox="0 0 322 238.7"
	 style="enable-background:new 0 0 322 238.7;" xml:space="preserve">
<style type="text/css">
	.st0{opacity:0.75;}
	.st1{fill:#425370;}
	.st2{opacity:0.22;}
	.st3{fill:#231F20;}
	.st4{fill:#FFFFFF;}
	.st5{opacity:0.36;fill:#231F20;enable-background:new    ;}
	.st6{opacity:0.2;fill:#231F20;enable-background:new    ;}
</style>
<g class="st0">
	<path class="st1" d="M303.5,200.7c-0.2,0.7-0.5,1.3-0.8,1.9c-15.1,8.7-31.1,14.9-47.8,18.4c-9.3,2-19,3.9-28.9,5.7l0,0
		c-10.4,0.6-20.8,0.5-31.1,0.5c-30.4-0.2-60.8-0.3-91.1-3.1c-13.9-1.2-27.7-3-41.1-7.5c-18.3-6.1-35-17.1-48.8-32
		c-0.5-0.5-1-1.1-1.5-1.6c-2.9-3.3-5.6-7-6.9-11.4C3.7,165.5,4.6,159,6.7,153l288.7,3.7c-1.2,7.5-0.3,15.3,2.5,22.3
		c0.2,0.5,0.5,1.1,0.7,1.6C301.6,187.2,305.7,194,303.5,200.7z"/>
	<path class="st1" d="M306.4,29.7H27l0.6-0.4C43.3,20.7,60.4,16,77.8,15.5c10.1-0.2,20.7,0.9,30.1-3.2c5.3-2.3,10.1-6.2,15.7-7.7
		c9.4-2.6,19.1,2,27.5,7.4c4.8,3.1,9.6,6.5,14.6,9.1c3.7,1.9,7.9,4.1,11.8,5.3c3.8,1.2,7.8-1.2,11.2-3.1
		c7.3-4.2,14.2-10.4,22.6-11.4c10.7-1.2,21.2,6.6,31.7,4.1c4.5-1.1,8.4-3.9,12.8-5.5c11.4-4.1,23.7,0.9,34.5,6.8
		C296.3,20.5,302.2,24.2,306.4,29.7z"/>
	<path class="st1" d="M16.8,89.8c3.3,10,6.1,20.3,4.2,30.5c-1.5,8.3-6,15.4-9.8,22.8l284.6,11.7c0.3-1.6,0.8-3.2,1.3-4.7
		c3.6-10.4,11.1-18.4,15.8-28.2c1.9-3.9,3.3-8,4.3-12.3L16.8,89.8z"/>
	<path class="st1" d="M313.8,50.1c-1.3-6.2-2.6-12.5-5.7-17.7l-293.9,8c-0.2,0.3-0.4,0.6-0.6,0.9c-7,11.2-4.2,26.6,0,39.4
		c0.7,2.1,1.4,4.3,2.2,6.5H319C318.7,74.8,316.3,62.2,313.8,50.1z M67.4,65.7h-7.2c2-0.1,3.6,1.7,3.7,3.9c0.1,2.2-1.5,4.1-3.5,4.2
		c-0.1,0-0.1,0-0.2,0H18.5c-2,0.1-3.6-1.7-3.7-3.9c-0.1-2.2,1.5-4.1,3.5-4.2c0.1,0,0.1,0,0.2,0h7.2c-2,0.1-3.6-1.7-3.7-3.9
		s1.5-4.1,3.5-4.2c0.1,0,0.1,0,0.2,0h-5.1c-2,0-3.6-1.8-3.6-4s1.6-4,3.6-4h41.7c2,0,3.6,1.8,3.6,4s-1.6,4-3.6,4h5.1
		c2-0.1,3.6,1.7,3.7,3.9s-1.5,4.1-3.5,4.2C67.5,65.7,67.5,65.7,67.4,65.7L67.4,65.7z"/>
</g>
<title>Taken</title>
<g class="st2">
	<path class="st3" d="M198.5,171l11.1-32.9c7.8-23.5-0.6-49.4-20.9-63.8l0.1-0.1c-4.4-3.1-9.2-5.5-14.2-7.2l0,0l-0.2-0.1l-0.2-0.1
		l0,0c-4.9-1.7-10-2.6-15.2-2.9c-1.8-0.1-3.7-0.1-5.5,0c-3.2,0.2-6.3,0.6-9.4,1.3c-0.9,0.2-1.8,0.4-2.6,0.7
		c-0.8,0.2-1.7,0.5-2.6,0.8c-1.7,0.6-3.4,1.2-5,1.9c-0.8,0.4-1.6,0.7-2.4,1.1c-2.4,1.2-4.8,2.6-7,4.1c-0.7,0.5-1.5,1-2.2,1.6
		c-8.9,6.8-15.6,16-19.1,26.6l-17.4,51.9c-2.7,8.1-3.6,16.8-2.4,25.3c0.2,1.3,0.4,2.6,0.7,3.9s0.6,2.6,0.9,3.8
		c0.2,0.8,0.5,1.7,0.8,2.5c0.4,1.2,0.9,2.5,1.4,3.7c0.3,0.8,0.7,1.6,1.1,2.4c0.7,1.6,1.5,3.1,2.4,4.6s1.8,3,2.8,4.4
		c0.8,1.1,1.6,2.1,2.4,3.1c1.1,1.4,2.3,2.7,3.5,3.9c5.4,5.4,11.8,9.7,18.9,12.5l0,0l0,0l0.3,0.1c0.4-0.7,0.8-1.3,1.3-2
		c2.7-3.7,7.4-6.3,11.9-5.3c0.3,0.1,0.6,0.2,1,0.3c2.3,0.8,4.5,2.2,6.7,2.9c1.6,0.7,3.5,0.7,5-0.1c4.4-2.3,2.8-9.7,6.5-12.9
		c0.2-0.1,0.4-0.3,0.5-0.4c-0.1-0.1-0.1-0.1-0.1-0.2c2.9-1.8,6.9-0.6,10.3,0.6c3.6,1.3,8.3,2.1,10.8-0.8c1.7-2,1.6-5.1,3.2-7.2
		c1.9-2.4,5.4-2.7,8.5-2.3h0.2c5.9,2.4,12.2-1.6,11.8-7.9C195.3,180.7,197.9,172.8,198.5,171z"/>
</g>
<path class="st4" d="M119.2,216.7c2.6-3.6,7.1-6.1,11.5-5.1c4.3,1,8.4,5.1,12.3,3c5.3-2.8,1.5-13.1,10.1-13.9
	c1.8-0.1,3.6,0.2,5.2,0.9c3.6,1.5,9.2,3.1,12-0.2c1.6-1.9,1.5-4.9,3.1-6.9c1.8-2.3,5.2-2.6,8.2-2.2h0.1c5.6,2.3,11.8-1.5,11.4-7.6
	c-0.6-8.1,2-15.7,2.6-17.4l10.7-31.8c9.5-28.4-5.8-59-34.1-68.7l0,0c-28.4-9.5-59,5.8-68.6,34.1l-16.9,50
	c-9.1,27.3,4.6,56.9,31.3,67.6C118.4,217.9,118.8,217.3,119.2,216.7z"/>
<circle class="st5" cx="140.1" cy="95.9" r="5.9"/>
<circle class="st5" cx="173.4" cy="107.1" r="5.9"/>
<ellipse transform="matrix(0.319 -0.9478 0.9478 0.319 -15.6489 225.7744)" class="st5" cx="149.3" cy="123.8" rx="8.8" ry="5.9"/>
<circle class="st6" cx="242" cy="65.7" r="9.8"/>
<circle class="st6" cx="272.9" cy="50.3" r="4.9"/>
<circle class="st4" cx="239.6" cy="63.4" r="9.8"/>
<circle class="st4" cx="270.5" cy="48" r="4.9"/>
</svg>
