<?xml version="1.0" encoding="utf-8"?>
<!-- Generator: Adobe Illustrator 23.0.2, SVG Export Plug-In . SVG Version: 6.00 Build 0)  -->
<svg version="1.1" id="b07e7c8b-ffb9-458f-9d0a-e368c1cfe139"
	 xmlns="http://www.w3.org/2000/svg" xmlns:xlink="http://www.w3.org/1999/xlink" x="0px" y="0px" viewBox="0 0 1020 452"
	 style="enable-background:new 0 0 1020 452;" xml:space="preserve">
<style type="text/css">
	.st0{fill:#F2F2F2;}
	.st1{fill:#3F3D56;}
	.st2{fill:#6C63FF;}
	.st3{fill:#FFFFFF;}
	.st4{fill:#2F2E41;}
	.st5{fill:#FFB8B8;}
	.st6{opacity:0.1;enable-background:new    ;}
	.st7{opacity:0.2;enable-background:new    ;}
</style>
<title>online_organizer</title>
<path class="st0" d="M298.6,403.6l-26.5-74.2c0,0,29.1,14.6,30.5,33.1c0,0-6.6-92.7-19.9-112.6c0,0,21.2,2.6,45,106
	c0,0,4-119.2-31.8-153.7c0,0,49,39.7,53,125.8v75.5L298.6,403.6z"/>
<path class="st0" d="M761.5,402l-6.4-17.8c0,0,7,3.5,7.3,8c0,0-1.6-22.3-4.8-27.1c0,0,5.1,0.6,10.8,25.5c0,0,1-28.7-7.6-36.9
	c0,0,11.8,9.6,12.7,30.3v18H761.5z"/>
<circle class="st0" cx="658.6" cy="288.3" r="116.5"/>
<rect y="8.8" class="st0" width="274.7" height="152.6"/>
<rect x="745.3" y="8.8" class="st0" width="274.7" height="152.6"/>
<g>
	<path class="st1" d="M698.5,405.1c-0.2-0.3-4.5-7.6-6-22.6c-1.4-13.8-0.5-37.1,11.6-69.6c22.9-61.6-5.3-111.3-5.6-111.8l1.4-0.8
		c0.1,0.1,7.3,12.8,11.6,33c5.7,26.7,3.6,54.5-6,80.2c-22.9,61.5-5.9,90.6-5.7,90.9L698.5,405.1z"/>
	<circle class="st2" cx="689.6" cy="187" r="10.4"/>
	<circle class="st1" cx="722.5" cy="225.6" r="10.4"/>
	<circle class="st2" cx="700" cy="251.3" r="10.4"/>
	<circle class="st2" cx="727.3" cy="273" r="10.4"/>
	<circle class="st1" cx="692" cy="306.7" r="10.4"/>
	<path class="st1" d="M704.8,405.5c0,0-10.4-25.7,20.9-45L704.8,405.5z"/>
	<path class="st1" d="M692,405c0,0-4.8-27.3-41.5-27.1L692,405z"/>
</g>
<rect x="0.4" class="st1" width="273.9" height="13.7"/>
<rect x="745.7" class="st1" width="273.9" height="13.7"/>
<rect x="20.9" y="34.9" class="st3" width="49.8" height="35.3"/>
<rect x="116.5" y="34.9" class="st3" width="137.3" height="4"/>
<rect x="116.5" y="51" class="st3" width="137.3" height="4"/>
<rect x="116.5" y="67.1" class="st3" width="137.3" height="4"/>
<g>
	<rect x="372.7" y="8.8" class="st0" width="274.7" height="152.6"/>
	<rect x="373.1" class="st1" width="274.7" height="13.7"/>
	<rect x="393.5" y="34.9" class="st3" width="49.8" height="35.3"/>
	<rect x="489.1" y="34.9" class="st3" width="137.3" height="4"/>
	<rect x="489.1" y="51" class="st3" width="137.3" height="4"/>
	<rect x="489.1" y="67.1" class="st3" width="137.3" height="4"/>
</g>
<rect x="766.2" y="34.9" class="st3" width="49.8" height="35.3"/>
<rect x="861.8" y="34.9" class="st3" width="137.3" height="4"/>
<rect x="861.8" y="51" class="st3" width="137.3" height="4"/>
<rect x="861.8" y="67.1" class="st3" width="137.3" height="4"/>
<circle class="st2" cx="45.8" cy="53" r="16.1"/>
<circle class="st2" cx="791.1" cy="53" r="16.1"/>
<rect x="126.7" y="161.4" class="st1" width="1.6" height="4.8"/>
<path class="st1" d="M128.3,307.1h-1.6v-6.9h1.6V307.1z M128.3,293.3h-1.6v-6.9h1.6V293.3z M128.3,279.4h-1.6v-6.9h1.6V279.4z
	 M128.3,265.6h-1.6v-6.9h1.6V265.6z M128.3,251.8h-1.6v-6.9h1.6V251.8z M128.3,238h-1.6v-6.9h1.6V238z M128.3,224.2h-1.6v-6.9h1.6
	V224.2z M128.3,210.4h-1.6v-6.9h1.6V210.4z M128.3,196.6h-1.6v-6.9h1.6V196.6z M128.3,182.8h-1.6v-6.9h1.6V182.8z"/>
<polygon class="st1" points="131.8,320.6 126.2,320.6 126.2,315 127.8,315 127.8,319 131.8,319 "/>
<path class="st1" d="M868.2,321.3h-9.7v-1.6h9.7V321.3z M848.8,321.3h-9.7v-1.6h9.7V321.3z M829.4,321.3h-9.7v-1.6h9.7V321.3z
	 M810.1,321.3h-9.7v-1.6h9.7V321.3z M790.7,321.3H781v-1.6h9.7V321.3z M771.3,321.3h-9.7v-1.6h9.7V321.3z M752,321.3h-9.7v-1.6h9.7
	V321.3z M732.6,321.3h-9.7v-1.6h9.7V321.3z M713.3,321.3h-9.7v-1.6h9.7V321.3z M693.9,321.3h-9.7v-1.6h9.7V321.3z M674.5,321.3h-9.7
	v-1.6h9.7V321.3z M655.2,321.3h-9.7v-1.6h9.7V321.3z M635.8,321.3h-9.7v-1.6h9.7V321.3z M616.4,321.3h-9.7v-1.6h9.7V321.3z
	 M597.1,321.3h-9.7v-1.6h9.7V321.3z M577.7,321.3H568v-1.6h9.7V321.3z M558.3,321.3h-9.7v-1.6h9.7V321.3z M539,321.3h-9.7v-1.6h9.7
	V321.3z M519.6,321.3h-9.7v-1.6h9.7V321.3z M500.2,321.3h-9.7v-1.6h9.7V321.3z M480.9,321.3h-9.7v-1.6h9.7V321.3z M461.5,321.3h-9.7
	v-1.6h9.7V321.3z M442.2,321.3h-9.7v-1.6h9.7V321.3z M422.8,321.3h-9.7v-1.6h9.7V321.3z M403.4,321.3h-9.7v-1.6h9.7V321.3z
	 M384.1,321.3h-9.7v-1.6h9.7V321.3z M364.7,321.3H355v-1.6h9.7V321.3z M345.3,321.3h-9.7v-1.6h9.7V321.3z M326,321.3h-9.7v-1.6h9.7
	V321.3z M306.6,321.3h-9.7v-1.6h9.7V321.3z M287.2,321.3h-9.7v-1.6h9.7V321.3z M267.9,321.3h-9.7v-1.6h9.7V321.3z M248.5,321.3h-9.7
	v-1.6h9.7V321.3z M229.2,321.3h-9.7v-1.6h9.7V321.3z M209.8,321.3h-9.7v-1.6h9.7V321.3z M190.4,321.3h-9.7v-1.6h9.7V321.3z
	 M171.1,321.3h-9.7v-1.6h9.7V321.3z M151.7,321.3H142v-1.6h9.7V321.3z"/>
<polygon class="st1" points="883,320.6 877.3,320.6 877.3,319 881.4,319 881.4,315 883,315 "/>
<path class="st1" d="M883.5,307.1h-1.6v-6.9h1.6V307.1z M883.5,293.3h-1.6v-6.9h1.6V293.3z M883.5,279.4h-1.6v-6.9h1.6V279.4z
	 M883.5,265.6h-1.6v-6.9h1.6V265.6z M883.5,251.8h-1.6v-6.9h1.6V251.8z M883.5,238h-1.6v-6.9h1.6V238z M883.5,224.2h-1.6v-6.9h1.6
	V224.2z M883.5,210.4h-1.6v-6.9h1.6V210.4z M883.5,196.6h-1.6v-6.9h1.6V196.6z M883.5,182.8h-1.6v-6.9h1.6V182.8z"/>
<rect x="881.9" y="161.4" class="st1" width="1.6" height="4.8"/>
<g>
	<rect x="391.7" y="242.4" class="st1" width="228.6" height="148.6"/>
	<rect x="409" y="273.5" class="st3" width="41.4" height="29.4"/>
	<rect x="488.6" y="273.5" class="st3" width="114.3" height="3.3"/>
	<rect x="488.6" y="286.9" class="st3" width="114.3" height="3.3"/>
	<rect x="488.6" y="300.2" class="st3" width="114.3" height="3.3"/>
	<rect x="409.9" y="344.1" class="st3" width="41.4" height="29.4"/>
	<rect x="489.5" y="344.1" class="st3" width="114.3" height="3.3"/>
	<rect x="489.5" y="357.5" class="st3" width="114.3" height="3.3"/>
	<rect x="489.5" y="370.9" class="st3" width="114.3" height="3.3"/>
	<polygon class="st2" points="430,295.6 415.8,276.7 419.1,274.2 430.6,289.6 460.1,265.7 462.8,269 	"/>
	<polygon class="st2" points="430.8,365.3 416.7,346.4 420,343.9 431.6,359.3 461,335.4 463.7,338.7 	"/>
	<path class="st1" d="M534.8,113.4c0,0,22.1-9.6,32.5,0.6C577.6,124.2,539.4,120.8,534.8,113.4z"/>
	<path class="st4" d="M572.8,67.8c-7.4-12.5-22.1-13.1-22.1-13.1s-14.3-1.8-23.5,17.2c-8.6,17.8-20.3,35-1.9,39.1l3.3-10.4l2.1,11.2
		c2.7,0.2,5.2,0.2,7.9,0.2c19.7-0.7,38.5,0.2,38-6.9C575.8,95.6,580,79.9,572.8,67.8z"/>
	<path class="st5" d="M583.2,294.9c0,0-9.3,17.4-15.4,17.4s-5.3,11.4-4,14.1c1.3,2.7,4.7,8.7-0.7,17.4c-1.8,3-1.5,6.5-0.3,9.7
		c3.4,9,16.8,6.2,16.4-3.3c0-0.1,0-0.2,0-0.3c-0.7-10.7,4.7-27.4,10-31.4c5.3-4,10-14.7,10-14.7L583.2,294.9z"/>
	<path class="st5" d="M519,290.9c0,0,9.3,17.4,15.4,17.4c6.1,0,5.3,11.4,4,14.1c-1.3,2.7-4.7,8.7,0.7,17.4c1.8,3,1.5,6.5,0.3,9.7
		c-3.4,9-16.8,6.2-16.4-3.3c0-0.1,0-0.2,0-0.3c0.7-10.7-4.7-27.4-10-31.4c-5.3-4-10-14.7-10-14.7L519,290.9z"/>
	<path class="st4" d="M526.4,205.3l-4,8.7c0,0-58.8,19.4-53.5,42.1s31.4,58.2,35.5,56.8c4.1-1.3,25.4-5.3,26-16.7
		c0.7-11.4-15.4-31.4-15.4-31.4l22.1-20.1l32.1-0.7l27.4,20.7c0,0-28.7,25.4-16.1,35.5s31.4,16.7,34.1,12.7c2.7-4,32.8-63.5,28-68.8
		c-4.7-5.3-52.1-25.4-52.1-25.4l-12.7-18.1l-49.4-2.7L526.4,205.3z"/>
	<path class="st5" d="M538.4,95.1c0,0,3.3,22.1-3.3,24.7c-6.7,2.7,13.4,14.1,13.4,14.1h11.4l7.3-15.4c0,0-6.7-12.1-2.7-23.4
		S538.4,95.1,538.4,95.1z"/>
	<path class="st6" d="M538.4,95.1c0,0,3.3,22.1-3.3,24.7c-6.7,2.7,13.4,14.1,13.4,14.1h11.4l7.3-15.4c0,0-6.7-12.1-2.7-23.4
		S538.4,95.1,538.4,95.1z"/>
	<path class="st3" d="M533.8,113.8c0,0,7.3,8,8.7,9.3c1.3,1.3,7.3,8.7,20.1-2c12.7-10.7,14.1,2,14.1,2v80.2c0,0-10.7-4.7-19.4,0
		c-8.7,4.7-26.7-1.3-26.7-1.3l-3.3-82.9L533.8,113.8z"/>
	<path class="st2" d="M538.7,113.8c0,0-6.2-2.7-11.6,0c-5.3,2.7-24.1,16.1-22.7,22.1c1.3,6,18.7,48.1,6.7,68.2
		C499,224.1,497,229.4,497,229.4l29.4-15.4c0,0,22.7-14.1,20.7-22.7C545.1,182.6,538.7,113.8,538.7,113.8z"/>
	<path class="st2" d="M565.1,113.8c0,0,14.1,1.3,14.7,2.7s21.1,7,19.7,13.1c-1.3,6.1-19.7,59.8-11.7,69.8s21.4,24.1,16.7,25.4
		s-12.7-2-20.7,0s-26.7-14.7-24.7-32.8C561.1,173.9,559.1,118.4,565.1,113.8z"/>
	<path class="st5" d="M531.8,241.4v6.7c0,0-3.3,15.4,7.3,14.7c10.7-0.7,4-18.7,4-18.7l-0.7-6L531.8,241.4z"/>
	<path class="st5" d="M561.8,242.1c0,0-7.3,15.4,0,16.7c7.3,1.3,12.7-8.7,12.7-11.4C574.5,244.7,561.8,242.1,561.8,242.1z"/>
	<ellipse class="st5" cx="571.5" cy="86" rx="1.3" ry="2.7"/>
	<ellipse class="st5" cx="532.1" cy="86" rx="1.3" ry="2.7"/>
	<path class="st2" d="M583.2,122.4c0,0,16.7,0,16.1,6.7c-0.7,6.7-22.7,121.7-22.7,121.7s-9.3-8.7-17.4-6.7L583.2,122.4z"/>
	<path class="st2" d="M518.4,124.4c0,0-16.7,3.3-16.7,13.4s24.1,106.3,27.4,106.3s16.1-2,16.1-5.3S518.4,124.4,518.4,124.4z"/>
	<path class="st7" d="M522,144.2l15.1,58.8C537.1,203,530.1,151.5,522,144.2z"/>
	<path class="st7" d="M580.5,135.9l-15.2,76.9C565.3,212.8,570.2,140.3,580.5,135.9z"/>
	<circle class="st5" cx="551.8" cy="86.3" r="19.4"/>
	<polygon class="st4" points="569.6,66.6 555.1,59 535.1,62.2 530.9,80.4 541.3,80 544.1,73.3 544.1,79.9 548.8,79.7 551.6,69 
		553.3,80.4 570.2,80.1 	"/>
</g>
</svg>
