<?xml version="1.0" encoding="utf-8"?>
<!-- Generator: Adobe Illustrator 23.0.2, SVG Export Plug-In . SVG Version: 6.00 Build 0)  -->
<svg version="1.1" id="b07e7c8b-ffb9-458f-9d0a-e368c1cfe139"
	 xmlns="http://www.w3.org/2000/svg" xmlns:xlink="http://www.w3.org/1999/xlink" x="0px" y="0px" viewBox="0 0 549.7 412"
	 style="enable-background:new 0 0 549.7 412;" xml:space="preserve">
<style type="text/css">
	.st0{fill:#F2F2F2;}
	.st1{fill:#3F3D56;}
	.st2{fill:#FFFFFF;}
	.st3{fill:#6C63FF;}
	.st4{fill:#2F2E41;}
	.st5{fill:#FFB8B8;}
	.st6{opacity:0.1;enable-background:new    ;}
	.st7{opacity:0.2;enable-background:new    ;}
</style>
<title>online_organizer</title>
<circle class="st0" cx="155.4" cy="229.5" r="99.1"/>
<rect x="279.5" y="43.9" class="st0" width="233.7" height="129.9"/>
<rect x="279.8" y="36.4" class="st1" width="233" height="11.6"/>
<rect x="297.3" y="66.1" class="st2" width="42.4" height="30.1"/>
<rect x="378.6" y="66.1" class="st2" width="116.9" height="3.4"/>
<rect x="378.6" y="79.8" class="st2" width="116.9" height="3.4"/>
<rect x="378.6" y="93.5" class="st2" width="116.9" height="3.4"/>
<circle class="st3" cx="318.5" cy="81.5" r="13.7"/>
<rect x="-212.7" y="121.4" class="st1" width="1.6" height="4.8"/>
<path class="st1" d="M386.4,298h-8.2v-1.4h8.2V298z M370,298h-8.2v-1.4h8.2V298z M353.5,298h-8.2v-1.4h8.2V298z M337,298h-8.2v-1.4
	h8.2V298z M320.5,298h-8.2v-1.4h8.2V298z M304,298h-8.2v-1.4h8.2V298z M287.6,298h-8.2v-1.4h8.2V298z M271.1,298h-8.2v-1.4h8.2V298z
	 M254.6,298h-8.2v-1.4h8.2V298z M238.1,298h-8.2v-1.4h8.2L238.1,298z M221.7,298h-8.2v-1.4h8.2V298z M205.2,298h-8.2v-1.4h8.2V298z
	 M188.7,298h-8.2v-1.4h8.2V298z M172.2,298H164v-1.4h8.2V298z M155.7,298h-8.2v-1.4h8.2L155.7,298z M139.3,298H131v-1.4h8.2V298z
	 M122.8,298h-8.2v-1.4h8.2V298z"/>
<polygon class="st1" points="399,297.5 394.2,297.5 394.2,296.1 397.7,296.1 397.7,292.7 399,292.7 "/>
<path class="st1" d="M398.6,285.5h-1.4v-9.4h1.4V285.5z M398.6,266.6h-1.4v-9.4h1.4V266.6z M398.6,247.7h-1.4v-9.4h1.4V247.7z
	 M398.6,228.8h-1.4v-9.4h1.4V228.8z M398.6,210h-1.4v-9.4h1.4V210z M398.6,191.1h-1.4v-9.4h1.4V191.1z"/>
<g>
	<rect x="80.9" y="226.5" class="st1" width="233.7" height="151.9"/>
	<rect x="98.6" y="258.3" class="st2" width="42.4" height="30.1"/>
	<rect x="179.9" y="258.3" class="st2" width="116.9" height="3.4"/>
	<rect x="179.9" y="271.9" class="st2" width="116.9" height="3.4"/>
	<rect x="179.9" y="285.6" class="st2" width="116.9" height="3.4"/>
	<rect x="99.5" y="330.5" class="st2" width="42.4" height="30.1"/>
	<rect x="180.9" y="330.5" class="st2" width="116.9" height="3.4"/>
	<rect x="180.9" y="344.2" class="st2" width="116.9" height="3.4"/>
	<rect x="180.9" y="357.8" class="st2" width="116.9" height="3.4"/>
	<polygon class="st3" points="120,280.9 105.5,261.6 108.9,259 120.7,274.7 150.9,250.3 153.6,253.7 	"/>
	<polygon class="st3" points="120.9,352.1 106.4,332.8 109.8,330.2 121.7,346 151.8,321.6 154.5,324.9 	"/>
	<path class="st1" d="M227.1,94.6c0,0,22.6-9.8,33.1,0.6S231.9,102.1,227.1,94.6z"/>
	<path class="st4" d="M266.1,48c-7.6-12.8-22.6-13.4-22.6-13.4s-14.6-1.9-24,17.6c-8.7,18.2-20.8,35.7-1.9,40l3.4-10.6l2.1,11.4
		c2.7,0.2,5.4,0.2,8.1,0.1c20.2-0.7,39.4,0.2,38.8-7.1C269.1,76.4,273.4,60.3,266.1,48z"/>
	<path class="st5" d="M276.7,280.1c0,0-9.6,17.8-15.7,17.8c-6.2,0-5.5,11.6-4.1,14.4s4.8,8.9-0.7,17.8c-1.9,3.1-1.6,6.6-0.3,9.9
		c3.5,9.2,17.2,6.4,16.7-3.4c0-0.1,0-0.2,0-0.3c-0.7-10.9,4.8-28,10.3-32.1c5.5-4.1,10.3-15,10.3-15L276.7,280.1z"/>
	<path class="st5" d="M211.1,276c0,0,9.6,17.8,15.7,17.8c6.2,0,5.5,11.6,4.1,14.4c-1.4,2.7-4.8,8.9,0.7,17.8
		c1.9,3.1,1.6,6.6,0.3,9.9c-3.5,9.2-17.2,6.4-16.7-3.4c0-0.1,0-0.2,0-0.3c0.7-10.9-4.8-28-10.3-32.1c-5.5-4.1-10.3-15-10.3-15
		L211.1,276z"/>
	<path class="st4" d="M218.6,188.5l-4.1,8.9c0,0-60.1,19.8-54.7,43.1c5.5,23.2,32.1,59.5,36.2,58.1s26-5.5,26.7-17.1
		S207,249.4,207,249.4l22.6-20.5l32.8-0.7l28,21.2c0,0-29.4,26-16.4,36.2c13,10.3,32.1,17.1,34.9,13c2.7-4.1,33.5-64.9,28.7-70.4
		c-4.8-5.5-53.3-26-53.3-26l-13-18.5l-50.6-2.7L218.6,188.5z"/>
	<path class="st5" d="M230.9,75.8c0,0,3.4,22.6-3.4,25.3c-6.8,2.7,13.7,14.4,13.7,14.4h11.6l7.5-15.7c0,0-6.8-12.3-2.7-23.9
		C261.7,64.2,230.9,75.8,230.9,75.8z"/>
	<path class="st6" d="M230.9,75.8c0,0,3.4,22.6-3.4,25.3c-6.8,2.7,13.7,14.4,13.7,14.4h11.6l7.5-15.7c0,0-6.8-12.3-2.7-23.9
		C261.7,64.2,230.9,75.8,230.9,75.8z"/>
	<path class="st2" d="M226.1,94.9c0,0,7.5,8.2,8.9,9.6c1.4,1.4,7.5,8.9,20.5-2.1s14.4,2.1,14.4,2.1v82c0,0-10.9-4.8-19.8,0
		c-8.9,4.8-27.3-1.4-27.3-1.4l-3.4-84.7L226.1,94.9z"/>
	<path class="st3" d="M231.1,94.9c0,0-6.4-2.7-11.9,0s-24.6,16.4-23.2,22.6c1.4,6.2,19.1,49.2,6.8,69.7s-14.4,26-14.4,26l30.1-15.7
		c0,0,23.2-14.4,21.2-23.2C237.7,165.3,231.1,94.9,231.1,94.9z"/>
	<path class="st3" d="M258.2,94.9c0,0,14.3,1.4,15,2.7c0.7,1.4,21.5,7.2,20.2,13.3s-20.2,61.2-12,71.4s21.9,24.6,17.1,26
		c-4.8,1.4-13-2.1-21.2,0c-8.2,2.1-27.3-15-25.3-33.5C254.1,156.4,252.1,99.7,258.2,94.9z"/>
	<path class="st5" d="M224.1,225.5v6.8c0,0-3.4,15.7,7.5,15s4.1-19.1,4.1-19.1L235,222L224.1,225.5z"/>
	<path class="st5" d="M254.8,226.1c0,0-7.5,15.7,0,17.1c7.5,1.4,13-8.9,13-11.6C267.8,228.9,254.8,226.1,254.8,226.1z"/>
	<ellipse class="st5" cx="264.7" cy="66.6" rx="1.4" ry="2.7"/>
	<ellipse class="st5" cx="224.4" cy="66.6" rx="1.4" ry="2.7"/>
	<path class="st3" d="M276.7,103.8c0,0,17.1,0,16.4,6.8c-0.7,6.8-23.2,124.4-23.2,124.4s-9.6-8.9-17.8-6.8L276.7,103.8z"/>
	<path class="st3" d="M210.4,105.9c0,0-17.1,3.4-17.1,13.7s24.6,108.7,28,108.7s16.4-2.1,16.4-5.5S210.4,105.9,210.4,105.9z"/>
	<path class="st7" d="M214.2,126l15.4,60.1C229.5,186.1,222.4,133.5,214.2,126z"/>
	<path class="st7" d="M274,117.6l-15.6,78.6C258.4,196.2,263.4,122.1,274,117.6z"/>
	<circle class="st5" cx="244.6" cy="66.9" r="19.8"/>
	<polygon class="st4" points="262.7,46.7 247.9,39 227.5,42.1 223.2,60.8 233.8,60.4 236.7,53.6 236.7,60.3 241.6,60.1 244.4,49.2 
		246.2,60.8 263.4,60.5 	"/>
</g>
</svg>
