<?xml version="1.0" encoding="utf-8"?>
<!-- Generator: Adobe Illustrator 23.0.2, SVG Export Plug-In . SVG Version: 6.00 Build 0)  -->
<svg version="1.1" id="Layer_1" xmlns="http://www.w3.org/2000/svg" xmlns:xlink="http://www.w3.org/1999/xlink" x="0px" y="0px"
	 viewBox="0 0 71.8 71.8" style="enable-background:new 0 0 71.8 71.8;" xml:space="preserve">
<style type="text/css">
	.st0{fill:#A1D4D2;}
	.st1{fill:#3C2415;}
	.st2{fill:#EDCAB1;}
	.st3{fill:#F0D0B4;}
	.st4{fill:#E7685D;}
</style>
<g id="avatar">
	<circle class="st0" cx="35.9" cy="35.9" r="35.9"/>
	<path class="st1" d="M20.1,62.5c0,0-2.8,2.5-3.8,0.8c-0.6-1-1.3-1.9-2.1-2.7c-1.3-0.9-2.3-2.3-2.8-3.8c-0.2-1.7-0.1-3.4,0.4-5
		c0,0-2.7-1.5-3.3-3.7S9,42.8,9,42.8c-1.2-1.3-1.9-3-2-4.7c0-1.8,0.4-3.6,1.2-5.2c0,0-1.2-3.2-0.1-5.7c0.4-1.2,1.1-2.4,2.1-3.3
		c0,0,0.1-4.8,1.6-6.3s4.8-2.4,4.8-2.4c0.3-1.8,1.5-3.3,3.2-3.9c2.3-0.7,4.6-0.9,7-0.6c0,0,2.8-4.8,7.1-5.2S42.4,8,42.4,8
		c2.2-0.4,4.5-0.3,6.7,0.2c2.8,0.9,3.7,4.9,3.7,4.9s4.1,2.3,5.2,4.3s0.6,7.2,0.6,7.2s3.2,3,3,5.2c-0.4,2.3-0.9,4.5-1.7,6.6
		c0,0,1.8,3.9,1.3,6.3S58.3,48,58.3,48s2.3,3.3,1.6,6c-0.6,1.8-1.8,3.4-3.3,4.6c0,0,0.8,3.6-0.2,5.5c-1,1.9-11-0.8-11-0.8l-9,1
		L20.1,62.5z"/>
	<path class="st1" d="M29.2,8.4c0.2-0.2,0.4-0.3,0.6-0.4c-0.6,0.7-1.1,1.2-0.5,0.8c-0.1-0.1,0.4-0.7,1-1.1s1.2-0.8,1.2-1
		c0.2-0.1,0.3-0.1,0.5-0.1l-0.3,0.1c0.3-0.1,0.6-0.2,0.8-0.3c0.3-0.2,0.6-0.4,1-0.4s0.8,0,0.5,0.1c0.3,0,0.7-0.1,1-0.1
		s0.2,0.1-0.1,0.1c0.5,0,1,0.1,1.5,0.2l0,0c0.3,0,0.7,0,1,0c0.4,0.2-0.2,0-0.1,0.1l0.8,0.2c0.3,0.2-0.4,0-1-0.1
		c0.7,0.6,0.7,0.1,2.3,0.9C39.2,7,39,6.9,38.7,6.8c0.4,0.4,1,0.5,1.8,1.1c-0.2-0.2-1.5-1-0.6-0.7c0.3,0.2,0.7,0.3,1,0.5
		c0,0,0.1,0.1,0.2,0.2L41.4,8l0.2,0.1l0.3,0.2l-0.1,0.1L42,8.6c0.4-0.1,0.7-0.2,1.1-0.3c0.4-0.1,0.8,0,1.1,0.2
		c1.2,0-0.8-0.2,0.6-0.2c1,0,1.7,0,2.9,0.1c0.7,0.2-0.1,0.1,0.1,0.2h0.6c0.1,0,0.1,0.1,0,0.1c0.5,0.1,0.1-0.2,0.8,0.1
		c0.1,0,0.5,0.2,0.8,0.6s0.7,0.9,1,1.2c0.1,0.2-0.1,0-0.2,0.1c0.3,0.3,0.5,0.7,0.7,1c0.1,0.2,0.3,0.4,0.5,0.9l0.1,0.4l0.1,0.5
		l0.3,0.2c-0.2-0.1-0.2-0.2-0.2-0.2s0-0.1,0,0c0.2,0.1,0.4,0.1,0.6,0.2c0.2,0.1,0.5,0.2,0.7,0.3c-0.2-0.2-0.3-0.4-0.5-0.4
		c0.4,0.2,0.8,0.4,1.2,0.6c0.1,0.1,0,0.1-0.2,0l0.2,0.1c0.3,0.3,0.1,0.2-0.2,0.1l-0.3-0.3c-0.3-0.1-0.6-0.2-0.6,0
		c0.1,0.1,0.3,0.1,0.4,0.2c-0.1,0-0.2,0-0.1,0s0.2,0.1,0.4,0.2l0.1,0.3h0.1c0.5,0.3,0.9,0.7,1.3,1.1c0.5,0.3,1.1,0.6,1.5,1
		c0.6,0.5,1.1,1.1,1.3,1.9c-0.3-0.4-0.2,0-0.4,0c0-0.6-0.6-1.2-1.3-1.9c0.3,0.4,0.2,0.4,0.1,0.3c0.4,0.3,0.8,0.8,1,1.2
		c-0.1,0,0,0.4,0.1,0.8c0.2-0.4,0.4,1.2,0.5,2c-0.1,0-0.2-0.1-0.2-1c-0.1,1,0.4,1.2,0.2,2.2c0-0.1,0-0.3,0-0.4
		c0.1,0.5,0,1.7-0.1,1.5v-0.2c0,0.2,0,0.5,0,0.8s0,0.8-0.1,1.2l0.5,0.5l0.3,0.3l0.6,0.6c0.3,0.4,0.6,0.6,0.7,0.7c-0.1,0-0.3,0-0.4,0
		c0.7,0.5,1.3,1.2,1.8,1.9c-0.2-0.1-0.4,0.7-0.9-0.3c0.2,0.4,0.3,0.7,0.4,1.1c0-0.2,0.2-0.5,0.3-0.2C61.2,30,61,30.5,60.9,31
		c0.1-0.3,0.3,0.1,0.2,0.6c0-0.1-0.3,0-0.3-0.2c0,0.5,0,0.9-0.1,1.4c0-0.3-0.2-0.1-0.4,0.2c-0.1,0.5-0.3,1-0.4,1.5l0.2-0.5
		c-0.2,0.8-0.4,1.6-0.4,2.5c0.1,0.2,0.2,0.4,0.3,0.6c-0.1-0.2-0.5-0.3-0.2,0.4c0.7,0.7,1.3,1.6,1.6,2.6v0.3c0.1,0.4,0.2,0.7,0.2,1.1
		c-0.4-1.1-1-2.2-1.6-3.2c0,0.3,0.1,0.7,0.2,1c0,0.3-0.2-0.4-0.3-0.6c0.2,0.6,0.3,1.3,0.5,1.9c0.1-0.1,0.2,0.3,0.3,0.7
		s0.1,0.7,0.2,0.7c-0.1-0.7-0.2-1.4-0.5-2c0.1-0.1,0.8,1.1,0.7,2.5c-0.1,0.3-0.3-0.3-0.3-0.3c0.1,0.5,0,0.9-0.2,1.3
		c0-0.2,0.1-0.4,0.1-0.6c-0.1,0.7-0.4,1.4-0.8,2c-0.2,0.3-0.7,0.7-0.6,0.8c0.4-0.3,1-0.2,0.9,0.2c-0.4,0.6-0.9,1.1-1.4,1.6
		c-0.5,0.3,0.2-0.9-0.2-0.6c0,0.2-0.1,0.3-0.2,0.4c-0.3,0.4,0-0.2-0.7,0.6c0,0,0,0,0,0.1c0.2,0.2,0.4,0.5,0.5,0.8v0.1
		c-0.1-0.2-0.1-0.3-0.2-0.5c0.2,0.2,0.3,0.5,0.5,0.8c0.1,0.2,0.2,0.4,0.3,0.8c0-0.3,0.7,0.5,0.9,1.3l-0.1,0.2
		c0.3,1.2,0.2,2.5-0.4,3.6c-0.1,0.1-0.5,0.7-0.4,0.4c-0.1,0.3-0.2,0.5-0.3,0.7c-0.6,0.6,0.5-0.8,0-0.4c-0.2,0.5-0.5,1-0.9,1.5
		c0.3,0,1-1.1,1.2-1.6c0.2,0.1-0.2,1.2-1.2,2.3c-0.8,0.9-0.5,0.2-0.6,0.4l-0.3,0.3c0.1,0.3,0.1,0.6,0.2,0.8s0.1,0.4,0.2,0.6
		c0.1,0.5,0.2,1.1,0.1,1.7c-0.2,0.8-0.3,0-0.4,0.2c0-1,0.1-1.5,0-2.2c0,0.3,0,0.5,0,0.8c-0.1-0.4-0.2-0.9-0.2-1.3
		c0,0.3,0.1,1.2,0.1,2.3c0,0.5-0.1,1.1-0.2,1.6c-0.1,0.5-0.3,1-0.8,1.1c-0.2,0.2-0.8,0.3-0.5,0.3c0.2,0,0.4-0.1,0.5-0.2
		c0.2-0.1,0,0.1-0.2,0.2s-0.4,0.2-0.1,0.1c-0.9,0.3-1.8,0.4-2.7,0.2l0.1,0.1c0.3,0.1,0.7,0.1,1,0.1c-0.5,0.1-1.6-0.3-2.1-0.2
		l0.7,0.2c-0.9,0-1.7,0-2.6-0.2c0.4,0.2,0.2,0,0.8,0.3c-0.5-0.3,2.3,0.3,1.5,0c0.7,0.2,1.4,0.3,2.1,0.4c0-0.1-0.3-0.1,0.5-0.1
		l0.2-0.1l0,0l0,0c-0.1,0-0.3,0-0.4,0c0.2-0.1,0.6-0.1,1.1-0.2c0.4-0.1,0.8-0.3,1.1-0.6c0.4-0.5-0.1,0.2,0.1,0
		c0.1-0.2,0.2-0.5,0.2-0.7c0.2,0,0.5-1.2,0.3-0.1c0.1-0.3,0.2-0.7,0.2-1c0.1-0.6,0.2-1.3,0.1-1.9c0-0.5-0.2-1.2-0.1-0.8l-0.1-0.7
		c0-0.1-0.1-0.2-0.1-0.4l0,0l0,0l0.1-0.1l0.1-0.1c0.2-0.1,0.3-0.3,0.4-0.4c0.3-0.3,0.5-0.6,0.8-0.9c0.5-0.7,1-1.4,1.5-2.2
		c0.2-0.6,0.4-1.3,0.4-2c0-0.1,0.1-0.1,0.1-0.2c0-0.8-0.1-1.6-0.4-2.4c-0.1-0.4-0.2-0.9-0.4-1.3c-0.1-0.3-0.3-0.5-0.4-0.8l-0.1-0.2
		l0,0v-0.1l0.1-0.1c0.1-0.2,0.2-0.3,0.4-0.5l-0.1-0.1c0.5-0.7,0.9-1.5,1.3-2.2H61c0.2-0.4,0.4-0.9,0.7-1.5s0.4-1.3,0.4-2
		c0,0.2,0,0.5,0,0.7c0.2-0.9,0.1-1.8-0.2-2.6c-0.2-0.8-0.5-1.6-0.7-2.3c-0.1-0.3-0.2-0.5-0.3-0.8V37l-0.1-0.1c0-0.1,0-0.2,0-0.3
		c0,0.1,0,0.1,0,0.2l-0.1-0.2v-0.1l0.1-0.3l0.2-0.1V36c0.2-0.4,0-0.3-0.1-0.2c0-0.2,0.1-0.4,0.1-0.5c0.3-0.2,0.3-1,0.6-1.4
		c0-0.3,0.5-2,0.3-2.3c0,0,0.1-0.1,0,0.1c0.2-0.5,0.3-1.1,0.3-1.7l0.2-0.2c0-0.4-0.2-0.7-0.3-1.1c-0.1-0.6-0.2-0.9,0.2-0.4
		c-0.2-0.4-0.4-0.8-0.7-1.2c-0.2-0.3-0.5-0.6-0.7-0.9H61c-0.3-0.4-0.8-0.8-0.9-1.1c-0.1-0.1-0.2-0.3-0.3-0.4L59,24.6l-0.2-0.2
		c0-0.2,0.1-0.7,0.1-1.2s0-1.1,0-1.6c0-1.1-0.1-2.2-0.3-3.3c-0.1,0.3-0.1,0-0.2-0.4S58.1,17,58,17c0-0.2-0.2-0.5,0.1-0.2
		c-0.3-0.5-0.7-0.9-1.1-1.3c-0.3-0.3-0.6-0.6-1-0.8c-0.1-0.2,0.3,0.1,0.2,0c-0.2-0.1-0.3-0.2-0.5-0.3c-0.1-0.1,0.2,0.1,0.4,0.2
		c-1.1-0.8-1.3-0.7-1.5-0.6c-0.4-0.4-0.8-0.6-1.3-0.8c-0.2-0.2-0.5-0.4,0.3,0L53,12.8c-0.1-0.4-0.2-0.7-0.3-1.1
		c-0.1-0.4-0.3-0.6-0.3-0.6c-0.1-0.2-0.2-0.5-0.4-0.7c-0.3-0.7-0.8-1.3-1.4-1.8l0.2,0.2c-0.4-0.1-0.7-0.6-1.5-0.9l0,0
		c-0.4-0.2-0.8-0.3-1.3-0.4c-0.2,0-0.4-0.1-1.3-0.2l0.1,0.1c-0.2,0.2-1.7-0.2-2.7-0.1h0.4c-0.3,0-0.7,0-1,0
		c-0.4-0.1-0.9-0.1-0.9-0.1l0,0l0,0h0.1h-0.1l-0.1-0.1c0-0.1-0.1-0.2-0.2-0.2c-0.1,0-0.1,0-0.1,0S42.1,7,41.7,6.8
		c-0.2-0.2,0.4-0.1-0.3-0.4C40.9,6.2,39,5.7,38,5.3c0.2,0.1,0.4,0.3-0.1,0.2c-1-0.4-2-0.6-3-0.6c-0.1,0-0.2-0.1-0.2-0.1
		c-0.4,0-0.9,0.1-1.3,0.2c-0.4,0.1-0.8,0.2-1.1,0.4c-0.4-0.1-1.3,0.3-2.1,0.9s-1.3,1.2-1.5,1c-0.5,0.5-0.9,0.9-1.3,1.5V8.6
		c-0.3,0.3-0.5,0.7-0.8,1.1c-0.1,0.1-0.1,0.2-0.1,0.3l-0.1,0.2l0,0c-0.2,0-0.1-0.1-0.1-0.1C26,10,25.7,10,25.4,10
		c-0.3,0-0.5,0-0.8,0c-0.6,0-1.1,0.1-1.6,0.2l-0.2-0.1c-0.4,0.1-2.7,0-4.4,1.2c0,0,0-0.1,0.1-0.2c-0.6,0.4-1.2,0.9-1.7,1.5
		c-0.2,0.3-0.4,0.6-0.6,1c-0.1,0.2-0.1,0.3-0.2,0.5c0,0.1-0.1,0.2-0.1,0.2v0.1v0.1c0,0-0.1,0-0.1,0.1l-0.1,0.1l-0.2,0.1
		c-0.1,0.1-0.2,0.1-0.3,0.2c-0.4,0.2-0.8,0.4-1.2,0.6c1.6-0.6-0.2,0.3,0.5,0.1c-0.6,0.3-1.6,0.6-0.9,0.2H14c0.1-0.2-0.4,0-0.9,0.3
		s-1,0.6-1,0.6c-0.5,0.4-0.9,0.9-1.2,1.5s-0.4,1.2-0.6,1.8c-0.1,0.6-0.2,1.2-0.3,1.8l-0.1,0.9l-0.1,0.8v0.1l-0.1,0.1L9.4,24
		c-0.1,0.2-0.3,0.3-0.4,0.5c-0.2,0.3-0.5,0.7-0.7,1.1l0.3-0.2c-0.2,0.3-0.4,0.6-0.5,1S7.8,26.7,8.2,26c-0.3,0.4-0.4,0.8-0.4,1.3
		c-0.3,0.8-0.3,0.6-0.3,0.3s0.2-0.7,0.1-0.5s-0.2,0.4-0.2,0.7l0.1-0.1c-0.1,0.6,0,0.6-0.2,1.6c0,0.6-0.1,0.3-0.1,0.6
		c0,0,0,0.1,0,0.4c0,0.5,0.1,1,0.2,1.4c0-0.2,0-0.4,0.1-0.6c0.2,0.6,0.2,1.3,0.3,0.6c0,0.2,0,0.4,0,0.6c0,0.1,0,0.3,0.1,0.4
		C7.9,32.8,8,32.9,8,33c-0.2,0.3-0.3,0.7-0.5,1c-0.2,0.4-0.3,0.8-0.4,1.2c-0.2,0.8-0.3,1.5-0.3,1.7c0,1,0.1,1.9,0.3,2.8
		c0-0.3,0.1-0.5,0.3,0.4c-0.3-0.1-0.3,0.4,0,0.9s0.6,1.1,0.7,1.5c-0.1-0.2,0-0.1,0.1,0l0.2,0.2l0.1,0.2l-0.1,0.2
		c0,0.1,0,0.2-0.1,0.3c0,0.2,0,0.2,0.1,0c-0.2,0.7-0.1,0-0.4,0.6c-0.2,1-0.3,2-0.3,3c0,0.6,0.1,1.2,0.3,1.7c0.2,0.5,0.5,1,0.9,1.5
		c0,0-0.1-0.3,0.2,0c0.2,0.3,0.4,0.7,0.7,1c0.4,0.3,0.5,0.1,1,0.7c-0.1-0.1-0.2-0.2,0.1-0.1l0.3,0.2l-0.1,0.3c0,0.1-0.1,0.4-0.1,0.6
		c-0.1,0.4-0.2,0.8-0.2,1.2c-0.1,0.9,0,1.7,0.2,2.6c0.5,1.7,1.6,3.1,3,4.2c0.6,0.6,1.1,1.3,1.5,2.1c-0.2-0.5,0-0.2,0.2,0.2
		c-0.1-0.2,0.1,0,0.1-0.1l0.2,0.4c0.1,0.2,0.2,0.3,0.4,0.5c0.3,0.3,0.7,0.4,1.1,0.4c0.4-0.1,0.8-0.3,1.2-0.5
		c0.3-0.1,0.6-0.4,0.9-0.6l-0.5,0.3c0.3-0.3,0-0.2-0.4-0.2s-0.8,0.1-0.8,0c-0.2,0.1-0.4,0.2-0.6,0.2s-0.4-0.1-0.6-0.3
		c-0.1-0.2-0.3-0.5-0.5-0.8s-0.4-0.6-0.7-0.8c-0.2-0.3,0.2,0.2,0.2,0c-0.4-0.4-0.8-0.8-1.1-1.2h0.1l-0.2-0.2
		c-0.7-0.5-1.3-1.1-1.7-1.8c-0.5-0.7-0.8-1.5-0.9-2.4l-0.1,0.2c0-0.3,0-0.6,0-0.9c-0.1-0.3-0.1,0.1-0.1,0.4s0.1,0.7-0.1,0.5
		c0.1-0.3,0-1.3,0.1-2.2c0.1-0.8,0.3-1.5,0.6-2.2c0.1-0.2,0.1-0.3,0.1-0.4c-0.5-0.2,0.3,0.3-0.6-0.2l-0.2-0.2c-0.1,0-0.2,0-0.3-0.1
		c-0.4-0.3-0.6-0.6-0.5-0.6c0.1,0.1,0.3,0.2,0.4,0.3c-0.5-0.4-1-0.9-1.5-1.5c0.1,0.2,0.3,0.4,0.4,0.6c-0.4-0.4-0.7-0.8-1-1.3
		C9,48.1,8.8,47.6,8.8,47c0-1.2,0.1-2.3,0.4-3.4l-0.1,0.1c0.1-0.4,0.2-0.7,0.3-1c-0.2-0.2-0.3-0.3-0.4-0.5c-0.1-0.1-0.1-0.2-0.2-0.3
		s-0.3-0.6-0.6-1.2v0.1C8,40.4,7.8,40,7.7,39.6c0.2,0.4-0.1-0.8,0.1-0.3c-0.2-0.8-0.2-1-0.3-1.2c-0.1-0.3-0.1-0.5-0.2-0.8L7.4,37
		c-0.1-0.4-0.1-0.9,0-1.3c-0.1,0.7,0.2-0.5,0.2,0.3c0.2-0.7,0.4-1.2,0.5-1.7s0.3-0.9,0.5-1.3c-0.1-0.2-0.1-0.5-0.1-0.7
		c-0.1-0.2-0.2-0.2-0.2,0c0,0.1,0,0.2,0.1,0.3c0,0.2,0.1,0.3,0.2,0.5c-0.3,0.6-0.4,0.8-0.3,0.6c-0.1,0.2-0.1-0.1,0.1-0.7
		c-0.1-0.1-0.1-0.3-0.2-0.4c0-0.1-0.1-0.2-0.1-0.3c-0.1-0.8-0.1-1.7,0-2.5c0,0.1,0,0.2,0,0.3c0-0.6,0-1.2,0.2-1.7
		c-0.1-0.4,0.3-0.8,0.1-1c-0.2,0.4-0.3,0.9-0.3,1.3c0-1,0.4-1.9,0.9-2.7c0,0.1-0.2,0.5-0.2,0.7c0.2-0.3,0.4-0.7,0.6-1
		c0.1,0.1-0.1,0.5-0.4,0.9C8.8,27,8.6,27.5,8.5,28C8.6,27.7,9,26.5,9,27c0-0.7,0.7-1.3,1.1-2.2l0.1,0.1l0.2-0.3c0,0,0.1-0.1,0.1-0.2
		l0.2-0.3l0,0l0,0c-0.1,0.2-0.2,0.5-0.3,0.6c0-0.1,0.1-0.2,0.2-0.2c0.1-0.1,0.1-0.2,0.2-0.3l0.1-0.3c0-0.3,0-0.4,0.1-0.5l0.1-0.4
		C11,22.6,11,22.3,11,22c-0.2,1.7-0.2,0.4-0.3,1.1c0-0.6,0.1-1.1,0.3-1.6c0.2-0.6,0.4-1.1,0.5-1.7c-0.1,0.3-0.3,1.1-0.3,0.6
		c0.1-0.4,0.3-0.8,0.5-1.2c0.5-1.3-0.2,0.1,0-0.4c0.3-0.4,0.2-0.6,0.6-1.1l0.1,0.1c0.6-0.5,0.7-0.6,0.8-0.7s0.1-0.2,0.8-0.5
		c-0.2,0.1-0.3,0.3-0.5,0.5c0.2-0.1,0.4-0.3,0.7-0.4L14,16.8c0.6-0.4,1.2-0.6,1.9-0.8c-0.1,0-0.1,0,0-0.1c0.2-0.1,0.4-0.2,0.6-0.3
		l0.3-0.2l0,0c0.2-0.4,0,0.1,0.3-0.3c0-0.1,0-0.1,0.1-0.3l0.1-0.3c0,0.2,0,0.4,0,0.6L17,15.4c-0.1,0.1-0.1,0.1-0.2,0.2
		c0,0.1-0.1,0.1-0.1,0.1c-0.1,0-0.2,0.1-0.3,0.2l0.3-0.1c0.1-0.1,0.3-0.2,0.4-0.3l0.3-0.4c0.1-0.4,0.1-0.4,0.1-0.6
		c0-0.1,0.1-0.3,0.1-0.4c0,0.1-0.1,0.2-0.2,0.4c0.1-0.5,0.3-0.9,0.5-1.4c0.2-0.1,0.1,0,0,0.2c0.2-0.3,0.3-0.5,0.6-0.7
		c0,0.1,0,0.2-0.3,0.7c0.3-0.4,0.6-0.7,0.9-1c0.1,0,0.7-0.2,0.5-0.1c0.9-0.5,1.9-0.7,2.9-0.9c0.1,0,0.3-0.1,0.4-0.1
		c1-0.1,1.9,0,3.2,0l1,0.2l0.2-0.2c0.5-0.8,0.2-0.4,0-0.3s-0.2,0.1-0.1,0c0-0.1,0.1-0.2,0.1-0.3l0.1-0.3l0.1-0.2
		c0.6-0.9,0.4-0.2,0.6-0.5c0.4-0.8,1-1.4,1.7-1.9C29.6,8,29.4,8.1,29.2,8.4z M39.9,7.2c-0.3-0.1-0.5-0.2-0.8-0.3
		C39.4,6.9,39.6,7,39.9,7.2z M55,15c-0.2-0.1-0.4-0.3-0.6-0.5C54.7,14.7,54.9,14.8,55,15z M57.4,61.9L57.4,61.9
		C57.5,61.2,57.5,61.5,57.4,61.9L57.4,61.9z M57.3,63C57.3,63.1,57.3,63.1,57.3,63c0-0.2,0-0.4,0.1-0.6C57.3,62.6,57.2,62.8,57.3,63
		z M7.2,29.8c0-0.1,0-0.1,0-0.2C7.2,30,7.2,29.9,7.2,29.8z"/>
	<path class="st2" d="M32,43.2c0,0-1.2,12-2.4,12.9s5.9,2.9,8.3,2.9s6.3-1.7,6.3-1.7s-2.4-10.2-2.4-12.9S32,43.2,32,43.2z"/>
	<circle class="st3" cx="36.8" cy="31.4" r="19.1"/>
	<path class="st4" d="M35.9,71.6c7.6,0,15-2.4,21.2-6.9c-1.1-2-2.5-3.8-4-5.5c-2.2-2.2-9-3.2-9-3.2s-4.5,2.5-7.2,2.5
		S29.7,56,29.7,56s-6.8,1-9,3.2c-1.7,1.9-3.3,4-4.7,6.3C21.8,69.5,28.8,71.6,35.9,71.6z"/>
	<path class="st1" d="M34.1,17.7c1.1,1.8,2.7,3.2,4.6,4.1c2,0.8,4.2,0.9,6.2,0.2c0.4,1.4,1.1,2.7,2,3.8c1,1.2,2.3,2.2,3.8,2.7
		c-0.5,1.1-0.8,2.3-0.9,3.5c0.1,1.6,0.5,3.1,1.1,4.6c0,0-2.2,4.4-2.1,5.9c0.1,0.9,0.7,1.7,1.5,2.2l2,2.3L57,33.5l-2.4-16.6l-18.8-7
		l-12.7,4l-8.3,15.6l6.5,18l0.7-3.1c0.6-1.3,0.9-2.7,0.9-4.2c-0.3-1.5-0.8-2.9-1.6-4.2c0,0,0.7-4,0.9-5.4S21,25.5,21,25.5
		s2.2-1.3,3.7-2.4c1-0.9,1.7-2.1,2.1-3.4c1.4,0.2,2.9,0.2,4.3-0.1C32.2,19.2,33.2,18.5,34.1,17.7z"/>
	<path class="st1" d="M56.5,23c0.3,1.4,0.1-0.3,0.3-0.1c-0.1-0.4-0.2-1.1-0.2-0.8c0.1-0.7-0.4-2.1-0.4-2.9c0,0,0,0.4-0.2-0.1
		c0-0.4,0-0.7,0-1.1c0-0.1-0.1-0.2-0.1-0.2v-0.2l-0.1-0.3c-0.1-0.5-0.2-1-0.2-1.2L55.5,16c-0.7-0.2,0,0.1,0,0.2s0,0,0,0
		c-0.2,0-0.3,0-0.5-0.1c-0.7-0.2-1.4-0.4-2.1-0.7c-0.7-0.4,0.7,0.2,1,0.2L52,15c-0.5-0.3,0.3,0,0.8,0.2c-0.6-0.3-1.3-0.5-2-0.6
		c-0.5-0.2-0.7-0.3-1.2-0.5c0.5,0.1,0.5-0.1,1.2,0.1c1.2,0.4-0.5,0,0.5,0.4l0.1-0.1c0.4,0.2,0.8,0.3,1.2,0.4c0.2,0.1-0.1,0-0.2,0
		l1.1,0.4l0.5,0.2l0.8,0.2l-1.2-0.5l-1-0.4c-0.5-0.1-0.9-0.3-1.4-0.6L49,13.5c0,0.1,0.7,0.4,0.1,0.3c-0.5-0.4-1-0.7-1.6-0.9
		c0.3,0.2-1.4-0.4-1-0.1c0.2,0,0.4,0.1,0.6,0.3c-0.8-0.3-0.2,0.1-0.6-0.1c-1.5-0.6,0.1-0.1-1.3-0.7c0.7,0.1,1.3,0.3,2,0.5
		c0-0.1-0.8-0.3-1.1-0.5c0.5,0.3-0.4,0,0,0.2c-1.2-0.4-2.6-0.8-4.1-1.3c0.3-0.1,2.5,0.8,2.1,0.4c-0.7-0.2-0.8-0.1-1.3-0.4
		c-0.8-0.4-1.7-0.7-2.6-1l0.4,0.2c-0.5-0.1-1-0.3-1.5-0.5h0.1l-0.4-0.1c-0.1,0-0.1,0-0.1-0.1c-0.4-0.1-0.7-0.2-1.1-0.4L37,9.2
		l-1-0.4c0,0,0.1,0.1,0.2,0.1l0.5,0.2c0.3,0.1,0.6,0.2,0.8,0.3s0.9,0.4,0.5,0.3l-1-0.3l-0.5-0.1L35.8,9L35,9.3l-0.6,0.2l0.4-0.1
		c-0.5,0.2-1,0.4-1.5,0.5c-1.1,0.3,0.8-0.4,0.1-0.2c0.4-0.2,1.2-0.4,1.2-0.5l-0.7,0.1c-0.5,0.2-1.1,0.4-1.6,0.5l0.5-0.1
		c0,0.1-0.5,0.2-0.7,0.2l0.3,0.1c0.5-0.2,1-0.4,1.5-0.5c-1.1,0.4-0.8,0.4-2.1,0.9c-0.1,0,0.2-0.1,0.4-0.2c-0.5,0.1-0.9,0.4-1.7,0.6
		c0.4-0.2,1.1-0.4,0.5-0.4l-0.4,0.2c-0.4,0.1-0.2,0-0.4,0c-0.5,0.1,0.1,0.1-0.6,0.3c-0.1,0-0.4,0.1-0.3,0c-0.4,0.1-0.8,0.3-1.2,0.5
		c0.7-0.2,0.8-0.1,0.1,0.2c-0.8,0.3-1.7,0.6-2.6,0.7l-0.5,0.2c0.3-0.2-0.7,0.2-1,0.3c-0.1-0.1,1.6-0.5,1.6-0.7
		c-0.7,0.2-0.4,0.1-0.2-0.1c-0.8,0.3-0.2,0.2-0.5,0.4c0,0-1.3,0.4-0.9,0.1c-0.3,0.1-0.4,0.2-0.7,0.3c-0.2,0.1-0.5,0.2-0.7,0.3
		l-0.1,0.2c0-0.1,0-0.3,0-0.3c-0.1,0.2-0.2,0.4-0.3,0.6L22,14.1c0.1-0.1,0,0.3,0.2-0.3c0,0.2-0.7,1.3-0.6,1.3
		c-0.4,0.5-0.7,1.1-1,1.7c0.3,0.1,0.5-1.1,0.8-1.2c-0.3,0.8-1.3,2.5-1.8,3.7c-0.6,1-0.1,0-0.3,0.1c0.5-1,0.7-1.2,1.1-2
		c-0.6,1-1.1,2-1.6,3.1c-0.5,1-0.8,1-1.4,2.2c0.2-0.1,0.2-0.1,0.4-0.4c-0.1,0.3-0.4,0.7-0.5,1s0.4-0.5,0.1,0
		c-0.1,0.2-0.3,0.6-0.4,0.5v-0.1c-0.5,1.2-0.6,0.7-1,1.8c0.1-0.1,0.1-0.3,0.3-0.5s-0.1,0.5-0.3,1c0-0.1-0.2,0.4-0.4,0.7
		s0.4-0.8,0.4-1l-0.5,0.9l0.1-0.2l-0.4,1c0.3-0.7,0.3-0.3,0.1,0c-0.4,0.6-0.7,1.3-0.8,1.2c-0.1,0.3-0.2,0.6-0.4,0.9l0.5,1.2
		c-0.2-0.7,0.1-0.1,0.2,0.1L15,32c-0.4-1.1,0,0.3-0.2,0c-0.3-0.5-0.5-1-0.6-1.5c0.3,0.9,0.6,1.7,0.9,2.5c-0.1,0-0.1,0-0.3-0.5
		c0,0.2,0.4,0.8,0.6,1.5c0-0.2-0.1-0.6,0.2,0l0.2,0.9c0.3,1,0.3,0.3,0.6,1.1l-0.1-0.6c0.1,0,0.4,1.1,0.5,1.1
		c-0.2-0.5-0.4-0.8-0.5-1.3c0-0.2,0.3,0.7,0.5,0.9c0.2,0.6,0.3,1.2,0.5,1.8c-0.2,0.1-0.7-1.3-0.9-1c0.4,1.1,1,2.6,1.2,3.3
		c0.4,0.9,0.5,0.8,0.6,0.6c0.1,0.3,0.2,0.6,0.3,0.9l-0.2-0.4l0.6,1.5l0.3,0.7c0.1,0.3,0.3,0.7,0.4,1.1c0.4,1,0.3,0.4,0.3,0.1
		l0.4,0.9v-0.2c0.1,0,0.4,0.8,0.6,1.5c0,0.1-0.1-0.2-0.1-0.1c0.2,0.6,0.4,1.2,0.7,1.8c0,0.2-0.1,0.2-0.4-0.7c0-0.1,0-0.1,0-0.2
		l-0.4-1c0.2,0.6,0.4,1.1,0.5,1.7c0.1,0.4,0.2,0.7,0.2,1.1l0.1,0.2c0,0.1,0,0.1,0,0s0-0.1,0-0.2l0,0c0,0,0,0,0-0.1v-0.1
		c0-0.1-0.1-0.2-0.1-0.4c0,0,0,0,0,0.1l0.1,0.2l0,0V49v-0.2c0.3-0.9,0.6-1.9,0.8-2.8c0.1-0.5,0.2-0.9,0.4-1.4c0.1-0.4,0.3-0.7,0.5-1
		c0.3-1.1,0.4-2.2,0.2-3.3c-0.1,0-0.2-0.9-0.3-0.7c0.3,1.1,0.2,2.2-0.1,3.3c-0.1,0.6,0,0.4,0,0.7c-0.1,0.4-0.3,0.9-0.5,1.3
		c0.1-0.3,0.2-0.7,0.2-1.1c0-0.3,0.1-0.7,0.2-1c-0.1,0.2-0.2,0.5-0.3,0.8c-0.1,0.4-0.3,0.8-0.4,1.1c0-0.2-0.1-0.1-0.2,0.2
		c0-0.1,0-0.3,0-0.4l0.1-0.4c0.1-0.2,0.1-0.5,0.2-0.8c0,0.2,0.1-0.1,0.1,0c0.1-0.5,0.2-0.9,0.2-1.4c0.1-0.4,0.2-0.5,0.2-0.3
		c0.2-0.8-0.3-2.1-0.1-2.2c-0.3-1,0,0.3,0,0.4v-0.1c0.1,0.4,0.1,0.7,0.1,1.1c-0.1,0.1-0.1-0.2-0.1-0.6c0-0.3-0.1-0.5-0.2-0.8
		c-0.3-0.1-0.4-1.5-0.8-2.2c0.2,0.2,0.4,0.5,0.6,0.7c-0.1-0.2-0.2-0.5-0.4-0.7c0.3,0.4,0.4,0.3,0.8,0.9c-0.1-0.3-0.3-0.7-0.5-1.1
		l-0.3-0.6L21.7,36l0.1-0.4v-0.4C21.9,35,22,34.9,22,35c0.1-0.9,0.2-1.7,0.5-2.6c0.1-1-0.3,1-0.3,0.2c0.1-0.4,0.2-0.7,0.2-1.1
		c-0.1,0.7-0.2,1.3-0.4,2c0.1-0.2,0-0.4,0-0.5l-0.2,0.9c-0.1-0.1,0.2-1.1,0.2-1.5c0.1,0.3,0.1,0.1,0.2,0.4c0-0.4,0.1-0.9,0.2-1.4
		l0.1-0.7c0-0.2,0-0.4,0-0.6c0-0.4,0.1,0.3,0.1,0.6c0.1-0.2-0.1-0.9,0-1c0.1,0.3,0.1,0.5,0.1,0.8c0-0.8-0.2-1.6-0.3-2.4
		c0.1,0.3,0.2,0.6,0.2,0.9c-0.1-0.7-0.3-1.4-0.6-2c-0.2-0.9-0.2-1.2-0.1-1.1c-0.1-0.2-0.1-0.1-0.2-0.1v-0.1c0.4-0.2,0.3-0.4,0.8-0.7
		L22,25.2c0.9-0.5,0.1-0.3,0.9-0.7c-0.1,0.2,0,0.2,0.2,0.2c0.1-0.2,0.6-0.4,0.9-0.6c-0.3,0.1,0.6-0.6,0.1-0.3
		c0.7-0.6,1.2-0.8,1.5-1.4c-0.3,0.3,0.4-0.7,0.1-0.5c0.5-0.7,0.8-1.3,0.8-1s-0.4,0.7-0.3,0.7c0.2-0.4,0.4-0.9,0.6-1.4l0.1-0.2
		c0-0.1,0.1,0,0.1,0h0.1c0.1,0,0.1,0.1,0.2,0.1s0.2,0,0.3,0h0.5c0.3,0.1,0.6,0.1,0.9,0c-0.4,0.1-0.9,0-1.3-0.1H28h-0.1l0.7-0.2
		c-0.7-0.1-0.1,0.1-1.1,0.1c-0.3-0.1,0-0.2,0.5-0.2s0.9-0.1,0.5-0.2c-0.7-0.1-0.6,0.1-1.1,0.1h0.1H27c-0.1,0-0.2,0-0.2,0.1v0.2
		c0,0,0-0.1,0-0.3s0.1-0.1,0.1-0.1s-0.1,0-0.1,0.1c-0.2,0.5-0.4,1-0.6,1.4c-0.3,0.5-0.6,1-1,1.4c0.1-0.1,0.5-0.2,0,0.4
		c-0.4,0.4-0.5,0.3-0.9,0.6c0.2-0.2,0.4-0.4,0.7-0.6l-0.1-0.1c0.2-0.2,0.4-0.5,0.5-0.8c0.1-0.2,0.2-0.4,0.5-1.1
		c0-0.2,0.1-0.3,0.1-0.5c0.1-0.3,0.3-0.9,0.4-1.4c0.1-0.1,0.3,0,0.5,0h0.5L26.6,19c0.3-0.1,0.6-0.1,0.9,0s0.6,0.1,0.9,0.1
		c0.5,0.2,1.4,0.4,0.7,0.5c0.6,0,1.3-0.1,1.9-0.3c0.5,0-0.2,0.2-0.1,0.3c0.6-0.1,1.2-0.5,0.8-0.4c0.3-0.1,0.7-0.3,1-0.4
		c0,0-0.3,0.2-0.4,0.3c0.4-0.2,0.9-0.5,1.2-0.9c-0.1,0.1-0.2,0.2-0.4,0.3c0.3-0.3,0.6-0.6,0.9-1c-0.4,0.5-0.6,0.4-1,0.9
		c0-0.1,0.1-0.2,0.4-0.4c-0.4,0.3-0.8,0.4-1.2,0.6c0.3-0.1,0.5-0.3,0.7-0.5c-0.3,0.2-1,0.6-1.3,0.7c-0.1-0.1-0.4,0.1-0.7,0.1
		s-0.5,0.1-0.3,0c-0.3,0.1-0.7,0.2-1,0.1c0-0.1,0.8-0.2,1.1-0.4c1.4-0.5,0,0.1,0.4,0.1c0.4-0.1,0.7-0.3,1-0.5c-0.1,0,0.4-0.3-0.3,0
		c0.4-0.4,0.9-0.7,1.3-1c0.1-0.1-0.2,0.1-0.4,0.2c0.1-0.1,0.5-0.7-0.2-0.2c0.2-0.1-0.3,0.3,0.1,0.1c-0.3,0.3-1.2,0.6-0.9,0.4
		c-0.5,0.3-0.9,0.5-1.5,0.6c-0.1-0.1,0.3-0.1,0.5-0.2c-0.4,0.1-0.8,0.2-1.2,0.2h0.4c-0.5,0-0.9,0.1-1.3,0.1H28h-0.9
		c0.3-0.1,0.5-0.1,0.8-0.1c0.2,0,0.5,0,0.8,0c-0.1-0.1-0.3-0.1-0.5,0c-0.3,0.1-0.7,0.1-1,0c-0.2,0-0.3-0.1-0.2-0.1
		c-0.3,0-0.7,0-1,0.1v0.1c-0.1,0.3-0.1,0.1,0,0c-0.2,1.1-0.2,1.1-0.2,1.1s0,0.1-0.1,0.3c-0.1,0.2-0.2,0.5-0.3,0.7
		c0.3-0.6,0.5-1.3,0.7-2l0,0c0.1,0,0.1,0,0.1,0s0,0-0.1,0.1c0,0.3-0.1,0.7-0.2,1l-0.1,0.5c0,0.1,0,0.1,0,0.2c-0.4,0.7-0.6,0.7-1,1.4
		c0.3-0.5,0-0.1,0.4-0.8c0.2-0.5-0.2,0.2-0.3,0.2c-0.1,0.2,0.2,0-0.2,0.5l0,0c-0.2,0.3-0.4,0.6-0.7,0.8c-0.5,0.3-1,0.7-1.5,1
		c-0.2,0.2-0.5,0.3-0.7,0.5l-0.3,0.2c-0.1,0.1-0.3,0.1-0.4,0.2h0.3L20.3,25c0.2,0.6,0.4,1.2,0.5,1.6c-0.2-0.4-0.4-0.9-0.5-1.4
		c0.1,0.4,0.2,0.9,0.4,1.3s0.2,0.5,0.3,0.8l0.5,1.4c0-0.4-0.1-0.9-0.1-1.3c0.4,0.8,0.1,1,0.4,2c-0.1,0-0.2-0.3-0.3,0
		c0.1,0.2,0.1,0.5,0.2,0.8c0,0.3,0,0.5,0,0.8c-0.1,0.1-0.1,0.1-0.1-0.1s0-0.3,0-0.4s0-0.4-0.1-0.6c-0.1-0.8-0.3-1.6-0.6-2.4v0.4
		c-0.1-0.4-0.2-0.7-0.3-1s-0.1-0.3-0.2-0.5l-0.3-0.8l0,0L20,25.3l0.2,0.6c-0.1-0.2-0.2-0.5-0.4-0.9c0.4-0.3,0.9-0.7,1.1-0.8
		c-0.5,0.3-0.9,0.6-1.2,0.8c0.4,0.9,0.6,1.1,0.8,1.7c0.3,1,0.1,1.5,0.4,2.1c0,0.1,0,0.6-0.2,0.2s-0.2-1-0.3-1c0.1,0.6,0,0.4,0.2,1.3
		c0.3,0.4,0.4,0.8,0.5,1.3c0,0.7-0.1,1.4-0.3,2.1c0.1-0.7,0.1-1.4,0-1.2c0.1,0.4-0.3,1.3-0.1,1.2c-0.1,0.8-0.3,1.5-0.5,2.2
		c0.1-0.8,0.3-1.5,0.4-2.2c0,0.2-0.1,0.3-0.1,0.2l0.2-1c-0.2,0.5-0.3,1-0.4,1.5c0-0.1,0.1-0.2,0.1-0.1l-0.1,0.8h-0.2
		c0,0.2-0.1,0.5-0.1,0.7c-0.1,0.4-0.2,0.9-0.3,1.4l0.4,0.7l0.2,0.4l0.4,0.7l-0.1-0.1c0.3,0.9,0.6,0.9,0.9,1.8
		c-0.1-0.3-0.1-0.1-0.2-0.1c0.1,0.4,0.1,0.7,0,1.1c0.1-0.5,0.1,0.3,0.2,0c0.2,0,0.1,1-0.1,1.5c-0.1,0.1,0-0.3,0-0.6s0-0.6-0.1-0.2
		s0,0.6,0.1,0.3c-0.1,0.4-0.2,0.7-0.3,1.1c-0.1,0.1-0.1,0.1-0.1,0c0,0.1,0,0.1,0,0.2c0,0.1,0,0.2,0,0.4c0-0.1,0-0.3,0-0.3
		c0,0.1,0,0.2,0,0.3c0,0.2-0.1,0.1-0.1,0s0-0.1,0-0.2v0.1c0-0.1,0-0.3,0-0.4c0,0.3,0,0.1,0,0.3v-0.1c0,0.1,0-0.1,0-0.2s0-0.1-0.1,0
		c0,0.1,0,0.2-0.1,0.2c0-0.1,0-0.2,0-0.3l0,0l0,0l0,0v-0.1l-0.1-0.2c-0.1-0.2-0.1-0.4-0.2-0.5c-0.2-0.2-0.1,0.1-0.4-0.4
		c-0.4-1.3,0.4,0.4,0.1-0.4l-0.5-1.1v-0.3c-0.5-1.8-1.3-3-1.9-4.8c0.1-0.1,0.6,1.2,0.8,1.7c-0.1-0.6-0.5-1.4-0.7-2.2
		s-0.5-1.2-0.6-1.1c-0.4-0.9-0.1-0.7-0.2-0.8c-0.4-0.7-0.6-1.3-0.9-2l0.1-0.1L16,30l-0.1-0.3l0.1,0l0,0c0,0.1-0.1,0-0.1,0v-0.1
		c0,0.1,0,0.1,0,0.2s0.1,0.3,0.1,0.4c0.1,0.3,0.2,0.6,0.4,0.9c0.3,0.6,0.5,1.2,0.6,1.8c-0.1-0.3,0,0.1-0.2-0.2s-0.1-0.3-0.1-0.4
		s-0.4-0.6-0.1,0c-0.2,0-0.6-1.2-0.9-2c-0.1-0.7,0.4,0.6,0.6,0.9c-0.2-0.3-0.3-0.7-0.4-1l0.2,0.1c-0.5-1.1-0.2-0.3-0.4-0.5
		c-0.1-0.1-0.2-0.2-0.2-0.4l0.1-0.2c0.1-0.1,0.1-0.1,0.1-0.2l-0.1,0.2c0.1-0.1,0.2-0.3,0.2-0.4c0.1-0.1,0.1-0.3,0.2-0.4
		c0.1-0.3,0.2-0.6,0.4-0.9l0.3-0.3c-0.6,0.9-0.4,1.2-0.8,1.7c0.4-0.6,0.4-0.5,0.3-0.2L16,29.5v0.1v-0.1l0.2-0.3
		c0.1-0.2,0.2-0.4,0.4-0.6c0.3-0.9,1-1.8,1.2-2.7c0.3-0.4-0.1,0.4,0.1,0c0.5-0.9,1-1.8,1.4-2.8c0.3-0.5,0.3-0.4,0.4-0.5
		c1.3-2.3,1.5-3.3,2.9-5.8l-0.1,0.4c0.3-0.4,0.6-0.8,0.7-1.3c0.2-0.2,0.3-0.4,0.4-0.7l0.2-0.4v-0.1H24l0.1-0.1l0.2-0.1
		c0.3-0.1,0.5-0.1,0.8-0.2c0.7-0.2,1.5-0.5,2.1-0.9c0,0-0.2,0.2,0.2,0.1l4.2-1.4l4.1-1.4h0.1l0.2,0.1c0,0-0.2-0.1-0.2,0l0.7,0.3
		l0.8,0.3l1.6,0.5c1,0.4,2,0.7,2.9,1.1c0.3,0.1,1.4,0.4,1.1,0.2s-0.4-0.3-0.4-0.4c1.6,0.5,0.7,0.4,1.8,0.8c0.3,0.3-0.7-0.1-0.8,0
		l1.6,0.5c0.8,0.4,1.8,0.6,2.5,1c-0.3-0.1-0.2,0.1-0.7-0.2c0.1,0,0,0,0.1,0c-0.6-0.2-1.3-0.4-1.9-0.6c1,0.3,2.4,0.8,3.3,1.2
		c-0.2-0.2,0.8,0.2,1,0.2l0,0c0.3,0,0.5,0.1,0.8,0.2l0.2,0.2c0.4,0.1-0.1-0.1,0.3,0c0.9,0.3,1.8,0.6,2.6,1.1h0.2v0.1v0.1v0.2
		c0-0.1-0.1-0.1-0.1-0.1c0.1,0.8,0.2,1.6,0.3,2.4s0.2,1.7,0.3,2.5c0.2,1.2,0.4,2.2,0.6,3c-0.1-0.3-0.2-1.3,0-0.7
		c0.1,0.3,0.2,0.8,0.3,1.3c-0.1-0.1,0.1,1.3-0.1,0.3c-0.1,0.3,0.3,2.2,0.2,2.2c0.1,0.2,0.3,1.7,0.5,2.2c-0.1,0.1-0.2-0.8-0.2-0.8
		l0.1,0.6l0,0c0.1,0.7,0.3,1.5,0.5,2.2l0,0v0.2V33l0.1,0.2V33c0,0.1,0,0.2,0.1,0.3v0.1v0.1L56,33.9c-0.1,0.2-0.1,0.5-0.2,0.8
		l-0.1,0.1l-0.1,0.5c0-0.1,0-0.1,0-0.1c0,0.5-0.5,1.6-0.5,2.1c-0.2,0.3-0.4,0.7-0.5,1l-0.1-0.1c0.4-1.1,0.3-0.4,0.6-1.6
		c-0.8,1.6-1.4,3.2-1.9,4.9c-0.2,0.7-0.5,1.5-0.8,2.3l-0.2,0.6c0,0.1,0,0.1,0,0.2c0,0.1,0,0.3,0,0.4v-0.2L52,45.2l-0.3-0.4l-0.3-0.3
		l-0.3-0.4L50.9,44c-0.3-0.2-0.3-0.2-0.4-0.3c-0.1-0.1-0.2-0.2-0.2-0.2C50.2,43.3,50,43.2,50,43c-0.1-0.2-0.1-0.3-0.2-0.5
		c0-0.2,0-0.4,0-0.6c0.1-0.1,0.1-0.2,0.2-0.3c0.1-0.7,0.3-1.4,0.6-2.1c0.2-0.4,0.3-0.8,0.5-1.2l0.2-0.6l0.4-0.8l-0.3-0.6
		c-0.1-0.2-0.1-0.3-0.2-0.4c-0.1-0.2-0.2-0.4-0.3-0.5c-0.2-0.9,0.2,0.2,0.3,0.3c-0.3-0.7-0.5-1.5-0.6-2.2c0,0,0.2,0.9,0.2,0.5
		s-0.2-0.6-0.2-1.1c-0.1,0.2-0.3-0.8-0.2-1.5c0,0.1,0,0.1,0,0.2c-0.1,0.1,0-0.5,0.1-0.8v0.1c0-0.2,0.1-0.4,0.1-0.6s0.2-0.5,0.2-0.7
		c0-0.3,0-0.5,0.1-0.8c-0.2-0.1-0.4-0.3-0.7-0.4c-0.2-0.1-0.3-0.1-0.5-0.2c-0.1-0.1-0.3-0.1-0.4-0.2c-0.3-0.1-0.5-0.3-0.7-0.5
		c-0.5-0.4-0.9-0.8-1.3-1.2c-0.4-0.5-0.7-1-1-1.5c-0.2-0.3-0.3-0.5-0.4-0.8l-0.3-1l-0.2-0.5c-0.2-0.2-0.3-0.4-0.4-0.6
		c-0.2,0-0.5,0-0.7,0c-0.5,0.1-1.1,0.2-1.7,0.2c0.3,0,0.5-0.1,0.8-0.1c-0.7,0.1-1.3,0.2-2,0.1h0.1c-1.1-0.3-1.3,0-2.1-0.4h0.2
		c-1.1-0.4-2-1-2.9-1.8c-0.4-0.4-0.7-0.8-1-1.3c-0.2-0.2-0.4-0.4-0.7-0.5l0.2,0.2c0.1,0.3-0.5-0.5-0.7-0.8c0,0.3-0.3,0.3,0.4,1.4
		c0.6,0.7,0.4,0.9,1.2,1.6c0.6,0.2,1.1,1.1,2.1,1.4c-0.5-0.1,1,0.6,0.2,0.3c0.4,0.2,0.8,0.4,1.2,0.5c0.6,0.1,1.2,0.2,1.6,0.3
		c-0.1,0-0.2,0-0.3,0c1.1,0,0.8,0.2,1.6,0.1V23c0.3-0.1,0.4,0,0.7,0c-0.2,0-0.7,0-0.5-0.1s0.7-0.1,1.1-0.2c0,0-0.3,0.1-0.5,0.2h0.4
		c0.2,0,0.3,0,0.4,0c-0.1,0-0.2,0.1-0.4,0.1s-0.3,0.1-0.5,0.1c1.2-0.1,0.1,0,0.6,0.1c0-0.1,0.1-0.1,0.2-0.1l0.4-0.1
		c0,0.1,0,0.1,0.1,0.2c0,0.1-0.1-0.1-0.1-0.2s-0.1,0-0.1,0l0,0c0,0.1,0,0.3,0,0.4s0.1,0.2,0.1,0.2c0.1,0.2,0.2,0.3,0.3,0.5
		c0.2,0.3,0.4,0.7,0.7,1.2l-0.2-0.2c0.3,0.5,0.6,1,1,1.4c0.5,0.6-0.1,0.2,0.7,1.1c-0.2-0.3,1,0.9,1.2,0.7c0.2,0.2,0.4,0.4,0.7,0.5
		s0.3,0,0.3,0s0.1-0.1,0.3,0l0.3,0.1l0.1,0.1c0,0-0.1,0-0.2,0c-0.1,0-0.2,0-0.2,0.1c0,0,0.1,0,0.1,0.1v0.1l-0.1,0.1l0,0v0.2L49.3,30
		c-0.1,0.2-0.1,0.4-0.2,0.4s0.1-0.5,0.1-0.6c0,0.3-0.3,1-0.4,1.6c-0.1,0.6-0.1,1.2,0.1,1.8c0,0.4,0.2,1.2,0.1,1.1
		c0.2,0.3,0.4,1.7,0.7,2.1c0,0,0,0.1,0,0.2s0,0,0,0.1s0.1,0,0.1,0l0,0l-0.1,0.1c-0.1,0.2-0.2,0.3-0.2,0.5c-0.1,0.3-0.2,0.6-0.4,0.8
		c-0.2,0.7,0,0.5,0,0.7c-0.3,0.4-0.7,1.7-0.8,1.4c0.1-0.4,0.5-1.1,0.3-1c-0.3,0.7-0.1,0.3-0.3,0.9c0-0.1-0.2,0.3-0.2,0.2
		c-0.1,0.4-0.3,0.8-0.4,1.4c0.3-0.9,0,0.6,0.2,0.1c0-0.3,0-0.6,0.1-0.8c0.3-0.9,0.1-0.2,0.3-0.5C48.1,41,48,41.5,48,42
		c0,0.6,0.1,1.2,0.3,1.8c0.1,0.4,0.3,0.7,0.5,1.1c-0.4-0.5-0.4-0.3-0.2,0s0.4,0.4,0.6,0.6l0.3,0.3l0.2,0.1l0,0l0,0
		c-0.1,0,0.2,0.2,0.3,0.4l0.4,0.5c-0.6-0.8-0.2-0.5,0-0.2c1.5,1.7,0.5,0.8,1.2,1.6l1.3,1.5l1.4-3.6c0.2-0.4,0.3-0.8,0.5-1.2
		s0.2-0.6,0.3-1l-0.4,0.7v0.3c-0.3,0.6-0.2-0.2-0.2-0.6c0.1-0.1,0.4-1.1,0.3-0.7l0.3-1c-0.1,0.1-0.3,0.8-0.2,0.3
		c0.2-0.3,0.5-1.3,0.4-0.6c0.2-0.5,0.4-1.2,0.2-1.1c0.3-0.8,0.1,0.1,0,0.5c0.2-0.7,0.3-0.5,0.3-0.3l0.3-0.9c0,0.2,0,0.2,0,0.4
		c0.3-0.6,0.3-1,0.5-1.5v-0.3c0.7-1.6,0.6-1.4,1.2-3l-0.2,0.2c0.1-0.4,0.2-0.7,0.4-1l0.2-0.4c0.1-0.2,0.1-0.3,0.4-1.1v-0.3
		c-0.1-0.5-0.1-0.6-0.2-0.8s-0.1-0.3-0.1-0.5s-0.1-0.4-0.2-0.3C58,31.6,58,31.3,58,31c-0.2-0.6-0.3-1.2-0.4-1.9
		c0.1,0.4,0.2,0.8,0.3,1.2c0-0.7-0.1-1.4-0.2-2.1c-0.1-0.5-0.5-2-0.8-2.8c0,0.4-0.2,0.3-0.4-0.5c0-0.5,0-1.1-0.1-1.6
		c0.1,0.3,0-1.2,0.2-0.1c0,0.3,0,0.6,0,0.9c0-0.6,0-1.2,0-1.8C56.5,22.5,56.6,22.8,56.5,23C56.6,22.9,56.6,23,56.5,23z"/>
</g>
</svg>
