<?xml version="1.0" encoding="utf-8"?>
<!-- Generator: Adobe Illustrator 23.0.2, SVG Export Plug-In . SVG Version: 6.00 Build 0)  -->
<svg version="1.1" id="e7c617c0-9ccb-498f-9bd6-fe88e17bb2e8"
	 xmlns="http://www.w3.org/2000/svg" xmlns:xlink="http://www.w3.org/1999/xlink" x="0px" y="0px" viewBox="0 0 995 662.1"
	 style="enable-background:new 0 0 995 662.1;" xml:space="preserve">
<style type="text/css">
	.st0{fill:#79C6C1;}
	.st1{fill:#2F2E41;}
	.st2{fill:none;stroke:#3F3D56;stroke-miterlimit:10;}
	.st3{fill:#FBBEBE;}
	.st4{opacity:0.1;enable-background:new    ;}
	.st5{fill:#3F3D56;}
	.st6{fill:#A0616A;}
	.st7{fill:#FF6584;}
	.st8{fill:#6C63FF;}
	.st9{opacity:0.3;}
</style>
<title>love</title>
<path class="st0" d="M805.9,445.7c-1.3,82.8-43.7,157.6-109.3,193.2c-25.3,13.7-53,20.7-81,20.7c-4,0-8-0.1-12-0.4
	c-86.5-6.2-173.3-6.2-259.8,0c-4,0.3-8,0.4-12,0.4c-32.5,0.1-64.4-9.5-92.8-27.6c-59.2-38-96.2-108.9-97.5-186.2
	c-2-122.3,82.9-222.2,189.5-222.8c56.7-0.3,107.7,27.9,142.8,72.8c35-44.9,86-73.1,142.8-72.8C723.1,223.6,808,323.5,805.9,445.7z"
	/>
<path class="st1" d="M730,614c-28.6,21.8-54.8,46.8-86.5,46.7c-4.5,0-9.1-0.2-13.6-0.7c-97.8-9.9-195.8-9.9-293.6,0
	c-4.5,0.4-9,0.7-13.6,0.7c-36.7,0.1-72.8-15.1-104.8-44.1c48.4-33.7,142.9-56.6,251.6-56.6C589.8,560,687.7,574.3,730,614z"/>
<path class="st2" d="M633.9,237.2c-6.6-5.7-15.8-7.1-23.9-3.8c-11.9,5.2-17.1,19.7-16.2,32.7c0.9,13,6.2,25.1,9.7,37.5
	c4.7,16.8,5.9,34.9,0.4,51.4s-18.4,31.1-35.2,35.7c-15.6,4.3-32.1,0-47.6-4.3"/>
<path class="st2" d="M755.9,224.8c-4.8-7.2-13.4-11.1-22-10c-12.8,1.8-21.7,14.5-24.3,27.2s-0.7,25.8-0.6,38.8
	c0.1,17.4-3.6,35.2-13.3,49.7s-26,25-43.4,25.1c-16.2,0-30.9-8.6-44.8-16.9"/>
<path class="st2" d="M697.4,43.9c8.6-1.4,17.2,2.3,22.3,9.4c7.4,10.7,4.1,25.8-3.4,36.3s-18.5,18-28,26.8
	c-12.8,11.8-23.4,26.6-27.4,43.5s-0.7,36.1,11.1,48.9c10.9,11.9,27.3,16.9,42.8,21.4"/>
<rect x="440.5" y="331.1" class="st3" width="25" height="13"/>
<rect x="440.5" y="331.1" class="st4" width="25" height="13"/>
<circle class="st1" cx="394.5" cy="112.1" r="32"/>
<path class="st3" d="M467,324.6c0,0-10-3-12-2s7,9,7,9L467,324.6z"/>
<path class="st4" d="M467,324.6c0,0-10-3-12-2s7,9,7,9L467,324.6z"/>
<path class="st5" d="M398,580.6c0,0,23,3,27,3s15,4,9,9s-44,12-49,9s-12-12-7-13S398,580.6,398,580.6z"/>
<polygon class="st3" points="357,617.6 349,631.6 359,636.6 378,640.6 388,627.6 384,612.6 "/>
<path class="st1" d="M410,514.6c0,0-13,55-11,58s6,11,2,14s-20,4-20,4l5-29l7-35L410,514.6z"/>
<path class="st1" d="M374,398.6l13,59c0,0,2,29-3,40s-32,127-32,127s28,1,34-2s16.1-72.3,16.1-72.3s32.9-65.7,31.9-78.7s5-79-3.5-84
	S374,398.6,374,398.6z"/>
<path class="st5" d="M376,635.6l12-12c0,0,32,16,37,17s16,9,5,12s-52,1-62,0s-30-2-27-8s8-27,8-27s2.8-3.8,4.4,1.1
	s2.6,11.9,6.6,11.9S376,635.6,376,635.6z"/>
<path class="st6" d="M530,381.6l28-2l19,10l-2,12l-8,2c0,0-22-9-35-6S530,381.6,530,381.6z"/>
<path class="st1" d="M563,385.6c0,0,11,12,0,16.5c0,0,2,3.5,10,4.5s19,8,22,8s16-2,8-13s-40-35-40-35s-9-4-12,4s-4.6,9.8-4.6,9.8
	S561,383.6,563,385.6z"/>
<path class="st6" d="M479,481.6c0,0,9,34,9,36s12-8,12-8l2-18c0,0-8-8-8-13S479,481.6,479,481.6z"/>
<path class="st1" d="M497,505.6c0,0-7,9-12,6l3,34c0,0,2,17,9,10s14-42,14-42s10-21,2-24c-4.5-1.7-9.2-3.1-14-4
	C499,485.6,499,506.6,497,505.6z"/>
<path class="st7" d="M432,391.6l30,62c0,0,10,35,14,36s19-6,21-7s-17-40-17-47s-23-46-23-46L432,391.6z"/>
<path class="st8" d="M432,391.6l30,62c0,0,10,35,14,36s19-6,21-7s-17-40-17-47s-23-46-23-46L432,391.6z"/>
<path class="st8" d="M453,283.6c0,0,1,21-3,35s5,60,5,60s15,1,19,0s58-2,61,0s2,37,0,36s-54-12-79-8s-28-2-29-4s-18-56-18-56l-6-26
	l-8-28l5-27L453,283.6z"/>
<circle class="st6" cx="392.5" cy="126.1" r="27"/>
<circle class="st3" cx="342" cy="189.6" r="27"/>
<path class="st6" d="M400,144.6c0,0,18,12,15,19s-11,15-11,15l-1,11l15,5l38,2c0,0-2-34-14-43s-26-15-28-23S400,144.6,400,144.6z"/>
<path class="st6" d="M449.6,169.2c-6.5-12.2-25-10.7-28.8,2.6c-1,3.3-0.6,6.8,1.2,9.7c7,12,12,21,12,21l22-2
	C456,200.6,456.4,182,449.6,169.2z"/>
<path class="st1" d="M407.3,175c0,0-26.3,16.6-24.3,27.6s4,30,4,37s7,29,17,33s10-7,24,6s29,19,28,21s4-18-4-26s-17-31-9-41
	s15-36,15-36s-1-6-7-5s-43-3-45-8C404.8,180.7,405.3,177.4,407.3,175z"/>
<path class="st1" d="M403.6,183.5c0,0,27.4-29.9,31.4-28.9s15.5,12.8,15.5,12.8L435,156.6l-31.4,28.6V183.5z"/>
<path class="st3" d="M365,194.6c0,0,3.8,40.4,8.9,44.2s-38.9,2.8-38.9,2.8s10-31,4-35S365,194.6,365,194.6z"/>
<path class="st5" d="M375,227.6c0,0-34-9-38-4s-12,48-12,48s4,29,11,50s16,95,23,95s19-11,22-11s21-9,32-7c6.3,1.2,12.8,0.9,19-1
	c0,0-5-42-17-53s-18-87-18-87S380,225.6,375,227.6z"/>
<path class="st3" d="M427,322.6c0,0,11.4,15.4,22.7,16.2l6.3-0.2c0,0-10,26-5,27s20-19,15-30s-20-28-20-28L427,322.6z"/>
<path class="st3" d="M467,322.6c0,0-17,16-10,23s16,0,16,0S480,335.6,467,322.6z"/>
<path class="st4" d="M467,322.6c0,0-17,16-10,23s16,0,16,0S480,335.6,467,322.6z"/>
<circle class="st1" cx="401.5" cy="106.1" r="32"/>
<circle class="st1" cx="416.5" cy="79.1" r="19"/>
<path class="st1" d="M401.5,73.1c0-9.7,7.3-17.9,17-18.9c-0.7-0.1-1.3-0.1-2-0.1c-10.5,0-19,8.5-19,19s8.5,19,19,19
	c0.7,0,1.4,0,2-0.1C408.8,91,401.5,82.8,401.5,73.1z"/>
<ellipse class="st1" cx="391" cy="119.1" rx="25.5" ry="19"/>
<path class="st1" d="M343.1,179.6c-0.4,1.9-1.2,3.8-0.5,5.7c0.5,1.4,1.8,2.6,2.6,3.9c1.5,2.7,0.5,6.2-2.1,7.3
	c-1.5-0.9-3.2-1.2-4.9-0.8c-1.6,0.4-2.7,1.8-2.5,3.5c0.4,2.3,3,3.8,4.4,5.8c0.8,1.5,1.4,3.2,1.7,5c0.7,2.7,1.9,5.4,2,8.1
	s-1.2,5.5-3.9,5.9c-2.3,0.3-4.7-1.2-6.3-3.1s-2.7-4-4.2-6c-4.8-6.3-13.1-9.3-18.7-15c-7.2-7.4-8.7-18.3-6.1-27
	c1.1-3.7,2.9-7.1,5.9-9.4c3.2-2.3,7.4-3.1,11-4.9c3.8-1.9,6.7-5.1,10.1-7.6s7.6-4.6,12.2-3.9c3.2,0.5,6.3,2.2,9.4,3.1
	c3.5,0.9,7.2,0.6,10.4-0.9l-3,3.2c2.1,0.8,4.4,1.2,6.7,1c-0.9,1.9-2.5,3.3-4.5,4.1c1.6,1.2,3.6,1.9,5.6,1.7c-2.2,2.5-4.6,5.1-7.9,6
	c-1.7,0.4-3.5,0.4-5.2,0.7c-3.7,0.6-6.7,2.5-9.7,4.4c-1.6,1-3.5,2.1-3.5,4.2C342.1,176.2,343.5,177.6,343.1,179.6z"/>
<path class="st5" d="M355,237.6c0,0-9,33,7,40s49,33,55,42s13,12,13,12s24-20,19-26s-25-24-25-24S373,226.6,355,237.6z"/>
<path class="st6" d="M434,238.6c0,0-36.7-10.5-47.9-12.3s-40.1,1.3-34.1,6.3s41,9,41,9l42,16L434,238.6z"/>
<path class="st1" d="M434,197.6c0,0,3,20,3,27s5,13,1,13s-7-4-7,0s-6,28,0,28s21-4,24-4s13-2,12-13s-5-23-3-25s3-12,1-14s-7-15-7-15
	L434,197.6z"/>
<g>
	<path class="st8" d="M662.1,211.3c0.4-7.5-5.3-13.9-12.8-14.3c-7.5-0.4-13.9,5.3-14.3,12.8l0,0l-1.6,27.1l27.1,1.6
		c7.5,0.4,13.9-5.3,14.3-12.8S669.5,211.8,662.1,211.3L662.1,211.3z"/>
	<path class="st8" d="M635.9,281.9c0.4-7.5-5.3-13.9-12.8-14.3s-13.9,5.3-14.3,12.8l-1.6,27.1l27.1,1.6c7.5,0.4,13.9-5.3,14.3-12.8
		C649.1,288.7,643.4,282.3,635.9,281.9L635.9,281.9z"/>
	<path class="st8" d="M596.9,206.3c-5.7-4.8-14.3-4.1-19.1,1.7c-4.8,5.7-4.1,14.3,1.7,19.1l0,0l20.8,17.4l17.4-20.8
		c4.8-5.7,4.1-14.3-1.7-19.1C610.3,199.8,601.7,200.5,596.9,206.3L596.9,206.3z"/>
	<path class="st8" d="M790,207.4c2.4-7.1-1.4-14.8-8.5-17.2s-14.8,1.4-17.2,8.5l-8.7,25.7l25.7,8.7c7.1,2.4,14.8-1.4,17.2-8.5
		C800.9,217.5,797.1,209.8,790,207.4L790,207.4z"/>
	<path class="st8" d="M743.1,267.6c2.4-7.1-1.4-14.8-8.5-17.2s-14.8,1.4-17.2,8.5l-8.7,25.7l25.7,8.7c7.1,2.4,14.8-1.4,17.2-8.5
		C754,277.8,750.2,270,743.1,267.6z"/>
	<path class="st8" d="M725.6,184.4c-4.3-6.2-12.7-7.7-18.9-3.5c-6.2,4.3-7.7,12.7-3.5,18.9l0,0l15.4,22.3l22.3-15.4
		c6.2-4.3,7.7-12.7,3.4-18.9C740.2,181.7,731.8,180.2,725.6,184.4L725.6,184.4z"/>
	<path class="st8" d="M687.1,7.1c3.6-6.6,11.8-9,18.4-5.5c6.6,3.6,9,11.8,5.5,18.4l0,0l-13,23.9L674.2,31c-6.6-3.6-9-11.8-5.5-18.4
		C672.3,6,680.5,3.5,687.1,7.1z"/>
	<path class="st8" d="M674.7,82.4c3.6-6.6,11.8-9,18.4-5.5c6.6,3.6,9,11.8,5.5,18.4l0,0l-12.9,23.9l-23.9-12.9
		c-6.6-3.6-9-11.8-5.5-18.4C659.9,81.3,668.1,78.8,674.7,82.4z"/>
	<path class="st8" d="M747.7,38.7c7.4-1.1,14.3,4.1,15.4,11.5c1.1,7.4-4.1,14.3-11.5,15.4l0,0l-26.9,3.9l-3.9-26.9
		c-1.1-7.4,4.1-14.3,11.5-15.4C739.8,26.2,746.6,31.3,747.7,38.7L747.7,38.7z"/>
	<g class="st9">
		<path class="st8" d="M645.4,401.1c-3.8-0.5-7.3,2.3-7.8,6.1s2.3,7.3,6.1,7.8l0,0l13.9,1.7l1.7-13.9c0.5-3.8-2.3-7.3-6.1-7.8
			S645.8,397.3,645.4,401.1L645.4,401.1z"/>
	</g>
	<g class="st9">
		<path class="st8" d="M765,351.3c-3.4-1.9-7.6-0.7-9.5,2.7c-1.9,3.4-0.7,7.6,2.7,9.5l12.2,6.9l6.9-12.2c1.9-3.4,0.7-7.6-2.6-9.6
			C771.2,346.8,767,347.9,765,351.3L765,351.3L765,351.3z"/>
	</g>
	<g class="st9">
		<path class="st8" d="M738.4,429.1c-3.8-0.5-7.3,2.3-7.8,6.1s2.3,7.3,6.1,7.8l0,0l13.9,1.7l1.7-13.9c0.5-3.8-2.3-7.3-6.1-7.8
			S738.8,425.3,738.4,429.1L738.4,429.1z"/>
	</g>
</g>
</svg>
