<?xml version="1.0" encoding="utf-8"?>
<!-- Generator: Adobe Illustrator 23.0.2, SVG Export Plug-In . SVG Version: 6.00 Build 0)  -->
<svg version="1.1" id="Layer_1" xmlns="http://www.w3.org/2000/svg" xmlns:xlink="http://www.w3.org/1999/xlink" x="0px" y="0px"
	 viewBox="0 0 256.8 213.4" style="enable-background:new 0 0 256.8 213.4;" xml:space="preserve">
<style type="text/css">
	.st0{fill:#DE5D58;}
	.st1{fill:#0D1213;}
	.st2{fill:#122226;}
	.st3{fill:#DEDFE0;}
	.st4{fill:#F0D0B4;}
	.st5{fill:url(#SVGID_1_);}
	.st6{fill:#202020;}
	.st7{fill:#E7685D;}
	.st8{fill:#CE5B59;}
	.st9{fill:#3C2415;}
	.st10{fill:none;stroke:#BCBEC0;stroke-width:0.5;stroke-miterlimit:10;}
</style>
<title>Layer 1</title>
<path class="st0" d="M39.3,128.2c-7.2-11.2,4.2-25.7,14.5-21.4c7.5,3.1,22.7,18.8,31.5,19.8s27.5-7.4,34.1-12.7
	c1.6-1.3,3.8-1.6,5.7-0.8l7.6,2.4c2.4,1.6,1.8,5.6-0.3,9.4c-6.3,11.2-25.2,32.8-41.8,33.9C67.8,160.3,45.5,137.8,39.3,128.2z"/>
<path class="st1" d="M92.5,168.1c0,0,61,11.9,64.6,12.9s69.5,10.9,69.5,10.9l-2.2,15.7l-130.7,2.7l-28.3-7.1L92.5,168.1z"/>
<path class="st2" d="M80.5,167.8c1.2-0.2,2.4-0.7,3.3-1.5c8.8-7.5,48.3-42.7,69.6-42.7c18.7,0,40.5,68.7,40.5,68.7l-13.2,8
	L151.6,159c0,0-27.3,32.6-39.7,41.5s-29.4,16.1-44.8,9.2c-20.6-9.2-19.1-25.5-14.8-31.9c1-1.6,2.7-6.4,4.5-6.7L80.5,167.8z"/>
<path class="st3" d="M177.3,195.4c2,3.1,3.7,6.4,5,9.9c1.4,4.3,0.4,6.3,3.6,7.5c2.4,0.9,25.3,0.1,27.2-0.3s1.8-2.3,0.7-4.3
	s-11.3-4.9-14.4-7.5c-4.7-3.8-6.4-11.1-6.4-11.1L177.3,195.4z"/>
<path class="st4" d="M55.7,18.3C73,24.8,70.6,45.1,67.3,52.1S63,69,53.2,66.8s-23.3-8.7-23.3-8.7s-7.6-18,0-30.4
	C33.7,21.4,62.2,17.6,55.7,18.3z"/>
<linearGradient id="SVGID_1_" gradientUnits="userSpaceOnUse" x1="23.1212" y1="294.7614" x2="81.0713" y2="238.8113" gradientTransform="matrix(1 0 0 1 0 -130)">
	<stop  offset="0" style="stop-color:#D15F55"/>
	<stop  offset="0.15" style="stop-color:#D76257"/>
	<stop  offset="0.34" style="stop-color:#E7685D"/>
	<stop  offset="0.97" style="stop-color:#E7685D"/>
</linearGradient>
<path class="st5" d="M52.1,82c3.8-0.2,7.5,2.5,10.2,5.2c7.9,8,17.1,24,12.5,31.6c-3.3,5.5-0.1,10.7,0.1,14.3c0.1,2.8,1.2,5.5,3,7.6
	l5.8,12.8c2.7,3.3,7.5,5,6.4,9.1c-2,8.3-39,34.3-40.9,30c-4.6-10.2-17.9-29.2-18-57.6s1.8-26.9,2.5-40.1c0.4-6.9,5.8-12.3,12.7-12.7
	L52.1,82z"/>
<rect x="128.3" y="90.6" transform="matrix(0.4198 -0.9076 0.9076 0.4198 -2.7611 180.7273)" class="st6" width="23.4" height="3.9"/>
<path class="st4" d="M121.3,114.8c0,0,4.9-18.8,13.8-13.5s-5.4,17.8-5.4,17.8L121.3,114.8z"/>
<path class="st4" d="M51.3,64.7c0,0-0.6,7,1.9,12.4c0.6,1.4,7.6,8.7,7.6,8.7l-24-0.4l3.3-28.6L51.3,64.7z"/>
<path class="st3" d="M223,207.5c0,0,8.2,0.6,12.6,1.5s5.7,2.7,8.3,0.5c2-1.6,12.2-22.2,12.7-24s-1.2-2.7-3.5-2.7s-9.9,7.2-13.5,9
	c-3.2,1.6-14.1-0.1-14.1-0.1L223,207.5z"/>
<path class="st7" d="M37.8,112.3c-5.2-12.3,8.6-24.6,18.1-18.5c6.9,4.4,19,22.5,27.5,25.1s28.4-2.4,35.8-6.5c1.8-1,4-0.9,5.7,0.2
	l7.1,3.7c2.1,1.9,0.8,5.8-2,9.2c-8.2,9.9-30.6,27.9-47.1,26C60.2,148.8,42.2,122.8,37.8,112.3z"/>
<path class="st8" d="M68.9,105.8c-1.2-0.8-2-2.4-3.2-3.3c-0.1-0.1,0.2-0.1-0.1-0.4c-1.4-1.2-2.7-2.5-3.8-3.9h0.1
	c-0.2-0.3-0.7-0.4-0.9-0.7c0,0,0.1,0,0.1-0.1S60.6,97,60.4,97s0-0.2-0.1-0.3h-0.2c-0.6-0.1-1-0.9-1.8-1.2h0.1
	c-1.1-0.6-2.3-1.6-3.6-2.1c0.1,0,0.2-0.1,0.1-0.2c-0.1,0.1-0.5,0-0.9-0.2c-0.1-0.2-0.6-0.1-1-0.3l0,0c-0.3,0.1-0.4-0.2-0.7-0.1
	l-0.1-0.1c-0.2,0.2-0.4-0.2-0.7-0.1l0,0c-0.2,0-0.4-0.1-0.6-0.1l0,0c-0.5,0-0.8-0.1-0.8,0.1c-0.2-0.1,0.5-0.1,0.2-0.3
	c-1.8,0.2-3.5,0.7-5.2,1.5c-0.2,0-0.3,0.1-0.4,0c-0.2,0.1-0.5,0.3-0.7,0.5c0,0-0.1,0-0.2,0c-0.3,0.1-0.2,0.3-0.5,0.5
	c0.1-0.1,0.1-0.2,0-0.2c-0.2,0.3-0.5,0.5-0.8,0.8c0-0.1,0.1-0.1,0-0.2c-0.2,0.3-0.6,0.4-0.8,0.7v-0.2c-0.5,0.3,0,0.3-0.4,0.5
	c0.1-0.1,0-0.1,0-0.1c-0.2,0.4-0.8,0.9-1,1.3l0,0c-0.3,0.4-0.6,0.8-0.9,1.2c-0.2,0.1-0.2-0.2-0.4,0.3c0.2,0.1-0.4,0.8-0.1,0.6
	c-0.3,0.4-0.5,0.8-0.7,1.2c0-0.2-0.3,0.1-0.2-0.2l-0.2,0.2c-0.1-0.1,0.1-0.2,0-0.2s-0.2,0.7-0.3,0.8c0,0.4,0,0.8-0.1,1.2
	c0-0.3-0.2,0.1-0.2-0.1l0.1,0.8c0,0.2-0.2,0-0.2,0.3c0,0,0.1,0.1,0.1,0.2s-0.1,0.7-0.3,0.8s0-0.3-0.1-0.1s0,0.4,0,0.7l0,0
	c-0.1,0.2,0,0.7,0.1,0.4s-0.1,0,0-0.2c0.1,0.3,0.1,0.6,0.1,0.9c0-0.1-0.1-0.1-0.1-0.2c0.1,0.4,0.2,0.9,0.2,1.4
	c0.1,0-0.2-0.2-0.1-0.2c0,0.3,0,0.7,0.1,1s0.1,0.6,0.1,0.9c0-0.1,0.1-0.1,0.1-0.1c0,0.3-0.1,0.3,0,0.5c-0.1,0,0.1,0.2,0.1,0.4
	s0,0.1-0.1-0.1c0.3,0.6,0.5,1.3,0.7,2c0,0,0.3,0.3,0.4,0.4h-0.1c0,0.2,0.2,0.5,0.1,0.5c0.2,0.2-0.6-1.1-0.3-0.8
	c0,0.1,0.4,0.5,0.2,0.5c0.2,0.2,0.3,0.5,0.4,0.8c0-0.1-0.2-0.2-0.1,0.1c0.2,0.4,0.1,0.1,0.3,0.4l0.1,0.2c0.1,0,0.2,0.4,0.2,0.2
	c-0.1,0.1,0.3,0.5,0.2,0.6h-0.2c0.1,0.2,0.3,0.2,0.4,0.3s0,0.1,0,0.1c0.2-0.1,0.2,0.4,0.5,0.5c0.1,0.4,0.5,0.9,0.5,1.1
	c0.2,0.2,0.4,0.5,0.5,0.8c0,0-0.1-0.1-0.2-0.1c0,0.2,0.1,0.2,0.3,0.4c-0.1,0,0.1,0.4,0.2,0.7c0.2,0.2,0.3,0.1,0.3,0.1
	c0,0.3,0.6,0.7,0.6,1.1c-0.1-0.1-0.3-0.3-0.2-0.1s0.4,0.4,0.6,0.8l0.1-0.2c0,0.2,0.5,0.5,0.3,0.6c0.1,0.1,0.2,0.5,0.4,0.3
	c0.3,0.7,1.1,1.4,1.1,2c0.1,0.1,0.2,0.3,0.2,0.2s-0.2-0.2-0.2-0.3c0.1,0.1,0.1,0.1,0.1,0.1c0.1,0.2,0.2,0.4-0.1,0.3
	c0.2,0.5,0.5,0.3,0.9,0.8c-0.1,0-0.1,0.1,0,0.2l0.3,0.2c0.2,0.4,0,0.3-0.1,0.4c0.2,0.2,0.3,0.4,0.5,0.4v0.3c0-0.2,0.2,0.1,0.3,0.2
	l-0.1-0.1c0,0.1,0.2,0.3,0.3,0.3c0-0.1-0.1-0.3-0.2-0.4c0.1,0.1,0.2,0.2,0.3,0.3c-0.1,0,0.2,0.3,0.2,0.5s0.2,0.1,0.3,0.2
	s0.2,0.3,0,0.2s0-0.2-0.2-0.2c0,0.1,0,0.2,0.2,0.4s0.2-0.2,0.3,0.2c-0.1-0.1-0.1,0-0.2-0.1l0.2,0.3l0.1-0.1c0,0.1,0,0,0,0.1
	c0.2,0,0.4,0.4,0.5,0.4c0.1,0.1,0.2,0.4,0.3,0.5l0,0c0.1,0.2,0.3,0.4,0.5,0.5l0,0c0.1,0.2,0.3,0.3,0.4,0.4c0.1,0.3-0.2,0.4,0.1,0.5
	s0.5,0.2,0.5,0.1c0.3,0.5,0.8,0.8,1.1,1.4c0.1,0,0.1,0,0.2,0.1c0.6,0.6,1.1,1.2,1.5,1.8c-0.2-0.1-0.1,0.1-0.1,0.1
	c0.2,0.1,0.1,0.2,0.3,0.2s0.1-0.1,0-0.3c0.4,0.3,0.7,0.7,1,1.1c-0.1-0.1,0-0.1,0.1,0c-0.1,0.1,0.1,0.4,0.3,0.5h0.1v0.2
	c0.1,0,0.2-0.1,0.3,0.2v0.1c0.3,0.1,0.6,0.3,0.8,0.6l0.1,0.3c0.1,0.1,0.3,0.2,0.2,0c0.2,0.3,0.4,0.6,0.6,0.9c1,0.6,1.8,1.2,2.6,2H59
	c0.2,0.2,0.2,0,0.3,0.2c-0.1,0,0.1,0.3-0.2,0.2c0.2,0.3,0.5,0.2,0.7,0.4c0.1-0.1-0.2-0.1-0.1-0.1s0.4,0.4,0.5,0.3
	c0,0.1-0.1,0.1-0.2,0.1l0.2,0.1c0.1,0.3-0.7-0.2-0.6,0.2l0.2,0.1c0.1,0.2-0.6-0.3-0.2,0.1c0.2,0.1,0.5,0.1,0.4-0.1
	c0.4,0.3,0.4-0.1,0.8,0.2c0.1,0.2-0.3-0.3-0.3-0.1s0.4,0.3,0.6,0.4c-0.2-0.2,0.1-0.2,0.2-0.1s-0.2,0,0.1,0.2c0.1,0,0.4,0.1,0.2-0.1
	c0.2-0.1,0.3,0.3,0.6,0.3c0,0.2-0.5,0-0.2,0.3c0-0.1,0.5,0.2,0.5-0.1c0.1,0.1,0.1,0.2-0.1,0.2c0.2,0.2,0.6,0.2,0.5,0.4l0.1-0.1
	c0.1,0.1,0.1,0.2,0.2,0.3c0.2,0.1,0.7,0.2,0.5,0.4c0.1,0,0.5,0.3,0.4,0.1s-0.3-0.1-0.4-0.4c0.1,0.2,0.4,0.2,0.6,0.3v0.1
	c0.1,0,0.3,0.2,0.4,0.1c-0.1,0-0.1,0.1,0,0.1h0.2c0.4,0.2,0,0.2,0.3,0.4l-0.3-0.1c0.1,0,0.1,0.2,0.3,0.3c0.1,0,0.3-0.1,0.4-0.1
	c0.2,0.1,0,0.1,0.3,0.2l-0.3-0.1c-0.1,0,0.1,0.3,0.3,0.4s0.5,0.1,0.3-0.1c0.1,0.1,0.3,0.3,0.1,0.3c0.3,0.1,0-0.1,0.3,0
	c0.1,0.1,0.3,0.4,0.5,0.6h-0.4l0.2,0.1c-0.3,0,0.1,0.2-0.2,0.2c0.1,0.1,0.3,0.1,0.4,0.2c-0.2-0.4,0.6,0,0.6-0.3
	c0.5,0.2,0,0.6,0.7,0.6c-0.1-0.1,0.3-0.1-0.1-0.2c0.3,0.2,0.3-0.1,0.6,0.2c-0.3-0.1,0.2,0.4-0.3,0.2c0.1,0-0.2-0.2-0.3-0.2
	c0.1,0.1-0.1,0.2,0.2,0.4s0.5,0.2,0.5,0.1s-0.3-0.1-0.1-0.2c0.4,0.2,0.4,0.4,0.7,0.2c-0.3-0.1-0.3-0.3-0.2-0.3l0.3,0.1l-0.1,0.1
	c0.4,0.3,0.2-0.1,0.7,0.2l0.1,0.3c-0.2,0.1-0.6-0.4-0.7-0.1c0.3,0.2,0.4,0.1,0.7,0.3l-0.2-0.1c0.1,0.1,0.1,0.4,0.6,0.4
	c0.2,0,0.1-0.1,0.1-0.1c0.5,0.2,0.7,0.2,1,0.3c-0.1,0.1,0.5,0.3,0.1,0.3c-0.3-0.3-0.7-0.4-1.1-0.4c0.1,0.3-0.4-0.2-0.6-0.1
	c0.4,0.2,0.3,0.4,0.3,0.5c0.1,0,0.2,0.1,0.3,0.1c0.1-0.1,0-0.2,0-0.3c0.4,0.2,0.8,0.3,1.2,0.4c0.1,0.1,0,0.2-0.2,0.1
	c0.5,0.2,1.1,0.4,1.6,0.7c-0.2-0.3,0.6,0.2,0.4-0.1s-0.4-0.4-0.2-0.4s0,0.1,0,0.1c0.3,0,0.3,0.3,0.5,0.2c-0.5-0.1-0.2,0.2-0.3,0.3
	c0.4,0.1,0,0.1,0.3,0.2c0.4,0,0.8,0.1,1.3,0.2c0.5,0.3,1.1,0.5,1.7,0.5c0.2,0.1,0,0.3,0.3,0.4s-0.2-0.2,0.2,0l0,0
	c0.1,0,0.8,0.3,1,0.1l-0.2,0.2c0.1,0,0.2,0,0.2,0c0,0.1,0.1,0.1-0.1,0.1c0.3,0.2,0.6,0.1,0.9,0.2l-0.2-0.2c0.5,0,0.9,0.2,1.4,0.3
	v0.1H81c-0.1,0.1,0.2,0.2,0.4,0.1l-0.8,0.1c-0.2-0.1,0.3-0.1,0.1-0.2c-0.2-0.1-0.4-0.1-0.7-0.1c0.1,0,0.2,0,0.3,0
	c0,0.2-0.2,0.1-0.4,0.2c0.1,0,0.2,0.1,0.2,0.1c-0.2,0-0.5,0-0.7-0.1c0.2,0-0.1-0.1,0-0.1c-0.1,0.1-0.4,0.1-0.7,0s-0.7-0.1-1.2-0.2
	c0.2-0.1,0.5-0.1,0.8-0.1c-0.3-0.1-0.3-0.1-0.6-0.2c-0.2,0.1-0.4,0.2-0.7,0.1v-0.1c-0.3,0-0.4,0.1-0.8,0l-1.9-0.7v0.6
	c-0.4,0.1-1-0.3-1.4-0.4c-0.6-0.3-1.5-0.5-1.7-0.8c-1.2-0.5-2.4-1.1-3.5-1.8H68c-0.3,0-0.1-0.1-0.3-0.2c0.2,0.2-0.3,0-0.5,0
	c-0.5-0.4-1.1-0.6-1.7-0.8v-0.1c-0.6-0.2-1.1-0.6-1.5-1c0-0.1-0.1-0.3-0.2-0.3c-0.3-0.1-0.7-0.2-1-0.4c-0.4-0.3-0.7-0.6-1.1-0.9
	c-1.2-0.8-2.4-1.6-3.5-2.5v-0.2c-1.2-0.9-2.3-1.8-3.4-2.8l0.2-0.1c-0.2-0.3-0.7-0.6-0.7-0.4c-0.2-0.3-0.8-0.6-0.8-0.9
	c-0.2-0.3-0.4-0.3-0.7-0.5c-0.4-0.5-0.8-0.9-1.2-1.3l0.1,0.1c0.1,0,0.2,0,0-0.2s-0.7-0.8-0.6-0.4c-0.4-0.7-1.3-1.3-1.7-2
	c0,0.1-0.1,0-0.2-0.1c-0.4-0.5-0.8-1-1.3-1.5c0-0.1,0.2,0.1,0-0.2s-0.1,0.1-0.2-0.1c-0.7-0.8-1.4-1.7-2-2.6
	c-1.2-1.4-2.3-2.9-3.3-4.4l0,0c-0.5-0.4-0.6-1.2-1.1-1.5c0-0.1-0.3-0.5-0.1-0.4c-0.4-0.3-0.6-1.2-1.1-1.7c0,0.1,0.1,0.1,0.1,0.1
	c-0.3-0.6-0.7-1.1-1-1.8c0,0.1,0.1,0.2,0.2,0.2c0-0.3-0.5-0.5-0.4-0.7c-0.1-0.1-0.2,0-0.1,0c-0.7-1.4-1.6-2.8-2.3-4.3
	c-0.3-1.2,0.3-0.2-0.2-1c0-0.1-0.1,0-0.1-0.1c-0.2-0.3,0-0.6-0.2-0.8c-0.1,0.2-0.1-0.1-0.2-0.1c0-0.5-0.1-1-0.3-1.5h0.1
	c-0.4-0.6-0.3-1.4-0.6-2c-0.3-3.8,0.8-7.6,3.1-10.6s5.6-5.1,9.4-5.8c0.7,0.1,1.3,0,2-0.1c0,0-0.1,0,0,0.1c0-0.2,0.7,0,0.8-0.2
	c1.4,0.1,2.8,0.4,4.1,1c-0.2-0.1-0.4,0-0.1,0.1h0.3v0.1c0.2,0.1,0.4,0.1,0.2,0c1.5,0.8,3,1.8,4.3,3c1.3,1.1,2.5,2.3,3.7,3.5
	c0.5,0.6,1.4,1.4,2,2c1.6,2,3,3.8,4.8,5.8C69.7,106.5,69.2,106.2,68.9,105.8z"/>
<path class="st9" d="M52.2,38.4c0,0-4.3-8.1-8.6-4.3s0,12.9,0,12.9c2.3,2.3,3.6,5.6,3.3,8.9c-0.2,3.3-2.2,6.2-5.1,7.6
	c0,0,2.9,6.6,2.4,10.4s-5.9,8.2-5.9,8.2s3.4,1.5,2.1,8.3s-5.4,9.8-5.4,9.8s5.2,6.8,2.9,13.3s-8.9,5.3-8.9,5.3s-8.8,6-13.1,4.1
	s-5.9-9.4-5.9-9.4s-7.8-6.9-7.8-11.9c0.2-3.6,0.9-7.1,2.2-10.4c0,0-4.1-5.1-3.2-10.5s4.5-11.4,4.5-11.4c-0.9-2.7-1.5-5.5-1.5-8.5
	c0-4.8,6.2-9,6.2-9s-4-3.3-3.5-10.4s7.6-10.8,7.6-10.8s0-11.5,4.3-15.8s11.1-4.6,11.1-4.6s7-8.9,13-8.4s12.3,5.5,12.3,5.5
	s12-0.2,14.8,4.6c1.7,3.1,2.5,6.6,2.2,10.2c1.9,1.8,3,4.3,3.1,7c0,4.3-4.8,6.2-4.8,6.2s-2,4.9-9.5,6.2S52.2,38.4,52.2,38.4z"/>
<path class="st9" d="M55.2,41.5c2.3,0.3,4.7,0.2,7-0.4c2.4-0.5,4.6-1.7,6.3-3.5c0.3-0.4,0.2,0.4,1-0.6c0.3-0.4,0.5-0.9,0.7-1.4
	c0.1-0.1,0.1-0.3,0.2-0.4c0.1-0.1,0.2-0.1,0.4-0.2c1-0.5,1.9-1.2,2.7-2.1c0.9-0.9,1.5-2,1.7-3.2c0.3-2.5-0.3-5-1.8-7l0.3,0.2
	c-0.1-0.2-0.2-0.3-0.3-0.5c-0.1-0.1-0.1-0.1-0.2-0.2s-0.1-0.1-0.2-0.1c-0.1-0.1-0.2-0.2-0.4-0.3c0-0.1,0-0.3,0-0.4
	c0-0.4,0-0.7,0-1.1c0.1,0,0.1,0.4,0.2,0.1c-0.2-0.3-0.2-2-0.4-2.5c0-0.4,0.2-0.4,0.2-1l-0.4-0.5c-0.5-0.9-0.9-1.9-1.2-2.9
	c-0.2-0.5-0.5-1-0.8-1.5s-0.7-1-1.2-1.3c0.1,0,0.3,0.1,0.2,0c-1.7-1.2-3.7-2-5.8-2.3c-2.1-0.5-4.3-0.7-6.5-0.7
	c0.2-0.1,0.3-0.2,0.1-0.4c-0.6,0.2-1.2,0.3-1.8,0.3L54.4,7c-0.2-0.6-1.7-0.9-2.8-1.7h0.1c-1-0.2-1.2-0.9-2-0.9l-0.5-0.5
	c-0.6,0.2-1.2-0.8-2-0.9v0.1c-0.7-0.2-1-0.5-1.8-0.6V2.4c-1.6-0.3-2.5-0.5-2.5-0.2c-0.5-0.3,1.6,0.1,0.7-0.4c-1.4-0.1-2.7,0.1-4,0.7
	c-1.1,0.5-2.3,1.3-3.4,2.1S34,6.3,33.1,7.3c-0.5,0.5-1,1-1.5,1.5l-0.7,0.8l-0.7,0.8h-0.1c-0.4,0-0.9,0-1.3-0.1
	c-0.9,0.1-1.8,0.4-2.6,0.8c0.2-0.1-0.4-0.1-0.7,0c-1,0.2-0.9,0.7-2,0.9c0.4-0.2,0.5-0.4,0.3-0.4c-0.8,0.6-1.9,1.1-2.8,1.8
	c0.1-0.1,0.3-0.3,0.2-0.4c-0.9,0.9-1.9,1.2-2.5,2.1c0-0.1,0.1-0.3,0.1-0.4c-0.7,0.6-0.7,0.7-0.7,0.9s0,0.2-0.4,0.8
	c0.1-0.3,0-0.3,0-0.4c-0.7,1.5-1.2,3-1.7,4.6c0-0.1,0-0.1,0-0.1c-0.4,1.5-0.7,3.1-0.9,4.6c-0.2,0.6-0.4-0.3-0.5,1.3
	c0.4,0-0.1,2.7,0.4,1.8l-0.1,1.1l-0.1,1.5c-0.4,0.2-0.8,0.4-1.2,0.7c-0.2,0.2-0.5,0.3-0.7,0.5c0.4-0.5-0.8,0,0.1-0.7
	c-0.3,0.1-0.5,0.2-0.8,0.3c0-0.2,0.7-0.5,0.4-0.5c-0.5,0.3-1.7,1.5-2.1,1.9c-0.6,0.9-0.9,1.9-1.8,3.3C9,35.5,8.1,36.5,8.3,36
	c-0.1,0.4-0.2,0.8-0.3,1.2c0.2,0.5,0.2,0.9,0.2,1.3c-0.2,0.5-0.4,0-0.5,0.8c0.1,0,0.1,0.3,0.1,0.6c-0.2,0.2-0.2,2.2-0.5,2.4
	c-0.1,0.2,0-0.9-0.2-0.3c0,0.7,0.1,1.4,0.2,2.1l0,0c0,0.7,0.5,1.9,0.5,1.2c-0.1-0.5-0.2,0.2-0.2-0.5c0.4,0.8,0.7,1.6,0.9,2.5
	C8.3,47,8.3,47.1,8.1,47c0.3,0.6,0.6,1.1,1,1.7c0.2,0.3,0.4,0.5,0.6,0.8l0.4,0.5l0.6,0.6l0.1,0.4c0.1,0,0-0.2-0.2-0.3
	S10,50.3,10,50.2c0.1,0.2,0.3,0.4,0.4,0.6c0.1,0.4,0.3,0.8,0.5,1.2v0.1v0.1L10.8,52c-0.1,0.1-0.1,0.2-0.2,0.3
	c-0.1,0.2-0.2,0.4-0.3,0.7l-0.8,0.7l-0.6,0.5c-0.3,0.3-0.6,0.6-1,0.8c0.2-0.2,0.3,0.1,0.2,0c-0.6,0.7-0.8,0.5-1.1,1
	c-0.2,0-0.4,0.6-0.7,1.2c0,0.3-0.2,0.1,0.1-0.4c-0.4,0.8-0.7,1.6-1,2.4c-0.1,0.3-0.1,0.5-0.2,0.8c-0.1,0.3,0,0.5-0.1,0.8
	c0,0.6,0,1.2,0,1.7c0.3,0.5,0.5,1.1,0.6,1.6L5.5,64c-0.1,0.4,0.3,1.5,0.1,1.6c0.2,0.4,0-0.5-0.2-1.3S5,62.5,5.2,63.2
	C5,63.6,5.8,65,5.5,64.7c0.3,0.9,0.5,1.8,0.7,2.7c0-0.3-0.5-0.7-0.3,0.1s0.3,0.7,0.3,0.8c0.2,0.3,0.3,0.5,0.4,0.8l0.2,0.3
	c-0.1,0.2-0.2,0.4-0.2,0.6c0.1,0.1-0.1,0.5-0.3,0.8s-0.2,0.3,0,0.2c-0.2,0-0.8,1.8-1,1.5l-0.2-0.3c-0.1,0.5-0.2,1-0.2,1.5
	c-0.1,0.1-0.2,0.2-0.2,0.1C5,74,4.1,75,4.2,75.7c-0.6,1.1-1,2.9-1.4,3.3c-0.1,0.9-0.1,1.8-0.3,2.7c0-0.2,0-0.4-0.1-0.5
	c-0.1,0.4-0.1,0.9,0,1.3c-0.2,0.7-0.2,1.3-0.2,2C2.5,85.3,2.7,85,2.9,85c-0.1,0.6,0.1,1.1,0.4,1.6c0.3,0.5,0.6,1.1,0.8,1.7
	c-0.2-0.2-0.8-1.1-0.6-0.3c0,0.5,0.3,0.9,0.6,1.2c0.2,0.2,0.4,0.4,0.5,0.6c0.3,0.3,0.5,0.7,0.8,1.1c0-0.2,0.1-0.3,0.1-0.5
	c0.1,0.2,0.2,0.4,0.4,0.6c-0.2,0.5-0.4,1-0.5,1.5c0,0.1-0.1,0.3-0.1,0.4c-0.1,0.1-0.1,0.1-0.2,0c0,0.5-0.6,1.5-0.2,1.4
	c-0.5,1.2-0.8,2.4-1,3.6c-0.1,1-0.3,2-0.7,3c0,0.2,0,0.4,0,0.7c0,0.2,0.1,0.3,0.2,0.3c0.2-0.5-0.1-0.7,0-0.9c0,0.3,0.1,0.3,0.1,0.4
	c-0.1,0.4,0,0.6-0.1,0.7s-0.1,0.1-0.3-0.2c0,0.5,0.1,1,0.5,1.4c0.4,0.5,0.7,1,0.9,1.6c-0.2,0-0.2,0.2,0.1,0.6
	c0.2,0.3,0.5,0.5,0.8,0.8c0.6,1.1,0.1,0.8-0.1,1c0.4,0.5,0.9,1.2,1.3,1.3c0.1,0.3,0.2,0.6,0.3,0.8c-0.2-0.6,0.5,0.3,0.7,0.5
	l-0.3-0.2c0,0.2,0.6,0.7,0.9,1c0.1-0.2-0.5-0.8-0.7-1.2c0.3,0.2,0.7,0.6,1.1,0.9c-0.3,0.1,0.6,0.9,1,1.3s0.7,0.3,0.8,0.5
	s0,0.1,0.1,0.2s0.2,0.2,0.3,0.3c0.2,0.2,0.3,0.3,0,0.2c-0.1-0.1-0.3-0.3-0.4-0.4c-0.1-0.1-0.2-0.2-0.4-0.3c0.1,0.1,0.1,0.3,0.2,0.4
	c0.2,0.2,0.4,0.5,0.7,0.6l0.1,0.2c0.2,0.4,0.3,0.3,0.4,0.4s0.1,0,0.1,0.2c0.1,0.2,0.1,0.4,0.1,0.6c-0.1-0.3-0.2-0.3-0.4-0.5
	c0,0.4,0.1,0.8,0.2,1.1h0.2c0,0.2-0.1,0.1-0.1,0.1c0.3,0.2,0.6,1.6,1,1.7c0.2,0.5,0.4,1.1,0.6,1.6l-0.1-0.1c0.2,0.6,0.7,1.2,1.2,1.6
	l0,0c0.1,0.1,0.3,0.3,0.5,0.6c0.2,0.2,0.4,0.3,0.6,0.4c0.2,0.2,0.2,0.4,0.2,0.7c0,0.2,0,0.3,0.5,0.4c0.3,0.2,0.6,0.2,0.9,0.1
	c0.2-0.1,0.2-0.2,0.1-0.3c0.7,0.2,1.5,0.2,2.2,0c0.8-0.1,1.6-0.4,2.3-0.5c0.2-0.2,0-0.2,0.5-0.4c1.2-0.4,2.3-1,3.4-1.6
	c0.5-0.3,1.1-0.6,1.6-0.9c0.3-0.1,0.5-0.3,0.8-0.4l0.2-0.1l0.3-0.2l0.5-0.3c-0.9,0.7,0,0.2,0.1,0.4l0.2-0.1c0.7-0.1,0.9,0.3,1.1,0
	c-0.1-0.2,0.2-0.3-1-0.5h1c0.2,0,0.4,0,0.6,0c0.4,0,0.8,0,1.1-0.1c0.7-0.1,1.4-0.2,1.7-0.3c-0.4,0.1-0.1-0.1,0.1-0.3
	c0,0.3,1,0,1.4-0.6v-0.2l0.5-0.2c0.2-0.2-0.1-0.5,0.5-0.9c0.1,0,0.2,0,0.3,0c0.2-0.7,0.5-1.7,0.8-2.5c0.2-0.2,0.3-0.4,0.4-0.6
	c0-0.4-0.1-1-0.2-0.4c0.4-1.4,0.3-2.3,0.5-2.8c-0.4-1-0.8-2.1-1.3-3.3c-0.2-0.6-0.5-1.2-0.9-1.8c-0.4-0.8-0.8-1.5-1.3-2.2v-1.4
	c0.1-0.3,0.2-0.8,0.4-1.3v-0.1v0.1l0.1,0.1v-0.1c1-0.8,0.4-0.8,0.9-1.1c-0.1,0.3,0.6-0.3,0.3,0.3c0.9-0.8,0.7-1.3,1.1-2
	c-0.1-0.2-0.2,0.6-0.3,0.3c0.1-0.2,0.3-0.5,0.5-0.7c0.2-0.3,0.4-0.7,0.3-0.8c0.2-0.2,0.3,0.1,0.3,0.3l0.2-0.7
	c0.3-0.3,0.3,0.2,0.2,0.7s-0.2,1,0.2,0.7c0.1-0.2,0.2-0.4,0.3-0.6c0.6-0.4-0.6,1.8,0.4,0.3c0.2-0.8,0.1-1.5-0.3-1
	c0.5-1.4-0.3-0.9,0.2-2.4c0.3-0.4-0.4,1.2,0,1c0.5-0.6,0.4-1.5,0.6-2.1c-0.3,0.7-0.4,0-0.4-0.5c0.3-0.8,0.2,0.6,0.4-0.5
	c-0.1-0.2-0.1-1.3-0.4-0.4c-0.3-0.4,0.3-1.1,0-1.7c0.3-0.4,0.5,1.2,0.8,0c-0.1,0.1-0.2-0.3-0.3-0.6s-0.3-0.5-0.4-0.2
	c0-0.4,0.2-0.5,0.4-0.2c0-0.3-0.1-0.7-0.2-1c-0.2-0.3-0.2-0.5,0-0.7l-0.3-0.1c0-0.3,0-0.5,0-0.8l-0.1-0.1c0-0.1-0.1-0.1-0.2-0.2
	l-0.9,0.1c-0.2-0.7-0.5-1.3-0.5-1.5s-0.1-0.2,0-0.2c0-0.2,0.1-0.4,0.1-0.5c0-0.3,0-0.6,0-0.8c0.1-0.2,0.1-0.2-0.2-0.1l0,0
	c0,0.2,0,0.5,0,0.7v0.4c0,0.1,0,0.2,0,0.2c0,0.1,0,0.1,0,0.2s0,0.1,0,0.2c0-0.1,0-0.1,0-0.2c0-0.2,0-0.4,0-0.7c0-0.1,0-0.3-0.1-0.5
	l-0.1-0.6l0.3-0.4H38c0.2-0.2,0.6-0.6,0.8-0.9c0.1-0.1,0.2-0.3,0.3-0.5c-0.1,0.2,0.1,0.2,0.3,0.1v-0.4c0.7-1,0.5,0.1,1.2-0.9
	c-0.1,0.3-0.3,0.6-0.5,0.8c0.1-0.2,0.5-0.3,0.8-0.8c0-0.3,0-0.8,0-1c0.3-0.6,0.4-0.1,0.5-0.7c-0.1,0.3-0.1,0.6-0.2,0.8s0.7-0.3,1-1
	c0.2-0.5,0.2-1.3-0.2-0.7c0.2-0.3,0.4-0.8,0.5-0.5c0.1-0.4,0-0.4-0.1-0.4s-0.2,0-0.2-0.3c0.2-0.2,0.3-0.5,0.3-0.7
	c0.1-0.4,0.2-0.8,0.2-1.1c0.2,0.3,0.3,0.6,0.4,0.9c0-0.2,0-0.4,0-0.6c0.3,0.8,0.2-0.4,0.5,0c0-0.5-0.1-0.9-0.3-1.3
	c-0.1,0.7-0.3,0.3-0.6-0.1S42.2,69.8,42,70c-0.5-1.6,0.8-1.3-0.4-2.9c0,0.3-0.6-0.4-0.1,0.6c-0.3-1-0.6-0.6-0.9-1.8
	c0.5,0.8,0.1-1.1,0.8,0.1c-0.2,0,0.2,0.8,0.2,1c0-0.5,0.5-0.1,0.1-1.1c-0.2-0.5-0.4-1-0.7-1.5c0-0.2-0.1-0.3-0.2-0.3
	s-0.1,0.1-0.2,0.3c0.2,0.4,0.5,1.1,0.1,0.6l-0.3-0.6c0.1-0.4,0.2-0.8,0.3-1.2c0.2-0.2,0.3-0.6,0.3-0.9c-0.1,0.3-0.3,0.6-0.5,0.8
	s-0.3,0.3-0.3,0.3s0.1-0.3,0.1-0.4l0.3-0.9v0.4c0.1-0.2,0.2-0.5,0.3-0.7c0.2-0.1,0.4-0.3,0.6-0.4c0.1-0.1,0.1-0.2,0.2-0.2
	c0.1-0.1,0.1-0.2,0.2-0.2c0.1-0.1,0.3-0.3,0.4-0.4c0.2,0,0.4-0.1,0.7-0.2c0,0.2-0.3,0.5-0.7,0.8l-0.5,0.4c-0.2,0.2-0.2,0.2,0,0.3
	l0.4-0.3c0.1-0.1,0.1-0.1,0.2-0.2c0.1-0.1,0.2-0.2,0.3-0.3c0.2-0.3,0.4-0.5,0.7-0.7c-0.1,0.2-0.3,0.3-0.3,0.5c0.2-0.2,1,0,1.4-1.3
	c0.2-0.6-0.1-0.2-0.2-0.3c0.4-0.8,0.6-1.7,0.6-2.6c0.2,0.1,0.2-0.3,0.3-0.6s0-0.5,0.2,0c-0.2,0.4-0.3,0.9-0.4,1.4
	c-0.2,0.5-0.2,1-0.3,1.5c0.6-0.3-0.6,1-0.5,1.4c0.7-1,1-0.8,1.3-0.8c0.1-0.3,0.2-0.6,0.3-0.9c-0.2-0.2-0.3,0.2-0.6,0.1
	c0.5-1,0.7-2.2,0.4-3.3c0.1-0.5,0.4-0.3,0.4,0.2c0-1.7-0.3-3.3-0.9-4.9c0,0.5-0.2,0.2-0.4-0.3s-0.5-0.8-0.5-0.5
	c0.3,0.8,0.3,1.5,0,1.2s0.2-0.1,0.2-0.3c-0.5-0.5-0.2-1.1-0.8-1.4c0.9,1.1,0.6,0,1,0c-0.7-0.8,0.2-0.1-0.4-1c-0.3-0.3-0.6-0.6-1-0.9
	L43,47.4c-0.1-0.1-0.1-0.1-0.2-0.2l-0.3-0.5c-0.1-0.2-0.2-0.3-0.2-0.5c-0.2-0.3-0.3-0.6-0.4-1c-0.3-1.7-1.1-4.1-1.1-5.7
	c0.2-0.8,0.5-0.3,0.6-1.1s-0.2,0.6,0.1-0.9c0,0.1,0,0.1,0,0.2c0-0.2,0.1-0.4,0.1-0.6c0.1-0.3,0.2-0.6,0.3-0.9
	c0.2-0.7,0.6-1.2,0.5-1.6c0,0.2,0,0.4,0.1,0.6c0.2-0.2,0.2-0.5,0.4-0.7c0.1,0.1,0.4-0.1,0.2,0.3c0.4-0.3,0.7-0.6,1.1-0.9
	c0.3-0.3,0.7-0.5,1.1-0.7c-0.2,0-0.5,0-0.7,0l0.6-0.3c0.2,0,0.4-0.1,0.6-0.1c0.2,0,0.4,0,0.6,0c0.2,0,0.4,0,0.6,0.1
	c0.7,0.2,1.4,0.6,2.1,1l-0.2,0.2c0.3,0.2,0.6,0.3,0.8,0.5c-0.3,0,0.2,0.7,0.7,1c-0.6-0.5-1.3-0.9-2.1-1.2c-0.5-0.5,0.7,0.2,0.5-0.2
	c-0.2-0.3-0.5-0.5-0.9-0.7c-0.3-0.2-0.7-0.2-1-0.2c0.3,0.1,0.7,0.2,1,0.3c0,0.2-0.2,0.2-0.4,0.1c-0.2,0-0.5,0-0.8,0
	c0.3,0,0.6,0.3,0.7,0.2c-0.3,0-0.5-0.1-0.8-0.1h-0.5l-0.5,0.1c0.5-0.2-0.3-0.2-0.2-0.3c0,0.3-0.7,0.6-1.5,1.3
	c-0.2,0.1-0.4,0.2-0.5,0.4s-0.2,0.5-0.3,0.7c-0.2,0.5-0.3,1.2-0.4,1.8c-0.1-0.3-0.2-0.7-0.2-1c0-0.4,0.1-0.8,0.2-1.1
	c-0.2,0.2-0.3,0.5-0.4,0.8c-0.1,0.2-0.2,0.5-0.3,0.9c0.2,0.6,0.4,1.2,0.5,1.9l-0.3-0.1c0,0.3,0.1,0.7,0.3,1c0.1,0.4,0.2,0.8,0.3,1.2
	c0.1,0.9,0.3,1.9,0.6,2.8c0.1,0.5,0.3,0.9,0.4,1.3l0.2,0.6l0.2,0.5c0,0.1,0,0.1,0.1,0.1l0.1,0.1l0.2,0.2l-0.1,0.2
	c0.6,0.4,1.2,1,1.5,1.6c0.5,0.8,0.8,1.6,1.2,2.2c0.7,2.2,1,5,0.4,6.2c-0.2,1.3-0.7,2.6-1.4,3.7c-0.4,0.6-0.8,1.1-1.2,1.5
	s-0.8,0.8-1.3,1.1c-0.2,0.1-0.3,0.2-0.5,0.3s0,0.1,0,0.1l0.1,0.1l0.1,0.3l0.2,0.6l0.3,0.9l-0.7-0.5c0.5,0.6,0,0.5,0.3,1.2
	c0-0.8,0.6,0.8,0.9,1.3c0.3,1.8,1,4,1.1,5.9h-0.3c0.1,1-0.2,2-0.7,2.9s-1.2,1.7-1.9,2.5c-0.4,0.2-0.7,0.5-1,0.8
	c-0.2,0.4-0.4,0.8-0.7,1.2l-0.2,0.3l-0.1,0.1v0.1l-0.2,0.3L40.3,82l-0.1,0.1l-0.1,0.1c0,0,0.1,0,0.1,0.1c0.2,0.1,0.3,0.3,0.4,0.4
	l0.2,0.4c0.1,0.2,0.2,0.4,0.3,0.6c0.1,0.3,0.2,0.7,0.3,1c0.4,1.1,0.6,2.4,0.6,3.6s-0.2,2.4-0.5,3.5c-0.6,2.3-1.5,4.6-2.8,6.6
	l-0.4,0.2c-0.2,0.3-0.4,0.7-0.7,1c-0.1,0.2-0.3,0.4-0.4,0.5l-0.1,0.2c-0.1,0.1-0.2,0.2-0.2,0.3c0,0.1,0.2,0.2,0.2,0.3l0.1,0.2
	l0.3,0.5c0.2,0.4,0.4,0.8,0.6,1.2c0.4,0.8,0.7,1.6,1,2.5c0.5,1.5,0.8,3,1,4.6l-0.4-0.4c0,0.6,0,1.4,0,1.9s0.1,0.9,0.3,0.8
	c-0.1,0.7-0.3,1.5-0.5,2.2c-0.2,0.6-0.5,1.2-0.9,1.7c-0.4,0.6-0.6,1-0.8,1.3c-0.2,0.4-0.5,0.8-0.8,1.1c-0.9,0.7-1.9,1.3-3,1.6
	c-1,0.4-2,0.6-3.1,0.6h0.7c0.3-0.1,0.3-0.3-0.4-0.3c-0.3,0-0.7,0.1-1,0.1h-0.4c-0.1,0-0.1,0-0.2,0c-0.2,0.1-0.2,0.2,0,0.4
	c-0.2,0.1-0.5,0.2-0.7,0.3l-0.9,0.5c-0.6,0.3-1.2,0.7-1.9,1.1c-1.2,0.7-2.5,1.1-3.9,1.4c0.2,0.1-0.4,0.3-0.6,0.4
	c-1.2,0.3-2.4,0.5-3.6,0.5c-0.7,0-1.3-0.2-2-0.4l-0.5-0.2l-0.4-0.2c-0.3-0.1-0.5-0.2-0.8-0.4c-0.3-0.3,0.6,0.2-0.2-0.4
	c-0.5-0.3-0.1,0.1-0.8-0.3c-1.4-1.2-2.5-2.8-3.1-4.5c-0.3-0.8-0.6-1.6-0.8-2.4l-0.3-1.2L9,114.6v-0.2l-0.1-0.1
	c-2.2-1.9-4.2-4.1-5.8-6.6c-0.9-1.3-1.5-2.8-1.9-4.3C1.1,103,1,102.5,1,102.1s0-0.8,0-1.2c0-0.7,0.1-1.5,0.2-2.2l0.1,0.1
	c-0.1-2,1.2-4.2,1.1-5.8c0.2-0.4,0.6-1.6,0.7-1.2c0-0.1,0-0.2,0-0.3L3,91.4v-0.1c0,0,0-0.1-0.1-0.1c-0.2-0.4-0.4-0.8-0.7-1.2
	c-0.4-0.8-0.8-1.7-1.3-2.4C1,87.8,1,88,1.2,88.1C0.9,87,0.5,86,0.3,84.9C0,83.8,0,82.6,0.2,81.4c0,0.3,0,0.5,0.1,0.8
	c0.1-0.5,0.1-1,0.1-1.6c0-0.4,0.1-0.8,0.4-1.1c-0.3-0.6-0.6-0.5-0.6-0.2c0.5-1.9,1.1-3.7,1.9-5.5c0.3-0.9,0.7-1.8,1.1-2.6
	c0.4-0.8,1-2,0.9-2L4,69c-0.1-0.3-0.2-0.6-0.3-0.9c-0.2-0.6-0.4-1.2-0.5-1.9c-0.2-1.9,0-2,0.1-2s0.2,0.2-0.2-1.3
	c0.1-0.2-0.2-0.2-0.1-0.2C2.8,61.5,3.4,61,3.2,60C3,60.2,3,60,3,59.8s0.1-0.4,0-0.5c0.3-0.9,0.7-1.7,1.2-2.4c0.4-0.5,0.7-1,1.2-1.8
	v0.2c0.4-0.8,0.9-1.4,1.4-2.1c0.3-0.3,0.6-0.6,0.9-0.9c0.1-0.1,0.1-0.1,0.2-0.2L8,52l0.1-0.2c0.1-0.1,0.1-0.2,0-0.3H8
	c-0.1-0.1-0.1-0.1-0.2-0.2v-0.1l0,0l0,0l-0.1-0.1c-0.2-0.2-0.3-0.5-0.5-0.7c-0.3-0.5-0.6-1-0.8-1.5c-0.5-1-0.8-2.1-1-3.2
	c-0.1-0.5-0.2-1.1-0.2-1.7s-0.1-1-0.1-1.6s0-1.1,0.1-1.7c0-0.6,0.1-1.2,0.2-1.7c0.3-1.1,0.7-2.2,1.2-3.2s1.2-1.9,1.9-2.8
	c0.7-0.8,1.5-1.6,2.3-2.3c0.4-0.4,0.8-0.7,1.3-1l0.3-0.2l0,0l0,0v-0.1v-0.8c0-0.7,0.1-1.3,0.1-2c0.1-1.4,0.3-2.7,0.6-4.1
	c0.4-1.9,0.9-3.7,1.7-5.5c0.2-0.5,0.5-0.9,0.7-1.4s0.5-0.9,0.9-1.3c0.7-0.9,1.5-1.6,2.4-2.3c1.6-1.2,3.4-2.1,5.3-2.8
	C25,8.9,26,8.6,26.9,8.4c0.5-0.1,1-0.2,1.4-0.2l0.6-0.1l0,0l0.3-0.4c0.3-0.4,0.7-0.7,1-1c0.7-0.7,1.3-1.4,2.1-2
	c1.5-1.4,3.1-2.5,4.9-3.5c0.7-0.2,1.3-0.4,1.7-0.6s0.9-0.2,1.3-0.3L41.6,0c0.3,0,0.6,0,1-0.1h0.6h0.6c-0.1,0-0.3,0-0.1,0.1
	c0.2-0.3,2.2,0.3,2.5,0.1c1.9,0.6,3.7,1.3,5.5,2.2C52.4,3,53.2,3.5,54,4l1.2,0.8l0.7,0.5l0,0l0,0v0.1c0,0.1,0,0.1,0.1,0.1l0.9-0.2
	L57,5.4c0.6,0,1.2-0.1,0.6-0.3c2.1,0.1,4.2,0.4,6.2,0.8c1.1,0.2,2.1,0.6,3.2,1c0.5,0.2,1.1,0.5,1.6,0.8c0.6,0.4,1.1,0.8,1.6,1.2
	l0.7,0.7c0.2,0.3,0.4,0.6,0.6,0.8s0.2,0.3,0.3,0.4l0.2,0.4c0.1,0.2,0.3,0.5,0.4,0.8c0.5,1,0.8,2.1,1.1,3.2c0.3,1.1,0.4,2.1,0.5,3.2
	c0,0.5,0.1,1.1,0.1,1.6v1.3v0.1l0,0l0.4,0.5c0.2,0.2,0.3,0.5,0.5,0.7c0.3,0.5,0.6,1,0.9,1.5c0.5,1.1,0.9,2.2,1.1,3.4
	c0.1,0.8,0.1,1.6,0,2.5c-0.1,1-0.4,1.9-0.9,2.7c-0.9,1.5-2.2,2.8-3.7,3.7c-0.2,0.1-0.4,0.2-0.5,0.2h-0.1h-0.1l0,0l-0.1,0.2
	c-0.1,0.1-0.2,0.2-0.2,0.3c-0.2,0.2-0.3,0.4-0.5,0.6c-0.4,0.4-0.7,0.8-1.2,1.2c-0.8,0.7-1.6,1.2-2.4,1.7c-1.7,0.9-3.5,1.6-5.4,1.9
	c-1.9,0.4-3.8,0.4-5.8,0.2c-1.1-0.2-2.1-0.6-3-1.2c-0.5-0.3-0.9-0.7-1.3-1.1c-0.2-0.2-0.4-0.5-0.5-0.7c-0.2-0.3-0.4-0.6-0.5-0.9
	c0.3,0.4,0.6,0.7,1,1C52.8,40.6,54,41.2,55.2,41.5z"/>
<line class="st10" x1="181.3" y1="195.4" x2="182.8" y2="198.8"/>
<line class="st10" x1="186" y1="193.8" x2="187.2" y2="197"/>
<line class="st10" x1="190.1" y1="191.8" x2="191.4" y2="195"/>
<line class="st10" x1="225.6" y1="204.8" x2="229.3" y2="204.9"/>
<line class="st10" x1="226.1" y1="199.8" x2="229.6" y2="200.1"/>
<line class="st10" x1="226.1" y1="195.3" x2="229.6" y2="195.5"/>
</svg>
