<?xml version="1.0" encoding="utf-8"?>
<!-- Generator: Adobe Illustrator 23.0.2, SVG Export Plug-In . SVG Version: 6.00 Build 0)  -->
<svg version="1.1" id="Layer_1" xmlns="http://www.w3.org/2000/svg" xmlns:xlink="http://www.w3.org/1999/xlink" x="0px" y="0px"
	 viewBox="0 0 880 365" style="enable-background:new 0 0 880 365;" xml:space="preserve">
<style type="text/css">
	.st0{fill:#3F3D56;}
	.st1{fill:#6C63FF;}
	.st2{fill:url(#SVGID_1_);}
	.st3{opacity:0.3;enable-background:new    ;}
	.st4{opacity:0.4;enable-background:new    ;}
	.st5{fill:#E7EFFD;}
	.st6{fill:url(#SVGID_2_);}
	.st7{fill:#65617D;}
	.st8{opacity:0.1;enable-background:new    ;}
	.st9{fill:#FBBEBE;}
	.st10{fill:#442F2E;}
	.st11{opacity:0.2;}
	.st12{fill:#D4DFEC;}
</style>
<title>working late</title>
<path class="st0" d="M796.7,279.1c-0.1,32.8-65.2,83.4-341.6,83.4c-235.5,0-354.7-35.4-354.1-101.5c0.2-19.5,232.9,23.7,398.1,23.7
	S796.7,259.6,796.7,279.1z"/>
<path class="st1" d="M796.6,279.1c0,0.3,0,0.6,0,1c-0.4,9.9-5.9,19.7-15.9,26.6c-10.6,7.3-24.9,11.2-39.6,13.7
	c-2.3,0.4-4.6,0.7-6.9,1.1c-1.2,0.2-2.3,0.3-3.5,0.5c-32.6,4.3-65.9,5.1-99.1,5.9c-34.7,0.9-69.4,1.7-104.1,2.1l-6.9,0.1
	c-52.7,0.6-207.3,0.1-259.8-2.9c-16.3-0.9-32.7-2.1-48.9-4.2c-2.3-0.3-4.6-0.6-6.9-0.9c-21.4-3.1-42.2-7.8-61.1-15.4
	c-4.5-1.8-8.8-3.8-13.1-6c-11.9-6.3-21.9-14.3-26.9-24.1c-2.9-5.7-4.1-12.2-3.4-18.6c0.2-2.3,0.6-4.6,1.2-6.9
	c1.5-5.6,3.8-10.9,6.8-15.9C116.4,222,128,210.3,138,198c21.4-26.2,35.3-47.2,15.6-74c-5.7-7.7-13.8-23.5-18.4-31.5
	c-2.5-4.4-4-9.2-4.5-14.1c-0.3-2.3-0.3-4.6-0.3-6.9c0.2-5.4,0.9-10.7,2-16c3.2-16.4,9.2-34.2,27.7-44.4c12.6-7,28.8-9.2,45.1-8.8
	c2.3,0.1,4.6,0.2,6.9,0.3c6.3,0.4,12.5,1.2,18.5,2.1c37.2,5.9,71.5,18.3,106.1,29.5c26.4,8.5,155.7,16.5,184,20.3
	c2.3,0.3,4.6,0.6,6.9,0.8c6.6,0.7,13.3,1.2,20.1,1.4c33.6,1,72.8-6.3,95.2-25.2c21.6-18.3,62-19.7,91.4-8.8l0.4,0.2
	c2.2,0.8,4.3,1.7,6.4,2.7c21.6,10.2,36.1,27.6,38.2,45.8c0.3,2.3,0.3,4.5,0.2,6.8c0,0,0,0,0,0.1c-1.4,22.4-19.7,41.3-38.3,60.1
	c-2.3,2.3-4.6,4.7-6.9,7c-6,6.2-11.9,11.4-17,17.9c-2.3,2.9-4.4,6-6.4,9.2c-1.8,2.9-3.3,6-4.5,9.2c-1.3,3.3-2.2,4.8-2.5,8.3
	c-0.5,5.1,0.4,12.2,2.7,16.8l0,0.1c5,9.8,15.5,14.8,27.7,21c2.2,1.1,4.5,2.3,6.9,3.4c13.2,6.2,27.4,12,38.2,19.7
	c2.9,2,5.6,4.3,8.1,6.9c1,1,2,2.2,2.9,3.3c3.9,5,6.1,11.1,6.3,17.5C796.6,278.8,796.6,279,796.6,279.1z"/>
<linearGradient id="SVGID_1_" gradientUnits="userSpaceOnUse" x1="493.6768" y1="-41.3726" x2="493.6768" y2="286.6013" gradientTransform="matrix(1 0 0 -1 -45.11 288.83)">
	<stop  offset="0.2" style="stop-color:#808080;stop-opacity:0.4"/>
	<stop  offset="0.46" style="stop-color:#808080;stop-opacity:0.5"/>
	<stop  offset="1" style="stop-color:#000000;stop-opacity:0.6"/>
</linearGradient>
<path class="st2" d="M796.6,279.1c0,0.3,0,0.6,0,1c-0.4,9.9-5.9,19.7-15.9,26.6c-10.6,7.3-24.9,11.2-39.6,13.7
	c-2.3,0.4-4.6,0.7-6.9,1.1c-1.2,0.2-2.3,0.3-3.5,0.5c-32.6,4.3-65.9,5.1-99.1,5.9c-34.7,0.9-69.4,1.7-104.1,2.1l-6.9,0.1
	c-52.7,0.6-207.3,0.1-259.8-2.9c-16.3-0.9-32.7-2.1-48.9-4.2c-2.3-0.3-4.6-0.6-6.9-0.9c-21.4-3.1-42.2-7.8-61.1-15.4
	c-4.5-1.8-8.8-3.8-13.1-6c-11.9-6.3-21.9-14.3-26.9-24.1c-2.9-5.7-4.1-12.2-3.4-18.6c0.2-2.3,0.6-4.6,1.2-6.9
	c1.5-5.6,3.8-10.9,6.8-15.9C116.4,222,128,210.3,138,198c21.4-26.2,35.3-47.2,15.6-74c-5.7-7.7-13.8-23.5-18.4-31.5
	c-2.5-4.4-4-9.2-4.5-14.1c-0.3-2.3-0.3-4.6-0.3-6.9c0.2-5.4,0.9-10.7,2-16c3.2-16.4,9.2-34.2,27.7-44.4c12.6-7,28.8-9.2,45.1-8.8
	c2.3,0.1,4.6,0.2,6.9,0.3c6.3,0.4,12.5,1.2,18.5,2.1c37.2,5.9,71.5,18.3,106.1,29.5c26.4,8.5,155.7,16.5,184,20.3
	c2.3,0.3,4.6,0.6,6.9,0.8c6.6,0.7,13.3,1.2,20.1,1.4c33.6,1,72.8-6.3,95.2-25.2c21.6-18.3,62-19.7,91.4-8.8l0.4,0.2
	c2.2,0.8,4.3,1.7,6.4,2.7c21.6,10.2,36.1,27.6,38.2,45.8c0.3,2.3,0.3,4.5,0.2,6.8c0,0,0,0,0,0.1c-1.4,22.4-19.7,41.3-38.3,60.1
	c-2.3,2.3-4.6,4.7-6.9,7c-6,6.2-11.9,11.4-17,17.9c-2.3,2.9-4.4,6-6.4,9.2c-1.8,2.9-3.3,6-4.5,9.2c-1.3,3.3-2.2,4.8-2.5,8.3
	c-0.5,5.1,0.4,12.2,2.7,16.8l0,0.1c5,9.8,15.5,14.8,27.7,21c2.2,1.1,4.5,2.3,6.9,3.4c13.2,6.2,27.4,12,38.2,19.7
	c2.9,2,5.6,4.3,8.1,6.9c1,1,2,2.2,2.9,3.3c3.9,5,6.1,11.1,6.3,17.5C796.6,278.8,796.6,279,796.6,279.1z"/>
<path class="st1" d="M796.6,279.1c0,0.3,0,0.6,0,1c-0.3,9.9-5.8,19.9-15.9,26.8c-10.6,7.3-24.9,11.2-39.6,13.7
	c-2.3,0.4-4.6,0.7-6.9,1.1c-1.2,0.2-2.3,0.3-3.5,0.5c-8,1.1-16.1,1.9-24.2,2.6c-10.9,0.9-21.8,1.6-32.7,2c-14,0.6-28.1,1-42.1,1.3
	c-27.5,0.7-54.9,1.3-82.4,1.8l-9.8,0.2l-11.9,0.2l-6.9,0.1c-43.4,0.5-188.6,0.2-231.9-1.5c-2.9-0.1-5.7-0.2-8.6-0.4
	c-6.4-0.3-12.8-0.6-19.3-1c-12.9-0.7-25.8-1.6-38.7-3c-3.4-0.4-6.8-0.8-10.2-1.2c-2.3-0.3-4.6-0.6-6.9-0.9c-2.5-0.4-5.1-0.7-7.6-1.2
	c-18.7-3.1-36.8-7.5-53.5-14.2c-4.5-1.8-8.8-3.8-13.1-6.1v-94.2c2.4-2.8,4.7-5.5,7-8.3c2.7-3.4,5.4-6.8,7.8-10.3h51.8V156h91.3v70.2
	h250.6v-55.7l171.5,2c-1.7,2.8-3.2,5.8-4.5,8.9v0.3h-0.2c-1.3,3.3-2.2,4.8-2.5,8.3c-0.5,5.1,0.4,12.2,2.7,16.8v0.2l0,0.1
	c5,9.8,15.5,14.8,27.7,21c2.2,1.1,4.5,2.3,6.9,3.4c13.1,6.2,27.1,11.9,37.9,19.5l0.3,0.2c2.8,2,5.5,4.2,7.9,6.6
	c0.1,0.1,0.1,0.1,0.2,0.2c1,1,2,2.2,2.9,3.3c3.9,4.9,6.1,11,6.3,17.3C796.6,278.8,796.6,279,796.6,279.1z"/>
<path class="st3" d="M796.6,279.1c0,0.3,0,0.6,0,1c-0.3,9.9-5.8,19.9-15.9,26.8c-10.6,7.3-24.9,11.2-39.6,13.7
	c-2.3,0.4-4.6,0.7-6.9,1.1c-1.2,0.2-2.3,0.3-3.5,0.5c-8,1.1-16.1,1.9-24.2,2.6c-10.9,0.9-21.8,1.6-32.7,2c-14,0.6-28.1,1-42.1,1.3
	c-27.5,0.7-54.9,1.3-82.4,1.8l-9.8,0.2l-11.9,0.2l-6.9,0.1c-43.4,0.5-188.6,0.2-231.9-1.5c-2.9-0.1-5.7-0.2-8.6-0.4
	c-6.4-0.3-12.8-0.6-19.3-1c-12.9-0.7-25.8-1.6-38.7-3c-3.4-0.4-6.8-0.8-10.2-1.2c-2.3-0.3-4.6-0.6-6.9-0.9c-2.5-0.4-5.1-0.7-7.6-1.2
	c-18.7-3.1-36.8-7.5-53.5-14.2c-4.5-1.8-8.8-3.8-13.1-6.1v-94.2c2.4-2.8,4.7-5.5,7-8.3c2.7-3.4,5.4-6.8,7.8-10.3h51.8V156h91.3v70.2
	h250.6v-55.7l171.5,2c-1.7,2.8-3.2,5.8-4.5,8.9v0.3h-0.2c-1.3,3.3-2.2,4.8-2.5,8.3c-0.5,5.1,0.4,12.2,2.7,16.8v0.2l0,0.1
	c5,9.8,15.5,14.8,27.7,21c2.2,1.1,4.5,2.3,6.9,3.4c13.1,6.2,27.1,11.9,37.9,19.5l0.3,0.2c2.8,2,5.5,4.2,7.9,6.6
	c0.1,0.1,0.1,0.1,0.2,0.2c1,1,2,2.2,2.9,3.3c3.9,4.9,6.1,11,6.3,17.3C796.6,278.8,796.6,279,796.6,279.1z"/>
<g>
	<rect x="641.5" y="179.7" class="st4" width="15.3" height="10.3"/>
	<rect x="641.5" y="211.2" class="st1" width="15.3" height="10.3"/>
	<rect x="641.5" y="242.8" class="st4" width="15.3" height="10.3"/>
	<rect x="641.5" y="274.4" class="st4" width="15.3" height="10.3"/>
	<rect x="641.5" y="305.9" class="st4" width="15.3" height="10.3"/>
	<path class="st4" d="M706.3,179.7c-1.3,3.3-2.2,6.8-2.5,10.3h-8.4v-10.3H706.3z"/>
	<polygon class="st1" points="695.4,211.2 709.7,212.2 710.7,221.6 695.4,221.6 	"/>
	<rect x="695.4" y="242.8" class="st4" width="15.3" height="10.3"/>
	<rect x="695.4" y="274.4" class="st4" width="15.3" height="10.3"/>
	<rect x="695.4" y="305.9" class="st4" width="15.3" height="10.3"/>
	<rect x="595.2" y="179.5" class="st4" width="15.3" height="10.3"/>
	<rect x="595.2" y="242.6" class="st4" width="15.3" height="10.3"/>
	<rect x="595.2" y="274.2" class="st4" width="15.3" height="10.3"/>
	<rect x="595.2" y="305.8" class="st4" width="15.3" height="10.3"/>
	<rect x="594.7" y="210.5" class="st4" width="15.3" height="10.3"/>
	<rect x="554" y="179.5" class="st4" width="15.3" height="10.3"/>
	<rect x="554" y="242.6" class="st4" width="15.3" height="10.3"/>
	<rect x="554" y="274.2" class="st4" width="15.3" height="10.3"/>
	<rect x="554" y="305.7" class="st4" width="15.3" height="10.3"/>
	<rect x="553.6" y="210.4" class="st4" width="15.3" height="10.3"/>
</g>
<g>
	<rect x="233" y="167.6" class="st4" width="15.3" height="10.3"/>
	<rect x="233" y="190.8" class="st1" width="15.3" height="10.3"/>
	<rect x="233" y="213.9" class="st4" width="15.3" height="10.3"/>
	<rect x="233" y="237.1" class="st4" width="15.3" height="10.3"/>
	<rect x="233" y="260.3" class="st4" width="15.3" height="10.3"/>
	<rect x="233" y="283.4" class="st4" width="15.3" height="10.3"/>
	<rect x="233" y="306.6" class="st4" width="15.3" height="10.3"/>
</g>
<g>
	<rect x="148" y="200.9" class="st4" width="15.3" height="10.3"/>
	<rect x="172.5" y="200.9" class="st4" width="15.3" height="10.3"/>
	<rect x="148" y="227.9" class="st4" width="15.3" height="10.3"/>
	<rect x="172.5" y="227.9" class="st4" width="15.3" height="10.3"/>
	<rect x="148" y="254.9" class="st4" width="15.3" height="10.3"/>
	<rect x="172.5" y="254.9" class="st4" width="15.3" height="10.3"/>
	<rect x="148" y="281.9" class="st4" width="15.3" height="10.3"/>
	<rect x="172.5" y="281.9" class="st4" width="15.3" height="10.3"/>
</g>
<g>
	<path class="st0" d="M741.1,25.6v112.8c-2.3,2.3-4.6,4.7-6.9,7V22.8L741.1,25.6z"/>
	<path class="st0" d="M779.5,78.3C779.5,78.3,779.5,78.3,779.5,78.3l-648.8,0.1c-0.2-2.3-0.3-4.6-0.3-6.9h648.9
		C779.5,73.7,779.6,76,779.5,78.3z"/>
	<path class="st0" d="M212.1,2.6v320.3c-2.3-0.3-4.6-0.6-6.9-0.9V2.3C207.5,2.3,209.8,2.4,212.1,2.6z"/>
	<path class="st0" d="M471.6,50v283.7l-6.9,0.1V49.1C467,49.4,469.3,49.7,471.6,50z"/>
	<path class="st0" d="M787.5,257.8H100.7c0.2-2.3,0.6-4.6,1.2-6.9h677.4C782.3,253,785,255.3,787.5,257.8z"/>
	<path class="st0" d="M734.2,227.9c2.2,1.1,4.5,2.3,6.9,3.4v89.1c-2.3,0.4-4.6,0.7-6.9,1.1V227.9z"/>
</g>
<g>
	<circle class="st5" cx="229.7" cy="40.7" r="2"/>
	<circle class="st5" cx="165.5" cy="36.6" r="2"/>
	<circle class="st5" cx="252.4" cy="40.7" r="0.9"/>
	<circle class="st5" cx="187.8" cy="38.7" r="0.9"/>
	<circle class="st5" cx="187" cy="98.8" r="0.9"/>
	<circle class="st5" cx="686.4" cy="53.4" r="0.9"/>
	<circle class="st5" cx="292.6" cy="54.2" r="0.9"/>
	<circle class="st5" cx="644" cy="52.4" r="0.9"/>
	<circle class="st5" cx="752.5" cy="55" r="0.9"/>
	<polygon class="st5" points="281.1,125.2 279.8,125.2 279.8,123.9 279.6,123.9 279.6,125.2 278.3,125.2 278.3,125.5 279.6,125.5 
		279.6,126.8 279.8,126.8 279.8,125.5 281.1,125.5 	"/>
	<polygon class="st5" points="656.8,97.9 655.5,97.9 655.5,96.6 655.2,96.6 655.2,97.9 653.9,97.9 653.9,98.1 655.2,98.1 
		655.2,99.4 655.5,99.4 655.5,98.1 656.8,98.1 	"/>
	<polygon class="st5" points="312.3,92.5 311,92.5 311,91.2 310.8,91.2 310.8,92.5 309.4,92.5 309.4,92.8 310.8,92.8 310.8,94.1 
		311,94.1 311,92.8 312.3,92.8 	"/>
	<circle class="st5" cx="608.8" cy="99.7" r="0.9"/>
	<circle class="st5" cx="695.4" cy="140.5" r="0.9"/>
	<path class="st5" d="M408.3,85.2c0.3-0.4,0.8-0.5,1.2-0.2c0.4,0.3,0.5,0.8,0.2,1.2"/>
	<path class="st5" d="M421.4,121.4c0.9,0.7,1.1,1.9,0.4,2.8c-0.7,0.9-1.9,1.1-2.8,0.4"/>
	<path class="st5" d="M373.4,109.3c0.3-0.4,0.8-0.5,1.2-0.2s0.5,0.8,0.2,1.2"/>
	<polyline class="st5" points="458.3,138.6 457.2,137.8 457.1,138 	"/>
	<polyline class="st5" points="450.8,94 449.7,93.2 449.6,93.4 	"/>
	<path class="st5" d="M595.4,137.7c0.9,0.7,1.1,1.9,0.4,2.8c-0.7,0.9-1.9,1.1-2.8,0.4"/>
	<path class="st5" d="M499.4,121.3c0.3-0.4,0.8-0.5,1.2-0.2c0.4,0.3,0.5,0.8,0.2,1.2"/>
	<path class="st5" d="M534.3,97.2c0.3-0.4,0.8-0.5,1.2-0.2c0.4,0.3,0.5,0.8,0.2,1.2"/>
	<polyline class="st5" points="576.8,106 575.7,105.2 575.6,105.4 	"/>
	<path class="st5" d="M327.7,129.5c0.3-0.4,0.8-0.5,1.2-0.2c0.4,0.3,0.5,0.8,0.2,1.2"/>
	<path class="st5" d="M234.5,85.7c0.3-0.4,0.8-0.5,1.2-0.2c0.4,0.3,0.5,0.8,0.2,1.2"/>
</g>
<g>
	<rect x="493.6" y="278.2" class="st4" width="15.3" height="10.3"/>
	<rect x="534.9" y="278.2" class="st4" width="15.3" height="10.3"/>
	<rect x="359.3" y="210.4" class="st4" width="76.5" height="9.2"/>
	<rect x="359.3" y="239.9" class="st4" width="76.5" height="9.2"/>
	<circle class="st5" cx="350.1" cy="146" r="0.9"/>
	<circle class="st5" cx="497.6" cy="117.2" r="0.9"/>
	
		<linearGradient id="SVGID_2_" gradientUnits="userSpaceOnUse" x1="481.0687" y1="-61.6021" x2="481.0687" y2="238.4355" gradientTransform="matrix(1 0 0 -1 -45.11 288.83)">
		<stop  offset="0" style="stop-color:#808080;stop-opacity:0.25"/>
		<stop  offset="0.54" style="stop-color:#808080;stop-opacity:0.12"/>
		<stop  offset="1" style="stop-color:#808080;stop-opacity:0.1"/>
	</linearGradient>
	<path class="st6" d="M523.3,262.2c0,0-18.4,4.4-25.6,12.8c-2.4,2.8-6,4.8-9.8,6.2v-12.5c4.2-7.1,8.4-14.9,8.4-14.9
		c0.2-0.4,1.7-5.8,1.7-5.8c3.4-2.7-0.2-12.2-0.2-12.2s2.1-6,1-7.2c-1.2-1.2-0.2-4.2,0.8-5.6c1-1.4,0.8-3.1,0.8-4.2
		c0-1.2-1.5-2.9-4-3.9s0.2-2.5,1.7-2.9c1.5-0.4,1.9-4.1,0.2-6s0.2-3.1,1.1-5.2c1-2.1-3.1-1.7-3.1-1.7v-19.5l0,0
		c0,0-1.2-6.4-2.3-17.6c-1.1-11.2-5.6-12.4-5.6-12.4c-2.4-0.7-4.7-1.6-6.9-2.7c-2.3-1.1-4.8-2-7.3-2.7c0,0-5.2,0-9.4-1.3
		c-4.2-1.3-6.4-1.4-6.4-1.4l-0.7-0.3c-5.2-2.6-9.3-7-11.6-12.3c-0.1-0.3-0.2-0.5-0.3-0.8c1.1-1.3,2.2-2.6,3.1-4.1v0
		c0,0.2,0,0.4,0,0.6c0,0.1,0,0.2,0,0.2c0,0.5,0,1,0,1.4l0,0v0c3.1-5.4,11.9-6.6,12.7-12.8c0-0.3,0.1-0.6,0.1-0.8v0
		c0-0.2,0-0.4,0-0.6c-0.1-1.7-0.7-3.4-0.8-5.2c0-0.5,0-1,0-1.5v0c0.4-4.8,4-8.9,5.6-13.6c0.4-1.2,0.7-2.5,0.9-3.9v0
		c0-0.4,0.1-0.8,0.1-1.2c0-0.1,0-0.2,0-0.3c0-0.3,0-0.5,0-0.8c-0.1-5-2.3-9.7-6-13.1c-3.1-2.6-7.1-4.3-9.2-7.8
		c-1-1.6-1.5-3.5-2.5-5.1c-2-2.9-5.7-4.1-9.3-4.5s-7.1-0.3-10.5-1.4c-2.4-0.8-4.5-2.2-7-2.9c-5.4-1.4-11.1,0.6-14.3,5.2
		c-1.3,1.9-2.1,4.1-3.8,5.5c-3.5,3-9.5,1.7-12.5,5.1c-1.7,1.9-1.9,4.4-1.7,7c0,0,0,0.1,0,0.1c0,0.2,0,0.4,0.1,0.6c0,0.1,0,0.2,0,0.3
		c0,0.1,0,0.2,0,0.3c0.1,0.9,0.2,1.9,0.4,2.8c0,0.1,0,0.3,0,0.4l0.1,0.8c0,0.2,0,0.4,0.1,0.6s0,0.5,0.1,0.8c0,0.2,0,0.4,0,0.6
		c0.3,7.1-1.2,14.2-4.4,20.6c-2.9,5.7-7.2,10.9-7.9,17.3c-0.1,1-0.1,2.1-0.1,3.1c0,0.1,0,0.2,0,0.4s0,0.4,0,0.6c0,0.2,0,0.4,0.1,0.6
		c0,0.1,0,0.2,0,0.4c0,0.3,0.1,0.6,0.1,0.9l0,0.2c0.8,4.3,2.5,8.6,3.4,12.9c0.3,1.6,0.6,3.2,0.7,4.9c0,0,0,0,0,0
		c0,0.5,0.1,1,0.1,1.6c0,0.7,0,1.4,0,2.1c-1.5,0.6-2.9,1-4.5,1.4c-2.7,0.4-10.5,7.3-10,9.1s-3.5,13.9-3.6,14.3l0,0l-6.4,44.4
		c0,0-3.4,3.3-2.3,5.4c1.1,2.1-0.2,5.8-0.2,5.8s-5.8,2.5-4.5,4.1c1.3,1.5,0.7,4.4-0.2,6.4c-0.9,1.9-2.3,5.4,0,6
		c2.3,0.6,0.4,8.1,0.4,8.1s8.1-0.9,7.5,3.9c-0.2,1.5,5.6,5.7,8.1,7.4v23.1c-3.3-0.9-7.1-2.1-9.6-3.2c-5-2.3-32.9-6.8-39,6.6
		c-6.1,13.3,8.4,31.1,12.1,33c0,0,3.4,2.7,4.2,4.1c0.8,1.4,5.2,1.7,5.2,1.7s4.6,2.1,5.7,3.3c0.8,0.9,7.8,3.1,16.1,4.8l0,0
		c0,0-6.7,15.4,4.2,14.1c10.9-1.3,16.2-6.6,23.9-6.6c3.1,0,8.8-0.4,14.5-0.9c1.4,0.3,2.9,0.6,4.3,1c3.2,1,6.6,1.7,9.9,2.1
		c0,0,8.6,4.6,13.2,3.5c0.4-0.1,0.7-0.3,1-0.5h0.1c0.8-0.2,1.8-1.1,2.8-2.4c5.7,0.6,12.3,1.4,14.8,2.4c4.8,1.8,38.8-0.7,38.8-0.7
		s22,0.4,28.3,2.3c6.3,1.9,4.1-19.5-7.6-21.9c-3.1-0.6-6.3-0.9-9.4-0.9c0.8-0.8,1.5-1.7,2.2-2.7c4.2-0.4,7-0.6,7-0.6
		s11.1-5.4,17.4-8.7c4-2.2,7.7-5.1,10.7-8.5c0,0,5.5-3.5,7.8-4.8s3.4-5.8,3.4-5.8C567.5,257,523.3,262.2,523.3,262.2z M473.4,212.8
		c0-0.6,0-1.3,0-1.9C474.1,211.3,474,212,473.4,212.8L473.4,212.8z M473.6,226.4c0.5,0.6,0.9,1.2,1.2,1.6c1.2,1.6-1,2.4-0.8,5
		c0,0.6,0.1,1.4,0.1,2.3l0,0C473.9,231.6,473.7,228.4,473.6,226.4L473.6,226.4z"/>
	<path class="st7" d="M374,287.4c0,0-10.7-2.5-15.7-4.8c-5-2.3-32.9-6.7-39,6.5s8.4,30.8,12.1,32.7c3.6,1.9,39-24.3,39-24.3
		l27.9,11.8l5.4-18.3L374,287.4z"/>
	<path class="st7" d="M405.6,291h82.1c10.9,0,19.7,8.8,19.7,19.7v2.9c0,10.9-8.8,19.7-19.7,19.7h-82.1c-10.9,0-19.7-8.8-19.7-19.7
		v-2.9C385.8,299.9,394.7,291,405.6,291z"/>
	<path class="st8" d="M507.4,312.2c0,4.2-1.2,8.2-3.5,11.7c-0.8,1.2-1.7,2.3-2.7,3.3c-4,4-9.3,6.2-14.9,6.2H407
		c-11.7,0-21.1-9.5-21.1-21.1S395.3,291,407,291h79.3C497.9,291,507.4,300.5,507.4,312.2z"/>
	<path class="st9" d="M441.2,313.4c0,0-12.2,3.1-22.1,3s-56.5,19.2-56.5,19.2s-6.7,15.3,4.2,14c10.9-1.3,16.2-6.6,23.9-6.6
		c7.7,0,31.9-2.7,31.9-2.7l23.3-17.2L441.2,313.4z"/>
	<path class="st9" d="M448.8,169.4l-21.9,4.3l-1.4,0.3c0,0-17.3-4.6-17.9-5c-0.6-0.4-16.3-21.5-16.3-21.5s7.9,0.1,14.2-3.5
		c0.2-0.1,0.4-0.3,0.7-0.4c2.7-1.7,4.8-4.2,5.9-7.2c0.1-0.3,0.2-0.6,0.3-1c0.7-2.6,0.7-5.7-0.2-9.4c-2.1-8.9,2.8-11.4,9.3-11.2
		c9.4,0.3,22.3,6.2,22.3,6.2c0.2,3,0.8,6,2,8.7c0.1,0.3,0.2,0.5,0.3,0.8c2.3,5.3,6.4,9.6,11.6,12.2l0.7,0.3c0.7,0.3,1.4,0.6,2.2,0.9
		C477.4,150.2,448.8,169.4,448.8,169.4z"/>
	<path class="st8" d="M446.2,130.5c-8.6,9.7-22.7,12.1-34,5.9c0.9-2.7,1.1-6.2,0.1-10.4c-5.2-21.8,31.6-5,31.6-5
		C444.1,124.3,444.9,127.5,446.2,130.5z"/>
	<path class="st9" d="M453.1,111.1c0,5.2-1.4,10.2-4.2,14.6c-0.9,1.4-1.9,2.8-3.1,4c-4.8,5.3-11.5,8.5-18.7,8.9
		c-0.5,0-1.1,0.1-1.7,0.1c-15.2,0-27.5-12.3-27.5-27.5s12.3-27.5,27.5-27.5C440.8,83.5,453.1,95.9,453.1,111.1L453.1,111.1
		L453.1,111.1z"/>
	<path class="st8" d="M448.8,169.4l-21.9,4.3l-1.4,0.3c0,0-17.3-4.6-17.9-5c-0.6-0.4-16.3-21.5-16.3-21.5s7.9,0.1,14.2-3.5
		c0.2-0.1,0.4-0.3,0.7-0.4c2,2.1,8.5,8.2,18.6,8.2c1.3,0,2.6-0.1,3.9-0.3c3.1-0.5,6.2-0.8,9.3-1.1c5.9-0.6,15-2.4,19.7-7.7l0.7,0.3
		c0.7,0.3,1.4,0.6,2.2,0.9C477.4,150.2,448.8,169.4,448.8,169.4z"/>
	<path class="st1" d="M473.5,225.2c0.2,4.2,3.3,51.7,3.3,51.7h-95.5L382,247l0.5-23.9l0.2-7.8l0.8-27.2l-2.8-2.4l-15-13.3l0,0
		c0.1-0.4,4.2-12.4,3.6-14.1c-0.6-1.7,7.3-8.6,10-9c1.5-0.4,3-0.8,4.5-1.4c4.5-1.6,10.5-3.9,11.2-3.6c0.9,0.5,10.3-0.4,10.7-0.4l0,0
		c0,0,6.9,9,19.3,8.9c1.3,0,2.6-0.1,3.9-0.3c3.1-0.5,6.2-0.8,9.3-1.1c6.2-0.6,15.9-2.6,20.4-8.5c0,0,2.2,0.1,6.4,1.4
		c4.2,1.3,9.4,1.3,9.4,1.3c2.5,0.7,4.9,1.6,7.3,2.7c2.2,1.1,4.5,2,6.9,2.7c0,0,4.4,1.1,5.6,12.2c1.2,11.1,2.3,17.4,2.3,17.4
		l-22.7,19.7C473.5,200.4,473.3,221,473.5,225.2z"/>
	<polygon class="st9" points="365.6,258.3 369,263.7 381.5,268.1 390.1,252.4 382.2,247 369.4,242.1 362.2,246.3 	"/>
	<path class="st7" d="M472.6,284.7c0,0,17.8-1.3,25.1-9.6c7.3-8.2,25.6-12.6,25.6-12.6s44.2-5.2,26.8,33.9c0,0-1.1,4.4-3.4,5.7
		s-7.8,4.8-7.8,4.8l-67.9-5.9L472.6,284.7z"/>
	<path class="st8" d="M507.4,312.2c0,4.2-1.2,8.2-3.5,11.7c-11.4,1-36.7,3.4-42,4.9c-6.5,1.8-19.7-1.3-21.1-1.7l-0.1,0
		c0,0-2.5-7.7-3.7-12.6c-0.5-2.2-0.8-3.9-0.5-4c1.2-0.4,11.7-3.3,11.5-1.6s31.6-12.3,31.6-12.3l1,12.2
		C483.7,312.4,507.4,306.9,507.4,312.2z"/>
	<path class="st7" d="M540.1,302l-1.3,5c-3.1,3.4-6.7,6.2-10.7,8.4c-6.3,3.3-17.4,8.6-17.4,8.6s-40.7,3.4-47.6,5.4
		c-6.9,1.9-21.2-1.7-21.2-1.7s-5.4-16.3-4.2-16.6c1.1-0.4,11.7-3.2,11.5-1.6c-0.2,1.6,31.6-12.3,31.6-12.3L540.1,302z"/>
	<path class="st9" d="M426.6,344.8c0,0,20,1.4,24.8,3.2c4.8,1.8,38.8-0.7,38.8-0.7s22,0.4,28.3,2.3s4.1-19.3-7.6-21.6
		c-11.6-2.4-28,1.1-28,1.1s-18.5-2.4-20.7-2.7c-2.2-0.3-17,0.1-17,0.1L426.6,344.8z"/>
	<path class="st8" d="M347.9,292c0,0,26.5,2.4,33.8,6.7L347.9,292z"/>
	<path class="st8" d="M513.1,274.7c0,0-20.7,5-28.9,12.5L513.1,274.7z"/>
	<path class="st8" d="M349.5,286c0.4,0.1,12.2,1.7,11.9,2.8C361.1,289.9,349.5,286,349.5,286z"/>
	<path class="st8" d="M331,315.5l1.5,5.7c0,0,3.4,2.7,4.2,4s5.2,1.7,5.2,1.7s4.6,2.1,5.7,3.2s13.6,4.8,25.3,6.3s33.3,4.4,37.9,5.9
		c3.2,1,6.6,1.7,10,2.1c0,0,8.6,4.6,13.2,3.4c4.6-1.1,12.4-22,12.4-22s-30.2-7.1-31.2-9.4s-30-13-30-13l-17.2,0.4L331,315.5z"/>
	<path class="st7" d="M329.8,316.1l1.5,5.7c0,0,3.4,2.7,4.2,4s5.2,1.7,5.2,1.7s4.6,2.1,5.7,3.3c1.1,1.2,13.6,4.8,25.3,6.3
		s33.3,4.4,37.9,5.9c3.2,1,6.6,1.7,9.9,2.1c0,0,8.6,4.6,13.2,3.4c4.6-1.1,12.4-22,12.4-22s-30.2-7.1-31.2-9.4s-43.6-19.7-43.6-19.7
		l-13.4-3.1L329.8,316.1z"/>
	<path class="st1" d="M369,170.5l-3.3,1.9l-6.4,44c0,0-3.4,3.3-2.3,5.4c1.1,2.1-0.2,5.7-0.2,5.7s-5.8,2.5-4.5,4
		c1.3,1.5,0.7,4.4-0.2,6.3c-0.9,1.9-2.3,5.4,0,5.9c2.3,0.6,0.4,8,0.4,8s8.1-0.9,7.5,3.8c-0.2,1.9,9.1,8,9.1,8s-10.7-19.3,13.2-16.6
		l2.1-10.9c0,0,2.1-6.1,0-8c-2.1-1.9,0.5-11,0.5-11l0.4-39.5L369,170.5z"/>
	<path class="st8" d="M363.8,227.3c0.4,0.7,13.3,2.1,14.1,4.4C378.8,234.1,363.8,227.3,363.8,227.3z"/>
	<path class="st8" d="M359.7,238.3c0,0,1.8-5.5,5.9-4.5S359.7,238.3,359.7,238.3z"/>
	<path class="st8" d="M357.5,246.2c0,0,3.1-7.3,7.3-6.7S357.5,246.2,357.5,246.2z"/>
	<path class="st9" d="M497.6,246.1l-1.3,8c0,0-13.8,25.3-16.3,25.6c-2.5,0.4-16.1-16.8-16.1-16.8l-3.6-16.8l14.3-2.7l6.4-6.3
		C481,237.1,497.1,238.6,497.6,246.1z"/>
	<path class="st1" d="M491.1,177l5.2,3.6V200c0,0,4-0.4,3.1,1.7s-2.9,3.2-1.1,5.2c1.7,1.9,1.3,5.5-0.2,5.9c-1.5,0.4-4.2,1.9-1.7,2.9
		c2.5,1,4,2.7,4,3.8c0,1.2,0.2,2.9-0.8,4.2s-1.9,4.4-0.8,5.6c1.1,1.2-1,7.1-1,7.1s3.6,9.4,0.2,12.1c0,0-1.5,5.4-1.7,5.7
		c0,0,2.4-18.6-21.7-10.7c0,0-0.4-7.1-0.6-9.7c-0.2-2.6,2.1-3.4,0.8-5c-1.2-1.6-4.3-5.2-2.9-6.1c1.5-1,1-2.7,0.4-4
		c-0.6-1.3-2.6-1.3-0.8-3s2.9-3.2,1.8-3.9s-2.9-3.3-1.5-4.4c1.5-1.1,1.5-17.8,1.5-17.8S479.6,165,491.1,177z"/>
	<path class="st8" d="M488.7,209.9c0,0,7.4-2,7.6,0C496.5,211.9,488.7,209.9,488.7,209.9z"/>
	<path class="st8" d="M480.4,215.4c0,0,10.1-2.5,11.3-0.6C493,216.8,480.4,215.4,480.4,215.4z"/>
	<path class="st8" d="M478.2,220.8c0,0,15.1-2.1,16.1,1S478.2,220.8,478.2,220.8z"/>
	<path class="st8" d="M480.4,227.3c0.6,0.1,14.6,1.1,14.8,3.8C495.6,233.8,480.4,227.3,480.4,227.3z"/>
	<path class="st0" d="M373.5,236h108.7c3.1,0,5.6,2.5,5.6,5.6v56.9c0,3.1-2.5,5.6-5.6,5.6H373.5c-3.1,0-5.6-2.5-5.6-5.6v-56.9
		C367.9,238.5,370.4,236,373.5,236z"/>
	<circle class="st5" cx="427.9" cy="270" r="4.4"/>
	<path class="st8" d="M388,194.2c0,0,11.5,8.8,20.4,2.1C408.4,196.3,393.4,197.7,388,194.2z"/>
	<path class="st8" d="M446.2,196.6c0,0,11.5,8.8,20.4,2.1C466.6,198.7,451.6,200,446.2,196.6z"/>
	<path class="st8" d="M453.1,111.1c0,5.2-1.4,10.2-4.2,14.6c-0.2-7.7-2-15.3-6.2-21.8c-3.8-5.9-15.4-16.2-23.4-13.3
		c-1.7,0.6-3,2-3.5,3.7c-0.8,3,1.5,4.3,3,6.7c2.5,4.1,3.5,9,2.8,13.7c-0.1,0.6-0.2,1.3-0.4,1.9c-1.3,4.7-4.1,10.1-1.2,14
		c2.1,2.7,6.5,3.6,7.1,7c0.1,0.3,0.1,0.6,0.1,1c-0.1,2.3-2.1,4.2-2.9,6.4c-1,2.6-0.4,5.2,0.6,7.8c1.3,3.4,3.4,6.9,4,10.5
		c0.5,3.6-0.6,7-1.9,10.3c-1.2,3.2-2.7,6.4-3.2,9.7c-0.9,6.4,1.4,13.7-2.6,18.7c-0.4,0.6-1,1-1.8,1.2c-2.6,0.3-2.1-4.3-4.2-5.9
		c0.2,2.7,0.4,5.5-0.5,8c-1,2.5-3.5,4.6-6.2,4.2l-0.9-6c-1.8,1.8-4,3.1-6.4,4c0.9-6.4,3.2-12.5,6.6-18c-6.7,3.2-10.7,10.3-14.2,16.9
		c-2.2,4.1-4.4,8.6-3.7,13.2c0.3,1.9,1.1,3.7,1.3,5.6c0.2,1.9-0.5,4.1-2.3,4.8c-1.5,0.6-3.3-0.1-4.4-1.4l-0.2-0.2
		c-0.1-0.1-0.2-0.3-0.3-0.4c-0.2-0.3-0.4-0.6-0.5-0.9c-0.5-1.1-0.8-2.3-1.1-3.5l-0.1-0.5c-1.8-7.8-3.4-15.9-2.1-23.8
		c0.5-2.9,1.4-5.8,1.3-8.8c-0.1-1.7-0.4-3.3-1-4.9c-1.6-4.4-4.6-8.4-6.3-12.8c0,0,0-0.1,0-0.1c-0.9-2.3-1.3-5.3,0.3-7.1
		c0.9-1,2.1-1.5,3.2-2.1c3.3-2.2,4.8-6.3,5.4-10.2c0.3-1.8,0.4-3.6,0.4-5.4c4.5-1.6,10.5-3.9,11.2-3.6c0.9,0.5,10.3-0.4,10.7-0.4
		c2.9-1.6,5.4-4.1,6.6-7.6c0.1-0.3,0.2-0.6,0.3-1c-13.4-7.2-18.4-23.9-11.2-37.3s23.9-18.4,37.3-11.2
		C447.6,91.7,453.1,101,453.1,111.1L453.1,111.1z"/>
	<path class="st10" d="M421.2,115.5c-1.3,4.7-4.1,10.1-1.2,14c2.1,2.7,6.5,3.6,7.1,7c0.5,2.7-1.9,4.9-2.8,7.4
		c-2.3,6,3.7,11.9,4.5,18.3c1,6.9-4.1,13.2-5.1,20.1c-0.9,6.4,1.4,13.7-2.6,18.7c-0.4,0.6-1,1-1.8,1.2c-2.6,0.3-2.1-4.3-4.2-5.9
		c0.2,2.7,0.4,5.5-0.5,8c-1,2.5-3.5,4.6-6.2,4.2l-0.9-6c-1.8,1.8-4,3.1-6.4,4c0.9-6.4,3.2-12.5,6.6-18c-6.7,3.2-10.7,10.3-14.2,16.9
		c-2.2,4.1-4.4,8.6-3.7,13.2c0.3,1.9,1.1,3.7,1.3,5.6c0.2,1.9-0.5,4.1-2.3,4.8c-1.6,0.7-3.5-0.2-4.6-1.6s-1.5-3.2-1.9-4.9
		c-1.8-8-3.5-16.2-2.2-24.3c0.5-2.9,1.4-5.8,1.3-8.8c-0.2-6.5-5-11.8-7.3-17.8c-0.9-2.3-1.3-5.3,0.3-7.1c0.9-1,2.1-1.5,3.2-2.1
		c3.3-2.2,4.8-6.3,5.4-10.2c0.7-4.2,0.5-8.6-0.4-12.8c-1.3-6.3-4.4-12.4-3.7-18.8c0.7-6.3,5.1-11.5,7.9-17.1
		c3.7-7.3,5.2-15.5,4.1-23.6c-0.5-3.8-1.4-8.1,1.2-11c3.1-3.4,9-2.1,12.5-5c1.7-1.4,2.5-3.6,3.8-5.5c3.2-4.5,8.9-6.5,14.3-5.1
		c2.4,0.7,4.6,2.1,7,2.8c3.4,1.1,7,1,10.5,1.4c3.5,0.4,7.2,1.6,9.3,4.5c1.1,1.5,1.6,3.4,2.5,5c2.1,3.4,6.1,5.1,9.2,7.7
		c5.3,4.8,7.3,12.3,5,19.1c-1.8,5.1-6,9.6-5.7,14.9c0.1,2.2,1.1,4.4,0.8,6.6c-0.8,6.1-9.7,7.3-12.7,12.7c0.2-8.8-1.4-17.8-6.2-25.1
		c-3.8-5.9-15.4-16.2-23.4-13.3c-1.7,0.6-3,2-3.5,3.7c-0.8,3,1.5,4.3,3,6.7C421.7,104.6,422.6,110.2,421.2,115.5z"/>
	<g class="st11">
		<path d="M383.7,145.9c0.1-2.8-0.2-5.5-0.8-8.2c-1.1-5.4-3.5-10.6-3.7-16c-0.3,6,2.5,11.8,3.7,17.7
			C383.4,141.5,383.6,143.7,383.7,145.9z"/>
		<path d="M406.5,189.3c0.5-0.9,0.9-1.7,1.5-2.5c-6.7,3.2-10.7,10.3-14.2,16.9c-2,3.8-4.1,8-3.8,12.2c0.3-3.6,2.1-7.2,3.8-10.5
			C397,199.3,400.6,192.8,406.5,189.3z"/>
		<path d="M391.4,223.9c-0.2,1.4-0.9,2.8-2.2,3.4c-1.6,0.7-3.5-0.2-4.6-1.6s-1.5-3.1-1.9-4.9c-1.3-5.7-2.5-11.6-2.7-17.4
			c-0.1,6.4,1.2,12.8,2.7,19.1c0.4,1.7,0.8,3.5,1.9,4.9c1.1,1.4,3,2.3,4.6,1.6c1.8-0.7,2.5-2.9,2.3-4.8
			C391.4,224.1,391.4,224,391.4,223.9z"/>
		<path d="M421.8,109.8c-0.1,1.4-0.3,2.7-0.6,4.1c-0.9,3.5-2.8,7.4-2.4,10.7c0.3-2.9,1.6-6.1,2.4-9
			C421.7,113.7,421.9,111.7,421.8,109.8z"/>
		<path d="M391.6,84.2c0-2-0.1-4.1-0.3-6.1c-0.2-1.5-0.4-3.1-0.5-4.6c-0.1,2.1,0.3,4.3,0.5,6.3C391.5,81.3,391.6,82.8,391.6,84.2z"
			/>
		<path d="M427.2,136.5c0,0,0-0.1,0-0.1c-0.4,2-2,3.8-2.8,5.8c-0.4,1.2-0.6,2.5-0.5,3.7c0.1-0.7,0.2-1.4,0.5-2
			C425.3,141.4,427.6,139.2,427.2,136.5z"/>
		<path d="M381.7,187.7c-0.2-6.5-5-11.8-7.3-17.8c-0.4-0.9-0.6-1.9-0.7-2.9c-0.1,1.6,0.1,3.2,0.7,4.7c2.3,5.9,6.9,11.1,7.3,17.5
			C381.7,188.7,381.7,188.2,381.7,187.7z"/>
		<path d="M442.7,101.1c-3.8-5.9-15.4-16.2-23.4-13.3c-1.7,0.6-3,2-3.5,3.7c-0.2,0.7-0.2,1.3-0.1,2c0-0.1,0-0.2,0.1-0.3
			c0.5-1.7,1.8-3.1,3.5-3.7c8-2.9,19.6,7.4,23.4,13.3c4.3,6.6,6.1,14.7,6.2,22.6C449.1,116.9,447.4,108.2,442.7,101.1z"/>
		<path d="M461.7,113.6c-0.8,6.1-9.6,7.3-12.7,12.6c0,0.6,0,1.2,0,1.8c3.1-5.4,11.9-6.6,12.7-12.7
			C461.8,114.7,461.8,114.1,461.7,113.6C461.7,113.5,461.7,113.5,461.7,113.6z"/>
		<path d="M466.6,92.1c-1.8,5.1-6,9.6-5.7,14.9c0,0.1,0,0.2,0,0.2c0.4-4.7,4-8.8,5.6-13.4c0.7-2.1,1.1-4.3,0.9-6.6
			C467.4,88.9,467.1,90.5,466.6,92.1z"/>
		<path d="M421.2,199.3c-0.4,0.6-1,1-1.8,1.2c-2.6,0.3-2.1-4.3-4.2-5.9c0.1,0.6,0.1,1.2,0.1,1.8c1.9,1.6,1.6,6,4.1,5.8
			c0.7-0.1,1.3-0.6,1.8-1.2c2.3-2.9,2.5-6.5,2.4-10.3C423.6,193.9,423.2,196.9,421.2,199.3z"/>
		<path d="M414.7,202.6c-1,2.5-3.5,4.6-6.2,4.2c-0.3-2-0.6-4-0.9-6c-1.7,1.7-3.8,3-6.1,3.9c-0.1,0.6-0.2,1.2-0.3,1.8
			c2.4-0.8,4.6-2.2,6.4-4c0.3,2,0.6,4,0.9,6c2.7,0.4,5.2-1.7,6.2-4.2c0.6-1.7,0.8-3.6,0.7-5.4C415.4,200.1,415.2,201.4,414.7,202.6z
			"/>
		<path d="M423.8,180.6c-0.2,1.6-0.3,3.2-0.2,4.9c0-1.1,0.1-2.1,0.2-3.2c1-6.6,5.6-12.6,5.1-19.1
			C428.6,169.1,424.7,174.6,423.8,180.6z"/>
	</g>
</g>
<g>
	<path class="st1" d="M655.6,296.3c0,0-3.6,16.9,12.5,18.9l1-1.9C669.2,313.4,656.7,301.6,655.6,296.3z"/>
	<path class="st1" d="M674.3,313.2l-3.7,0.8l-0.4,0.1c0,0-10-8.1-9.9-26.3c1.3,2.7,2.9,5.2,4.8,7.6
		C669.1,300.6,673.6,307.7,674.3,313.2z"/>
	<path class="st1" d="M675.6,315c-0.6,0.4-1.3,0.5-2,0.3c-9.6-2.3-6.4-33.7-6.4-33.7c0.5,0.3,1.1,4.3,3.3,9.4
		C674.4,300,678.7,312.7,675.6,315z"/>
	<path class="st1" d="M697,296.3c0,0,0.6,16.9-15.5,18.9l-1-1.9C680.5,313.4,696,301.6,697,296.3z"/>
	<path class="st1" d="M692.4,287.8c0.1,18.2-12.9,26.3-12.9,26.3l-0.4-0.1l-3.7-0.8c0.7-5.6,5.3-12.6,9.2-17.9
		C686.9,292.5,689.5,290,692.4,287.8z"/>
	<path class="st1" d="M679.1,313.3c-0.6,0.7-1.3,1.3-2.1,1.6l0,0c-0.3,0.1-0.5,0.2-0.8,0.3c-2.4,0.5-3.2-1.2-3.1-4.1
		c0.2-5.2,3.5-14.2,6.4-20.9c2.1-4.8,5.6-8.5,6.1-8.8C685.5,281.5,685.4,306,679.1,313.3z"/>
	<path class="st1" d="M676.4,270.5c0,0-10.8,38.2-1.5,44C684.1,320.3,678.7,273.9,676.4,270.5z"/>
	<path class="st8" d="M655.6,296.3c0,0-3.6,16.9,12.5,18.9l1-1.9C669.2,313.4,656.7,301.6,655.6,296.3z"/>
	<path class="st8" d="M674.3,313.2l-3.7,0.8l-0.4,0.1c0,0-10-8.1-9.9-26.3c1.3,2.7,2.9,5.2,4.8,7.6
		C669.1,300.6,673.6,307.7,674.3,313.2z"/>
	<path class="st8" d="M675.6,315c-0.6,0.4-1.3,0.5-2,0.3c-9.6-2.3-6.4-33.7-6.4-33.7c0.5,0.3,1.1,4.3,3.3,9.4
		C674.4,300,678.7,312.7,675.6,315z"/>
	<path class="st8" d="M697,296.3c0,0,0.6,16.9-15.5,18.9l-1-1.9C680.5,313.4,696,301.6,697,296.3z"/>
	<path class="st8" d="M692.4,287.8c0.1,18.2-12.9,26.3-12.9,26.3l-0.4-0.1l-3.7-0.8c0.7-5.6,5.3-12.6,9.2-17.9
		C686.9,292.5,689.5,290,692.4,287.8z"/>
	<path class="st8" d="M679.1,313.3c-0.6,0.7-1.3,1.3-2.1,1.6l0,0c-0.3,0.1-0.5,0.2-0.8,0.3c-2.4,0.5-3.2-1.2-3.1-4.1
		c0.2-5.2,3.5-14.2,6.4-20.9c2.1-4.8,5.6-8.5,6.1-8.8C685.5,281.5,685.4,306,679.1,313.3z"/>
	<path class="st8" d="M676.4,270.5c0,0-10.8,38.2-1.5,44C684.1,320.3,678.7,273.9,676.4,270.5z"/>
	<path class="st1" d="M655.6,296.3c0,0-2.1,16.9,14,18.9l1-1.9C670.7,313.4,656.7,301.6,655.6,296.3z"/>
	<path class="st1" d="M675.9,313.2l-3.7,0.8l-0.4,0.1c0,0-11.5-8.1-11.4-26.3c0,0,3,3.2,6.3,7.6
		C670.6,300.6,675.1,307.7,675.9,313.2z"/>
	<path class="st8" d="M675.9,313.2l-3.7,0.8c-3.6-3.1-5-11.3-5.5-18.7C670.6,300.6,675.1,307.7,675.9,313.2z"/>
	<path class="st1" d="M677.1,315c-0.6,0.4-1.3,0.5-2,0.3c-9.7-2.3-7.9-33.7-7.9-33.7c0.5,0.3,2.6,4.3,4.8,9.4
		C675.9,300,680.2,312.7,677.1,315z"/>
	<path class="st1" d="M697,296.3c0,0,2.1,16.9-14,18.9l-1-1.9C682,313.4,696,301.6,697,296.3z"/>
	<path class="st1" d="M692.4,287.8c0.1,18.2-11.4,26.3-11.4,26.3l-0.4-0.1l-3.7-0.8c0.7-5.6,5.3-12.6,9.2-17.9
		C689.4,290.9,692.4,287.8,692.4,287.8z"/>
	<path class="st8" d="M686.1,295.4c-0.5,6.9-1.7,14.5-4.8,18c-0.2,0.3-0.4,0.5-0.7,0.7l-3.7-0.8
		C677.6,307.7,682.1,300.6,686.1,295.4z"/>
	<path class="st1" d="M680.6,313.3c-0.6,0.7-1.3,1.3-2.1,1.6l0,0c-0.3,0.1-0.5,0.2-0.8,0.3c-2.4,0.5-3.2-1.2-3.1-4.1
		c0.2-5.2,3.5-14.2,6.4-20.9c2.1-4.8,4-8.5,4.6-8.8C685.5,281.5,686.9,306,680.6,313.3z"/>
	<path class="st8" d="M677.1,315c-0.5,0-1.1-0.2-1.5-0.5c-4.5-2.8-4.6-13.5-3.6-23.6C675.9,300,680.2,312.7,677.1,315z"/>
	<path class="st8" d="M680.6,313.3c-0.5,1.1-1.2,1.7-2.1,1.6l0,0c-0.5-0.1-0.9-0.2-1.3-0.5c-1.2-0.8-2.1-2-2.6-3.3
		c0.2-5.2,3.5-14.2,6.4-20.9C682,299.6,682.3,309.5,680.6,313.3z"/>
	<path class="st1" d="M676.4,270.5c0,0-9.3,38.2,0,44C685.6,320.3,678.7,273.9,676.4,270.5z"/>
	<polygon class="st12" points="694.2,312.6 655.5,312.6 655.5,319 661.4,319 661.6,319.8 663.9,332.2 686.4,332.2 688.7,319.8 
		688.9,319 694.2,319 	"/>
	<polygon class="st8" points="694.1,312.6 655.5,312.6 655.5,319 661.4,319 661.6,319.8 663.9,332.2 686.4,332.2 688.7,319.8 
		688.9,319 694.1,319 	"/>
	<polygon class="st12" points="690.9,316.4 690.3,319.8 687.9,332.2 665.4,332.2 663.1,319.8 662.4,316.4 	"/>
	<polygon class="st8" points="690.9,316.4 690.3,319.8 663.1,319.8 662.4,316.4 	"/>
	<rect x="657" y="312.6" class="st12" width="38.6" height="6.4"/>
</g>
<g>
	<path class="st1" d="M273.5,275c-0.5,0.8-1,1.6-1.3,2.5c-0.1,0.2-0.2,0.5-0.2,0.7c-0.1-0.1-0.3-0.1-0.5-0.2c-0.7-0.2-1.4-0.2-2-0.2
		c0-0.3,0-0.5,0-0.8c0.1-3-0.3-7.2-3.2-5.5c-2.8,1.7-0.8,4.6,1,6.4c0.2,0.2,0.3,0.3,0.5,0.4c-1.6,1.2-1.9,3.9-2.2,6.7
		s-2.7,5.9-4.2,7.7c-0.2,0.2-0.3,0.3-0.4,0.5c-1.3-1-3-1.5-4.6-1.2l-0.2-0.8c-1.3-4.6-4-12.7-7.4-14.5l0.4-0.6
		c1.4-1.9,3.1-4.7,0.7-5.4s-2.6,2.4-2.5,4.8c0,0.3,0,0.6,0.1,0.8c-1,0-1.9,0.5-2.5,1.2c-0.1-0.1-0.2-0.3-0.4-0.4
		c-1.9-2.3-5.5-6-6.6-3.2c-1,2.6,2.1,5.9,4.4,7.8l0.1,0.1c-1.5,6,5,11,8.5,13.1c0.2,0.1,0.3,0.2,0.4,0.3c-4.8,5.7-7.8,16.3-7.8,16.3
		l13.5,2.5c0,0,9-7.7,7.8-15h0.1c8.9-1.8,11-11.3,9.6-17l0.2-0.1c1.6-0.7,3.1-1.7,4.1-3.1C281.3,275.5,276,271.6,273.5,275z"/>
	<path class="st8" d="M273.5,275c-0.5,0.8-1,1.6-1.3,2.5c-0.1,0.2-0.2,0.5-0.2,0.7c-0.1-0.1-0.3-0.1-0.5-0.2c-0.7-0.2-1.4-0.2-2-0.2
		c0-0.3,0-0.5,0-0.8c0.1-3-0.3-7.2-3.2-5.5c-2.8,1.7-0.8,4.6,1,6.4c0.2,0.2,0.3,0.3,0.5,0.4c-1.6,1.2-1.9,3.9-2.2,6.7
		s-2.7,5.9-4.2,7.7c-0.2,0.2-0.3,0.3-0.4,0.5c-1.3-1-3-1.5-4.6-1.2l-0.2-0.8c-1.3-4.6-4-12.7-7.4-14.5l0.4-0.6
		c1.4-1.9,3.1-4.7,0.7-5.4s-2.6,2.4-2.5,4.8c0,0.3,0,0.6,0.1,0.8c-1,0-1.9,0.5-2.5,1.2c-0.1-0.1-0.2-0.3-0.4-0.4
		c-1.9-2.3-5.5-6-6.6-3.2c-1,2.6,2.1,5.9,4.4,7.8l0.1,0.1c-1.5,6,5,11,8.5,13.1c0.2,0.1,0.3,0.2,0.4,0.3c-4.8,5.7-7.8,16.3-7.8,16.3
		l13.5,2.5c0,0,9-7.7,7.8-15h0.1c8.9-1.8,11-11.3,9.6-17l0.2-0.1c1.6-0.7,3.1-1.7,4.1-3.1C281.3,275.5,276,271.6,273.5,275z"/>
	<path class="st1" d="M246.6,278.9l-1.6,4.6c0,0-0.9-0.6-2-1.6c-2.2-1.9-5.4-5.3-4.4-7.8c1.1-2.8,4.7,0.9,6.6,3.2
		C246.1,278.2,246.6,278.9,246.6,278.9z"/>
	<path class="st1" d="M249.9,276.2c-0.5,0.6-1,1.2-1.5,1.8c-0.1-0.8-0.2-1.6-0.3-2.4c-0.1-2.4,0.1-5.5,2.5-4.8
		S251.4,274.4,249.9,276.2z"/>
	<path class="st1" d="M270.3,277c-0.1,1.5-0.2,2.7-0.2,2.7c-0.7-0.5-1.4-1.1-2-1.8c-1.8-1.9-3.7-4.7-1-6.4
		C270,269.7,270.4,273.9,270.3,277z"/>
	<path class="st1" d="M279.6,279c-1.1,1.4-2.5,2.5-4.1,3.1c-0.5,0.2-0.9,0.4-1.4,0.5l-1.9-2.6c0.2-0.9,0.5-1.7,0.8-2.5
		c0.3-0.9,0.8-1.7,1.3-2.5C276.8,271.6,282.1,275.5,279.6,279z"/>
	<path class="st8" d="M245.3,277.3c0.8,0.9,1.3,1.6,1.3,1.6l-1.6,4.6c0,0-0.9-0.6-2-1.6c0.2-1.5,0.9-2.9,1.8-4.1
		C245,277.6,245.1,277.4,245.3,277.3z"/>
	<path class="st8" d="M249.9,276.2c-0.5,0.6-1,1.2-1.5,1.8c-0.1-0.8-0.2-1.6-0.3-2.4C248.7,275.6,249.4,275.9,249.9,276.2z"/>
	<path class="st1" d="M257.7,294.6l-3.9,1.7c-0.7-0.4-1.4-0.8-2.1-1.2c-4.1-2.5-12.4-8.9-6.9-16.5c5.6-7.5,10.2,6,12,12.6
		C257.4,293.2,257.7,294.6,257.7,294.6z"/>
	<path class="st8" d="M268.1,278c0.6-0.6,1.3-0.9,2.2-1c-0.1,1.5-0.2,2.7-0.2,2.7C269.4,279.2,268.7,278.6,268.1,278z"/>
	<path class="st8" d="M275.5,282.1c-0.5,0.2-0.9,0.4-1.4,0.5l-1.9-2.6c0.2-0.9,0.5-1.7,0.8-2.5C274.2,278.2,275.1,279.9,275.5,282.1
		z"/>
	<path class="st1" d="M265.7,299.2c-0.2,0-0.4,0.1-0.7,0.1c-13.2,2-4.3-5.1-4.3-5.1s0.6-0.5,1.4-1.4c1.6-1.8,4-4.8,4.2-7.7
		c0.4-4.3,0.9-8.3,5.9-7.1C277.2,279.2,278.2,296.7,265.7,299.2z"/>
	<rect x="240.3" y="331.9" class="st12" width="25.1" height="6.6"/>
	<rect x="236.3" y="310.4" class="st12" width="32.9" height="23.1"/>
	<rect x="240.3" y="331.9" class="st8" width="25.1" height="6.6"/>
	<rect x="236.3" y="310.4" class="st8" width="32.9" height="23.1"/>
	<rect x="242" y="331.9" class="st12" width="25.1" height="6.6"/>
	<path class="st8" d="M256.8,291.3c0.5,2,0.9,3.3,0.9,3.3l-3.9,1.7c-0.7-0.4-1.4-0.8-2.1-1.2C253.2,293.2,254.9,291.7,256.8,291.3z"
		/>
	<path class="st8" d="M265.7,299.2c-0.2,0-0.4,0.1-0.7,0.1c-13.2,2-4.3-5.1-4.3-5.1s0.6-0.5,1.4-1.4
		C264.6,294.7,265.6,296.9,265.7,299.2z"/>
	<path class="st1" d="M244.3,311.7c0,0,7.4-26.4,17.7-18.3s-4.2,20.7-4.2,20.7L244.3,311.7z"/>
	<circle class="st8" cx="248" cy="282.8" r="0.8"/>
	<circle class="st8" cx="248" cy="286.7" r="0.8"/>
	<circle class="st8" cx="271.9" cy="283.6" r="0.8"/>
	<circle class="st8" cx="252.6" cy="303.3" r="0.8"/>
	<circle class="st8" cx="270.2" cy="290" r="0.8"/>
	<circle class="st8" cx="261.7" cy="298.5" r="0.8"/>
	<circle class="st8" cx="250.9" cy="284.5" r="0.8"/>
	<circle class="st8" cx="269.7" cy="286.1" r="0.8"/>
	<circle class="st8" cx="266.8" cy="292.5" r="0.8"/>
	
		<ellipse transform="matrix(7.088845e-02 -0.9975 0.9975 7.088845e-02 -62.1041 538.7723)" class="st8" cx="258.2" cy="302.7" rx="0.8" ry="0.8"/>
	<circle class="st8" cx="256.4" cy="298.7" r="0.8"/>
	<circle class="st8" cx="252.1" cy="289.5" r="0.8"/>
	<rect x="242" y="331.9" class="st8" width="25.1" height="2.4"/>
	<rect x="238" y="310.4" class="st12" width="32.9" height="23.1"/>
	<circle class="st8" cx="259.3" cy="306.4" r="0.8"/>
	<circle class="st8" cx="254.3" cy="307.5" r="0.8"/>
</g>
</svg>
