<?xml version="1.0" encoding="utf-8"?>
<!-- Generator: Adobe Illustrator 23.0.2, SVG Export Plug-In . SVG Version: 6.00 Build 0)  -->
<svg version="1.1" id="Layer_1" xmlns="http://www.w3.org/2000/svg" xmlns:xlink="http://www.w3.org/1999/xlink" x="0px" y="0px"
	 viewBox="0 0 796.1 798.9" style="enable-background:new 0 0 796.1 798.9;" xml:space="preserve">
<style type="text/css">
	.st0{fill:#79C6C1;}
	.st1{fill:#3F3D56;}
	.st2{fill:url(#SVGID_1_);}
	.st3{fill:#663D5B;}
	.st4{opacity:0.1;}
	.st5{fill:#CC818C;}
	.st6{opacity:0.1;enable-background:new    ;}
	.st7{fill:#565987;}
	.st8{opacity:0.21;fill:#6C63FF;enable-background:new    ;}
	.st9{fill:#6C63FF;}
	.st10{fill:none;stroke:#565987;stroke-miterlimit:10;}
	.st11{fill:#FFD037;}
	.st12{fill:#A8A8A8;}
	.st13{opacity:0.2;enable-background:new    ;}
</style>
<title>workout</title>
<path class="st0" d="M789.9,212.6c-7.8-23.6-18.3-45.5-31.2-64.9l-432.5-5.6l356.1-65.4c-23-12-47.5-18.3-72.3-18.7
	c-70-73.1-168.3-77.4-241.9-10.7C339.5,28,307.7,18,275.6,18.1c-96.1,0-176.2,87-194.1,202.4L789.9,212.6z"/>
<path class="st0" d="M788.2,309.3c0-31.3-4.6-62.3-13.5-91.3L22.9,320.9c-7.8,18.3-13.7,37.8-17.6,58l232.8,45.2L0,457.1
	c7.2,130.6,93.1,233.8,198,233.8c52.8,0,100.8-26.1,136.4-68.8c35.7,43.4,84.1,70.1,137.5,70.1c79.2,0,147.6-58.8,179.4-143.8
	c63.9-26.4,113.5-92.8,130.5-175.8L487.5,313h300.7C788.1,311.8,788.2,310.6,788.2,309.3z"/>
<ellipse class="st1" cx="286.7" cy="761.7" rx="227" ry="37.2"/>
<linearGradient id="SVGID_1_" gradientUnits="userSpaceOnUse" x1="378.7479" y1="403.2314" x2="378.7479" y2="1088.1857" gradientTransform="matrix(1 0 0 -1 -86.32 1185.4399)">
	<stop  offset="0" style="stop-color:#808080;stop-opacity:0.25"/>
	<stop  offset="0.54" style="stop-color:#808080;stop-opacity:0.12"/>
	<stop  offset="1" style="stop-color:#808080;stop-opacity:0.1"/>
</linearGradient>
<path class="st2" d="M445.7,522c-10.2,2.6-20.7-2.4-20.7-2.4s-8.9-10.3-16.5-11.8s-10.5,10.8-14.9,14c-3.1,2.2-25.5,0.6-39-0.5
	l-2.3-0.2c-0.2-0.2-0.5-0.3-0.7-0.5c0,0-13-4-15.7-7.5s-20.8-10.1-26.4-9.7s-22.2,1.3-22.2,1.3s-6.5-7.4-9.5-6.6s-13.2-0.1-13.2-0.1
	s-2.8-7.2-5.6-17.6c-1.3-4.8-5.7-8.2-9.9-10.5c3.8-13-3-50.1-24.2-57.3c-4.6-1.6-7-6.8-10.9-9.7c-3.5-2.6-9.3-8.6-6.5-19.6
	c4-15.3,13.9-39.5,13.9-39.5l7.4-14.8c-0.7,1-1.5,2-2.3,2.9c1-1.3,2-2.5,2.9-3.6c7.4,3.7,15.4,5.9,23.7,6.5
	c8.3,3.4,16.7,6.3,19.9,6.2c7.4-0.3,26.3,9.2,26.3,9.2s45.5,13,54.9,14c9.5,1,14-11.2,14-11.2s4.9-24.2-3.8-30.6s-13.8,23-13.8,23
	L290.9,324l-3.7-1.9c2.8-3,5.1-6.5,6.7-10.4c0.9-2.3,1.8-4.9,4-6c0.6-0.3,1.2-0.5,1.9-0.5c0.5,0,1.1,0,1.6,0
	c10.3,0.6,19.2,8.8,29.5,8.8c0.4,0,0.8,0,1.1,0c2,0,3.9-0.6,5.5-1.7c1.9-1.5,3-3.7,3.2-6.1c-0.2,0.3-0.3,0.6-0.5,0.9
	c0.3-1.5,0.3-3,0-4.5c-0.6-3.5-2.5-6.7-4.1-9.8c-0.5-0.7-0.7-1.6-0.8-2.5c0.1-0.9,0.6-1.8,1.3-2.3c0,0.1,0,0.2,0.1,0.3
	c0.8-0.7,1.6-1.4,2.6-1.9c5.1-3.4,8.6-8.7,9.6-14.7c-0.2,0.7-0.5,1.5-0.9,2.2c1.5-5.1,1.2-10.5-1.1-15.4c-0.6-1.4-1.5-2.6-2.7-3.5
	c-3.7-2.6-8.7,0.2-13.3,0.5c-4,0.3-7.9-1.5-11.5-3.3c-6.2-3.1-12.3-6.4-17.4-11c-5.8-5.2-10.2-11.9-15.4-17.7s-12-11-19.8-11.5
	c-14.2-1.1-27.6,13-41.2,8.4c-6.6-2.2-10.9-8.3-15.5-13.6s-10.9-10.3-17.8-9.1c-4.8,0.8-8.9,4.5-13.8,4.4c-2.5-0.1-4.9-1.2-7.3-2
	c-5.8-1.9-13.8-1-15.8,4.8c-0.8,2.4-0.5,5,0.8,7.2c-0.3,0.4-0.6,0.9-0.8,1.4c-0.5,0.9-0.7,2-0.5,3c-12.7,11.4-13.8,30.9-2.4,43.6
	c3.9,4.3,8.9,7.5,14.6,9.1c0.2,0.7,0.4,1.5,0.6,2.2c1.9,8.2,3,17.4,0.1,23.6c-0.2,0.4-0.4,0.8-0.6,1.1l-0.2,0.1l0.1,0.1l0,0
	l-0.1-0.1l0,0l-0.4-0.4l0,0l-2.2-2.3c-0.1-2.4-1.5-8.8-10.8-20.6c-12.3-15.6-14.6-41.4-14.6-41.4s-3.1-13.3,0-17.1s8.2-46,8.2-46
	l8.5-23.7c0,0,41.1-41.9,24-47c-11.6-3.5-25.5,14.4-33.2,26.2c-3.8,5.8-6.2,12.4-7.2,19.2L116,206.7c0,0-2.3,7.7,0,21
	s7.4,36.8,7.4,36.8l13,33c0,0,4.8,14.2,4.4,20.4c-0.6,0.4-2.6,4.3-4.3,7.9l-1.3,2l-0.1,0.8c-0.9,1.8-1.4,3.1-1.4,3.1
	s-7.2,21.4-1.2,34.5s6.3,19.2,6.3,19.2l4.5,19.4l1.9,17l16.2,40.1l14.9,21.3c0,0-1.4,15.7-4.5,17.9s-1.7,13.4-1.7,13.4l-1.9,29.5
	c0,0-6,8.8-6.4,23.1s-2.6,18.4-2.6,18.4s-1,12,1.8,17.5s-4.5,11.2-4.5,11.2l6.2,21.4l-2.4,27.1c0,0,1.1,0.3,3,0.8l-0.4,1.9
	l-10.2,51.3c0,0-5.5,14.1-5.7,17.4L129.6,766c0,0-14.8,14.7-7.8,16.1c7,1.4,27.5-11.2,27.5-11.2s16.9-18.1,23.5-19.8
	s14-6.4,11.9-13.3s-7-17.4-2.3-28.5c3-7,9.4-26,13.8-39.3c0.2-0.7,0.5-1.4,0.7-2.1c1.2-0.1,2.3-0.3,3.4-0.7c10.7-3.3,16.4-1,16.4-1
	l19.2-77.5l4.2-38.9l26.8,22.4c5.3,4.4,11.9,7,18.8,7.4c10.6,0.6,27.1,2.2,39,5.8l5-20.8c0,0,14.3,0.5,17.4-4.3c1.2-2,2.5-3.7,3.5-5
	l2.3-0.4l63.3-9.8c11.8,0,27.8-7.9,27.8-7.9l9.8-1.9c0,0,14.7-2.9,16-5.4S455.9,519.4,445.7,522z"/>
<path class="st3" d="M158.5,209.7c2-5.6,9.8-6.6,15.5-4.7c2.3,0.8,4.6,1.9,7.1,2c4.7,0.1,8.8-3.5,13.5-4.3
	c6.7-1.1,12.9,3.8,17.4,8.9s8.8,11.1,15.2,13.3c13.2,4.5,26.4-9.3,40.3-8.2c7.6,0.6,14.2,5.6,19.4,11.3s9.4,12.2,15.1,17.3
	c5,4.5,11,7.8,17,10.8c3.5,1.8,7.3,3.5,11.2,3.3c4.5-0.3,9.4-3,13-0.5c1.1,0.9,2,2.1,2.6,3.4c4.5,9.3,0.9,21.7-7.9,27.2
	c-1.5,1-3.4,2-3.5,3.8c0,0.9,0.3,1.7,0.7,2.4c1.6,3.1,3.4,6.2,4,9.6s-0.2,7.4-3,9.5c-1.8,1.2-4,1.8-6.2,1.7c-10.1,0-18.8-8-28.9-8.6
	c-1.3-0.1-2.6,0.1-3.8,0.6c-2.1,1.1-3,3.7-3.9,5.9c-4.7,11.7-16.3,19.8-28.7,22s-25.4-0.9-36.5-6.9c-0.8-0.4-1.6-0.9-2.2-1.5
	c-0.9-1.1-1.6-2.4-1.9-3.9c-3.4-10.8-8-22-17.4-28.2c-6.1-4-14.4-6.2-17.2-13c-1.7-4.3-0.6-9.1-1.1-13.7c-0.9-8-6.3-14.9-13.9-17.6
	c-1.6-0.5-3.4-0.9-4.6-2.2c-1-1.2-1.6-2.7-1.8-4.2c-1.5-6.8-2.5-13.9-4.6-20.5C162,219.6,156.4,215.6,158.5,209.7z"/>
<g class="st4">
	<path d="M337.4,311.8c-1.8,1.2-4,1.8-6.2,1.6c-10.1,0-18.8-8-28.9-8.6c-1.3-0.2-2.6,0-3.8,0.6c-2.1,1.1-3,3.7-3.9,5.9
		c-4.7,11.7-16.3,19.8-28.7,22.1s-25.4-0.9-36.4-6.9c-0.8-0.4-1.6-0.9-2.2-1.5c-0.9-1.1-1.6-2.5-1.9-3.9c-3.4-10.8-8-22-17.4-28.2
		c-6.1-4-14.4-6.2-17.2-13c-1.8-4.3-0.7-9.1-1.1-13.7c-0.9-8.1-6.3-14.9-13.9-17.6c-1.6-0.5-3.4-1-4.6-2.2c-1-1.2-1.6-2.7-1.8-4.3
		c-1.5-6.8-2.5-13.9-4.6-20.5c-1.4-4.4-5.8-8-5.6-12.7c-0.1,0.2-0.2,0.5-0.3,0.8c-2.1,5.9,3.5,9.9,5.1,15c2.1,6.6,3.1,13.8,4.6,20.5
		c0.2,1.6,0.8,3,1.8,4.3c1.2,1.2,3,1.6,4.6,2.2c7.6,2.7,13.1,9.5,13.9,17.6c0.4,4.6-0.7,9.4,1.1,13.7c2.8,6.8,11,9,17.2,13
		c9.4,6.2,14,17.5,17.4,28.2c0.3,1.4,1,2.7,1.9,3.9c0.7,0.6,1.4,1.1,2.2,1.5c11.1,6,24,9.1,36.4,6.9c12.4-2.2,24-10.4,28.7-22.1
		c0.9-2.2,1.7-4.8,3.9-5.9c1.2-0.5,2.5-0.7,3.8-0.6c10.1,0.6,18.8,8.6,28.9,8.6c2.2,0.1,4.3-0.5,6.2-1.7c1.8-1.5,3-3.7,3.1-6
		C339.2,310,338.4,311,337.4,311.8z"/>
	<path d="M339.1,286.4c-1.5,1-3.4,2-3.5,3.8c0,0.4,0,0.7,0.2,1.1c0.8-0.7,1.6-1.3,2.5-1.9c5-3.3,8.4-8.5,9.4-14.4
		C346.3,279.8,343.2,283.8,339.1,286.4z"/>
</g>
<path class="st5" d="M184.7,703.4c-4.6,10.9,0.1,21.1,2.2,27.9s-5.1,11.4-11.6,13s-23,19.4-23,19.4s-20,12.4-26.9,11
	s7.6-15.8,7.6-15.8l17.4-31.4c0.2-3.2,5.6-17,5.6-17l9.9-50.2l1.3-6.7l35.2-2.1c0,0-1.9,5.7-4.4,13.5
	C193.9,678,187.6,696.7,184.7,703.4z"/>
<path class="st5" d="M465.9,528c-1.2,2.4-15.6,5.2-15.6,5.2l-9.6,1.9c0,0-15.8,7.8-27.2,7.8l-61.9,9.6l-8.3,1.3v-35.1
	c0,0,4.2,0.4,10.1,1c13.2,1.2,35.1,2.7,38.2,0.5c4.4-3.1,7.2-15.1,14.6-13.7s16.1,11.5,16.1,11.5s10.2,4.9,20.2,2.4
	S467.2,525.6,465.9,528z"/>
<path class="st6" d="M353.7,549.7c0,0-0.9,1-2.2,2.7l-8.3,1.3v-35.1c0,0,4.2,0.4,10.1,1C363.2,527.4,353.7,549.7,353.7,549.7z"/>
<path class="st7" d="M234.1,541.6l33.3,27.8c5.2,4.3,11.6,6.9,18.4,7.3c10.3,0.6,26.5,2.1,38.2,5.7l4.9-20.4c0,0,14,0.5,17-4.2
	c1.8-2.8,3.7-5.5,5.9-8c0,0,10.1-23.6-1.4-30.9c0,0-12.8-3.9-15.4-7.4s-20.4-9.9-25.9-9.5s-21.8,1.2-21.8,1.2s-6.4-7.2-9.2-6.5
	s-12.9,0-12.9,0s-2.8-7.1-5.5-17.2s-19.1-13.8-19.1-13.8L234.1,541.6z"/>
<path class="st6" d="M234.1,541.6l33.3,27.8c5.2,4.3,11.6,6.9,18.4,7.3c10.3,0.6,26.5,2.1,38.2,5.7l4.9-20.4c0,0,14,0.5,17-4.2
	c1.8-2.8,3.7-5.5,5.9-8c0,0,10.1-23.6-1.4-30.9c0,0-12.8-3.9-15.4-7.4s-20.4-9.9-25.9-9.5s-21.8,1.2-21.8,1.2s-6.4-7.2-9.2-6.5
	s-12.9,0-12.9,0s-2.8-7.1-5.5-17.2s-19.1-13.8-19.1-13.8L234.1,541.6z"/>
<path class="st5" d="M219.2,292.7l-3.7,0.7h-0.2l-0.5,0.1l-6.3,1.2l-1.9,2.3l-0.1,0.1l-6.2,7.4l-5.2,5.1v0.1l-4.4,4.3l-7.5,7.5
	l-1.3,3.1l-2.7,6.9l-0.7,1.8l-7.5,8l-4.8,10.2L155,358l-12-6.2l-5.5-8l1.2-11.5l0.2-2.3l3.7-5.9l3.3-5.4l6.5-9.2l12.5-8.5l2.2-0.6
	l2.5-0.7c0.2-0.3,0.4-0.6,0.5-0.9c0.2-0.4,0.4-0.7,0.6-1.1c2.8-6.1,1.8-15.1-0.1-23.1c-1.5-6-3.4-11.8-5.8-17.5l33-4.8
	c0,0-0.3,6.4-0.3,16.4l0,0c0,2.5,0,5.2,0.1,8.1c0.2,9,8.5,12.9,14.8,14.6c1.6,0.4,3.3,0.8,4.9,1
	C218.4,292.7,219.2,292.7,219.2,292.7z"/>
<path class="st5" d="M167.2,297.4c0,0,1.5-6-10.5-21.2s-14.2-40.5-14.2-40.5s-3-13,0-16.8s8-45,8-45l8.2-23.2c0,0,40.2-41,23.5-46
	c-11.4-3.4-25,14.1-32.5,25.7c-3.7,5.7-6.1,12.1-7,18.8l0,0l-22.8,62.2c0,0-2.2,7.5,0,20.5s7.2,36,7.2,36l12.8,32.3
	c0,0,6.7,20.1,3.2,22.5l7.8-11.5L167.2,297.4z"/>
<path class="st5" d="M366.4,355c0,0-4.5,12-13.8,11s-53.8-13.8-53.8-13.8s-18.5-9.2-25.8-9S232.7,328,232.7,328s-2.3,3.1-5,6.3
	c-2.8,3.5-6,7.3-6.8,7.4c-1.5,0.2-24.8,3.5-24.8,3.5l-15.8-7.2l-1.5-6.5l-0.7-3l3.5-3.9l4.6-5.1l8.6-9.8v-0.1l11.5-12.5l0.1-0.1
	l7.4-3l1.4-0.6h0.2c0.9-0.1,4.3-0.5,8.8,2.1c3.2,1.8,6.7,2.9,10.3,3.2c7.2,0.5,14,3.4,19.3,8.3l37,19.5l58.2,21
	c0,0,5-28.8,13.5-22.5S366.4,355,366.4,355z"/>
<path class="st6" d="M227.7,334.3c-2.8,3.5-6,7.3-6.8,7.4c-1.5,0.2-24.8,3.5-24.8,3.5l-15.8-7.2l-1.5-6.5l-0.7,1.8l-7.5,8l-4.8,10.2
	l-11.2,6.5l-12-6.2l-5.5-8l1.2-11.5c0.6-1.4,2.4-5.1,3.9-8.2c0.7-1.7,1.7-3.3,2.8-4.9c1-0.7,2-7.8,2-7.8
	c4.5-13.1,19.8-15.1,19.8-15.1l2.4,2.3l1.1,1.1c-0.4-0.1,0.1-1-0.5-0.9c-0.9,0.2-1.3,1.6-2.4,2.3c-6.1,4-15.8,13.3-19.6,17.8
	c-0.9,1.1-1.9,2.1-2.8,3.1c-5.5,5.8-4.5,13.5-4.5,13.5c-1.4,6,10.8,10.5,10.8,10.5c3.4-5.6,26.2-21.1,26.2-21.1l15.4-17.2
	c4.7-8.2,14-13.6,19.2-16.2c2.3-1.1,3.8-1.7,3.8-1.7l5.8,2.5c-1.5-0.4-3.1-0.3-4.6,0.2c-0.9,0.3-1.7,0.6-2.5,1
	c-0.3,0.1-0.6,0.3-0.9,0.5c-1.6,0.9-3.1,2-4.4,3.2l-12.9,14.1c-9.9,10.8-2.4,28.2,12.2,28.5h0.1
	C217.7,341.9,224.1,337.7,227.7,334.3z"/>
<path class="st6" d="M202.5,651.6c0,0-1.9,5.7-4.4,13.5c-9.8,0.7-25.9-3-32.2-4.7l1.3-6.7L202.5,651.6z"/>
<path class="st7" d="M170.4,299.7l-3.2-3.3c0,0-11.5,1.6-18.7,13.9c0,0-3.4,9.2-4.4,9.9s-7,13.6-7,13.6s-7.1,20.9-1.2,33.8
	s6.2,18.8,6.2,18.8l4.4,19l1.8,16.7l15.9,39.2l14.6,20.8c0,0-1.4,15.4-4.4,17.5s-1.6,13.1-1.6,13.1l-1.9,28.9c0,0-5.9,8.6-6.2,22.6
	s-2.5,18-2.5,18s-1,11.8,1.8,17.1s-4.4,11-4.4,11l6.1,20.9l-2.4,26.5c0,0,28.2,7.9,38.8,4.6s16-1,16-1l18.8-75.9l6.5-59.6
	c0,0,0.4-42.2,6-55.1c4.8-11-1.5-50.2-23.2-57.6c-4.5-1.5-6.8-6.7-10.7-9.5c-3.5-2.5-9.1-8.4-6.3-19.2c3.9-15,13.6-38.6,13.6-38.6
	l7.2-14.4c0,0-7.9,12.7-22.2,9.5h-0.1c-14.6-0.3-22.1-17.7-12.2-28.5l12.9-14.1c0,0,7.1-6.6,12.4-4.9l-5.8-2.5c0,0-16.2,6-23,17.9
	L176.7,326c0,0-22.9,15.4-26.2,21.1c0,0-12.1-4.5-10.8-10.5c0,0-1-7.7,4.5-13.5c1-1,1.9-2.1,2.8-3.1
	C151.9,314.2,165.6,298.9,170.4,299.7z"/>
<path class="st6" d="M172.3,402.7c0,0-3.6,26.4-0.9,31.8L172.3,402.7z"/>
<path class="st6" d="M174.7,413l3.9,15.1C178.6,428.1,179.9,418.9,174.7,413z"/>
<path class="st6" d="M151.7,409.4c0,0,7.8,38.5,16.2,50.1"/>
<path class="st6" d="M206.3,455.9c0,0-13.2,12.5-18.4,11.6c0,0,20.4,0.9,26.8-9.9C214.7,457.6,210.6,454.6,206.3,455.9z"/>
<path class="st6" d="M224.7,454.9c0,0-17,12.4-20.4,13.5C204.3,468.3,222.7,463.1,224.7,454.9z"/>
<path class="st6" d="M167.2,363c0,0-8.5,10.9-12.8,9.6C154.4,372.6,164.8,373,167.2,363z"/>
<path class="st6" d="M176.8,377c0,0,18.5-25.1,27.2-24.1C204.1,352.9,183.1,371.1,176.8,377z"/>
<path class="st6" d="M202.4,367.8c0,0-11.8,5.9-10.5,7.6S202.4,367.8,202.4,367.8z"/>
<path class="st6" d="M210.9,560.7c0,0-39.2,22.9-42.9,24c0,0,6.8,5.1,13.1,2.6S210.9,560.7,210.9,560.7z"/>
<path class="st6" d="M178.1,608.3c0,0-15.8-1.6-15.1,3.5S178.1,608.3,178.1,608.3z"/>
<path class="st6" d="M197.7,252.4c0,0-0.3,6.4-0.3,16.4l0,0c-7.5,6.2-17.5,8.3-26.9,5.9c-1.5-6-3.4-11.8-5.8-17.5L197.7,252.4z"/>
<circle class="st5" cx="178.2" cy="243.5" r="30.2"/>
<path class="st6" d="M186.1,261.9c0.9,12.4,3.5,26.5,14.2,32.7c7.8,4.5,17.5,3.3,26.1,0.8s17-6.4,25.9-6.8
	c6.9-0.3,13.7,1.4,20.5,1.8s14.4-0.6,19.2-5.5c7-6.9,5.7-19.3-0.9-26.5s-17-9.8-26.8-9.6c-12,0.3-25.4,4-34.9-3.3
	c-6.4-4.9-8.8-13.4-14.1-19.4c-9-10-48.5-24.4-56.9-8.1c-3.9,7.6,13.9,13.1,18.1,18.6C183.1,245.4,185.3,250.5,186.1,261.9z"/>
<path class="st3" d="M187,260.9c0.9,12.4,3.5,26.5,14.2,32.7c7.8,4.5,17.5,3.3,26.1,0.8s17-6.4,26-6.8c6.9-0.3,13.6,1.4,20.5,1.8
	s14.3-0.6,19.2-5.5c7-6.9,5.7-19.3-0.9-26.5s-17-9.8-26.8-9.6c-12,0.3-25.4,4-34.9-3.3c-6.4-4.9-8.8-13.4-14.1-19.4
	c-9-10-48.5-24.4-56.9-8.1c-3.9,7.6,13.9,13.1,18.1,18.6C184,244.3,186.3,249.4,187,260.9z"/>
<path class="st6" d="M150.7,346.1c0.9-8,5.3-15.2,11.9-19.7"/>
<path class="st6" d="M264.1,502.7c-0.1,1-0.3,1.9-0.7,2.8c-1.3,3.9-2.9,7.8-4.7,11.5c2.7-0.2,4.9-2.3,6-4.8c1-2.5,1.5-5.1,1.6-7.8
	c0.1-0.8,0.1-1.7,0.1-2.5c-0.1-0.8-0.6-3.8-1.9-3.2C263.4,499.2,264.1,501.9,264.1,502.7z"/>
<path class="st6" d="M294.8,280.8c-4.9,4.8-12.4,5.9-19.2,5.5s-13.7-2.1-20.5-1.8c-9,0.4-17.3,4.2-25.9,6.8s-18.4,3.7-26.1-0.8
	c-10.7-6.2-13.3-20.4-14.2-32.7c-0.8-11.4-3.1-16.6-9.6-25.3c-4-5.3-20.4-10.5-18.5-17.5c-0.5,0.6-1,1.3-1.4,2.1
	c-3.9,7.6,13.9,13.1,18.1,18.6c6.5,8.7,8.8,13.9,9.6,25.3c0.9,12.4,3.5,26.5,14.2,32.7c7.8,4.5,17.5,3.3,26.1,0.8s17-6.4,26-6.8
	c6.9-0.3,13.6,1.4,20.5,1.8s14.3-0.6,19.2-5.5c1.4-1.4,2.5-3,3.2-4.8C295.9,279.7,295.4,280.2,294.8,280.8z"/>
<polygon class="st5" points="148.5,371.7 144.8,379.7 156.5,377.4 "/>
<polygon class="st6" points="148.5,371.7 145.5,379.7 144.8,379.7 "/>
<ellipse class="st8" cx="399.2" cy="712.1" rx="41" ry="5.6"/>
<ellipse class="st8" cx="556.3" cy="728.1" rx="41" ry="5.6"/>
<ellipse class="st8" cx="739.3" cy="706.5" rx="41" ry="5.6"/>
<ellipse class="st8" cx="654.4" cy="769.4" rx="29.1" ry="4"/>
<path class="st9" d="M555.2,726.8c0,0-57.5-188.5,9-264c49.7-56.5,106.2-49.7,131.5-42.7c13.2,3.5,24.3,12.7,30.2,25.1
	c8.8,19.1,7.2,50-55.2,86.2c-104.5,60.5-111,143.5-111,143.5L555.2,726.8z"/>
<path class="st10" d="M686.7,446.8c0,0-169.5,53-131.5,280"/>
<path class="st10" d="M587.7,465.8c0,0,23.3,15.7,15.9,39.4"/>
<path class="st10" d="M669.7,479.8c0,0-14.3-14.5-31.6-6.5"/>
<path class="st10" d="M602.7,552.8c0,0-25.1-12.7-31.5,3.2"/>
<path class="st10" d="M540.7,579.3c0,0,18.8-1.5,19.2,7.5"/>
<path class="st9" d="M552.9,728.3c0,0,67.3-137,85.8-134c8.8,1.4,12.8,10.1,14.7,18.8c2.3,11.2,1,22.9-3.7,33.4
	C640.1,668.3,614.5,710,552.9,728.3z"/>
<path class="st10" d="M638.2,620.3c0,0-70.7,102.5-84.3,107"/>
<line class="st10" x1="644.7" y1="636.3" x2="628.2" y2="636.3"/>
<line class="st10" x1="624.9" y1="673.8" x2="599.1" y2="674.9"/>
<line class="st10" x1="609.2" y1="643.8" x2="612" y2="657.3"/>
<line class="st10" x1="581.7" y1="684.8" x2="582.2" y2="697"/>
<path class="st9" d="M554.9,728.3c0,0-67.3-137-85.8-134c-8.8,1.4-12.8,10.1-14.7,18.8c-2.3,11.2-1,22.9,3.6,33.4
	C467.6,668.3,493.2,710,554.9,728.3z"/>
<path class="st10" d="M469.5,620.3c0,0,70.7,102.5,84.3,107"/>
<line class="st10" x1="463" y1="636.3" x2="479.5" y2="636.3"/>
<line class="st10" x1="482.8" y1="673.8" x2="508.6" y2="674.9"/>
<line class="st10" x1="498.5" y1="643.8" x2="495.7" y2="657.3"/>
<line class="st10" x1="526" y1="684.8" x2="525.5" y2="697"/>
<path class="st9" d="M670.5,760.3c1.8-1.5,3.2-3.5,3.8-5.8c0.5-2.3-0.5-5-2.7-5.9c-2.5-0.9-5.1,0.8-7.1,2.5s-4.3,3.7-6.9,3.3
	c2.7-2.5,4-6.2,3.2-9.8c-0.1-0.7-0.4-1.4-0.9-2c-1.4-1.5-3.8-0.8-5.5,0.3c-5.2,3.7-6.7,10.7-6.7,17.1c-0.5-2.3-0.1-4.7-0.1-7
	s-0.7-5-2.6-6.2c-1.2-0.7-2.6-1-4-1c-2.3-0.1-4.9,0.2-6.5,1.9c-2,2.1-1.5,5.7,0.3,8s4.3,3.8,6.8,5.4c1.9,1.1,3.6,2.7,4.8,4.6
	c0.1,0.3,0.3,0.5,0.4,0.8h14.7C664.7,764.9,667.8,762.8,670.5,760.3z"/>
<path class="st9" d="M413.9,705.1c1.8-1.5,3.2-3.5,3.8-5.8c0.5-2.3-0.5-5-2.7-5.9c-2.5-0.9-5.1,0.8-7.1,2.5s-4.3,3.7-6.9,3.3
	c2.7-2.5,3.9-6.2,3.2-9.8c-0.1-0.7-0.4-1.4-0.9-2c-1.4-1.5-3.8-0.8-5.5,0.3c-5.2,3.7-6.7,10.7-6.7,17.1c-0.5-2.3-0.1-4.7-0.1-7
	s-0.7-5-2.7-6.2c-1.2-0.7-2.6-1-4-0.9c-2.3-0.1-4.9,0.1-6.5,1.8c-2,2.1-1.5,5.7,0.2,8s4.3,3.8,6.8,5.4c1.9,1.2,3.6,2.7,4.8,4.6
	c0.1,0.3,0.3,0.5,0.4,0.8h14.7C408.1,709.7,411.2,707.6,413.9,705.1z"/>
<path class="st9" d="M741.9,648.8c0,0,5.5,7.2-2.5,18s-14.7,20-12,26.8c0,0,12.1-20.1,22-20.4S752.8,660.9,741.9,648.8z"/>
<path class="st6" d="M741.9,648.8c0.5,0.7,0.9,1.4,1.1,2.2c9.6,11.3,14.8,21.8,5.5,22.1c-8.6,0.2-18.9,15.7-21.4,19.5
	c0.1,0.3,0.2,0.6,0.3,0.9c0,0,12.1-20.1,22-20.4S752.8,660.9,741.9,648.8z"/>
<path class="st11" d="M752.2,657.9c0,2.5-0.3,4.6-0.6,4.6s-0.6-2.1-0.6-4.6s0.3-1.3,0.7-1.3S752.2,655.4,752.2,657.9z"/>
<path class="st11" d="M755.7,660.9c-2.2,1.2-4.2,1.9-4.3,1.6s1.5-1.5,3.7-2.8s1.3-0.3,1.5,0S757.9,659.7,755.7,660.9z"/>
<path class="st9" d="M712.9,648.8c0,0-5.5,7.2,2.5,18s14.7,20,12,26.8c0,0-12.1-20.1-22-20.4S702.1,660.9,712.9,648.8z"/>
<path class="st6" d="M712.9,648.8c-0.5,0.7-0.9,1.4-1.1,2.2c-9.6,11.3-14.7,21.8-5.5,22.1c8.6,0.2,19,15.7,21.4,19.5
	c-0.1,0.3-0.2,0.6-0.3,0.9c0,0-12.1-20.1-22-20.4S702.1,660.9,712.9,648.8z"/>
<path class="st11" d="M702.7,657.9c0,2.5,0.3,4.6,0.6,4.6s0.6-2,0.6-4.6s-0.3-1.3-0.7-1.3S702.7,655.4,702.7,657.9z"/>
<path class="st11" d="M699.2,660.9c2.2,1.2,4.2,1.9,4.3,1.6s-1.5-1.5-3.7-2.8s-1.3-0.3-1.5,0S697,659.7,699.2,660.9z"/>
<path class="st12" d="M704.5,692.6c0,0,15.4-0.5,20-3.8s23.6-7.2,24.8-1.9s23.1,26.3,5.7,26.4s-40.3-2.7-44.9-5.5
	S704.5,692.6,704.5,692.6z"/>
<path class="st13" d="M755.3,711.5c-17.3,0.1-40.3-2.7-44.9-5.5c-3.5-2.1-4.9-9.8-5.4-13.4h-0.5c0,0,1,12.4,5.6,15.2
	s27.6,5.7,44.9,5.5c5,0,6.7-1.8,6.6-4.5C760.9,710.5,759,711.5,755.3,711.5z"/>
</svg>
