<?xml version="1.0" encoding="utf-8"?>
<!-- Generator: Adobe Illustrator 23.0.2, SVG Export Plug-In . SVG Version: 6.00 Build 0)  -->
<svg version="1.1" id="b53a807e-26bd-423b-9266-af2eb023e0f0"
	 xmlns="http://www.w3.org/2000/svg" xmlns:xlink="http://www.w3.org/1999/xlink" x="0px" y="0px" viewBox="0 0 821.1 812"
	 style="enable-background:new 0 0 821.1 812;" xml:space="preserve">
<style type="text/css">
	.st0{fill:#79C6C1;}
	.st1{fill:#6C63FF;}
	.st2{fill:none;stroke:#565987;stroke-miterlimit:10;}
	.st3{opacity:0.1;enable-background:new    ;}
	.st4{fill:#FFD037;}
	.st5{fill:#A8A8A8;}
	.st6{opacity:0.2;enable-background:new    ;}
	.st7{fill:#65617D;}
	.st8{fill:#3F3D56;}
	.st9{fill:#BE6F72;}
	.st10{fill:#FBBEBE;}
	.st11{fill:#E3E8F4;}
	.st12{opacity:0.1;}
	.st13{fill:none;stroke:#3F3D56;stroke-miterlimit:10;}
</style>
<path class="st0" d="M350.8,377.1c-33.2-9.8-68.3-18-104.1-17.2c-52.7,1.3-103.4,23.6-128.4,56.8c-21.1,28.1-23.9,61.1-33.2,92.2
	c-11.4,38.4-32.9,74.9-56,110.5c-12.4,19.2-25.4,38.7-27.6,59.7c-2.9,29.2,16.5,58.5,47.1,78.1s71.4,30,112.3,32.5
	c21.8,1.3,44.5,0.3,63.9-6.9c20.5-7.5,35.5-21.4,56.1-28.8c19.1-6.9,41.3-7.8,62.7-6.8c27.7,1.3,55.2,5.5,81.8,12.8
	c29.8,8.1,57.6,19.8,87.4,28.1c29.8,8.3,63.1,12.9,93.6,6.3c28.7-6.2,51.4-21.6,71.9-37.2c33-25,63.7-52.4,91.8-82.1
	c18.5-19.6,35.8-40.3,44-63.1c15.8-43.8-5.4-93.3-52.7-123.4c-39.2-25-92-36-143.6-42.7c-47.1-6.2-101.6-6.8-144.9-22.5
	C431.7,408.3,394.1,389.9,350.8,377.1z"/>
<ellipse class="st0" cx="735.3" cy="564.3" rx="23.1" ry="3.2"/>
<ellipse class="st0" cx="631" cy="552.2" rx="23.1" ry="3.2"/>
<ellipse class="st0" cx="770.7" cy="589.9" rx="16.4" ry="2.3"/>
<ellipse class="st0" cx="678.9" cy="587.6" rx="16.4" ry="2.3"/>
<path class="st1" d="M734.8,563.6c0,0,32.4-106.3-5.1-148.8c-28-31.8-59.9-28-74.1-24.1c-7.5,2-13.7,7.2-17,14.1
	c-5,10.8-4.1,28.2,31.1,48.6c58.9,34.1,62.6,80.9,62.6,80.9L734.8,563.6z"/>
<path class="st2" d="M660.7,405.8c0,0,95.6,29.9,74.1,157.8"/>
<path class="st2" d="M716.5,416.5c0,0-13.2,8.9-9,22.2"/>
<path class="st2" d="M670.3,424.4c0,0,8-8.2,17.8-3.7"/>
<path class="st2" d="M708.1,465.5c0,0,14.1-7.2,17.8,1.8"/>
<path class="st2" d="M743,480.5c0,0-10.6-0.8-10.8,4.2"/>
<path class="st1" d="M736.1,564.5c0,0-38-77.2-48.4-75.5c-5,0.8-7.2,5.7-8.3,10.6c-1.3,6.3-0.6,12.9,2.1,18.8
	C686.9,530.6,701.4,554.1,736.1,564.5z"/>
<path class="st2" d="M688,503.6c0,0,39.8,57.8,47.6,60.3"/>
<line class="st2" x1="684.4" y1="512.6" x2="693.7" y2="512.6"/>
<line class="st2" x1="695.5" y1="533.7" x2="710.1" y2="534.4"/>
<line class="st2" x1="704.4" y1="516.8" x2="702.8" y2="524.4"/>
<line class="st2" x1="719.9" y1="539.9" x2="719.6" y2="546.8"/>
<path class="st1" d="M735,564.5c0,0,38-77.2,48.4-75.5c5,0.8,7.2,5.7,8.3,10.6c1.3,6.3,0.6,12.9-2.1,18.8
	C784.2,530.6,769.7,554.1,735,564.5z"/>
<path class="st2" d="M783.1,503.6c0,0-39.8,57.8-47.5,60.3"/>
<line class="st2" x1="786.8" y1="512.6" x2="777.5" y2="512.6"/>
<line class="st2" x1="775.6" y1="533.7" x2="761.1" y2="534.4"/>
<line class="st2" x1="766.8" y1="516.8" x2="768.4" y2="524.4"/>
<line class="st2" x1="751.3" y1="539.9" x2="751.6" y2="546.8"/>
<path class="st1" d="M669.8,582.5c-1-0.8-1.8-2-2.2-3.3c-0.3-1.3,0.3-2.7,1.5-3.3c1.4-0.5,2.9,0.4,4,1.4s2.4,2.1,3.9,1.9
	c-1.5-1.4-2.2-3.5-1.8-5.5c0.1-0.4,0.2-0.8,0.5-1.1c0.8-0.8,2.2-0.5,3.1,0.2c2.9,2.1,3.8,6,3.8,9.6c0.1-1.3,0.1-2.7,0-4
	s0.4-2.7,1.5-3.5c0.7-0.4,1.5-0.6,2.3-0.5c1.3-0.2,2.7,0.2,3.7,1c1.1,1.2,0.8,3.2-0.2,4.5c-1.1,1.2-2.4,2.2-3.8,3
	c-1.1,0.6-2,1.5-2.7,2.6c-0.1,0.1-0.1,0.3-0.2,0.5h-8.3C673.1,585,671.3,583.9,669.8,582.5z"/>
<path class="st1" d="M766.3,582.5c-1-0.8-1.8-2-2.2-3.3c-0.3-1.3,0.3-2.7,1.5-3.3c1.4-0.5,2.9,0.4,4,1.4s2.4,2.1,3.9,1.9
	c-1.5-1.4-2.2-3.5-1.8-5.5c0.1-0.4,0.2-0.8,0.5-1.1c0.8-0.8,2.2-0.5,3.1,0.2c2.9,2.1,3.8,6,3.8,9.6c0.2-1.3,0.2-2.7,0-4
	c-0.1-1.3,0.4-2.7,1.5-3.5c0.7-0.4,1.5-0.6,2.3-0.5c1.3-0.2,2.7,0.2,3.7,1c1.1,1.2,0.8,3.2-0.2,4.5c-1.1,1.2-2.4,2.2-3.8,3
	c-1.1,0.6-2,1.5-2.7,2.6c-0.1,0.1-0.1,0.3-0.2,0.5h-8.3C769.5,585,767.8,583.9,766.3,582.5z"/>
<path class="st1" d="M629.5,519.6c0,0-3.1,4,1.4,10.2c4.5,6.1,8.2,11.3,6.8,15.1c0,0-6.8-11.4-12.4-11.5
	C619.8,533.2,623.4,526.5,629.5,519.6z"/>
<path class="st3" d="M629.5,519.6c-0.3,0.4-0.5,0.8-0.6,1.3c-5.4,6.4-8.3,12.3-3.1,12.5c4.9,0.1,10.7,8.8,12.1,11
	c0,0.2-0.1,0.3-0.2,0.5c0,0-6.8-11.4-12.4-11.5C619.8,533.2,623.4,526.5,629.5,519.6z"/>
<path class="st4" d="M623.8,524.8c0,1.4,0.2,2.6,0.4,2.6s0.3-1.1,0.3-2.6s-0.2-0.8-0.4-0.8S623.8,523.4,623.8,524.8z"/>
<path class="st4" d="M621.8,526.5c1.2,0.7,2.3,1.1,2.4,0.9c0.1-0.2-0.8-0.9-2.1-1.5s-0.8-0.2-0.9,0S620.6,525.8,621.8,526.5z"/>
<path class="st1" d="M645.9,519.6c0,0,3.1,4-1.4,10.2c-4.5,6.1-8.2,11.3-6.7,15.1c0,0,6.8-11.4,12.4-11.5
	C655.7,533.2,652,526.5,645.9,519.6z"/>
<path class="st3" d="M645.9,519.6c0.3,0.4,0.5,0.8,0.6,1.3c5.4,6.4,8.3,12.3,3.1,12.5c-4.9,0.1-10.7,8.8-12.1,11
	c0,0.2,0.1,0.3,0.2,0.5c0,0,6.8-11.4,12.4-11.5C655.7,533.2,652,526.5,645.9,519.6z"/>
<path class="st4" d="M651.6,524.8c0,1.4-0.2,2.6-0.4,2.6s-0.3-1.1-0.3-2.6s0.2-0.8,0.4-0.8S651.6,523.4,651.6,524.8z"/>
<path class="st4" d="M653.6,526.5c-1.2,0.7-2.3,1.1-2.4,0.9c-0.1-0.2,0.8-0.9,2.1-1.5s0.8-0.2,0.9,0S654.9,525.8,653.6,526.5z"/>
<path class="st5" d="M650.7,544.3c0,0-8.7-0.3-11.3-2.1s-13.3-4.1-14-1.1s-13,14.8-3.2,14.9c9.8,0.1,22.7-1.5,25.3-3.1
	C650.1,551.3,650.7,544.3,650.7,544.3z"/>
<path class="st6" d="M622,555c9.8,0.1,22.7-1.5,25.3-3.1c2-1.2,2.8-5.5,3-7.5h0.3c0,0-0.5,7-3.2,8.6c-2.6,1.6-15.5,3.2-25.3,3.1
	c-2.8,0-3.8-1-3.7-2.5C618.8,554.4,619.9,555,622,555z"/>
<circle class="st0" cx="78.4" cy="124.1" r="21.6"/>
<ellipse class="st0" cx="452.6" cy="90" rx="21.6" ry="21.6"/>
<circle class="st0" cx="758.2" cy="147.7" r="21.6"/>
<circle class="st0" cx="37.8" cy="320.8" r="36.2"/>
<circle class="st0" cx="699.3" cy="343.6" r="36.2"/>
<path class="st7" d="M399.6,411.4c-1.3,0.1-2.6,0.1-3.8,0.3c-2.1,0.4-4.2,1.2-6,2.4c-9.1,5.2-17.7,12.3-21.5,22.1
	c-0.3,0.6-0.4,1.3-0.3,2c0.2,0.5,0.6,1,1.1,1.4l3.5,3.2c0.4,0.5,1,0.8,1.6,1.1c1,0.2,2,0.2,2.9-0.1c9.7-2.2,20.1-4.8,26.9-12.1
	c3.2-3.5,6.2-8.2,11-8.3c2,0,3.9,0.8,5.8,1s4.3-0.6,4.8-2.5c0.2-1,0-1.9-0.3-2.8l-2.9-9.8c-0.8-2.7-8.9-2.8-11.6-2.3
	C406.7,407.5,403.9,411,399.6,411.4z"/>
<path class="st7" d="M434.2,466.6c-0.1,3.4,0.1,6.7-0.4,10.1c-0.5,2.6-1.3,5.2-2.5,7.5c-1.8,3.8-4.1,7.4-6.8,10.7
	c-2.5,3-5.6,5.8-9.3,7s-8.4,0.3-10.7-2.8c-1.9-2.6-2-6-1.9-9.2c0.3-7.9,1.6-15.9,5.1-23c1.5-3,3.5-5.9,5-8.9
	c3.2-6.3,5.1-13.8,10.7-18.1c3.5,1.6,7.3,2.7,11.1,3c1.5,0.2,5.8,0.3,6.2,2.2c0.3,1.3-2.5,4.9-3,6.2
	C435.6,456.1,434.4,461.3,434.2,466.6z"/>
<path class="st8" d="M394.6,322.4c1.2,3.1,2.7,6.1,3,9.3c0.2,2,0,4,0,6c0.2,2.7,0.6,5.5,1.4,8.1l5.6,22.8c0.8,3.4,1.7,6.9,1.2,10.4
	c-0.3,2.3-1.1,4.6-1.1,6.9c0.1,1.8,0.4,3.5,0.8,5.2c1.1,5.3,0.8,10.8-0.8,15.9c-0.2,0.4-0.2,0.8-0.2,1.2c0.1,0.6,0.8,1,1.3,1.4
	c6,3.3,12.5,5.5,19.3,6.4c6.1-14.5,10.4-29.8,12.7-45.4c1.4-9.4,2.1-19,3.9-28.4c0-0.5,0.3-1.1,0.7-1.4c0.7-0.6,1.7-0.2,2.5,0.2
	c10.2,4.9,20.1,10.6,29.4,17c6.7-8.6,9.2-19.8,6.8-30.4c-1.2-4.5-2.9-8.9-5-13.1c-2.3-5.1-5.1-9.8-8.5-14.3
	c-7.4-9.3-18.3-15.2-29.5-19.3c-6.8-2.5-13.8-4.3-20.8-6.1c-3.9-1.1-10.5-4.5-14.3-1.8c-4,2.8-6.7,9.6-8.3,14
	c-2,5.4-3.1,11.1-3.3,16.9C391.2,310.2,392.3,316.5,394.6,322.4z"/>
<path class="st8" d="M475,349.9c-2.1,2.3-0.3,5.9-0.7,9c-0.3,1.4-0.8,2.7-1.5,4l-9.6,18.8c-1.6,2.8-2.8,5.8-3.6,9
	c-1.3,6.8,1.4,14.4-2.1,20.4c-1.1,1.9-2.8,3.6-3.3,5.8c-0.3,1.6,0,3.2-0.2,4.9c-0.2,1.9-1.2,3.6-1.8,5.4c-0.4,1.7-0.7,3.5-0.9,5.3
	c-1.2,7.6-5.2,14.6-11.2,19.4c-3.5,2.9-7.9,4.4-12.4,4.2c-4.5-0.4-8.9-3.4-9.8-7.8c-0.3-1.5-0.2-3.1-1.2-4.4
	c-1.3-1.7-4.1-1.8-5.4-3.6l4.9-8.1c1.5-2.5,3.1-5.1,3.3-8.1c0.3-3.6-1.4-7.2-0.8-10.7c0.5-3,2.7-5.6,3.4-8.6
	c0.8-3.8-0.8-7.5-1.7-11.3c-2.2-9.2,0.3-18.8,2.7-28c3.2-12.2,6.5-24.5,13.1-35.3C449.3,337.3,461.3,344,475,349.9z"/>
<path class="st1" d="M475.1,159.4c0.8,2.1,0.4,4.5,0.2,6.7c-0.3,5,0.7,10,0.5,15.1s-1.8,9.9-2.9,14.8c-3.1,14.1-2.3,28.7-5.1,42.9
	c-3.4,17.5-12.2,33.8-13.9,51.6c-0.5,5.6-0.5,11.7-3.6,16.4c-18.4-8.1-35.7-18.3-51.7-30.4c3.5-26.1,7-52.4,6.5-78.7
	c-0.2-3.2,0-6.4,0.7-9.5c0.8-2.6,2-5.1,3.6-7.4c3.9-6.3,8.1-12.3,12.4-18.4c2.7-3.9,5.7-7.9,10-9.7s9.5-1,14.2-0.1
	c5.7,1,11.4,2.1,17.1,3.1C466.5,156.5,473.6,155.3,475.1,159.4z"/>
<path class="st9" d="M338.1,259.4c-2.3-2.3-4.9-4.4-7.6-6.3c3.5-4.3,2.8-10.6,3.7-16.1c0.7-3.6,1.8-7.1,3.2-10.5
	c0.4-0.9,0.9-2,1.9-2.2c0.6-0.1,1.2,0,1.8,0.3c3,1.1,9.3,1,11.6,2.9c2.8,2.4,0.2,7.3-0.8,10.2C351.1,239.8,339.6,260.9,338.1,259.4z
	"/>
<path class="st7" d="M346.8,446.2c1.5,2.4,2.5,5.2,2.9,8c0.2,2.8-0.8,6-3.2,7.5s-5.9,1-8.8,0.1c-12.4-4-22.4-13.1-27.6-25
	c-0.9-2.1-1.7-4.3-3.3-6c-1.2-1.1-2.5-1.9-4-2.6c-3.9-2.2-7.7-5.1-9.5-9.3s-1-9.7,2.8-12.1c2.4-1.4,5.2-1.7,7.8-1
	c2.6,0.7,5.1,1.8,7.4,3.2c3.9,2.1,8.6,3.9,12,6.7c3,2.5,5.7,5.8,8.2,8.7c2.9,3.3,5.7,6.9,8.2,10.5
	C340.6,436,347.5,445.2,346.8,446.2z"/>
<path class="st7" d="M273.5,425.2c-0.3,5-1.2,10-2.6,14.9c-0.8,2.7-1.9,5.5-4.1,7.3c-1.9,1.2-4.1,2-6.3,2.3
	c-0.8,0.2-1.6,0.3-2.4,0.1c-1.4-0.3-2.4-1.5-3.2-2.6c-3.3-4.4-6.6-9.1-8-14.5c-2-7.8,0-16.1,3.5-23.4c1.2-2.9,3.1-5.6,5.4-7.8
	c2.8-2.3,6.2-3.8,9.8-4.4c3.7-0.7,8.2-2.3,8.5,2.2C274.4,408,274.2,416.6,273.5,425.2z"/>
<path class="st8" d="M328.9,237.2c6.9,3.6,14.6,8.1,16,15.7c0.9,4.7-0.8,9.4-0.5,14.2c0.2,4.2,2,8.2,1.8,12.4c-0.2,2-0.6,3.9-1,5.9
	c-0.6,3.7-0.2,7.5-0.4,11.2c-0.3,8.4-3.1,16.5-4.5,24.8c-1,5.9-1.2,11.9-0.7,17.9c0.3,3.9,1,7.7,1,11.6c0,2.8-0.2,5.6-0.7,8.3
	c-1.3,8.7-4,17.1-8,24.9c-4.8,9.5-4.1,21.7-3.6,32.3c0.2,1.5,0,3-0.5,4.3c-1.3,2.3-4.4,2.6-7,2.4c-9.6-0.9-18.6-5.4-25-12.7
	c-0.9-0.9-1.6-2.1-1.8-3.4c-0.2-2.1,1.5-3.9,2.7-5.7c4.2-6,3.1-14.1,3.6-21.5c0.4-5.4,1.6-10.6,3.8-15.5c1.2-2.9,2.8-5.7,3.1-8.8
	c0.3-2.9-0.6-5.8-1.5-8.5l-3-9.5c-4.6-14.8-9.3-29.7-16.4-43.5c-4.6,3-7.9,7.7-9.2,13c-2.6,9.4,1.1,19.9-2.5,29
	c-0.6,1.3-1.1,2.6-1.5,3.9c-0.2,1.2-0.3,2.3-0.2,3.5c0.1,9.7,0.7,19.5,1.8,29.2c0.1,1.5,0.5,2.9,1.2,4.2c0.6,0.9,1.5,1.5,2.1,2.3
	c1.8,2.3,1.4,5.5,1,8.3l-2,13.4c0,0.7-0.3,1.3-0.6,1.9c-0.5,0.5-1.1,0.8-1.7,0.9c-6.4,2-13.1,2.6-19.7,1.8c-2-0.2-3.7-1.5-5.4-2.6
	c-0.2-2,2.3-3.3,2.4-5.3c-0.1-1.2-0.6-2.3-1.5-3.1c-3.7-4.2-8.2-8.7-8.1-14.3c0-1.5,0.4-2.9,0.3-4.4c-0.1-3.8-2.7-7-3.6-10.6
	c-1.1-4.5,0.4-9.1,0.9-13.7c0.8-6.2-0.1-12.4-1-18.6l-3.4-22.6c-0.4-3.5-1.1-7-2.1-10.4c-1.3-3.3-2.7-6.6-4.4-9.7
	c-3.2-6.5-5.8-13.3-8.5-20c-0.8-1.8-1.4-3.8-1.5-5.8c-0.1-3.4,1.6-6.7,3.8-9.3c4.1-4.9,9.7-8.3,16-9.7c1-0.3,2.1-0.3,3.2-0.1
	c0.9,0.3,1.7,0.7,2.5,1.3c15.7,10.2,35.2,12.6,52.9,6.3c1,0.8,2.9,0.4,4-0.1c3.2-1.5,5.8-3.9,8.6-6
	C315.3,242.4,322.4,238.6,328.9,237.2z"/>
<path class="st8" d="M121.6,494c0.5,1.5,1.3,3,2.4,4.2c3.6,4.7,8.7,8.5,11,14c0.5,1.2,0.9,2.4,1.3,3.6c1.4,3.6,3.6,6.9,6.5,9.4
	c2.2,1.8,4.6,3.4,7.2,4.8c4.4,2.4,9.2,4.6,14.2,4.5c1,0,2-0.1,3-0.4c1.6-0.3,3.1-0.9,4.5-1.6c3.2-1.8,6-5.3,5.4-8.9
	c-0.1-0.7-0.3-1.4-0.6-2c-0.5-1-1.1-2-1.8-2.9c-1.7-2.3-3.4-4.7-5.9-6.2c-2.8-1.7-6.3-2.1-8.8-4.2c-1-0.9-1.8-1.9-2.5-3.1
	c-2.3-3.5-4-7.3-5-11.3c-0.8-3-1.3-6.3-3.5-8.5s-5.2-2.7-8.1-3.2c-1-0.2-2-0.3-3-0.3c-1.4,0-2.9,0.5-4.2-0.2s-1.8-1.6-3.4-1.5
	c-1.3,0.2-2.5,0.7-3.5,1.5C122.8,484.5,120.2,489.5,121.6,494z"/>
<path class="st10" d="M157.1,498.6c0.6,3.4,1.6,7,4.3,9.2c1.7,1.4,4,2.3,4.8,4.4c0.8,2.1-0.2,4.6-1.6,6.4c-1.8,2.4-3.9,4.4-6.4,5.9
	c-2.1,1.3-4.6,2.3-7.1,1.7c-2-0.5-3.6-1.9-5.1-3.3c-3.4-3.2-6.9-6.5-8.8-10.7c-2-4.5-2.1-9.7-4.3-14.1c-1.3-2.6-3.2-4.8-4-7.6
	c-0.3-1-0.3-2.1,0-3.1c0.8-1.5,2.3-2.4,3.9-2.3c1.6,0.1,3.2,0.4,4.7,1c4.5,1.6,9.1,2.9,13.8,3.9c1.9,0.4,3,0.3,4,2.1
	C156.3,494.2,156.9,496.4,157.1,498.6z"/>
<path class="st10" d="M168.7,527.2c-0.7,1.1-1.3,2.4-1.5,3.7c-0.2,1-0.3,2.1-0.1,3.1c1.6-0.3,3.1-0.9,4.5-1.6c3.2-1.8,6-5.3,5.4-8.9
	c-0.1-0.7-0.3-1.4-0.6-2c-1-0.2-2,0.1-2.7,0.8C171.7,523.8,170.1,525.4,168.7,527.2z"/>
<path class="st8" d="M132.9,451.3c-0.4,0.9-0.6,2-0.4,3c0.5,2,2.5,3.1,4.4,4.1l17.6,8.6c1.2,0.6,2.4,1.2,3.6,1.9
	c3,1.8,5.4,4.4,7.9,6.8s5.4,4.6,8.8,5.5c3.4,0.7,6.9,0.3,10-1.3c1.7-0.8,3.2-1.9,4.6-3.1c1.2-1,2.3-2.2,3.3-3.4
	c0.9-0.9,1.5-2,1.8-3.2c0.3-1.8-0.6-3.6-1.6-5.1c-0.6-0.9-1.3-1.7-2-2.5c-6.7-7.4-17.6-11.2-27-12.7c-3.7-0.6-7.3-2-10.9-3.1
	s-7.4-2-11.1-1.5S134.3,447.8,132.9,451.3z"/>
<path class="st3" d="M132.9,451.3c-0.4,0.9-0.6,2-0.4,3c0.5,2,2.5,3.1,4.4,4.1l17.6,8.6c1.2,0.6,2.4,1.2,3.6,1.9
	c3,1.8,5.4,4.4,7.9,6.8s5.4,4.6,8.8,5.5c3.4,0.7,6.9,0.3,10-1.3c1.7-0.8,3.2-1.9,4.6-3.1c1.2-1,2.3-2.2,3.3-3.4
	c0.9-0.9,1.5-2,1.8-3.2c0.3-1.8-0.6-3.6-1.6-5.1c-0.6-0.9-1.3-1.7-2-2.5c-6.7-7.4-17.6-11.2-27-12.7c-3.7-0.6-7.3-2-10.9-3.1
	s-7.4-2-11.1-1.5S134.3,447.8,132.9,451.3z"/>
<path class="st10" d="M176.9,456.8c1.4,1.5,2.5,3.2,3.3,5.1c0.8,1.2,1,2.7,0.8,4.1c-0.4,0.9-1,1.8-1.8,2.4l-1.8,1.6
	c-0.5,0.5-1.1,1-1.8,1.4c-1,0.4-2,0.5-3,0.5c-2.4,0-4.9,0-6.8-1.4c-2.6-1.9-3.1-5.8-1.9-8.8s3.7-5.2,6.2-7.3
	C172.1,452.7,175.5,455.2,176.9,456.8z"/>
<path class="st10" d="M187.6,467.1c-0.3,1.7-0.2,3.4,0.5,5c0.4,1.5,0.9,3,1.3,4.5c0,0,0,0,0,0.1c1.2-1,2.3-2.2,3.3-3.4
	c0.9-0.9,1.5-2,1.8-3.2c0.3-1.8-0.6-3.6-1.6-5.1c-0.6-0.9-1.3-1.7-2-2.5c-0.5,0.6-0.9,1.2-1.2,1.6
	C188.7,464.9,188,465.9,187.6,467.1z"/>
<path class="st8" d="M141.6,392.6c-2.1,8.7-1.2,17.8-0.1,26.7c0.8,6.8,1.8,13.8-0.2,20.3c-0.7,2.4-1.9,4.9-1.5,7.4
	c0.9,4.7,6.5,6.5,11.3,7.4c1.4,0.3,2.8,0.4,4.2,0.2c1.4-0.4,2.7-1.1,3.8-2c6.7-4.9,11.8-11.7,14.6-19.5c1.8-5.2,2.4-10.8,2.9-16.3
	c0.9-9.2,1.9-18.6,0.5-27.8c-0.4-2.7-1-5.4-1.2-8.1c-0.3-4.7-0.1-9.5,0.8-14.1c1.7-11.6,4.3-23,7.8-34.1c-9.5,1.3-19.2-0.5-27.7-5
	c1.6,0.9-0.2,14.9-0.4,16.9c-0.6,5.9-1.7,11.7-3.2,17.4C150.4,372.7,144.2,382,141.6,392.6z"/>
<path class="st3" d="M141.6,392.6c-2.1,8.7-1.2,17.8-0.1,26.7c0.8,6.8,1.8,13.8-0.2,20.3c-0.7,2.4-1.9,4.9-1.5,7.4
	c0.9,4.7,6.5,6.5,11.3,7.4c1.4,0.3,2.8,0.4,4.2,0.2c1.4-0.4,2.7-1.1,3.8-2c6.7-4.9,11.8-11.7,14.6-19.5c1.8-5.2,2.4-10.8,2.9-16.3
	c0.9-9.2,1.9-18.6,0.5-27.8c-0.4-2.7-1-5.4-1.2-8.1c-0.3-4.7-0.1-9.5,0.8-14.1c1.7-11.6,4.3-23,7.8-34.1c-9.5,1.3-19.2-0.5-27.7-5
	c1.6,0.9-0.2,14.9-0.4,16.9c-0.6,5.9-1.7,11.7-3.2,17.4C150.4,372.7,144.2,382,141.6,392.6z"/>
<path class="st8" d="M193.6,341.6c4,11.6,3.1,24.2,1.4,36.4s-4.3,24.3-3.5,36.5c0.3,4.8,1.1,9.7-0.3,14.3c-0.8,2.2-1.8,4.4-3.1,6.4
	l-31.9,55.2c-1.7,2.9-4.7,4.8-8,5c-3.4,0.2-6.8-0.9-9.9-2.1c-2.1-0.7-4.1-1.8-5.8-3.2c-1.7-1.4-2.6-3.6-2.4-5.9
	c1.4-9.6,3.6-19.4,5.2-29c1.1-6.5,3.4-12.8,6.9-18.4c2.5-4,5.5-7.6,7.6-11.8c6.1-11.9,4-26.5-0.7-39s-11.8-24.2-15.5-37
	c-1.1-3.6-1.7-7.3-1.9-11c-0.1-7.8,2.9-15.3,8.4-20.9c0.8-0.9,1.8-1.6,2.9-2c1.3-0.3,2.7-0.3,3.9,0.1
	C164.5,318.7,187.7,324.5,193.6,341.6z"/>
<path class="st10" d="M480.4,168.6c0.6,4.4-1,8.8-3.2,12.6c-8.5,14.2-28.1,20.5-43.3,13.9c-6.2-2.7-11.5-7.2-16.7-11.7
	c-1.7-1.5-3.5-3.1-4.4-5.2c-1.5-3.8,0.3-8.2,3.4-10.9s7-4,10.9-5.2C440,158,477.3,145.3,480.4,168.6z"/>
<path class="st8" d="M472.8,154.7c11.8,9.5,29,18.6,42.4,25.6c4.5,2.4,9.6,5.1,11.2,10c0.9,2.6,0.6,5.5,0.3,8.2
	c-0.6,5.3-1.1,10.7-3.2,15.6c-2.4,5.8-6.7,10.5-10.1,15.8c-6,9.2-9.5,20-16.9,28.1c5,16.6,10.5,33.2,12.2,50.4c0.1,0.5,0,1-0.2,1.4
	c-0.2,0.3-0.5,0.5-0.8,0.7l-12.4,8.2c-1.4,0.8-2.6,1.8-3.6,3c-2.2,2.9-1.9,6.9-3.3,10.2c-1.5,3.3-4.3,5.8-7.7,7s-7,1.6-10.6,1.1
	c-4.5-0.3-8.9-1.8-12.6-4.5c-3.2-2.4-5.4-5.8-7.6-9.1c-1.6-2.3-3-4.7-4-7.3c-1.3-3.7-1.4-7.7-1.4-11.6c0-7.5,0.7-14.9,2.1-22.2
	c0.6-2.9,1.3-5.8,1.8-8.7c0.9-5.9,0.7-11.9,1.4-17.9c0.9-6.7,2.4-13.2,4.5-19.7c1.1-4,2-8,2.6-12.1c1.2-7.2,3.5-14.1,5.8-21l4-11.8
	c0.8-2.6,1.7-5.1,2.7-7.6c1.9-4.6,4.3-9.2,4.9-14.1c0.7-5.4-5.1-11.8-3.2-16.9C471.5,155,472.4,154.3,472.8,154.7z"/>
<path class="st8" d="M523.2,187.5c2.8,1.2,4.3,4.2,5.3,7.1c2.2,6.5,2.8,13.4,1.6,20.2c-0.4,1.7-0.7,3.4-0.8,5.2c0,2,0.2,4,0.6,6
	c1,7.6,0,15.4,0.3,23.1c0.3,8.7,2.2,17.9-1.4,25.7c-2.4,5.2-7,9.1-11.5,12.7c-16.8,13.1-35.4,23.8-55.2,31.8
	c3.4-4.1,3.5-10.3,1.2-15.1c-2.3-4.8-6.5-8.5-11-11.3c5.7-1.3,11.3-3.3,16.5-5.9c10.5-5.3,19.5-13.1,28.3-20.8
	c1.3-0.9,2.3-2.2,2.9-3.7c0.9-3-1.6-5.9-3.3-8.5c-5.2-8-4-18.4-1.8-27.7c2.4-10.1,6-20.3,12.5-28.4
	C511.6,192.8,516.9,188.9,523.2,187.5z"/>
<path class="st10" d="M461.2,319.6c-0.9,1.5-2.1,2.7-3.4,3.8c-3,2-7.1,1.2-10.5-0.2c-3.1-1.3-6-3.1-8.5-5.4
	c-1.1-1.1-2.4-2.1-3.8-2.8c-2.6-1-6.3-0.2-7.8-2.7c-0.2-0.3-0.3-0.6-0.2-0.9c0.1-0.9,1.2-1.1,2.1-1.2c4.1-0.3,8-1.5,11.6-3.6
	c-1.1-0.8-2.1-1.8-2.8-3c-0.3-0.4-0.5-0.9-0.5-1.4c0.1-0.6,0.4-1.1,0.9-1.4c6.6-6.2,16.2-7.8,24.5-4.1c0.8,0.3,1.5,0.8,2,1.5
	c0.4,0.6,0.6,1.3,0.7,2c0.7,2.8,3,7,2.2,9.8C466.7,313.4,463.2,316.8,461.2,319.6z"/>
<path class="st8" d="M393,307c12.4-14.4,18-33.3,23.2-51.6l3.7-13l8.9-31.3c1.3-4.6,2.6-9.2,3.5-13.9c1.5-8.1,1.6-16.4,1.5-24.7
	c-0.1-3.4-0.9-6.8-2.3-9.9c-0.9-2.2-1.3-4.5-2-6.7c-0.9-3.1-2.3-6.1-4-8.8c-0.5-0.8-1.1-1.5-1.8-2.2c-1.2-0.8-2.6-1.4-4.1-1.7
	c-3.2-0.9-6.5-1.4-9.8-1.5c-3.3,0.1-6.7,1.3-8.9,3.8c-1.6,1.9-2.4,4.4-3.7,6.6c-0.6,0.9-1.1,1.8-1.6,2.8c-0.5,1.5-0.9,3-0.9,4.5
	c-0.5,6.3-1,12.6-1.3,18.9c-0.2,2.9-0.3,5.8-0.2,8.6c0.1,2.2,0.3,4.5,0.6,6.7l2.4,21.8c0.5,5.1,0.2,9.9,0.6,15.1
	c1.1,12.4-1.5,24.8-4.3,37c-1.3,5.8-2.7,11.7-5.5,16.9c-2.5,4.6-6.2,9.4-5.2,14.5c0.3,1.8,1.2,3.5,1.4,5.3c-0.1,1.1,0,2.3,0.3,3.4
	c0.8,1.5,2.6,2.3,4.3,2C389.8,309.3,391.6,308.4,393,307z"/>
<path class="st10" d="M394.5,249.5c0.4,2.9,0.1,5.8,0.2,8.7c0.3,3.7,1,7.4,2,11c1,4,2.3,8.5,5.8,10.7c0.9,0.5,1.7,1,2.5,1.6
	s1.1,1.7,0.8,2.7l-2.8-0.5c1.2,0.9,1.5,2.7,0.5,3.9c-0.9,1.2-2.7,1.5-3.9,0.5c-0.2-0.1-0.3-0.3-0.5-0.4c0.1,0.9,0,1.8-0.2,2.7
	c-0.3,0.9-1.1,1.5-2,1.5c-0.5-0.1-1-0.3-1.4-0.6l-7.2-4.4c-2.2-1.2-3.9-2.9-5.2-5l-3.1-4.7c-0.7-0.9-1.2-1.9-1.6-3
	c-1.2-4,2.1-8.4,0.4-12.2c-0.5-0.9-1.1-1.8-1.8-2.6c-3.6-5-3.4-11.8-3-18c0.1-2.1,0.5-4.6,2.4-5.5c1.5-0.7,3.3-0.1,4.7,0.8
	s2.6,2.1,4.2,2.6c1,0.3,2.1,0.4,3.1,0.7c1.4,0.5,2.7,2.4,3.6,3.5C393.5,245.2,394.3,247.3,394.5,249.5z"/>
<path class="st9" d="M306.9,159.6c-0.8,1.9-2,3.7-3.5,5.3c-1.5,1.5-3.7,2.3-5.8,2c-2.2-0.4-3.9-2.3-5.3-4
	c-3.8-4.5-7.7-9.1-10.3-14.4c-3.9-8.1-4.6-17.4-5.1-26.4c-0.1-2.3-0.3-4.8,0.9-6.8c1.4-2.6,4.4-3.8,7.2-4.8l15.2-5.7
	c0.9-0.4,2-0.6,3-0.6c2.4,0.4,3.3,3.3,3.9,5.6c1.2,4.2,3.1,8.1,5.7,11.6c3.4,4.6,11.1,10.7,6.7,16.4
	C314.1,144.5,310.8,151.9,306.9,159.6z"/>
<path class="st11" d="M326.4,133.6c6.7,6.3,8.9,16.1,8.6,25.2c-0.3,9.1-2.9,18.1-4.3,27.1s-1.7,18.7,2.2,27c1.3,2.9,3.2,5.5,4.1,8.5
	c0.8,3,1.1,6.1,0.8,9.1c0,3.2-0.6,6.4-1.8,9.4c-2.1,4.7-6.5,8-10.7,11c-8.5,6.2-17.3,12.5-27.3,15.7c-6.8,2.2-14,2.9-21.1,3.3
	c-4.8,0.4-9.7,0.2-14.5-0.4c-8.4-1.4-16.1-5.5-21.9-11.6c-1-1-1.9-2.2-2.5-3.4c-0.6-1.7-0.9-3.4-0.9-5.2c-0.2-6.6-0.2-13.1,0.1-19.7
	c0.2-6.3,1-12.5,2.6-18.6c1.9-7,5.2-13.6,7.7-20.4c8.7-23.7,7.9-50.7,20-72.8c2.6-4.8,7-9.8,12.4-9.1c1,0.1,2,0.5,2.7,1.3
	c0.6,0.9,1,2,1,3.1c1.3,10.8,3.1,21.8,8.2,31.5c2,3.8,5,9.6,9.6,10.6s7.3-3.4,9.8-6.5C315.6,143,320.7,137.9,326.4,133.6z"/>
<path class="st8" d="M358.4,117.4c1.4,0.7,2.6,1.6,3.8,2.7c3,2.8,4.1,7.2,4.1,11.3c0,4.1-1,8.2-1.6,12.3c-1.6,11-0.2,22.3,0.4,33.4
	c0.2,1.8,0.1,3.6-0.3,5.4c-0.5,1.7-1.5,3.2-2.2,4.8c-1.9,4.8-0.5,10.3-1.6,15.4c-1.2,5.4-5.3,10.3-4.5,15.8c0.3,2.1,1.3,4.1,1.8,6.2
	s0.1,4.7-1.8,5.8s-4.5,0.3-6.7,0.9c-0.9,0.3-1.7,0.7-2.6,1.2c-3.4,1.5-7.4,1-10.7-0.7c-3.3-1.8-6.2-4.1-8.7-6.9
	c-3.8-3.9-7.5-8.2-9.2-13.4c-2.4-7.5-0.3-15.7,2.4-23.2s5.8-15,5.3-22.9c-0.3-4.4-1.7-8.7-2.5-13.1c-1-6-1.4-12.2-1.1-18.3
	c0.1-4.5,0.4-9.1,2.4-13.2c2.8-5.5,8.2-9.2,14.3-9.8C346.5,110.4,352.5,114,358.4,117.4z"/>
<path class="st3" d="M339.5,214c0.1,3.2,0.6,6.4,1.7,9.4c1.8-4.1,2-8.7,2.2-13.1c1-15.3,4.4-29.7,8-44.5c-2.6,2-4.1,7-5.4,10
	C341.1,187.9,338.8,201,339.5,214z"/>
<path class="st8" d="M272.1,107.5c-4.8,1.3-9,4.1-13.7,6c-4.9,2-10.1,2.8-15.2,4.1c-11.8,2.9-23.6,8.2-30.7,18
	c-5.2,7.2-7.4,16.2-11,24.4c-3,6.9-7,13.3-9.2,20.5c-2.9,9.3-2.6,19.3-1.9,29.1c0.6,8,1.5,16.1,5.1,23.2c1.9,3.7,4.5,7.1,6.4,10.8
	c2.3,4.5,3.5,9.4,5.4,14s4.7,9.2,9.1,11.6l7.3-4.3c10.9-6.4,21.8-12.8,32.3-19.7c9.2-6,18.5-12.9,23.4-22.8
	c4.3-8.7,4.8-18.9,3.6-28.6s-3.7-19.1-5-28.8c-1.7-12.1-1.4-24.5,0.8-36.5c1-5.4,3.7-11.1,4.2-16.5
	C283.7,106.2,276.3,106.4,272.1,107.5z"/>
<path class="st10" d="M226.9,266.5c5.6,5.3,13.6,6.8,20.6,10c5.2,2.4,9.9,5.8,13.8,10c2.2,2.4,4.2,5.6,3.2,8.6
	c-0.9,2.6-3.7,3.9-6.3,4.9c-3.2,1.2-6.7,2.3-9.9,1c-1.9-0.7-3.4-2.1-5.1-3.1c-4.2-2.5-9.5-2.5-13.8-4.8c-6.1-3.2-9.1-10.4-14.8-14.2
	c-3.1-2.1-7.4-3.8-7.8-7.6c0-1.4,0.3-2.7,0.8-3.9c1.1-3.1,3.1-13.6,7.5-13.3C220.1,254.3,223.4,263.9,226.9,266.5z"/>
<path class="st10" d="M197.7,219.6c1.8,6.6,6.1,12.2,10.5,17.4c3.2,3.8,6.6,7.8,6.8,12.7c0.1,4.6-3,8.9-7,11.3s-8.7,3.1-13.3,3.4
	c-3.7,0.4-7.4,0.1-11.1-0.8c-9.1-2.5-15.5-10.4-22.7-16.6c-4.3-3.6-9.1-6.8-12.3-11.4s-4.6-11.1-1.4-15.7c1.2-1.5,2.5-2.8,4-4
	c5.5-4.7,10.1-10.3,13.8-16.6c1.5-2.5,2.9-5.2,5.4-6.7c3.6-2.2,8.1-1.2,12.2-0.1c4.4,1.1,16.8,3.4,17.6,9c0.4,2.3-2.5,5.9-2.9,8.4
	C196.6,213.1,196.8,216.4,197.7,219.6z"/>
<path class="st1" d="M220.3,232.1c1.3,2.4,2.4,4.9,3.2,7.4c3,10.6-2.4,21.5-5,32.2c-3.3,13.7-1.9,28.1-2.1,42.2
	c-0.1,6.5-0.8,13.6-5.4,18c-1.2,1.1-2.6,2.1-3.5,3.5c-0.5,1.1-0.9,2.2-1.1,3.3c-2.6,9.1-12.1,14.3-21.1,11.7
	c-1.3-0.4-2.5-0.9-3.6-1.5c-3.8-2.1-7.1-5.8-11.4-5.9c-1.4,0.1-2.7,0.2-4.1,0.5c-4.3,0.4-8.5-1.2-12.6-2.7c-1-0.3-1.9-0.8-2.7-1.4
	c-0.7-0.7-1.2-1.6-1.9-2.3c-2.5-2.7-6.7-2.2-10.2-2.9c-5.4-1.2-9.7-5.4-10.9-10.9c-0.7-3.4-0.1-7,0.5-10.5l2.7-15.5
	c1.1-5.7,1.9-11.4,2.3-17.2c0.3-6.5-0.2-13-1.7-19.4c-1.2-5.2-2.9-10.3-3.6-15.6c-1.1-9.5,1.4-19.1,7-26.8c1.4-1.9,3.2-3.8,5.6-4
	c1.9-0.2,3.7,0.9,5.4,1.8c14.4,8.5,28.9,16.9,43.6,25.1c4,2.2,8.1,4.5,12.5,5.6c1.3,0.3,3.3,0.2,3.5-1.2c0-0.5-0.1-1-0.4-1.5
	c-2.5-4.8-6.1-8.9-9-13.5s-5.1-10-4.2-15.3c1.2-7.4,8-12.2,13.6-6.5C212,215.7,216.2,224.1,220.3,232.1z"/>
<path class="st10" d="M175.5,325.5c11.7,0.8,23.7,1.5,34.6,6c3.5,1.4,7.2,3.3,10.9,2.4c1.8-0.6,3.5-1.5,5-2.7
	c4.5-3.3,8.8-7,12.8-10.9c-0.4-2.2-3.4-2.5-5.6-2.5c-5.4,0-10.8-1.3-15.6-3.7c-1.6-1-3.3-1.7-5-2.3c-4.8-1.3-9.6,1.2-14.4,2.4
	c-7.1,1.8-14.5,0.8-21.7-0.3L157,311c-1.8-0.3-3.9-0.5-5.3,0.6c-1,0.9-1.6,2.1-1.9,3.4c-2.4,8-1.2,8.7,6.7,9.2L175.5,325.5z"/>
<circle class="st3" cx="441.2" cy="154.6" r="32"/>
<ellipse class="st10" cx="441" cy="153.2" rx="32" ry="32"/>
<path class="st8" d="M468,112.6c2.6,1.6,5.2,3.3,6.6,5.9c0.8,1.8,1.3,3.7,1.7,5.6c1.8,6,6.4,11.2,6.7,17.5
	c0.3,6.9-4.8,12.8-10.7,16.4c-1.3,1-2.9,1.5-4.6,1.5c-1.7-0.1-3.2-1.2-4.7-1.9c-6.6-2.9-13.9,0.8-20.9,2.5
	c-7.2,1.7-14.8,1.3-21.8-1.3c-3.8-1.4-7.4-3.5-9.7-6.8s-3.2-7.8-1.2-11.3c1-1.8,2.7-3.4,2.5-5.4c-0.1-1.2-0.8-2.3-1-3.5
	c-0.3-1.9,0.7-3.8,1.7-5.4c4.6-7.4,10.5-14.1,17.3-19.6c2-1.6,4.3-3.2,6.9-3.4c5.3-0.2,9.8,3.7,15.2,3.7
	C458.3,107.3,462.7,109.3,468,112.6z"/>
<circle class="st3" cx="323.2" cy="113.5" r="33"/>
<circle class="st9" cx="323.8" cy="112.7" r="33"/>
<path class="st8" d="M341.4,131.3c4.7,2.6,10.4,2.3,15.6,1.2c2.9-0.6,5.7-1.7,8.2-3.5s4-4.6,4.1-7.6c0-3.3-2.2-6.4-2.5-9.7
	c-0.3-4.2,2.4-8.1,2.7-12.4s-1.8-8.1-3.8-11.7c-3.5-6.2-7.2-12.6-12.5-17.4s-12.7-7.8-19.7-6.2c-3.4,0.8-6.6,2.6-10.1,3
	c-3.1,0.3-6.2-0.7-9.3-1c-3.1-0.3-6.6-0.2-8.8,2c-1.2,1.2-2,2.9-3.4,3.8c-1,0.4-2,0.8-3,1.1c-3.6,1.5-5.3,5.5-6.5,9.2l-8.7,24.5
	c2.9,2,6.3,2.9,9.5,4.4s6.2,4,6.8,7.4c0.5,2.6-0.4,5.6,1.1,7.8c1.4,2,4.2,2.3,6.6,2s4.8-1.2,7.2-0.8c6,0.9,8.2,4.6,13.8,0
	C334.3,122.8,336.2,128.4,341.4,131.3z"/>
<circle class="st3" cx="183.5" cy="187.1" r="30"/>
<circle class="st10" cx="184.7" cy="185.5" r="30"/>
<path class="st8" d="M207.6,156.1c-7.1-5.5-15.2-9.7-23.7-12.5c-5.5-1.8-11.4-3-17-1.4c-7.5,2.1-17.6,5.4-22.3,11.7
	c-2.3,3.1-4.6,6.3-5.7,10c-2.2,7.5,0.9,15.4,0.7,23.2c-0.2,9.1-5.1,17.4-10.3,24.8c-5.2,7.4-6.3,18-9.4,26.5c-1.1,2.9-1.4,7,1.3,8.5
	c2.4,1.3,5.3-0.3,7.5-1.9l13.4-9.6c1-0.9,2.2-1.5,3.5-1.9c2.8-0.6,5.4,1.1,7.7,2.7l28,19.8c1.1-2.3,1.2-5,0.1-7.3
	c2.6,0.8,4.5,3,6.9,4.6s5.8,2.1,7.5-0.1s0.4-5.1-1.5-6.9s-4.3-2.8-6.2-4.6c-3.6-3.6-4-9.3-6.3-13.9c-1.6-3.2-4.3-5.9-5.5-9.3
	c-1.9-5.6,0.6-11.6,3-16.9c2.9-6.4,6.2-13.1,12.3-16.5c2.1-1.1,4.4-1.8,6.5-2.8c5.3-2.5,11.9-8.5,14.5-13.9
	C215,163.7,211.5,159.1,207.6,156.1z"/>
<path class="st3" d="M162.2,255.3c2.9,1.8,6.1,3,8.9,4.9s5.3,4.8,5.4,8.2c0.1,3.2-2,6.1-4,8.7l-24.4,32l12.4,3.3
	c-2,2.8-2.5,6.3-3.5,9.5s-3,6.6-6.3,7.5c-3,0.8-6.1-0.8-9.2-0.6c-2.3,0.1-4.5,1.2-6.7,1.3c-3,0.1-5.7-1.4-8.1-3.1
	c-5.5-3.7-10.9-8.9-10.9-15.5c0.1-2.2,0.6-4.4,1.3-6.5c3.6-11.7,7.3-23.7,14.8-33.4c4-5.2,8.9-9.6,13.8-13.9c1.1-1.1,2.4-2,3.9-2.7
	c3.2-1.2,6.7,0.3,10,1.2s7.5,1.1,9.4-1.7"/>
<path class="st1" d="M161.2,253.3c2.9,1.8,6.1,3,8.9,4.9s5.3,4.8,5.4,8.2s-2,6.1-4,8.7L147.1,307l12.4,3.3c-2,2.8-2.5,6.3-3.5,9.5
	s-3,6.6-6.3,7.5c-3,0.8-6.1-0.8-9.2-0.6c-2.3,0.1-4.5,1.2-6.7,1.3c-3,0.1-5.7-1.4-8.1-3.1c-5.5-3.7-10.9-8.9-10.9-15.5
	c0.1-2.2,0.6-4.4,1.3-6.5c3.6-11.7,7.3-23.7,14.8-33.4c4-5.2,8.9-9.6,13.8-14c1.1-1.1,2.4-2,3.9-2.7c3.2-1.2,6.7,0.3,10,1.2
	s7.5,1.1,9.4-1.7"/>
<g class="st12">
	<path d="M411.7,145.5c2.3,3.2,6,5.4,9.7,6.8c7,2.6,14.6,3,21.8,1.3c7-1.7,14.3-5.4,20.9-2.5c1.5,0.7,3,1.7,4.7,1.9
		c1.7,0,3.3-0.6,4.6-1.6c4-2.5,7.8-6.1,9.5-10.4c0,0.2,0,0.4,0.1,0.7c0.3,6.9-4.8,12.8-10.7,16.4c-1.3,1-2.9,1.5-4.6,1.5
		c-1.7-0.1-3.2-1.2-4.7-1.9c-6.6-2.9-13.9,0.8-20.9,2.5c-7.2,1.7-14.8,1.3-21.8-1.3c-3.8-1.4-7.4-3.5-9.7-6.8s-3.2-7.8-1.2-11.3
		l0.2-0.2C410,142.4,410.7,144,411.7,145.5z"/>
	<path d="M413,128.8c0.1,1.5-0.8,2.8-1.7,4.1c-0.1-0.3-0.2-0.7-0.3-1c-0.3-1.8,0.6-3.5,1.5-5.1C412.8,127.5,413,128.1,413,128.8z"/>
</g>
<path class="st3" d="M294.6,78.8l-8.6,24.6c2.9,2,6.3,2.9,9.5,4.4s6.2,4,6.8,7.4c0.5,2.6-0.4,5.6,1.1,7.8c1.4,2,4.2,2.3,6.6,2
	s4.8-1.2,7.2-0.8c6,0.9,8.2,4.6,13.8,0.1s7.6,0.8,12.7,3.8c4.7,2.6,10.4,2.3,15.6,1.1c2.9-0.6,5.7-1.7,8.2-3.4
	c0.3-0.3,0.7-0.6,1-0.9c-0.8,1.6-1.9,3.1-3.4,4.2c-2.5,1.7-5.3,2.9-8.2,3.5c-5.2,1.2-11,1.5-15.6-1.1c-5.2-2.9-7.3-8.2-12.7-3.8
	s-7.8,0.9-13.8,0c-2.4-0.4-4.8,0.5-7.2,0.8c-2.4,0.3-5.2,0-6.6-2c-1.5-2.2-0.6-5.2-1.1-7.8c-0.6-3.4-3.7-5.9-6.8-7.4
	s-6.6-2.5-9.5-4.4l8.6-24.7c1-2.7,2.1-5.6,4.1-7.6C295.7,75.9,295.1,77.3,294.6,78.8z"/>
<g class="st12">
	<path d="M183.7,249.8c2.2,1,5,1.1,6.4-0.7c1.6-2,0.4-5.1-1.5-6.9s-4.3-2.8-6.2-4.6c-3.6-3.6-4-9.3-6.3-13.9
		c-1.6-3.2-4.3-5.9-5.5-9.3c-1.9-5.6,0.6-11.6,3-16.9c2.9-6.4,6.2-13.1,12.3-16.5c2.1-1.1,4.4-1.8,6.5-2.8
		c5.3-2.5,11.9-8.5,14.5-13.9c2.2-4.5-0.9-8.9-4.5-11.9c1.8,1.1,3.5,2.4,5.2,3.6c3.9,3,7.3,7.6,5,12.3c-2.6,5.4-9.2,11.3-14.5,13.9
		c-2.1,1-4.4,1.7-6.5,2.8c-6.1,3.3-9.4,10.1-12.3,16.5c-2.4,5.4-4.9,11.4-3,16.9c1.2,3.4,3.8,6.1,5.5,9.3c2.3,4.6,2.7,10.3,6.3,13.9
		c1.8,1.8,4.3,2.9,6.2,4.6s3,4.8,1.5,6.9s-5.2,1.6-7.5,0.1C186.7,252.2,185.3,250.8,183.7,249.8z"/>
	<path d="M123.1,240.9l13.4-9.6c1-0.9,2.2-1.5,3.5-1.9c2.8-0.6,5.4,1.1,7.7,2.7l28,19.8c1.1-2.3,1.2-5,0.1-7.3
		c2.6,0.8,4.4,2.9,6.7,4.4c-0.3-0.1-0.7-0.3-1-0.4c1,2.3,1,5-0.1,7.3l-28-19.8c-2.3-1.6-5-3.4-7.7-2.7c-1.3,0.4-2.5,1-3.5,1.9
		l-13.4,9.6c-2.2,1.6-5.1,3.3-7.5,1.9c-1.3-0.8-2.1-2.3-2.1-3.9C120.5,242.5,121.9,241.8,123.1,240.9z"/>
</g>
<path class="st11" d="M456.6,306.2c0,0-57.3,4.6-68.7-3.5l52.4-8.1L456.6,306.2z"/>
<path class="st3" d="M456.6,306.2c0,0-57.3,4.6-68.7-3.5l52.4-8.1L456.6,306.2z"/>
<path class="st11" d="M456.6,306.2l-16-10.2c0,0-47.9,13.8-61,8.1l13.3-18.7l47.4,9.2L456.6,306.2z"/>
<path class="st8" d="M385.4,171.5c-1.8,2.2-3.2,4.7-4.2,7.4c-0.5,1.4-0.7,2.9-1.1,4.3c-1.1,3.6-2.8,6.9-5,9.9
	c-4.9,7.2-11.1,14.1-12.3,22.7c-0.6,4.2,0.1,8.6,0.9,12.8c0.5,2.8,1.2,5.5,2.4,8.1c1.3,2.7,3.2,5.1,4.6,7.8c1.3,2.6,2.4,5.3,3.3,8.1
	c1.7-1.7,2.7-4,4.1-6s3.4-3.8,5.8-3.8c2.8,0,5.1,2.3,7.8,2.7c0.4,0.1,0.9,0,1.3-0.1c1-0.5,1.1-1.8,1-2.9c-0.8-7.6-5.1-15-3.1-22.3
	c1.9-6.8,8.6-11,12.1-17.1c2.6-4.4,3.3-9.6,4-14.7c0.8-6.1,1.7-12.1,1.3-18.2c-0.2-3.1-2.6-22.5-7.1-20.4c-1.5,0.7-2.9,3.7-3.9,5
	l-4,5.7L385.4,171.5z"/>
<polygon class="st11" points="265.7,296.6 233.5,322.8 192.1,315.4 220,293.5 "/>
<polygon class="st3" points="266.9,295 234.7,321.2 193.3,313.8 221.2,291.9 "/>
<polygon class="st11" points="266.6,293.6 234.5,319.8 193.1,312.4 220.9,290.5 "/>
<polygon class="st3" points="267.6,290.6 235.4,316.8 194,309.4 221.9,287.5 "/>
<polygon class="st11" points="267.3,289.2 235.2,315.4 193.8,308 221.6,286.1 "/>
<path class="st8" d="M690.5,647L690.5,647c2.6-1.3,5.7-0.2,6.9,2.4c0.3,0.6,0.5,1.2,0.5,1.9l1.8,23.2l-10.6,1.9l-5.6-16.8L690.5,647
	z"/>
<path class="st8" d="M318.9,491.5l-162.5,82.4c-5.6,2.8-7.8,9.7-4.9,15.2c1.1,2.2,2.9,3.9,5,5l350.1,175.7c12.6,6.3,27.6,6,39.9-1
	l147.4-83.1c5.4-3.1,7.3-10,4.2-15.4c-1.1-2-2.8-3.6-4.9-4.6L328.9,491.4C325.8,489.8,322.1,489.9,318.9,491.5z"/>
<path class="st8" d="M155.3,559.6l-5.1,3.8l-0.4,18.1c-0.1,2.9,1.5,5.5,4.1,6.9l356,182.7c2.6,1.3,5.8,0.3,7.1-2.3
	c0.4-0.8,0.6-1.6,0.6-2.4v-26.3L155.3,559.6z"/>
<path class="st11" d="M318.9,470.5L156.4,553c-5.6,2.8-7.8,9.6-5,15.2c1.1,2.2,2.8,3.9,5,5l350.1,175.7c12.6,6.3,27.6,6,39.9-1
	l147.4-83.2c5.4-3.1,7.3-10,4.2-15.4c-1.1-2-2.8-3.6-4.9-4.6L328.9,470.4C325.8,468.9,322.1,468.9,318.9,470.5z"/>
<polygon class="st8" points="352.6,485.5 173.5,576.4 481.3,730.3 666,636.6 "/>
<ellipse class="st8" cx="593.9" cy="691.1" rx="18.9" ry="11.2"/>
<circle class="st8" cx="249.4" cy="514.5" r="1.8"/>
<circle class="st8" cx="244.2" cy="528.1" r="2.1"/>
<line class="st13" x1="251.9" y1="524.6" x2="272.8" y2="514.8"/>
<path class="st1" d="M378.5,604.4l59.3-34.2c8.6-5,19.6-2,24.6,6.6l0,0c5,8.6,2,19.6-6.6,24.6l-59.3,34.2c-8.6,5-19.6,2-24.6-6.6
	l0,0C367,620.3,369.9,609.3,378.5,604.4z"/>
<path class="st1" d="M431.5,631.4l59.3-34.2c8.6-5,19.6-2,24.6,6.6l0,0c5,8.6,2,19.6-6.6,24.6l-59.3,34.2c-8.6,5-19.6,2-24.6-6.6
	l0,0C420,647.3,422.9,636.3,431.5,631.4z"/>
<path class="st1" d="M330.5,573.4l59.3-34.2c8.6-5,19.6-2,24.6,6.6l0,0c5,8.6,2,19.6-6.6,24.6l-59.3,34.2c-8.6,5-19.6,2-24.6-6.6
	l0,0C319,589.3,321.9,578.3,330.5,573.4z"/>
</svg>
