<?xml version="1.0" encoding="utf-8"?>
<!-- Generator: Adobe Illustrator 23.0.2, SVG Export Plug-In . SVG Version: 6.00 Build 0)  -->
<svg version="1.1" id="Layer_1" xmlns="http://www.w3.org/2000/svg" xmlns:xlink="http://www.w3.org/1999/xlink" x="0px" y="0px"
	 viewBox="0 0 1025.4 377.6" style="enable-background:new 0 0 1025.4 377.6;" xml:space="preserve">
<style type="text/css">
	.st0{opacity:0.15;fill:#79C6C1;enable-background:new    ;}
	.st1{opacity:0.7;fill:#6EB7B0;enable-background:new    ;}
	.st2{fill:#A8A8A8;}
	.st3{opacity:0.1;fill:#FFFFFF;enable-background:new    ;}
	.st4{opacity:0.1;enable-background:new    ;}
	.st5{fill:#464353;}
	.st6{fill:url(#SVGID_1_);}
	.st7{opacity:0.1;}
	.st8{opacity:6.000000e-02;enable-background:new    ;}
	.st9{fill:#FBBEBE;}
	.st10{fill:#6C63FF;}
	.st11{fill:#FFFFFF;}
	.st12{fill:url(#SVGID_2_);}
	.st13{fill:#D6D8E1;}
	.st14{fill:#D35057;}
	.st15{fill:#444176;}
	.st16{opacity:0.1;fill:none;stroke:#000000;stroke-miterlimit:10;enable-background:new    ;}
	.st17{opacity:5.000000e-02;}
	.st18{opacity:0.2;enable-background:new    ;}
	.st19{fill:#6EB7B0;}
	.st20{opacity:0.43;fill:#6EB7B0;enable-background:new    ;}
</style>
<title>warning</title>
<ellipse class="st0" cx="505.4" cy="191.7" rx="489.9" ry="171"/>
<ellipse class="st1" cx="136.4" cy="352.2" rx="137.1" ry="21.2"/>
<ellipse class="st1" cx="332.9" cy="361.5" rx="53.3" ry="11"/>
<ellipse class="st1" cx="600.8" cy="352.5" rx="53.3" ry="11"/>
<ellipse class="st1" cx="382.4" cy="307.2" rx="86.7" ry="14.7"/>
<ellipse class="st1" cx="842.2" cy="335.6" rx="180.8" ry="28.3"/>
<path class="st2" d="M36.8,286.2c-8.3,16.1-7.3,35.4,2.6,50.5c1.6,2.4,3.1,4.1,4.2,4.6c5.6,2.2,16.9,7.6,16.9,7.6l27.1-10.6
	c0,0,4.4-23.3,8.6-43.3l0,0c2.8-13.6,5.6-25.7,6.7-27.8c2.8-5.2,0-62.1,0-62.1s-27.1-1.8-34.5,19.1l-3.3,6.4L36.8,286.2z"/>
<path class="st3" d="M72.8,292.5c16.5,18.9,23.4,2.6,23.4,2.6l0,0l0,0c2.8-13.6,5.6-25.7,6.7-27.8c2.8-5.2,0-62.1,0-62.1
	s-27.1-1.8-34.5,19.1l-3.3,6.4C63,247.3,60.9,278.9,72.8,292.5z"/>
<path class="st2" d="M76.4,345.1l95.6-11l17.1-112.3l-12.9-29.2c-5.5-12.4-13-23.8-22.3-33.7c-6.5-6.8-14.3-13.4-22.6-16.7
	c-1.1-0.5-2.3-0.8-3.5-1.2c-2.7-0.8-5.7-0.3-8,1.4c-11.8,8.4-16,43.9-17.4,61c-0.6,7-1.5,14-2.8,21L76.4,345.1z"/>
<path class="st3" d="M140.1,220.5l-19.9,49c10.4-7.6,25.9-49.2,25.9-49.2l13.9,47.4l-11-50c1.6-10.8,2.1-21.8,1.4-32.8
	c-0.9-12.5-12.6-32.7-19-42.8c-1.1-0.5-2.3-0.8-3.5-1.2c-2.7-0.8-5.7-0.3-8,1.4c5,10.1,17.6,35.3,21.4,42.8
	C146.1,194.6,140.1,220.5,140.1,220.5z"/>
<path class="st2" d="M156.3,348.9h51.9c8.7,0,15.7-7,15.7-15.7c0-0.3,0-0.5,0-0.8c-1.1-22.3-4.1-61.9-11-87.1
	c-3.7-13.6-8.1-20.7-12.1-24.2c-1.9-1.8-4.3-2.9-6.9-3.2c-2-0.2-3.9,0.3-5.6,1.4c-9.6,9.2-20.9,57.8-20.9,57.8L156.3,348.9z"/>
<path class="st3" d="M204.2,305.8c2.1,5.9,3,12.8,0,19.4l-11.6,5.7c0,0-31.1-13.2-27.3-40.2c0,0,1-5.6,11.7-5.1
	C189.4,286.2,200.1,294.2,204.2,305.8z"/>
<path class="st3" d="M191.9,234.8c-0.4-9.5,4.8-12.8,9-13.8c-1.9-1.8-4.3-2.9-6.9-3.2c-3,2.5-5.1,5.8-6,9.6l-10.8,52.8
	C177.2,280.2,192.5,250.7,191.9,234.8z"/>
<path class="st2" d="M142.7,276.6l25.7,35.1l4.5,29l-16.5,8.2l-23.8,5.3c-2.3,0.5-4.7,0.7-7,0.5l-65-5.7l8.8-20.5l30.5-42.9
	L142.7,276.6z"/>
<path class="st3" d="M132.7,264.5c0,0,17.5,1.2,11,31.3c-6.6,30.1-74.3,32.5-74.3,32.5s14.4-25.5,36.5-43.8c2.5-2,4.9-4.2,7.2-6.5
	C118.2,273.1,127.9,264.1,132.7,264.5z"/>
<path class="st4" d="M148.5,287.2c0,0,23.8,21.6,21.5,54.9"/>
<path class="st4" d="M188.5,219.1c0,0-24.9,33.2-27.7,84.2"/>
<path class="st4" d="M102.9,205.1c0,0,12.1,54.8-18.1,96.1"/>
<path class="st5" d="M319.4,306.9h130c4,0,7.3-3.3,7.2-7.3c0-1.2-0.3-2.4-0.9-3.4l-65-120.7c-1.9-3.5-6.3-4.9-9.9-3
	c-1.3,0.7-2.3,1.7-3,3l-65,120.7c-1.9,3.5-0.6,8,3,9.9C317,306.6,318.2,306.9,319.4,306.9z M392.7,284.9h-16.5v-16.5h16.5V284.9z
	 M392.7,257.3h-16.5v-33.1h16.5V257.3z"/>
<path class="st4" d="M319.4,306.9h130c4,0,7.3-3.3,7.2-7.3c0-1.2-0.3-2.4-0.9-3.4l-65-120.7c-1.9-3.5-6.3-4.9-9.9-3
	c-1.3,0.7-2.3,1.7-3,3l-65,120.7c-1.9,3.5-0.6,8,3,9.9C317,306.6,318.2,306.9,319.4,306.9z M392.7,284.9h-16.5v-16.5h16.5V284.9z
	 M392.7,257.3h-16.5v-33.1h16.5V257.3z"/>
<path class="st5" d="M319.4,310.9h130c4,0,7.3-3.3,7.2-7.3c0-1.2-0.3-2.4-0.9-3.4l-65-120.7c-1.9-3.5-6.3-4.9-9.9-3
	c-1.3,0.7-2.3,1.7-3,3l-65,120.7c-1.9,3.5-0.6,8,3,9.9C317,310.6,318.2,310.9,319.4,310.9z M392.7,288.8h-16.5v-16.5h16.5V288.8z
	 M392.7,261.3h-16.5v-33.1h16.5V261.3z"/>
<linearGradient id="SVGID_1_" gradientUnits="userSpaceOnUse" x1="85.6292" y1="-268.1288" x2="337.3857" y2="-268.1288" gradientTransform="matrix(1 0 0 1 -83.88 456.32)">
	<stop  offset="0" style="stop-color:#808080;stop-opacity:0.25"/>
	<stop  offset="0.54" style="stop-color:#808080;stop-opacity:0.12"/>
	<stop  offset="1" style="stop-color:#808080;stop-opacity:0.1"/>
</linearGradient>
<path class="st6" d="M251.3,347c-0.6-0.4-1.2-0.7-1.8-0.9c-2.1-0.8-4.4-1-6.6-1.8c-1.2-0.4-2.3-1.1-3.3-1.9
	c-0.2-0.2-0.3-0.3-0.5-0.5c0.8-0.5,1.5-1,2.3-1.5c-2.4-3.9-5.7-7.2-9.6-9.6c1.3-1.9,4.2-1.7,5.9-3.3c0.9-0.8,1.4-1.9,1.6-3.1
	c0.6-3.1-0.2-6.4-0.9-9.5c-1.5-6-3-12.1-5.5-17.8c-1.1-2.3-2.1-4.8-3-7.2c-2.1-6.9-0.6-14.3-2.2-21.4c-0.5-2.3-1.3-4.6-0.7-6.8
	c0.9-3.5,4.7-5.5,5.6-9c3.1-12.3,3.6-25.1,5.3-37.7c0.4-2.4,0.6-4.8,0.6-7.2c0-2.5-0.5-5.1-0.6-7.6c-0.5-7.1,0.9-14.2,1.5-21.3
	c1.4,2.2,2.3,4.6,2.9,7.1c0.3,2.3,0.4,4.7,0.2,7.1c-0.1,1.6-0.2,3.2-0.5,4.7c-0.4,1.8-1.1,3.6-1.5,5.5c-1,3.6-0.7,7.5,0.8,11
	c1.1,2.4,3.5,4.6,5.9,3.9c1.7-0.5,2.7-2.2,3.5-3.8c2.4-5.1,3.7-10.9,2.1-16.3c-1.1-3.6-3.4-6.8-3.6-10.6c0-1.5,0.1-3,0.4-4.5
	c1-8.7-1.2-17.4-1.6-26.1c-0.1-2.3,0.1-5.2-0.4-7.6c-0.1-0.3-0.1-0.6-0.2-0.9c0.2,0.1,0.4,0.1,0.6,0.3c0.6-1.4,0.6-3.1-0.1-4.5
	c-0.3-0.4-0.5-0.9-0.7-1.4c-0.3-0.8-0.2-1.7-0.6-2.5c-0.2-0.4-0.5-0.8-0.8-1.2c-1-1.5-1.1-3.4-1.1-5.2c-0.1-9.4-0.4-18.9-0.8-28.3
	c-0.2-4.8-0.5-9.7-2.2-14.2c-1.4-4-4.1-7.4-7.5-9.9c-0.5-0.4-1.1-0.7-1.7-1.1c0.3-0.7,0.5-1.4,0.5-2.2c0-0.2,0-0.5,0-0.7v-0.4l0,0
	c-0.3-1.7-0.8-3.3-1.6-4.8c-0.9-1.6-1.4-3.4-1.5-5.2c0-0.3,0-0.7,0.1-1l0,0c0.3-2.3,1.5-4.4,1.9-6.7c0.1-0.7,0.2-1.4,0.2-2.2
	c0-0.2,0-0.5,0-0.8l0,0c-0.3-2.8-1.2-5.6-2.6-8c-0.4-0.8-0.8-1.6-1.2-2.4c-0.2-1.5-0.4-3-0.7-4.5c-0.1-0.9-0.3-1.7-0.4-2.6
	c-0.1-0.4-0.2-0.8-0.3-1.2c1.2-1.2,0.5-2.9-0.3-4.4c-1.5-3-1.2-6.6-1.8-9.9c-0.5-2.3-1.3-4.5-2.3-6.6c-0.6-1.5-1.5-2.9-2.5-4.2
	c-1-0.9-2.1-1.7-3.3-2.4c-1-0.7-2.1-1.2-3.3-1.5c-0.7-0.1-1.5-0.1-2.2-0.3c-0.5-0.1-0.9-0.3-1.3-0.5C209,7.4,208,7,207,6.9
	c-0.9,0-1.9,0.1-2.8,0.5c-0.9,0.4-1.9,0.7-3,0.8c-0.4,0-0.7,0-1.1,0c-0.5,0-1.1,0.1-1.5,0.4c-0.2,0.2-0.5,0.4-0.7,0.7
	c-0.6,0.5-1.2,1-1.9,1.3c-5.7,3.4-9.3,9.5-9.3,16.2c0.1,0.9,0,1.8-0.2,2.6c-0.2,0.7-0.7,1.3-0.9,1.9c-0.1,0.6-0.2,1.2-0.1,1.8
	c0.1,0.9,0.2,1.9,0.3,2.8l0,0c-0.6,0.8-1,1.6-1.2,2.6l0,0c0,0.2-0.1,0.3-0.1,0.5v0.1l0,0c-0.1,1.7,0.7,3.2,1.2,4.8
	c0.8,3.1,0.7,6.3-0.2,9.4c-0.6,2.1-1.4,4.3-1.6,6.4l0,0v0.1c-0.1,1.1,0,2.2,0.4,3.2c0.3,0.7,0.7,1.4,0.9,2.1c0.8,2.6-0.4,5.3-2,7.6
	l0,0c-0.3,0.4-0.5,0.7-0.8,1l0,0l0,0l1.7,1.2c-0.5,0.3-1,0.5-1.5,0.8c-1.9,0.3-3.7,1-5.4,2c-1.6,0.8-3,1.8-4.4,2.9
	c-1.4,1.4-2.6,3-3.5,4.8c-1.1,2-2.1,4.1-2.9,6.2c-0.8,1.7-1.3,3.5-1.5,5.4c-0.7,1.5-1.3,3-1.9,4.4c-0.3,0.7-0.6,1.5-0.9,2.2
	l-27.4-67.2l-4.3,1.8l0.3,0.8l-0.9,0.4l1.2,2.9c-0.2,0.1-0.4,0.2-0.5,0.4l-0.2,0.2l-0.4,0.4l-0.2,0.2l-0.5,0.4L129,44l-0.6,0.5l0,0
	c-0.6,0.5-1.2,1.1-1.8,1.7l-1.5,1.5l-0.3,0.3l-0.5,0.5l-0.3,0.3l-0.7,0.7l0,0l-0.4,0.4l-0.3,0.3c-0.1,0.1-0.2,0.2-0.4,0.3l-0.3,0.3
	l-0.5,0.5l-0.4,0.3l-0.7,0.6c-1,0.8-2.1,1.5-3.2,2c-4.4,2.3-9,4.1-13.2,6.6c-2.3,1.3-4.5,2.8-6.6,4.6c-2.8,2.5-5.2,5.6-8.5,7.4
	L88.4,73c-5.8,3-12.6,1.2-19.1,1.1c-1,0-1.9,0-2.9,0.1c-5.3,0.4-10.2,2.6-14.9,5.2c-3.3,1.9-6.6,3.9-9.8,5.8
	c-2.1,1.2-4.1,2.5-6.2,3.8c-5.3,3.3-10.6,6.8-16.1,9.4c-5.1,2.3-10.4,3.8-15.9,3.5H3.4c-0.5,0-1.1-0.1-1.6-0.1
	c-0.5,4.2,2.8,7.6,5.1,11.2c1.1,1.6,1.7,3.4,1.9,5.3c0,0.7,0,1.4-0.2,2.1c-0.4,2.6-1.6,5.1-1.3,7.7c0.2,1.5,0.8,3,1.7,4.2
	c1.4,2,3.4,3.8,4.7,5.9c2,3.2,2.6,7.1,3.3,10.8c0.4,2.6,1.3,5.2,2.6,7.5c1.7,2.8,4.4,4.8,6.8,6.9c0.5,0.4,0.9,0.8,1.3,1.2
	c0.3,0.3,0.6,0.6,0.9,0.9c2.9,3,5,7.5,3.3,11.2c-0.1,0.1-0.1,0.2-0.2,0.4c0.1,0.1,0.3,0.2,0.4,0.3c2.2,1.1,5-0.7,6.8-2.5
	c0.9-0.9,1.8-1.9,2.6-2.8c2.2-2.5,4.3-5.1,6.4-7.7c0.6-0.7,1.1-1.4,1.7-2c2.2-2.6,4.9-4.7,7.9-6.4c1.5-0.8,3.2-1.5,4.8-2
	c2.5-0.8,5-1.4,7.5-2.2c3.4-1.1,6.7-2.5,9.9-4.1c5.5-3,10.8-6.3,15.9-9.9l0.8-0.5c1.7-1.1,3.3-2.4,4.7-3.8c0.3-0.3,0.5-0.6,0.7-0.9
	c1.2-1.6,2-3.5,3.2-5.1c1.2-1.7,2.7-3.2,4.5-4.3c4.9-3.3,11.4-4.6,17.3-6.4h0.1c10.2-3.1,19.6-8.7,27.2-16.2l4.4,10.7
	c-0.5,1.3-0.9,2.5-1.3,3.8c-1,3.2-1.8,6.5-3.7,9.2c-0.6,0.7-1.1,1.6-1.4,2.5c0,0.7-0.1,1.3-0.3,2c-0.3,0.5-0.8,0.9-1.1,1.5
	c-0.3,0.8,0.1,1.8-0.3,2.6c-0.2,0.3-0.5,0.6-0.8,0.8c-1.1,1-1.4,2.6-1.4,4.1c0.1,1.5,0,3-0.4,4.4c0.3-0.2,0.7-0.4,1-0.5
	c-0.1,0.3-0.1,0.5-0.1,0.8c0,0.8,0.1,1.5,0.3,2.2c0.5,1.7,1.3,3.2,2.3,4.7c0.8,1.2,1.6,2.4,2.5,3.6c1.6,1.8,3.4,3.3,5.3,4.7l8,6.2
	l-0.8,3.4c-1.8,7-3.5,14.1-3.6,21.4c0,3.4,0.2,6.9,0.6,10.3l0.7,7c0.6,5.6,1.1,11.3,1.7,16.9c0.4,3.6,0.8,7.2,2.1,10.5
	c1.9,5.1-0.2,10.9,0.6,16.3c0.6,4.2,1.9,8.6,0.6,12.7c-0.5,1.6-1.4,3.1-2.1,4.7c-1.6,3.9-1.8,8.3-1.9,12.5
	c-0.3,3.7-0.1,7.5,0.4,11.2c0.7,3.8,2.2,7.5,1.9,11.4c-0.4,5.5-4.4,10.2-4.9,15.7c-0.4,4.4,1.5,8.6,3.6,12.5
	c1.5,2.9-0.6,6.6-1.4,9.7c-1.6,6.2,1.1,12.6,4.3,18.1c0.1,0.2,0.2,0.3,0.4,0.4c0.4,0.1,0.7-0.2,0.9-0.5s0.3-0.4,0.5-0.6
	c0,0.2,0,0.5,0.1,0.7c0,0.5,0,1,0,1.6c0,2,0.4,4,1.1,5.9c0.1,0.4,0.3,0.7,0.4,1.1c0.2,0.5,0.5,0.9,0.8,1.3c0.9,0.8,2,1.3,3.2,1.3
	c2.6,0.3,5.3-0.3,8-0.5c2.8-0.2,5.6-0.1,8.4-0.2c0.2,0,0.4,0,0.6-0.1c0.2-0.1,0.3-0.3,0.4-0.6c0.3-1,0.4-2.1,0.1-3.1
	c-0.2-0.8-0.4-1.7-0.6-2.5c-0.4-1.3-0.7-2.6-1-4c-0.1-0.2-0.1-0.5-0.2-0.7l0.1,0.1c1.7-3.9,3.4-7.7,5.2-11.6c0.9-2,1.8-4.1,1.3-6.2
	c-0.3-1.5-1.3-2.8-1.9-4.1c-1.6-3.2-1.7-7-1.7-10.6l-0.1-20.5c4-5.1,6.4-11.1,8-17.4c2.4,8.9,2.5,18.2,0.5,27.1
	c-0.4,1.4-0.6,2.7-0.8,4.1c-0.3,5.7,4.1,10.5,5.3,16.1c0.1,0.4,0.1,0.9,0.1,1.3c-0.1,0.5-0.4,1.1-0.7,1.5c-2.1,3.9-1.9,8.6-1.6,13
	l0.9,0.2c0.2,0.4,0.6,0.7,1,1l0,0c0.4,0.2,0.8,0.4,1.2,0.5c1.5,0.4,3.1,0.6,4.6,0.7c2.2,0.2,4.5,0.4,6.8,0.6
	c0.9,0.1,1.8,0.1,2.7,0.1c1.3,0,2.5,0.1,3.7,0.3c1.4,0.3,2.7,0.7,4,1.2c5.8,1.9,12.3,3.1,17.9,0.6c1.3-0.5,2.4-1.3,3.3-2.3
	c1.4-1.6,1.4-4-0.2-5.5C251.9,347.3,251.6,347.1,251.3,347L251.3,347z M174.2,119.8c0.8,1.7,1.7,3.4,2.4,5.1
	c1.4,3.4,2.2,7.2,1.3,10.7c-0.3,1-1.9,1.8-1.9,2.9c0,0.1-0.1,0.2-0.1,0.2l-5.2-12.8C171.7,123.8,172.9,121.8,174.2,119.8z
	 M168.5,146.9c-1.1-1.5-2.1-3.1-2.8-4.9c-0.1-0.2-0.2-0.4-0.3-0.6c0.3-0.1,0.6-0.3,0.8-0.6c0.8-1,0.4-2.5,0.5-3.8
	c0.2-1.1,0.6-2.2,1.3-3.2l4.9,12c-0.5,1.3-1,2.6-1.4,3.9C170.3,148.9,169.4,147.9,168.5,146.9z"/>
<path class="st5" d="M185.7,39.3c-0.1,1.7,0.7,3.2,1.2,4.8c0.8,3.1,0.7,6.3-0.2,9.4c-0.9,3.2-2.4,6.6-1.3,9.7
	c0.3,0.7,0.7,1.4,0.9,2.1c1,3-0.8,6.2-2.9,8.7l7.9,5.5c1.2,1,2.5,1.6,4,1.9c1.5,0.2,3.2-0.6,3.5-2.1c0.1-0.5,0-1,0.1-1.5
	c0.2-1.3,1-2.5,2.2-3.1s2.5-0.8,3.8-0.7c4.8,0.3,9,3.4,13.3,5.5c2.9,1.3,5.9,2.3,9,3c1.7,0.5,3.7,0.9,5.3,0s2.3-2.9,2.2-4.7
	c-0.2-1.8-0.8-3.6-1.7-5.2s-1.4-3.4-1.5-5.2c0-2.7,1.5-5.1,2-7.7c0.7-3.7-0.7-7.5-2.4-10.9s-3.8-6.7-4.6-10.4
	c-0.2-1.1-0.5-2.2-0.9-3.3c-0.4-0.8-0.9-1.5-1.6-2.1c-3-2.9-7.2-4.3-11.3-4.6s-8.3,0.4-12.4,1.1c-1.6,0.2-3.1,0.6-4.6,1.1
	c-2.1,0.8-4.2,1.9-6,3.3C187.7,35,185.8,36.9,185.7,39.3z"/>
<g class="st7">
	<path d="M231.5,65.7c0,0.2,0,0.5,0,0.7c0.2-2.3,1.5-4.5,1.9-6.9c0.2-0.9,0.2-1.9,0.2-2.8c0,0.4-0.1,0.8-0.2,1.2
		C232.9,60.6,231.4,63.1,231.5,65.7z"/>
	<path d="M187.4,47.3c0.1-1.6-0.1-3.2-0.5-4.8c-0.5-1.2-0.9-2.5-1.2-3.7c0,0.2-0.1,0.3-0.1,0.5c-0.1,1.7,0.7,3.2,1.2,4.8
		C187.2,45.1,187.4,46.2,187.4,47.3z"/>
	<path d="M234.6,77.3c-0.1,1.4-0.9,2.7-2.1,3.5c-1.6,0.9-3.5,0.5-5.3,0c-3.1-0.7-6.1-1.7-9-3c-4.4-2-8.5-5.2-13.3-5.5
		c-1.3-0.1-2.6,0.1-3.8,0.7s-2,1.7-2.2,3.1c-0.1,0.5,0,1-0.1,1.5c-0.3,1.5-2,2.2-3.5,2.1c-1.5-0.3-2.8-1-4-1.9l-7.1-5
		c-0.3,0.4-0.5,0.7-0.8,1l7.9,5.5c1.2,1,2.5,1.6,4,1.9c1.5,0.2,3.2-0.6,3.5-2.1c0.1-0.5,0-1,0.1-1.5c0.2-1.3,1-2.5,2.2-3.1
		s2.5-0.8,3.8-0.7c4.8,0.3,9,3.4,13.3,5.5c2.9,1.3,5.9,2.3,9,3c1.7,0.5,3.7,0.9,5.3,0s2.3-2.9,2.2-4.7
		C234.7,77.6,234.7,77.5,234.6,77.3z"/>
	<path d="M186.3,65.2c0.1,0.3,0.2,0.6,0.2,1c0.1-0.9,0-1.7-0.2-2.6c-0.2-0.7-0.6-1.4-0.9-2.1c-0.2-0.5-0.3-1.1-0.4-1.6
		c-0.1,1.1,0,2.2,0.4,3.2C185.7,63.8,186.1,64.5,186.3,65.2z"/>
</g>
<path class="st5" d="M195.7,367.6c-0.1,0.2-0.2,0.4-0.4,0.6c-0.2,0.1-0.4,0.1-0.6,0.1c-2.8,0.1-5.7,0-8.5,0.2
	c-2.7,0.2-5.4,0.8-8,0.5c-1.8,0.1-3.3-1-4-2.6c-0.2-0.3-0.3-0.7-0.4-1.1c-0.7-1.9-1.1-3.9-1.1-5.9c0-0.5,0-1.1,0-1.6
	c0-0.6-0.1-1.2-0.2-1.7c-0.2-0.7-0.2-1.4,0.1-2c1.1-2.1,3.9-2.5,6-2.6c4.9-0.4,9.8,0,14.5,1.1c0.4,1.8,0.8,3.7,1.2,5.5
	c0.3,1.3,0.7,2.7,1.1,4c0.2,0.8,0.5,1.7,0.6,2.5C196.1,365.5,196,366.6,195.7,367.6z"/>
<path class="st8" d="M195.7,367.6c-0.1,0.2-0.2,0.4-0.4,0.6c-0.2,0.1-0.4,0.1-0.6,0.1c-2.8,0.1-5.7,0-8.5,0.2
	c-2.7,0.2-5.4,0.8-8,0.5c-1.8,0.1-3.3-1-4-2.6c-0.2-0.3-0.3-0.7-0.4-1.1h1c3.4,0,6.7-0.1,10.1-0.1c1,0,2,0,3-0.2
	c1-0.1,1.8-0.3,2.7-0.4c1.4-0.1,2.8-0.2,4.1-0.2h1.1C196,365.5,196,366.6,195.7,367.6z"/>
<path class="st5" d="M254.4,352.8c-0.9,1-2,1.8-3.3,2.3c-5.7,2.4-12.2,1.3-18.1-0.6c-1.3-0.5-2.7-0.9-4-1.2
	c-1.2-0.2-2.5-0.3-3.8-0.3c-0.9,0-1.8-0.1-2.7-0.1c-2.3-0.1-4.6-0.4-6.8-0.6c-1.6-0.1-3.1-0.4-4.7-0.7c-0.4-0.1-0.9-0.3-1.3-0.5l0,0
	c-0.7-0.3-1.1-1-1.1-1.7c0.1-1,1.1-1.6,2-2c8.2-3.5,17.1-5.1,26-6.3c0.9-0.2,1.8-0.4,2.6-0.8c1-0.4,1.1,0.3,1.6,1
	c0.2,0.3,0.5,0.7,0.8,0.9c1,0.9,2.1,1.5,3.3,1.9c2.2,0.8,4.5,1,6.6,1.8c0.7,0.2,1.3,0.5,1.9,0.9c1.9,1,2.6,3.3,1.5,5.2
	C254.7,352.3,254.5,352.6,254.4,352.8L254.4,352.8z"/>
<path class="st8" d="M254.4,352.8c-0.9,1-2,1.8-3.3,2.3c-5.7,2.4-12.2,1.3-18.1-0.6c-1.3-0.5-2.7-0.9-4-1.2
	c-1.2-0.2-2.5-0.3-3.8-0.3c-0.9,0-1.8-0.1-2.7-0.1c0.7-0.7,1.5-1.4,2.2-2c0.6-0.5,1.2-0.9,1.9-1.2c0.9-0.3,1.8-0.3,2.7-0.2
	c4.6,0.6,8.7,3.8,13.3,3.5c2.1-0.2,4.2-0.9,6.1-2c1.5-0.6,2.9-1.6,4-2.8c0.3-0.4,0.6-0.9,0.7-1.4c1.9,1,2.6,3.3,1.5,5.2
	C254.8,352.3,254.6,352.6,254.4,352.8L254.4,352.8z"/>
<path class="st9" d="M252.8,214.3c-0.8,1.6-1.8,3.3-3.5,3.8c-2.5,0.7-4.9-1.5-6-3.9c-1.5-3.5-1.8-7.3-0.8-11
	c0.5-1.8,1.1-3.6,1.5-5.5c0.3-1.6,0.5-3.1,0.5-4.7c0.2-2.4,0.2-4.7-0.2-7.1c-1.3-6.8-7.2-12-9.1-18.7c-1-3.4-0.9-6.9-0.9-10.4
	c0-0.9,0.1-1.8,0.3-2.6c0.1-0.2,0.1-0.5,0.2-0.7c1.3-2.9,5.2-3.3,7.9-5c1.5-0.9,4.9-3.9,6.2-1.2c0.3,0.6,0.5,1.2,0.6,1.9
	c0.5,2.4,0.3,5.3,0.4,7.6c0.5,8.7,2.7,17.4,1.6,26c-0.2,1.5-0.4,3-0.4,4.5c0.2,3.7,2.6,7,3.6,10.6
	C256.5,203.4,255.2,209.3,252.8,214.3z"/>
<path class="st4" d="M249.5,149.3c-0.6-0.2-1.2-0.2-1.8,0l-5.4,1.6c-1.9,0.5-3.7,1.2-5.5,2c-0.8,0.4-1.5,0.8-2.2,1.4
	c0.1-0.2,0.1-0.5,0.2-0.7c1.3-2.9,5.2-3.3,7.9-5c1.5-0.9,4.9-3.9,6.2-1.2C249.2,148,249.4,148.7,249.5,149.3z"/>
<path class="st5" d="M249.9,148.7c-0.7-0.4-1.5-0.5-2.2-0.2l-5.4,1.6c-1.9,0.5-3.7,1.2-5.5,2c-0.9,0.5-1.8,1-2.6,1.7
	c-2.5-4.4-3.2-9.6-3.7-14.6c-0.3-2.9-0.4-5.9-0.6-8.8c-0.1-2.1-0.1-4.2,0.1-6.3c0.3-2.4,1-4.7,1.4-7.1c0.3-1.4,0.4-2.8,0.5-4.2
	c0.2-3.1,0.1-6.2-0.4-9.2c-0.5-3.2-1.2-6.4-2.2-9.6c-0.5-1.4-1.1-2.8-1.7-4.2l-0.2-0.5c-1-2.6-1.8-5.2-2.5-7.9
	c-0.3-1.1-0.3-2.3-1.1-3c0.8-0.1,1.6-0.1,2.4-0.1c0.2,0,0.3,0,0.5,0c3.3,0.2,6.4,1.3,9.1,3.2c3.5,2.5,6.1,6,7.6,10
	c1.7,4.5,2,9.4,2.2,14.2c0.4,9.4,0.7,18.8,0.8,28.3c0,1.8,0.1,3.7,1.1,5.2c0.3,0.4,0.6,0.8,0.8,1.2c0.4,0.8,0.3,1.7,0.6,2.5
	c0.2,0.5,0.5,1,0.8,1.4C250.5,145.7,250.5,147.3,249.9,148.7z"/>
<path class="st9" d="M196.8,55.2c-0.8-0.3-1.6-0.5-2.4-0.8l1.7,0.1C196.4,54.7,196.6,54.9,196.8,55.2z"/>
<path class="st9" d="M229.5,83.9c-0.2,0.5-0.3,1.1-0.5,1.6c-0.4,1.3-0.9,2.6-1.5,3.8c-0.9,2-2.2,3.9-3.8,5.5c-0.5,0.6-1.2,1-1.9,1.2
	c-0.6,0.2-1.2,0.2-1.8,0.2c-2.1,0-4.3,0-6.4-0.1c-1.7,0-3.3-0.1-4.9-0.5c-1.8-0.5-3.5-1.2-5-2.3c-6-3.7-10.8-9.3-12.9-15.9
	c-0.3-0.8-0.4-1.9,0.1-2.5c0.6-0.5,1.3-0.7,2-0.7h0.1c1.7-0.2,3.4-0.8,4.9-1.7c1-0.5,1.7-1.3,2.2-2.3c0.3-1.2,0.3-2.4-0.1-3.5
	l-1.8-8c-0.2-1.3-0.7-2.5-1.4-3.6c0.5,0.2,1,0.4,1.6,0.5c4.9,1.3,10.3,0.5,15.1,2.3c1.8,0.7,3.7,1.9,4.3,3.8
	c0.9,3.2-2.2,6.5-1.3,9.7c0.6,2.2,2.8,3.4,4.8,4.4l1.3,0.7l3.7,1.9l0.5,0.3h0.1c1.2,0.6,2.4,1.3,2.8,2.6
	C229.9,82.2,229.8,83.1,229.5,83.9z"/>
<path class="st4" d="M239.2,102.6c-0.1,2-0.6,4-1.5,5.9c-1.6,3.2-2.5,6.8-2.5,10.4c-0.6,10.8-4.7,23.6,1.2,32.6
	c0.1,0.2,0.3,0.4,0.4,0.7c-0.9,0.5-1.8,1-2.6,1.7c-2.5-4.4-3.2-9.6-3.7-14.6c-0.3-2.9-0.4-5.9-0.6-8.8c-0.1-2.1-0.1-4.2,0.1-6.3
	c0.3-2.4,1-4.7,1.4-7.1c0.3-1.4,0.4-2.8,0.5-4.2c0.2-3.1,0.1-6.2-0.4-9.2c-0.5-3.2-1.2-6.4-2.2-9.6c-0.5-1.4-1.1-2.8-1.7-4.2
	l-0.2-0.5c-0.9,2-2.2,3.9-3.8,5.5c-0.5,0.6-1.2,1-1.9,1.2c-0.6,0.2-1.2,0.2-1.8,0.2c-2.1,0-4.3,0-6.4-0.1c-1.7,0-3.3-0.1-4.9-0.5
	c-1.8-0.5-3.5-1.2-5-2.3c-6-3.7-10.8-9.3-12.9-15.9c-0.3-0.8-0.4-1.9,0.1-2.5c0.6-0.5,1.3-0.7,2-0.7h0.1l7.2,8.9
	c0.8,0.9,1.5,2,2.1,3.1c0.1,0.4,0.3,0.7,0.6,0.9c0.2,0.1,0.5,0.2,0.8,0.1c6.7,0,15.7,0,22.4,0c0-1.2-0.3-2.4-1-3.4
	c-0.2,0-0.5,0.1-0.1-0.1c-0.4-2.6-1.2-5.1-2.5-7.4c-0.1-0.2-0.2-0.3-0.2-0.5c-0.5-0.8-0.9-1.7-1.2-2.6c0.9-0.3,1.8-0.3,2.6,0
	c1,0.4,1.5,1.5,1.9,2.5c0.4,0.8,0.7,1.6,1.1,2.5c0,0.1,0.1,0.2,0.1,0.3c0.7,1.6,1.1,3.4,1.3,5.2c0,0.7,0.2,1.5,0.7,1.7
	c0.1,0,0.2,0.1,0.3,0.1c1.1-0.4,2.4-0.1,3.3,0.8c0.8,0.9,1.3,2,1.6,3.1c0.3,1.2,0.6,2.3,1.1,3.4c1,2-0.5,2.8,1.3,4
	c0.9,0.5,1.6,1.1,2.2,2C239.2,100.1,239.4,101.4,239.2,102.6z"/>
<path class="st4" d="M192.9,352.6c0.4,1.8,0.8,3.7,1.2,5.5v0.1c-3.6-1.6-7.4-3.3-11.3-3.6c-3.7-0.3-7.7,0.7-10.2,3.4
	c0-0.6-0.1-1.2-0.2-1.7c-0.2-0.7-0.2-1.4,0.1-2c1.1-2.1,3.9-2.5,6-2.6C183.2,351.1,188.1,351.5,192.9,352.6z"/>
<path class="st4" d="M224.3,85.5C224.7,85.5,224.5,85.5,224.3,85.5C224.2,85.6,223.9,85.6,224.3,85.5z"/>
<path class="st4" d="M241.6,342.2c-3.6,2.3-6.9,4.9-10,7.7c-0.9,1-2,1.7-3.1,2.3c-1.2,0.4-2.5,0.5-3.8,0.4c-5-0.2-10-0.7-15-1.5l0,0
	c-0.7-0.3-1.1-1-1.1-1.7c0.1-1,1.1-1.6,2-2c8.2-3.5,17.1-5.1,26-6.3c0.9-0.2,1.8-0.4,2.6-0.8c1-0.4,1.1,0.3,1.6,1
	C241,341.6,241.3,341.9,241.6,342.2z"/>
<path class="st10" d="M183.1,76.3c1.2,1,2.5,1.9,3.7,2.9c3.2,2.7,5.2,6.5,7.2,10.2c-1.2,0.4-2.4,0.5-3.7,0.2
	c-0.6,3.5-0.5,7.2,0.3,10.7c-1.6,1.1-2.8,2.6-3.6,4.4c-0.6,1.8-1,3.7-1.2,5.6c-1.1,8.3-2.3,16.6-3.5,24.9c0,0.8-0.3,1.6-0.8,2.2
	c-0.2,0.2-0.4,0.4-0.6,0.6c-0.2,0.5-0.3,1.1-0.3,1.7s-0.4,1.3-1,1.2c-0.3-0.1-0.5-0.2-0.7-0.5c-0.6-0.6-1.1-1.3-1.6-2
	c-4.7,9-7,18.7-9.5,28.6c-1.8,7-3.6,14.1-3.6,21.4c0,3.4,0.2,6.9,0.6,10.3l0.7,7c0.6,5.6,1.1,11.3,1.7,16.9
	c0.4,3.6,0.8,7.2,2.1,10.5c1.9,5.1-0.2,10.9,0.6,16.3c0.6,4.2,1.9,8.6,0.6,12.7c-0.5,1.6-1.4,3.1-2.1,4.7c-1.6,3.9-1.8,8.3-2,12.5
	c-0.3,3.7-0.1,7.5,0.4,11.2c0.7,3.8,2.2,7.6,1.9,11.4c-0.4,5.5-4.5,10.2-5,15.7c-0.4,4.4,1.5,8.6,3.6,12.5c1.5,2.9-0.6,6.6-1.4,9.7
	c-1.6,6.2,1.1,12.6,4.3,18.1c0.1,0.2,0.2,0.3,0.4,0.4c0.4,0.1,0.7-0.2,1-0.5c2.4-3.1,6.8-4.3,10.8-4s7.7,2,11.3,3.6l5.2-11.5
	c0.9-2,1.8-4.1,1.3-6.2c-0.3-1.5-1.3-2.8-2-4.1c-1.6-3.2-1.7-7-1.7-10.6l-0.1-20.5c4-5.1,6.5-11.1,8-17.4c2.4,8.9,2.5,18.2,0.5,27.1
	c-0.4,1.4-0.6,2.7-0.8,4.1c-0.3,5.7,4.1,10.5,5.3,16.1c0.1,0.4,0.1,0.9,0.1,1.3c-0.1,0.5-0.4,1.1-0.7,1.5c-2.1,3.9-1.9,8.6-1.6,13
	c5.6,1,11.2,1.6,16.9,1.8c1.3,0.1,2.6,0,3.8-0.4c1.2-0.6,2.3-1.4,3.1-2.3c3.6-3.4,7.6-6.4,11.9-9c-2.4-3.9-5.7-7.2-9.7-9.6
	c1.3-1.9,4.2-1.7,5.9-3.3c0.9-0.8,1.4-1.9,1.6-3.1c0.6-3.1-0.2-6.4-0.9-9.4c-1.5-6-3.1-12.1-5.6-17.8c-1.1-2.3-2.1-4.8-3-7.2
	c-2.1-6.9-0.6-14.3-2.2-21.4c-0.5-2.2-1.3-4.6-0.8-6.8c0.9-3.5,4.8-5.5,5.6-9c3.1-12.3,3.6-25.1,5.4-37.6c0.4-2.4,0.6-4.8,0.6-7.3
	s-0.5-5.1-0.6-7.6c-0.7-10.1,2.5-20.3,1.7-30.4c-0.5-6.2-2.6-12.3-6-17.5c-5.9-9-1.8-21.8-1.2-32.6c0-3.6,0.9-7.1,2.5-10.4
	c0.8-1.9,1.3-3.9,1.5-5.9c0.2-1.3,0.1-2.6-0.4-3.7c-0.6-0.8-1.3-1.5-2.2-2c-1.9-1.2-0.3-2.1-1.3-4c-0.5-1.1-0.9-2.2-1.1-3.4
	c-0.3-1.2-0.8-2.2-1.6-3.1s-2.1-1.2-3.3-0.8c-0.8,0-1-1-1-1.8c-0.2-2.8-1.4-5.4-2.5-7.9c-0.4-1-0.9-2-1.9-2.5
	c-0.9-0.3-1.8-0.3-2.6,0c0.2,0.9,0.6,1.8,1.2,2.6c1.4,2.4,2.3,5.1,2.7,7.8c-0.8,0.2,0.8,0,0,0c0.7,1,1.1,2.2,1,3.4
	c-6.7,0-15.7,0-22.4,0c-0.3,0-0.5,0-0.8-0.1c-0.3-0.2-0.5-0.6-0.6-0.9c-0.5-1.1-1.2-2.2-2.1-3.1l-7.9-9.7c-0.2-0.3-0.4-0.5-0.7-0.6
	s-0.7-0.1-1,0C187.3,73.9,185.4,75,183.1,76.3z"/>
<path class="st4" d="M211.5,208.1c1.4,0,2.7,0.3,3.9,1s1.9,2,1.9,3.4c-0.1,1.5-1.2,2.7-2.1,4c-0.5,0.8-0.9,1.6-1.2,2.5
	c-0.1,0.2-0.1,0.4-0.1,0.6c0.1,0.3,0.4,0.5,0.7,0.6c2.1,0.9,3.4,3,3.5,5.2c-0.1,3.1-3.1,5.6-2.9,8.8c0.1,0.7,0.2,1.3,0.3,1.9
	c0.4,2.7,0,5.4-1.1,7.9c-1,2.5-2.3,4.9-3.3,7.3c-2.8,6.7-3.4,14.2-3.2,21.5c0.2,5-1.6,9.7-3.2,14.4c0.9-9.5,1.1-19.1,0.7-28.7
	c-0.1-2.6-0.4-5.1-0.3-7.7c0.2-4.1,2.5-7.9,3.1-12c0.3-2.3,0.1-4.7,0.2-7c0.1-4.8,1.4-9.5,1.5-14.3
	C210,214.3,209.7,210.8,211.5,208.1z"/>
<path class="st5" d="M178.2,78c-1.6,0.8-3.1,1.8-4.4,2.9c-1.4,1.4-2.6,3-3.5,4.8c-1.1,2-2.1,4.1-3,6.2c-1.1,2.7-2.1,5.8-1.3,8.6
	c0.7,2.6,2.7,4.6,4.1,6.9s2.2,5,3.2,7.5c1.4,3.4,3.3,6.5,4.7,9.9c1.4,3.4,2.2,7.2,1.3,10.7c-0.3,1-1.9,1.8-1.9,2.9
	c0,1.8,2.5,3.7,4.2,4.2c1.9,0.6,4-0.3,5.6-1.6c2.9-2.3,4.7-5.8,6-9.2c2.1-5.6,3.2-11.5,4.2-17.4c0.7-4.3,1.4-8.6,1.8-13
	c0.4-3.9,0.5-8-0.6-11.7c-1-3.5-2.8-6.6-5.4-9.1c-2.1-2-5.5-4.7-8.5-4.7C182.5,75.8,180.2,76.8,178.2,78z"/>
<path class="st9" d="M200.9,174c-0.2,1.1-0.8,2.1-1.8,2.7c-0.9,0.6-2,1-3,1.2c-2.1,0.6-4.4,1.2-6.6,0.6c-1.7-0.6-3.3-1.4-4.6-2.6
	l-24.1-18.5c-1.9-1.4-3.7-3-5.3-4.7c-0.9-1.1-1.8-2.3-2.5-3.6c-1-1.4-1.8-3-2.3-4.7c-0.2-0.7-0.3-1.5-0.3-2.2s0.2-1.4,0.5-2
	c0.6-1,1.8-1.2,2.8-1.4c3.4-0.9,7-1.2,10.5-0.8c0.6,0,1.2,0.4,1.4,1c0.5,1,1,2,1.5,3c0.7,1.7,1.7,3.4,2.8,4.9
	c1.1,1.2,2.3,2.4,3.5,3.4c2.6,2.4,4.6,5.3,7.4,7.5c3.1,2.5,7,4.1,10.6,5.9c3.6,1.9,7.1,4.3,8.9,7.9
	C200.7,172.3,200.9,173.2,200.9,174z"/>
<path class="st4" d="M228.8,45.1c0,10.9-8.8,19.7-19.7,19.7s-19.7-8.8-19.7-19.7s8.8-19.7,19.7-19.7c9.1,0,17,6.2,19.2,15.1
	C228.6,42,228.8,43.6,228.8,45.1z"/>
<path class="st9" d="M228.8,44.3c0,10.9-8.8,19.7-19.7,19.7s-19.7-8.8-19.7-19.7s8.8-19.7,19.7-19.7c9.1,0,17,6.2,19.2,15.1
	C228.6,41.2,228.8,42.8,228.8,44.3z"/>
<path class="st4" d="M167,142c-0.9,0.6-2.3,0.4-3.4,0.1c-4.4-1-9.3-1.7-13.4,0.2c0-0.7,0.2-1.4,0.5-2c0.6-1,1.8-1.2,2.8-1.4
	c3.4-0.9,7-1.2,10.5-0.8c0.6,0,1.2,0.4,1.4,1C166.1,139.9,166.5,140.9,167,142z"/>
<path class="st5" d="M158.7,115.1c-1,3.2-1.8,6.5-3.7,9.2c-0.6,0.7-1.1,1.5-1.4,2.5c0,0.7-0.1,1.3-0.3,2c-0.3,0.5-0.8,0.9-1.1,1.5
	c-0.3,0.8,0.1,1.8-0.4,2.6c-0.2,0.3-0.5,0.6-0.8,0.8c-1.1,1-1.4,2.6-1.4,4.1s0.1,3-0.4,4.4c4.2-2.5,9.6-1.8,14.3-0.7
	c1.3,0.3,3,0.5,3.8-0.5s0.4-2.5,0.5-3.8c0.2-1.7,1.3-3.1,2-4.6c0.8-1.7,1.1-3.6,1.7-5.4c1.3-3.8,4-6.8,5.7-10.4
	c0.6-1.2,1-2.6,1.1-3.9c-0.1-1.8-0.5-3.5-1.4-5.1c-1.7-3.7-3.6-7.2-5.9-10.5c-1-1.5-2.8-4.2-4.3-1.9c-1.3,1.9-2.1,4.4-3,6.5
	C161.9,106.1,160.2,110.5,158.7,115.1z"/>
<path class="st5" d="M230.6,84.2c-4.8,0.3-9.6-1.5-12.9-5.1c-0.3-0.3-0.5-0.6-0.6-0.9c0-0.5,0.1-0.9,0.4-1.3c1-1.5,2.6-2.4,3.4-4
	c0.8-1.6,0.5-3.4,0.6-5.1c0.1-3.1,1.4-6.2,1.5-9.3c0-0.8,0-1.6-0.2-2.3c-0.4-1.1-0.6-2.3-0.7-3.5c0.1-2.3,2.2-4.2,2.6-6.5
	c0.5-2.9-2-5.5-4.4-7.2c-1.9-1.3-3.9-2.3-6-3.1c-1.3-0.5-2.7-0.8-4-1c-2.6-0.3-5.2-0.1-7.6,0.9c-1,0.4-2,0.9-2.8,1.5
	c-0.5,0.3-1,0.8-1.3,1.3c-0.3,0.6-0.4,1.3-0.3,1.9c0,3.3,0.3,6.7-1.2,9.6c-0.8,1.5-2.2,2.8-2.8,4.4c-0.3,0.7-0.4,1.4-0.5,2.1
	s-0.1,1.5-0.1,2.2c0,4.2,0,8.6,2.1,12.3c0.8,1.1,1.4,2.2,2,3.4c0.6,1.2,0.5,2.7-0.2,3.8c-0.4,0.5-1,0.9-1.6,1.2
	c-3.2,1.5-6.9,1.7-10.2,0.4c3.9-3.7,5.1-9.4,3-14.4c-0.6-1-0.9-2.1-1.1-3.2c0.1-1,0.4-2,0.8-2.9c1.1-3,1.3-6.2,0.5-9.3
	c-0.5-1.9-1.3-3.7-1.5-5.7c-0.1-1.5-0.1-3,0.2-4.4c0.9-5.3,4.7-9.7,9.8-11.3c0.4-0.1,0.8-0.3,1.2-0.4c1.9-0.4,3.9-0.6,5.9-0.6
	c4.4-0.1,8.9-0.3,13.2,0.9c2.5,0.7,4.8,1.9,6.8,3.5c1.4,1.2,2.5,2.7,3.3,4.4c0.4,1,0.7,2,0.9,3c0.2,0.9,0.3,1.7,0.5,2.6
	c1,6.1,1.9,12.4,0.9,18.5c-0.4,2.4-1.1,4.8-1.4,7.2C227.8,73.2,229.2,78.7,230.6,84.2z"/>
<circle class="st11" cx="202.3" cy="90.6" r="1.5"/>
<circle class="st11" cx="227.3" cy="89.9" r="1.5"/>
<path class="st4" d="M202.3,15.7l-3.2-6c0.2-0.2,0.4-0.5,0.7-0.7c0.5-0.3,1-0.4,1.5-0.4L202.3,15.7z"/>
<path class="st4" d="M211.1,8.3l-3.6,5.3l-2.1-5.9c0.9-0.4,1.8-0.6,2.8-0.5C209.2,7.5,210.2,7.8,211.1,8.3z"/>
<g class="st7">
	<path d="M197.4,76.6c-0.4,0.5-1,0.9-1.6,1.2c-2.8,1.4-6.1,1.6-9.1,0.8c-0.4,0.4-0.7,0.8-1.1,1.2c3.3,1.3,7,1.2,10.2-0.4
		c0.6-0.3,1.2-0.7,1.6-1.2c0.6-0.8,0.7-1.8,0.5-2.8C197.8,75.9,197.6,76.3,197.4,76.6z"/>
	<path d="M188.7,49.9c0.3,1,0.4,2.1,0.5,3.2c0.1-1.6-0.1-3.2-0.5-4.8c-0.5-1.9-1.3-3.7-1.5-5.7c0-0.2,0-0.5,0-0.7c0,0.8,0,1.6,0,2.3
		C187.4,46.2,188.2,48,188.7,49.9z"/>
	<path d="M230,60.3c0.3-2.1,0.5-4.2,0.4-6.4c0,1.6-0.2,3.2-0.4,4.8c-0.4,2.4-1.1,4.8-1.4,7.2c-0.2,1.3-0.2,2.6-0.2,3.9
		c0-0.8,0.1-1.6,0.2-2.4C228.9,65.1,229.6,62.8,230,60.3z"/>
	<path d="M188.6,63.8c-0.4-0.8-0.8-1.6-1-2.5c-0.1,0.3-0.1,0.6-0.1,0.9c0.2,1.1,0.5,2.2,1.1,3.2c0.6,1.3,0.9,2.8,1,4.2
		C189.7,67.6,189.4,65.6,188.6,63.8z"/>
	<path d="M222.7,56c0.1,0.4,0.1,0.7,0.2,1.1c0-0.1,0-0.2,0-0.4c0-0.8,0-1.6-0.2-2.3c-0.2-0.8-0.5-1.7-0.6-2.5c0,0.2-0.1,0.4-0.1,0.6
		C222.1,53.7,222.4,54.9,222.7,56z"/>
	<path d="M217.7,77.5c-0.1-0.1-0.2-0.3-0.3-0.4c-0.2,0.3-0.3,0.7-0.2,1.1s0.3,0.7,0.6,0.9c3.3,3.6,8,5.4,12.9,5.1
		c-0.1-0.5-0.3-1-0.4-1.6C225.5,82.8,220.9,80.9,217.7,77.5z"/>
	<path d="M224.6,44.6C224.6,44.5,224.6,44.5,224.6,44.6c0.5-3-2-5.6-4.4-7.3c-1.9-1.3-3.9-2.3-6-3.1c-1.3-0.5-2.7-0.8-4-1
		c-2.6-0.3-5.2-0.1-7.6,0.9c-1,0.4-2,0.9-2.8,1.5c-0.5,0.3-1,0.8-1.3,1.3c-0.3,0.6-0.4,1.3-0.3,1.9c0,0.5,0,1.1,0,1.7v-0.1
		c0-0.7,0.1-1.3,0.3-1.9c0.3-0.5,0.7-1,1.3-1.3c0.9-0.6,1.8-1.1,2.8-1.5c2.4-0.9,5.1-1.2,7.6-0.9c1.4,0.2,2.7,0.5,4,1
		c2.1,0.8,4.2,1.8,6,3.1C222.2,40.3,224.2,42.2,224.6,44.6z"/>
	<path d="M196.8,48.4c-0.8,1.5-2.2,2.8-2.8,4.4c-0.3,0.7-0.4,1.4-0.5,2.1s-0.1,1.5-0.1,2.2s0,1.4,0,2c0-0.2,0-0.3,0-0.5
		c0-0.8,0-1.5,0.1-2.2s0.2-1.4,0.5-2.1c0.7-1.6,2-2.8,2.8-4.4c1.3-2.4,1.3-5.1,1.2-7.9C198.2,44.3,197.7,46.4,196.8,48.4z"/>
</g>
<path class="st4" d="M228.6,39.3c-0.1,0.2-0.2,0.3-0.4,0.4c-0.3,0.2-0.6,0.4-0.9,0.6c-2.3,1-2.2-2.3-3.4-3.4
	c-0.8-0.6-1.7-0.9-2.7-0.8c-2.3-0.1-4.7-0.2-7-0.3c-3.9-0.1-7.8-0.2-11.7-0.1c-1.9,0-3.7,0.1-5.6,0.2c-2.2,0.1-4.5,0.4-6.3,1.4
	c-0.6,0.3-1.2,0.8-1.7,1.3c-0.4,0.5-0.9,1.1-1.5,1.2c0.9-5.3,4.7-9.7,9.8-11.3c8.5-6.3,20.4-4.8,27.1,3.4c1.4,1.2,2.5,2.7,3.3,4.4
	C228.1,37.2,228.4,38.3,228.6,39.3z"/>
<path class="st10" d="M227.3,38.7c-2.3,1-2.2-2.3-3.4-3.4c-0.8-0.6-1.7-0.9-2.7-0.8c-8.1-0.5-16.2-0.6-24.3-0.2
	c-2.9,0.2-6,0.6-8,2.8c-0.5,0.5-1,1.2-1.8,1.2c-0.2-1.6-0.4-3.3-0.5-4.9c-0.1-0.6,0-1.2,0.1-1.8c0.2-0.7,0.7-1.3,0.9-1.9
	c0.2-0.9,0.3-1.7,0.2-2.6c0.1-6.6,3.6-12.7,9.3-16.1c0.7-0.3,1.4-0.8,1.9-1.3c0.2-0.2,0.4-0.5,0.7-0.7c0.5-0.3,1-0.4,1.5-0.4
	c0.4,0,0.8,0,1.1,0c1-0.1,2-0.4,3-0.8c0.9-0.4,1.8-0.6,2.8-0.5c1,0.2,2,0.5,2.9,1c0.4,0.2,0.9,0.4,1.3,0.5c0.7,0.2,1.5,0.2,2.2,0.3
	c1.2,0.3,2.3,0.8,3.3,1.5c1.2,0.6,2.3,1.5,3.3,2.4c1.1,1.2,2,2.7,2.6,4.2c1.1,2.1,1.9,4.3,2.4,6.6c0.6,3.3,0.3,6.9,1.9,9.9
	C229,35.5,229.9,37.6,227.3,38.7z"/>
<path class="st4" d="M186.9,36.2c0,0,16.5-15,41.1-2.6C228,33.6,200.3,27.3,186.9,36.2z"/>
<linearGradient id="SVGID_2_" gradientUnits="userSpaceOnUse" x1="5739.7202" y1="-347.17" x2="5932.3696" y2="-347.17" gradientTransform="matrix(-1 0 0 1 5934.1201 456.32)">
	<stop  offset="0" style="stop-color:#808080;stop-opacity:0.25"/>
	<stop  offset="0.54" style="stop-color:#808080;stop-opacity:0.12"/>
	<stop  offset="1" style="stop-color:#808080;stop-opacity:0.1"/>
</linearGradient>
<path class="st12" d="M6.9,113c-2.2-3.7-5.6-7.1-5.1-11.2c6.2,0.7,12.1-0.8,17.7-3.4c5.7-2.6,10.9-6,16.2-9.4
	c2.1-1.3,4.2-2.6,6.2-3.8c3.3-1.9,6.5-4,9.9-5.8c4.8-2.6,9.7-4.8,15-5.2c1-0.1,1.9-0.1,2.9-0.1C76.3,74.2,83.2,76,89,73l0.4-0.2
	c3.3-1.8,5.7-4.9,8.5-7.4c2-1.8,4.2-3.3,6.6-4.6c4.3-2.4,9-4.3,13.3-6.6c1.1-0.6,2.2-1.3,3.2-2l0.7-0.6l0.2-0.1
	c0.2-0.2,0.4-0.3,0.5-0.5l0.3-0.3l0.4-0.3l0.3-0.3l0.4-0.4v-0.1l0.7-0.7l0.3-0.3l0.5-0.5l0.3-0.3c0.5-0.5,1-1,1.5-1.5
	s1.2-1.2,1.8-1.7l0,0l0.6-0.5l0.2-0.1l0.5-0.4l0.2-0.2l0.5-0.4l0.2-0.2c0.2-0.2,0.5-0.3,0.7-0.5c0.2-0.1,0.4-0.3,0.7-0.4l-1.5-3.6
	l4.3-1.8L194.4,180l-4.3,1.8l-33.8-82.1l-0.2,0.2c-7.8,7.7-17.4,13.4-28,16.6H128c-5.9,1.8-12.5,3-17.4,6.3
	c-1.8,1.1-3.3,2.6-4.5,4.3c-1.2,1.7-2,3.5-3.2,5.1c-0.2,0.3-0.5,0.6-0.7,0.9c-1.4,1.4-3.1,2.7-4.8,3.8l-0.8,0.5
	c-5.1,3.6-10.5,6.9-16,9.9c-3.2,1.7-6.5,3-10,4.1c-2.5,0.8-5.1,1.4-7.6,2.2c-1.7,0.5-3.3,1.2-4.9,2c-4.2,2.2-7.5,5.7-10.5,9.4
	c-2.7,3.2-5.2,6.7-8.2,9.6c-1.8,1.8-4.7,3.6-6.9,2.5l-0.5-0.3c0.1-0.1,0.1-0.2,0.2-0.4c1.8-3.7-0.4-8.2-3.3-11.2
	c-0.3-0.3-0.6-0.6-0.9-0.9s-0.9-0.8-1.3-1.2c-2.5-2.1-5.1-4.1-6.9-6.9c-1.3-2.3-2.2-4.9-2.6-7.5c-0.8-3.8-1.3-7.6-3.4-10.8
	c-1.3-2.1-3.3-3.9-4.8-5.9c-0.9-1.2-1.5-2.6-1.8-4.1c-0.3-2.6,0.9-5.1,1.3-7.7c0.1-0.7,0.2-1.4,0.2-2.1C8.6,116.4,8,114.6,6.9,113z"
	/>
<rect x="159.3" y="33.1" transform="matrix(0.9245 -0.3811 0.3811 0.9245 -29.4958 69.8395)" class="st13" width="4.6" height="152.6"/>
<path class="st14" d="M15.2,137.7c2,3.1,2.5,6.9,3.3,10.6c0.4,2.6,1.3,5.1,2.6,7.4c1.7,2.7,4.3,4.7,6.8,6.8c0.4,0.4,0.9,0.8,1.3,1.2
	c0.3,0.3,0.6,0.6,0.9,0.9c2.9,2.9,5,7.4,3.3,11c-0.1,0.1-0.1,0.2-0.2,0.4c0.1,0.1,0.3,0.2,0.4,0.3c2.2,1.1,5-0.6,6.8-2.4
	c2.9-2.9,5.4-6.3,8-9.4c3-3.6,6.2-7,10.4-9.2c1.5-0.8,3.1-1.4,4.8-1.9c2.4-0.8,5-1.4,7.4-2.1c3.4-1.1,6.6-2.4,9.8-4.1
	c5.5-2.9,10.7-6.2,15.8-9.7l0.7-0.5c1.7-1.1,3.3-2.3,4.7-3.7c0.3-0.3,0.5-0.5,0.7-0.8c1.2-1.6,2-3.4,3.2-5.1s2.7-3.1,4.4-4.2
	c4.9-3.2,11.3-4.5,17.1-6.2h0.1c10.4-3.1,19.8-8.8,27.5-16.4c0.6-0.5,1.1-1.2,1.4-2c0.2-1.1-0.4-2.2-0.9-3.2c-0.7-1.2-1.3-2.3-2-3.5
	c-2.9-5.3-5.6-10.9-7.9-16.5c-0.5-1.2-1-2.5-1.5-3.7c-1.2-3.2-2.3-6.4-3.3-9.7c-0.3-1.1-0.6-2.2-0.9-3.3c-0.1-0.2-0.1-0.4-0.2-0.7
	c-1.3-5.3-3.1-17.8-8.5-14c-1.6,1.2-3.1,2.5-4.5,3.9c-1.1,1.1-2.1,2.2-3.2,3.3c-0.9,0.9-1.8,1.7-2.8,2.5s-2.1,1.4-3.2,2
	c-4.3,2.2-8.9,4.1-13.1,6.4c-2.3,1.3-4.5,2.8-6.5,4.5c-2.8,2.5-5.1,5.5-8.4,7.3l-0.4,0.2c-5.7,2.9-12.5,1.2-19,1c-1,0-1.9,0-2.9,0.1
	c-5.3,0.4-10.1,2.5-14.8,5.1c-3.3,1.8-6.5,3.9-9.7,5.7c-2,1.2-4.1,2.4-6.1,3.7c-5.2,3.3-10.5,6.7-15.9,9.2c-5.6,2.5-11.3,4-17.4,3.4
	c-0.5,4.1,2.8,7.4,5,11c1.1,1.6,1.7,3.4,1.9,5.2c0,0.7,0,1.4-0.2,2.1c-0.4,2.5-1.6,5-1.3,7.6c0.2,1.5,0.8,2.8,1.7,4
	C12,133.9,13.9,135.6,15.2,137.7z"/>
<path class="st9" d="M177.3,154.3c0,0,7,6.1,14.1,9.3s2.4,14.9,2.4,14.9s-7.5,1.7-12.8-5.6C175.7,165.6,177.3,154.3,177.3,154.3z"/>
<path class="st15" d="M754.5,258c0,0-18.5,24.3-33.8,24.5s-24.3,10.2-17.1,16.5c7.3,6.3,86.7-3.6,86.7-3.6s0.7-29.9-6.1-34.3
	C777.3,256.8,754.5,258,754.5,258z"/>
<path class="st15" d="M953.3,287.2c0,0,2.8,19.3-5.9,32.4s15.8,18.2,15.8,18.2s17.8,5,19.1-12.6s0.9-31.1-0.8-32.5
	s-3.1-11.3-3.1-11.3L953.3,287.2z"/>
<path class="st2" d="M673.4,323.6c0,0-0.6-62.3,61-87.7l14.4-27.3l6.9-16.7c5-12.3,15.8-21.4,28.8-24.3l11.1-2.5l3.4-14.5
	c3.7-15.8,16.5-27.9,32.5-30.7c6.8-1.3,13.6-1.9,20.5-1.9c6.2,0.1,11.9,3.4,15,8.8l0,0c0,0,58.4-0.6,61,31.2c0,0,5.8,29.2,14.3,34.4
	c0,0,14.3-3.2,28.6,17.5l15.6,53.2c0,0,40.9,38.3,28.6,73.3c0,0-16.9,24-102.6,7.8c0,0-91.5,27.9-140.3-10.4
	C772.1,334,691,349.5,673.4,323.6z"/>
<path class="st16" d="M714.3,313.8c0,0,13-18.2,12.3-31.2s3.1-44.6,3.1-44.6"/>
<path class="st16" d="M761.7,265.1c0,0,13-24,11.7-37c0,0,13.6-24.7,24-22.7"/>
<path class="st16" d="M833.1,197c0,0,35.7-13,37.7-23.4"/>
<path class="st16" d="M846.1,226.8c0,0,37.7-16.9,37.7-21.4h18.8c0,0,27.3,35.7,24,51.3"/>
<path class="st16" d="M890.3,252.8c0,0-36.4-2.6-49.3,7.8c-13,10.4-36.4,15.6-36.4,15.6s-13.6,29.2-18.8,34.4S772.2,334,772.2,334"
	/>
<path class="st16" d="M890.3,287.2c0,0,3.9,13.6,9.1,21.4s13,35.7,13,35.7"/>
<path class="st16" d="M951.3,326.8c0,0,8.2,22.9,15.5,23.2"/>
<path class="st16" d="M897.3,228.4c0,0,21.4,5.8,30.4,19.8c9,14,36.3,26.7,36.3,26.7"/>
<path class="st16" d="M906.5,159.3c0,0,0,29.9,8.4,29.9s27.3,3.2,27.3,3.2"/>
<path class="st16" d="M865.1,123.9c0,0-2.2,51.6-13.2,64.9"/>
<g class="st17">
	<path d="M985.1,262.5l-15.6-53.2c-14.3-20.8-28.6-17.5-28.6-17.5c-8.4-5.2-14.3-34.4-14.3-34.4c-2.6-31.8-61-31.2-61-31.2l0,0
		c-3.1-5.4-8.8-8.7-15-8.8c-2.8,0-5.6,0.1-8.4,0.3c1.6,0.2,3.1,0.4,4.6,0.7l4.5,7.8c0,0,58.4-0.7,61,31.2c0,0,5.8,29.2,14.3,34.4
		c0,0,14.3-3.3,28.6,17.5l15.6,53.3c0,0,40.9,38.3,28.6,73.3c0,0-8.3,11.9-43,13.3c46.7,1.7,57.3-13.3,57.3-13.3
		C1026,300.8,985.1,262.5,985.1,262.5z"/>
	<path d="M756.5,333.3c-13.7,2.5-27.6,4-41.6,4.6c16.3,0.6,33.2-1.1,44.1-2.6C758.2,334.6,757.3,333.9,756.5,333.3z"/>
	<path d="M896.8,343.7c-20,5.6-40.6,8.9-61.3,9.7c29.9,1.1,58.3-5.2,70-8.2C902.6,344.8,899.7,344.2,896.8,343.7z"/>
</g>
<path class="st2" d="M307.5,342.9c0,0,17.9-0.5,23.2-4.4c5.4-3.8,27.5-8.4,28.8-2.3s26.8,30.6,6.7,30.7c-20.2,0.2-46.8-3.1-52.2-6.4
	C308.7,357.3,307.5,342.9,307.5,342.9z"/>
<path class="st18" d="M366.6,364.8c-20.2,0.2-46.8-3.1-52.2-6.4c-4.1-2.5-5.7-11.4-6.3-15.6h-0.6c0,0,1.1,14.4,6.5,17.7
	s32.1,6.6,52.2,6.4c5.8,0,7.8-2.1,7.7-5.2C373.2,363.6,370.9,364.8,366.6,364.8z"/>
<path class="st2" d="M646.5,331.5c0,0-21-4.2-26.6-9.8s-30.8-15.4-33.6-8.4s-37.8,30.8-14,35.1s56.1,5.6,63.1,2.8
	C642.3,348.3,646.5,331.5,646.5,331.5z"/>
<path class="st19" d="M572.2,345.7c23.8,4.2,56.1,5.6,63.1,2.8c5.3-2.1,9-12.4,10.5-17.2l0.7,0.2c0,0-4.2,16.8-11.2,19.6
	s-39.3,1.4-63.1-2.8c-6.9-1.2-8.8-4.1-8.1-7.7C564.7,343,567.1,344.8,572.2,345.7z"/>
<path class="st20" d="M616.3,43.6h-5c1.9,0,3.5-1.6,3.5-3.5s-1.6-3.5-3.5-3.5h-40.6c-1.9,0-3.5,1.6-3.5,3.5s1.6,3.5,3.5,3.5l0,0h5
	c-1.9,0.1-3.4,1.7-3.3,3.7c0.1,1.8,1.5,3.2,3.3,3.3h-7c-1.9,0-3.5,1.6-3.5,3.5s1.6,3.5,3.5,3.5h40.6c1.9,0,3.5-1.6,3.5-3.5
	s-1.6-3.5-3.5-3.5h7c1.9,0.1,3.6-1.4,3.7-3.3c0.1-1.9-1.4-3.6-3.3-3.7C616.5,43.6,616.4,43.6,616.3,43.6z"/>
<path class="st20" d="M734.4,108.1h-5c1.9-0.1,3.4-1.7,3.3-3.7c-0.1-1.8-1.5-3.2-3.3-3.3h-40.6c-1.9-0.1-3.6,1.4-3.7,3.3
	c-0.1,1.9,1.4,3.6,3.3,3.7c0.1,0,0.2,0,0.3,0h5c-1.9,0.1-3.4,1.7-3.3,3.7c0.1,1.8,1.5,3.2,3.3,3.3h-7c-1.9,0-3.5,1.6-3.5,3.5
	s1.6,3.5,3.5,3.5l0,0h40.5c1.9,0,3.5-1.6,3.5-3.5s-1.6-3.5-3.5-3.5h7.1c1.9,0.1,3.6-1.4,3.7-3.3s-1.4-3.6-3.3-3.7
	C734.6,108.1,734.5,108.1,734.4,108.1z"/>
<path class="st20" d="M490.2,85.6h-5c1.9,0.1,3.6-1.4,3.7-3.3s-1.4-3.6-3.3-3.7c-0.1,0-0.2,0-0.3,0h-40.6c-1.9-0.1-3.6,1.4-3.7,3.3
	s1.4,3.6,3.3,3.7c0.1,0,0.2,0,0.3,0h5c-1.9-0.1-3.6,1.4-3.7,3.3s1.4,3.6,3.3,3.7c0.1,0,0.2,0,0.3,0h-7c-1.9,0-3.5,1.6-3.5,3.5
	s1.6,3.5,3.5,3.5h40.6c1.9,0,3.5-1.6,3.5-3.5s-1.6-3.5-3.5-3.5h7c1.9,0.1,3.6-1.4,3.7-3.3s-1.4-3.6-3.3-3.7
	C490.4,85.6,490.3,85.6,490.2,85.6L490.2,85.6z"/>
</svg>
