<?xml version="1.0" encoding="utf-8"?>
<!-- Generator: Adobe Illustrator 23.0.2, SVG Export Plug-In . SVG Version: 6.00 Build 0)  -->
<svg version="1.1" id="Layer_1" xmlns="http://www.w3.org/2000/svg" xmlns:xlink="http://www.w3.org/1999/xlink" x="0px" y="0px"
	 viewBox="0 0 517 517" style="enable-background:new 0 0 517 517;" xml:space="preserve">
<style type="text/css">
	.st0{fill:#79C6C1;enable-background:new    ;}
	.st1{fill:#6EB7B0;enable-background:new    ;}
	.st2{fill:#A8A8A8;}
	.st3{opacity:0.1;fill:#FFFFFF;enable-background:new    ;}
	.st4{opacity:0.1;enable-background:new    ;}
	.st5{fill:#464353;}
	.st6{fill:url(#SVGID_1_);}
	.st7{opacity:0.1;}
	.st8{opacity:6.000000e-02;enable-background:new    ;}
	.st9{fill:#FBBEBE;}
	.st10{fill:#E7685D;}
	.st11{fill:#FFFFFF;}
	.st12{fill:url(#SVGID_2_);}
	.st13{fill:#D6D8E1;}
	.st14{fill:#D35057;}
	.st15{opacity:0.2;enable-background:new    ;}
</style>
<title>warning</title>
<ellipse class="st0" cx="256" cy="265.4" rx="256.5" ry="246.6"/>
<ellipse class="st1" cx="164.2" cy="448.8" rx="152.8" ry="23.6"/>
<ellipse class="st1" cx="405.6" cy="483.2" rx="53.3" ry="11"/>
<ellipse class="st1" cx="389.2" cy="403.2" rx="86.7" ry="14.7"/>
<path class="st2" d="M53.2,375.2c-9.3,17.9-8.1,39.5,2.9,56.3c1.8,2.7,3.5,4.6,4.7,5.1c6.2,2.5,18.8,8.5,18.8,8.5l30.2-11.8
	c0,0,4.9-26,9.6-48.3l0,0c3.1-15.2,6.2-28.7,7.5-31c3.1-5.8,0-69.2,0-69.2s-30.2-2-38.5,21.3l-3.7,7.1L53.2,375.2z"/>
<path class="st3" d="M93.3,382.2c18.4,21.1,26.1,2.9,26.1,2.9l0,0l0,0c3.1-15.2,6.2-28.7,7.5-31c3.1-5.8,0-69.2,0-69.2
	s-30.2-2-38.5,21.3l-3.7,7.1C82.4,331.8,80,367,93.3,382.2z"/>
<path class="st2" d="M97.3,440.8l106.6-12.3L223,303.4l-14.4-32.6c-6.1-13.8-14.5-26.5-24.9-37.6c-7.2-7.6-15.9-14.9-25.2-18.6
	c-1.2-0.6-2.6-0.9-3.9-1.3c-3-0.9-6.4-0.3-8.9,1.6c-13.2,9.4-17.8,48.9-19.4,68c-0.7,7.8-1.7,15.6-3.1,23.4L97.3,440.8z"/>
<path class="st3" d="M168.3,301.9l-22.2,54.6c11.6-8.5,28.9-54.8,28.9-54.8l15.5,52.8l-12.3-55.7c1.8-12,2.3-24.3,1.6-36.6
	c-1-13.9-14-36.5-21.2-47.7c-1.2-0.6-2.6-0.9-3.9-1.3c-3-0.9-6.4-0.3-8.9,1.6c5.6,11.3,19.6,39.4,23.9,47.7
	C175,273.1,168.3,301.9,168.3,301.9z"/>
<path class="st2" d="M186.4,445.1h57.9c9.7,0,17.5-7.8,17.5-17.5c0-0.3,0-0.6,0-0.9c-1.2-24.9-4.6-69-12.3-97.1
	c-4.1-15.2-9-23.1-13.5-27c-2.1-2-4.8-3.2-7.7-3.6c-2.2-0.2-4.3,0.3-6.2,1.6c-10.7,10.3-23.3,64.4-23.3,64.4L186.4,445.1z"/>
<path class="st3" d="M239.8,397c2.3,6.6,3.3,14.3,0,21.6l-12.9,6.4c0,0-34.7-14.7-30.4-44.8c0,0,1.1-6.2,13-5.7
	C223.3,375.2,235.2,384.1,239.8,397z"/>
<path class="st3" d="M226.1,317.9c-0.4-10.6,5.4-14.3,10-15.4c-2.1-2-4.8-3.2-7.7-3.6c-3.3,2.8-5.7,6.5-6.7,10.7l-12,58.9
	C209.7,368.5,226.7,335.6,226.1,317.9z"/>
<path class="st2" d="M171.2,364.5l28.7,39.1l5,32.3l-18.4,9.1L160,451c-2.6,0.6-5.2,0.8-7.8,0.6l-72.5-6.4l9.8-22.9l34-47.8
	L171.2,364.5z"/>
<path class="st3" d="M160.1,351c0,0,19.5,1.3,12.3,34.9c-7.4,33.6-82.8,36.2-82.8,36.2s16.1-28.4,40.7-48.8c2.8-2.2,5.5-4.7,8-7.2
	C143.9,360.6,154.7,350.5,160.1,351z"/>
<path class="st4" d="M177.7,376.3c0,0,26.5,24.1,24,61.2"/>
<path class="st4" d="M222.3,300.4c0,0-27.8,37-30.9,93.9"/>
<path class="st4" d="M126.9,284.8c0,0,13.5,61.1-20.2,107.1"/>
<rect x="375.4" y="313.3" class="st0" width="33" height="77.7"/>
<path class="st5" d="M326.2,402.9h130c4,0,7.3-3.3,7.2-7.3c0-1.2-0.3-2.4-0.9-3.4l-65-120.7c-1.9-3.5-6.3-4.9-9.9-3
	c-1.3,0.7-2.3,1.7-3,3l-65,120.7c-1.9,3.5-0.6,8,3,9.9C323.8,402.6,325,402.9,326.2,402.9z M399.5,380.9H383v-16.5h16.5V380.9z
	 M399.5,353.3H383v-33.1h16.5V353.3z"/>
<path class="st4" d="M326.2,402.9h130c4,0,7.3-3.3,7.2-7.3c0-1.2-0.3-2.4-0.9-3.4l-65-120.7c-1.9-3.5-6.3-4.9-9.9-3
	c-1.3,0.7-2.3,1.7-3,3l-65,120.7c-1.9,3.5-0.6,8,3,9.9C323.8,402.6,325,402.9,326.2,402.9z M399.5,380.9H383v-16.5h16.5V380.9z
	 M399.5,353.3H383v-33.1h16.5V353.3z"/>
<path class="st5" d="M326.2,406.9h130c4,0,7.3-3.3,7.2-7.3c0-1.2-0.3-2.4-0.9-3.4l-65-120.7c-1.9-3.5-6.3-4.9-9.9-3
	c-1.3,0.7-2.3,1.7-3,3l-65,120.7c-1.9,3.5-0.6,8,3,9.9C323.8,406.6,325,406.9,326.2,406.9z M399.5,384.8H383v-16.5h16.5V384.8z
	 M399.5,357.3H383v-33.1h16.5V357.3z"/>
<linearGradient id="SVGID_1_" gradientUnits="userSpaceOnUse" x1="97.9756" y1="-172.4077" x2="378.6373" y2="-172.4077" gradientTransform="matrix(1 0 0 1 -83.88 438.32)">
	<stop  offset="0" style="stop-color:#808080;stop-opacity:0.25"/>
	<stop  offset="0.54" style="stop-color:#808080;stop-opacity:0.12"/>
	<stop  offset="1" style="stop-color:#808080;stop-opacity:0.1"/>
</linearGradient>
<path class="st6" d="M292.3,443c-0.7-0.4-1.3-0.8-2-1c-2.3-0.9-4.9-1.1-7.4-2c-1.3-0.4-2.6-1.2-3.7-2.1c-0.2-0.2-0.3-0.3-0.6-0.6
	c0.9-0.6,1.7-1.1,2.6-1.7c-2.7-4.3-6.4-8-10.7-10.7c1.4-2.1,4.7-1.9,6.6-3.7c1-0.9,1.6-2.1,1.8-3.5c0.7-3.5-0.2-7.1-1-10.6
	c-1.7-6.7-3.3-13.5-6.1-19.8c-1.2-2.6-2.3-5.4-3.3-8c-2.3-7.7-0.7-15.9-2.5-23.9c-0.6-2.6-1.4-5.1-0.8-7.6c1-3.9,5.2-6.1,6.2-10
	c3.5-13.7,4-28,5.9-42c0.4-2.7,0.7-5.4,0.7-8c0-2.8-0.6-5.7-0.7-8.5c-0.6-7.9,1-15.8,1.7-23.7c1.6,2.5,2.6,5.1,3.2,7.9
	c0.3,2.6,0.4,5.2,0.2,7.9c-0.1,1.8-0.2,3.6-0.6,5.2c-0.4,2-1.2,4-1.7,6.1c-1.1,4-0.8,8.4,0.9,12.3c1.2,2.7,3.9,5.1,6.6,4.3
	c1.9-0.6,3-2.5,3.9-4.2c2.7-5.7,4.1-12.2,2.3-18.2c-1.2-4-3.8-7.6-4-11.8c0-1.7,0.1-3.3,0.4-5c1.1-9.7-1.3-19.4-1.8-29.1
	c-0.1-2.6,0.1-5.8-0.4-8.5c-0.1-0.3-0.1-0.7-0.2-1c0.2,0.1,0.4,0.1,0.7,0.3c0.7-1.6,0.7-3.5-0.1-5c-0.3-0.4-0.6-1-0.8-1.6
	c-0.3-0.9-0.2-1.9-0.7-2.8c-0.2-0.4-0.6-0.9-0.9-1.3c-1.1-1.7-1.2-3.8-1.2-5.8c-0.1-10.5-0.4-21.1-0.9-31.5
	c-0.2-5.4-0.6-10.8-2.5-15.8c-1.6-4.5-4.6-8.2-8.4-11c-0.6-0.4-1.2-0.8-1.9-1.2c0.3-0.8,0.6-1.6,0.6-2.5c0-0.2,0-0.6,0-0.8v-0.4l0,0
	c-0.3-1.9-0.9-3.7-1.8-5.4c-1-1.8-1.6-3.8-1.7-5.8c0-0.3,0-0.8,0.1-1.1l0,0c0.3-2.6,1.7-4.9,2.1-7.5c0.1-0.8,0.2-1.6,0.2-2.5
	c0-0.2,0-0.6,0-0.9l0,0c-0.3-3.1-1.3-6.2-2.9-8.9c-0.4-0.9-0.9-1.8-1.3-2.7c-0.2-1.7-0.4-3.3-0.8-5c-0.1-1-0.3-1.9-0.4-2.9
	c-0.1-0.4-0.2-0.9-0.3-1.3c1.3-1.3,0.6-3.2-0.3-4.9c-1.7-3.3-1.3-7.4-2-11c-0.6-2.6-1.4-5-2.6-7.4c-0.7-1.7-1.7-3.2-2.8-4.7
	c-1.1-1-2.3-1.9-3.7-2.7c-1.1-0.8-2.3-1.3-3.7-1.7c-0.8-0.1-1.7-0.1-2.5-0.3c-0.6-0.1-1-0.3-1.4-0.6c-1-0.6-2.1-1-3.2-1.1
	c-1,0-2.1,0.1-3.1,0.6c-1,0.4-2.1,0.8-3.3,0.9c-0.4,0-0.8,0-1.2,0c-0.6,0-1.2,0.1-1.7,0.4c-0.2,0.2-0.6,0.4-0.8,0.8
	c-0.7,0.6-1.3,1.1-2.1,1.4c-6.4,3.8-10.4,10.6-10.4,18.1c0.1,1,0,2-0.2,2.9c-0.2,0.8-0.8,1.4-1,2.1c-0.1,0.7-0.2,1.3-0.1,2
	c0.1,1,0.2,2.1,0.3,3.1l0,0c-0.7,0.9-1.1,1.8-1.3,2.9l0,0c0,0.2-0.1,0.3-0.1,0.6v0.1l0,0c-0.1,1.9,0.8,3.6,1.3,5.4
	c0.9,3.5,0.8,7-0.2,10.5c-0.7,2.3-1.6,4.8-1.8,7.1l0,0v0.1c-0.1,1.2,0,2.5,0.4,3.6c0.3,0.8,0.8,1.6,1,2.3c0.9,2.9-0.4,5.9-2.2,8.5
	l0,0c-0.3,0.4-0.6,0.8-0.9,1.1l0,0l0,0l1.9,1.3c-0.6,0.3-1.1,0.6-1.7,0.9c-2.1,0.3-4.1,1.1-6,2.2c-1.8,0.9-3.3,2-4.9,3.2
	c-1.6,1.6-2.9,3.3-3.9,5.4c-1.2,2.2-2.3,4.6-3.2,6.9c-0.9,1.9-1.4,3.9-1.7,6c-0.8,1.7-1.4,3.3-2.1,4.9c-0.3,0.8-0.7,1.7-1,2.5
	l-30.5-74.9l-4.8,2l0.3,0.9l-1,0.4l1.3,3.2c-0.2,0.1-0.4,0.2-0.6,0.4l-0.2,0.2l-0.4,0.4l-0.2,0.2l-0.6,0.4l-0.2,0.1l-0.7,0.6l0,0
	c-0.7,0.6-1.3,1.2-2,1.9l-1.7,1.7l-0.3,0.3l-0.6,0.6l-0.3,0.3l-0.8,0.8l0,0l-0.4,0.4l-0.3,0.3c-0.1,0.1-0.2,0.2-0.4,0.3l-0.3,0.3
	l-0.6,0.6l-0.4,0.3l-0.8,0.7c-1.1,0.9-2.3,1.7-3.6,2.2c-4.9,2.6-10,4.6-14.7,7.4c-2.6,1.4-5,3.1-7.4,5.1c-3.1,2.8-5.8,6.2-9.5,8.2
	l-0.4,0.2c-6.5,3.3-14,1.3-21.3,1.2c-1.1,0-2.1,0-3.2,0.1c-5.9,0.4-11.4,2.9-16.6,5.8c-3.7,2.1-7.4,4.3-10.9,6.5
	c-2.3,1.3-4.6,2.8-6.9,4.2c-5.9,3.7-11.8,7.6-17.9,10.5c-5.7,2.6-11.6,4.2-17.7,3.9h-0.1c-0.6,0-1.2-0.1-1.8-0.1
	c-0.6,4.7,3.1,8.5,5.7,12.5c1.2,1.8,1.9,3.8,2.1,5.9c0,0.8,0,1.6-0.2,2.3c-0.4,2.9-1.8,5.7-1.4,8.6c0.2,1.7,0.9,3.3,1.9,4.7
	c1.6,2.2,3.8,4.2,5.2,6.6c2.2,3.6,2.9,7.9,3.7,12c0.4,2.9,1.4,5.8,2.9,8.4c1.9,3.1,4.9,5.4,7.6,7.7c0.6,0.4,1,0.9,1.4,1.3
	c0.3,0.3,0.7,0.7,1,1c3.2,3.3,5.6,8.4,3.7,12.5c-0.1,0.1-0.1,0.2-0.2,0.4c0.1,0.1,0.3,0.2,0.4,0.3c2.5,1.2,5.6-0.8,7.6-2.8
	c1-1,2-2.1,2.9-3.1c2.5-2.8,4.8-5.7,7.1-8.6c0.7-0.8,1.2-1.6,1.9-2.2c2.5-2.9,5.5-5.2,8.8-7.1c1.7-0.9,3.6-1.7,5.4-2.2
	c2.8-0.9,5.6-1.6,8.4-2.5c3.8-1.2,7.5-2.8,11-4.6c6.1-3.3,12-7,17.7-11l0.9-0.6c1.9-1.2,3.7-2.7,5.2-4.2c0.3-0.3,0.6-0.7,0.8-1
	c1.3-1.8,2.2-3.9,3.6-5.7c1.3-1.9,3-3.6,5-4.8c5.5-3.7,12.7-5.1,19.3-7.1h0.1c11.4-3.5,21.9-9.7,30.3-18.1l4.9,11.9
	c-0.6,1.4-1,2.8-1.4,4.2c-1.1,3.6-2,7.2-4.1,10.3c-0.7,0.8-1.2,1.8-1.6,2.8c0,0.8-0.1,1.4-0.3,2.2c-0.3,0.6-0.9,1-1.2,1.7
	c-0.3,0.9,0.1,2-0.3,2.9c-0.2,0.3-0.6,0.7-0.9,0.9c-1.2,1.1-1.6,2.9-1.6,4.6c0.1,1.7,0,3.3-0.4,4.9c0.3-0.2,0.8-0.4,1.1-0.6
	c-0.1,0.3-0.1,0.6-0.1,0.9c0,0.9,0.1,1.7,0.3,2.5c0.6,1.9,1.4,3.6,2.6,5.2c0.9,1.3,1.8,2.7,2.8,4c1.8,2,3.8,3.7,5.9,5.2l8.9,6.9
	l-0.9,3.8c-2,7.8-3.9,15.7-4,23.9c0,3.8,0.2,7.7,0.7,11.5l0.8,7.8c0.7,6.2,1.2,12.6,1.9,18.8c0.4,4,0.9,8,2.3,11.7
	c2.1,5.7-0.2,12.2,0.7,18.2c0.7,4.7,2.1,9.6,0.7,14.2c-0.6,1.8-1.6,3.5-2.3,5.2c-1.8,4.3-2,9.3-2.1,13.9c-0.3,4.1-0.1,8.4,0.4,12.5
	c0.8,4.2,2.5,8.4,2.1,12.7c-0.4,6.1-4.9,11.4-5.5,17.5c-0.4,4.9,1.7,9.6,4,13.9c1.7,3.2-0.7,7.4-1.6,10.8c-1.8,6.9,1.2,14,4.8,20.2
	c0.1,0.2,0.2,0.3,0.4,0.4c0.4,0.1,0.8-0.2,1-0.6c0.2-0.3,0.3-0.4,0.6-0.7c0,0.2,0,0.6,0.1,0.8c0,0.6,0,1.1,0,1.8
	c0,2.2,0.4,4.5,1.2,6.6c0.1,0.4,0.3,0.8,0.4,1.2c0.2,0.6,0.6,1,0.9,1.4c1,0.9,2.2,1.4,3.6,1.4c2.9,0.3,5.9-0.3,8.9-0.6
	c3.1-0.2,6.2-0.1,9.4-0.2c0.2,0,0.4,0,0.7-0.1c0.2-0.1,0.3-0.3,0.4-0.7c0.3-1.1,0.4-2.3,0.1-3.5c-0.2-0.9-0.4-1.9-0.7-2.8
	c-0.4-1.4-0.8-2.9-1.1-4.5c-0.1-0.2-0.1-0.6-0.2-0.8l0.1,0.1c1.9-4.3,3.8-8.6,5.8-12.9c1-2.2,2-4.6,1.4-6.9
	c-0.3-1.7-1.4-3.1-2.1-4.6c-1.8-3.6-1.9-7.8-1.9-11.8l-0.1-22.9c4.5-5.7,7.1-12.4,8.9-19.4c2.7,9.9,2.8,20.3,0.6,30.2
	c-0.4,1.6-0.7,3-0.9,4.6c-0.3,6.4,4.6,11.7,5.9,17.9c0.1,0.4,0.1,1,0.1,1.4c-0.1,0.6-0.4,1.2-0.8,1.7c-2.3,4.3-2.1,9.6-1.8,14.5
	l1,0.2c0.2,0.4,0.7,0.8,1.1,1.1l0,0c0.4,0.2,0.9,0.4,1.3,0.6c1.7,0.4,3.5,0.7,5.1,0.8c2.5,0.2,5,0.4,7.6,0.7c1,0.1,2,0.1,3,0.1
	c1.4,0,2.8,0.1,4.1,0.3c1.6,0.3,3,0.8,4.5,1.3c6.5,2.1,13.7,3.5,20,0.7c1.4-0.6,2.7-1.4,3.7-2.6c1.6-1.8,1.6-4.5-0.2-6.1
	C293,443.3,292.6,443.1,292.3,443L292.3,443z M206.3,189.7c0.9,1.9,1.9,3.8,2.7,5.7c1.6,3.8,2.5,8,1.4,11.9c-0.3,1.1-2.1,2-2.1,3.2
	c0,0.1-0.1,0.2-0.1,0.2l-5.8-14.3C203.6,194.1,204.9,191.9,206.3,189.7z M200,219.9c-1.2-1.7-2.3-3.5-3.1-5.5
	c-0.1-0.2-0.2-0.4-0.3-0.7c0.3-0.1,0.7-0.3,0.9-0.7c0.9-1.1,0.4-2.8,0.6-4.2c0.2-1.2,0.7-2.5,1.4-3.6l5.5,13.4
	c-0.6,1.4-1.1,2.9-1.6,4.3C202,222.1,201,221,200,219.9z"/>
<path class="st5" d="M219.2,99.9c-0.1,1.9,0.8,3.6,1.3,5.4c0.9,3.5,0.8,7-0.2,10.5c-1,3.6-2.7,7.4-1.4,10.8c0.3,0.8,0.8,1.6,1,2.3
	c1.1,3.3-0.9,6.9-3.2,9.7l8.8,6.1c1.3,1.1,2.8,1.8,4.5,2.1c1.7,0.2,3.6-0.7,3.9-2.3c0.1-0.6,0-1.1,0.1-1.7c0.2-1.4,1.1-2.8,2.5-3.5
	c1.3-0.7,2.8-0.9,4.2-0.8c5.4,0.3,10,3.8,14.8,6.1c3.2,1.4,6.6,2.6,10,3.3c1.9,0.6,4.1,1,5.9,0s2.6-3.2,2.5-5.2
	c-0.2-2-0.9-4-1.9-5.8s-1.6-3.8-1.7-5.8c0-3,1.7-5.7,2.2-8.6c0.8-4.1-0.8-8.4-2.7-12.2c-1.9-3.8-4.2-7.5-5.1-11.6
	c-0.2-1.2-0.6-2.5-1-3.7c-0.4-0.9-1-1.7-1.8-2.3c-3.3-3.2-8-4.8-12.6-5.1c-4.6-0.3-9.3,0.4-13.8,1.2c-1.8,0.2-3.5,0.7-5.1,1.2
	c-2.3,0.9-4.7,2.1-6.7,3.7C221.4,95.1,219.3,97.3,219.2,99.9z"/>
<g class="st7">
	<path d="M270.2,129.4c0,0.2,0,0.6,0,0.8c0.2-2.6,1.7-5,2.1-7.7c0.2-1,0.2-2.1,0.2-3.1c0,0.4-0.1,0.9-0.2,1.3
		C271.8,123.7,270.1,126.5,270.2,129.4z"/>
	<path d="M221.1,108.8c0.1-1.8-0.1-3.6-0.6-5.4c-0.6-1.3-1-2.8-1.3-4.1c0,0.2-0.1,0.3-0.1,0.6c-0.1,1.9,0.8,3.6,1.3,5.4
		C220.8,106.4,221.1,107.6,221.1,108.8z"/>
	<path d="M273.7,142.3c-0.1,1.6-1,3-2.3,3.9c-1.8,1-3.9,0.6-5.9,0c-3.5-0.8-6.8-1.9-10-3.3c-4.9-2.2-9.5-5.8-14.8-6.1
		c-1.4-0.1-2.9,0.1-4.2,0.8c-1.3,0.7-2.2,1.9-2.5,3.5c-0.1,0.6,0,1.1-0.1,1.7c-0.3,1.7-2.2,2.5-3.9,2.3c-1.7-0.3-3.1-1.1-4.5-2.1
		l-7.9-5.6c-0.3,0.4-0.6,0.8-0.9,1.1l8.8,6.1c1.3,1.1,2.8,1.8,4.5,2.1c1.7,0.2,3.6-0.7,3.9-2.3c0.1-0.6,0-1.1,0.1-1.7
		c0.2-1.4,1.1-2.8,2.5-3.5c1.3-0.7,2.8-0.9,4.2-0.8c5.4,0.3,10,3.8,14.8,6.1c3.2,1.4,6.6,2.6,10,3.3c1.9,0.6,4.1,1,5.9,0
		c1.8-1,2.6-3.2,2.5-5.2C273.8,142.6,273.8,142.5,273.7,142.3z"/>
	<path d="M219.8,128.8c0.1,0.3,0.2,0.7,0.2,1.1c0.1-1,0-1.9-0.2-2.9c-0.2-0.8-0.7-1.6-1-2.3c-0.2-0.6-0.3-1.2-0.4-1.8
		c-0.1,1.2,0,2.5,0.4,3.6C219.2,127.2,219.6,128,219.8,128.8z"/>
</g>
<path class="st5" d="M230.3,465.9c-0.1,0.2-0.2,0.4-0.4,0.7c-0.2,0.1-0.4,0.1-0.7,0.1c-3.1,0.1-6.4,0-9.5,0.2c-3,0.2-6,0.9-8.9,0.6
	c-2,0.1-3.7-1.1-4.5-2.9c-0.2-0.3-0.3-0.8-0.4-1.2c-0.8-2.1-1.2-4.3-1.2-6.6c0-0.6,0-1.2,0-1.8c0-0.7-0.1-1.3-0.2-1.9
	c-0.2-0.8-0.2-1.6,0.1-2.2c1.2-2.3,4.3-2.8,6.7-2.9c5.5-0.4,10.9,0,16.2,1.2c0.4,2,0.9,4.1,1.3,6.1c0.3,1.4,0.8,3,1.2,4.5
	c0.2,0.9,0.6,1.9,0.7,2.8C230.8,463.6,230.6,464.8,230.3,465.9z"/>
<path class="st8" d="M230.3,465.9c-0.1,0.2-0.2,0.4-0.4,0.7c-0.2,0.1-0.4,0.1-0.7,0.1c-3.1,0.1-6.4,0-9.5,0.2c-3,0.2-6,0.9-8.9,0.6
	c-2,0.1-3.7-1.1-4.5-2.9c-0.2-0.3-0.3-0.8-0.4-1.2h1.1c3.8,0,7.5-0.1,11.3-0.1c1.1,0,2.2,0,3.3-0.2c1.1-0.1,2-0.3,3-0.4
	c1.6-0.1,3.1-0.2,4.6-0.2h1.2C230.6,463.6,230.6,464.8,230.3,465.9z"/>
<path class="st5" d="M295.8,449.4c-1,1.1-2.2,2-3.7,2.6c-6.4,2.7-13.6,1.4-20.2-0.7c-1.4-0.6-3-1-4.5-1.3c-1.3-0.2-2.8-0.3-4.2-0.3
	c-1,0-2-0.1-3-0.1c-2.6-0.1-5.1-0.4-7.6-0.7c-1.8-0.1-3.5-0.4-5.2-0.8c-0.4-0.1-1-0.3-1.4-0.6l0,0c-0.8-0.3-1.2-1.1-1.2-1.9
	c0.1-1.1,1.2-1.8,2.2-2.2c9.1-3.9,19.1-5.7,29-7c1-0.2,2-0.4,2.9-0.9c1.1-0.4,1.2,0.3,1.8,1.1c0.2,0.3,0.6,0.8,0.9,1
	c1.1,1,2.3,1.7,3.7,2.1c2.5,0.9,5,1.1,7.4,2c0.8,0.2,1.4,0.6,2.1,1c2.1,1.1,2.9,3.7,1.7,5.8C296.1,448.9,295.9,449.2,295.8,449.4
	L295.8,449.4z"/>
<path class="st8" d="M295.8,449.4c-1,1.1-2.2,2-3.7,2.6c-6.4,2.7-13.6,1.4-20.2-0.7c-1.4-0.6-3-1-4.5-1.3c-1.3-0.2-2.8-0.3-4.2-0.3
	c-1,0-2-0.1-3-0.1c0.8-0.8,1.7-1.6,2.5-2.2c0.7-0.6,1.3-1,2.1-1.3c1-0.3,2-0.3,3-0.2c5.1,0.7,9.7,4.2,14.8,3.9
	c2.3-0.2,4.7-1,6.8-2.2c1.7-0.7,3.2-1.8,4.5-3.1c0.3-0.4,0.7-1,0.8-1.6c2.1,1.1,2.9,3.7,1.7,5.8C296.2,448.9,296,449.2,295.8,449.4
	L295.8,449.4z"/>
<path class="st9" d="M294,295c-0.9,1.8-2,3.7-3.9,4.2c-2.8,0.8-5.5-1.7-6.7-4.3c-1.7-3.9-2-8.1-0.9-12.3c0.6-2,1.2-4,1.7-6.1
	c0.3-1.8,0.6-3.5,0.6-5.2c0.2-2.7,0.2-5.2-0.2-7.9c-1.4-7.6-8-13.4-10.1-20.8c-1.1-3.8-1-7.7-1-11.6c0-1,0.1-2,0.3-2.9
	c0.1-0.2,0.1-0.6,0.2-0.8c1.4-3.2,5.8-3.7,8.8-5.6c1.7-1,5.5-4.3,6.9-1.3c0.3,0.7,0.6,1.3,0.7,2.1c0.6,2.7,0.3,5.9,0.4,8.5
	c0.6,9.7,3,19.4,1.8,29c-0.2,1.7-0.4,3.3-0.4,5c0.2,4.1,2.9,7.8,4,11.8C298.1,282.9,296.6,289.4,294,295z"/>
<path class="st4" d="M290.3,222.6c-0.7-0.2-1.3-0.2-2,0l-6,1.8c-2.1,0.6-4.1,1.3-6.1,2.2c-0.9,0.4-1.7,0.9-2.5,1.6
	c0.1-0.2,0.1-0.6,0.2-0.8c1.4-3.2,5.8-3.7,8.8-5.6c1.7-1,5.5-4.3,6.9-1.3C290,221.1,290.2,221.9,290.3,222.6z"/>
<path class="st5" d="M290.7,221.9c-0.8-0.4-1.7-0.6-2.5-0.2l-6,1.8c-2.1,0.6-4.1,1.3-6.1,2.2c-1,0.6-2,1.1-2.9,1.9
	c-2.8-4.9-3.6-10.7-4.1-16.3c-0.3-3.2-0.4-6.6-0.7-9.8c-0.1-2.3-0.1-4.7,0.1-7c0.3-2.7,1.1-5.2,1.6-7.9c0.3-1.6,0.4-3.1,0.6-4.7
	c0.2-3.5,0.1-6.9-0.4-10.3c-0.6-3.6-1.3-7.1-2.5-10.7c-0.6-1.6-1.2-3.1-1.9-4.7l-0.2-0.6c-1.1-2.9-2-5.8-2.8-8.8
	c-0.3-1.2-0.3-2.6-1.2-3.3c0.9-0.1,1.8-0.1,2.7-0.1c0.2,0,0.3,0,0.6,0c3.7,0.2,7.1,1.4,10.1,3.6c3.9,2.8,6.8,6.7,8.5,11.1
	c1.9,5,2.2,10.5,2.5,15.8c0.4,10.5,0.8,21,0.9,31.5c0,2,0.1,4.1,1.2,5.8c0.3,0.4,0.7,0.9,0.9,1.3c0.4,0.9,0.3,1.9,0.7,2.8
	c0.2,0.6,0.6,1.1,0.9,1.6C291.4,218.5,291.4,220.3,290.7,221.9z"/>
<path class="st9" d="M231.5,117.7c-0.9-0.3-1.8-0.6-2.7-0.9l1.9,0.1C231.1,117.1,231.3,117.3,231.5,117.7z"/>
<path class="st9" d="M268,149.6c-0.2,0.6-0.3,1.2-0.6,1.8c-0.4,1.4-1,2.9-1.7,4.2c-1,2.2-2.5,4.3-4.2,6.1c-0.6,0.7-1.3,1.1-2.1,1.3
	c-0.7,0.2-1.3,0.2-2,0.2c-2.3,0-4.8,0-7.1-0.1c-1.9,0-3.7-0.1-5.5-0.6c-2-0.6-3.9-1.3-5.6-2.6c-6.7-4.1-12-10.4-14.4-17.7
	c-0.3-0.9-0.4-2.1,0.1-2.8c0.7-0.6,1.4-0.8,2.2-0.8h0.1c1.9-0.2,3.8-0.9,5.5-1.9c1.1-0.6,1.9-1.4,2.5-2.6c0.3-1.3,0.3-2.7-0.1-3.9
	l-2-8.9c-0.2-1.4-0.8-2.8-1.6-4c0.6,0.2,1.1,0.4,1.8,0.6c5.5,1.4,11.5,0.6,16.8,2.6c2,0.8,4.1,2.1,4.8,4.2c1,3.6-2.5,7.2-1.4,10.8
	c0.7,2.5,3.1,3.8,5.4,4.9l1.4,0.8l4.1,2.1l0.6,0.3h0.1c1.3,0.7,2.7,1.4,3.1,2.9C268.4,147.8,268.3,148.8,268,149.6z"/>
<path class="st4" d="M278.8,170.5c-0.1,2.2-0.7,4.5-1.7,6.6c-1.8,3.6-2.8,7.6-2.8,11.6c-0.7,12-5.2,26.3,1.3,36.3
	c0.1,0.2,0.3,0.4,0.4,0.8c-1,0.6-2,1.1-2.9,1.9c-2.8-4.9-3.6-10.7-4.1-16.3c-0.3-3.2-0.4-6.6-0.7-9.8c-0.1-2.3-0.1-4.7,0.1-7
	c0.3-2.7,1.1-5.2,1.6-7.9c0.3-1.6,0.4-3.1,0.6-4.7c0.2-3.5,0.1-6.9-0.4-10.3c-0.6-3.6-1.3-7.1-2.5-10.7c-0.6-1.6-1.2-3.1-1.9-4.7
	l-0.2-0.6c-1,2.2-2.5,4.3-4.2,6.1c-0.6,0.7-1.3,1.1-2.1,1.3c-0.7,0.2-1.3,0.2-2,0.2c-2.3,0-4.8,0-7.1-0.1c-1.9,0-3.7-0.1-5.5-0.6
	c-2-0.6-3.9-1.3-5.6-2.6c-6.7-4.1-12-10.4-14.4-17.7c-0.3-0.9-0.4-2.1,0.1-2.8c0.7-0.6,1.4-0.8,2.2-0.8h0.1l8,9.9
	c0.9,1,1.7,2.2,2.3,3.5c0.1,0.4,0.3,0.8,0.7,1c0.2,0.1,0.6,0.2,0.9,0.1c7.5,0,17.5,0,25,0c0-1.3-0.3-2.7-1.1-3.8
	c-0.2,0-0.6,0.1-0.1-0.1c-0.4-2.9-1.3-5.7-2.8-8.2c-0.1-0.2-0.2-0.3-0.2-0.6c-0.6-0.9-1-1.9-1.3-2.9c1-0.3,2-0.3,2.9,0
	c1.1,0.4,1.7,1.7,2.1,2.8c0.4,0.9,0.8,1.8,1.2,2.8c0,0.1,0.1,0.2,0.1,0.3c0.8,1.8,1.2,3.8,1.4,5.8c0,0.8,0.2,1.7,0.8,1.9
	c0.1,0,0.2,0.1,0.3,0.1c1.2-0.4,2.7-0.1,3.7,0.9c0.9,1,1.4,2.2,1.8,3.5c0.3,1.3,0.7,2.6,1.2,3.8c1.1,2.2-0.6,3.1,1.4,4.5
	c1,0.6,1.8,1.2,2.5,2.2C278.8,167.7,279,169.2,278.8,170.5z"/>
<path class="st4" d="M227.2,449.2c0.4,2,0.9,4.1,1.3,6.1v0.1c-4-1.8-8.2-3.7-12.6-4c-4.1-0.3-8.6,0.8-11.4,3.8
	c0-0.7-0.1-1.3-0.2-1.9c-0.2-0.8-0.2-1.6,0.1-2.2c1.2-2.3,4.3-2.8,6.7-2.9C216.4,447.5,221.8,448,227.2,449.2z"/>
<path class="st4" d="M262.2,151.4C262.6,151.4,262.4,151.4,262.2,151.4C262.1,151.5,261.8,151.5,262.2,151.4z"/>
<path class="st4" d="M281.5,437.6c-4,2.6-7.7,5.5-11.1,8.6c-1,1.1-2.2,1.9-3.5,2.6c-1.3,0.4-2.8,0.6-4.2,0.4
	c-5.6-0.2-11.1-0.8-16.7-1.7l0,0c-0.8-0.3-1.2-1.1-1.2-1.9c0.1-1.1,1.2-1.8,2.2-2.2c9.1-3.9,19.1-5.7,29-7c1-0.2,2-0.4,2.9-0.9
	c1.1-0.4,1.2,0.3,1.8,1.1C280.8,436.9,281.2,437.3,281.5,437.6z"/>
<path class="st10" d="M216.3,141.2c1.3,1.1,2.8,2.1,4.1,3.2c3.6,3,5.8,7.2,8,11.4c-1.3,0.4-2.7,0.6-4.1,0.2c-0.7,3.9-0.6,8,0.3,11.9
	c-1.8,1.2-3.1,2.9-4,4.9c-0.7,2-1.1,4.1-1.3,6.2c-1.2,9.3-2.6,18.5-3.9,27.8c0,0.9-0.3,1.8-0.9,2.5c-0.2,0.2-0.4,0.4-0.7,0.7
	c-0.2,0.6-0.3,1.2-0.3,1.9c0,0.7-0.4,1.4-1.1,1.3c-0.3-0.1-0.6-0.2-0.8-0.6c-0.7-0.7-1.2-1.4-1.8-2.2c-5.2,10-7.8,20.8-10.6,31.9
	c-2,7.8-4,15.7-4,23.9c0,3.8,0.2,7.7,0.7,11.5l0.8,7.8c0.7,6.2,1.2,12.6,1.9,18.8c0.4,4,0.9,8,2.3,11.7c2.1,5.7-0.2,12.2,0.7,18.2
	c0.7,4.7,2.1,9.6,0.7,14.2c-0.6,1.8-1.6,3.5-2.3,5.2c-1.8,4.3-2,9.3-2.2,13.9c-0.3,4.1-0.1,8.4,0.4,12.5c0.8,4.2,2.5,8.5,2.1,12.7
	c-0.4,6.1-5,11.4-5.6,17.5c-0.4,4.9,1.7,9.6,4,13.9c1.7,3.2-0.7,7.4-1.6,10.8c-1.8,6.9,1.2,14,4.8,20.2c0.1,0.2,0.2,0.3,0.4,0.4
	c0.4,0.1,0.8-0.2,1.1-0.6c2.7-3.5,7.6-4.8,12-4.5c4.5,0.3,8.6,2.2,12.6,4l5.8-12.8c1-2.2,2-4.6,1.4-6.9c-0.3-1.7-1.4-3.1-2.2-4.6
	c-1.8-3.6-1.9-7.8-1.9-11.8l-0.1-22.9c4.5-5.7,7.2-12.4,8.9-19.4c2.7,9.9,2.8,20.3,0.6,30.2c-0.4,1.6-0.7,3-0.9,4.6
	c-0.3,6.4,4.6,11.7,5.9,17.9c0.1,0.4,0.1,1,0.1,1.4c-0.1,0.6-0.4,1.2-0.8,1.7c-2.3,4.3-2.1,9.6-1.8,14.5c6.2,1.1,12.5,1.8,18.8,2
	c1.4,0.1,2.9,0,4.2-0.4c1.3-0.7,2.6-1.6,3.5-2.6c4-3.8,8.5-7.1,13.3-10c-2.7-4.3-6.4-8-10.8-10.7c1.4-2.1,4.7-1.9,6.6-3.7
	c1-0.9,1.6-2.1,1.8-3.5c0.7-3.5-0.2-7.1-1-10.5c-1.7-6.7-3.5-13.5-6.2-19.8c-1.2-2.6-2.3-5.4-3.3-8c-2.3-7.7-0.7-15.9-2.5-23.9
	c-0.6-2.5-1.4-5.1-0.9-7.6c1-3.9,5.4-6.1,6.2-10c3.5-13.7,4-28,6-41.9c0.4-2.7,0.7-5.4,0.7-8.1c0-2.8-0.6-5.7-0.7-8.5
	c-0.8-11.3,2.8-22.6,1.9-33.9c-0.6-6.9-2.9-13.7-6.7-19.5c-6.6-10-2-24.3-1.3-36.3c0-4,1-7.9,2.8-11.6c0.9-2.1,1.4-4.3,1.7-6.6
	c0.2-1.4,0.1-2.9-0.4-4.1c-0.7-0.9-1.4-1.7-2.5-2.2c-2.1-1.3-0.3-2.3-1.4-4.5c-0.6-1.2-1-2.5-1.2-3.8c-0.3-1.3-0.9-2.5-1.8-3.5
	c-0.9-1-2.3-1.3-3.7-0.9c-0.9,0-1.1-1.1-1.1-2c-0.2-3.1-1.6-6-2.8-8.8c-0.4-1.1-1-2.2-2.1-2.8c-1-0.3-2-0.3-2.9,0
	c0.2,1,0.7,2,1.3,2.9c1.6,2.7,2.6,5.7,3,8.7c-0.9,0.2,0.9,0,0,0c0.8,1.1,1.2,2.5,1.1,3.8c-7.5,0-17.5,0-25,0c-0.3,0-0.6,0-0.9-0.1
	c-0.3-0.2-0.6-0.7-0.7-1c-0.6-1.2-1.3-2.5-2.3-3.5l-8.8-10.8c-0.2-0.3-0.4-0.6-0.8-0.7c-0.3-0.1-0.8-0.1-1.1,0
	C221,138.5,218.8,139.7,216.3,141.2z"/>
<path class="st4" d="M247.9,288.1c1.6,0,3,0.3,4.3,1.1c1.3,0.8,2.1,2.2,2.1,3.8c-0.1,1.7-1.3,3-2.3,4.5c-0.6,0.9-1,1.8-1.3,2.8
	c-0.1,0.2-0.1,0.4-0.1,0.7c0.1,0.3,0.4,0.6,0.8,0.7c2.3,1,3.8,3.3,3.9,5.8c-0.1,3.5-3.5,6.2-3.2,9.8c0.1,0.8,0.2,1.4,0.3,2.1
	c0.4,3,0,6-1.2,8.8c-1.1,2.8-2.6,5.5-3.7,8.1c-3.1,7.5-3.8,15.8-3.6,24c0.2,5.6-1.8,10.8-3.6,16.1c1-10.6,1.2-21.3,0.8-32
	c-0.1-2.9-0.4-5.7-0.3-8.6c0.2-4.6,2.8-8.8,3.5-13.4c0.3-2.6,0.1-5.2,0.2-7.8c0.1-5.4,1.6-10.6,1.7-15.9
	C246.3,295,245.9,291.1,247.9,288.1z"/>
<path class="st5" d="M210.8,143.1c-1.8,0.9-3.5,2-4.9,3.2c-1.6,1.6-2.9,3.3-3.9,5.4c-1.2,2.2-2.3,4.6-3.3,6.9
	c-1.2,3-2.3,6.5-1.4,9.6c0.8,2.9,3,5.1,4.6,7.7s2.5,5.6,3.6,8.4c1.6,3.8,3.7,7.2,5.2,11s2.5,8,1.4,11.9c-0.3,1.1-2.1,2-2.1,3.2
	c0,2,2.8,4.1,4.7,4.7c2.1,0.7,4.5-0.3,6.2-1.8c3.2-2.6,5.2-6.5,6.7-10.3c2.3-6.2,3.6-12.8,4.7-19.4c0.8-4.8,1.6-9.6,2-14.5
	c0.4-4.3,0.6-8.9-0.7-13c-1.1-3.9-3.1-7.4-6-10.1c-2.3-2.2-6.1-5.2-9.5-5.2C215.6,140.6,213,141.7,210.8,143.1z"/>
<path class="st9" d="M236.1,250.1c-0.2,1.2-0.9,2.3-2,3c-1,0.7-2.2,1.1-3.3,1.3c-2.3,0.7-4.9,1.3-7.4,0.7c-1.9-0.7-3.7-1.6-5.1-2.9
	l-26.9-20.6c-2.1-1.6-4.1-3.3-5.9-5.2c-1-1.2-2-2.6-2.8-4c-1.1-1.6-2-3.3-2.6-5.2c-0.2-0.8-0.3-1.7-0.3-2.5s0.2-1.6,0.6-2.2
	c0.7-1.1,2-1.3,3.1-1.6c3.8-1,7.8-1.3,11.7-0.9c0.7,0,1.3,0.4,1.6,1.1c0.6,1.1,1.1,2.2,1.7,3.3c0.8,1.9,1.9,3.8,3.1,5.5
	c1.2,1.3,2.6,2.7,3.9,3.8c2.9,2.7,5.1,5.9,8.2,8.4c3.5,2.8,7.8,4.6,11.8,6.6c4,2.1,7.9,4.8,9.9,8.8
	C235.9,248.2,236.1,249.2,236.1,250.1z"/>
<path class="st4" d="M267.2,106.4c0,12.2-9.8,22-22,22s-22-9.8-22-22c0-12.2,9.8-22,22-22c10.1,0,19,6.9,21.4,16.8
	C267,102.9,267.2,104.7,267.2,106.4z"/>
<path class="st9" d="M267.2,105.5c0,12.2-9.8,22-22,22s-22-9.8-22-22c0-12.2,9.8-22,22-22c10.1,0,19,6.9,21.4,16.8
	C267,102,267.2,103.8,267.2,105.5z"/>
<path class="st4" d="M198.3,214.4c-1,0.7-2.6,0.4-3.8,0.1c-4.9-1.1-10.4-1.9-14.9,0.2c0-0.8,0.2-1.6,0.6-2.2c0.7-1.1,2-1.3,3.1-1.6
	c3.8-1,7.8-1.3,11.7-0.9c0.7,0,1.3,0.4,1.6,1.1C197.3,212.1,197.8,213.2,198.3,214.4z"/>
<path class="st5" d="M189.1,184.4c-1.1,3.6-2,7.2-4.1,10.3c-0.7,0.8-1.2,1.7-1.6,2.8c0,0.8-0.1,1.4-0.3,2.2c-0.3,0.6-0.9,1-1.2,1.7
	c-0.3,0.9,0.1,2-0.4,2.9c-0.2,0.3-0.6,0.7-0.9,0.9c-1.2,1.1-1.6,2.9-1.6,4.6c0,1.7,0.1,3.3-0.4,4.9c4.7-2.8,10.7-2,15.9-0.8
	c1.4,0.3,3.3,0.6,4.2-0.6c0.9-1.1,0.4-2.8,0.6-4.2c0.2-1.9,1.4-3.5,2.2-5.1c0.9-1.9,1.2-4,1.9-6c1.4-4.2,4.5-7.6,6.4-11.6
	c0.7-1.3,1.1-2.9,1.2-4.3c-0.1-2-0.6-3.9-1.6-5.7c-1.9-4.1-4-8-6.6-11.7c-1.1-1.7-3.1-4.7-4.8-2.1c-1.4,2.1-2.3,4.9-3.3,7.2
	C192.6,174.4,190.7,179.3,189.1,184.4z"/>
<path class="st5" d="M269.2,150c-5.4,0.3-10.7-1.7-14.4-5.7c-0.3-0.3-0.6-0.7-0.7-1c0-0.6,0.1-1,0.4-1.4c1.1-1.7,2.9-2.7,3.8-4.5
	s0.6-3.8,0.7-5.7c0.1-3.5,1.6-6.9,1.7-10.4c0-0.9,0-1.8-0.2-2.6c-0.4-1.2-0.7-2.6-0.8-3.9c0.1-2.6,2.5-4.7,2.9-7.2
	c0.6-3.2-2.2-6.1-4.9-8c-2.1-1.4-4.3-2.6-6.7-3.5c-1.4-0.6-3-0.9-4.5-1.1c-2.9-0.3-5.8-0.1-8.5,1c-1.1,0.4-2.2,1-3.1,1.7
	c-0.6,0.3-1.1,0.9-1.4,1.4c-0.3,0.7-0.4,1.4-0.3,2.1c0,3.7,0.3,7.5-1.3,10.7c-0.9,1.7-2.5,3.1-3.1,4.9c-0.3,0.8-0.4,1.6-0.6,2.3
	c-0.1,0.8-0.1,1.7-0.1,2.5c0,4.7,0,9.6,2.3,13.7c0.9,1.2,1.6,2.5,2.2,3.8c0.7,1.3,0.6,3-0.2,4.2c-0.4,0.6-1.1,1-1.8,1.3
	c-3.6,1.7-7.7,1.9-11.4,0.4c4.3-4.1,5.7-10.5,3.3-16.1c-0.7-1.1-1-2.3-1.2-3.6c0.1-1.1,0.4-2.2,0.9-3.2c1.2-3.3,1.4-6.9,0.6-10.4
	c-0.6-2.1-1.4-4.1-1.7-6.4c-0.1-1.7-0.1-3.3,0.2-4.9c1-5.9,5.2-10.8,10.9-12.6c0.4-0.1,0.9-0.3,1.3-0.4c2.1-0.4,4.3-0.7,6.6-0.7
	c4.9-0.1,9.9-0.3,14.7,1c2.8,0.8,5.4,2.1,7.6,3.9c1.6,1.3,2.8,3,3.7,4.9c0.4,1.1,0.8,2.2,1,3.3c0.2,1,0.3,1.9,0.6,2.9
	c1.1,6.8,2.1,13.8,1,20.6c-0.4,2.7-1.2,5.4-1.6,8C266.1,137.7,267.7,143.8,269.2,150z"/>
<circle class="st11" cx="237.7" cy="157.1" r="1.7"/>
<circle class="st11" cx="265.5" cy="156.3" r="1.7"/>
<path class="st4" d="M237.7,73.6l-3.6-6.7c0.2-0.2,0.4-0.6,0.8-0.8c0.6-0.3,1.1-0.4,1.7-0.4L237.7,73.6z"/>
<path class="st4" d="M247.5,65.4l-4,5.9l-2.3-6.6c1-0.4,2-0.7,3.1-0.6C245.4,64.5,246.5,64.8,247.5,65.4z"/>
<g class="st7">
	<path d="M232.2,141.5c-0.4,0.6-1.1,1-1.8,1.3c-3.1,1.6-6.8,1.8-10.1,0.9c-0.4,0.4-0.8,0.9-1.2,1.3c3.7,1.4,7.8,1.3,11.4-0.4
		c0.7-0.3,1.3-0.8,1.8-1.3c0.7-0.9,0.8-2,0.6-3.1C232.7,140.7,232.4,141.2,232.2,141.5z"/>
	<path d="M222.5,111.7c0.3,1.1,0.4,2.3,0.6,3.6c0.1-1.8-0.1-3.6-0.6-5.4c-0.6-2.1-1.4-4.1-1.7-6.4c0-0.2,0-0.6,0-0.8
		c0,0.9,0,1.8,0,2.6C221.1,107.6,222,109.6,222.5,111.7z"/>
	<path d="M268.6,123.3c0.3-2.3,0.6-4.7,0.4-7.1c0,1.8-0.2,3.6-0.4,5.4c-0.4,2.7-1.2,5.4-1.6,8c-0.2,1.4-0.2,2.9-0.2,4.3
		c0-0.9,0.1-1.8,0.2-2.7C267.3,128.7,268.1,126.1,268.6,123.3z"/>
	<path d="M222.4,127.2c-0.4-0.9-0.9-1.8-1.1-2.8c-0.1,0.3-0.1,0.7-0.1,1c0.2,1.2,0.6,2.5,1.2,3.6c0.7,1.4,1,3.1,1.1,4.7
		C223.6,131.5,223.3,129.2,222.4,127.2z"/>
	<path d="M260.4,118.5c0.1,0.4,0.1,0.8,0.2,1.2c0-0.1,0-0.2,0-0.4c0-0.9,0-1.8-0.2-2.6c-0.2-0.9-0.6-1.9-0.7-2.8
		c0,0.2-0.1,0.4-0.1,0.7C259.7,116,260.1,117.3,260.4,118.5z"/>
	<path d="M254.8,142.5c-0.1-0.1-0.2-0.3-0.3-0.4c-0.2,0.3-0.3,0.8-0.2,1.2c0.1,0.4,0.3,0.8,0.7,1c3.7,4,8.9,6,14.4,5.7
		c-0.1-0.6-0.3-1.1-0.4-1.8C263.5,148.4,258.4,146.3,254.8,142.5z"/>
	<path d="M262.5,105.8C262.5,105.7,262.5,105.7,262.5,105.8c0.6-3.3-2.2-6.2-4.9-8.1c-2.1-1.4-4.3-2.6-6.7-3.5
		c-1.4-0.6-3-0.9-4.5-1.1c-2.9-0.3-5.8-0.1-8.5,1c-1.1,0.4-2.2,1-3.1,1.7c-0.6,0.3-1.1,0.9-1.4,1.4c-0.3,0.7-0.4,1.4-0.3,2.1
		c0,0.6,0,1.2,0,1.9v-0.1c0-0.8,0.1-1.4,0.3-2.1c0.3-0.6,0.8-1.1,1.4-1.4c1-0.7,2-1.2,3.1-1.7c2.7-1,5.7-1.3,8.5-1
		c1.6,0.2,3,0.6,4.5,1.1c2.3,0.9,4.7,2,6.7,3.5C259.9,101,262.1,103.2,262.5,105.8z"/>
	<path d="M231.5,110.1c-0.9,1.7-2.5,3.1-3.1,4.9c-0.3,0.8-0.4,1.6-0.6,2.3c-0.1,0.8-0.1,1.7-0.1,2.5s0,1.6,0,2.2c0-0.2,0-0.3,0-0.6
		c0-0.9,0-1.7,0.1-2.5c0.1-0.8,0.2-1.6,0.6-2.3c0.8-1.8,2.2-3.1,3.1-4.9c1.4-2.7,1.4-5.7,1.3-8.8
		C233.1,105.5,232.5,107.8,231.5,110.1z"/>
</g>
<path class="st4" d="M267,99.9c-0.1,0.2-0.2,0.3-0.4,0.4c-0.3,0.2-0.7,0.4-1,0.7c-2.6,1.1-2.5-2.6-3.8-3.8c-0.9-0.7-1.9-1-3-0.9
	c-2.6-0.1-5.2-0.2-7.8-0.3c-4.3-0.1-8.7-0.2-13-0.1c-2.1,0-4.1,0.1-6.2,0.2c-2.5,0.1-5,0.4-7,1.6c-0.7,0.3-1.3,0.9-1.9,1.4
	c-0.4,0.6-1,1.2-1.7,1.3c1-5.9,5.2-10.8,10.9-12.6c9.5-7,22.7-5.4,30.2,3.8c1.6,1.3,2.8,3,3.7,4.9C266.4,97.6,266.8,98.8,267,99.9z"
	/>
<path class="st5" d="M265.5,99.3c-2.6,1.1-2.5-2.6-3.8-3.8c-0.9-0.7-1.9-1-3-0.9c-9-0.6-18.1-0.7-27.1-0.2c-3.2,0.2-6.7,0.7-8.9,3.1
	c-0.6,0.6-1.1,1.3-2,1.3c-0.2-1.8-0.4-3.7-0.6-5.5c-0.1-0.7,0-1.3,0.1-2c0.2-0.8,0.8-1.4,1-2.1c0.2-1,0.3-1.9,0.2-2.9
	c0.1-7.4,4-14.2,10.4-17.9c0.8-0.3,1.6-0.9,2.1-1.4c0.2-0.2,0.4-0.6,0.8-0.8c0.6-0.3,1.1-0.4,1.7-0.4c0.4,0,0.9,0,1.2,0
	c1.1-0.1,2.2-0.4,3.3-0.9c1-0.4,2-0.7,3.1-0.6c1.1,0.2,2.2,0.6,3.2,1.1c0.4,0.2,1,0.4,1.4,0.6c0.8,0.2,1.7,0.2,2.5,0.3
	c1.3,0.3,2.6,0.9,3.7,1.7c1.3,0.7,2.6,1.7,3.7,2.7c1.2,1.3,2.2,3,2.9,4.7c1.2,2.3,2.1,4.8,2.7,7.4c0.7,3.7,0.3,7.7,2.1,11
	C267.4,95.7,268.4,98,265.5,99.3z"/>
<path class="st4" d="M220.5,96.5c0,0,18.4-16.7,45.8-2.9C266.3,93.6,235.4,86.5,220.5,96.5z"/>
<linearGradient id="SVGID_2_" gradientUnits="userSpaceOnUse" x1="4373.2549" y1="-260.5241" x2="4588.0229" y2="-260.5241" gradientTransform="matrix(-1 0 0 1 4602.1201 438.32)">
	<stop  offset="0" style="stop-color:#808080;stop-opacity:0.25"/>
	<stop  offset="0.54" style="stop-color:#808080;stop-opacity:0.12"/>
	<stop  offset="1" style="stop-color:#808080;stop-opacity:0.1"/>
</linearGradient>
<path class="st12" d="M19.8,182.1c-2.5-4.1-6.2-7.9-5.7-12.5c6.9,0.8,13.5-0.9,19.7-3.8c6.4-2.9,12.2-6.7,18.1-10.5
	c2.3-1.4,4.7-2.9,6.9-4.2c3.7-2.1,7.2-4.5,11-6.5c5.4-2.9,10.8-5.4,16.7-5.8c1.1-0.1,2.1-0.1,3.2-0.1c7.4,0.1,15,2.1,21.5-1.2
	l0.4-0.2c3.7-2,6.4-5.5,9.5-8.2c2.2-2,4.7-3.7,7.4-5.1c4.8-2.7,10-4.8,14.8-7.4c1.2-0.7,2.5-1.4,3.6-2.2l0.8-0.7l0.2-0.1
	c0.2-0.2,0.4-0.3,0.6-0.6l0.3-0.3l0.4-0.3l0.3-0.3l0.4-0.4v-0.1l0.8-0.8l0.3-0.3l0.6-0.6l0.3-0.3c0.6-0.6,1.1-1.1,1.7-1.7
	c0.6-0.6,1.3-1.3,2-1.9l0,0l0.7-0.6l0.2-0.1l0.6-0.4l0.2-0.2l0.6-0.4l0.2-0.2c0.2-0.2,0.6-0.3,0.8-0.6c0.2-0.1,0.4-0.3,0.8-0.4
	l-1.7-4l4.8-2l65.9,160l-4.8,2l-37.7-91.5l-0.2,0.2c-8.7,8.6-19.4,14.9-31.2,18.5h-0.1c-6.6,2-13.9,3.3-19.4,7c-2,1.2-3.7,2.9-5,4.8
	c-1.3,1.9-2.2,3.9-3.6,5.7c-0.2,0.3-0.6,0.7-0.8,1c-1.6,1.6-3.5,3-5.4,4.2l-0.9,0.6c-5.7,4-11.7,7.7-17.8,11
	c-3.6,1.9-7.2,3.3-11.1,4.6c-2.8,0.9-5.7,1.6-8.5,2.5c-1.9,0.6-3.7,1.3-5.5,2.2c-4.7,2.5-8.4,6.4-11.7,10.5c-3,3.6-5.8,7.5-9.1,10.7
	c-2,2-5.2,4-7.7,2.8l-0.6-0.3c0.1-0.1,0.1-0.2,0.2-0.4c2-4.1-0.4-9.1-3.7-12.5c-0.3-0.3-0.7-0.7-1-1s-1-0.9-1.4-1.3
	c-2.8-2.3-5.7-4.6-7.7-7.7c-1.4-2.6-2.5-5.5-2.9-8.4c-0.9-4.2-1.4-8.5-3.8-12c-1.4-2.3-3.7-4.3-5.4-6.6c-1-1.3-1.7-2.9-2-4.6
	c-0.3-2.9,1-5.7,1.4-8.6c0.1-0.8,0.2-1.6,0.2-2.3C21.7,185.9,21.1,183.9,19.8,182.1z"/>
<rect x="189.8" y="93" transform="matrix(0.9245 -0.3811 0.3811 0.9245 -53.3446 86.7354)" class="st13" width="5.1" height="170.1"/>
<path class="st14" d="M29.1,209.6c2.2,3.5,2.8,7.7,3.7,11.8c0.4,2.9,1.4,5.7,2.9,8.2c1.9,3,4.8,5.2,7.6,7.6c0.4,0.4,1,0.9,1.4,1.3
	c0.3,0.3,0.7,0.7,1,1c3.2,3.2,5.6,8.2,3.7,12.3c-0.1,0.1-0.1,0.2-0.2,0.4c0.1,0.1,0.3,0.2,0.4,0.3c2.5,1.2,5.6-0.7,7.6-2.7
	c3.2-3.2,6-7,8.9-10.5c3.3-4,6.9-7.8,11.6-10.3c1.7-0.9,3.5-1.6,5.4-2.1c2.7-0.9,5.6-1.6,8.2-2.3c3.8-1.2,7.4-2.7,10.9-4.6
	c6.1-3.2,11.9-6.9,17.6-10.8l0.8-0.6c1.9-1.2,3.7-2.6,5.2-4.1c0.3-0.3,0.6-0.6,0.8-0.9c1.3-1.8,2.2-3.8,3.6-5.7
	c1.3-1.9,3-3.5,4.9-4.7c5.5-3.6,12.6-5,19.1-6.9h0.1c11.6-3.5,22.1-9.8,30.7-18.3c0.7-0.6,1.2-1.3,1.6-2.2c0.2-1.2-0.4-2.5-1-3.6
	c-0.8-1.3-1.4-2.6-2.2-3.9c-3.2-5.9-6.2-12.2-8.8-18.4c-0.6-1.3-1.1-2.8-1.7-4.1c-1.3-3.6-2.6-7.1-3.7-10.8c-0.3-1.2-0.7-2.5-1-3.7
	c-0.1-0.2-0.1-0.4-0.2-0.8c-1.4-5.9-3.5-19.8-9.5-15.6c-1.8,1.3-3.5,2.8-5,4.3c-1.2,1.2-2.3,2.5-3.6,3.7c-1,1-2,1.9-3.1,2.8
	c-1.1,0.9-2.3,1.6-3.6,2.2c-4.8,2.5-9.9,4.6-14.6,7.1c-2.6,1.4-5,3.1-7.2,5c-3.1,2.8-5.7,6.1-9.4,8.1l-0.4,0.2
	c-6.4,3.2-13.9,1.3-21.2,1.1c-1.1,0-2.1,0-3.2,0.1c-5.9,0.4-11.3,2.8-16.5,5.7c-3.7,2-7.2,4.3-10.8,6.4c-2.2,1.3-4.6,2.7-6.8,4.1
	c-5.8,3.7-11.7,7.5-17.7,10.3c-6.2,2.8-12.6,4.5-19.4,3.8c-0.6,4.6,3.1,8.2,5.6,12.3c1.2,1.8,1.9,3.8,2.1,5.8c0,0.8,0,1.6-0.2,2.3
	c-0.4,2.8-1.8,5.6-1.4,8.5c0.2,1.7,0.9,3.1,1.9,4.5C25.5,205.4,27.6,207.3,29.1,209.6z"/>
<path class="st9" d="M209.8,228.1c0,0,7.8,6.8,15.7,10.4c7.9,3.6,2.7,16.6,2.7,16.6s-8.4,1.9-14.3-6.2
	C208,240.7,209.8,228.1,209.8,228.1z"/>
<path class="st2" d="M380.2,464.6c0,0,17.9-0.5,23.2-4.4c5.4-3.8,27.5-8.4,28.8-2.3c1.3,6.1,26.8,30.6,6.7,30.7
	c-20.2,0.2-46.8-3.1-52.2-6.4C381.4,479,380.2,464.6,380.2,464.6z"/>
<path class="st15" d="M439.3,486.5c-20.2,0.2-46.8-3.1-52.2-6.4c-4.1-2.5-5.7-11.4-6.3-15.6h-0.6c0,0,1.1,14.4,6.5,17.7
	s32.1,6.6,52.2,6.4c5.8,0,7.8-2.1,7.7-5.2C445.9,485.3,443.6,486.5,439.3,486.5z"/>
</svg>
