<?xml version="1.0" encoding="utf-8"?>
<!-- Generator: Adobe Illustrator 23.0.2, SVG Export Plug-In . SVG Version: 6.00 Build 0)  -->
<svg version="1.1" id="Layer_1" xmlns="http://www.w3.org/2000/svg" xmlns:xlink="http://www.w3.org/1999/xlink" x="0px" y="0px"
	 viewBox="0 0 280 230" style="enable-background:new 0 0 280 230;" xml:space="preserve">
<style type="text/css">
	.st0{display:none;fill:#79C6C1;}
	.st1{fill:#6EB7B0;}
	.st2{fill:#A8A8A8;}
	.st3{opacity:0.1;fill:#FFFFFF;enable-background:new    ;}
	.st4{opacity:0.1;enable-background:new    ;}
	.st5{fill:#79C6C1;}
	.st6{fill:#464353;}
	.st7{fill:url(#SVGID_1_);}
	.st8{opacity:0.1;}
	.st9{opacity:6.000000e-02;enable-background:new    ;}
	.st10{fill:#FBBEBE;}
	.st11{fill:#6C63FF;}
	.st12{fill:#FFFFFF;}
	.st13{fill:url(#SVGID_2_);}
	.st14{fill:#D6D8E1;}
	.st15{fill:#D35057;}
	.st16{opacity:0.2;enable-background:new    ;}
</style>
<title>warning</title>
<ellipse class="st0" cx="137.5" cy="144.5" rx="256.5" ry="224"/>
<ellipse class="st1" cx="97.9" cy="198.5" rx="70.9" ry="10.9"/>
<ellipse class="st1" cx="209.8" cy="214.4" rx="24.7" ry="5.1"/>
<ellipse class="st1" cx="202.2" cy="177.3" rx="40.2" ry="6.8"/>
<path class="st2" d="M46.4,164.3c-4.3,8.3-3.8,18.3,1.3,26.1c0.8,1.3,1.6,2.1,2.2,2.4c2.9,1.2,8.7,3.9,8.7,3.9l14-5.5
	c0,0,2.3-12.1,4.5-22.4l0,0c1.4-7,2.9-13.3,3.5-14.4c1.4-2.7,0-32.1,0-32.1s-14-0.9-17.9,9.9l-1.7,3.3L46.4,164.3z"/>
<path class="st3" d="M65,167.6c8.5,9.8,12.1,1.3,12.1,1.3l0,0l0,0c1.4-7,2.9-13.3,3.5-14.4c1.4-2.7,0-32.1,0-32.1s-14-0.9-17.9,9.9
	l-1.7,3.3C59.9,144.2,58.8,160.5,65,167.6z"/>
<path class="st2" d="M66.8,194.7l49.4-5.7l8.9-58l-6.7-15.1c-2.8-6.4-6.7-12.3-11.5-17.4c-3.3-3.5-7.4-6.9-11.7-8.6
	c-0.6-0.3-1.2-0.4-1.8-0.6c-1.4-0.4-3-0.1-4.1,0.7c-6.1,4.4-8.3,22.7-9,31.5c-0.3,3.6-0.8,7.2-1.4,10.9L66.8,194.7z"/>
<path class="st3" d="M99.8,130.3l-10.3,25.3c5.4-3.9,13.4-25.4,13.4-25.4l7.2,24.5l-5.7-25.8c0.8-5.6,1.1-11.3,0.7-17
	c-0.5-6.4-6.5-16.9-9.8-22.1c-0.6-0.3-1.2-0.4-1.8-0.6c-1.4-0.4-3-0.1-4.1,0.7c2.6,5.2,9.1,18.3,11.1,22.1
	C102.9,117,99.8,130.3,99.8,130.3z"/>
<path class="st2" d="M108.2,196.7H135c4.5,0,8.1-3.6,8.1-8.1c0-0.1,0-0.3,0-0.4c-0.6-11.5-2.1-32-5.7-45c-1.9-7-4.2-10.7-6.3-12.5
	c-1-0.9-2.2-1.5-3.6-1.7c-1-0.1-2,0.1-2.9,0.7c-5,4.8-10.8,29.9-10.8,29.9L108.2,196.7z"/>
<path class="st3" d="M132.9,174.4c1.1,3.1,1.5,6.6,0,10l-6,3c0,0-16.1-6.8-14.1-20.8c0,0,0.5-2.9,6-2.6
	C125.3,164.3,130.8,168.5,132.9,174.4z"/>
<path class="st3" d="M126.6,137.8c-0.2-4.9,2.5-6.6,4.6-7.1c-1-0.9-2.2-1.5-3.6-1.7c-1.5,1.3-2.6,3-3.1,5l-5.6,27.3
	C119,161.2,126.8,146,126.6,137.8z"/>
<path class="st2" d="M101.1,159.4l13.3,18.1l2.3,15l-8.5,4.2l-12.3,2.8c-1.2,0.3-2.4,0.4-3.6,0.3l-33.6-3l4.5-10.6L79,164
	L101.1,159.4z"/>
<path class="st3" d="M96,153.1c0,0,9,0.6,5.7,16.2c-3.4,15.6-38.4,16.8-38.4,16.8s7.5-13.2,18.9-22.6c1.3-1,2.6-2.2,3.7-3.3
	C88.5,157.6,93.5,152.9,96,153.1z"/>
<path class="st4" d="M104.1,164.8c0,0,12.3,11.2,11.1,28.4"/>
<path class="st4" d="M124.8,129.6c0,0-12.9,17.2-14.3,43.5"/>
<path class="st4" d="M80.6,122.4c0,0,6.3,28.3-9.4,49.7"/>
<rect x="195.8" y="135.6" class="st5" width="15.3" height="36"/>
<path class="st6" d="M173,177.2h60.3c1.9,0,3.4-1.5,3.3-3.4c0-0.6-0.1-1.1-0.4-1.6l-30.1-56c-0.9-1.6-2.9-2.3-4.6-1.4
	c-0.6,0.3-1.1,0.8-1.4,1.4l-30.1,56c-0.9,1.6-0.3,3.7,1.4,4.6C171.9,177,172.4,177.2,173,177.2z M207,167h-7.7v-7.7h7.7V167z
	 M207,154.2h-7.7v-15.3h7.7V154.2z"/>
<path class="st4" d="M173,177.2h60.3c1.9,0,3.4-1.5,3.3-3.4c0-0.6-0.1-1.1-0.4-1.6l-30.1-56c-0.9-1.6-2.9-2.3-4.6-1.4
	c-0.6,0.3-1.1,0.8-1.4,1.4l-30.1,56c-0.9,1.6-0.3,3.7,1.4,4.6C171.9,177,172.4,177.2,173,177.2z M207,167h-7.7v-7.7h7.7V167z
	 M207,154.2h-7.7v-15.3h7.7V154.2z"/>
<path class="st6" d="M173,179h60.3c1.9,0,3.4-1.5,3.3-3.4c0-0.6-0.1-1.1-0.4-1.6l-30.1-56c-0.9-1.6-2.9-2.3-4.6-1.4
	c-0.6,0.3-1.1,0.8-1.4,1.4l-30.1,56c-0.9,1.6-0.3,3.7,1.4,4.6C171.9,178.9,172.4,179,173,179z M207,168.8h-7.7v-7.7h7.7V168.8z
	 M207,156h-7.7v-15.3h7.7V156z"/>
<linearGradient id="SVGID_1_" gradientUnits="userSpaceOnUse" x1="112.1642" y1="555.8822" x2="242.2146" y2="555.8822" gradientTransform="matrix(1 0 0 -1 -83.88 669.32)">
	<stop  offset="0" style="stop-color:#808080;stop-opacity:0.25"/>
	<stop  offset="0.54" style="stop-color:#808080;stop-opacity:0.12"/>
	<stop  offset="1" style="stop-color:#808080;stop-opacity:0.1"/>
</linearGradient>
<path class="st7" d="M157.3,195.8c-0.3-0.2-0.6-0.4-0.9-0.5c-1.1-0.4-2.3-0.5-3.4-0.9c-0.6-0.2-1.2-0.6-1.7-1
	c-0.1-0.1-0.1-0.1-0.3-0.3c0.4-0.3,0.8-0.5,1.2-0.8c-1.3-2-3-3.7-5-5c0.6-1,2.2-0.9,3.1-1.7c0.5-0.4,0.7-1,0.8-1.6
	c0.3-1.6-0.1-3.3-0.5-4.9c-0.8-3.1-1.5-6.3-2.8-9.2c-0.6-1.2-1.1-2.5-1.5-3.7c-1.1-3.6-0.3-7.4-1.2-11.1c-0.3-1.2-0.6-2.4-0.4-3.5
	c0.5-1.8,2.4-2.8,2.9-4.6c1.6-6.4,1.9-13,2.7-19.5c0.2-1.3,0.3-2.5,0.3-3.7c0-1.3-0.3-2.6-0.3-3.9c-0.3-3.7,0.5-7.3,0.8-11
	c0.7,1.2,1.2,2.4,1.5,3.7c0.1,1.2,0.2,2.4,0.1,3.7c0,0.8-0.1,1.7-0.3,2.4c-0.2,0.9-0.6,1.9-0.8,2.8c-0.5,1.9-0.4,3.9,0.4,5.7
	c0.6,1.3,1.8,2.4,3.1,2c0.9-0.3,1.4-1.2,1.8-1.9c1.3-2.6,1.9-5.7,1.1-8.4c-0.6-1.9-1.8-3.5-1.9-5.5c0-0.8,0-1.5,0.2-2.3
	c0.5-4.5-0.6-9-0.8-13.5c0-1.2,0-2.7-0.2-3.9c0-0.1,0-0.3-0.1-0.5c0.1,0,0.2,0,0.3,0.1c0.3-0.7,0.3-1.6,0-2.3
	c-0.1-0.2-0.3-0.5-0.4-0.7c-0.1-0.4-0.1-0.9-0.3-1.3c-0.1-0.2-0.3-0.4-0.4-0.6c-0.5-0.8-0.6-1.8-0.6-2.7c0-4.9-0.2-9.8-0.4-14.6
	c-0.1-2.5-0.3-5-1.2-7.3c-0.7-2.1-2.1-3.8-3.9-5.1c-0.3-0.2-0.6-0.4-0.9-0.6c0.1-0.4,0.3-0.7,0.3-1.2c0-0.1,0-0.3,0-0.4v-0.2l0,0
	c-0.1-0.9-0.4-1.7-0.8-2.5c-0.5-0.8-0.7-1.8-0.8-2.7c0-0.1,0-0.4,0-0.5l0,0c0.1-1.2,0.8-2.3,1-3.5c0-0.4,0.1-0.7,0.1-1.2
	c0-0.1,0-0.3,0-0.4l0,0c-0.1-1.4-0.6-2.9-1.3-4.1c-0.2-0.4-0.4-0.8-0.6-1.3c-0.1-0.8-0.2-1.5-0.4-2.3c0-0.5-0.1-0.9-0.2-1.3
	c0-0.2-0.1-0.4-0.1-0.6c0.6-0.6,0.3-1.5-0.1-2.3c-0.8-1.5-0.6-3.4-0.9-5.1c-0.3-1.2-0.6-2.3-1.2-3.4c-0.3-0.8-0.8-1.5-1.3-2.2
	c-0.5-0.5-1.1-0.9-1.7-1.3c-0.5-0.4-1.1-0.6-1.7-0.8c-0.4,0-0.8,0-1.2-0.1c-0.3,0-0.5-0.1-0.6-0.3c-0.5-0.3-1-0.5-1.5-0.5
	c-0.5,0-1,0-1.4,0.3c-0.5,0.2-1,0.4-1.5,0.4c-0.2,0-0.4,0-0.6,0c-0.3,0-0.6,0-0.8,0.2c-0.1,0.1-0.3,0.2-0.4,0.4
	c-0.3,0.3-0.6,0.5-1,0.6c-3,1.8-4.8,4.9-4.8,8.4c0,0.5,0,0.9-0.1,1.3c-0.1,0.4-0.4,0.6-0.5,1c0,0.3-0.1,0.6,0,0.9
	c0,0.5,0.1,1,0.1,1.4l0,0c-0.3,0.4-0.5,0.8-0.6,1.3l0,0c0,0.1,0,0.1,0,0.3v0l0,0c0,0.9,0.4,1.7,0.6,2.5c0.4,1.6,0.4,3.2-0.1,4.9
	c-0.3,1.1-0.7,2.2-0.8,3.3l0,0v0c0,0.6,0,1.2,0.2,1.7c0.1,0.4,0.4,0.7,0.5,1.1c0.4,1.3-0.2,2.7-1,3.9l0,0c-0.1,0.2-0.3,0.4-0.4,0.5
	l0,0l0,0l0.9,0.6c-0.3,0.1-0.5,0.3-0.8,0.4c-1,0.1-1.9,0.5-2.8,1c-0.8,0.4-1.5,0.9-2.3,1.5c-0.7,0.7-1.3,1.5-1.8,2.5
	c-0.6,1-1.1,2.1-1.5,3.2c-0.4,0.9-0.6,1.8-0.8,2.8c-0.4,0.8-0.6,1.5-1,2.3c-0.1,0.4-0.3,0.8-0.5,1.2L96.9,35.1l-2.2,0.9l0.1,0.4
	l-0.5,0.2l0.6,1.5c-0.1,0-0.2,0.1-0.3,0.2l-0.1,0.1l-0.2,0.2l-0.1,0.1l-0.3,0.2L94,39l-0.3,0.3l0,0c-0.3,0.3-0.6,0.6-0.9,0.9
	l-0.8,0.8L91.8,41l-0.3,0.3l-0.1,0.1L91,41.8l0,0L90.8,42l-0.1,0.1c0,0-0.1,0.1-0.2,0.1l-0.1,0.1l-0.3,0.3l-0.2,0.1l-0.4,0.3
	c-0.5,0.4-1.1,0.8-1.7,1c-2.3,1.2-4.6,2.1-6.8,3.4c-1.2,0.6-2.3,1.4-3.4,2.4c-1.4,1.3-2.7,2.9-4.4,3.8L73,53.9
	c-3,1.5-6.5,0.6-9.9,0.6c-0.5,0-1,0-1.5,0c-2.7,0.2-5.3,1.3-7.7,2.7c-1.7,1-3.4,2-5.1,3c-1.1,0.6-2.1,1.3-3.2,1.9
	c-2.7,1.7-5.5,3.5-8.3,4.9c-2.6,1.2-5.4,1.9-8.2,1.8h0c-0.3,0-0.6,0-0.8,0c-0.3,2.2,1.4,3.9,2.6,5.8c0.6,0.8,0.9,1.8,1,2.7
	c0,0.4,0,0.7-0.1,1.1c-0.2,1.3-0.8,2.6-0.6,4c0.1,0.8,0.4,1.5,0.9,2.2c0.7,1,1.8,1.9,2.4,3.1c1,1.7,1.3,3.7,1.7,5.6
	c0.2,1.3,0.6,2.7,1.3,3.9c0.9,1.4,2.3,2.5,3.5,3.6c0.3,0.2,0.5,0.4,0.6,0.6c0.1,0.1,0.3,0.3,0.5,0.5c1.5,1.5,2.6,3.9,1.7,5.8
	c0,0,0,0.1-0.1,0.2c0,0,0.1,0.1,0.2,0.1c1.2,0.6,2.6-0.4,3.5-1.3c0.5-0.5,0.9-1,1.3-1.4c1.2-1.3,2.2-2.6,3.3-4
	c0.3-0.4,0.6-0.7,0.9-1c1.2-1.3,2.6-2.4,4.1-3.3c0.8-0.4,1.7-0.8,2.5-1c1.3-0.4,2.6-0.7,3.9-1.2c1.8-0.6,3.5-1.3,5.1-2.1
	c2.8-1.5,5.6-3.2,8.2-5.1l0.4-0.3c0.9-0.6,1.7-1.3,2.4-1.9c0.1-0.1,0.3-0.3,0.4-0.5c0.6-0.8,1-1.8,1.7-2.6c0.6-0.9,1.4-1.7,2.3-2.2
	c2.6-1.7,5.9-2.4,8.9-3.3h0c5.3-1.6,10.2-4.5,14-8.4l2.3,5.5c-0.3,0.6-0.5,1.3-0.6,1.9c-0.5,1.7-0.9,3.3-1.9,4.8
	c-0.3,0.4-0.6,0.8-0.7,1.3c0,0.4,0,0.6-0.1,1c-0.1,0.3-0.4,0.5-0.6,0.8c-0.1,0.4,0,0.9-0.1,1.3c-0.1,0.1-0.3,0.3-0.4,0.4
	c-0.6,0.5-0.7,1.3-0.7,2.1c0,0.8,0,1.5-0.2,2.3c0.1-0.1,0.4-0.2,0.5-0.3c0,0.1,0,0.3,0,0.4c0,0.4,0,0.8,0.1,1.2
	c0.3,0.9,0.6,1.7,1.2,2.4c0.4,0.6,0.8,1.3,1.3,1.9c0.8,0.9,1.8,1.7,2.7,2.4l4.1,3.2l-0.4,1.8c-0.9,3.6-1.8,7.3-1.9,11.1
	c0,1.8,0.1,3.6,0.3,5.3l0.4,3.6c0.3,2.9,0.6,5.8,0.9,8.7c0.2,1.9,0.4,3.7,1.1,5.4c1,2.6-0.1,5.7,0.3,8.4c0.3,2.2,1,4.5,0.3,6.6
	c-0.3,0.8-0.7,1.6-1.1,2.4c-0.8,2-0.9,4.3-1,6.4c-0.1,1.9,0,3.9,0.2,5.8c0.4,1.9,1.2,3.9,1,5.9c-0.2,2.8-2.3,5.3-2.6,8.1
	c-0.2,2.3,0.8,4.5,1.9,6.4c0.8,1.5-0.3,3.4-0.7,5c-0.8,3.2,0.6,6.5,2.2,9.4c0,0.1,0.1,0.1,0.2,0.2c0.2,0,0.4-0.1,0.5-0.3
	c0.1-0.1,0.1-0.2,0.3-0.3c0,0.1,0,0.3,0,0.4c0,0.3,0,0.5,0,0.8c0,1,0.2,2.1,0.6,3.1c0,0.2,0.1,0.4,0.2,0.6c0.1,0.3,0.3,0.5,0.4,0.6
	c0.5,0.4,1,0.6,1.7,0.6c1.3,0.1,2.7-0.1,4.1-0.3c1.4-0.1,2.9,0,4.4-0.1c0.1,0,0.2,0,0.3,0c0.1,0,0.1-0.1,0.2-0.3
	c0.1-0.5,0.2-1.1,0-1.6c-0.1-0.4-0.2-0.9-0.3-1.3c-0.2-0.6-0.4-1.3-0.5-2.1c0-0.1,0-0.3-0.1-0.4l0,0c0.9-2,1.8-4,2.7-6
	c0.5-1,0.9-2.1,0.6-3.2c-0.1-0.8-0.6-1.4-1-2.1c-0.8-1.7-0.9-3.6-0.9-5.5l0-10.6c2.1-2.6,3.3-5.7,4.1-9c1.3,4.6,1.3,9.4,0.3,14
	c-0.2,0.7-0.3,1.4-0.4,2.1c-0.1,3,2.1,5.4,2.7,8.3c0,0.2,0,0.5,0,0.6c0,0.3-0.2,0.6-0.4,0.8c-1.1,2-1,4.5-0.8,6.7l0.5,0.1
	c0.1,0.2,0.3,0.4,0.5,0.5l0,0c0.2,0.1,0.4,0.2,0.6,0.3c0.8,0.2,1.6,0.3,2.4,0.4c1.2,0.1,2.3,0.2,3.5,0.3c0.5,0,0.9,0,1.4,0
	c0.6,0,1.3,0,1.9,0.1c0.7,0.1,1.4,0.4,2.1,0.6c3,1,6.4,1.6,9.3,0.3c0.6-0.3,1.3-0.6,1.7-1.2c0.7-0.8,0.7-2.1-0.1-2.8
	C157.6,195.9,157.4,195.8,157.3,195.8L157.3,195.8z M117.4,78.3c0.4,0.9,0.9,1.8,1.3,2.6c0.7,1.8,1.2,3.7,0.6,5.5
	c-0.1,0.5-1,0.9-1,1.5c0,0,0,0.1,0,0.1l-2.7-6.6C116.1,80.4,116.7,79.3,117.4,78.3z M114.5,92.3c-0.6-0.8-1.1-1.6-1.4-2.6
	c0-0.1-0.1-0.2-0.1-0.3c0.1,0,0.3-0.1,0.4-0.3c0.4-0.5,0.2-1.3,0.3-1.9c0.1-0.6,0.3-1.2,0.6-1.7l2.6,6.2c-0.3,0.6-0.5,1.3-0.7,2
	C115.4,93.3,114.9,92.8,114.5,92.3z"/>
<path class="st6" d="M123.4,36.7c0,0.9,0.4,1.7,0.6,2.5c0.4,1.6,0.4,3.2-0.1,4.9c-0.5,1.7-1.3,3.4-0.6,5c0.1,0.4,0.4,0.7,0.5,1.1
	c0.5,1.5-0.4,3.2-1.5,4.5l4.1,2.8c0.6,0.5,1.3,0.8,2.1,1c0.8,0.1,1.7-0.3,1.8-1.1c0-0.3,0-0.5,0-0.8c0.1-0.6,0.5-1.3,1.2-1.6
	c0.6-0.3,1.3-0.4,1.9-0.4c2.5,0.1,4.6,1.8,6.9,2.8c1.5,0.6,3.1,1.2,4.6,1.5c0.9,0.3,1.9,0.5,2.7,0c0.8-0.5,1.2-1.5,1.2-2.4
	c-0.1-0.9-0.4-1.9-0.9-2.7s-0.7-1.8-0.8-2.7c0-1.4,0.8-2.6,1-4c0.4-1.9-0.4-3.9-1.3-5.7c-0.9-1.8-1.9-3.5-2.4-5.4
	c-0.1-0.6-0.3-1.2-0.5-1.7c-0.2-0.4-0.5-0.8-0.8-1.1c-1.5-1.5-3.7-2.2-5.8-2.4c-2.1-0.1-4.3,0.2-6.4,0.6c-0.8,0.1-1.6,0.3-2.4,0.6
	c-1.1,0.4-2.2,1-3.1,1.7C124.4,34.5,123.4,35.5,123.4,36.7z"/>
<g class="st8">
	<path d="M147,50.4c0,0.1,0,0.3,0,0.4c0.1-1.2,0.8-2.3,1-3.6c0.1-0.5,0.1-1,0.1-1.4c0,0.2,0,0.4-0.1,0.6C147.8,47.7,147,49,147,50.4
		z"/>
	<path d="M124.3,40.8c0-0.8,0-1.7-0.3-2.5c-0.3-0.6-0.5-1.3-0.6-1.9c0,0.1,0,0.1,0,0.3c0,0.9,0.4,1.7,0.6,2.5
		C124.1,39.7,124.3,40.2,124.3,40.8z"/>
	<path d="M148.6,56.3c0,0.7-0.5,1.4-1.1,1.8c-0.8,0.5-1.8,0.3-2.7,0c-1.6-0.4-3.2-0.9-4.6-1.5c-2.3-1-4.4-2.7-6.9-2.8
		c-0.6,0-1.3,0-1.9,0.4c-0.6,0.3-1,0.9-1.2,1.6c0,0.3,0,0.5,0,0.8c-0.1,0.8-1,1.2-1.8,1.1c-0.8-0.1-1.4-0.5-2.1-1l-3.7-2.6
		c-0.1,0.2-0.3,0.4-0.4,0.5l4.1,2.8c0.6,0.5,1.3,0.8,2.1,1c0.8,0.1,1.7-0.3,1.8-1.1c0-0.3,0-0.5,0-0.8c0.1-0.6,0.5-1.3,1.2-1.6
		c0.6-0.3,1.3-0.4,1.9-0.4c2.5,0.1,4.6,1.8,6.9,2.8c1.5,0.6,3.1,1.2,4.6,1.5c0.9,0.3,1.9,0.5,2.7,0s1.2-1.5,1.2-2.4
		C148.7,56.5,148.7,56.4,148.6,56.3z"/>
	<path d="M123.6,50.1c0,0.1,0.1,0.3,0.1,0.5c0-0.5,0-0.9-0.1-1.3c-0.1-0.4-0.3-0.7-0.5-1.1c-0.1-0.3-0.1-0.6-0.2-0.8
		c0,0.6,0,1.2,0.2,1.7C123.4,49.3,123.6,49.7,123.6,50.1z"/>
</g>
<path class="st6" d="M128.5,206.4c0,0.1-0.1,0.2-0.2,0.3c-0.1,0-0.2,0-0.3,0c-1.4,0-3,0-4.4,0.1c-1.4,0.1-2.8,0.4-4.1,0.3
	c-0.9,0-1.7-0.5-2.1-1.3c-0.1-0.1-0.1-0.4-0.2-0.6c-0.4-1-0.6-2-0.6-3.1c0-0.3,0-0.6,0-0.8c0-0.3,0-0.6-0.1-0.9
	c-0.1-0.4-0.1-0.7,0-1c0.6-1.1,2-1.3,3.1-1.3c2.6-0.2,5.1,0,7.5,0.6c0.2,0.9,0.4,1.9,0.6,2.8c0.1,0.6,0.4,1.4,0.6,2.1
	c0.1,0.4,0.3,0.9,0.3,1.3C128.7,205.3,128.7,205.9,128.5,206.4z"/>
<path class="st9" d="M128.5,206.4c0,0.1-0.1,0.2-0.2,0.3c-0.1,0-0.2,0-0.3,0c-1.4,0-3,0-4.4,0.1c-1.4,0.1-2.8,0.4-4.1,0.3
	c-0.9,0-1.7-0.5-2.1-1.3c-0.1-0.1-0.1-0.4-0.2-0.6h0.5c1.8,0,3.5,0,5.2,0c0.5,0,1,0,1.5-0.1c0.5,0,0.9-0.1,1.4-0.2
	c0.7,0,1.4-0.1,2.1-0.1h0.6C128.7,205.3,128.7,205.9,128.5,206.4z"/>
<path class="st6" d="M158.9,198.7c-0.5,0.5-1,0.9-1.7,1.2c-3,1.3-6.3,0.6-9.4-0.3c-0.6-0.3-1.4-0.5-2.1-0.6
	c-0.6-0.1-1.3-0.1-1.9-0.1c-0.5,0-0.9,0-1.4,0c-1.2,0-2.4-0.2-3.5-0.3c-0.8,0-1.6-0.2-2.4-0.4c-0.2,0-0.5-0.1-0.6-0.3l0,0
	c-0.4-0.1-0.6-0.5-0.6-0.9c0-0.5,0.6-0.8,1-1c4.2-1.8,8.9-2.6,13.4-3.2c0.5-0.1,0.9-0.2,1.3-0.4c0.5-0.2,0.6,0.1,0.8,0.5
	c0.1,0.1,0.3,0.4,0.4,0.5c0.5,0.5,1.1,0.8,1.7,1c1.2,0.4,2.3,0.5,3.4,0.9c0.4,0.1,0.6,0.3,1,0.5c1,0.5,1.3,1.7,0.8,2.7
	C159,198.5,158.9,198.6,158.9,198.7L158.9,198.7z"/>
<path class="st9" d="M158.9,198.7c-0.5,0.5-1,0.9-1.7,1.2c-3,1.3-6.3,0.6-9.4-0.3c-0.6-0.3-1.4-0.5-2.1-0.6
	c-0.6-0.1-1.3-0.1-1.9-0.1c-0.5,0-0.9,0-1.4,0c0.4-0.4,0.8-0.7,1.2-1c0.3-0.3,0.6-0.5,1-0.6c0.5-0.1,0.9-0.1,1.4-0.1
	c2.4,0.3,4.5,1.9,6.9,1.8c1.1-0.1,2.2-0.5,3.2-1c0.8-0.3,1.5-0.8,2.1-1.4c0.1-0.2,0.3-0.5,0.4-0.7c1,0.5,1.3,1.7,0.8,2.7
	C159.1,198.5,159,198.6,158.9,198.7L158.9,198.7z"/>
<path class="st10" d="M158.1,127.1c-0.4,0.8-0.9,1.7-1.8,1.9c-1.3,0.4-2.6-0.8-3.1-2c-0.8-1.8-0.9-3.8-0.4-5.7
	c0.3-0.9,0.6-1.9,0.8-2.8c0.1-0.8,0.3-1.6,0.3-2.4c0.1-1.3,0.1-2.4-0.1-3.7c-0.6-3.5-3.7-6.2-4.7-9.6c-0.5-1.8-0.5-3.6-0.5-5.4
	c0-0.5,0-0.9,0.1-1.3c0-0.1,0-0.3,0.1-0.4c0.6-1.5,2.7-1.7,4.1-2.6c0.8-0.5,2.6-2,3.2-0.6c0.1,0.3,0.3,0.6,0.3,1
	c0.3,1.3,0.1,2.7,0.2,3.9c0.3,4.5,1.4,9,0.8,13.4c-0.1,0.8-0.2,1.5-0.2,2.3c0.1,1.9,1.3,3.6,1.9,5.5
	C160,121.5,159.3,124.5,158.1,127.1z"/>
<path class="st4" d="M156.3,93.6c-0.3-0.1-0.6-0.1-0.9,0l-2.8,0.8c-1,0.3-1.9,0.6-2.8,1c-0.4,0.2-0.8,0.4-1.2,0.7
	c0-0.1,0-0.3,0.1-0.4c0.6-1.5,2.7-1.7,4.1-2.6c0.8-0.5,2.6-2,3.2-0.6C156.2,92.9,156.3,93.2,156.3,93.6z"/>
<path class="st6" d="M156.5,93.2c-0.4-0.2-0.8-0.3-1.2-0.1l-2.8,0.8c-1,0.3-1.9,0.6-2.8,1c-0.5,0.3-0.9,0.5-1.3,0.9
	c-1.3-2.3-1.7-5-1.9-7.6c-0.1-1.5-0.2-3.1-0.3-4.5c0-1.1,0-2.2,0-3.2c0.1-1.3,0.5-2.4,0.7-3.7c0.1-0.7,0.2-1.4,0.3-2.2
	c0.1-1.6,0-3.2-0.2-4.8c-0.3-1.7-0.6-3.3-1.2-5c-0.3-0.7-0.6-1.4-0.9-2.2l-0.1-0.3c-0.5-1.3-0.9-2.7-1.3-4.1
	c-0.1-0.6-0.1-1.2-0.6-1.5c0.4,0,0.8,0,1.3,0c0.1,0,0.1,0,0.3,0c1.7,0.1,3.3,0.6,4.7,1.7c1.8,1.3,3.2,3.1,3.9,5.1
	c0.9,2.3,1,4.9,1.2,7.3c0.2,4.9,0.4,9.7,0.4,14.6c0,0.9,0,1.9,0.6,2.7c0.1,0.2,0.3,0.4,0.4,0.6c0.2,0.4,0.1,0.9,0.3,1.3
	c0.1,0.3,0.3,0.5,0.4,0.7C156.8,91.7,156.8,92.5,156.5,93.2z"/>
<path class="st10" d="M129.1,44.9c-0.4-0.1-0.8-0.3-1.3-0.4l0.9,0C128.9,44.7,129,44.7,129.1,44.9z"/>
<path class="st10" d="M146,59.7c-0.1,0.3-0.1,0.6-0.3,0.8c-0.2,0.6-0.5,1.3-0.8,1.9c-0.5,1-1.2,2-1.9,2.8c-0.3,0.3-0.6,0.5-1,0.6
	c-0.3,0.1-0.6,0.1-0.9,0.1c-1.1,0-2.2,0-3.3,0c-0.9,0-1.7,0-2.6-0.3c-0.9-0.3-1.8-0.6-2.6-1.2c-3.1-1.9-5.6-4.8-6.7-8.2
	c-0.1-0.4-0.2-1,0-1.3c0.3-0.3,0.6-0.4,1-0.4h0c0.9-0.1,1.8-0.4,2.6-0.9c0.5-0.3,0.9-0.6,1.2-1.2c0.1-0.6,0.1-1.3,0-1.8l-0.9-4.1
	c-0.1-0.6-0.4-1.3-0.7-1.9c0.3,0.1,0.5,0.2,0.8,0.3c2.6,0.6,5.3,0.3,7.8,1.2c0.9,0.4,1.9,1,2.2,1.9c0.5,1.7-1.2,3.3-0.6,5
	c0.3,1.2,1.4,1.8,2.5,2.3l0.6,0.4l1.9,1l0.3,0.1h0c0.6,0.3,1.3,0.6,1.4,1.3C146.2,58.9,146.1,59.4,146,59.7z"/>
<path class="st4" d="M151,69.4c0,1-0.3,2.1-0.8,3.1c-0.8,1.7-1.3,3.5-1.3,5.4c-0.3,5.6-2.4,12.2,0.6,16.8c0,0.1,0.1,0.2,0.2,0.4
	c-0.5,0.3-0.9,0.5-1.3,0.9c-1.3-2.3-1.7-5-1.9-7.6c-0.1-1.5-0.2-3.1-0.3-4.5c0-1.1,0-2.2,0-3.2c0.1-1.3,0.5-2.4,0.7-3.7
	c0.1-0.7,0.2-1.4,0.3-2.2c0.1-1.6,0-3.2-0.2-4.8c-0.3-1.7-0.6-3.3-1.2-5c-0.3-0.7-0.6-1.4-0.9-2.2l-0.1-0.3c-0.5,1-1.2,2-1.9,2.8
	c-0.3,0.3-0.6,0.5-1,0.6c-0.3,0.1-0.6,0.1-0.9,0.1c-1.1,0-2.2,0-3.3,0c-0.9,0-1.7,0-2.6-0.3c-0.9-0.3-1.8-0.6-2.6-1.2
	c-3.1-1.9-5.6-4.8-6.7-8.2c-0.1-0.4-0.2-1,0-1.3c0.3-0.3,0.6-0.4,1-0.4h0l3.7,4.6c0.4,0.5,0.8,1,1.1,1.6c0,0.2,0.1,0.4,0.3,0.5
	c0.1,0,0.3,0.1,0.4,0c3.5,0,8.1,0,11.6,0c0-0.6-0.1-1.3-0.5-1.8c-0.1,0-0.3,0,0,0c-0.2-1.3-0.6-2.6-1.3-3.8c0-0.1-0.1-0.1-0.1-0.3
	c-0.3-0.4-0.5-0.9-0.6-1.3c0.5-0.1,0.9-0.1,1.3,0c0.5,0.2,0.8,0.8,1,1.3c0.2,0.4,0.4,0.8,0.6,1.3c0,0,0,0.1,0,0.1
	c0.4,0.8,0.6,1.8,0.6,2.7c0,0.4,0.1,0.8,0.4,0.9c0,0,0.1,0,0.1,0c0.6-0.2,1.3,0,1.7,0.4c0.4,0.5,0.6,1,0.8,1.6
	c0.1,0.6,0.3,1.2,0.6,1.8c0.5,1-0.3,1.4,0.6,2.1c0.5,0.3,0.8,0.6,1.2,1C151,68.1,151.1,68.8,151,69.4z"/>
<path class="st4" d="M127.1,198.6c0.2,0.9,0.4,1.9,0.6,2.8v0c-1.9-0.8-3.8-1.7-5.8-1.9c-1.9-0.1-4,0.4-5.3,1.8c0-0.3,0-0.6-0.1-0.9
	c-0.1-0.4-0.1-0.7,0-1c0.6-1.1,2-1.3,3.1-1.3C122.1,197.9,124.6,198.1,127.1,198.6z"/>
<path class="st4" d="M143.3,60.6C143.5,60.6,143.4,60.6,143.3,60.6C143.3,60.6,143.1,60.6,143.3,60.6z"/>
<path class="st4" d="M152.3,193.3c-1.9,1.2-3.6,2.6-5.1,4c-0.5,0.5-1,0.9-1.6,1.2c-0.6,0.2-1.3,0.3-1.9,0.2
	c-2.6-0.1-5.1-0.4-7.7-0.8l0,0c-0.4-0.1-0.6-0.5-0.6-0.9c0-0.5,0.6-0.8,1-1c4.2-1.8,8.9-2.6,13.4-3.2c0.5-0.1,0.9-0.2,1.3-0.4
	c0.5-0.2,0.6,0.1,0.8,0.5C151.9,192.9,152.1,193.1,152.3,193.3z"/>
<path class="st11" d="M122,55.8c0.6,0.5,1.3,1,1.9,1.5c1.7,1.4,2.7,3.3,3.7,5.3c-0.6,0.2-1.3,0.3-1.9,0.1c-0.3,1.8-0.3,3.7,0.1,5.5
	c-0.8,0.6-1.4,1.3-1.9,2.3c-0.3,0.9-0.5,1.9-0.6,2.9c-0.6,4.3-1.2,8.6-1.8,12.9c0,0.4-0.1,0.8-0.4,1.2c-0.1,0.1-0.2,0.2-0.3,0.3
	c-0.1,0.3-0.1,0.6-0.1,0.9c0,0.3-0.2,0.6-0.5,0.6c-0.1,0-0.3-0.1-0.4-0.3c-0.3-0.3-0.6-0.6-0.8-1c-2.4,4.6-3.6,9.6-4.9,14.8
	c-0.9,3.6-1.9,7.3-1.9,11.1c0,1.8,0.1,3.6,0.3,5.3l0.4,3.6c0.3,2.9,0.6,5.8,0.9,8.7c0.2,1.9,0.4,3.7,1.1,5.4c1,2.6-0.1,5.7,0.3,8.4
	c0.3,2.2,1,4.5,0.3,6.6c-0.3,0.8-0.7,1.6-1.1,2.4c-0.8,2-0.9,4.3-1,6.4c-0.1,1.9,0,3.9,0.2,5.8c0.4,1.9,1.2,3.9,1,5.9
	c-0.2,2.8-2.3,5.3-2.6,8.1c-0.2,2.3,0.8,4.5,1.9,6.4c0.8,1.5-0.3,3.4-0.7,5c-0.8,3.2,0.6,6.5,2.2,9.4c0,0.1,0.1,0.1,0.2,0.2
	c0.2,0,0.4-0.1,0.5-0.3c1.3-1.6,3.5-2.2,5.6-2.1c2.1,0.1,4,1,5.8,1.9l2.7-5.9c0.5-1,0.9-2.1,0.6-3.2c-0.1-0.8-0.6-1.4-1-2.1
	c-0.8-1.7-0.9-3.6-0.9-5.5l0-10.6c2.1-2.6,3.3-5.7,4.1-9c1.3,4.6,1.3,9.4,0.3,14c-0.2,0.7-0.3,1.4-0.4,2.1c-0.1,3,2.1,5.4,2.7,8.3
	c0,0.2,0,0.5,0,0.6c0,0.3-0.2,0.6-0.4,0.8c-1.1,2-1,4.5-0.8,6.7c2.9,0.5,5.8,0.8,8.7,0.9c0.6,0,1.3,0,1.9-0.2
	c0.6-0.3,1.2-0.7,1.6-1.2c1.9-1.8,3.9-3.3,6.2-4.6c-1.3-2-3-3.7-5-5c0.6-1,2.2-0.9,3.1-1.7c0.5-0.4,0.7-1,0.8-1.6
	c0.3-1.6-0.1-3.3-0.5-4.9c-0.8-3.1-1.6-6.3-2.9-9.2c-0.6-1.2-1.1-2.5-1.5-3.7c-1.1-3.6-0.3-7.4-1.2-11.1c-0.3-1.2-0.6-2.4-0.4-3.5
	c0.5-1.8,2.5-2.8,2.9-4.6c1.6-6.4,1.9-13,2.8-19.4c0.2-1.3,0.3-2.5,0.3-3.8c0-1.3-0.3-2.6-0.3-3.9c-0.4-5.2,1.3-10.5,0.9-15.7
	c-0.3-3.2-1.3-6.4-3.1-9c-3.1-4.6-0.9-11.3-0.6-16.8c0-1.9,0.5-3.7,1.3-5.4c0.4-1,0.6-2,0.8-3.1c0.1-0.6,0-1.3-0.2-1.9
	c-0.3-0.4-0.6-0.8-1.2-1c-1-0.6-0.1-1.1-0.6-2.1c-0.3-0.6-0.5-1.2-0.6-1.8c-0.1-0.6-0.4-1.2-0.8-1.6c-0.4-0.5-1.1-0.6-1.7-0.4
	c-0.4,0-0.5-0.5-0.5-0.9c-0.1-1.4-0.7-2.8-1.3-4.1c-0.2-0.5-0.5-1-1-1.3c-0.5-0.1-0.9-0.1-1.3,0c0.1,0.5,0.3,0.9,0.6,1.3
	c0.7,1.3,1.2,2.6,1.4,4c-0.4,0.1,0.4,0,0,0c0.4,0.5,0.6,1.2,0.5,1.8c-3.5,0-8.1,0-11.6,0c-0.1,0-0.3,0-0.4,0
	c-0.1-0.1-0.3-0.3-0.3-0.5c-0.3-0.6-0.6-1.2-1.1-1.6l-4.1-5c-0.1-0.1-0.2-0.3-0.4-0.3c-0.1,0-0.4,0-0.5,0
	C124.2,54.6,123.2,55.1,122,55.8z"/>
<path class="st4" d="M136.7,123.9c0.7,0,1.4,0.1,2,0.5c0.6,0.4,1,1,1,1.8c0,0.8-0.6,1.4-1.1,2.1c-0.3,0.4-0.5,0.8-0.6,1.3
	c0,0.1,0,0.2,0,0.3c0,0.1,0.2,0.3,0.4,0.3c1.1,0.5,1.8,1.5,1.8,2.7c0,1.6-1.6,2.9-1.5,4.5c0,0.4,0.1,0.6,0.1,1
	c0.2,1.4,0,2.8-0.6,4.1c-0.5,1.3-1.2,2.6-1.7,3.8c-1.4,3.5-1.8,7.3-1.7,11.1c0.1,2.6-0.8,5-1.7,7.5c0.5-4.9,0.6-9.9,0.4-14.8
	c0-1.3-0.2-2.6-0.1-4c0.1-2.1,1.3-4.1,1.6-6.2c0.1-1.2,0-2.4,0.1-3.6c0-2.5,0.7-4.9,0.8-7.4C135.9,127.1,135.7,125.3,136.7,123.9z"
	/>
<path class="st6" d="M119.5,56.7c-0.8,0.4-1.6,0.9-2.3,1.5c-0.7,0.7-1.3,1.5-1.8,2.5c-0.6,1-1.1,2.1-1.5,3.2c-0.6,1.4-1.1,3-0.6,4.5
	c0.4,1.3,1.4,2.4,2.1,3.6s1.2,2.6,1.7,3.9c0.7,1.8,1.7,3.3,2.4,5.1c0.7,1.8,1.2,3.7,0.6,5.5c-0.1,0.5-1,0.9-1,1.5
	c0,0.9,1.3,1.9,2.2,2.2c1,0.3,2.1-0.1,2.9-0.8c1.5-1.2,2.4-3,3.1-4.8c1.1-2.9,1.7-5.9,2.2-9c0.4-2.2,0.7-4.5,0.9-6.7
	c0.2-2,0.3-4.1-0.3-6c-0.5-1.8-1.4-3.4-2.8-4.7c-1.1-1-2.8-2.4-4.4-2.4C121.7,55.6,120.5,56.1,119.5,56.7z"/>
<path class="st10" d="M131.2,106.3c-0.1,0.6-0.4,1.1-0.9,1.4c-0.5,0.3-1,0.5-1.5,0.6c-1.1,0.3-2.3,0.6-3.4,0.3
	c-0.9-0.3-1.7-0.7-2.4-1.3l-12.5-9.6c-1-0.7-1.9-1.5-2.7-2.4c-0.5-0.6-0.9-1.2-1.3-1.9c-0.5-0.7-0.9-1.5-1.2-2.4
	c-0.1-0.4-0.1-0.8-0.1-1.2s0.1-0.7,0.3-1c0.3-0.5,0.9-0.6,1.4-0.7c1.8-0.5,3.6-0.6,5.4-0.4c0.3,0,0.6,0.2,0.7,0.5
	c0.3,0.5,0.5,1,0.8,1.5c0.4,0.9,0.9,1.8,1.4,2.6c0.6,0.6,1.2,1.3,1.8,1.8c1.3,1.3,2.4,2.7,3.8,3.9c1.6,1.3,3.6,2.1,5.5,3.1
	c1.9,1,3.7,2.2,4.6,4.1C131.1,105.4,131.2,105.9,131.2,106.3z"/>
<path class="st4" d="M145.6,39.7c0,5.7-4.5,10.2-10.2,10.2s-10.2-4.5-10.2-10.2s4.5-10.2,10.2-10.2c4.7,0,8.8,3.2,9.9,7.8
	C145.5,38.1,145.6,38.9,145.6,39.7z"/>
<path class="st10" d="M145.6,39.3c0,5.7-4.5,10.2-10.2,10.2s-10.2-4.5-10.2-10.2s4.5-10.2,10.2-10.2c4.7,0,8.8,3.2,9.9,7.8
	C145.5,37.7,145.6,38.5,145.6,39.3z"/>
<path class="st4" d="M113.7,89.8c-0.5,0.3-1.2,0.2-1.8,0c-2.3-0.5-4.8-0.9-6.9,0.1c0-0.4,0.1-0.7,0.3-1c0.3-0.5,0.9-0.6,1.4-0.7
	c1.8-0.5,3.6-0.6,5.4-0.4c0.3,0,0.6,0.2,0.7,0.5C113.2,88.7,113.4,89.2,113.7,89.8z"/>
<path class="st6" d="M109.4,75.9c-0.5,1.7-0.9,3.3-1.9,4.8c-0.3,0.4-0.6,0.8-0.7,1.3c0,0.4,0,0.6-0.1,1c-0.1,0.3-0.4,0.5-0.6,0.8
	c-0.1,0.4,0,0.9-0.2,1.3c-0.1,0.1-0.3,0.3-0.4,0.4c-0.6,0.5-0.7,1.3-0.7,2.1c0,0.8,0,1.5-0.2,2.3c2.2-1.3,5-0.9,7.4-0.4
	c0.6,0.1,1.5,0.3,1.9-0.3c0.4-0.5,0.2-1.3,0.3-1.9c0.1-0.9,0.6-1.6,1-2.4c0.4-0.9,0.6-1.9,0.9-2.8c0.6-1.9,2.1-3.5,3-5.4
	c0.3-0.6,0.5-1.3,0.6-2c0-0.9-0.3-1.8-0.7-2.6c-0.9-1.9-1.9-3.7-3.1-5.4c-0.5-0.8-1.4-2.2-2.2-1c-0.6,1-1.1,2.3-1.5,3.3
	C111,71.2,110.2,73.5,109.4,75.9z"/>
<path class="st6" d="M146.6,59.9c-2.5,0.1-5-0.8-6.7-2.6c-0.1-0.1-0.3-0.3-0.3-0.5c0-0.3,0-0.5,0.2-0.6c0.5-0.8,1.3-1.3,1.8-2.1
	s0.3-1.8,0.3-2.6c0-1.6,0.7-3.2,0.8-4.8c0-0.4,0-0.8-0.1-1.2c-0.2-0.6-0.3-1.2-0.4-1.8c0-1.2,1.2-2.2,1.3-3.3c0.3-1.5-1-2.8-2.3-3.7
	c-1-0.6-2-1.2-3.1-1.6c-0.6-0.3-1.4-0.4-2.1-0.5c-1.3-0.1-2.7,0-3.9,0.5c-0.5,0.2-1,0.5-1.4,0.8c-0.3,0.1-0.5,0.4-0.6,0.6
	c-0.1,0.3-0.2,0.6-0.1,1c0,1.7,0.1,3.5-0.6,5c-0.4,0.8-1.2,1.4-1.4,2.3c-0.1,0.4-0.2,0.7-0.3,1.1c0,0.4,0,0.8,0,1.2
	c0,2.2,0,4.5,1.1,6.4c0.4,0.6,0.7,1.2,1,1.8c0.3,0.6,0.3,1.4-0.1,1.9c-0.2,0.3-0.5,0.5-0.8,0.6c-1.7,0.8-3.6,0.9-5.3,0.2
	c2-1.9,2.6-4.9,1.5-7.5c-0.3-0.5-0.5-1.1-0.6-1.7c0-0.5,0.2-1,0.4-1.5c0.6-1.5,0.6-3.2,0.3-4.8c-0.3-1-0.6-1.9-0.8-3
	c0-0.8,0-1.5,0.1-2.3c0.5-2.7,2.4-5,5.1-5.8c0.2,0,0.4-0.1,0.6-0.2c1-0.2,2-0.3,3.1-0.3c2.3,0,4.6-0.1,6.8,0.5
	c1.3,0.4,2.5,1,3.5,1.8c0.7,0.6,1.3,1.4,1.7,2.3c0.2,0.5,0.4,1,0.5,1.5c0.1,0.5,0.1,0.9,0.3,1.3c0.5,3.2,1,6.4,0.5,9.6
	c-0.2,1.3-0.6,2.5-0.7,3.7C145.1,54.2,145.9,57,146.6,59.9z"/>
<circle class="st12" cx="131.9" cy="63.2" r="0.8"/>
<circle class="st12" cx="144.8" cy="62.8" r="0.8"/>
<path class="st4" d="M131.9,24.5l-1.7-3.1c0.1-0.1,0.2-0.3,0.4-0.4c0.3-0.1,0.5-0.2,0.8-0.2L131.9,24.5z"/>
<path class="st4" d="M136.5,20.7l-1.9,2.7l-1.1-3.1c0.5-0.2,0.9-0.3,1.4-0.3C135.5,20.3,136,20.4,136.5,20.7z"/>
<g class="st8">
	<path d="M129.4,56c-0.2,0.3-0.5,0.5-0.8,0.6c-1.4,0.7-3.2,0.8-4.7,0.4c-0.2,0.2-0.4,0.4-0.6,0.6c1.7,0.6,3.6,0.6,5.3-0.2
		c0.3-0.1,0.6-0.4,0.8-0.6c0.3-0.4,0.4-0.9,0.3-1.4C129.6,55.6,129.5,55.8,129.4,56z"/>
	<path d="M124.9,42.2c0.1,0.5,0.2,1.1,0.3,1.7c0-0.8,0-1.7-0.3-2.5c-0.3-1-0.6-1.9-0.8-3c0-0.1,0-0.3,0-0.4c0,0.4,0,0.8,0,1.2
		C124.3,40.2,124.7,41.2,124.9,42.2z"/>
	<path d="M146.3,47.5c0.1-1.1,0.3-2.2,0.2-3.3c0,0.8-0.1,1.7-0.2,2.5c-0.2,1.3-0.6,2.5-0.7,3.7c-0.1,0.6-0.1,1.3-0.1,2
		c0-0.4,0-0.8,0.1-1.3C145.7,50,146,48.8,146.3,47.5z"/>
	<path d="M124.9,49.3c-0.2-0.4-0.4-0.8-0.5-1.3c0,0.1,0,0.3,0,0.5c0.1,0.6,0.3,1.2,0.6,1.7c0.3,0.6,0.5,1.4,0.5,2.2
		C125.4,51.3,125.3,50.3,124.9,49.3z"/>
	<path d="M142.5,45.3c0,0.2,0,0.4,0.1,0.6c0,0,0-0.1,0-0.2c0-0.4,0-0.8-0.1-1.2c-0.1-0.4-0.3-0.9-0.3-1.3c0,0.1,0,0.2,0,0.3
		C142.1,44.1,142.3,44.7,142.5,45.3z"/>
	<path d="M139.9,56.4c0,0-0.1-0.1-0.1-0.2c-0.1,0.1-0.1,0.4-0.1,0.6s0.1,0.4,0.3,0.5c1.7,1.9,4.1,2.8,6.7,2.6c0-0.3-0.1-0.5-0.2-0.8
		C143.9,59.2,141.5,58.2,139.9,56.4z"/>
	<path d="M143.4,39.4C143.4,39.4,143.4,39.4,143.4,39.4c0.3-1.5-1-2.9-2.3-3.8c-1-0.6-2-1.2-3.1-1.6c-0.6-0.3-1.4-0.4-2.1-0.5
		c-1.3-0.1-2.7,0-3.9,0.5c-0.5,0.2-1,0.5-1.4,0.8c-0.3,0.1-0.5,0.4-0.6,0.6c-0.1,0.3-0.2,0.6-0.1,1c0,0.3,0,0.6,0,0.9v0
		c0-0.4,0-0.6,0.1-1c0.1-0.3,0.4-0.5,0.6-0.6c0.5-0.3,0.9-0.6,1.4-0.8c1.3-0.5,2.6-0.6,3.9-0.5c0.7,0.1,1.4,0.3,2.1,0.5
		c1.1,0.4,2.2,0.9,3.1,1.6C142.2,37.2,143.3,38.2,143.4,39.4z"/>
	<path d="M129.1,41.4c-0.4,0.8-1.2,1.4-1.4,2.3c-0.1,0.4-0.2,0.7-0.3,1.1c0,0.4,0,0.8,0,1.2c0,0.4,0,0.7,0,1c0-0.1,0-0.1,0-0.3
		c0-0.4,0-0.8,0-1.2s0.1-0.7,0.3-1.1c0.4-0.8,1-1.4,1.4-2.3c0.6-1.3,0.6-2.6,0.6-4.1C129.8,39.3,129.5,40.3,129.1,41.4z"/>
</g>
<path class="st4" d="M145.5,36.7c0,0.1-0.1,0.1-0.2,0.2c-0.1,0.1-0.3,0.2-0.5,0.3c-1.2,0.5-1.2-1.2-1.8-1.8
	c-0.4-0.3-0.9-0.5-1.4-0.4c-1.2,0-2.4-0.1-3.6-0.1c-2,0-4-0.1-6,0c-1,0-1.9,0-2.9,0.1c-1.2,0-2.3,0.2-3.2,0.7
	c-0.3,0.1-0.6,0.4-0.9,0.6c-0.2,0.3-0.5,0.6-0.8,0.6c0.5-2.7,2.4-5,5.1-5.8c4.4-3.2,10.5-2.5,14,1.8c0.7,0.6,1.3,1.4,1.7,2.3
	C145.3,35.6,145.4,36.2,145.5,36.7z"/>
<path class="st11" d="M144.8,36.4c-1.2,0.5-1.2-1.2-1.8-1.8c-0.4-0.3-0.9-0.5-1.4-0.4c-4.2-0.3-8.4-0.3-12.6-0.1
	c-1.5,0.1-3.1,0.3-4.1,1.4c-0.3,0.3-0.5,0.6-0.9,0.6c-0.1-0.8-0.2-1.7-0.3-2.6c0-0.3,0-0.6,0-0.9c0.1-0.4,0.4-0.6,0.5-1
	c0.1-0.5,0.1-0.9,0.1-1.3c0-3.4,1.9-6.6,4.8-8.3c0.4-0.1,0.7-0.4,1-0.6c0.1-0.1,0.2-0.3,0.4-0.4c0.3-0.1,0.5-0.2,0.8-0.2
	c0.2,0,0.4,0,0.6,0c0.5,0,1-0.2,1.5-0.4c0.5-0.2,0.9-0.3,1.4-0.3c0.5,0.1,1,0.3,1.5,0.5c0.2,0.1,0.5,0.2,0.6,0.3
	c0.4,0.1,0.8,0.1,1.2,0.1c0.6,0.1,1.2,0.4,1.7,0.8c0.6,0.3,1.2,0.8,1.7,1.3c0.6,0.6,1,1.4,1.3,2.2c0.6,1.1,1,2.2,1.3,3.4
	c0.3,1.7,0.1,3.6,1,5.1C145.7,34.7,146.2,35.8,144.8,36.4z"/>
<path class="st4" d="M124,35.1c0,0,8.5-7.7,21.2-1.3C145.2,33.8,130.9,30.5,124,35.1z"/>
<linearGradient id="SVGID_2_" gradientUnits="userSpaceOnUse" x1="4395.3462" y1="596.3806" x2="4494.8735" y2="596.3806" gradientTransform="matrix(-1 0 0 -1 4523.1201 669.32)">
	<stop  offset="0" style="stop-color:#808080;stop-opacity:0.25"/>
	<stop  offset="0.54" style="stop-color:#808080;stop-opacity:0.12"/>
	<stop  offset="1" style="stop-color:#808080;stop-opacity:0.1"/>
</linearGradient>
<path class="st13" d="M30.9,74.8c-1.2-1.9-2.9-3.7-2.6-5.8c3.2,0.4,6.3-0.4,9.1-1.8c3-1.3,5.7-3.1,8.4-4.9c1.1-0.6,2.2-1.3,3.2-1.9
	c1.7-1,3.3-2.1,5.1-3c2.5-1.3,5-2.5,7.7-2.7c0.5,0,1,0,1.5,0c3.4,0,7,1,10-0.6l0.2-0.1c1.7-0.9,3-2.6,4.4-3.8c1-0.9,2.2-1.7,3.4-2.4
	c2.2-1.3,4.6-2.2,6.9-3.4c0.6-0.3,1.2-0.6,1.7-1l0.4-0.3l0.1,0c0.1-0.1,0.2-0.1,0.3-0.3l0.1-0.1l0.2-0.1l0.1-0.1l0.2-0.2v0l0.4-0.4
	l0.1-0.1l0.3-0.3l0.1-0.1c0.3-0.3,0.5-0.5,0.8-0.8c0.3-0.3,0.6-0.6,0.9-0.9l0,0l0.3-0.3l0.1,0l0.3-0.2l0.1-0.1l0.3-0.2l0.1-0.1
	c0.1-0.1,0.3-0.1,0.4-0.3c0.1,0,0.2-0.1,0.4-0.2L95,36.3l2.2-0.9l30.6,74.2l-2.2,0.9l-17.5-42.4l-0.1,0.1c-4,4-9,6.9-14.5,8.6h0
	c-3.1,0.9-6.4,1.5-9,3.2c-0.9,0.6-1.7,1.3-2.3,2.2s-1,1.8-1.7,2.6c-0.1,0.1-0.3,0.3-0.4,0.5c-0.7,0.7-1.6,1.4-2.5,1.9l-0.4,0.3
	c-2.6,1.9-5.4,3.6-8.3,5.1c-1.7,0.9-3.3,1.5-5.1,2.1c-1.3,0.4-2.6,0.7-3.9,1.2c-0.9,0.3-1.7,0.6-2.6,1c-2.2,1.2-3.9,3-5.4,4.9
	c-1.4,1.7-2.7,3.5-4.2,5c-0.9,0.9-2.4,1.9-3.6,1.3l-0.3-0.1c0,0,0-0.1,0.1-0.2c0.9-1.9-0.2-4.2-1.7-5.8c-0.1-0.1-0.3-0.3-0.5-0.5
	s-0.5-0.4-0.6-0.6c-1.3-1.1-2.6-2.1-3.6-3.6c-0.6-1.2-1.2-2.6-1.3-3.9c-0.4-1.9-0.6-3.9-1.8-5.6c-0.6-1.1-1.7-2-2.5-3.1
	c-0.5-0.6-0.8-1.3-0.9-2.1c-0.1-1.3,0.5-2.6,0.6-4c0-0.4,0.1-0.7,0.1-1.1C31.8,76.6,31.5,75.6,30.9,74.8z"/>
<rect x="109.7" y="33.5" transform="matrix(0.9245 -0.3811 0.3811 0.9245 -19.4164 47.7731)" class="st14" width="2.4" height="78.9"/>
<path class="st15" d="M35.2,87.5c1,1.6,1.3,3.6,1.7,5.5c0.2,1.3,0.6,2.6,1.3,3.8c0.9,1.4,2.2,2.4,3.5,3.5c0.2,0.2,0.5,0.4,0.6,0.6
	c0.1,0.1,0.3,0.3,0.5,0.5c1.5,1.5,2.6,3.8,1.7,5.7c0,0,0,0.1-0.1,0.2c0,0,0.1,0.1,0.2,0.1c1.2,0.6,2.6-0.3,3.5-1.3
	c1.5-1.5,2.8-3.2,4.1-4.9c1.5-1.9,3.2-3.6,5.4-4.8c0.8-0.4,1.6-0.7,2.5-1c1.3-0.4,2.6-0.7,3.8-1.1c1.8-0.6,3.4-1.3,5.1-2.1
	c2.8-1.5,5.5-3.2,8.2-5l0.4-0.3c0.9-0.6,1.7-1.2,2.4-1.9c0.1-0.1,0.3-0.3,0.4-0.4c0.6-0.8,1-1.8,1.7-2.6c0.6-0.9,1.4-1.6,2.3-2.2
	c2.6-1.7,5.8-2.3,8.9-3.2h0c5.4-1.6,10.2-4.5,14.2-8.5c0.3-0.3,0.6-0.6,0.7-1c0.1-0.6-0.2-1.2-0.5-1.7c-0.4-0.6-0.6-1.2-1-1.8
	c-1.5-2.7-2.9-5.7-4.1-8.5c-0.3-0.6-0.5-1.3-0.8-1.9c-0.6-1.7-1.2-3.3-1.7-5c-0.1-0.6-0.3-1.2-0.5-1.7c0-0.1,0-0.2-0.1-0.4
	C99,43.5,98,37.1,95.2,39c-0.8,0.6-1.6,1.3-2.3,2c-0.6,0.6-1.1,1.2-1.7,1.7c-0.5,0.5-0.9,0.9-1.4,1.3c-0.5,0.4-1.1,0.7-1.7,1
	c-2.2,1.2-4.6,2.1-6.8,3.3C80.2,49,79,49.8,78,50.6c-1.4,1.3-2.6,2.8-4.4,3.8l-0.2,0.1c-3,1.5-6.4,0.6-9.8,0.5c-0.5,0-1,0-1.5,0
	c-2.7,0.2-5.2,1.3-7.7,2.6c-1.7,0.9-3.3,2-5,3c-1,0.6-2.1,1.3-3.2,1.9c-2.7,1.7-5.4,3.5-8.2,4.8c-2.9,1.3-5.8,2.1-9,1.8
	c-0.3,2.1,1.4,3.8,2.6,5.7c0.6,0.8,0.9,1.8,1,2.7c0,0.4,0,0.7-0.1,1.1c-0.2,1.3-0.8,2.6-0.6,3.9c0.1,0.8,0.4,1.4,0.9,2.1
	C33.6,85.6,34.5,86.5,35.2,87.5z"/>
<path class="st10" d="M119,96.1c0,0,3.6,3.2,7.3,4.8c3.7,1.7,1.3,7.7,1.3,7.7s-3.9,0.9-6.6-2.9C118.2,102,119,96.1,119,96.1z"/>
<path class="st2" d="M198,205.8c0,0,8.3-0.2,10.8-2c2.5-1.8,12.8-3.9,13.4-1.1c0.6,2.8,12.4,14.2,3.1,14.2c-9.4,0.1-21.7-1.4-24.2-3
	C198.6,212.5,198,205.8,198,205.8z"/>
<path class="st16" d="M225.4,215.9c-9.4,0.1-21.7-1.4-24.2-3c-1.9-1.2-2.6-5.3-2.9-7.2H198c0,0,0.5,6.7,3,8.2
	c2.5,1.5,14.9,3.1,24.2,3c2.7,0,3.6-1,3.6-2.4C228.5,215.4,227.4,215.9,225.4,215.9z"/>
</svg>
