<?xml version="1.0" encoding="utf-8"?>
<!-- Generator: Adobe Illustrator 23.0.2, SVG Export Plug-In . SVG Version: 6.00 Build 0)  -->
<svg version="1.1" id="fe80fb2b-bcaf-407e-919b-306adc32f78b"
	 xmlns="http://www.w3.org/2000/svg" xmlns:xlink="http://www.w3.org/1999/xlink" x="0px" y="0px" viewBox="0 0 1080 360"
	 style="enable-background:new 0 0 1080 360;" xml:space="preserve">
<style type="text/css">
	.st0{opacity:0.43;fill:#6C63FF;}
	.st1{fill:#F2F2F2;}
	.st2{fill:none;stroke:#3F3D56;stroke-miterlimit:10;}
	.st3{opacity:0.3;fill:#6C63FF;enable-background:new    ;}
	.st4{fill:#6C63FF;}
	.st5{fill:#2F2E41;}
	.st6{fill:#FFB9B9;}
	.st7{opacity:0.1;enable-background:new    ;}
	.st8{fill:#3F3D56;}
	.st9{fill:#D0CDE1;}
	.st10{fill:#FFB8B8;}
	.st11{fill:#E6E6E6;}
	.st12{fill:#A0616A;}
</style>
<ellipse class="st0" cx="575.3" cy="340.9" rx="68.5" ry="14.6"/>
<ellipse class="st0" cx="726.6" cy="342.9" rx="75" ry="11.1"/>
<ellipse class="st0" cx="850.2" cy="336.5" rx="46.6" ry="13.8"/>
<ellipse class="st0" cx="962.7" cy="340.5" rx="57.2" ry="14.1"/>
<title>profile</title>
<path class="st1" d="M68.1,35.8h337.2c5.2,0,9.4,4.7,9.4,10.5v248.8c0,5.8-4.2,10.5-9.4,10.5H68.1c-5.2,0-9.4-4.7-9.4-10.5V46.3
	C58.7,40.5,62.9,35.8,68.1,35.8z"/>
<path class="st2" d="M57.2,18.8h337.2c5.2,0,9.4,4.7,9.4,10.5v248.8c0,5.8-4.2,10.5-9.4,10.5H57.2c-5.2,0-9.4-4.7-9.4-10.5V29.3
	C47.8,23.5,52,18.8,57.2,18.8z"/>
<line class="st2" x1="47.8" y1="44.6" x2="403.7" y2="44.6"/>
<path class="st3" d="M264,105.3h90.2c1.9,0,3.4,1.7,3.4,3.8v9.1c0,2.1-1.5,3.8-3.4,3.8H264c-1.9,0-3.4-1.7-3.4-3.8v-9.1
	C260.6,107,262.1,105.3,264,105.3z"/>
<path class="st3" d="M245.4,151.8h127.4c1.9,0,3.4,1.7,3.4,3.8v5.8c0,2.1-1.5,3.8-3.4,3.8H245.4c-1.9,0-3.4-1.7-3.4-3.8v-5.8
	C242,153.5,243.5,151.8,245.4,151.8z"/>
<path class="st3" d="M245.4,188.6h127.4c1.9,0,3.4,1.7,3.4,3.8v5.8c0,2.1-1.5,3.8-3.4,3.8H245.4c-1.9,0-3.4-1.7-3.4-3.8v-5.8
	C242,190.3,243.5,188.6,245.4,188.6z"/>
<path class="st3" d="M245.4,225.3h127.4c1.9,0,3.4,1.7,3.4,3.8v5.8c0,2.1-1.5,3.8-3.4,3.8H245.4c-1.9,0-3.4-1.7-3.4-3.8v-5.8
	C242,227,243.5,225.3,245.4,225.3z"/>
<path class="st2" d="M268.8,99.9H359c1.9,0,3.4,1.7,3.4,3.8v9.1c0,2.1-1.5,3.8-3.4,3.8h-90.2c-1.9,0-3.4-1.7-3.4-3.8v-9.1
	C265.4,101.6,266.9,99.9,268.8,99.9z"/>
<path class="st2" d="M250.2,146.4h127.4c1.9,0,3.4,1.7,3.4,3.8v5.8c0,2.1-1.5,3.8-3.4,3.8H250.2c-1.9,0-3.4-1.7-3.4-3.8v-5.8
	C246.8,148.1,248.3,146.4,250.2,146.4z"/>
<path class="st2" d="M250.2,183.1h127.4c1.9,0,3.4,1.7,3.4,3.8v5.8c0,2.1-1.5,3.8-3.4,3.8H250.2c-1.9,0-3.4-1.7-3.4-3.8V187
	C246.8,184.9,248.3,183.1,250.2,183.1z"/>
<path class="st2" d="M250.2,219.9h127.4c1.9,0,3.4,1.7,3.4,3.8v5.8c0,2.1-1.5,3.8-3.4,3.8H250.2c-1.9,0-3.4-1.7-3.4-3.8v-5.8
	C246.8,221.6,248.3,219.9,250.2,219.9z"/>
<ellipse class="st3" cx="74.9" cy="35" rx="7.2" ry="8.1"/>
<ellipse class="st3" cx="95.2" cy="35" rx="7.2" ry="8.1"/>
<ellipse class="st3" cx="115.5" cy="35" rx="7.2" ry="8.1"/>
<ellipse class="st2" cx="77.8" cy="31.7" rx="7.2" ry="8.1"/>
<ellipse class="st2" cx="98.1" cy="31.7" rx="7.2" ry="8.1"/>
<ellipse class="st2" cx="118.4" cy="31.7" rx="7.2" ry="8.1"/>
<path class="st4" d="M166.1,277.2c-1.2-6.3-1.5-14.8-1.1-20.7c0,0-6.1-30.2-11-33l0,0c-0.1,0.1-2.4,3.5-2.7,14.2
	c-0.3,10.8-3.7,17.9-3.7,17.9s1.1,13.5,0.5,21.6L166.1,277.2z"/>
<path class="st4" d="M216,85.3H95.5c-6.9,0-12.4,5.8-12.4,12.9l0,0v166.2c0,7.1,5.6,12.9,12.4,12.9l0,0h42.3
	c-1.4-6.1-3.2-15.5-1.4-22.1l0,0l0,0c0.1-0.3,0.2-0.6,0.3-0.9c1.2-4.3,1.6-8.7,1.2-13.2c0.8-3.8,0.8-7.7,0-11.5
	c-1.3-6.3-2.2-12.5-2.2-12.5s-0.7-8.3-0.1-13.4c0-0.1,0-0.2,0-0.3c-0.2-0.1-0.3-0.1-0.3-0.1s1.9-8.7,2.5-14.2c0.2-1.3,0.4-3,0.6-4.7
	c-0.6-0.1-1.2-0.3-1.8-0.5c-5.9-2.1-7.7-21.5-7.7-21.5v-6.1c0,0-2-9.4,4.9-13.6c6.6-4,9.2-5.1,9.4-5.2c0.1,0,0.1-0.1,0.2-0.1
	c0.7-0.6,1.3-1.4,1.7-2.3c0-0.2,0-0.3,0-0.5c-0.1-2.2-1.6-4.2-3-5.9c-1.2-1.5-2.4-3-3.6-4.5c-0.4-0.4-0.7-1-0.9-1.5
	c-0.1-0.3-0.1-0.6-0.1-1c0-0.1,0-0.2,0-0.4c0-1.1,0-2.2,0.1-3.3c0-1,0.3-2.2,1.2-2.4c0.5-0.1,1.1,0.1,1.4-0.4
	c0.1-0.2,0.1-0.4,0.1-0.6l0,0c0,0,0,0,0-0.1c-0.2-0.8-0.3-1.6-0.3-2.4c0-0.4,0-0.7,0.1-1.1c0.5-1.6,2.4-2.3,4-2.6
	c1.6-0.3,3.4-0.6,4.4-1.9c0.3-0.4,0.6-0.9,0.9-1.3c0.5-0.4,1-0.7,1.7-0.9c2-0.5,4.1-0.3,6,0.6c0.8,0.4,1.6,0.9,2.4,0.8
	c0.9-0.1,1.7-0.7,2.5-0.9c1.4-0.3,2.8,0.8,3.5,2.2c0.4,0.8,0.7,1.8,0.6,2.7c0,0.9-0.3,1.9-0.9,2.6c-0.6,0.7-1.5,1.1-1.8,2
	c-0.1,0.4-0.1,0.7-0.2,1.1v0.1c0,0,0,0,0.1,0.1c3.7,5.1,2.8,12.3-2.1,16.1c-1,0.8-2.1,1.4-3.3,1.8c0,0.1,0,0.2,0,0.3
	c-0.1,1.4,0.5,2.8,1.5,3.8l9.7,4.1c0,0,5.8-0.7,7.9,8.3c0.3,1.5,0.5,3,0.4,4.6c-0.1,1.4,0.1,3.8,1.6,6.8c2.4,5,1.9,16.3-3,17.4
	c-4.6,1.1-6.4,0.6-6.6,0.6v0.2c0.1,2.1,0.8,20.5,3.5,22.8c0.7,0.6,0.6,1,0,1.3l0,0c0,0,0,0.1,0,0.3c0.1,1.3,0.5,6.5,2.3,9.4
	c2.1,3.4,1.9,22.8,1.9,22.8l1.4,11.5c0,0-0.9,7.1,0,8.3c0.5,0.7,1.1,11.6,1.5,20.9h36c6.9,0,12.4-5.8,12.4-12.9V98.1
	C228.5,91,222.9,85.3,216,85.3L216,85.3z"/>
<path class="st2" d="M83,70.7h120.5c6.9,0,12.4,5.8,12.4,12.9v166.2c0,7.1-5.6,12.9-12.4,12.9H83c-6.9,0-12.4-5.8-12.4-12.9V83.5
	C70.5,76.4,76.1,70.7,83,70.7z"/>
<g>
	<g id="e8fc31ac-0dc8-416f-9088-07cba22854d5">
		<path class="st5" d="M681.9,30.9c0,0-1.2-4.3-3-5.3v5.3c0,0-7.1-1-12.1,4.3l4.7,1c0,0-6.9,2.3-8.5,12.3l3-1.4l8,17.1l5-9.2
			l10.1,10.3l-2.4-5.7l3.8,1.8l-2.6-4.6l11.8,5.3l-0.9-2.9l4.4,7.3c0,0,14.9-15.5-1.4-31.8C701.9,34.6,694.5,26.8,681.9,30.9z"/>
		<path class="st6" d="M680.6,68.8c0,0,4.4,16.8,3.1,19c-1.3,2.2,12.8,14.2,12.8,14.2l13.7-2.6l0.9-19c0,0-12.4-10.6-9.8-18.6
			L680.6,68.8z"/>
		<path class="st7" d="M680.6,68.8c0,0,4.4,16.8,3.1,19c-1.3,2.2,12.8,14.2,12.8,14.2l13.7-2.6l0.9-19c0,0-12.4-10.6-9.8-18.6
			L680.6,68.8z"/>
		<path class="st5" d="M669,174.8c0,0-3.5,22.1-0.9,40.2s4,31.4,2.6,34c-1.3,2.6-2.6,2.2-1.8,5.3c0.9,3.1,2.6,1.8,0.9,4.9
			s-1.3,8.4-1.3,9.7c0,1.3-2.2,30,0,33.1s3.1,2.6,3.1,2.6l2.6,15.9l14.2-2.2l-2.2-14.6c0,0,5.3-2.6,3.1-4.4s-3.5-1.8-2.2-1.8
			s3.5-0.4,1.8-1.3s-0.4-24.7-0.4-24.7s3.1-43.7,15.5-42.4c12.3,1.3,22,26.9,22,26.9l3.5,11.5c0,0,1.3,21.6,2.2,23.4
			c0.8,1.8,0.5,2.2,0,3.1s-3.5-1.3-0.5,2.2c3.1,3.5,3.1,4.9,3.1,4.9l2,23.2l14.4-9.1v-13.7c0,0,2.6-4.4,1.8-7.9s-0.9-20.3,0-23.4
			s0.5-4-0.5-5.3c-0.9-1.3-3.1-0.5-1.3-3.5s3.1-11,0.5-16.8s-17.2-62.3-23.4-65.3C721.5,176.2,669,174.8,669,174.8z"/>
		<path class="st8" d="M688.5,310.9c0,0-10.2-1.8-10.6,0.9c-0.4,2.6,0,6.6,0,6.6s-3.5,0.4-3.1,3.5s0.9,11.5,0.9,11.5
			s-5.5,13-2.4,16.1c0.1,0.1,6.1-0.2,9.6-0.2h12.8c0,0,1.8-6.2,0-7.1s-5.8-8.8-5.3-10.6c0.5-1.8,0-14.6,0-14.6l-2,0.1L688.5,310.9z"
			/>
		<path class="st8" d="M740.1,318.8l-5.3,4c0,0,2.2,7.5,0.9,8.8s-4.2,16.5-1.6,17.4s19-0.4,19-0.4s18.3,0.7,18.8-0.2s1.3-6.2-4-7.9
			s-8.4-1.3-10.2-6.6c-1.8-5.3-5.8-13.2-5.8-13.2L751,311c0,0-5.3,0.9-6.2,0.9s-5.3,2.2-4.9,4C740.4,316.7,740.4,317.8,740.1,318.8z
			"/>
		<circle class="st6" cx="688.1" cy="56" r="18.3"/>
		<path class="st8" d="M700,87.4l6.6-11.6c0,0,15.5-0.8,16.3,1c0.9,1.8,8.4,89.2,8.4,89.2s3.5,4.9,1.3,7.9l-2.2,3.1v6.2
			c0,0-11,8.8-26,7.1s-34.1-9.7-34.1-9.7l4-24.7l-0.3-73l8.9-4.4c0,0,10.1,7,11.9,9.2S700,87.4,700,87.4z"/>
		<path class="st9" d="M684.5,87.4l-2-11.7l-27.2,19.2l15,44.2c0,0-9.3,16.8-7.5,23s2.6,15.5,2.6,15.5s23.9,6.2,23.4,3.1
			c-0.5-3.1,0-16.8,0-16.8s7.7-57.2,3.8-66C688.9,89.1,684.5,87.4,684.5,87.4z"/>
		<path class="st9" d="M708.8,81.6l-4.2-8.2c0-0.3,29.8,3.9,31.1,6.4l-3.5,68c0,0,0.5,9.7,2.6,12.3c2.2,2.6,1.8,7.1,0.9,7.5
			c-0.9,0.5-15.5,4.9-15.5,4.9s-14.1-24.3-12.8-53.4C708.8,90,708.8,81.6,708.8,81.6z"/>
		<path class="st9" d="M730.4,80.3l4.7-1c1.8,1,3.3,2.6,4.1,4.5c1.3,3.1,16.8,36.2,16.8,38.4c0,2.2,0.5,18.6-9.3,18.6
			s-17.2-41.5-17.2-41.5L730.4,80.3z"/>
		<polygon class="st6" points="664.2,194.7 672.2,206.6 676.6,191.6 673.5,187.2 		"/>
		<polygon class="st9" points="659.3,95.3 655.3,94.9 645.6,147 662.5,199.1 677,188.1 666.9,153.2 670.4,126.2 		"/>
		<path class="st5" d="M707.2,50.8c-2.4-8.8-10.1-15.3-19-15.3c-6.5,0-12.2,3.4-15.9,8.6l4.5,8.7l4.5-7.5l9,8.3l-2.1-4.6l3.5,1.5
			l-2.4-3.7L700,51l-0.8-2.3l5,6.6C705.4,54,706.4,52.5,707.2,50.8z"/>
		<polygon class="st7" points="727.6,101.7 739.5,112.1 733.3,98.7 		"/>
		<path class="st6" d="M722.5,100.2c0,0-5.8-17.7-12.8-14.6c-7.1,3.1,2.6,21.6,2.6,21.6l6.2,4L722.5,100.2z"/>
		<path class="st9" d="M753,122.7l-31-24.3l-11,16.3c0,0,29.1,30.9,35.8,24.7S753,122.7,753,122.7z"/>
	</g>
</g>
<g>
	<g id="e1d6a9e2-5d0a-4358-9625-bb79dd06fec3">
		<path class="st6" d="M994.8,160.9l7.7,21.1c0,0-8,24.1,0,24.8s9-23.1,9-23.1l-4.4-25.5L994.8,160.9z"/>
		<path class="st9" d="M998.5,91.9l5.7,5.7v27.1c0,0,3.4,5,2.7,6.4s-1.3,1.3-0.7,2.3c0.7,1,1.3,1.7,0.7,2.3c-0.7,0.9-0.7,2.1,0,3
			c0.7,0.7,2,1.7,1,2.7s-2.3,0.3-1,4s3.7,4.7,3,6s-0.7,4.7-0.7,4.7l-14.4,2l-3-37.9L998.5,91.9z"/>
		<polygon class="st8" points="1009.9,155.8 993.1,156.5 993.8,163.6 1008.5,160.9 		"/>
		<polygon class="st6" points="963.8,56.8 961.8,76.9 982.2,80 983.7,68.4 985.3,56.8 		"/>
		<polygon class="st7" points="963.8,56.8 961.8,76.9 982.2,80 983.7,68.4 985.3,56.8 		"/>
		<path class="st6" d="M919.4,152.5l11.4,24.5c0,0,2,11.4,5,11.7s6-11.7,6-11.7l-4-6.4l-4.7-18.1H919.4z"/>
		<path class="st5" d="M943.2,174.6l-9.4,14.8c0,0-9,140.4-7.7,139.4s5.7-1.3,7.4-4s12,0,12,0l6-6.4v-5c0-1,12-77.7,12-77.7V255
			c0,0-3.6,71.4,2.4,70.7s18.4-4.7,18.4-4.7s17.8-133.3,12.4-138.4s-7.7-16.4-7.7-16.4L943.2,174.6z"/>
		<circle class="st6" cx="975" cy="47.3" r="16.1"/>
		<path class="st9" d="M939.2,80.1l-2.3-1.3c0,0-10.4,7-13.7,22.8s-5.7,19.8-5.7,19.8s-3.4,0.7-1,3c2.3,2.3,2.3,2,0.3,3.4
			c-2,1.3-3.4-1.3-2,1.3c1.3,2.7,3,2,1.7,3.7s-3.7,1.7-2.3,3s-1.3,4.4,0.3,5.7s2.3,1.7,2.3,4c0,1.4,0.2,2.7,0.7,4H935
			c0,0-3.4-6.4-2.3-7.7s1.3-2.7,0.7-3.4s-2.7,0.7-0.7-1s2.7-0.7,2-2.7s-2-1-0.7-2s2.3-0.7,1.7-1.7c-0.7-1-2-1-0.7-1.7s2.3,0,2-1.7
			s-0.7-1,0-1.7s7.7-23.5,7.7-24.1C944.5,101.3,939.2,80.1,939.2,80.1z"/>
		<polygon class="st8" points="935.8,148.1 914.7,149.5 920.1,154.5 934.8,154.8 		"/>
		<path class="st8" d="M941.9,173.3l-4.4,8c0,0,13.1,1.7,17.8,3.4s16.8,4,16.8,4l3-11.7L941.9,173.3z"/>
		<polygon class="st8" points="980.1,177 983.7,188 998.5,185 996.8,174.6 		"/>
		<path class="st9" d="M986.1,68.7c0,0-1-0.7-3.4,0.7c-2.3,1.3-10.1,2-13.7-2c-3.7-4-6.4-7.4-7.4-6.7s-1.7,8.4-1.7,8.4l-3.4,2.7
			l-19.8,7l1.7,45.3l3,10.4c0,0-2.3,8,0.7,12.7s-1.7,6.4-1.7,6.4s-1,1.3-0.3,4.7s-0.7,15.7-0.7,15.7s28.5,12.7,58.3,1.7l-3.3-12.7
			l-1.7-28.5c0,0,1.7-4.7,1.3-6.7s10-30.1,10-30.1s-1.7-14.1-10.4-17.1s-10.1-6-10.1-6S987.8,70.1,986.1,68.7z"/>
		<path class="st5" d="M958.8,49.4c0,0-1.7-2.5-1-5.2c0.4-1.5,0.5-3.1,0.5-4.7c0.7-2.3,1.6-4.6,2.7-6.8c1.3-2.4,0.7-3.5,4.9-4.2
			s2.5-6.3,13.7-0.3c0.8,1.1,2.1,1.6,3.4,1.3c2.3-0.5,3.1,2.8,3.1,2.8s1.5-0.9,2.1,0.4c0.6,1.3,4.7-0.8,4.7,7.9S988.2,57,988.2,57
			s0.3-14.6-7.3-16.1S965,35.1,963,40.6C962,43.6,960.6,46.6,958.8,49.4z"/>
		<ellipse class="st6" cx="988.4" cy="50.8" rx="1.5" ry="2"/>
		<path class="st5" d="M979.9,319.8l2.4,7.1c0,0,0,7.1,2.4,10.6s4.7,11.2-4.7,11.8c-9.4,0.6-13.5-2.9-13.5-2.9s1.8-4.7,0-6.5
			s0-5.3,0-5.3l1.8-14.1L979.9,319.8z"/>
		<path class="st5" d="M934,319.8l-2.4,7.1c0,0,0,7.1-2.4,10.6s-4.7,11.2,4.7,11.8c9.4,0.6,13.5-2.9,13.5-2.9s-1.8-4.7,0-6.5
			s0-5.3,0-5.3l-1.8-14.1L934,319.8z"/>
	</g>
</g>
<g>
	<g id="e07e5ae7-3299-40d2-9315-78b8b3e13d89">
		<path class="st5" d="M872.6,170.2c0,0,0,69.9-11,95.3l-25.4,57c0,0-16.3-1-17.2-7.7l19.2-59.4l11.5-35l2.9-54.6L872.6,170.2z"/>
		<path class="st5" d="M856.8,172.1l-4.3,29.2l2.9,64.2l1.4,35.4c0,0,5.7,15.8,3.8,17.2l-3.8,2.9c0,0-15.3-1.9-15.8-2.9
			s-9.6-73.3-9.6-73.3s-18.7-58.4-17.7-59.4s5.3-15.3,5.3-15.3L856.8,172.1z"/>
		<path class="st5" d="M860.1,316.3l1.9,11c0,0,5.3,22.5,0,22.5s-14.8-6.2-15.3-10.1s1-21.1,1-21.1L860.1,316.3z"/>
		<path class="st5" d="M835.7,320.1c0,0,3.8,7.7,6.2,8.6c2.4,1,13.3,7.2,6.9,11.3c-6.4,4.1-13.1,0.2-13.1,0.2l-22-12
			c0,0,2.9-12,7.2-12.9C825.1,314.4,835.7,320.1,835.7,320.1z"/>
		<circle class="st10" cx="830.9" cy="47.1" r="17.2"/>
		<path class="st10" d="M845.3,48.5c0,0,3.4,22,6.7,24.9c3.4,2.9-7.2,12.9-12,12.5c-4.8-0.5-10.1-11-10.1-11s1.4-13.9-1-17.7
			C826.6,53.3,845.3,48.5,845.3,48.5z"/>
		<path class="st8" d="M841.4,76.8l8.1-7.5c2.6,3.3,5.9,6,9.6,8c6.2,3.4-12,37.8-12,37.8L818,78.7c0,0,9.3-6.2,12.3-8.6L841.4,76.8z
			"/>
		<path class="st8" d="M846.2,106c0,0,12.8-22.4,11.4-29.6c0,0,18.7,4.7,19.7,10.9s-9.1,28.7-9.1,28.7s8.1,57,3.4,57.5
			s-52.7,1-53.6-1.4c-1-2.4,1-9.6-1.9-12s-6.2-1-4.8-4.8s7.7-8.6,5.7-11.5c-1.9-2.9-2.4-1.9-1.9-3.8c0.5-1.9-1-27.3-1-27.3
			S804,84.9,806.4,83c2.4-1.9,15-6.6,15-6.6L846.2,106z"/>
		<path class="st10" d="M884.5,180.7c0,0-1.4,19.2-9.6,18.2c-8.1-1,1.4-21.6,1.4-21.6L884.5,180.7z"/>
		<path class="st10" d="M813.2,180.2c0,0,2.9,11.5,6.2,10.5v-13.4L818,175L813.2,180.2z"/>
		<path class="st5" d="M845,49.6c0-0.5-0.2-1-0.5-1.4c-0.3-0.3-0.6-0.5-1-0.7c-2.2-0.7-4.6,0.3-5.6,2.4c-0.4,1-0.7,2.2-1.6,2.6
			c-1.1,0.5-2.4-0.6-2.8-1.7s-0.5-2.5-1-3.5c-0.7-1.3-2.1-2-3.5-2.3c-1.2-0.3-2.6-0.4-3.2-1.5c-0.2-0.4-0.2-0.9-0.2-1.3
			c0-1.6,0.3-3.2,0.9-4.7c-4.7-0.9-8.9,3.6-13.7,3.7c-0.6,0-1.2-0.1-1.8-0.3c-1.1-0.6-1.5-1.8-1.8-3s-0.6-2.5-0.8-3.7l1.5,0.7
			c-0.4-0.8-0.7-1.7-0.7-2.6c0.8-0.1,1.6,0,2.4,0.2l0.1-2.7c1.2,1.5,3.5,1,5.3,0.3c3.4-1.3,6.9-2.8,10.5-3.6
			c3.6-0.8,7.5-0.8,10.9,0.6c3.6,1.5,6.4,4.4,8.8,7.4c1.4,1.7,2.7,3.4,3.4,5.5c0.9,2.7,0.9,5.7,0,8.4c-0.8,2.5-2.2,5.4-4.2,7.1
			C845.4,53.6,845.3,51.4,845,49.6z"/>
		<path class="st8" d="M812.2,81.6L806,83c0,0-7.2,7.7-7.7,14.8s-0.5,43.1-0.5,43.1l9.1,29.7c0,0-1,6.7,0,6.7s1.4-1.4,1.4,0.5
			s-2.4,0,0,1.9l4.8,3.8l8-10.6c0,0,0.6-4.2-0.8-5.2s-1.4-1.4-1-2.9s1.4-1.9,1-2.9s-1.9-2.4-1.9-3.4s0-1.9-0.5-2.4s-3.8-12-3.8-12
			L816,107L812.2,81.6z"/>
		<path class="st8" d="M872.6,84l4.8,2.4c0,0,7.7,23,7.7,43.1s1.4,33.5,1.4,33.5s2.4,5.7,1.4,5.7s-1.9,0-1,1.4s1.4,1,1,2.4
			s-1-1-0.5,1.4s0,3.4-1,3.4s-1,6.2-1,6.2l-11.5-4.3c0,0,1.9-2.4,1.4-3.4c-0.3-0.6-0.5-1.3-0.5-1.9c0,0,2.4-0.5,0-1.4
			c-2.4-1-1.4-1-1-3.8c0.5-2.9,1.9-2.4,0.5-2.9s-10.1-45-10.1-45L872.6,84z"/>
		<circle class="st5" cx="841.4" cy="76.9" r="1.4"/>
		<circle class="st5" cx="841.4" cy="81.7" r="1.4"/>
	</g>
</g>
<g>
	<g id="a3021eee-13c5-481a-ad89-41ba2f75e20a">
		<path class="st11" d="M526.7,102.6l1-0.6c0.6,1,1.2,2,1.7,3l-1,0.6C527.9,104.6,527.3,103.6,526.7,102.6z"/>
		<path class="st12" d="M600.8,102c0,0,3.9,50.7-1.6,52.2s-25,13.3-56.1,10.1c0,0-30.4,16.4-25.7,0.8s25.7-11.7,25.7-11.7
			s37.4-7.8,39-13.3s-4.7-28.1-2.3-28.9C582.1,110.5,600.8,102,600.8,102z"/>
		<path class="st8" d="M521.9,152.5L521.9,152.5l10.5-2.4c1-0.2,2.1,0.3,2.6,1.2l10.7,22.2c0.4,0.9,0.1,2-0.9,2.5
			c-0.1,0-0.2,0.1-0.3,0.1l-10.6,3c-1.2,0.3-2.4-0.3-2.9-1.4l-6.8-15.9l-0.2,0.1l-1.3-3l0.2-0.1l-1.9-4.4c-0.3-0.7,0-1.5,0.7-1.8
			l0,0C521.7,152.6,521.8,152.5,521.9,152.5z"/>
		<path class="st4" d="M531.1,150.9l1.2-0.3c0.7-0.2,1.5,0.2,1.8,0.9l10.5,22.1c0.2,0.5,0,1.1-0.5,1.3L544,175l-10.6,3.2
			c-0.6,0.2-1.3-0.1-1.5-0.7l-9.9-23.1c-0.2-0.6,0-1.2,0.6-1.5c0.1,0,0.1,0,0.2-0.1l1.2-0.3c0.2-0.1,0.5,0,0.6,0.3l0,0
			c0.1,0.2,0.3,0.3,0.5,0.2l5.5-1.3C530.9,151.7,531.1,151.3,531.1,150.9z"/>
		<path class="st5" d="M554.1,190.3c0,0,3,73.2,7.7,84.1c3.9,9.1,6.2,38.7,6.8,48.4c0.1,1.9,0.2,3.1,0.2,3.1s12.5,0,13.3-3.1
			s3.1-37.4,0-48.4c-3.1-10.9,4-86.5,4-86.5L554.1,190.3z"/>
		<path class="st5" d="M572,322.1c0,0-7.8,2.3-9.4,5.5c-1.6,3.1-27.3,8.6-19.5,12.5s31.2-3.1,31.2-3.1s12.5-0.8,11.7-5.5
			s-3.6-10.4-3.6-10.4L572,322.1z"/>
		<path class="st5" d="M593.8,330.5c0,0-7.8,2.3-9.4,5.5c-1.6,3.1-27.3,8.6-19.5,12.5s31.2-3.1,31.2-3.1s12.5-0.8,11.7-5.5
			s-3.6-10.4-3.6-10.4L593.8,330.5z"/>
		<path class="st5" d="M561,188.5l10.9,18.7l18.2,65.1c0,0-1.8,59.7,0.5,59.7s14.8,3.9,15.6,0c0.7-3.3,9.4-34.8,5-55.8
			c-2.8-13.3-4.7-26.7-5.5-40.3l-1.9-36.4c0,0,7.8-14-0.8-16.4C594.6,180.7,561,188.5,561,188.5z"/>
		<circle class="st12" cx="571.2" cy="49.7" r="18.7"/>
		<path class="st12" d="M568.8,62.2c0,0,3.1,25,2.3,26.5c-0.8,1.6,18.7-17.2,18.7-17.2s-7-10.9-5.5-16.4L568.8,62.2z"/>
		<path class="st9" d="M612.5,87.2c0,0-21.8-15.6-22.6-18.7l-16.4,14l-2.8-3.3c0,0-12.8,12.7-12.8,18.1s-0.8,21.8,1.6,26.5
			s-7,63.9-7,63.9s7.8,7,8.6,7.8s32-4.7,32-4.7s15.6-1.6,15.6-3.9c0-2.3-4.7-37.4-3.1-46.8S612.5,87.2,612.5,87.2z"/>
		<path class="st12" d="M617.2,109c0,0,3.9,50.7-1.6,52.2c-5.5,1.6-25,13.3-56.1,10.1c0,0-30.4,16.4-25.7,0.8s25.7-11.7,25.7-11.7
			s37.4-7.8,39-13.3s-4.7-28.1-2.3-28.9C598.5,117.6,617.2,109,617.2,109z"/>
		<path class="st5" d="M563.2,40.4c2.6-0.9,5.4-1.4,8-0.6c3.7,1.1,6.2,4.3,9,7s6.6,5,10.3,3.8c-0.2-1.6,0.2-3.2,1.1-4.4
			c0.4-0.5,0.9-1,1-1.7c0.2-1-0.7-1.9-0.9-2.9c-0.4-1.7,0.8-4.1-0.7-5c-0.4-0.3-0.9-0.3-1.3-0.6c-1.5-1.1,0.2-3.7-0.8-5.2
			c-0.3-0.4-0.7-0.7-1.1-0.9c-7.2-4.2-16.1-4.2-24.5-4.1c-1.2,0-2.8,0.6-2.5,1.7c-1.6-1.1-3.7,0.5-4.9,1.9l-2.6,3
			c-1.2,1.3-2.3,2.8-3.2,4.3c-0.8,1.5-1,3.9,0.6,4.5c-1.2-0.5-2.6,6.5,2.8,5.3C556.6,45.8,559.7,41.6,563.2,40.4z"/>
		<path class="st9" d="M600,88.7l12.5-1.6c0,0,12.5,24.2,5.5,28.1c-7,3.9-25,7-25,5.5S600,88.7,600,88.7z"/>
	</g>
</g>
</svg>
