<?xml version="1.0" encoding="utf-8"?>
<!-- Generator: Adobe Illustrator 23.0.2, SVG Export Plug-In . SVG Version: 6.00 Build 0)  -->
<svg version="1.1" id="fe80fb2b-bcaf-407e-919b-306adc32f78b"
	 xmlns="http://www.w3.org/2000/svg" xmlns:xlink="http://www.w3.org/1999/xlink" x="0px" y="0px" viewBox="0 0 720 720"
	 style="enable-background:new 0 0 720 720;" xml:space="preserve">
<style type="text/css">
	.st0{fill:#F2F2F2;}
	.st1{fill:none;stroke:#3F3D56;stroke-miterlimit:10;}
	.st2{opacity:0.3;fill:#E7685D;enable-background:new    ;}
	.st3{fill:#E7685D;}
</style>
<title>profile</title>
<path class="st0" d="M44.7,225.9h609.6c9.4,0,16.9,8.5,16.9,19v449.9c0,10.5-7.6,19-16.9,19H44.7c-9.4,0-16.9-8.5-16.9-19V244.8
	C27.7,234.4,35.3,225.9,44.7,225.9z"/>
<path class="st1" d="M25,195.1h609.6c9.4,0,16.9,8.5,16.9,19V664c0,10.5-7.6,19-16.9,19H25c-9.4,0-16.9-8.5-16.9-19V214.1
	C8.1,203.6,15.7,195.1,25,195.1z"/>
<line class="st1" x1="8.1" y1="241.9" x2="651.6" y2="241.9"/>
<path class="st2" d="M398.9,351.5H562c3.4,0,6.2,3.1,6.2,6.9v16.4c0,3.8-2.8,6.9-6.2,6.9H398.9c-3.4,0-6.2-3.1-6.2-6.9v-16.4
	C392.7,354.6,395.5,351.5,398.9,351.5z"/>
<path class="st2" d="M365.3,435.6h230.3c3.4,0,6.2,3.1,6.2,6.9v10.6c0,3.8-2.8,6.9-6.2,6.9H365.3c-3.4,0-6.2-3.1-6.2-6.9v-10.6
	C359.1,438.7,361.9,435.6,365.3,435.6z"/>
<path class="st2" d="M365.3,502.1h230.3c3.4,0,6.2,3.1,6.2,6.9v10.6c0,3.8-2.8,6.9-6.2,6.9H365.3c-3.4,0-6.2-3.1-6.2-6.9V509
	C359.1,505.2,361.9,502.1,365.3,502.1z"/>
<path class="st2" d="M365.3,568.6h230.3c3.4,0,6.2,3.1,6.2,6.9v10.6c0,3.8-2.8,6.9-6.2,6.9H365.3c-3.4,0-6.2-3.1-6.2-6.9v-10.6
	C359.1,571.7,361.9,568.6,365.3,568.6z"/>
<path class="st1" d="M407.6,341.7h163.1c3.4,0,6.2,3.1,6.2,6.9v16.4c0,3.8-2.8,6.9-6.2,6.9H407.6c-3.4,0-6.2-3.1-6.2-6.9v-16.4
	C401.4,344.8,404.2,341.7,407.6,341.7z"/>
<path class="st1" d="M374,425.8h230.3c3.4,0,6.2,3.1,6.2,6.9v10.6c0,3.8-2.8,6.9-6.2,6.9H374c-3.4,0-6.2-3.1-6.2-6.9v-10.6
	C367.8,428.9,370.6,425.8,374,425.8z"/>
<path class="st1" d="M374,492.3h230.3c3.4,0,6.2,3.1,6.2,6.9v10.6c0,3.8-2.8,6.9-6.2,6.9H374c-3.4,0-6.2-3.1-6.2-6.9v-10.6
	C367.8,495.4,370.6,492.3,374,492.3z"/>
<path class="st1" d="M374,558.8h230.3c3.4,0,6.2,3.1,6.2,6.9v10.6c0,3.8-2.8,6.9-6.2,6.9H374c-3.4,0-6.2-3.1-6.2-6.9v-10.6
	C367.8,561.9,370.6,558.8,374,558.8z"/>
<ellipse class="st2" cx="57" cy="224.4" rx="13.1" ry="14.7"/>
<ellipse class="st2" cx="93.6" cy="224.4" rx="13.1" ry="14.7"/>
<ellipse class="st2" cx="130.3" cy="224.4" rx="13.1" ry="14.7"/>
<ellipse class="st1" cx="62.2" cy="218.6" rx="13.1" ry="14.7"/>
<ellipse class="st1" cx="98.9" cy="218.6" rx="13.1" ry="14.7"/>
<ellipse class="st1" cx="135.6" cy="218.6" rx="13.1" ry="14.7"/>
<path class="st3" d="M221.9,662.4c-2.2-11.3-2.8-26.8-2-37.5c0,0-11.1-54.5-19.8-59.6l0,0c-0.1,0.2-4.4,6.4-4.9,25.6
	c-0.5,19.5-6.7,32.4-6.7,32.4s2,24.4,0.9,39.1L221.9,662.4z"/>
<path class="st3" d="M312.2,315.3H94.3c-12.4,0-22.5,10.4-22.5,23.2c0,0,0,0,0,0v300.6c0,12.8,10.1,23.2,22.5,23.2h0h76.5
	c-2.6-10.9-5.7-28.1-2.5-39.9l0,0l0,0c0.2-0.6,0.3-1.1,0.5-1.6c2.2-7.7,2.9-15.8,2.2-23.8c1.4-6.8,1.4-13.9,0-20.8
	c-2.4-11.4-4-22.6-4-22.6s-1.3-15.1-0.2-24.3c0-0.2,0.1-0.4,0.1-0.6c-0.4-0.1-0.6-0.1-0.6-0.1s3.3-15.7,4.5-25.6
	c0.3-2.4,0.6-5.3,1-8.5c-1.1-0.2-2.2-0.5-3.2-0.8c-10.6-3.9-14-38.9-14-38.9v-11.1c0,0-3.5-17,8.9-24.5c11.9-7.3,16.7-9.2,17-9.4
	c0.1-0.1,0.2-0.1,0.3-0.2c1.3-1.1,2.4-2.5,3.1-4.1c0-0.3,0-0.6,0-0.8c-0.2-4-2.9-7.6-5.4-10.7c-2.2-2.7-4.3-5.4-6.5-8.1
	c-0.7-0.8-1.3-1.8-1.7-2.8c-0.1-0.6-0.2-1.2-0.2-1.8c0-0.2,0-0.4,0-0.7c0-2,0.1-4,0.2-6c0.1-1.8,0.5-4,2.1-4.3
	c0.9-0.2,2,0.1,2.5-0.6c0.2-0.3,0.2-0.7,0.1-1c0,0,0,0.1,0,0.1c0,0,0-0.1,0-0.1c-0.3-1.4-0.5-2.8-0.6-4.3c0-0.7,0.1-1.3,0.3-1.9
	c1-2.9,4.3-4.1,7.2-4.7c2.9-0.5,6.2-1,8-3.4c0.5-0.8,1-1.6,1.6-2.3c0.8-0.8,1.9-1.3,3-1.6c3.6-1,7.5-0.6,10.9,1
	c1.4,0.7,2.8,1.6,4.4,1.5c1.6-0.1,3-1.3,4.6-1.6c2.6-0.5,5,1.5,6.3,3.9c0.8,1.5,1.2,3.2,1.2,4.9c0,1.7-0.6,3.4-1.7,4.6
	c-1.1,1.2-2.8,2-3.2,3.6c-0.2,0.7-0.1,1.4-0.3,2c0,0.1-0.1,0.2-0.1,0.2c0,0,0.1,0.1,0.1,0.1c6.7,9.1,5,22.2-3.9,29.1
	c-1.8,1.4-3.8,2.5-5.9,3.2c0,0.2,0,0.4,0,0.6c-0.1,2.6,0.9,5.1,2.7,6.9l17.5,7.4c0,0,10.6-1.3,14.4,15c0.6,2.7,0.8,5.5,0.7,8.3
	c-0.1,2.5,0.2,6.8,2.9,12.4c4.3,9,3.3,29.5-5.5,31.5c-8.4,1.9-11.7,1.1-12,1l0,0.4c0.1,3.9,1.5,37.1,6.3,41.1c1.3,1.1,1.1,1.9,0,2.4
	l0,0c0,0,0,0.2,0,0.6c0.1,2.4,0.9,11.7,4.1,17c3.7,6.1,3.3,41.3,3.3,41.3l2.6,20.8c0,0-1.6,12.8,0,15.1c0.9,1.3,2,20.9,2.7,37.7
	h65.7c12.4,0,22.5-10.4,22.5-23.2V338.6C334.7,325.7,324.6,315.3,312.2,315.3L312.2,315.3z"/>
<path class="st1" d="M71.6,288.9h217.9c12.4,0,22.5,10.4,22.5,23.2v300.6c0,12.8-10.1,23.2-22.5,23.2H71.6
	c-12.4,0-22.5-10.4-22.5-23.2V312.2C49.1,299.3,59.2,288.9,71.6,288.9z"/>
<path class="st1" d="M628.2,44.6c-8.3,0.6-15.6,7.7-18.9,18.3c-4.7,15.8,1.4,34.4,10.5,45.9c9.1,11.5,20.8,18.1,31.5,26.8
	c14.3,11.6,27.2,27.8,34.3,48.5c7.2,20.7,7.9,46.4-0.5,66.2c-7.8,18.4-22,29.4-35.5,39.5"/>
<ellipse class="st3" cx="640.3" cy="46" rx="16.7" ry="11.2"/>
<ellipse class="st3" cx="653.6" cy="119.9" rx="16.7" ry="11.2"/>
<ellipse class="st3" cx="623.1" cy="131.8" rx="16.7" ry="11.2"/>
<ellipse class="st3" cx="670.8" cy="193.9" rx="16.7" ry="11.2"/>
<ellipse class="st3" cx="704.1" cy="193.9" rx="16.7" ry="11.2"/>
</svg>
