<?xml version="1.0" encoding="utf-8"?>
<!-- Generator: Adobe Illustrator 23.0.2, SVG Export Plug-In . SVG Version: 6.00 Build 0)  -->
<svg version="1.1" id="fe80fb2b-bcaf-407e-919b-306adc32f78b"
	 xmlns="http://www.w3.org/2000/svg" xmlns:xlink="http://www.w3.org/1999/xlink" x="0px" y="0px" viewBox="0 0 869.6 810"
	 style="enable-background:new 0 0 869.6 810;" xml:space="preserve">
<style type="text/css">
	.st0{fill:#F2F2F2;}
	.st1{fill:none;stroke:#3F3D56;stroke-miterlimit:10;}
	.st2{opacity:0.3;fill:#6C63FF;enable-background:new    ;}
	.st3{fill:#6C63FF;}
</style>
<title>profile</title>
<path class="st0" d="M111.3,188.7h648.8c10,0,18,9,18,20.2v478.9c0,11.2-8.1,20.2-18,20.2H111.3c-10,0-18-9-18-20.2v-479
	C93.2,197.7,101.3,188.7,111.3,188.7z"/>
<path class="st1" d="M90.3,155.9h648.8c10,0,18,9,18,20.2V655c0,11.2-8.1,20.2-18,20.2H90.3c-10,0-18-9-18-20.2V176.1
	C72.3,165,80.4,155.9,90.3,155.9z"/>
<line class="st1" x1="72.3" y1="205.7" x2="757.2" y2="205.7"/>
<path class="st2" d="M488.3,322.4h173.6c3.6,0,6.6,3.3,6.6,7.3v17.5c0,4-3,7.3-6.6,7.3H488.3c-3.6,0-6.6-3.3-6.6-7.3v-17.5
	C481.7,325.7,484.6,322.4,488.3,322.4z"/>
<path class="st2" d="M452.5,411.9h245.1c3.6,0,6.6,3.3,6.6,7.3v11.3c0,4-3,7.3-6.6,7.3H452.5c-3.6,0-6.6-3.3-6.6-7.3v-11.3
	C445.9,415.2,448.9,411.9,452.5,411.9z"/>
<path class="st2" d="M452.5,482.7h245.1c3.6,0,6.6,3.3,6.6,7.3v11.3c0,4-3,7.3-6.6,7.3H452.5c-3.6,0-6.6-3.3-6.6-7.3V490
	C445.9,486,448.9,482.7,452.5,482.7z"/>
<path class="st2" d="M452.5,553.5h245.1c3.6,0,6.6,3.3,6.6,7.3v11.3c0,4-3,7.3-6.6,7.3H452.5c-3.6,0-6.6-3.3-6.6-7.3v-11.3
	C445.9,556.8,448.9,553.5,452.5,553.5z"/>
<path class="st1" d="M497.5,312h173.6c3.6,0,6.6,3.3,6.6,7.3v17.5c0,4-3,7.3-6.6,7.3H497.5c-3.6,0-6.6-3.3-6.6-7.3v-17.5
	C490.9,315.3,493.9,312,497.5,312z"/>
<path class="st1" d="M461.7,401.5h245.1c3.6,0,6.6,3.3,6.6,7.3v11.3c0,4-3,7.3-6.6,7.3H461.7c-3.6,0-6.6-3.3-6.6-7.3v-11.3
	C455.2,404.8,458.1,401.5,461.7,401.5z"/>
<path class="st1" d="M461.7,472.2h245.1c3.6,0,6.6,3.3,6.6,7.3v11.3c0,4-3,7.3-6.6,7.3H461.7c-3.6,0-6.6-3.3-6.6-7.3v-11.3
	C455.2,475.5,458.1,472.2,461.7,472.2z"/>
<path class="st1" d="M461.7,543h245.1c3.6,0,6.6,3.3,6.6,7.3v11.3c0,4-3,7.3-6.6,7.3H461.7c-3.6,0-6.6-3.3-6.6-7.3v-11.3
	C455.2,546.3,458.1,543,461.7,543z"/>
<ellipse class="st2" cx="124.3" cy="187.1" rx="13.9" ry="15.6"/>
<ellipse class="st2" cx="163.3" cy="187.1" rx="13.9" ry="15.6"/>
<ellipse class="st2" cx="202.4" cy="187.1" rx="13.9" ry="15.6"/>
<ellipse class="st1" cx="129.9" cy="180.9" rx="13.9" ry="15.6"/>
<ellipse class="st1" cx="168.9" cy="180.9" rx="13.9" ry="15.6"/>
<ellipse class="st1" cx="208" cy="180.9" rx="13.9" ry="15.6"/>
<path class="st3" d="M299.9,653.3c-2.3-12-3-28.5-2.1-39.9c0,0-11.8-58-21.1-63.4l0,0c-0.1,0.2-4.7,6.8-5.2,27.2
	c-0.5,20.8-7.1,34.5-7.1,34.5s2.1,26,1,41.6H299.9z"/>
<path class="st3" d="M396,283.9H164c-13.2,0-23.9,11.1-23.9,24.7l0,0v319.9c0,13.6,10.8,24.7,23.9,24.7l0,0h81.4
	c-2.8-11.6-6.1-29.9-2.7-42.5l0,0l0,0c0.2-0.6,0.3-1.2,0.5-1.7c2.3-8.2,3.1-16.8,2.3-25.3c1.5-7.2,1.5-14.8,0-22.1
	c-2.6-12.1-4.3-24.1-4.3-24.1s-1.4-16.1-0.2-25.9c0-0.2,0.1-0.4,0.1-0.6c-0.4-0.1-0.6-0.1-0.6-0.1s3.5-16.7,4.8-27.2
	c0.3-2.6,0.6-5.6,1.1-9c-1.2-0.2-2.3-0.5-3.4-0.9c-11.3-4.2-14.9-41.4-14.9-41.4v-11.8c0,0-3.7-18.1,9.5-26.1
	c12.7-7.8,17.8-9.8,18.1-10c0.1-0.1,0.2-0.1,0.3-0.2c1.4-1.2,2.6-2.7,3.3-4.4c0-0.3,0-0.6,0-0.9c-0.2-4.3-3.1-8.1-5.7-11.4
	c-2.3-2.9-4.6-5.7-6.9-8.6c-0.7-0.9-1.4-1.9-1.8-3c-0.1-0.6-0.2-1.3-0.2-1.9c0-0.2,0-0.4,0-0.7c0-2.1,0.1-4.3,0.2-6.4
	c0.1-1.9,0.5-4.3,2.2-4.6c1-0.2,2.1,0.1,2.7-0.6c0.2-0.3,0.2-0.7,0.1-1.1v0.1v-0.1c-0.3-1.5-0.5-3-0.6-4.6c0-0.7,0.1-1.4,0.3-2
	c1.1-3.1,4.6-4.4,7.7-5c3.1-0.5,6.6-1.1,8.5-3.6c0.5-0.9,1.1-1.7,1.7-2.4c0.9-0.9,2-1.4,3.2-1.7c3.8-1.1,8-0.6,11.6,1.1
	c1.5,0.7,3,1.7,4.7,1.6s3.2-1.4,4.9-1.7c2.8-0.5,5.3,1.6,6.7,4.2c0.9,1.6,1.3,3.4,1.3,5.2c0,1.8-0.6,3.6-1.8,4.9
	c-1.2,1.3-3,2.1-3.4,3.8c-0.2,0.7-0.1,1.5-0.3,2.1c0,0.1-0.1,0.2-0.1,0.2l0.1,0.1c7.1,9.7,5.3,23.6-4.2,31c-1.9,1.5-4,2.7-6.3,3.4
	c0,0.2,0,0.4,0,0.6c-0.1,2.8,1,5.4,2.9,7.3l18.6,7.9c0,0,11.3-1.4,15.3,16c0.6,2.9,0.9,5.9,0.7,8.8c-0.1,2.7,0.2,7.2,3.1,13.2
	c4.6,9.6,3.5,31.4-5.9,33.5c-8.9,2-12.5,1.2-12.8,1.1v0.4c0.1,4.2,1.6,39.5,6.7,43.7c1.4,1.2,1.2,2,0,2.6l0,0c0,0,0,0.2,0,0.6
	c0.1,2.6,1,12.5,4.4,18.1c3.9,6.5,3.5,44,3.5,44l2.8,22.1c0,0-1.7,13.6,0,16.1c1,1.4,2.1,22.2,2.9,40.1h69.9
	c13.2,0,23.9-11.1,23.9-24.7V308.7C419.9,294.9,409.2,283.9,396,283.9L396,283.9z"/>
<path class="st1" d="M139.9,255.8h231.9c13.2,0,23.9,11.1,23.9,24.7v319.9c0,13.6-10.8,24.7-23.9,24.7H139.9
	c-13.2,0-23.9-11.1-23.9-24.7V280.6C115.9,266.8,126.7,255.8,139.9,255.8z"/>
<path class="st1" d="M732.3-4.3c-8.8,0.6-16.6,8.2-20.1,19.5c-5,16.8,1.5,36.6,11.2,48.9c9.7,12.2,22.1,19.3,33.5,28.5
	c15.2,12.3,29,29.6,36.5,51.6c7.7,22,8.4,49.4-0.5,70.5c-8.3,19.6-23.4,31.3-37.8,42"/>
<ellipse class="st3" cx="745.2" cy="-2.8" rx="17.8" ry="11.9"/>
<ellipse class="st3" cx="759.3" cy="75.9" rx="17.8" ry="11.9"/>
<ellipse class="st3" cx="726.9" cy="88.5" rx="17.8" ry="11.9"/>
<ellipse class="st3" cx="777.7" cy="154.6" rx="17.8" ry="11.9"/>
<ellipse class="st3" cx="813.1" cy="154.6" rx="17.8" ry="11.9"/>
</svg>
