<?xml version="1.0" encoding="utf-8"?>
<!-- Generator: Adobe Illustrator 23.0.2, SVG Export Plug-In . SVG Version: 6.00 Build 0)  -->
<svg version="1.1" id="fe80fb2b-bcaf-407e-919b-306adc32f78b"
	 xmlns="http://www.w3.org/2000/svg" xmlns:xlink="http://www.w3.org/1999/xlink" x="0px" y="0px" viewBox="0 0 869.6 810"
	 style="enable-background:new 0 0 869.6 810;" xml:space="preserve">
<style type="text/css">
	.st0{fill:#F2F2F2;}
	.st1{fill:none;stroke:#3F3D56;stroke-miterlimit:10;}
	.st2{opacity:0.3;fill:#E7685D;enable-background:new    ;}
	.st3{fill:#E7685D;}
</style>
<title>profile</title>
<path class="st0" d="M115.9,256.4h609.6c9.4,0,16.9,8.5,16.9,19v449.9c0,10.5-7.6,19-16.9,19H115.9c-9.4,0-16.9-8.5-16.9-19v-450
	C98.9,264.9,106.5,256.4,115.9,256.4z"/>
<path class="st1" d="M96.2,225.6h609.6c9.4,0,16.9,8.5,16.9,19v449.9c0,10.5-7.6,19-16.9,19H96.2c-9.4,0-16.9-8.5-16.9-19V244.6
	C79.3,234.1,86.9,225.6,96.2,225.6z"/>
<line class="st1" x1="79.3" y1="272.4" x2="722.8" y2="272.4"/>
<path class="st2" d="M470.1,382h163.1c3.4,0,6.2,3.1,6.2,6.9v16.4c0,3.8-2.8,6.9-6.2,6.9H470.1c-3.4,0-6.2-3.1-6.2-6.9v-16.4
	C463.9,385.1,466.7,382,470.1,382z"/>
<path class="st2" d="M436.5,466.1h230.3c3.4,0,6.2,3.1,6.2,6.9v10.6c0,3.8-2.8,6.9-6.2,6.9H436.5c-3.4,0-6.2-3.1-6.2-6.9V473
	C430.3,469.2,433.1,466.1,436.5,466.1z"/>
<path class="st2" d="M436.5,532.6h230.3c3.4,0,6.2,3.1,6.2,6.9v10.6c0,3.8-2.8,6.9-6.2,6.9H436.5c-3.4,0-6.2-3.1-6.2-6.9v-10.6
	C430.3,535.7,433.1,532.6,436.5,532.6z"/>
<path class="st2" d="M436.5,599.1h230.3c3.4,0,6.2,3.1,6.2,6.9v10.6c0,3.8-2.8,6.9-6.2,6.9H436.5c-3.4,0-6.2-3.1-6.2-6.9V606
	C430.3,602.2,433.1,599.1,436.5,599.1z"/>
<path class="st1" d="M478.8,372.2h163.1c3.4,0,6.2,3.1,6.2,6.9v16.4c0,3.8-2.8,6.9-6.2,6.9H478.8c-3.4,0-6.2-3.1-6.2-6.9v-16.4
	C472.6,375.3,475.4,372.2,478.8,372.2z"/>
<path class="st1" d="M445.2,456.3h230.3c3.4,0,6.2,3.1,6.2,6.9v10.6c0,3.8-2.8,6.9-6.2,6.9H445.2c-3.4,0-6.2-3.1-6.2-6.9v-10.6
	C439,459.4,441.8,456.3,445.2,456.3z"/>
<path class="st1" d="M445.2,522.8h230.3c3.4,0,6.2,3.1,6.2,6.9v10.6c0,3.8-2.8,6.9-6.2,6.9H445.2c-3.4,0-6.2-3.1-6.2-6.9v-10.6
	C439,525.9,441.8,522.8,445.2,522.8z"/>
<path class="st1" d="M445.2,589.3h230.3c3.4,0,6.2,3.1,6.2,6.9v10.6c0,3.8-2.8,6.9-6.2,6.9H445.2c-3.4,0-6.2-3.1-6.2-6.9v-10.6
	C439,592.4,441.8,589.3,445.2,589.3z"/>
<ellipse class="st2" cx="128.2" cy="254.9" rx="13.1" ry="14.7"/>
<ellipse class="st2" cx="164.8" cy="254.9" rx="13.1" ry="14.7"/>
<ellipse class="st2" cx="201.5" cy="254.9" rx="13.1" ry="14.7"/>
<ellipse class="st1" cx="133.4" cy="249.1" rx="13.1" ry="14.7"/>
<ellipse class="st1" cx="170.1" cy="249.1" rx="13.1" ry="14.7"/>
<ellipse class="st1" cx="206.8" cy="249.1" rx="13.1" ry="14.7"/>
<path class="st3" d="M293.1,692.9c-2.2-11.3-2.8-26.8-2-37.5c0,0-11.1-54.5-19.8-59.6l0,0c-0.1,0.2-4.4,6.4-4.9,25.6
	c-0.5,19.5-6.7,32.4-6.7,32.4s2,24.4,0.9,39.1H293.1z"/>
<path class="st3" d="M383.4,345.8H165.5c-12.4,0-22.5,10.4-22.5,23.2l0,0v300.6c0,12.8,10.1,23.2,22.5,23.2l0,0H242
	c-2.6-10.9-5.7-28.1-2.5-39.9l0,0l0,0c0.2-0.6,0.3-1.1,0.5-1.6c2.2-7.7,2.9-15.8,2.2-23.8c1.4-6.8,1.4-13.9,0-20.8
	c-2.4-11.4-4-22.6-4-22.6s-1.3-15.1-0.2-24.3c0-0.2,0.1-0.4,0.1-0.6c-0.4-0.1-0.6-0.1-0.6-0.1s3.3-15.7,4.5-25.6
	c0.3-2.4,0.6-5.3,1-8.5c-1.1-0.2-2.2-0.5-3.2-0.8c-10.6-3.9-14-38.9-14-38.9v-11.1c0,0-3.5-17,8.9-24.5c11.9-7.3,16.7-9.2,17-9.4
	c0.1-0.1,0.2-0.1,0.3-0.2c1.3-1.1,2.4-2.5,3.1-4.1c0-0.3,0-0.6,0-0.8c-0.2-4-2.9-7.6-5.4-10.7c-2.2-2.7-4.3-5.4-6.5-8.1
	c-0.7-0.8-1.3-1.8-1.7-2.8c-0.1-0.6-0.2-1.2-0.2-1.8c0-0.2,0-0.4,0-0.7c0-2,0.1-4,0.2-6c0.1-1.8,0.5-4,2.1-4.3
	c0.9-0.2,2,0.1,2.5-0.6c0.2-0.3,0.2-0.7,0.1-1v0.1v-0.1c-0.3-1.4-0.5-2.8-0.6-4.3c0-0.7,0.1-1.3,0.3-1.9c1-2.9,4.3-4.1,7.2-4.7
	c2.9-0.5,6.2-1,8-3.4c0.5-0.8,1-1.6,1.6-2.3c0.8-0.8,1.9-1.3,3-1.6c3.6-1,7.5-0.6,10.9,1c1.4,0.7,2.8,1.6,4.4,1.5
	c1.6-0.1,3-1.3,4.6-1.6c2.6-0.5,5,1.5,6.3,3.9c0.8,1.5,1.2,3.2,1.2,4.9c0,1.7-0.6,3.4-1.7,4.6c-1.1,1.2-2.8,2-3.2,3.6
	c-0.2,0.7-0.1,1.4-0.3,2c0,0.1-0.1,0.2-0.1,0.2l0.1,0.1c6.7,9.1,5,22.2-3.9,29.1c-1.8,1.4-3.8,2.5-5.9,3.2c0,0.2,0,0.4,0,0.6
	c-0.1,2.6,0.9,5.1,2.7,6.9l17.5,7.4c0,0,10.6-1.3,14.4,15c0.6,2.7,0.8,5.5,0.7,8.3c-0.1,2.5,0.2,6.8,2.9,12.4
	c4.3,9,3.3,29.5-5.5,31.5c-8.4,1.9-11.7,1.1-12,1v0.4c0.1,3.9,1.5,37.1,6.3,41.1c1.3,1.1,1.1,1.9,0,2.4l0,0c0,0,0,0.2,0,0.6
	c0.1,2.4,0.9,11.7,4.1,17c3.7,6.1,3.3,41.3,3.3,41.3l2.6,20.8c0,0-1.6,12.8,0,15.1c0.9,1.3,2,20.9,2.7,37.7h65.7
	c12.4,0,22.5-10.4,22.5-23.2V369.1C405.9,356.2,395.8,345.8,383.4,345.8L383.4,345.8z"/>
<path class="st1" d="M142.8,319.4h217.9c12.4,0,22.5,10.4,22.5,23.2v300.6c0,12.8-10.1,23.2-22.5,23.2H142.8
	c-12.4,0-22.5-10.4-22.5-23.2V342.7C120.3,329.8,130.4,319.4,142.8,319.4z"/>
<path class="st1" d="M699.4,75.1c-8.3,0.6-15.6,7.7-18.9,18.3c-4.7,15.8,1.4,34.4,10.5,45.9s20.8,18.1,31.5,26.8
	c14.3,11.6,27.2,27.8,34.3,48.5c7.2,20.7,7.9,46.4-0.5,66.2c-7.8,18.4-22,29.4-35.5,39.5"/>
<ellipse class="st3" cx="711.5" cy="76.5" rx="16.7" ry="11.2"/>
<ellipse class="st3" cx="724.8" cy="150.4" rx="16.7" ry="11.2"/>
<ellipse class="st3" cx="694.3" cy="162.3" rx="16.7" ry="11.2"/>
<ellipse class="st3" cx="742" cy="224.4" rx="16.7" ry="11.2"/>
<ellipse class="st3" cx="775.3" cy="224.4" rx="16.7" ry="11.2"/>
</svg>
